<?xml version="1.0" encoding="utf-8"?>
<!-- Generator: Adobe Illustrator 16.0.4, SVG Export Plug-In . SVG Version: 6.00 Build 0)  -->
<!DOCTYPE svg PUBLIC "-//W3C//DTD SVG 1.1//EN" "http://www.w3.org/Graphics/SVG/1.1/DTD/svg11.dtd">
<svg version="1.1" id="Layer_1" xmlns="http://www.w3.org/2000/svg" xmlns:xlink="http://www.w3.org/1999/xlink" x="0px" y="0px"
	 width="124.695px" height="355px" viewBox="0 0 124.695 355" enable-background="new 0 0 124.695 355" xml:space="preserve">
<path fill="none" stroke="#000000" d="M58.019,96.994c0,0-44.053,27.465-44.053,64.829c0,24.099,24.358,25.995,24.358,40.616"/>
<path fill="none" stroke="#000000" d="M54.696,103c0,0-34.502,16.856-34.502,54.22c0,24.098,20.942,30.598,20.942,45.219"/>
<line fill="none" stroke="#676767" stroke-width="2" x1="19.461" y1="41.507" x2="55.256" y2="102.816"/>
<line fill="none" stroke="#676767" x1="9.964" y1="25.611" x2="55.256" y2="102.816"/>
<line fill="none" stroke="#676767" stroke-width="0.5" x1="1" y1="10.354" x2="55.256" y2="102.816"/>
<circle fill="#676767" cx="1" cy="10.354" r="1"/>
<circle fill="#FFCC00" cx="46.191" cy="322" r="33"/>
<polygon points="91.191,322 84.326,328.004 8.049,328.004 1.191,322 1.191,202 91.191,202 "/>
<line fill="none" stroke="#676767" stroke-width="2" x1="76.698" y1="35.502" x2="54.696" y2="103"/>
<line fill="none" stroke="#676767" x1="82.258" y1="17.84" x2="54.696" y2="103"/>
<line fill="none" stroke="#676767" stroke-width="0.5" x1="87.696" y1="1" x2="54.696" y2="103"/>
<line fill="none" stroke="#1E1E1E" x1="123.696" y1="115" x2="57.696" y2="103"/>
<line fill="none" stroke="#1E1E1E" stroke-width="2" x1="106.922" y1="111.869" x2="40.922" y2="99.869"/>
<line fill="none" stroke="#666666" stroke-width="3" x1="64.929" y1="127.02" x2="64.929" y2="202"/>
<line fill="none" stroke="#666666" stroke-width="3" x1="48.388" y1="127.02" x2="48.388" y2="202"/>
<line fill="none" stroke="#666666" stroke-width="3" x1="56.659" y1="127.02" x2="56.659" y2="202"/>
<circle cx="57.696" cy="100.002" r="45"/>
<circle fill="#FFFFFF" cx="69.696" cy="94" r="13.949"/>
<path d="M51.435,143.584c0-1.15-0.933-2.082-2.082-2.082h-1.837c-1.148,0-2.082,0.932-2.082,2.082l0,0
	c0,1.15,0.933,2.082,2.082,2.082h1.837C50.502,145.666,51.435,144.734,51.435,143.584L51.435,143.584z"/>
<path d="M72.52,57.672c0.376-1.087-0.199-2.272-1.285-2.649L69.5,54.421c-1.086-0.376-2.271,0.198-2.647,1.285l0,0
	c-0.377,1.086,0.197,2.272,1.284,2.648l1.735,0.602C70.958,59.333,72.144,58.758,72.52,57.672L72.52,57.672z"/>
<path d="M100.297,113.543c1.11,0.3,2.253-0.356,2.555-1.465l0.479-1.773c0.3-1.109-0.354-2.252-1.466-2.553l0,0
	c-1.109-0.301-2.254,0.355-2.554,1.464l-0.479,1.774C98.532,112.099,99.188,113.242,100.297,113.543L100.297,113.543z"/>
<path d="M34.931,61.63c-0.556-1.007-1.821-1.374-2.828-0.82l-1.608,0.886c-1.007,0.555-1.373,1.82-0.818,2.828l0,0
	c0.555,1.007,1.82,1.375,2.826,0.82l1.609-0.887C35.119,63.902,35.485,62.638,34.931,61.63L34.931,61.63z"/>
<path d="M59.645,144.875c0-1.149-0.933-2.082-2.082-2.082h-1.837c-1.148,0-2.082,0.932-2.082,2.082l0,0
	c0,1.149,0.933,2.082,2.082,2.082h1.837C58.712,146.957,59.645,146.025,59.645,144.875L59.645,144.875z"/>
<path d="M67.947,143.584c0-1.15-0.932-2.082-2.081-2.082h-1.838c-1.148,0-2.082,0.932-2.082,2.082l0,0
	c0,1.15,0.933,2.082,2.082,2.082h1.838C67.015,145.666,67.947,144.734,67.947,143.584L67.947,143.584z"/>
<path d="M51.435,202.236c0-1.15-0.933-2.082-2.082-2.082h-1.837c-1.148,0-2.082,0.932-2.082,2.082l0,0
	c0,1.148,0.933,2.082,2.082,2.082h1.837C50.502,204.318,51.435,203.386,51.435,202.236L51.435,202.236z"/>
<path d="M43.281,202.236c0-1.15-0.932-2.082-2.081-2.082h-3.344c-1.148,0-2.082,0.932-2.082,2.082h-0.008
	c0,1.148,0.939,2.082,2.09,2.082H41.2C42.349,204.318,43.281,203.386,43.281,202.236L43.281,202.236z"/>
<path d="M59.645,202.236c0-1.149-0.933-2.082-2.082-2.082h-1.837c-1.148,0-2.082,0.932-2.082,2.082l0,0
	c0,1.147,0.933,2.082,2.082,2.082h1.837C58.712,204.318,59.645,203.386,59.645,202.236L59.645,202.236z"/>
<path d="M67.947,202.236c0-1.15-0.932-2.082-2.081-2.082h-1.838c-1.148,0-2.082,0.932-2.082,2.082l0,0
	c0,1.148,0.933,2.082,2.082,2.082h1.838C67.015,204.318,67.947,203.386,67.947,202.236L67.947,202.236z"/>
<circle fill="#1E1E1E" cx="123.696" cy="115" r="1"/>
<circle fill="#676767" cx="87.696" cy="1" r="1"/>
<g>
	<path fill="#FFFFFF" d="M40.982,71.634c0.272-2.369-1.761-3.843-4.542-3.291c-2.78,0.552-5.26,2.922-5.535,5.29
		c-0.271,2.368,1.764,3.843,4.542,3.29C38.23,76.371,40.71,74.001,40.982,71.634z"/>
	<path fill="#6699CC" d="M40.144,71.801c0.229-1.975-1.469-3.202-3.785-2.742s-4.385,2.435-4.611,4.408
		c-0.229,1.973,1.467,3.201,3.786,2.741C37.849,75.748,39.915,73.773,40.144,71.801z"/>
	<path fill="#19334C" d="M37.26,72.373c0.072-0.62-0.46-1.003-1.185-0.859c-0.728,0.145-1.375,0.762-1.446,1.381
		c-0.07,0.618,0.46,1.002,1.188,0.858C36.542,73.608,37.189,72.991,37.26,72.373z"/>
</g>
<path fill="none" stroke="#FFFFFF" stroke-width="1.1" stroke-linecap="round" d="M86.574,94.206
	c0-9.321-7.559-16.876-16.879-16.876s-16.879,7.555-16.879,16.876"/>
<g>
	<path fill="#FFFFFF" d="M35.453,85.072c-1.731-3.131-5.498-3.156-8.414-0.056c-2.912,3.097-3.873,8.152-2.144,11.282
		c1.733,3.129,5.503,3.153,8.413,0.056C36.225,93.255,37.186,88.198,35.453,85.072z"/>
	<path fill="#6699CC" d="M34.576,86.007c-1.443-2.608-4.584-2.628-7.01-0.046c-2.429,2.582-3.231,6.793-1.788,9.401
		c1.439,2.607,4.582,2.629,7.014,0.044C35.215,92.827,36.016,88.613,34.576,86.007z"/>
	<path fill="#19334C" d="M31.554,89.22c-0.452-0.82-1.437-0.823-2.194-0.017c-0.762,0.811-1.016,2.129-0.562,2.947
		c0.452,0.817,1.437,0.821,2.197,0.012C31.756,91.354,32.009,90.036,31.554,89.22z"/>
</g>
<circle fill="#5D9917" cx="69.696" cy="94" r="2.09"/>
<path fill="none" stroke="#989898" stroke-width="1.1" stroke-linecap="round" d="M52.815,93.92c0,9.321,7.559,16.876,16.878,16.876
	c9.321,0,16.879-7.555,16.879-16.876"/>
<path fill="none" stroke="#989898" stroke-width="0.77" stroke-linecap="round" d="M61.869,102.908
	c4.861,4.352,12.331,3.937,16.682-0.925c4.353-4.862,3.939-12.33-0.922-16.682"/>
<rect x="1.366" y="220.516" fill="#FFCC00" width="68.993" height="2.5"/>
<rect x="1.191" y="225.5" fill="#336699" width="20.504" height="80"/>
<rect x="45.36" y="225.5" fill="#336699" width="25" height="80"/>
<rect x="21.861" y="225.5" fill="#19334C" width="23.499" height="80"/>
<line fill="none" stroke="#FFFFFF" x1="21.869" y1="228.533" x2="45.598" y2="228.533"/>
<line fill="none" stroke="#FFFFFF" x1="21.869" y1="231.667" x2="45.598" y2="231.667"/>
<line fill="none" stroke="#FFFFFF" x1="21.869" y1="234.801" x2="45.598" y2="234.801"/>
<line fill="none" stroke="#FFFFFF" x1="21.869" y1="237.936" x2="45.598" y2="237.936"/>
<line fill="none" stroke="#FFFFFF" x1="21.869" y1="241.068" x2="45.598" y2="241.068"/>
<line fill="none" stroke="#FFFFFF" x1="21.869" y1="244.202" x2="45.598" y2="244.202"/>
<line fill="none" stroke="#FFFFFF" x1="21.869" y1="247.336" x2="45.598" y2="247.336"/>
<line fill="none" stroke="#FFFFFF" x1="21.869" y1="250.471" x2="45.598" y2="250.471"/>
<line fill="none" stroke="#FFFFFF" x1="21.869" y1="253.604" x2="45.598" y2="253.604"/>
<line fill="none" stroke="#FFFFFF" x1="21.869" y1="256.736" x2="45.598" y2="256.736"/>
<line fill="none" stroke="#FFFFFF" x1="21.869" y1="259.871" x2="45.598" y2="259.871"/>
<line fill="none" stroke="#FFFFFF" x1="21.869" y1="263.005" x2="45.598" y2="263.005"/>
<line fill="none" stroke="#FFFFFF" x1="21.869" y1="266.139" x2="45.598" y2="266.139"/>
<line fill="none" stroke="#FFFFFF" x1="21.869" y1="269.271" x2="45.598" y2="269.271"/>
<line fill="none" stroke="#FFFFFF" x1="21.869" y1="272.406" x2="45.598" y2="272.406"/>
<line fill="none" stroke="#FFFFFF" x1="21.869" y1="275.54" x2="45.598" y2="275.54"/>
<rect x="21.646" y="303.484" width="23.953" height="4.254"/>
<line fill="none" stroke="#000000" x1="45.36" y1="225.5" x2="45.36" y2="308.25"/>
</svg>
