<?xml version="1.0" encoding="utf-8"?>
<!-- Generator: Adobe Illustrator 18.0.0, SVG Export Plug-In . SVG Version: 6.00 Build 0)  -->
<!DOCTYPE svg PUBLIC "-//W3C//DTD SVG 1.1//EN" "http://www.w3.org/Graphics/SVG/1.1/DTD/svg11.dtd">
<svg version="1.1" id="Layer_1" xmlns="http://www.w3.org/2000/svg" xmlns:xlink="http://www.w3.org/1999/xlink" x="0px" y="0px"
	 viewBox="65 153 499 477" enable-background="new 65 153 499 477" xml:space="preserve">
<g>
	<rect x="190.8" y="190.7" fill="none" stroke="#999999" stroke-width="1.3" width="319.8" height="319.8"/>
	<line fill="none" stroke="#999999" stroke-width="1.3" x1="190.8" y1="457.3" x2="510.7" y2="457.3"/>
	<line fill="none" stroke="#999999" stroke-width="1.3" x1="190.8" y1="403.9" x2="510.7" y2="403.9"/>
	<line fill="none" stroke="#999999" stroke-width="1.3" x1="190.8" y1="350.8" x2="510.7" y2="350.8"/>
	<line fill="none" stroke="#999999" stroke-width="1.3" x1="190.8" y1="297.4" x2="510.7" y2="297.4"/>
	<line fill="none" stroke="#999999" stroke-width="1.3" x1="190.8" y1="244" x2="510.7" y2="244"/>
	<line fill="none" stroke="#999999" stroke-width="1.3" x1="457.3" y1="190.7" x2="457.3" y2="510.7"/>
	<line fill="none" stroke="#999999" stroke-width="1.3" x1="404.1" y1="190.7" x2="404.1" y2="510.7"/>
	<line fill="none" stroke="#999999" stroke-width="1.3" x1="350.7" y1="190.7" x2="350.7" y2="510.7"/>
	<line fill="none" stroke="#999999" stroke-width="1.3" x1="297.4" y1="190.7" x2="297.4" y2="510.7"/>
	<line fill="none" stroke="#999999" stroke-width="1.3" x1="244.2" y1="190.7" x2="244.2" y2="510.7"/>
</g>
<text transform="matrix(1 0 0 1 187.4785 595.7023)" font-family="'TheSerif-HP5Plain'" font-size="25.8187">x</text>
<text transform="matrix(1 0 0 1 101.2942 510.1183)" font-family="'TheSerif-HP5Plain'" font-size="25.8187">y</text>
<text transform="matrix(1 0 0 1 186.4558 551.0206)" font-family="'TheSerif-HP5Plain'" font-size="25.8187">0</text>
<text transform="matrix(1 0 0 1 200.656 551.0206)" font-family="'TheSerif-HP5Plain'" font-size="25.8187" letter-spacing="29"> </text>
<text transform="matrix(1 0 0 1 238.093 551.0206)" font-family="'TheSerif-HP5Plain'" font-size="25.8187">1</text>
<text transform="matrix(1 0 0 1 252.2932 551.0206)" font-family="'TheSerif-HP5Plain'" font-size="25.8187" letter-spacing="29"> </text>
<text transform="matrix(1 0 0 1 289.7307 551.0206)" font-family="'TheSerif-HP5Plain'" font-size="25.8187">2</text>
<text transform="matrix(1 0 0 1 303.9309 551.0206)" font-family="'TheSerif-HP5Plain'" font-size="25.8187" letter-spacing="29"> </text>
<text transform="matrix(1 0 0 1 341.3679 551.0206)" font-family="'TheSerif-HP5Plain'" font-size="25.8187">3</text>
<text transform="matrix(1 0 0 1 355.5681 551.0206)" font-family="'TheSerif-HP5Plain'" font-size="25.8187" letter-spacing="29"> </text>
<text transform="matrix(1 0 0 1 393.0046 551.0206)" font-family="'TheSerif-HP5Plain'" font-size="25.8187">4</text>
<text transform="matrix(1 0 0 1 407.2058 551.0206)" font-family="'TheSerif-HP5Plain'" font-size="25.8187" letter-spacing="29"> </text>
<text transform="matrix(1 0 0 1 444.6423 551.0206)" font-family="'TheSerif-HP5Plain'" font-size="25.8187"> 5</text>
<text transform="matrix(1 0 0 1 458.8445 551.0206)" font-family="'TheSerif-HP5Plain'" font-size="25.8187" letter-spacing="29"> </text>
<text transform="matrix(1 0 0 1 496.281 551.0206)" font-family="'TheSerif-HP5Plain'" font-size="25.8187"> 6</text>
<circle cx="244.8" cy="510.8" r="8.2"/>
<circle cx="403.9" cy="244.4" r="8.2"/>
<text transform="matrix(1 0 0 1 147.7932 202.2047)" font-family="'TheSerif-HP5Plain'" font-size="25.8187">6</text>
<text transform="matrix(1 0 0 1 147.7932 253.8432)" font-family="'TheSerif-HP5Plain'" font-size="25.8187">5</text>
<text transform="matrix(1 0 0 1 147.7932 305.4803)" font-family="'TheSerif-HP5Plain'" font-size="25.8187">4</text>
<text transform="matrix(1 0 0 1 147.7932 357.1178)" font-family="'TheSerif-HP5Plain'" font-size="25.8187">3</text>
<text transform="matrix(1 0 0 1 147.7932 408.755)" font-family="'TheSerif-HP5Plain'" font-size="25.8187">2</text>
<text transform="matrix(1 0 0 1 147.7932 460.3917)" font-family="'TheSerif-HP5Plain'" font-size="25.8187">1</text>
<text transform="matrix(1 0 0 1 147.7932 512.0294)" font-family="'TheSerif-HP5Plain'" font-size="25.8187">0</text>
<line fill="none" stroke="#000000" stroke-width="1.3" x1="192.1" y1="190.7" x2="181.9" y2="190.7"/>
<line fill="none" stroke="#000000" stroke-width="1.3" x1="192.1" y1="244.3" x2="181.9" y2="244.3"/>
<line fill="none" stroke="#000000" stroke-width="1.3" x1="192.1" y1="297.4" x2="181.9" y2="297.4"/>
<line fill="none" stroke="#000000" stroke-width="1.3" x1="192.1" y1="350.6" x2="181.9" y2="350.6"/>
<line fill="none" stroke="#000000" stroke-width="1.3" x1="192.1" y1="403.9" x2="181.9" y2="403.9"/>
<line fill="none" stroke="#000000" stroke-width="1.3" x1="192.1" y1="458" x2="181.9" y2="458"/>
<line fill="none" stroke="#000000" stroke-width="1.3" x1="192.1" y1="510.1" x2="181.9" y2="510.1"/>
<line fill="none" stroke="#000000" stroke-width="1.3" x1="510.3" y1="520.6" x2="510.3" y2="510.2"/>
<line fill="none" stroke="#000000" stroke-width="1.3" x1="456.6" y1="520.6" x2="456.6" y2="510.2"/>
<line fill="none" stroke="#000000" stroke-width="1.3" x1="403.5" y1="520.6" x2="403.5" y2="510.2"/>
<line fill="none" stroke="#000000" stroke-width="1.3" x1="350.4" y1="520.6" x2="350.4" y2="510.2"/>
<line fill="none" stroke="#000000" stroke-width="1.3" x1="297" y1="520.6" x2="297" y2="510.2"/>
<line fill="none" stroke="#000000" stroke-width="1.3" x1="242.8" y1="520.6" x2="242.8" y2="510.2"/>
<line fill="none" stroke="#000000" stroke-width="1.3" x1="190.8" y1="520.6" x2="190.8" y2="510.2"/>
<polyline fill="#FFFFFF" stroke="#000000" stroke-width="1.3" points="101.8,412.6 108.1,406.3 114.6,412.6 "/>
<line fill="none" stroke="#000000" stroke-width="1.3" x1="108.1" y1="406.3" x2="108.1" y2="481.3"/>
<polyline fill="#FFFFFF" stroke="#000000" stroke-width="1.3" points="288.6,581.5 294.9,587.8 288.6,594.2 "/>
<line fill="none" stroke="#000000" stroke-width="1.3" x1="296.4" y1="587.8" x2="221.5" y2="587.8"/>
<line fill="none" stroke="#000000" stroke-width="1.3" x1="244.8" y1="510.1" x2="403.6" y2="244"/>
<text transform="matrix(1 0 0 1 421.665 251.0675)" font-family="'TheSerif-HP5Plain'" font-size="25.8187">B ( 4 , 5 )</text>
<text transform="matrix(1 0 0 1 265.4113 503.423)" font-family="'TheSerif-HP5Plain'" font-size="25.8187">A ( 1 , 0 )</text>
</svg>
