<?xml version="1.0" encoding="utf-8"?>
<!-- Generator: Adobe Illustrator 18.0.0, SVG Export Plug-In . SVG Version: 6.00 Build 0)  -->
<!DOCTYPE svg PUBLIC "-//W3C//DTD SVG 1.1//EN" "http://www.w3.org/Graphics/SVG/1.1/DTD/svg11.dtd">
<svg version="1.1" id="Layer_1" xmlns="http://www.w3.org/2000/svg" xmlns:xlink="http://www.w3.org/1999/xlink" x="0px" y="0px"
	 viewBox="0 0 612 792" enable-background="new 0 0 612 792" xml:space="preserve">
<rect x="400.6" y="272.7" opacity="0.5" fill="#FFFF00" enable-background="new    " width="324.4" height="325.8"/>
<rect x="31" y="435.5" opacity="0.5" fill="#FFFF00" enable-background="new    " width="163" height="163"/>
<g>
	<rect x="-130.4" y="274" fill="none" stroke="#999999" stroke-width="1.3" width="324.4" height="324.4"/>
	<line fill="none" stroke="#999999" stroke-width="1.3" x1="-130.4" y1="544.4" x2="194" y2="544.4"/>
	<line fill="none" stroke="#999999" stroke-width="1.3" x1="-130.4" y1="490.1" x2="194" y2="490.1"/>
	<line fill="none" stroke="#999999" stroke-width="1.3" x1="-130.4" y1="436.2" x2="194" y2="436.2"/>
	<line fill="none" stroke="#999999" stroke-width="1.3" x1="-130.4" y1="382.2" x2="194" y2="382.2"/>
	<line fill="none" stroke="#999999" stroke-width="1.3" x1="-130.4" y1="328.1" x2="194" y2="328.1"/>
	<line fill="none" stroke="#999999" stroke-width="1.3" x1="139.8" y1="274" x2="139.8" y2="598.5"/>
	<line fill="none" stroke="#999999" stroke-width="1.3" x1="86" y1="274" x2="86" y2="598.5"/>
	<line fill="none" stroke="#999999" stroke-width="1.3" x1="31.8" y1="274" x2="31.8" y2="598.5"/>
	<line fill="none" stroke="#999999" stroke-width="1.3" x1="-22.2" y1="274" x2="-22.2" y2="598.5"/>
	<line fill="none" stroke="#999999" stroke-width="1.3" x1="-76.2" y1="274" x2="-76.2" y2="598.5"/>
</g>
<g enable-background="new    ">
	<path d="M33.2,255l-2.9-4.9l-2.9,4.9h-4v-1.4c0.8-0.2,1.5-0.3,2.3-0.3l3.2-4.7l-3.1-4.7c-0.8,0-1.5-0.2-2.1-0.3v-1.4h4l2.7,4.7
		l2.9-4.7h3.8v1.4c-0.8,0.2-1.5,0.3-2.3,0.3l-2.9,4.6l3.2,4.9c0.8,0,1.4,0.2,2.1,0.3v1.4H33.2z"/>
</g>
<g enable-background="new    ">
	<path d="M219.3,428l-4.6,12.7c-1.4,4-2.7,5.3-5.6,5.3c-0.5,0-1.2,0-1.8-0.2l0.2-2.1c0.6,0.2,1.1,0.3,1.7,0.3c1.4,0,2.3-0.8,3.2-3.2
		l0.6-1.5h-0.6l-4-11.3c-0.6,0-1.2-0.2-1.7-0.3v-1.4h6v1.4c-0.5,0.2-1.1,0.3-1.7,0.3l2,5.6c0.5,1.2,0.8,2.1,1.1,3.2l0,0
		c0.2-0.9,0.8-2.4,1.2-3.8l1.7-5c-0.6,0-1.2-0.2-1.7-0.3v-1.4h5.8v1.4C220.6,427.9,220,428,219.3,428z"/>
</g>
<polyline fill="#FFFFFF" stroke="#000000" stroke-width="1.3" points="25.9,280.9 32.3,274.5 38.8,280.9 "/>
<polyline fill="#FFFFFF" stroke="#000000" stroke-width="1.3" points="185.6,429.8 192,436.2 185.6,442.7 "/>
<line fill="none" stroke="#000000" stroke-width="1.3" x1="192" y1="436.2" x2="-130.4" y2="436.2"/>
<line fill="none" stroke="#000000" stroke-width="1.3" x1="30.7" y1="275.1" x2="30.7" y2="597.4"/>
<polyline fill="none" stroke="#000000" stroke-width="1.3" points="38.1,593 31.7,599.2 25.2,593 "/>
<polyline fill="none" stroke="#000000" stroke-width="1.3" points="-124,442.7 -130.4,436.2 -124,429.8 "/>
<g enable-background="new    ">
	<path d="M-32,661.8v-1.4c0.6-0.2,1.5-0.3,2.3-0.3v-14.2c-0.8,0-1.5-0.2-2.3-0.3v-1.4h11.4v4.1h-1.7c-0.2-0.8-0.3-1.5-0.3-2.1h-4.7
		v5.8h3.8c0.2-0.6,0.2-1.2,0.3-1.8h1.5v5.3h-1.5c-0.2-0.6-0.3-1.2-0.3-1.8h-3.8v6.3h4.7c0.2-0.6,0.2-1.5,0.3-2.3h1.7v4.1L-32,661.8
		L-32,661.8z"/>
	<path d="M-18.1,661.8v-1.4c0.6-0.2,1.5-0.3,2.3-0.3v-9.5c-0.6-0.2-1.5-0.2-2.3-0.3V649c1.4-0.2,3.1-0.3,4.6-0.2v11.3
		c0.8,0,1.5,0.2,2.1,0.3v1.4H-18.1z M-14.6,646.2c-0.9,0-1.5-0.6-1.5-1.5s0.8-1.5,1.5-1.5s1.5,0.6,1.5,1.5S-13.8,646.2-14.6,646.2z"
		/>
	<path d="M-4.2,668.5c-3.4,0-5.5-1.4-5.5-4c0-1.5,1.1-2.7,2.1-3.5c-0.8-0.3-1.2-1.1-1.2-2s0.6-1.8,1.4-2.1c-1.2-0.8-2-1.8-2-3.5
		c0-2.6,2-4.9,5.5-4.9c0.8,0,1.2,0.2,1.8,0.3h4.4v1.8H0.2c0.6,0.5,1.1,1.4,1.1,2.4c0,2.6-1.8,4.7-5.5,4.7c-0.5,0-0.9,0-1.4-0.2
		c-0.6,0.3-0.8,0.6-0.8,1.1c0,0.8,0.6,0.9,2.3,1.1l2.4,0.2c2.7,0.2,4.4,1.4,4.4,3.8C2.7,666.4-0.1,668.5-4.2,668.5z M-2.4,661.8
		l-2.4-0.2c-0.3,0-0.6,0-0.8,0c-1.1,0.8-1.7,1.5-1.7,2.6c0,1.5,1.5,2.4,3.5,2.4c2.6,0,4.1-1.2,4.1-2.7
		C0.2,662.5-0.5,661.8-2.4,661.8z M-3.9,650.3c-2,0-3.1,1.2-3.1,2.9c0,1.8,1.1,2.9,3.1,2.9c1.8,0,3.1-1.1,3.1-2.9
		C-1,651.4-1.9,650.3-3.9,650.3z"/>
	<path d="M14.4,661.8v-8.4c0-1.8-0.5-2.9-2.3-2.9c-2.1,0-3.7,2.1-3.7,5v4.4c0.8,0,1.5,0.2,2.1,0.3v1.4H3.9v-1.4
		c0.6-0.2,1.4-0.3,2.1-0.3v-15.6c-0.6-0.2-1.5-0.2-2.3-0.3v-1.4c1.4-0.2,3.1-0.3,4.6-0.2v6.1c0,0.8,0,1.8-0.3,2.6l0,0
		c0.8-1.8,2.3-2.9,4.6-2.9c2.9,0,4,1.8,4,4.1v7.3c0.8,0,1.5,0.2,2.1,0.3v1.4h-4.3V661.8z"/>
	<path d="M25.2,662.1c-2.6,0-3.5-1.1-3.5-4v-7.5h-2.6v-1.8h2.6v-4.3l2.3-0.6v4.9h3.7v1.8H24v6.7c0,2.1,0.5,2.7,1.8,2.7
		c0.6,0,1.2-0.2,1.7-0.2l0.3,2C27.2,661.9,26.2,662.1,25.2,662.1z"/>
	<path d="M39.7,661.8v-8.4c0-1.8-0.5-2.9-2.3-2.9c-2.1,0-3.7,2.1-3.7,5v4.4c0.8,0,1.5,0.2,2.1,0.3v1.4h-6.7v-1.4
		c0.6-0.2,1.4-0.3,2.1-0.3v-15.6c-0.6-0.2-1.5-0.2-2.3-0.3v-1.4c1.4-0.2,3.1-0.3,4.6-0.2v6.1c0,0.8,0,1.8-0.3,2.6l0,0
		c0.8-1.8,2.3-2.9,4.6-2.9c2.9,0,4,1.8,4,4.1v7.3c0.8,0,1.5,0.2,2.1,0.3v1.4h-4.3V661.8z"/>
	<path d="M66.1,654.6v6.4c-1.7,0.6-4,1.1-5.8,1.1c-5.3,0-8.7-3.2-8.7-8.7c0-5.5,3.4-9.5,9.5-9.5c1.7,0,3.2,0.3,4.9,0.6v4.1h-1.7
		c-0.2-0.9-0.3-1.7-0.3-2.3c-0.9-0.3-2-0.5-3.1-0.5c-3.8,0-6.7,2.3-6.7,7c0,4.4,2.6,6.9,6.6,6.9c1.2,0,2.1-0.2,3.1-0.5v-4.9
		c-0.8,0-1.5-0.2-2.3-0.3v-1.4H68v1.4C67.4,654.3,66.8,654.5,66.1,654.6z"/>
	<path d="M78.3,650.9c-3.1-0.5-4.3,1.5-4.3,5.6v3.5c0.8,0,1.5,0.2,2.3,0.3v1.4h-7v-1.4c0.6-0.2,1.5-0.3,2.3-0.3v-9.5
		c-0.6-0.2-1.5-0.2-2.3-0.3V649c1.4-0.2,3.1-0.3,4.6-0.2c0,0.8-0.2,2-0.3,3.1l0,0c0.6-1.8,1.8-3.7,4.7-3.4V650.9z"/>
	<path d="M87.5,661.8c0-0.9,0-1.8,0.2-2.6l0,0c-0.6,1.5-2.3,2.9-4.4,2.9c-2.1,0-3.7-1.4-3.7-3.4c0-2.7,2.9-4.4,7.8-4.4v-0.9
		c0-1.8-0.6-2.9-2.7-2.9c-0.8,0-1.7,0.2-2.4,0.3c0,0.6-0.2,1.4-0.3,2.1h-1.5v-3.7c1.4-0.5,2.9-0.8,4.4-0.8c3.8,0,4.9,1.7,4.9,4.3v7
		c0.6,0.2,1.5,0.2,2.1,0.3v1.4C90.9,661.8,89,661.9,87.5,661.8z M87.5,655.8c-4.1,0-5.5,1.1-5.5,2.4c0,1.1,0.8,2,2,2
		c2.1,0,3.5-2.1,3.5-4.1V655.8z"/>
	<path d="M102.6,661.8c0-0.8,0-1.8,0.2-2.6l0,0c-0.8,1.7-2.3,2.9-4.4,2.9c-3.2,0-4.7-2.3-4.7-6.1c0-4.6,2.6-7.3,6.7-7.3
		c0.8,0,1.4,0,2.1,0.2v-4.1c-0.6-0.2-1.5-0.2-2.3-0.3V643c1.4-0.2,3.1-0.3,4.6-0.2v17.1c0.6,0.2,1.5,0.2,2.1,0.3v1.4
		C105.8,661.8,104,661.9,102.6,661.8z M102.5,650.8c-0.8-0.2-1.5-0.3-2.3-0.3c-2.4,0-4.1,1.5-4.1,5.2c0,2.7,0.9,4.4,2.9,4.4
		c2.3,0,3.5-2.7,3.5-5C102.5,655.1,102.5,650.8,102.5,650.8z"/>
	<path d="M119.4,655.2h-8.5c-0.2,3.4,1.2,4.9,4.1,4.9c1.2,0,2.6-0.3,3.7-0.8l0.3,1.8c-1.4,0.5-2.9,0.8-4.6,0.8c-4,0-6.1-2.1-6.1-6.7
		c0-3.8,2.1-6.9,5.8-6.9s5.2,2.4,5.2,5.3C119.4,654.2,119.4,654.8,119.4,655.2z M114.2,650.3c-1.7,0-2.9,1.2-3.2,3.2h6.1
		C117.1,651.6,116,650.3,114.2,650.3z"/>
</g>
<g enable-background="new    ">
	<path d="M494.2,662.7c-5.3,0-8.1-3.4-8.1-8.7s2.9-9.5,8.5-9.5c1.4,0,2.9,0.2,4.3,0.5v4.3h-1.7c-0.2-0.9-0.3-1.7-0.3-2.4
		c-0.9-0.3-1.7-0.3-2.6-0.3c-3.8,0-5.6,3.1-5.6,7c0,4.3,2,6.9,6,6.9c1.4,0,3.1-0.3,4.1-0.9l0.5,2C497.7,662.2,496,662.7,494.2,662.7
		z"/>
	<path d="M506.5,662.7c-3.5,0-5.8-2-5.8-6.6c0-4,2.4-6.9,6.4-6.9c3.4,0,5.8,1.8,5.8,6.6C512.8,659.6,510.5,662.7,506.5,662.7z
		 M506.8,651.1c-2,0-3.7,1.4-3.7,4.7c0,3.1,1.2,4.7,3.7,4.7c2,0,3.7-1.5,3.7-4.7C510.3,652.9,509.1,651.1,506.8,651.1z"/>
	<path d="M533.1,662.4V654c0-1.8-0.5-2.9-2.1-2.9c-1.8,0-3.7,2-3.7,5.2v4.4c0.8,0,1.5,0.2,2.1,0.3v1.4H525V654
		c0-1.7-0.3-2.9-2.1-2.9c-2,0-3.7,2.1-3.7,5.2v4.4c0.8,0,1.5,0.2,2.1,0.3v1.4h-6.7V661c0.6-0.2,1.5-0.3,2.3-0.3v-9.5
		c-0.6-0.2-1.5-0.2-2.3-0.3v-1.4c1.4-0.2,3.2-0.3,4.6-0.2c0,0.8-0.2,2-0.2,2.7l0,0c0.8-1.8,2.4-3.1,4.4-3.1c2.7,0,3.5,1.8,3.7,2.9
		c0.5-1.2,2-2.9,4.4-2.9s3.8,1.4,3.8,4.3v7.2c0.8,0,1.5,0.2,2.1,0.3v1.4L533.1,662.4L533.1,662.4z"/>
	<path d="M545.1,662.5c-0.8,0-1.4,0-2.3-0.2v4.7c0.8,0,1.5,0.2,2.3,0.3v1.4h-6.9v-1.4c0.6-0.2,1.4-0.3,2.1-0.3v-15.9
		c-0.6-0.2-1.4-0.2-2.1-0.3v-1.4c1.2-0.2,3.1-0.3,4.4-0.2c0,0.8-0.2,2-0.2,2.6l0,0c0.8-1.8,2.3-2.9,4.3-2.9c3.1,0,4.7,2.1,4.7,6.1
		C551.8,659.9,549.4,662.5,545.1,662.5z M546.5,651.1c-2.3,0-3.5,2.7-3.5,5v4.3c0.8,0.2,1.4,0.3,2.3,0.3c2.4,0,4.1-1.5,4.1-5.2
		C549.4,652.8,548.5,651.1,546.5,651.1z"/>
	<path d="M563.9,662.4c0-0.8,0-2,0.2-2.7l0,0c-0.8,1.8-2.3,3.1-4.6,3.1c-3.1,0-4-1.8-4-4.1v-7.2c-0.6-0.2-1.5-0.2-2.1-0.3v-1.4
		c1.2-0.2,3.1-0.3,4.6-0.2v8.4c0,1.8,0.5,2.9,2.3,2.9c2.1,0,3.7-2.1,3.7-5v-4.4c-0.6-0.2-1.4-0.2-2.1-0.3v-1.4
		c1.2-0.2,3.1-0.3,4.4-0.2v11.1c0.6,0.2,1.5,0.2,2.1,0.3v1.4C567.1,662.4,565.3,662.5,563.9,662.4z"/>
	<path d="M574.9,662.7c-2.6,0-3.5-1.1-3.5-4v-7.5h-2.6v-1.8h2.6v-4.3l2.3-0.6v4.9h3.7v1.8h-3.7v6.7c0,2.1,0.5,2.7,1.8,2.7
		c0.6,0,1.2-0.2,1.7-0.2l0.3,2C576.7,662.5,575.7,662.7,574.9,662.7z"/>
	<path d="M590.3,655.8h-8.5c-0.2,3.4,1.2,4.9,4.1,4.9c1.2,0,2.6-0.3,3.7-0.8l0.3,1.8c-1.4,0.5-2.9,0.8-4.6,0.8c-4,0-6.1-2.1-6.1-6.7
		c0-3.8,2.1-6.9,5.8-6.9s5.2,2.4,5.2,5.3C590.5,654.8,590.5,655.4,590.3,655.8z M585.1,650.9c-1.7,0-2.9,1.2-3.2,3.2h6.1
		C588,652.2,586.9,650.9,585.1,650.9z"/>
	<path d="M601.3,651.6c-3.1-0.5-4.3,1.5-4.3,5.6v3.5c0.8,0,1.5,0.2,2.3,0.3v1.4h-6.9V661c0.6-0.2,1.5-0.3,2.3-0.3v-9.5
		c-0.6-0.2-1.5-0.2-2.3-0.3v-1.4c1.4-0.2,3.1-0.3,4.6-0.2c0,0.8-0.2,2-0.3,3.1l0,0c0.6-1.8,1.8-3.7,4.7-3.4L601.3,651.6z"/>
</g>
<g enable-background="new    ">
	<path d="M-84.9,459.3V457h8.2v2.1L-84.9,459.3L-84.9,459.3z"/>
	<path d="M-70.7,466v-2l3.8-3.4c3.4-2.7,4.1-4,4.1-5.6c0-1.7-1.1-2.9-3.2-2.9c-1.5,0-2.9,0.8-3.8,1.4l-0.5-2.1
		c1.4-0.8,2.9-1.4,4.7-1.4c3.5,0,5.3,2,5.3,4.7c0,2.3-1.2,4-4.1,6.4l-3.2,2.7h-0.2c1.2-0.2,4.1-0.2,7.9-0.2v2.3L-70.7,466L-70.7,466
		z"/>
</g>
<text transform="matrix(1 0 0 1 -49.1627 466.0655)" font-family="'TheSerif-HP5Plain'" font-size="26.1796" letter-spacing="15"> </text>
<g enable-background="new    ">
	<path d="M-28.8,459.3V457h8.2v2.1L-28.8,459.3L-28.8,459.3z"/>
	<path d="M-14.1,466v-2.1h4.7v-11l-4.6,2.9l-0.8-2l5.8-3.5h2v13.6h4.1v2.1L-14.1,466L-14.1,466z"/>
</g>
<text transform="matrix(1 0 0 1 14.5406 466.0655)" font-family="'TheSerif-HP5Plain'" font-size="26.1796" letter-spacing="3"> </text>
<g enable-background="new    ">
	<path d="M45.8,466.3c-3.5,0-6.4-2-6.4-8.1c0-5.2,3.2-8.1,6.9-8.1c3.4,0,6.4,2,6.4,7.9C52.7,463.4,49.5,466.3,45.8,466.3z M46,452.1
		c-2.1,0-4.1,1.8-4.1,6.1c0,4.4,1.7,6.3,4.1,6.3c2.1,0,4.1-1.8,4.1-6C50.1,453.9,48.4,452.1,46,452.1z"/>
	<path d="M88,466v-2.1h4.7v-11l-4.6,2.9l-0.8-2l5.8-3.5h2v13.6h4.1v2.1L88,466L88,466z"/>
</g>
<text transform="matrix(1 0 0 1 112.5685 466.0655)" font-family="'TheSerif-HP5Plain'" font-size="26.1796" letter-spacing="10"> </text>
<g enable-background="new    ">
	<path d="M139.4,466v-2l3.8-3.4c3.4-2.7,4.1-4,4.1-5.6c0-1.7-1.1-2.9-3.2-2.9c-1.5,0-2.9,0.8-3.8,1.4l-0.5-2.1
		c1.4-0.8,2.9-1.4,4.7-1.4c3.5,0,5.3,2,5.3,4.7c0,2.3-1.2,4-4.1,6.4l-3.2,2.7h-0.2c1.2-0.2,4.1-0.2,7.9-0.2v2.3L139.4,466L139.4,466
		z"/>
</g>
<g enable-background="new    ">
	<path d="M40.5,338.1v-2l3.8-3.4c3.4-2.7,4.1-4,4.1-5.6c0-1.7-1.1-2.9-3.2-2.9c-1.5,0-2.9,0.8-3.8,1.4l-0.5-2.1
		c1.4-0.8,2.9-1.4,4.7-1.4c3.5,0,5.3,2,5.3,4.7c0,2.3-1.2,4-4.1,6.4l-3.2,2.7h-0.2c1.2-0.2,4.1-0.2,7.9-0.2v2.3H40.5z"/>
</g>
<g enable-background="new    ">
	<path d="M41.1,393.4v-2.1h4.7v-11l-4.6,2.9l-0.8-2l5.8-3.5h2v13.6h4.1v2.1H41.1z"/>
</g>
<g enable-background="new    ">
	<path d="M42.2,497v-2.1h8.2v2.1H42.2z"/>
	<path d="M56.8,503.8v-2.1h4.7v-11l-4.6,2.9l-0.8-2l5.8-3.5h2v13.6h4.1v2.1L56.8,503.8L56.8,503.8z"/>
</g>
<g enable-background="new    ">
	<path d="M42.2,552.4v-2.3h8.2v2.1L42.2,552.4L42.2,552.4z"/>
	<path d="M56.2,559.1v-2l3.8-3.4c3.4-2.7,4.1-4,4.1-5.6c0-1.7-1.1-2.9-3.2-2.9c-1.5,0-2.9,0.8-3.8,1.4l-0.5-2.1
		c1.4-0.8,2.9-1.4,4.7-1.4c3.5,0,5.3,2,5.3,4.7c0,2.3-1.2,4-4.1,6.4l-3.2,2.7h-0.2c1.2-0.2,4.1-0.2,7.9-0.2v2.3L56.2,559.1
		L56.2,559.1z"/>
</g>
<text transform="matrix(1 0 0 1 13.4263 305.9676)" font-family="'TheSerif-HP5Plain'" font-size="39.3977" letter-spacing="24"> </text>
<text transform="matrix(1 0 0 1 109.2935 305.9676)" font-family="'TheSerif-HP5Plain'" font-size="39.3977" letter-spacing="6"> </text>
<text transform="matrix(1 0 0 1 256.8158 305.9676)" font-family="'TheSerif-HP5Plain'" font-size="39.3977" letter-spacing="16"> </text>
<g>
	<rect x="400.6" y="274" fill="none" stroke="#999999" stroke-width="1.3" width="324.4" height="324.4"/>
	<line fill="none" stroke="#999999" stroke-width="1.3" x1="400.6" y1="544.4" x2="724.9" y2="544.4"/>
	<line fill="none" stroke="#999999" stroke-width="1.3" x1="400.6" y1="490.1" x2="724.9" y2="490.1"/>
	<line fill="none" stroke="#999999" stroke-width="1.3" x1="400.6" y1="436.2" x2="724.9" y2="436.2"/>
	<line fill="none" stroke="#999999" stroke-width="1.3" x1="400.6" y1="382.2" x2="724.9" y2="382.2"/>
	<line fill="none" stroke="#999999" stroke-width="1.3" x1="400.6" y1="328.1" x2="724.9" y2="328.1"/>
	<line fill="none" stroke="#999999" stroke-width="1.3" x1="670.9" y1="274" x2="670.9" y2="598.5"/>
	<line fill="none" stroke="#999999" stroke-width="1.3" x1="616.9" y1="274" x2="616.9" y2="598.5"/>
	<line fill="none" stroke="#999999" stroke-width="1.3" x1="562.7" y1="274" x2="562.7" y2="598.5"/>
	<line fill="none" stroke="#999999" stroke-width="1.3" x1="508.5" y1="274" x2="508.5" y2="598.5"/>
	<line fill="none" stroke="#999999" stroke-width="1.3" x1="454.6" y1="274" x2="454.6" y2="598.5"/>
</g>
<g enable-background="new    ">
	<path d="M407,196.1l-2.9-4.9l-2.9,4.9h-4v-1.5c0.8-0.2,1.5-0.3,2.3-0.3l3.2-4.7l-3.1-4.7c-0.8,0-1.5-0.2-2.1-0.3v-1.4h4l2.7,4.7
		l2.9-4.7h3.8v1.4c-0.8,0.2-1.5,0.3-2.3,0.3l-2.9,4.6l3.2,4.9c0.8,0,1.4,0.2,2.1,0.3v1.4H407L407,196.1L407,196.1z"/>
</g>
<g enable-background="new    ">
	<path d="M326.9,266.7l-4.6,12.7c-1.4,4-2.7,5.3-5.6,5.3c-0.5,0-1.2,0-1.8-0.2l0.2-2.1c0.6,0.2,1.1,0.3,1.7,0.3
		c1.4,0,2.3-0.8,3.2-3.2l0.6-1.5h-0.6l-4-11.3c-0.6,0-1.2-0.2-1.7-0.3V265h6v1.4c-0.5,0.2-1.1,0.3-1.7,0.3l2,5.6
		c0.5,1.2,0.8,2.1,1.1,3.2l0,0c0.2-0.9,0.8-2.4,1.2-3.8l1.7-5c-0.6,0-1.2-0.2-1.7-0.3V265h5.8v1.4
		C328.1,266.6,327.5,266.6,326.9,266.7z"/>
</g>
<g enable-background="new    ">
	<path d="M405.2,240.9c-3.5,0-6.4-2-6.4-8.1c0-5.2,3.2-8.1,6.9-8.1c3.4,0,6.4,2,6.4,7.9C412.1,238,409,240.9,405.2,240.9z
		 M405.5,226.6c-2.1,0-4.1,1.8-4.1,6.1c0,4.4,1.7,6.3,4.1,6.3c2.1,0,4.1-1.8,4.1-6C409.6,228.6,408,226.6,405.5,226.6z"/>
</g>
<g enable-background="new    ">
	<path d="M452.7,240.6v-2.1h4.7v-11l-4.6,2.9l-0.8-2l5.8-3.5h2v13.6h4.1v2.1H452.7z"/>
</g>
<g enable-background="new    ">
	<path d="M504.5,240.6v-2l3.8-3.4c3.4-2.7,4.1-4,4.1-5.6s-1.1-2.9-3.2-2.9c-1.5,0-2.9,0.8-3.8,1.4L505,226c1.4-0.8,2.9-1.4,4.7-1.4
		c3.5,0,5.3,2,5.3,4.7c0,2.3-1.2,4-4.1,6.4l-3.2,2.7h-0.2c1.2-0.2,4.1-0.2,7.9-0.2v2.3H504.5z"/>
</g>
<g enable-background="new    ">
	<path d="M560.4,243.1c-1.1,0-2.3-0.2-3.2-0.5l0.5-2.1c0.9,0.3,2,0.5,3.2,0.5c2.7,0,4.6-1.5,4.6-3.5s-1.5-3.2-4.3-3.2
		c-0.9,0-1.5,0-2.3,0.2v-2h0.6c3.8,0,5.6-1.1,5.6-3.2c0-1.7-1.2-2.6-3.2-2.6c-1.4,0-2.6,0.5-3.7,1.1l-0.5-2c1.4-0.6,2.7-0.9,4.6-0.9
		c3.5,0,5.2,1.7,5.2,4.1c0,2-1.2,3.5-3.2,4.1l0,0c2.1,0.3,3.8,2.1,3.8,4.3C567.9,240.6,564.8,243.1,560.4,243.1z"/>
</g>
<g enable-background="new    ">
	<path d="M618.5,238.3v4.4h-2.3v-4.4h-8.1l-0.2-2l7.3-11.6h3.4V236h3.1v2.1h-3.2V238.3z M616.2,227L616.2,227l-6,9.3
		c1.5,0,4.9,0,6,0V227z"/>
</g>
<g enable-background="new    ">
	<path d="M664.9,243.1c-0.8,0-2-0.2-2.9-0.3l0.2-2.1c0.9,0.3,2.1,0.3,2.9,0.3c3.2,0,4.9-1.8,4.9-4c0-2.3-1.8-3.4-4.7-3.4
		c-1.1,0-2,0.2-2.7,0.2v-9h9.2v2.3h-7v4.6c0.5,0,0.9,0,1.2,0c4.3,0,6.6,2.3,6.6,5C672.7,240.3,669.5,243.1,664.9,243.1z"/>
</g>
<g enable-background="new    ">
	<path d="M719.7,240.9c-3.7,0-6-2.7-6-7.5c0-7.5,3.7-10.7,8.7-10.7c0.5,0,1.2,0,1.5,0.2v2.1c-0.6-0.2-1.1-0.2-1.7-0.2
		c-3.4,0-5.2,2-6,5.6c-0.2,0.3-0.2,0.8-0.3,1.4l0,0c0.9-1.5,2.4-2.3,4.1-2.3c3.5,0,5.3,2.3,5.3,5.2
		C725.7,238.3,723.2,240.9,719.7,240.9z M719.7,231.5c-2.1,0-3.4,1.8-3.4,3.4c0,2.1,1.2,4,3.5,4c2.1,0,3.4-1.5,3.4-3.8
		C723.2,232.8,722,231.5,719.7,231.5z"/>
</g>
<circle cx="400.6" cy="274" r="8.4"/>
<circle cx="31" cy="435.5" r="8.4"/>
<g enable-background="new    ">
	<path d="M364.6,285.9c-3.5,0-6.4-2-6.4-8.1c0-5.2,3.2-8.1,6.9-8.1c3.4,0,6.4,2,6.4,7.9C371.5,283,368.3,285.9,364.6,285.9z
		 M364.8,271.8c-2.1,0-4.1,1.8-4.1,6.1c0,4.4,1.7,6.3,4.1,6.3c2.1,0,4.1-1.8,4.1-6C368.9,273.6,367.2,271.8,364.8,271.8z"/>
</g>
<g enable-background="new    ">
	<path d="M359.6,338.1V336h4.7v-11l-4.6,2.9l-0.8-2l5.8-3.5h2V336h4.1v2.1H359.6z"/>
</g>
<g enable-background="new    ">
	<path d="M359.1,390.5v-2l3.8-3.4c3.4-2.7,4.1-4,4.1-5.6c0-1.7-1.1-2.9-3.2-2.9c-1.5,0-2.9,0.8-3.8,1.4l-0.5-2.1
		c1.4-0.8,2.9-1.4,4.7-1.4c3.5,0,5.3,2,5.3,4.7c0,2.3-1.2,4-4.1,6.4l-3.2,2.7h-0.2c1.2-0.2,4.1-0.2,7.9-0.2v2.3H359.1z"/>
</g>
<g enable-background="new    ">
	<path d="M362.6,445.3c-1.1,0-2.3-0.2-3.2-0.5l0.5-2.1c0.9,0.3,2,0.5,3.2,0.5c2.7,0,4.6-1.5,4.6-3.5s-1.5-3.2-4.3-3.2
		c-0.9,0-1.5,0-2.3,0.2v-2h0.6c3.8,0,5.6-1.1,5.6-3.2c0-1.7-1.2-2.6-3.2-2.6c-1.4,0-2.6,0.5-3.7,1.1l-0.5-2c1.4-0.6,2.7-0.9,4.6-0.9
		c3.5,0,5.2,1.7,5.2,4.1c0,2-1.2,3.5-3.2,4.1l0,0c2.1,0.3,3.8,2.1,3.8,4.3C370,442.8,366.9,445.3,362.6,445.3z"/>
</g>
<g enable-background="new    ">
	<path d="M368.4,492.9v4.4h-2.3v-4.4h-8.1l-0.2-2l7.3-11.6h3.4v11.3h3.1v2.1L368.4,492.9L368.4,492.9z M366.1,481.6L366.1,481.6
		l-6,9.3c1.5,0,4.9,0,6,0V481.6z"/>
</g>
<g enable-background="new    ">
	<path d="M362.5,549.9c-0.8,0-2-0.2-2.9-0.3l0.2-2.1c0.9,0.3,2.1,0.3,2.9,0.3c3.2,0,4.9-1.8,4.9-4c0-2.3-1.8-3.4-4.7-3.4
		c-1.1,0-2,0.2-2.7,0.2v-8.9h9.2v2.3h-7v4.6c0.5,0,0.9,0,1.2,0c4.3,0,6.6,2.3,6.6,5C370.1,547.2,367.1,549.9,362.5,549.9z"/>
</g>
<g enable-background="new    ">
	<path d="M364.8,600.1c-3.7,0-6-2.7-6-7.5c0-7.5,3.7-10.7,8.7-10.7c0.5,0,1.2,0,1.5,0.2v2.1c-0.6-0.2-1.1-0.2-1.7-0.2
		c-3.4,0-5.2,2-6,5.6c-0.2,0.3-0.2,0.8-0.3,1.4l0,0c0.9-1.5,2.4-2.3,4.1-2.3c3.5,0,5.5,2.3,5.5,5.2
		C370.7,597.7,368.3,600.1,364.8,600.1z M364.9,590.7c-2.1,0-3.4,1.8-3.4,3.4c0,2.1,1.2,4,3.5,4c2.1,0,3.4-1.5,3.4-3.8
		C368.3,592.2,367.1,590.7,364.9,590.7z"/>
</g>
<line fill="none" stroke="#000000" stroke-width="1.3" x1="401.8" y1="274" x2="391.6" y2="274"/>
<line fill="none" stroke="#000000" stroke-width="1.3" x1="401.8" y1="328.4" x2="391.6" y2="328.4"/>
<line fill="none" stroke="#000000" stroke-width="1.3" x1="401.8" y1="382.2" x2="391.6" y2="382.2"/>
<line fill="none" stroke="#000000" stroke-width="1.3" x1="401.8" y1="436.1" x2="391.6" y2="436.1"/>
<line fill="none" stroke="#000000" stroke-width="1.3" x1="401.8" y1="490.4" x2="391.6" y2="490.4"/>
<line fill="none" stroke="#000000" stroke-width="1.3" x1="401.8" y1="545" x2="391.6" y2="545"/>
<line fill="none" stroke="#000000" stroke-width="1.3" x1="401.8" y1="598" x2="391.6" y2="598"/>
<line fill="none" stroke="#000000" stroke-width="1.3" x1="724.4" y1="273.9" x2="724.4" y2="263.7"/>
<line fill="none" stroke="#000000" stroke-width="1.3" x1="670.1" y1="273.9" x2="670.1" y2="263.7"/>
<line fill="none" stroke="#000000" stroke-width="1.3" x1="616.2" y1="273.9" x2="616.2" y2="263.7"/>
<line fill="none" stroke="#000000" stroke-width="1.3" x1="562.4" y1="273.9" x2="562.4" y2="263.7"/>
<line fill="none" stroke="#000000" stroke-width="1.3" x1="508.2" y1="273.9" x2="508.2" y2="263.7"/>
<line fill="none" stroke="#000000" stroke-width="1.3" x1="453.3" y1="273.9" x2="453.3" y2="263.7"/>
<line fill="none" stroke="#000000" stroke-width="1.3" x1="400.6" y1="273.9" x2="400.6" y2="263.7"/>
<polyline fill="#FFFFFF" stroke="#000000" stroke-width="1.3" points="327.5,373.2 321.1,379.5 314.7,373.2 "/>
<line fill="none" stroke="#000000" stroke-width="1.3" x1="321.1" y1="379.5" x2="321.1" y2="303.6"/>
<polyline fill="#FFFFFF" stroke="#000000" stroke-width="1.3" points="499.8,181.7 506.1,188.1 499.8,194.5 "/>
<line fill="none" stroke="#000000" stroke-width="1.3" x1="507.6" y1="188.1" x2="431.8" y2="188.1"/>
<g id="Layer_2">
</g>
</svg>
