<?xml version="1.0" encoding="utf-8"?>
<!-- Generator: Adobe Illustrator 18.0.0, SVG Export Plug-In . SVG Version: 6.00 Build 0)  -->
<!DOCTYPE svg PUBLIC "-//W3C//DTD SVG 1.1//EN" "http://www.w3.org/Graphics/SVG/1.1/DTD/svg11.dtd">
<svg version="1.1" id="Layer_1" xmlns="http://www.w3.org/2000/svg" xmlns:xlink="http://www.w3.org/1999/xlink" x="0px" y="0px"
	 viewBox="0 0 612 792" enable-background="new 0 0 612 792" xml:space="preserve">
<g id="Layer_2" display="none">
	<rect x="270.1" y="678.4" display="inline" fill="#FBB03B" width="14.5" height="28.7"/>
	<rect x="421.6" y="738.8" display="inline" fill="#FBB03B" width="7.2" height="28.7"/>
	<rect x="212" y="678.4" display="inline" fill="#00FFFF" width="47.3" height="28.7"/>
	<rect x="153" y="678.4" display="inline" fill="#00FF00" width="47.3" height="28.7"/>
	<rect x="365.7" y="738.8" display="inline" fill="#00FFFF" width="47.3" height="29.1"/>
	<rect x="267.5" y="739.2" display="inline" fill="#00FF00" width="47.5" height="28.5"/>
	<rect x="65.3" y="738.4" display="inline" fill="#FFFF00" width="128.6" height="29.1"/>
	<rect x="65.3" y="678.7" display="inline" fill="#FFFF00" width="59.9" height="28.7"/>
	<text transform="matrix(1 0 0 1 66.3311 700.0293)" display="inline" font-family="'TheSansMono-W3Light'" font-size="24.3844">line (1,0,4,5);</text>
</g>
<g id="Layer_1_1_">
	<g enable-background="new    ">
		<path d="M-1518.1,425.8c-14.5,0-28.7-1-36.3-1h-18.7v-12.4c5.8-1.7,12.4-2.7,18.7-2.7V286.5c-6.3-0.5-12.9-1.7-18.7-2.7v-12.7
			h18.1c11,0,28.1-0.5,43.1-0.5c46,0,74.2,23.1,74.2,75.7C-1437.6,398.8-1471,425.8-1518.1,425.8z M-1513.6,287.5
			c-7.6,0-16.3,0.5-21.6,0.5v118.4c5.8,1,13.4,1.7,19.2,1.7c33.9,0,57.1-19,57.1-60.6C-1458.7,308.4-1476.3,287.5-1513.6,287.5z"/>
		<path d="M-1349,329.6c-24.5-4.4-35,12.9-35,49.2V409c6.3,0.5,12.9,1.7,18.7,2.7v12.4h-56.6v-11.9c5.8-1.7,12.4-2.7,18.7-2.7v-81.6
			c-5.3-1-12.4-1.7-18.7-2.2v-12.4c10.5-1.7,25.8-2.2,37.4-1.7c0,7.1-0.5,17.3-2.4,27l0,0c4.7-15.6,15.3-31.4,38.4-29.2L-1349,329.6
			z"/>
		<path d="M-1273.8,424.6c0-8,0-16.3,1.1-22.7h-0.5c-5.3,14.1-18.7,24.4-36.3,24.4s-29.2-11.4-29.2-29.7c0-24.4,23.9-39,63.7-39
			v-8.5c0-15.6-5.3-24.8-22.1-24.8c-6.3,0-13.9,1-19.7,3.2c-0.5,5.8-1.8,11.9-2.4,18.3h-11.6V315c10.5-3.9,23.4-6.6,36.3-6.6
			c31,0,39.7,15.1,39.7,37.8v61.6c5.3,1,12.4,1.7,18.1,2.2v12.4C-1247.5,424.6-1261.9,425.3-1273.8,424.6z M-1274.8,372.2
			c-33.1,0-45,8.8-45,21.7c0,9.7,6.3,16.8,16.3,16.8c16.8,0,28.7-17.8,28.7-35.6C-1274.8,374.9-1274.8,372.2-1274.8,372.2z"/>
		<path d="M-1066,326.9l-29.2,98.4h-22.1l-21-66.5c-2.4-7.1-4.2-14.6-5.8-22.7l0,0c-2.4,10.2-4.7,19-7.6,28.7l-17.6,60.6h-22.1
			l-27.4-98.4c-4.7-0.5-9.5-1.7-13.4-2.7v-12.4h48.9v12.4c-4.7,1.7-9.5,2.2-14.5,2.7l12.9,50.9c2.4,9.3,4.7,18.3,6.3,26.1l0,0
			c1.8-9.7,4.7-19,7.1-27.5l19.2-63.8h19.7l19.2,63.8c4.2,13.4,5.8,20,7.6,27.5l0,0c1.8-8,4.2-14.6,6.3-24.8l13.9-51.4
			c-4.7-0.5-10.5-1.7-14.5-2.7v-12.4h47.9v12.4C-1056.5,325.2-1061.2,326.4-1066,326.9z"/>
		<path d="M-930,424.6c0-8,0-16.3,1.1-22.7h-0.5c-5.3,14.1-18.7,24.4-36.3,24.4c-17.6,0-29.2-11.4-29.2-29.7c0-24.4,23.9-39,63.7-39
			v-8.5c0-15.6-5.3-24.8-22.1-24.8c-6.3,0-13.9,1-19.7,3.2c-0.5,5.8-1.8,11.9-2.4,18.3h-11.6V315c10.5-3.9,23.4-6.6,36.3-6.6
			c31,0,39.7,15.1,39.7,37.8v61.6c5.3,1,12.4,1.7,18.1,2.2v12.4C-903.7,424.6-918.9,425.3-930,424.6z M-931,372.2
			c-33.1,0-45,8.8-45,21.7c0,9.7,6.3,16.8,16.3,16.8c16.8,0,28.7-17.8,28.7-35.6V372.2z"/>
		<path d="M-840,424.6v-12.4c5.3-1.7,11.6-2.7,18.1-2.7V274.8c-5.3-1-12.4-1.7-18.1-2.2v-12.4c11-1.7,25-2.2,37.4-1.7v150.8
			c6.3,0.5,12.9,1.7,18.1,2.7v12.4H-840V424.6z"/>
		<path d="M-774.5,424.6v-12.4c5.8-1.7,12.4-2.7,18.7-2.7v-81.6c-5.3-1-12.4-1.7-18.7-2.2v-12.4c10.5-1.7,25.8-2.2,37.9-1.7v97.9
			c6.3,0.5,12.9,1.7,18.1,2.7v12.4H-774.5z M-746.1,288.9c-7.1,0-12.9-5.8-12.9-12.9s5.8-13.4,12.9-13.4c7.1,0,12.9,5.8,12.9,13.4
			C-733.8,283.1-739.5,288.9-746.1,288.9z"/>
		<path d="M-622.8,424.6v-73.1c0-15.6-4.2-25.3-18.1-25.3c-17.6,0-30.2,19-30.2,44.3v39c5.8,0.5,11.6,1.7,16.8,2.7v12.4h-55v-12.4
			c5.8-1.7,12.4-2.7,18.7-2.7v-81.6c-5.3-1-12.4-1.7-18.7-2.2v-12.4c10.5-1.7,25.8-2.2,37.4-1.7c0,6.6-0.5,17.3-1.8,23.9l0,0
			c6.3-15.6,19.2-26.1,37.3-26.1c23.9,0,31.6,16.3,31.6,36.3v63.8c6.3,0.5,12.9,1.7,17.6,2.7v12.4L-622.8,424.6L-622.8,424.6z"/>
		<path d="M-483.9,367.8h-69.4c-0.5,29.7,10.5,42.1,33.1,42.1c10.5,0,21-2.2,30.2-6.6l2.9,16.3c-10.5,4.4-23.4,7.1-36.8,7.1
			c-32.1,0-49.7-18.3-49.7-57.7c0-33.6,17.6-59.4,47.9-59.4c29.7,0,42.1,21.2,42.1,46.5C-483.4,358.8-483.9,363-483.9,367.8z
			 M-526.5,325.2c-13.9,0-23.9,10.7-26.3,28h49.7C-502.6,335.9-512,325.2-526.5,325.2z"/>
		<path d="M-344.5,276c-5.3-1.7-11-2.7-15.8-2.7c-15.3,0-22.1,9.3-22.1,29.2v8.8h29.7v15.6h-29.7V409c6.3,0.5,12.9,1.7,18.7,2.7
			v12.4h-56.6v-11.9c5.8-1.7,12.4-2.7,18.7-2.7v-82.1H-425v-15.6h23.4v-8.8c0-31.4,14.5-46,41.6-46c5.8,0,11.6,0.5,17.6,2.2
			L-344.5,276z"/>
		<path d="M-270.8,329.6c-24.5-4.4-35,12.9-35,49.2V409c6.3,0.5,12.9,1.7,18.7,2.7v12.4h-56.6v-11.9c5.8-1.7,12.4-2.7,18.7-2.7
			v-81.6c-5.3-1-12.4-1.7-18.7-2.2v-12.4c10.5-1.7,25.8-2.2,37.4-1.7c0,7.1-0.5,17.3-2.4,27l0,0c4.7-15.6,15.3-31.4,38.4-29.2
			L-270.8,329.6z"/>
		<path d="M-210.3,426.8c-29.2,0-47.9-17.8-47.9-56.7c0-34.1,19.7-60.6,51.8-60.6c26.8,0,47.9,15.6,47.9,56.7
			C-158.3,400.5-178.2,426.8-210.3,426.8z M-208,326.9c-15.8,0-30.2,12.4-30.2,41.6c0,26.1,10.5,41.2,29.7,41.2
			c15.8,0,29.7-12.9,29.7-41.6C-178.8,341.5-188.8,326.9-208,326.9z"/>
		<path d="M6.9,424.6v-72.3c0-15.6-3.4-26.1-16.8-26.1c-15.3,0-29.7,17.3-29.7,44.8v38.5c5.8,0.5,11.6,1.7,17.6,2.7v12.4h-36.3
			v-72.3c0-14.6-2.9-26.1-17.6-26.1c-15.8,0-29.7,19-29.7,44.8v38.5c5.8,0.5,11.6,1.7,16.8,2.7v12.4h-55v-12.4
			c5.8-1.7,12.4-2.7,18.7-2.7v-81.6c-5.3-1-12.4-1.7-18.7-2.2v-12.4c10.5-1.7,25.8-2.2,37.4-1.7c0,6.6-0.5,17.3-1.8,23.9h0.5
			c5.8-15.6,19.7-26.1,36.8-26.1c22.1,0,28.7,16.3,29.2,26.1c4.2-10.7,15.8-26.1,36.3-26.1c19.7,0,31.6,11.4,31.6,37.3v62.6
			c6.3,0.5,12.9,1.7,18.1,2.7v12.4L6.9,424.6L6.9,424.6z"/>
		<path d="M141.1,472.3c-25-42.6-31-78.9-31-112.5s7.1-72.3,31.6-113l13.9,7.1c-17.6,31.9-26.3,68.2-26.3,104.7
			c0,39,8.7,74,26.8,105.9L141.1,472.3z"/>
		<path d="M215.8,424.6v-12.4c7.1-1.7,15.3-2.7,23.4-2.7v-83.8l-23.9,10.7l-2.9-17.3l31.6-12.9h15.8v103.3
			c5.8,0.5,12.9,1.7,19.2,2.7v12.4L215.8,424.6L215.8,424.6z"/>
		<path d="M344.9,459.9l-8.2-7.6c13.4-15.6,13.9-26.1,9.5-32.9c-5.8-8-1.1-20.5,9.5-20.5C370.4,399.3,377.5,428,344.9,459.9z"/>
		<path d="M480.1,426.8c-29.7,0-52.6-18.3-52.6-60.6c0-39,26.3-62.6,57.1-62.6c35,0,52.6,24.4,52.6,59.9
			C537.5,403.6,511.2,426.8,480.1,426.8z M483.3,321.6c-19.7,0-36.3,16.3-36.3,43.8c0,24.8,10.5,44.3,35,44.3
			c19.7,0,35.5-16.3,35.5-44.3C518.3,340.8,507.2,321.6,483.3,321.6z"/>
		<path d="M614.5,472.3l-13.9-7.1c17.6-31.9,26.3-68.2,26.3-104.7c0-39-8.7-73.6-26.8-105.9l14.5-7.1c25,42.1,31,78.4,31,111.8
			C645.3,392.2,638.5,431.2,614.5,472.3z"/>
		<path d="M756.8,426.8c-21.6,0-28.7-9.7-28.7-34.1v-64.8h-21.6v-15.6h21.6v-36.8l19.2-5.8v42.1h29.7v15.6h-29.7v57.7
			c0,19,3.4,23.9,15.3,23.9c4.7,0,9.5-0.5,13.4-1.7l1.8,16.8C772.1,425.8,763.9,426.8,756.8,426.8z"/>
		<path d="M841.5,426.8c-29.2,0-47.9-17.8-47.9-56.7c0-34.1,19.7-60.6,51.8-60.6c26.8,0,47.9,15.6,47.9,56.7
			C893.6,400.5,873.6,426.8,841.5,426.8z M843.9,326.9c-15.8,0-30.2,12.4-30.2,41.6c0,26.1,10.5,41.2,29.7,41.2
			c15.8,0,29.7-12.9,29.7-41.6C873.6,341.5,863.1,326.9,843.9,326.9z"/>
		<path d="M994.3,472.3c-25-42.6-31-78.9-31-112.5s7.1-72.3,31.6-113l13.9,7.1c-17.6,31.9-26.3,68.2-26.3,104.7
			c0,39,8.7,74,26.8,105.9L994.3,472.3z"/>
		<path d="M1147.9,424.6v27.5c6.3,0.5,12.9,1.7,18.1,3.2v11.4h-55.5v-11.4c5.8-1.7,12.4-2.7,18.7-3.2v-27.5h-63.1l-2.9-16.8
			l60.2-101.6h25v100.1h24.5v18.3L1147.9,424.6L1147.9,424.6z M1128.7,326.4L1128.7,326.4l-47.3,79.9c12.4,0,39.7,0,47.3,0V326.4z"
			/>
		<path d="M1236.6,459.9l-8.2-7.6c13.4-15.6,13.9-26.1,9.5-32.9c-5.8-8-1.1-20.5,9.5-20.5C1262.4,399.3,1270,428,1236.6,459.9z"/>
		<path d="M1337.1,468.9c-5.8,0-11-0.5-15.8-1l1.8-19c4.2,1,10,1.7,15.3,1.7c26.3,0,39.7-14.6,39.7-33.6s-14.5-32.9-40.2-32.9
			c-4.2,0-8.2,0-12.4,0v-78.4h68.4v20h-49.7v40.4c35.5,0,55.5,20,55.5,47C1399.4,445.8,1372.6,468.9,1337.1,468.9z"/>
		<path d="M1475.4,472.3l-13.9-7.1c17.6-31.9,26.3-68.2,26.3-104.7c0-39-8.7-73.6-26.8-105.9l14.5-7.1c25,42.1,31,78.4,31,111.8
			C1507,392.2,1499.9,431.2,1475.4,472.3z"/>
		<path d="M1544.9,426.8c-7.1,0-13.4-6.6-13.4-14.1c0-7.6,5.8-14.1,13.4-14.1c7.6,0,13.4,6.6,13.4,14.1
			C1558.3,420.2,1552.5,426.8,1544.9,426.8z"/>
	</g>
	<g enable-background="new    ">
		<path fill="#999999" d="M-1112.5,647.9l-25,63.8h-17.6l-24.5-63.8c-3.4-0.5-7.1-1-10.5-1.7v-8h36.8v8c-3.4,1-7.6,1.7-11,1.7
			l13.4,35.6c1.8,4.9,3.4,9.7,4.7,14.6l0,0c1.1-4.9,2.9-9.7,4.7-14.1l13.4-36.3c-4.2-0.5-7.6-1-11-1.7v-8h36.8v8
			C-1105.7,646.7-1109.1,647.4-1112.5,647.9z"/>
		<path fill="#999999" d="M-1031.5,675h-51.8c-0.5,19.5,7.6,27.5,25,27.5c7.6,0,15.8-1.7,22.9-4.4l2.4,10.2
			c-8.2,2.7-17.6,4.9-27.4,4.9c-23.9,0-37.3-11.9-37.3-37.8c0-22.2,13.4-38.5,35.5-38.5s31.6,14.1,31.6,30.2
			C-1031,668.9-1031,671.5-1031.5,675z M-1063.6,646.7c-10.5,0-17.6,7.1-19.2,18.3h37.3C-1045.5,653.8-1051.8,646.7-1063.6,646.7z"
			/>
		<path fill="#999999" d="M-964.4,650.1c-18.1-2.7-26.3,8.8-26.3,32.4V702c4.7,0.5,10,1,13.9,2.2v8h-42.1v-8c4.2-1,9.5-1.7,13.9-2.2
			v-52.9c-4.2-0.5-9.5-1-13.9-1.7v-8c8.2-1,19.2-1.7,28.1-1c0,4.9-0.5,11.4-1.8,17.3l0,0c3.4-10.2,11.6-20.5,29.2-19L-964.4,650.1z"
			/>
		<path fill="#999999" d="M-920,712.7c-11,0-18.7-1-27.4-2.7v-95.7c-4.2-0.5-9.5-1-13.9-1.7v-8c8.2-1,18.7-1.7,28.1-1v35.6
			c0,4.4-0.5,10.2-1.1,14.1h0.5c4.2-10.2,13.9-16.3,26.3-16.3c18.7,0,29.2,11.9,29.2,34.6C-877.9,697.1-893.7,712.7-920,712.7z
			 M-910.5,647.9c-14.5,0-21.6,15.6-21.6,28v24.4c4.2,1,8.7,1.7,13.9,1.7c15.3,0,25-8.8,25-29.7
			C-893.2,656.4-898.9,647.9-910.5,647.9z"/>
	</g>
	<g enable-background="new    ">
		<path fill="#999999" d="M201.8,713.2c-21.6,0-35.5-11.4-35.5-37.3c0-22.2,14.5-39.5,38.4-39.5c20.5,0,35.5,10.2,35.5,37.3
			C240.2,695.9,225.8,713.2,201.8,713.2z M203.7,647.9c-11.6,0-22.9,8-22.9,27c0,17.3,7.6,27,22.1,27c11.6,0,22.1-8.8,22.1-27
			C225.8,657.7,218.1,647.9,203.7,647.9z"/>
		<path fill="#999999" d="M288.1,712.7c-11,0-18.7-1-27.4-2.7v-95.7c-4.2-0.5-9.5-1-13.9-1.7v-8c8.2-1,18.7-1.7,28.1-1v35.6
			c0,4.4-0.5,10.2-1.1,14.1h0.5c4.2-10.2,13.9-16.3,26.3-16.3c18.7,0,29.2,11.9,29.2,34.6C329.7,697.1,313.9,712.7,288.1,712.7z
			 M297,647.9c-14.5,0-21.6,15.6-21.6,28v24.4c4.2,1,8.7,1.7,13.9,1.7c15.3,0,25-8.8,25-29.7C314.4,656.4,309.1,647.9,297,647.9z"/>
		<path fill="#999999" d="M339.7,749.5c-2.9,0-7.6-0.5-10.5-1l1.1-11.4c2.9,1,6.3,1.7,10,1.7c10,0,12.9-3.9,12.9-17.3v-72.3
			c-4.2-0.5-9.5-1-13.4-1.7v-8c7.6-1,18.7-1.7,27.4-1V720C367.5,739.7,360.7,749.5,339.7,749.5z M360.7,623.6
			c-5.3,0-9.5-3.9-9.5-8.8c0-4.9,4.2-8.8,9.5-8.8c5.3,0,9.5,3.9,9.5,8.8C369.9,619.7,366,623.6,360.7,623.6z"/>
		<path fill="#999999" d="M454.6,675h-51.8c-0.5,19.5,7.6,27.5,25,27.5c7.6,0,15.8-1.7,22.9-4.4l2.4,10.2
			c-8.2,2.7-17.6,4.9-27.4,4.9c-23.9,0-37.4-11.9-37.4-37.8c0-22.2,13.4-38.5,35.5-38.5s31.6,14.1,31.6,30.2
			C455.1,668.9,454.6,671.5,454.6,675z M422.5,646.7c-10.5,0-17.6,7.1-19.2,18.3h37.3C440.7,653.8,433.6,646.7,422.5,646.7z"/>
		<path fill="#999999" d="M504.8,712.7c-19.7,0-36.3-8.8-36.3-35.6c0-23.9,12.9-40.4,39.7-40.4c7.1,0,13.9,1,19.2,2.7v21.7h-8.7
			c-1.1-4.4-1.8-8.8-2.4-11.9c-2.9-0.5-6.3-1-10.5-1c-13.9,0-22.1,11.4-22.1,27c0,15.1,5.3,26.5,23.9,26.5c7.1,0,13.4-1,19.2-3.9
			l2.4,11.4C523.5,711,514.6,712.7,504.8,712.7z"/>
		<path fill="#999999" d="M571.9,712.7c-16.3,0-21-6.6-21-22.2v-42.1h-16.3v-10.2h16.3v-23.9l14.5-3.9v27.5h22.1v10.2h-22.1v37.8
			c0,11.9,2.4,15.6,11,15.6c3.4,0,7.1-0.5,10-1l1.1,10.7C583,712.2,577.2,712.7,571.9,712.7z"/>
	</g>
	<g enable-background="new    ">
		<path fill="#999999" d="M1058,713.2c-21.6,0-35.5-11.4-35.5-37.3c0-22.2,14.5-39.5,38.4-39.5c20.5,0,35.5,10.2,35.5,37.3
			C1096.7,695.9,1081.9,713.2,1058,713.2z M1059.8,647.9c-11.6,0-22.9,8-22.9,27c0,17.3,7.6,27,22.1,27c11.6,0,22.1-8.8,22.1-27
			C1081.4,657.7,1073.8,647.9,1059.8,647.9z"/>
		<path fill="#999999" d="M1143.7,712.7c-11,0-18.7-1-27.4-2.7v-95.7c-4.2-0.5-9.5-1-13.9-1.7v-8c8.2-1,18.7-1.7,28.1-1v35.6
			c0,4.4-0.5,10.2-1.1,14.1h0.5c4.2-10.2,13.9-16.3,26.3-16.3c18.7,0,29.2,11.9,29.2,34.6C1185.8,697.1,1170,712.7,1143.7,712.7z
			 M1153.2,647.9c-14.5,0-21.6,15.6-21.6,28v24.4c4.2,1,8.7,1.7,13.9,1.7c15.3,0,25-8.8,25-29.7
			C1170.8,656.4,1164.8,647.9,1153.2,647.9z"/>
		<path fill="#999999" d="M1195.8,749.5c-2.9,0-7.6-0.5-10.5-1l1.1-11.4c2.9,1,6.3,1.7,10,1.7c10,0,12.9-3.9,12.9-17.3v-72.3
			c-4.2-0.5-9.5-1-13.4-1.7v-8c7.6-1,18.7-1.7,27.4-1V720C1223.2,739.7,1216.3,749.5,1195.8,749.5z M1216.3,623.6
			c-5.3,0-9.5-3.9-9.5-8.8c0-4.9,4.2-8.8,9.5-8.8c5.3,0,9.5,3.9,9.5,8.8C1225.5,619.7,1221.6,623.6,1216.3,623.6z"/>
		<path fill="#999999" d="M1310.2,675h-52.1c-0.5,19.5,7.6,27.5,25,27.5c7.6,0,15.8-1.7,22.9-4.4l2.4,10.2
			c-8.2,2.7-17.6,4.9-27.4,4.9c-23.9,0-37.4-11.9-37.4-37.8c0-22.2,13.4-38.5,35.5-38.5s31.6,14.1,31.6,30.2
			C1310.8,668.9,1310.8,671.5,1310.2,675z M1278.7,646.7c-10.5,0-17.6,7.1-19.2,18.3h37.3C1296.8,653.8,1289.7,646.7,1278.7,646.7z"
			/>
		<path fill="#999999" d="M1361,712.7c-19.7,0-36.3-8.8-36.3-35.6c0-23.9,12.9-40.4,39.7-40.4c7.1,0,13.9,1,19.2,2.7v21.7h-8.7
			c-1.1-4.4-1.8-8.8-2.4-11.9c-2.9-0.5-6.3-1-10.5-1c-13.9,0-22.1,11.4-22.1,27c0,15.1,5.3,26.5,23.9,26.5c7.1,0,13.4-1,19.2-3.9
			l2.4,11.4C1379.1,711,1370.2,712.7,1361,712.7z"/>
		<path fill="#999999" d="M1428.1,712.7c-16.3,0-21-6.6-21-22.2v-42.1h-16.3v-10.2h16.3v-23.9l14.5-3.9v27.5h22.1v10.2h-22.4v37.8
			c0,11.9,2.4,15.6,11,15.6c3.4,0,7.1-0.5,10-1l1.1,10.7C1439.1,712.2,1432.8,712.7,1428.1,712.7z"/>
	</g>
	<line fill="none" stroke="#999999" stroke-width="5" x1="-1574.9" y1="522" x2="-463.6" y2="522"/>
	<line fill="none" stroke="#999999" stroke-width="5" x1="120" y1="522" x2="667.1" y2="522"/>
	<line fill="none" stroke="#999999" stroke-width="5" x1="974.1" y1="522" x2="1520.9" y2="522"/>
</g>
</svg>
