<?xml version="1.0" encoding="utf-8"?>
<!-- Generator: Adobe Illustrator 18.0.0, SVG Export Plug-In . SVG Version: 6.00 Build 0)  -->
<!DOCTYPE svg PUBLIC "-//W3C//DTD SVG 1.1//EN" "http://www.w3.org/Graphics/SVG/1.1/DTD/svg11.dtd">
<svg version="1.1" id="Layer_1" xmlns="http://www.w3.org/2000/svg" xmlns:xlink="http://www.w3.org/1999/xlink" x="0px" y="0px"
	 viewBox="0 0 215 72" enable-background="new 0 0 215 72" xml:space="preserve">
<g>
	<rect x="5.5" y="127.3" fill="none" stroke="#999999" stroke-width="1.3" width="41.4" height="41.4"/>
	<line fill="none" stroke="#999999" stroke-width="1.3" x1="5.5" y1="161.8" x2="46.8" y2="161.8"/>
	<line fill="none" stroke="#999999" stroke-width="1.3" x1="5.5" y1="154.8" x2="46.8" y2="154.8"/>
	<line fill="none" stroke="#999999" stroke-width="1.3" x1="5.5" y1="148" x2="46.8" y2="148"/>
	<line fill="none" stroke="#999999" stroke-width="1.3" x1="5.5" y1="141.1" x2="46.8" y2="141.1"/>
	<line fill="none" stroke="#999999" stroke-width="1.3" x1="5.5" y1="134.2" x2="46.8" y2="134.2"/>
	<line fill="none" stroke="#999999" stroke-width="1.3" x1="39.9" y1="127.3" x2="39.9" y2="168.6"/>
	<line fill="none" stroke="#999999" stroke-width="1.3" x1="33" y1="127.3" x2="33" y2="168.6"/>
	<line fill="none" stroke="#999999" stroke-width="1.3" x1="26.1" y1="127.3" x2="26.1" y2="168.6"/>
	<line fill="none" stroke="#999999" stroke-width="1.3" x1="19.2" y1="127.3" x2="19.2" y2="168.6"/>
	<line fill="none" stroke="#999999" stroke-width="1.3" x1="12.4" y1="127.3" x2="12.4" y2="168.6"/>
</g>
<text transform="matrix(1 0 0 1 5.0342 117.333)" font-family="'TheSerif-HP5Plain'" font-size="3.3374">x</text>
<text transform="matrix(1 0 0 1 -5.5498 127.7785)" font-family="'TheSerif-HP5Plain'" font-size="3.3374">y</text>
<text transform="matrix(1 0 0 1 5.0961 123.0195)" font-family="'TheSerif-HP5Plain'" font-size="3.3374">0</text>
<text transform="matrix(1 0 0 1 6.9311 123.0195)" font-family="'TheSerif-HP5Plain'" font-size="3.3374" letter-spacing="4"> </text>
<text transform="matrix(1 0 0 1 11.7704 123.0195)" font-family="'TheSerif-HP5Plain'" font-size="3.3374">1</text>
<text transform="matrix(1 0 0 1 13.6064 123.0195)" font-family="'TheSerif-HP5Plain'" font-size="3.3374" letter-spacing="4"> </text>
<text transform="matrix(1 0 0 1 18.4453 123.0195)" font-family="'TheSerif-HP5Plain'" font-size="3.3374">2</text>
<text transform="matrix(1 0 0 1 20.2812 123.0195)" font-family="'TheSerif-HP5Plain'" font-size="3.3374" letter-spacing="4"> </text>
<text transform="matrix(1 0 0 1 25.1201 123.0195)" font-family="'TheSerif-HP5Plain'" font-size="3.3374">3</text>
<text transform="matrix(1 0 0 1 26.9561 123.0195)" font-family="'TheSerif-HP5Plain'" font-size="3.3374" letter-spacing="4"> </text>
<text transform="matrix(1 0 0 1 31.795 123.0195)" font-family="'TheSerif-HP5Plain'" font-size="3.3374">4</text>
<text transform="matrix(1 0 0 1 33.6309 123.0195)" font-family="'TheSerif-HP5Plain'" font-size="3.3374" letter-spacing="4"> </text>
<text transform="matrix(1 0 0 1 38.4698 123.0195)" font-family="'TheSerif-HP5Plain'" font-size="3.3374">5</text>
<text transform="matrix(1 0 0 1 40.3057 123.0195)" font-family="'TheSerif-HP5Plain'" font-size="3.3374" letter-spacing="4"> </text>
<text transform="matrix(1 0 0 1 45.1447 123.0195)" font-family="'TheSerif-HP5Plain'" font-size="3.3374">6</text>
<circle fill="#808080" cx="26.3" cy="148.3" r="1.1"/>
<text transform="matrix(1 0 0 1 -9.641300e-02 128.7669)" font-family="'TheSerif-HP5Plain'" font-size="3.3374">0</text>
<text transform="matrix(1 0 0 1 -9.641300e-02 135.4417)" font-family="'TheSerif-HP5Plain'" font-size="3.3374">1</text>
<text transform="matrix(1 0 0 1 -9.641300e-02 142.1166)" font-family="'TheSerif-HP5Plain'" font-size="3.3374">2</text>
<text transform="matrix(1 0 0 1 -9.641300e-02 148.7919)" font-family="'TheSerif-HP5Plain'" font-size="3.3374">3</text>
<text transform="matrix(1 0 0 1 -9.641300e-02 155.4668)" font-family="'TheSerif-HP5Plain'" font-size="3.3374">4</text>
<text transform="matrix(1 0 0 1 -9.641300e-02 162.1416)" font-family="'TheSerif-HP5Plain'" font-size="3.3374">5</text>
<text transform="matrix(1 0 0 1 -9.641300e-02 168.8164)" font-family="'TheSerif-HP5Plain'" font-size="3.3374">6</text>
<line fill="none" stroke="#000000" stroke-width="1.3" x1="5.6" y1="127.3" x2="4.3" y2="127.3"/>
<line fill="none" stroke="#000000" stroke-width="1.3" x1="5.6" y1="134.2" x2="4.3" y2="134.2"/>
<line fill="none" stroke="#000000" stroke-width="1.3" x1="5.6" y1="141.1" x2="4.3" y2="141.1"/>
<line fill="none" stroke="#000000" stroke-width="1.3" x1="5.6" y1="147.9" x2="4.3" y2="147.9"/>
<line fill="none" stroke="#000000" stroke-width="1.3" x1="5.6" y1="154.9" x2="4.3" y2="154.9"/>
<line fill="none" stroke="#000000" stroke-width="1.3" x1="5.6" y1="161.8" x2="4.3" y2="161.8"/>
<line fill="none" stroke="#000000" stroke-width="1.3" x1="5.6" y1="168.6" x2="4.3" y2="168.6"/>
<line fill="none" stroke="#000000" stroke-width="1.3" x1="46.8" y1="127.3" x2="46.8" y2="126"/>
<line fill="none" stroke="#000000" stroke-width="1.3" x1="39.8" y1="127.3" x2="39.8" y2="126"/>
<line fill="none" stroke="#000000" stroke-width="1.3" x1="33" y1="127.3" x2="33" y2="126"/>
<line fill="none" stroke="#000000" stroke-width="1.3" x1="26.1" y1="127.3" x2="26.1" y2="126"/>
<line fill="none" stroke="#000000" stroke-width="1.3" x1="19.2" y1="127.3" x2="19.2" y2="126"/>
<line fill="none" stroke="#000000" stroke-width="1.3" x1="12.2" y1="127.3" x2="12.2" y2="126"/>
<line fill="none" stroke="#000000" stroke-width="1.3" x1="5.5" y1="127.3" x2="5.5" y2="126"/>
<polyline fill="#FFFFFF" stroke="#000000" stroke-width="1.3" points="-3.8,139.9 -4.7,140.7 -5.5,139.9 "/>
<line fill="none" stroke="#000000" stroke-width="1.3" x1="-4.7" y1="140.7" x2="-4.7" y2="131"/>
<polyline fill="#FFFFFF" stroke="#000000" stroke-width="1.3" points="18.1,115.5 18.9,116.3 18.1,117.1 "/>
<line fill="none" stroke="#000000" stroke-width="1.3" x1="19.1" y1="116.3" x2="9.4" y2="116.3"/>
<text transform="matrix(1 0 0 1 57.5674 148.3967)" font-family="'TheSerif-HP5Plain'" font-size="3.3374">ellipseMode ( CENTER ) ;</text>
<text transform="matrix(1 0 0 1 57.5674 152.4013)" font-family="'TheSerif-HP5Plain'" font-size="3.3374">ellipse ( x , y , width , height ) ;</text>
<text transform="matrix(1 0 0 1 26.638 146.0791)" font-family="'TheSerif-HP5Plain'" font-size="3.3374">( 3 , 3 )</text>
<text transform="matrix(1 0 0 1 3.2587 177.9866)" fill="#808080" font-family="'TheSerif-HP5Plain'" font-size="3.3374">Example:  </text>
<text transform="matrix(1 0 0 1 18.7412 177.9866)" font-family="'TheSerif-HP5Plain'" font-size="3.3374">ellipseMode ( CENTER ) ;</text>
<text transform="matrix(1 0 0 1 3.2587 181.9922)" font-family="'TheSerif-HP5Plain'" font-size="3.3374" letter-spacing="5">  </text>
<text transform="matrix(1 0 0 1 18.7412 181.9922)" font-family="'TheSerif-HP5Plain'" font-size="3.3374">ellipse ( 3 , 3 , 4 , 6 ) ;</text>
<ellipse fill="none" stroke="#000000" stroke-width="2" cx="26.1" cy="148" rx="13.8" ry="20.7"/>
</svg>
