<?xml version="1.0" encoding="utf-8"?>
<!-- Generator: Adobe Illustrator 18.0.0, SVG Export Plug-In . SVG Version: 6.00 Build 0)  -->
<!DOCTYPE svg PUBLIC "-//W3C//DTD SVG 1.1//EN" "http://www.w3.org/Graphics/SVG/1.1/DTD/svg11.dtd">
<svg version="1.1" id="Layer_1" xmlns="http://www.w3.org/2000/svg" xmlns:xlink="http://www.w3.org/1999/xlink" x="0px" y="0px"
	 viewBox="0 0 612 792" enable-background="new 0 0 612 792" xml:space="preserve">
<g>
	<rect x="18.5" y="422.1" fill="none" stroke="#999999" stroke-width="1.3" width="264.9" height="264.9"/>
	<line fill="none" stroke="#999999" stroke-width="1.3" x1="18.5" y1="643" x2="283.4" y2="643"/>
	<line fill="none" stroke="#999999" stroke-width="1.3" x1="18.5" y1="598.7" x2="283.4" y2="598.7"/>
	<line fill="none" stroke="#999999" stroke-width="1.3" x1="18.5" y1="554.5" x2="283.4" y2="554.5"/>
	<line fill="none" stroke="#999999" stroke-width="1.3" x1="18.5" y1="510.5" x2="283.4" y2="510.5"/>
	<line fill="none" stroke="#999999" stroke-width="1.3" x1="18.5" y1="466.2" x2="283.4" y2="466.2"/>
	<line fill="none" stroke="#999999" stroke-width="1.3" x1="239.2" y1="422.1" x2="239.2" y2="687"/>
	<line fill="none" stroke="#999999" stroke-width="1.3" x1="195.1" y1="422.1" x2="195.1" y2="687"/>
	<line fill="none" stroke="#999999" stroke-width="1.3" x1="151" y1="422.1" x2="151" y2="687"/>
	<line fill="none" stroke="#999999" stroke-width="1.3" x1="106.8" y1="422.1" x2="106.8" y2="687"/>
	<line fill="none" stroke="#999999" stroke-width="1.3" x1="62.7" y1="422.1" x2="62.7" y2="687"/>
</g>
<g enable-background="new    ">
	<path d="M23.8,358.4l-2.4-4l-2.3,4h-3.2v-1.2c0.6-0.1,1.2-0.3,1.8-0.3l2.6-3.8l-2.5-3.8c-0.6,0-1.2-0.2-1.8-0.3v-1.2h3.2l2.2,3.9
		l2.3-3.9H27v1.2c-0.6,0.1-1.2,0.3-1.8,0.3l-2.4,3.7l2.6,3.9c0.6,0,1.2,0.2,1.8,0.3v1.2H23.8z"/>
</g>
<g enable-background="new    ">
	<path d="M-41.6,416.1l-3.8,10.3c-1.2,3.2-2.2,4.3-4.6,4.3c-0.4,0-1,0-1.5-0.1l0.1-1.7c0.5,0.1,0.9,0.2,1.4,0.2
		c1.2,0,1.8-0.6,2.6-2.6l0.4-1.2h-0.5l-3.3-9.2c-0.5,0-1-0.1-1.4-0.3v-1.2h4.9v1.2c-0.4,0.1-0.9,0.2-1.4,0.3l1.6,4.6
		c0.3,1,0.6,1.8,0.8,2.7h0c0.2-0.7,0.6-1.9,1-3.2l1.4-4.1c-0.5,0-1-0.1-1.4-0.3v-1.2h4.7v1.2C-40.6,415.9-41.1,416-41.6,416.1z"/>
</g>
<g enable-background="new    ">
	<path d="M22.4,395c-2.8,0-5.3-1.7-5.3-6.6c0-4.3,2.6-6.6,5.6-6.6c2.7,0,5.3,1.6,5.3,6.5C28,392.6,25.4,395,22.4,395z M22.5,383.4
		c-1.7,0-3.4,1.5-3.4,4.9c0,3.6,1.3,5.1,3.4,5.1c1.7,0,3.4-1.5,3.4-4.9C25.9,384.9,24.6,383.4,22.5,383.4z"/>
</g>
<g enable-background="new    ">
	<path d="M61.1,394.8v-1.7H65v-9l-3.7,2.4l-0.7-1.6l4.7-2.9H67v11.1h3.3v1.7H61.1z"/>
</g>
<g enable-background="new    ">
	<path d="M103.4,394.8v-1.6l3.1-2.8c2.7-2.3,3.4-3.2,3.4-4.6c0-1.4-0.8-2.4-2.6-2.4c-1.2,0-2.4,0.6-3.1,1.1l-0.4-1.7
		c1.1-0.7,2.3-1.1,3.9-1.1c2.9,0,4.4,1.6,4.4,3.8c0,1.8-0.9,3.2-3.3,5.2l-2.6,2.2l-0.1,0c1-0.1,3.3-0.1,6.5-0.1v1.8H103.4z"/>
</g>
<g enable-background="new    ">
	<path d="M149.1,396.8c-0.9,0-1.9-0.1-2.7-0.3l0.3-1.7c0.7,0.3,1.6,0.4,2.6,0.4c2.3,0,3.7-1.3,3.7-2.9c0-1.6-1.3-2.6-3.5-2.6
		c-0.7,0-1.3,0-1.9,0.1v-1.6h0.4c3.1,0,4.6-0.9,4.6-2.6c0-1.3-1-2.1-2.6-2.1c-1.2,0-2.2,0.3-3,0.8l-0.3-1.7c1.1-0.5,2.3-0.7,3.7-0.7
		c2.9,0,4.3,1.4,4.3,3.4c0,1.7-1,2.9-2.6,3.3l0,0c1.8,0.2,3.1,1.7,3.1,3.4C155.1,394.8,152.6,396.8,149.1,396.8z"/>
</g>
<g enable-background="new    ">
	<path d="M196.6,393v3.6h-1.9V393h-6.6l-0.1-1.6l5.9-9.4h2.7v9.3h2.5v1.7H196.6z M194.7,383.7L194.7,383.7l-4.8,7.6c1.3,0,4,0,4.8,0
		V383.7z"/>
</g>
<g enable-background="new    ">
	<path d="M234.5,396.8c-0.7,0-1.6-0.1-2.4-0.2l0.1-1.7c0.7,0.2,1.7,0.3,2.4,0.3c2.6,0,4-1.5,4-3.2c0-1.8-1.5-2.8-3.8-2.8
		c-0.9,0-1.7,0.1-2.2,0.1V382h7.5v1.8l-5.7,0v3.8c0.4,0,0.8,0,1,0c3.5,0,5.3,1.8,5.3,4.1C240.7,394.5,238.2,396.8,234.5,396.8z"/>
</g>
<g enable-background="new    ">
	<path d="M279.1,395c-3,0-4.8-2.2-4.8-6.1c0-6.2,3-8.7,7.1-8.7c0.4,0,0.9,0,1.3,0.1v1.7c-0.4-0.1-0.9-0.1-1.4-0.1
		c-2.7,0-4.3,1.6-4.9,4.6c-0.1,0.2-0.1,0.6-0.2,1.1h0c0.7-1.2,2-1.9,3.4-1.9c2.8,0,4.4,1.8,4.4,4.2C284,393,282,395,279.1,395z
		 M279.2,387.3c-1.8,0-2.8,1.5-2.8,2.8c0,1.8,1,3.3,2.9,3.3c1.7,0,2.7-1.3,2.7-3.2C282,388.5,281,387.3,279.2,387.3z"/>
</g>
<circle fill="#808080" cx="62.7" cy="510.5" r="6.9"/>
<circle fill="#808080" cx="238.5" cy="510.5" r="6.9"/>
<g enable-background="new    ">
	<path d="M-10.9,431.8c-2.8,0-5.3-1.7-5.3-6.6c0-4.3,2.6-6.6,5.6-6.6c2.7,0,5.3,1.6,5.3,6.5C-5.3,429.5-7.9,431.8-10.9,431.8z
		 M-10.7,420.2c-1.7,0-3.4,1.5-3.4,4.9c0,3.6,1.3,5.1,3.4,5.1c1.7,0,3.4-1.5,3.4-4.9C-7.3,421.8-8.7,420.2-10.7,420.2z"/>
</g>
<g enable-background="new    ">
	<path d="M-14.9,474.4v-1.7h3.9v-9l-3.7,2.4l-0.7-1.6l4.7-2.9H-9v11.1h3.3v1.7H-14.9z"/>
</g>
<g enable-background="new    ">
	<path d="M-15.4,517.2v-1.6l3.1-2.8c2.7-2.3,3.4-3.2,3.4-4.6c0-1.4-0.8-2.4-2.6-2.4c-1.2,0-2.4,0.6-3.1,1.1l-0.4-1.7
		c1.1-0.7,2.3-1.1,3.9-1.1c2.9,0,4.4,1.6,4.4,3.8c0,1.8-0.9,3.2-3.3,5.2l-2.6,2.2l-0.1,0c1-0.1,3.3-0.1,6.5-0.1v1.8H-15.4z"/>
</g>
<g enable-background="new    ">
	<path d="M-12.5,561.9c-0.9,0-1.9-0.1-2.7-0.3l0.3-1.7c0.7,0.3,1.6,0.4,2.6,0.4c2.3,0,3.7-1.3,3.7-2.9c0-1.6-1.3-2.6-3.5-2.6
		c-0.7,0-1.3,0-1.9,0.1v-1.6h0.4c3.1,0,4.6-0.9,4.6-2.6c0-1.3-1-2.1-2.6-2.1c-1.2,0-2.2,0.3-3,0.8l-0.3-1.7c1.1-0.5,2.3-0.7,3.7-0.7
		c2.9,0,4.3,1.4,4.3,3.4c0,1.7-1,2.9-2.6,3.3l0,0c1.8,0.2,3.1,1.7,3.1,3.4C-6.4,559.9-8.9,561.9-12.5,561.9z"/>
</g>
<g enable-background="new    ">
	<path d="M-7.7,600.9v3.6h-1.9v-3.6h-6.6l-0.1-1.6l5.9-9.4h2.7v9.3h2.5v1.7H-7.7z M-9.6,591.6L-9.6,591.6l-4.8,7.6c1.3,0,4,0,4.8,0
		V591.6z"/>
</g>
<g enable-background="new    ">
	<path d="M-12.6,647.4c-0.7,0-1.6-0.1-2.4-0.2l0.1-1.7c0.7,0.2,1.7,0.3,2.4,0.3c2.6,0,4-1.5,4-3.2c0-1.8-1.5-2.8-3.8-2.8
		c-0.9,0-1.7,0.1-2.2,0.1v-7.3H-7v1.8l-5.7,0v3.8c0.4,0,0.8,0,1,0c3.5,0,5.3,1.8,5.3,4.1C-6.3,645.2-8.9,647.4-12.6,647.4z"/>
</g>
<g enable-background="new    ">
	<path d="M-10.7,688.4c-3,0-4.8-2.2-4.8-6.1c0-6.2,3-8.7,7.1-8.7c0.4,0,0.9,0,1.3,0.1v1.7c-0.4-0.1-0.9-0.1-1.4-0.1
		c-2.7,0-4.3,1.6-4.9,4.6c-0.1,0.2-0.1,0.6-0.2,1.1h0c0.7-1.2,2-1.9,3.4-1.9c2.8,0,4.4,1.8,4.4,4.2C-5.9,686.4-7.8,688.4-10.7,688.4
		z M-10.6,680.7c-1.8,0-2.8,1.5-2.8,2.8c0,1.8,1,3.3,2.9,3.3c1.7,0,2.7-1.3,2.7-3.2C-7.8,681.9-8.8,680.7-10.6,680.7z"/>
</g>
<line fill="none" stroke="#000000" stroke-width="1.3" x1="19.6" y1="422.1" x2="11.1" y2="422.1"/>
<line fill="none" stroke="#000000" stroke-width="1.3" x1="19.6" y1="466.4" x2="11.1" y2="466.4"/>
<line fill="none" stroke="#000000" stroke-width="1.3" x1="19.6" y1="510.4" x2="11.1" y2="510.4"/>
<line fill="none" stroke="#000000" stroke-width="1.3" x1="19.6" y1="554.5" x2="11.1" y2="554.5"/>
<line fill="none" stroke="#000000" stroke-width="1.3" x1="19.6" y1="598.8" x2="11.1" y2="598.8"/>
<line fill="none" stroke="#000000" stroke-width="1.3" x1="19.6" y1="643.4" x2="11.1" y2="643.4"/>
<line fill="none" stroke="#000000" stroke-width="1.3" x1="19.6" y1="686.6" x2="11.1" y2="686.6"/>
<line fill="none" stroke="#000000" stroke-width="1.3" x1="283.1" y1="422" x2="283.1" y2="413.6"/>
<line fill="none" stroke="#000000" stroke-width="1.3" x1="238.6" y1="422" x2="238.6" y2="413.6"/>
<line fill="none" stroke="#000000" stroke-width="1.3" x1="194.6" y1="422" x2="194.6" y2="413.6"/>
<line fill="none" stroke="#000000" stroke-width="1.3" x1="150.6" y1="422" x2="150.6" y2="413.6"/>
<line fill="none" stroke="#000000" stroke-width="1.3" x1="106.4" y1="422" x2="106.4" y2="413.6"/>
<line fill="none" stroke="#000000" stroke-width="1.3" x1="61.6" y1="422" x2="61.6" y2="413.6"/>
<line fill="none" stroke="#000000" stroke-width="1.3" x1="18.9" y1="422" x2="18.9" y2="413.6"/>
<polyline fill="#FFFFFF" stroke="#000000" stroke-width="1.3" points="-41.1,503 -46.4,508.2 -51.6,503 "/>
<line fill="none" stroke="#000000" stroke-width="1.3" x1="-46.4" y1="508.2" x2="-46.4" y2="446.2"/>
<polyline fill="#FFFFFF" stroke="#000000" stroke-width="1.3" points="99.5,346.7 104.8,351.9 99.5,357.1 "/>
<line fill="none" stroke="#000000" stroke-width="1.3" x1="105.9" y1="351.9" x2="43.9" y2="351.9"/>
<g enable-background="new    ">
	<path d="M328.9,557.4v-1.2c0.5-0.1,1.2-0.2,1.8-0.3v-12.7c-0.5-0.1-1.2-0.2-1.8-0.2v-1.2c1.1-0.1,2.5-0.2,3.8-0.1V556
		c0.6,0,1.3,0.2,1.8,0.3v1.2H328.9z"/>
	<path d="M335.4,557.4v-1.2c0.6-0.1,1.2-0.2,1.9-0.3v-7.7c-0.5-0.1-1.2-0.2-1.9-0.2v-1.2c1.1-0.1,2.5-0.2,3.8-0.2v9.2
		c0.6,0,1.3,0.2,1.8,0.3v1.2H335.4z M338.3,544.6c-0.7,0-1.3-0.5-1.3-1.2c0-0.7,0.6-1.3,1.3-1.3c0.7,0,1.3,0.6,1.3,1.3
		C339.5,544.1,339,544.6,338.3,544.6z"/>
	<path d="M350.6,557.4v-6.8c0-1.5-0.4-2.4-1.8-2.4c-1.8,0-3,1.8-3,4.1v3.7c0.6,0,1.2,0.1,1.7,0.3v1.2H342v-1.2
		c0.6-0.1,1.2-0.2,1.9-0.3v-7.7c-0.5-0.1-1.2-0.2-1.9-0.2v-1.2c1.1-0.1,2.5-0.2,3.7-0.2c0,0.6,0,1.6-0.1,2.2h0
		c0.6-1.5,1.9-2.4,3.8-2.4c2.4,0,3.2,1.5,3.2,3.4v6c0.6,0,1.3,0.2,1.8,0.3v1.2H350.6z"/>
	<path d="M364.5,552h-6.9c-0.1,2.8,1,4,3.4,4c1,0,2.1-0.2,3-0.6l0.3,1.5c-1.1,0.4-2.4,0.7-3.7,0.7c-3.2,0-5-1.7-5-5.5
		c0-3.2,1.8-5.6,4.8-5.6c3,0,4.2,2,4.2,4.4C364.6,551.2,364.6,551.6,364.5,552z M360.3,548c-1.4,0-2.4,1-2.6,2.7h5
		C362.7,549,361.8,548,360.3,548z"/>
	<path d="M374.9,561.9c-2.5-4-3.1-7.4-3.1-10.5c0-3.1,0.7-6.8,3.1-10.6l1.4,0.7c-1.7,3-2.7,6.4-2.7,9.9c0,3.7,0.9,6.9,2.7,9.9
		L374.9,561.9z"/>
	<path d="M389.5,557.4l-2.4-4l-2.3,4h-3.2v-1.2c0.6-0.1,1.2-0.3,1.8-0.3l2.6-3.8l-2.5-3.8c-0.6,0-1.2-0.2-1.8-0.3v-1.2h3.2l2.2,3.9
		l2.3-3.9h3.1v1.2c-0.6,0.1-1.2,0.3-1.8,0.3l-2.4,3.7l2.6,3.9c0.6,0,1.2,0.2,1.8,0.3v1.2H389.5z"/>
	<path d="M395.2,557.4v-1.7h3.9v-9l-3.7,2.4l-0.7-1.6l4.7-2.9h1.6v11.1h3.3v1.7H395.2z"/>
	<path d="M411.9,560.7l-0.8-0.7c1.4-1.5,1.4-2.5,0.9-3.1c-0.6-0.7-0.1-1.9,0.9-1.9C414.5,555,415.2,557.7,411.9,560.7z"/>
	<path d="M429.6,548.2l-3.8,10.3c-1.2,3.2-2.2,4.3-4.6,4.3c-0.4,0-1,0-1.5-0.1l0.1-1.7c0.5,0.1,0.9,0.2,1.4,0.2
		c1.2,0,1.8-0.6,2.6-2.6l0.4-1.2h-0.5l-3.3-9.2c-0.5,0-1-0.1-1.4-0.3v-1.2h4.9v1.2c-0.4,0.1-0.9,0.2-1.4,0.3l1.6,4.6
		c0.3,1,0.6,1.8,0.8,2.7h0c0.2-0.7,0.6-1.9,1-3.2l1.4-4.1c-0.5,0-1-0.1-1.4-0.3v-1.2h4.7v1.2C430.5,548,430.1,548.1,429.6,548.2z"/>
	<path d="M433.3,557.4v-1.7h3.9v-9l-3.7,2.4l-0.7-1.6l4.7-2.9h1.6v11.1h3.3v1.7H433.3z"/>
	<path d="M450,560.7l-0.8-0.7c1.4-1.5,1.4-2.5,0.9-3.1c-0.6-0.7-0.1-1.9,0.9-1.9C452.6,555,453.3,557.7,450,560.7z"/>
	<path d="M465.3,557.4l-2.4-4l-2.3,4h-3.2v-1.2c0.6-0.1,1.2-0.3,1.8-0.3l2.6-3.8l-2.5-3.8c-0.6,0-1.2-0.2-1.8-0.3v-1.2h3.2l2.2,3.9
		l2.3-3.9h3.1v1.2c-0.6,0.1-1.2,0.3-1.8,0.3l-2.4,3.7l2.6,3.9c0.6,0,1.2,0.2,1.8,0.3v1.2H465.3z"/>
	<path d="M470.6,557.4v-1.6l3.1-2.8c2.7-2.3,3.4-3.2,3.4-4.6c0-1.4-0.8-2.4-2.6-2.4c-1.2,0-2.4,0.6-3.1,1.1l-0.4-1.7
		c1.1-0.7,2.3-1.1,3.9-1.1c2.9,0,4.4,1.6,4.4,3.8c0,1.8-0.9,3.2-3.3,5.2l-2.6,2.2l-0.1,0c1-0.1,3.3-0.1,6.5-0.1v1.8H470.6z"/>
	<path d="M487.7,560.7l-0.8-0.7c1.4-1.5,1.4-2.5,0.9-3.1c-0.6-0.7-0.1-1.9,0.9-1.9C490.3,555,491,557.7,487.7,560.7z"/>
	<path d="M505.4,548.2l-3.8,10.3c-1.2,3.2-2.2,4.3-4.6,4.3c-0.4,0-1,0-1.5-0.1l0.1-1.7c0.5,0.1,0.9,0.2,1.4,0.2
		c1.2,0,1.8-0.6,2.6-2.6l0.4-1.2h-0.5l-3.3-9.2c-0.5,0-1-0.1-1.4-0.3v-1.2h4.9v1.2c-0.4,0.1-0.9,0.2-1.4,0.3l1.6,4.6
		c0.3,1,0.6,1.8,0.8,2.7h0c0.2-0.7,0.6-1.9,1-3.2l1.4-4.1c-0.5,0-1-0.1-1.4-0.3v-1.2h4.7v1.2C506.4,548,505.9,548.1,505.4,548.2z"/>
	<path d="M508.7,557.4v-1.6l3.1-2.8c2.7-2.3,3.4-3.2,3.4-4.6c0-1.4-0.8-2.4-2.6-2.4c-1.2,0-2.4,0.6-3.1,1.1l-0.4-1.7
		c1.1-0.7,2.3-1.1,3.9-1.1c2.9,0,4.4,1.6,4.4,3.8c0,1.8-0.9,3.2-3.3,5.2l-2.6,2.2l-0.1,0c1-0.1,3.3-0.1,6.5-0.1v1.8H508.7z"/>
	<path d="M526.4,561.9l-1.4-0.7c1.8-3,2.7-6.4,2.7-9.8c0-3.7-0.9-6.9-2.7-10l1.5-0.7c2.5,4,3.1,7.4,3.1,10.5
		C529.5,554.3,528.8,558,526.4,561.9z"/>
	<path d="M537.9,560.7l-0.8-0.7c1.4-1.5,1.4-2.5,0.9-3.1c-0.6-0.7-0.1-1.9,0.9-1.9C540.5,555,541.2,557.7,537.9,560.7z M538.9,551.3
		c-0.7,0-1.3-0.6-1.3-1.3c0-0.7,0.6-1.3,1.3-1.3c0.7,0,1.3,0.6,1.3,1.3C540.3,550.7,539.7,551.3,538.9,551.3z"/>
</g>
<text transform="matrix(1 0 0 1 328.539 602.9999)" fill="#999999" font-family="'TheSerif-HP5Plain'" font-size="16.6302" letter-spacing="37"> </text>
<g enable-background="new    ">
	<path fill="#999999" d="M386.8,599.1c-0.5,0-0.9,0-1.2-0.1v2.8c0.5,0,1,0.1,1.4,0.2v0.9h-4.4v-0.9c0.4-0.1,0.9-0.2,1.4-0.2v-9
		c-0.5,0-1-0.1-1.4-0.2v-0.9h1.4c0.5,0,1.9-0.1,2.9-0.1c3,0,4.3,1.6,4.3,3.5C391.3,597.5,389.5,599.1,386.8,599.1z M386.8,593
		c-0.4,0-0.9,0-1.2,0v4.8c0.3,0,0.8,0.1,1.3,0.1c1.9,0,2.8-1.1,2.8-2.5C389.7,594.2,389,593,386.8,593z"/>
	<path fill="#999999" d="M396.1,603.1c-2.3,0-3.7-1.3-3.7-4.2c0-2.5,1.5-4.4,4-4.4c2.1,0,3.7,1.1,3.7,4.2
		C400.1,601.2,398.6,603.1,396.1,603.1z M396.2,595.8c-1.2,0-2.3,0.9-2.3,3c0,1.9,0.8,3,2.3,3c1.2,0,2.3-1,2.3-3
		C398.5,596.9,397.7,595.8,396.2,595.8z"/>
	<path fill="#999999" d="M401.3,603v-0.9c0.4-0.1,0.9-0.2,1.4-0.2v-6c-0.4-0.1-1-0.1-1.4-0.2v-0.9c0.8-0.1,2-0.2,2.9-0.1v7.2
		c0.5,0,1,0.1,1.4,0.2v0.9H401.3z M403.5,593.1c-0.5,0-1-0.4-1-1s0.4-1,1-1c0.5,0,1,0.4,1,1C404.4,592.7,404,593.1,403.5,593.1z"/>
	<path fill="#999999" d="M413.1,603v-5.3c0-1.2-0.3-1.9-1.4-1.9c-1.4,0-2.4,1.4-2.4,3.2v2.8c0.4,0,0.9,0.1,1.3,0.2v0.9h-4.3v-0.9
		c0.4-0.1,0.9-0.2,1.4-0.2v-6c-0.4-0.1-1-0.1-1.4-0.2v-0.9c0.8-0.1,2-0.2,2.9-0.1c0,0.5,0,1.2-0.1,1.7h0c0.5-1.1,1.5-1.9,2.9-1.9
		c1.9,0,2.5,1.2,2.5,2.6v4.7c0.5,0,1,0.1,1.4,0.2v0.9H413.1z"/>
	<path fill="#999999" d="M420,603.1c-1.7,0-2.2-0.7-2.2-2.5v-4.8h-1.7v-1.2h1.7v-2.7l1.5-0.4v3.1h2.3v1.2h-2.3v4.2
		c0,1.4,0.3,1.7,1.2,1.7c0.4,0,0.7,0,1-0.1l0.2,1.2C421.2,603.1,420.6,603.1,420,603.1z"/>
	<path fill="#999999" d="M433.2,603v-0.9c0.4-0.1,0.9-0.2,1.3-0.2l-0.6-1.8h-4.7l-0.6,1.8c0.4,0,0.9,0.1,1.3,0.2v0.9H426v-0.9
		c0.3-0.1,0.7-0.2,1-0.2l3.7-10.1h1.9l3.7,10.1c0.3,0,0.7,0.1,1,0.2v0.9H433.2z M432.1,594.9c-0.2-0.6-0.4-1.1-0.5-1.6h0
		c-0.1,0.5-0.3,1-0.5,1.6l-1.4,4h3.9L432.1,594.9z"/>
	<path fill="#999999" d="M456.5,599.1c-0.5,0-0.9,0-1.2-0.1v2.8c0.5,0,1,0.1,1.4,0.2v0.9h-4.4v-0.9c0.4-0.1,0.9-0.2,1.4-0.2v-9
		c-0.5,0-1-0.1-1.4-0.2v-0.9h1.4c0.5,0,1.9-0.1,2.9-0.1c3,0,4.3,1.6,4.3,3.5C461,597.5,459.2,599.1,456.5,599.1z M456.5,593
		c-0.4,0-0.9,0-1.2,0v4.8c0.3,0,0.8,0.1,1.3,0.1c1.9,0,2.8-1.1,2.8-2.5C459.4,594.2,458.7,593,456.5,593z"/>
	<path fill="#999999" d="M465.8,603.1c-2.3,0-3.7-1.3-3.7-4.2c0-2.5,1.5-4.4,4-4.4c2.1,0,3.7,1.1,3.7,4.2
		C469.8,601.2,468.3,603.1,465.8,603.1z M465.9,595.8c-1.2,0-2.3,0.9-2.3,3c0,1.9,0.8,3,2.3,3c1.2,0,2.3-1,2.3-3
		C468.2,596.9,467.4,595.8,465.9,595.8z"/>
	<path fill="#999999" d="M470.9,603v-0.9c0.4-0.1,0.9-0.2,1.4-0.2v-6c-0.4-0.1-1-0.1-1.4-0.2v-0.9c0.8-0.1,2-0.2,2.9-0.1v7.2
		c0.5,0,1,0.1,1.4,0.2v0.9H470.9z M473.2,593.1c-0.5,0-1-0.4-1-1s0.4-1,1-1c0.5,0,1,0.4,1,1C474.1,592.7,473.7,593.1,473.2,593.1z"
		/>
	<path fill="#999999" d="M482.8,603v-5.3c0-1.2-0.3-1.9-1.4-1.9c-1.4,0-2.4,1.4-2.4,3.2v2.8c0.4,0,0.9,0.1,1.3,0.2v0.9h-4.3v-0.9
		c0.4-0.1,0.9-0.2,1.4-0.2v-6c-0.4-0.1-1-0.1-1.4-0.2v-0.9c0.8-0.1,2-0.2,2.9-0.1c0,0.5,0,1.2-0.1,1.7h0c0.5-1.1,1.5-1.9,2.9-1.9
		c1.9,0,2.5,1.2,2.5,2.6v4.7c0.5,0,1,0.1,1.4,0.2v0.9H482.8z"/>
	<path fill="#999999" d="M489.7,603.1c-1.7,0-2.2-0.7-2.2-2.5v-4.8h-1.7v-1.2h1.7v-2.7l1.5-0.4v3.1h2.3v1.2H489v4.2
		c0,1.4,0.3,1.7,1.2,1.7c0.4,0,0.7,0,1-0.1l0.2,1.2C490.9,603.1,490.3,603.1,489.7,603.1z"/>
	<path fill="#999999" d="M500.4,603c-0.6,0-1.7,0-2.9,0H496v-0.9c0.4-0.1,0.9-0.2,1.4-0.2v-9c-0.5,0-1-0.1-1.4-0.2v-0.9h1.4
		c0.8,0,1.9,0,3.2,0c2.4,0,3.6,1,3.6,2.7c0,1.2-0.6,2.2-1.8,2.6v0c1.6,0.3,2.3,1.4,2.3,2.6C504.7,601,503.9,603,500.4,603z
		 M500.4,593c-0.5,0-0.9,0-1.4,0v3.6c0.3,0,0.6,0,1,0c1.8,0,2.6-0.7,2.6-2C502.7,593.7,502.2,593,500.4,593z M500.1,597.8
		c-0.2,0-0.8,0-1.1,0v3.9c0.3,0,0.8,0.1,1.5,0.1c1.8,0,2.6-0.9,2.6-2.1C503.1,598.2,501.8,597.8,500.1,597.8z"/>
</g>
<g enable-background="new    ">
	<path d="M76.7,498v-1.2c0.5-0.1,1.1-0.2,1.7-0.3l-0.8-2.4h-6l-0.8,2.4c0.6,0,1.2,0.1,1.7,0.3v1.2h-5v-1.2c0.4-0.1,0.9-0.2,1.3-0.2
		l4.7-13h2.4l4.8,13c0.4,0,0.9,0.1,1.3,0.2v1.2H76.7z M75.2,487.5c-0.3-0.7-0.5-1.4-0.7-2.1h0c-0.2,0.7-0.4,1.3-0.6,2.1l-1.9,5.1h5
		L75.2,487.5z"/>
	<path d="M95.4,502.8c-3.6-3.3-5.3-6.6-5.3-10.8c0-4.4,2.1-8,5.3-10.9l1.1,1.1c-2.9,2.8-4.5,6.2-4.5,9.6c0,3.6,1.5,6.8,4.5,9.7
		L95.4,502.8z"/>
	<path d="M101.7,498v-1.7h3.9v-9l-3.7,2.4l-0.7-1.6l4.7-2.9h1.6v11.1h3.3v1.7H101.7z"/>
	<path d="M115.2,500.8c2.2-0.6,2.9-1.6,2.9-2.4c0-1.3-1.1-1.4-1.1-2.5c0-0.9,0.6-1.6,1.5-1.6c1.3,0,2,1.3,2,2.7c0,2.6-1.8,4.2-4.9,5
		L115.2,500.8z"/>
	<path d="M126.9,498v-1.6l3.1-2.8c2.7-2.3,3.4-3.2,3.4-4.6c0-1.4-0.8-2.4-2.6-2.4c-1.2,0-2.4,0.6-3.1,1.1l-0.4-1.7
		c1.1-0.7,2.3-1.1,3.9-1.1c2.9,0,4.4,1.6,4.4,3.8c0,1.8-0.9,3.2-3.3,5.2l-2.6,2.2l-0.1,0c1-0.1,3.3-0.1,6.5-0.1v1.8H126.9z"/>
	<path d="M142.2,481.1c3.6,3.3,5.3,6.6,5.3,10.8c0,4.4-2.1,8-5.3,10.9l-1.1-1.1c2.9-2.8,4.5-6.2,4.5-9.6c0-3.6-1.5-6.9-4.5-9.7
		L142.2,481.1z"/>
</g>
<g enable-background="new    ">
	<path d="M249.2,498.1c-0.8,0-2.2-0.1-3.7-0.1h-1.9v-1.2c0.6-0.1,1.2-0.2,1.9-0.3V485c-0.6,0-1.3-0.2-1.9-0.3v-1.2h1.8
		c1,0,2.4-0.1,4.1-0.1c3.1,0,4.6,1.3,4.6,3.5c0,1.5-0.8,2.8-2.4,3.4v0c2,0.3,2.9,1.8,2.9,3.3C254.7,495.4,253.7,498.1,249.2,498.1z
		 M249.2,485.1c-0.7,0-1.2,0-1.8,0v4.7c0.4,0,0.8,0,1.3,0c2.4,0,3.4-0.9,3.4-2.5C252.1,486,251.5,485.1,249.2,485.1z M248.8,491.3
		c-0.3,0-1,0-1.4,0v5c0.4,0.1,1,0.1,1.9,0.1c2.4,0,3.4-1.2,3.4-2.7C252.7,491.9,251,491.3,248.8,491.3z"/>
	<path d="M269.2,502.8c-3.6-3.3-5.3-6.6-5.3-10.8c0-4.4,2.1-8,5.3-10.9l1.1,1.1c-2.9,2.8-4.5,6.2-4.5,9.6c0,3.6,1.5,6.8,4.5,9.7
		L269.2,502.8z"/>
	<path d="M277.8,500c-0.7,0-1.6-0.1-2.4-0.2l0.1-1.7c0.7,0.2,1.7,0.3,2.4,0.3c2.6,0,4-1.5,4-3.2c0-1.8-1.5-2.8-3.8-2.8
		c-0.9,0-1.7,0.1-2.2,0.1v-7.3h7.5v1.8l-5.7,0v3.8c0.4,0,0.8,0,1,0c3.5,0,5.3,1.8,5.3,4.1C284.1,497.7,281.6,500,277.8,500z"/>
	<path d="M289,500.8c2.2-0.6,2.9-1.6,2.9-2.4c0-1.3-1.1-1.4-1.1-2.5c0-0.9,0.6-1.6,1.5-1.6c1.3,0,2,1.3,2,2.7c0,2.6-1.8,4.2-4.9,5
		L289,500.8z"/>
	<path d="M300.7,498v-1.6l3.1-2.8c2.7-2.3,3.4-3.2,3.4-4.6c0-1.4-0.8-2.4-2.6-2.4c-1.2,0-2.4,0.6-3.1,1.1l-0.4-1.7
		c1.1-0.7,2.3-1.1,3.9-1.1c2.9,0,4.4,1.6,4.4,3.8c0,1.8-0.9,3.2-3.3,5.2l-2.6,2.2l-0.1,0c1-0.1,3.3-0.1,6.5-0.1v1.8H300.7z"/>
	<path d="M316,481.1c3.6,3.3,5.3,6.6,5.3,10.8c0,4.4-2.1,8-5.3,10.9l-1.1-1.1c2.9-2.8,4.5-6.2,4.5-9.6c0-3.6-1.5-6.9-4.5-9.7
		L316,481.1z"/>
</g>
<line fill="none" stroke="#999999" stroke-width="5" x1="382" y1="573" x2="434.9" y2="573"/>
<line fill="none" stroke="#999999" stroke-width="5" x1="447.3" y1="573" x2="507.1" y2="573"/>
<line fill="none" stroke="#000000" stroke-width="2" x1="61.3" y1="511.2" x2="239.2" y2="511.2"/>
<g enable-background="new    ">
	<path fill="#808080" d="M25.9,745.1v-1.2c0.6-0.1,1.2-0.2,1.9-0.3v-11.6c-0.6,0-1.3-0.2-1.9-0.3v-1.2h9.3v3.3h-1.4
		c-0.1-0.7-0.2-1.3-0.3-1.8h-3.9v4.7h3.1c0.1-0.5,0.2-1,0.3-1.5h1.2v4.4H33c-0.1-0.4-0.2-1-0.3-1.5h-3.1v5.1h3.9
		c0.1-0.6,0.2-1.2,0.3-1.8h1.4v3.4H25.9z"/>
	<path fill="#808080" d="M44.7,745.1l-2.4-4l-2.3,4h-3.2v-1.2c0.6-0.1,1.2-0.3,1.8-0.3l2.6-3.8l-2.5-3.8c-0.6,0-1.2-0.2-1.8-0.3
		v-1.2h3.2l2.2,3.9l2.3-3.9h3.1v1.2c-0.6,0.1-1.2,0.3-1.8,0.3l-2.4,3.7l2.6,3.9c0.6,0,1.2,0.2,1.8,0.3v1.2H44.7z"/>
	<path fill="#808080" d="M55.6,745.1c0-0.7,0-1.5,0.1-2.1h0c-0.5,1.3-1.9,2.3-3.6,2.3s-3-1.1-3-2.8c0-2.3,2.4-3.6,6.4-3.6V738
		c0-1.5-0.5-2.3-2.2-2.3c-0.6,0-1.4,0.1-2,0.3c0,0.5-0.1,1.1-0.3,1.7h-1.2v-2.9c1.1-0.3,2.4-0.6,3.6-0.6c3.1,0,4,1.4,4,3.5v5.8
		c0.5,0.1,1.2,0.2,1.8,0.2v1.2C58.3,745,56.8,745.1,55.6,745.1z M55.5,740.2c-3.3,0-4.5,0.8-4.5,2c0,0.9,0.6,1.6,1.6,1.6
		c1.7,0,2.9-1.7,2.9-3.4V740.2z"/>
	<path fill="#808080" d="M75.4,745.1v-6.8c0-1.5-0.3-2.4-1.7-2.4c-1.5,0-3,1.6-3,4.2v3.6c0.6,0,1.2,0.1,1.7,0.3v1.2h-3.6v-6.8
		c0-1.3-0.3-2.4-1.7-2.4c-1.6,0-3,1.8-3,4.2v3.6c0.6,0,1.2,0.1,1.7,0.3v1.2h-5.5v-1.2c0.6-0.1,1.2-0.2,1.9-0.3V736
		c-0.5-0.1-1.2-0.2-1.9-0.2v-1.2c1.1-0.1,2.6-0.2,3.7-0.2c0,0.6-0.1,1.6-0.2,2.2l0,0c0.6-1.5,2-2.5,3.7-2.5c2.2,0,2.8,1.5,3,2.4
		c0.4-1,1.6-2.4,3.6-2.4c2,0,3.1,1.1,3.1,3.5v5.9c0.6,0,1.3,0.2,1.8,0.3v1.2H75.4z"/>
	<path fill="#808080" d="M85.2,745.2c-0.7,0-1.2,0-1.8-0.1v3.8c0.6,0,1.3,0.2,1.9,0.3v1.2h-5.6v-1.2c0.6-0.1,1.1-0.2,1.8-0.3v-13
		c-0.5-0.1-1.2-0.2-1.8-0.2v-1.2c1-0.1,2.5-0.2,3.7-0.2c0,0.6-0.1,1.6-0.2,2.2l0,0c0.6-1.5,1.9-2.4,3.5-2.4c2.5,0,3.9,1.8,3.9,5
		C90.7,743,88.6,745.2,85.2,745.2z M86.3,735.8c-1.9,0-2.9,2.2-2.9,4.1v3.5c0.6,0.2,1.2,0.3,1.9,0.3c2,0,3.4-1.2,3.4-4.3
		C88.6,737.1,87.9,735.8,86.3,735.8z"/>
	<path fill="#808080" d="M92,745.1v-1.2c0.5-0.1,1.2-0.2,1.8-0.3V731c-0.5-0.1-1.2-0.2-1.8-0.2v-1.2c1.1-0.1,2.5-0.2,3.8-0.1v14.2
		c0.6,0,1.3,0.2,1.8,0.3v1.2H92z"/>
	<path fill="#808080" d="M107.6,739.7h-6.9c-0.1,2.8,1,4,3.4,4c1,0,2.1-0.2,3-0.6l0.3,1.5c-1.1,0.4-2.4,0.7-3.7,0.7
		c-3.2,0-5-1.7-5-5.5c0-3.2,1.8-5.6,4.8-5.6c3,0,4.2,2,4.2,4.4C107.6,738.9,107.6,739.3,107.6,739.7z M103.3,735.7
		c-1.4,0-2.4,1-2.6,2.7h5C105.7,736.7,104.8,735.7,103.3,735.7z"/>
	<path fill="#808080" d="M112,739c-0.7,0-1.3-0.6-1.3-1.3c0-0.7,0.6-1.3,1.3-1.3c0.7,0,1.3,0.6,1.3,1.3
		C113.3,738.4,112.7,739,112,739z M112,745.3c-0.7,0-1.3-0.6-1.3-1.3s0.6-1.3,1.3-1.3c0.7,0,1.3,0.6,1.3,1.3S112.7,745.3,112,745.3z
		"/>
</g>
<g enable-background="new    ">
	<path d="M124.8,745.1v-1.2c0.5-0.1,1.2-0.2,1.8-0.3V731c-0.5-0.1-1.2-0.2-1.8-0.2v-1.2c1.1-0.1,2.5-0.2,3.8-0.1v14.2
		c0.6,0,1.3,0.2,1.8,0.3v1.2H124.8z"/>
	<path d="M131.4,745.1v-1.2c0.6-0.1,1.2-0.2,1.9-0.3V736c-0.5-0.1-1.2-0.2-1.9-0.2v-1.2c1.1-0.1,2.5-0.2,3.8-0.2v9.2
		c0.6,0,1.3,0.2,1.8,0.3v1.2H131.4z M134.2,732.3c-0.7,0-1.3-0.5-1.3-1.2c0-0.7,0.6-1.3,1.3-1.3c0.7,0,1.3,0.6,1.3,1.3
		C135.5,731.8,134.9,732.3,134.2,732.3z"/>
	<path d="M146.6,745.1v-6.8c0-1.5-0.4-2.4-1.8-2.4c-1.8,0-3,1.8-3,4.1v3.7c0.6,0,1.2,0.1,1.7,0.3v1.2h-5.5v-1.2
		c0.6-0.1,1.2-0.2,1.9-0.3V736c-0.5-0.1-1.2-0.2-1.9-0.2v-1.2c1.1-0.1,2.5-0.2,3.7-0.2c0,0.6,0,1.6-0.1,2.2h0
		c0.6-1.5,1.9-2.4,3.8-2.4c2.4,0,3.2,1.5,3.2,3.4v6c0.6,0,1.3,0.2,1.8,0.3v1.2H146.6z"/>
	<path d="M160.4,739.7h-6.9c-0.1,2.8,1,4,3.4,4c1,0,2.1-0.2,3-0.6l0.3,1.5c-1.1,0.4-2.4,0.7-3.7,0.7c-3.2,0-5-1.7-5-5.5
		c0-3.2,1.8-5.6,4.8-5.6c3,0,4.2,2,4.2,4.4C160.5,738.9,160.5,739.3,160.4,739.7z M156.2,735.7c-1.4,0-2.4,1-2.6,2.7h5
		C158.6,736.7,157.7,735.7,156.2,735.7z"/>
	<path d="M174.9,749.9c-3.6-3.3-5.3-6.6-5.3-10.8c0-4.4,2.1-8,5.3-10.9l1.1,1.1c-2.9,2.8-4.5,6.2-4.5,9.6c0,3.6,1.5,6.8,4.5,9.7
		L174.9,749.9z"/>
	<path d="M181.2,745.1v-1.7h3.9v-9l-3.7,2.4l-0.7-1.6l4.7-2.9h1.6v11.1h3.3v1.7H181.2z"/>
	<path d="M194.7,747.9c2.2-0.6,2.9-1.6,2.9-2.4c0-1.3-1.1-1.4-1.1-2.5c0-0.9,0.6-1.6,1.5-1.6c1.3,0,2,1.3,2,2.7c0,2.6-1.8,4.2-4.9,5
		L194.7,747.9z"/>
	<path d="M206.4,745.1v-1.6l3.1-2.8c2.7-2.3,3.4-3.2,3.4-4.6c0-1.4-0.8-2.4-2.6-2.4c-1.2,0-2.4,0.6-3.1,1.1l-0.4-1.7
		c1.1-0.7,2.3-1.1,3.9-1.1c2.9,0,4.4,1.6,4.4,3.8c0,1.8-0.9,3.2-3.3,5.2l-2.6,2.2l-0.1,0c1-0.1,3.3-0.1,6.5-0.1v1.8H206.4z"/>
	<path d="M220.4,747.9c2.2-0.6,2.9-1.6,2.9-2.4c0-1.3-1.1-1.4-1.1-2.5c0-0.9,0.6-1.6,1.5-1.6c1.3,0,2,1.3,2,2.7c0,2.6-1.8,4.2-4.9,5
		L220.4,747.9z"/>
	<path d="M234.8,747.1c-0.7,0-1.6-0.1-2.4-0.2l0.1-1.7c0.7,0.2,1.7,0.3,2.4,0.3c2.6,0,4-1.5,4-3.2c0-1.8-1.5-2.8-3.8-2.8
		c-0.9,0-1.7,0.1-2.2,0.1v-7.3h7.5v1.8l-5.7,0v3.8c0.4,0,0.8,0,1,0c3.5,0,5.3,1.8,5.3,4.1C241.1,744.8,238.6,747.1,234.8,747.1z"/>
	<path d="M246,747.9c2.2-0.6,2.9-1.6,2.9-2.4c0-1.3-1.1-1.4-1.1-2.5c0-0.9,0.6-1.6,1.5-1.6c1.3,0,2,1.3,2,2.7c0,2.6-1.8,4.2-4.9,5
		L246,747.9z"/>
	<path d="M257.7,745.1v-1.6l3.1-2.8c2.7-2.3,3.4-3.2,3.4-4.6c0-1.4-0.8-2.4-2.6-2.4c-1.2,0-2.4,0.6-3.1,1.1l-0.4-1.7
		c1.1-0.7,2.3-1.1,3.9-1.1c2.9,0,4.4,1.6,4.4,3.8c0,1.8-0.9,3.2-3.3,5.2l-2.6,2.2l-0.1,0c1-0.1,3.3-0.1,6.5-0.1v1.8H257.7z"/>
	<path d="M273,728.2c3.6,3.3,5.3,6.6,5.3,10.8c0,4.4-2.1,8-5.3,10.9l-1.1-1.1c2.9-2.8,4.5-6.2,4.5-9.6c0-3.6-1.5-6.9-4.5-9.7
		L273,728.2z"/>
	<path d="M296.8,748.4l-0.8-0.7c1.4-1.5,1.4-2.5,0.9-3.1c-0.6-0.7-0.1-1.9,0.9-1.9C299.4,742.7,300.1,745.3,296.8,748.4z M297.8,739
		c-0.7,0-1.3-0.6-1.3-1.3c0-0.7,0.6-1.3,1.3-1.3c0.7,0,1.3,0.6,1.3,1.3C299.1,738.4,298.6,739,297.8,739z"/>
</g>
</svg>
