<?xml version="1.0" encoding="utf-8"?>
<!-- Generator: Adobe Illustrator 18.0.0, SVG Export Plug-In . SVG Version: 6.00 Build 0)  -->
<!DOCTYPE svg PUBLIC "-//W3C//DTD SVG 1.1//EN" "http://www.w3.org/Graphics/SVG/1.1/DTD/svg11.dtd">
<svg version="1.1" id="Layer_1" xmlns="http://www.w3.org/2000/svg" xmlns:xlink="http://www.w3.org/1999/xlink" x="0px" y="0px"
	 viewBox="0 0 215 72" enable-background="new 0 0 215 72" xml:space="preserve">
<g>
	<rect x="9.2" y="127.7" fill="none" stroke="#999999" stroke-width="1.3" width="40.7" height="40.7"/>
	<line fill="none" stroke="#999999" stroke-width="1.3" x1="9.2" y1="161.6" x2="49.9" y2="161.6"/>
	<line fill="none" stroke="#999999" stroke-width="1.3" x1="9.2" y1="154.8" x2="49.9" y2="154.8"/>
	<line fill="none" stroke="#999999" stroke-width="1.3" x1="9.2" y1="148" x2="49.9" y2="148"/>
	<line fill="none" stroke="#999999" stroke-width="1.3" x1="9.2" y1="141.2" x2="49.9" y2="141.2"/>
	<line fill="none" stroke="#999999" stroke-width="1.3" x1="9.2" y1="134.4" x2="49.9" y2="134.4"/>
	<line fill="none" stroke="#999999" stroke-width="1.3" x1="43.1" y1="127.7" x2="43.1" y2="168.3"/>
	<line fill="none" stroke="#999999" stroke-width="1.3" x1="36.3" y1="127.7" x2="36.3" y2="168.3"/>
	<line fill="none" stroke="#999999" stroke-width="1.3" x1="29.5" y1="127.7" x2="29.5" y2="168.3"/>
	<line fill="none" stroke="#999999" stroke-width="1.3" x1="22.7" y1="127.7" x2="22.7" y2="168.3"/>
	<line fill="none" stroke="#999999" stroke-width="1.3" x1="16" y1="127.7" x2="16" y2="168.3"/>
</g>
<text transform="matrix(1 0 0 1 8.7422 117.8736)" font-family="'TheSerif-HP5Plain'" font-size="3.2844">x</text>
<text transform="matrix(1 0 0 1 -1.6731 128.1517)" font-family="'TheSerif-HP5Plain'" font-size="3.2844">y</text>
<text transform="matrix(1 0 0 1 8.8032 123.4684)" font-family="'TheSerif-HP5Plain'" font-size="3.2844">0</text>
<text transform="matrix(1 0 0 1 10.6092 123.4684)" font-family="'TheSerif-HP5Plain'" font-size="3.2844" letter-spacing="3"> </text>
<text transform="matrix(1 0 0 1 15.3723 123.4684)" font-family="'TheSerif-HP5Plain'" font-size="3.2844">1</text>
<text transform="matrix(1 0 0 1 17.1783 123.4684)" font-family="'TheSerif-HP5Plain'" font-size="3.2844" letter-spacing="3"> </text>
<text transform="matrix(1 0 0 1 21.9404 123.4684)" font-family="'TheSerif-HP5Plain'" font-size="3.2844">2</text>
<text transform="matrix(1 0 0 1 23.7469 123.4684)" font-family="'TheSerif-HP5Plain'" font-size="3.2844" letter-spacing="3"> </text>
<text transform="matrix(1 0 0 1 28.5094 123.4684)" font-family="'TheSerif-HP5Plain'" font-size="3.2844">3</text>
<text transform="matrix(1 0 0 1 30.3155 123.4684)" font-family="'TheSerif-HP5Plain'" font-size="3.2844" letter-spacing="3"> </text>
<text transform="matrix(1 0 0 1 35.078 123.4684)" font-family="'TheSerif-HP5Plain'" font-size="3.2844">4</text>
<text transform="matrix(1 0 0 1 36.884 123.4684)" font-family="'TheSerif-HP5Plain'" font-size="3.2844" letter-spacing="3"> </text>
<text transform="matrix(1 0 0 1 41.6471 123.4684)" font-family="'TheSerif-HP5Plain'" font-size="3.2844">5</text>
<text transform="matrix(1 0 0 1 43.4531 123.4684)" font-family="'TheSerif-HP5Plain'" font-size="3.2844" letter-spacing="3"> </text>
<text transform="matrix(1 0 0 1 48.2151 123.4684)" font-family="'TheSerif-HP5Plain'" font-size="3.2844">6</text>
<circle fill="#808080" cx="29.6" cy="141.1" r="1.1"/>
<text transform="matrix(1 0 0 1 3.6941 129.1255)" font-family="'TheSerif-HP5Plain'" font-size="3.2844">0</text>
<text transform="matrix(1 0 0 1 3.6941 135.6936)" font-family="'TheSerif-HP5Plain'" font-size="3.2844">1</text>
<text transform="matrix(1 0 0 1 3.6941 142.2622)" font-family="'TheSerif-HP5Plain'" font-size="3.2844">2</text>
<text transform="matrix(1 0 0 1 3.6941 148.8313)" font-family="'TheSerif-HP5Plain'" font-size="3.2844">3</text>
<text transform="matrix(1 0 0 1 3.6941 155.3989)" font-family="'TheSerif-HP5Plain'" font-size="3.2844">4</text>
<text transform="matrix(1 0 0 1 3.6941 161.9689)" font-family="'TheSerif-HP5Plain'" font-size="3.2844">5</text>
<text transform="matrix(1 0 0 1 3.6941 168.5375)" font-family="'TheSerif-HP5Plain'" font-size="3.2844">6</text>
<line fill="none" stroke="#000000" stroke-width="1.3" x1="9.3" y1="127.7" x2="8" y2="127.7"/>
<line fill="none" stroke="#000000" stroke-width="1.3" x1="9.3" y1="134.5" x2="8" y2="134.5"/>
<line fill="none" stroke="#000000" stroke-width="1.3" x1="9.3" y1="141.2" x2="8" y2="141.2"/>
<line fill="none" stroke="#000000" stroke-width="1.3" x1="9.3" y1="148" x2="8" y2="148"/>
<line fill="none" stroke="#000000" stroke-width="1.3" x1="9.3" y1="154.8" x2="8" y2="154.8"/>
<line fill="none" stroke="#000000" stroke-width="1.3" x1="9.3" y1="161.7" x2="8" y2="161.7"/>
<line fill="none" stroke="#000000" stroke-width="1.3" x1="9.3" y1="168.3" x2="8" y2="168.3"/>
<line fill="none" stroke="#000000" stroke-width="1.3" x1="49.8" y1="127.6" x2="49.8" y2="126.4"/>
<line fill="none" stroke="#000000" stroke-width="1.3" x1="43" y1="127.6" x2="43" y2="126.4"/>
<line fill="none" stroke="#000000" stroke-width="1.3" x1="36.2" y1="127.6" x2="36.2" y2="126.4"/>
<line fill="none" stroke="#000000" stroke-width="1.3" x1="29.5" y1="127.6" x2="29.5" y2="126.4"/>
<line fill="none" stroke="#000000" stroke-width="1.3" x1="22.7" y1="127.6" x2="22.7" y2="126.4"/>
<line fill="none" stroke="#000000" stroke-width="1.3" x1="15.8" y1="127.6" x2="15.8" y2="126.4"/>
<line fill="none" stroke="#000000" stroke-width="1.3" x1="9.2" y1="127.6" x2="9.2" y2="126.4"/>
<polyline fill="#FFFFFF" stroke="#000000" stroke-width="1.3" points="0,140.1 -0.8,140.9 -1.6,140.1 "/>
<line fill="none" stroke="#000000" stroke-width="1.3" x1="-0.8" y1="140.9" x2="-0.8" y2="131.4"/>
<polyline fill="#FFFFFF" stroke="#000000" stroke-width="1.3" points="21.6,116.1 22.4,116.9 21.6,117.7 "/>
<line fill="none" stroke="#000000" stroke-width="1.3" x1="22.6" y1="116.9" x2="13.1" y2="116.9"/>
<text transform="matrix(1 0 0 1 60.4404 148.4425)" font-family="'TheSerif-HP5Plain'" font-size="3.2844">rectMode ( CENTER ) ;</text>
<text transform="matrix(1 0 0 1 60.4404 152.3834)" font-family="'TheSerif-HP5Plain'" font-size="3.2844">rect( x , y , width , height ) ;</text>
<text transform="matrix(1 0 0 1 31.0978 139.5923)" font-family="'TheSerif-HP5Plain'" font-size="3.2844">( 3 , 2 )</text>
<line fill="none" stroke="#000000" stroke-width="2" x1="15.9" y1="134.4" x2="43.2" y2="134.4"/>
<line fill="none" stroke="#000000" stroke-width="2" x1="15.7" y1="148.1" x2="43.1" y2="148.1"/>
<line fill="none" stroke="#000000" stroke-width="2" x1="43.1" y1="148" x2="43.1" y2="134.3"/>
<line fill="none" stroke="#000000" stroke-width="2" x1="15.9" y1="148.1" x2="15.9" y2="134.5"/>
<text transform="matrix(1 0 0 1 6.9957 177.562)" fill="#808080" font-family="'TheSerif-HP5Plain'" font-size="3.2844">Example:  </text>
<text transform="matrix(1 0 0 1 22.2307 177.562)" font-family="'TheSerif-HP5Plain'" font-size="3.2844">rectMode ( CENTER ) ;</text>
<text transform="matrix(1 0 0 1 6.9957 181.5033)" font-family="'TheSerif-HP5Plain'" font-size="3.2844" letter-spacing="5">  </text>
<text transform="matrix(1 0 0 1 22.2308 181.5037)" font-family="'TheSerif-HP5Plain'" font-size="3.2844">rect ( 3 , 2 , 4 , 2 ) ;</text>
</svg>
