<?xml version="1.0" encoding="utf-8"?>
<!-- Generator: Adobe Illustrator 18.0.0, SVG Export Plug-In . SVG Version: 6.00 Build 0)  -->
<!DOCTYPE svg PUBLIC "-//W3C//DTD SVG 1.1//EN" "http://www.w3.org/Graphics/SVG/1.1/DTD/svg11.dtd">
<svg version="1.1" id="Layer_1" xmlns="http://www.w3.org/2000/svg" xmlns:xlink="http://www.w3.org/1999/xlink" x="0px" y="0px"
	 viewBox="0 0 612 792" enable-background="new 0 0 612 792" xml:space="preserve">
<g>
	<rect x="37.2" y="412.9" fill="none" stroke="#999999" stroke-width="1.3" width="290" height="290"/>
	<line fill="none" stroke="#999999" stroke-width="1.3" x1="37.2" y1="654.7" x2="327.3" y2="654.7"/>
	<line fill="none" stroke="#999999" stroke-width="1.3" x1="37.2" y1="606.2" x2="327.3" y2="606.2"/>
	<line fill="none" stroke="#999999" stroke-width="1.3" x1="37.2" y1="558" x2="327.3" y2="558"/>
	<line fill="none" stroke="#999999" stroke-width="1.3" x1="37.2" y1="509.7" x2="327.3" y2="509.7"/>
	<line fill="none" stroke="#999999" stroke-width="1.3" x1="37.2" y1="461.2" x2="327.3" y2="461.2"/>
	<line fill="none" stroke="#999999" stroke-width="1.3" x1="278.8" y1="412.9" x2="278.8" y2="703"/>
	<line fill="none" stroke="#999999" stroke-width="1.3" x1="230.6" y1="412.9" x2="230.6" y2="703"/>
	<line fill="none" stroke="#999999" stroke-width="1.3" x1="182.3" y1="412.9" x2="182.3" y2="703"/>
	<line fill="none" stroke="#999999" stroke-width="1.3" x1="133.9" y1="412.9" x2="133.9" y2="703"/>
	<line fill="none" stroke="#999999" stroke-width="1.3" x1="85.6" y1="412.9" x2="85.6" y2="703"/>
</g>
<g enable-background="new    ">
	<path d="M43,343.2l-2.6-4.4l-2.6,4.4h-3.5v-1.3c0.7-0.1,1.4-0.3,2-0.3l2.9-4.2l-2.7-4.2c-0.6,0-1.3-0.2-2-0.3v-1.3h3.6l2.5,4.3
		l2.5-4.3h3.4v1.3c-0.7,0.1-1.4,0.3-2,0.3l-2.6,4.1l2.8,4.3c0.6,0,1.3,0.2,2,0.3v1.3H43z"/>
</g>
<g enable-background="new    ">
	<path d="M-28.5,406.3l-4.1,11.3c-1.3,3.6-2.5,4.7-5.1,4.7c-0.4,0-1.1,0-1.6-0.1l0.2-1.9c0.5,0.2,1,0.3,1.5,0.3c1.3,0,2-0.6,2.8-2.9
		l0.5-1.3h-0.5l-3.6-10.1c-0.5,0-1.1-0.1-1.5-0.3v-1.3h5.3v1.3c-0.4,0.1-1,0.2-1.5,0.3l1.8,5c0.4,1.1,0.6,1.9,0.9,2.9h0
		c0.2-0.8,0.6-2.1,1.1-3.5l1.6-4.5c-0.6,0-1.1-0.1-1.5-0.3v-1.3h5.2v1.3C-27.5,406.2-28,406.3-28.5,406.3z"/>
</g>
<g enable-background="new    ">
	<path d="M41.5,383.3c-3.1,0-5.8-1.8-5.8-7.2c0-4.7,2.8-7.3,6.1-7.3c3,0,5.8,1.8,5.8,7.2C47.6,380.7,44.8,383.3,41.5,383.3z
		 M41.7,370.5c-1.9,0-3.7,1.7-3.7,5.4c0,3.9,1.5,5.6,3.7,5.6c1.9,0,3.7-1.6,3.7-5.4C45.4,372.2,43.9,370.5,41.7,370.5z"/>
</g>
<g enable-background="new    ">
	<path d="M83.9,383v-1.9h4.3v-9.9l-4,2.6l-0.7-1.8l5.2-3.2h1.8v12.2H94v1.9H83.9z"/>
</g>
<g enable-background="new    ">
	<path d="M130.2,383v-1.7l3.3-3c3-2.5,3.7-3.5,3.7-5.1c0-1.5-0.9-2.6-2.9-2.6c-1.4,0-2.6,0.6-3.4,1.2l-0.5-1.9
		c1.2-0.7,2.6-1.2,4.3-1.2c3.1,0,4.8,1.8,4.8,4.2c0,2-1,3.5-3.6,5.7l-2.8,2.4l-0.1,0c1.1-0.1,3.7-0.1,7.1-0.1v2H130.2z"/>
</g>
<g enable-background="new    ">
	<path d="M180.2,385.2c-1,0-2.1-0.1-2.9-0.4l0.4-1.9c0.8,0.3,1.8,0.5,2.8,0.5c2.5,0,4.1-1.4,4.1-3.1c0-1.8-1.4-2.9-3.9-2.9
		c-0.8,0-1.4,0-2.1,0.1v-1.8h0.5c3.3,0,5-1,5-2.9c0-1.5-1.1-2.3-2.9-2.3c-1.3,0-2.4,0.4-3.3,0.9l-0.4-1.8c1.2-0.5,2.5-0.8,4-0.8
		c3.1,0,4.7,1.5,4.7,3.7c0,1.8-1.1,3.1-2.9,3.7l0,0c1.9,0.2,3.4,1.9,3.4,3.8C186.8,383,184.1,385.2,180.2,385.2z"/>
</g>
<g enable-background="new    ">
	<path d="M232.2,381.1v3.9h-2.1v-3.9h-7.2l-0.2-1.7l6.5-10.3h3v10.2h2.7v1.9H232.2z M230.1,370.9L230.1,370.9l-5.3,8.3
		c1.4,0,4.3,0,5.3,0V370.9z"/>
</g>
<g enable-background="new    ">
	<path d="M273.7,385.2c-0.7,0-1.8-0.1-2.6-0.2l0.2-1.8c0.8,0.2,1.8,0.3,2.6,0.3c2.8,0,4.4-1.6,4.4-3.5c0-2-1.6-3.1-4.2-3.1
		c-0.9,0-1.8,0.1-2.4,0.2v-8h8.2v2l-6.3,0v4.1c0.4,0,0.8,0,1.1,0c3.9,0,5.8,2,5.8,4.5C280.6,382.8,277.8,385.2,273.7,385.2z"/>
</g>
<g enable-background="new    ">
	<path d="M322.6,383.3c-3.3,0-5.3-2.5-5.3-6.7c0-6.7,3.3-9.5,7.8-9.5c0.5,0,1,0,1.4,0.1v1.9c-0.5-0.1-1-0.1-1.6-0.1
		c-3,0-4.7,1.8-5.3,5c-0.1,0.3-0.1,0.7-0.2,1.2h0c0.8-1.3,2.2-2,3.7-2c3.1,0,4.8,2,4.8,4.6C327.9,381,325.8,383.3,322.6,383.3z
		 M322.7,374.8c-1.9,0-3.1,1.7-3.1,3c0,1.9,1.1,3.6,3.2,3.6c1.9,0,3-1.4,3-3.5C325.8,376.1,324.7,374.8,322.7,374.8z"/>
</g>
<circle cx="230.6" cy="653.5" r="7.5"/>
<g enable-background="new    ">
	<path d="M5.1,423.6c-3.1,0-5.8-1.8-5.8-7.2c0-4.7,2.8-7.3,6.1-7.3c3,0,5.8,1.8,5.8,7.2C11.2,421,8.4,423.6,5.1,423.6z M5.2,410.8
		c-1.9,0-3.7,1.7-3.7,5.4c0,3.9,1.5,5.6,3.7,5.6c1.9,0,3.7-1.6,3.7-5.4C9,412.5,7.5,410.8,5.2,410.8z"/>
</g>
<g enable-background="new    ">
	<path d="M0.7,470.2v-1.9H5v-9.9l-4,2.6l-0.7-1.8l5.2-3.2h1.8v12.2h3.7v1.9H0.7z"/>
</g>
<g enable-background="new    ">
	<path d="M0.2,517v-1.7l3.3-3c3-2.5,3.7-3.5,3.7-5.1c0-1.5-0.9-2.6-2.9-2.6c-1.4,0-2.6,0.6-3.4,1.2l-0.5-1.9
		c1.2-0.7,2.6-1.2,4.3-1.2c3.1,0,4.8,1.8,4.8,4.2c0,2-1,3.5-3.6,5.7l-2.8,2.4l-0.1,0c1.1-0.1,3.7-0.1,7.1-0.1v2H0.2z"/>
</g>
<g enable-background="new    ">
	<path d="M3.3,566c-1,0-2.1-0.1-2.9-0.4l0.4-1.9c0.8,0.3,1.8,0.5,2.8,0.5c2.5,0,4.1-1.4,4.1-3.1c0-1.8-1.4-2.9-3.9-2.9
		c-0.8,0-1.4,0-2.1,0.1v-1.8h0.5c3.3,0,5-1,5-2.9c0-1.5-1.1-2.3-2.9-2.3c-1.3,0-2.4,0.4-3.3,0.9l-0.4-1.8c1.2-0.5,2.5-0.8,4-0.8
		c3.1,0,4.7,1.5,4.7,3.7c0,1.8-1.1,3.1-2.9,3.7l0,0c1.9,0.2,3.4,1.9,3.4,3.8C10,563.8,7.2,566,3.3,566z"/>
</g>
<g enable-background="new    ">
	<path d="M8.5,608.6v3.9H6.4v-3.9h-7.2l-0.2-1.7l6.5-10.3h3v10.2h2.7v1.9H8.5z M6.5,598.5L6.5,598.5l-5.3,8.3c1.4,0,4.3,0,5.3,0
		V598.5z"/>
</g>
<g enable-background="new    ">
	<path d="M3.2,659.6c-0.7,0-1.8-0.1-2.6-0.2l0.2-1.8c0.8,0.2,1.8,0.3,2.6,0.3c2.8,0,4.4-1.6,4.4-3.5c0-2-1.6-3.1-4.2-3.1
		c-0.9,0-1.8,0.1-2.4,0.2v-8h8.2v2l-6.3,0v4.1c0.4,0,0.8,0,1.1,0c3.9,0,5.8,2,5.8,4.5C10.1,657.2,7.3,659.6,3.2,659.6z"/>
</g>
<g enable-background="new    ">
	<path d="M5.3,704.5C2,704.5,0,702,0,697.8c0-6.7,3.3-9.5,7.8-9.5c0.5,0,1,0,1.4,0.1v1.9c-0.5-0.1-1-0.1-1.6-0.1c-3,0-4.7,1.8-5.3,5
		c-0.1,0.3-0.1,0.7-0.2,1.2h0c0.8-1.3,2.2-2,3.7-2c3.1,0,4.8,2,4.8,4.6C10.6,702.3,8.4,704.5,5.3,704.5z M5.4,696.1
		c-1.9,0-3.1,1.7-3.1,3c0,1.9,1.1,3.6,3.2,3.6c1.9,0,3-1.4,3-3.5C8.4,697.4,7.4,696.1,5.4,696.1z"/>
</g>
<line fill="none" stroke="#000000" stroke-width="1.3" x1="38.4" y1="412.9" x2="29.2" y2="412.9"/>
<line fill="none" stroke="#000000" stroke-width="1.3" x1="38.4" y1="461.4" x2="29.2" y2="461.4"/>
<line fill="none" stroke="#000000" stroke-width="1.3" x1="38.4" y1="509.6" x2="29.2" y2="509.6"/>
<line fill="none" stroke="#000000" stroke-width="1.3" x1="38.4" y1="557.8" x2="29.2" y2="557.8"/>
<line fill="none" stroke="#000000" stroke-width="1.3" x1="38.4" y1="606.3" x2="29.2" y2="606.3"/>
<line fill="none" stroke="#000000" stroke-width="1.3" x1="38.4" y1="655.3" x2="29.2" y2="655.3"/>
<line fill="none" stroke="#000000" stroke-width="1.3" x1="38.4" y1="702.6" x2="29.2" y2="702.6"/>
<line fill="none" stroke="#000000" stroke-width="1.3" x1="326.9" y1="412.8" x2="326.9" y2="403.6"/>
<line fill="none" stroke="#000000" stroke-width="1.3" x1="278.2" y1="412.8" x2="278.2" y2="403.6"/>
<line fill="none" stroke="#000000" stroke-width="1.3" x1="230.2" y1="412.8" x2="230.2" y2="403.6"/>
<line fill="none" stroke="#000000" stroke-width="1.3" x1="181.8" y1="412.8" x2="181.8" y2="403.6"/>
<line fill="none" stroke="#000000" stroke-width="1.3" x1="133.5" y1="412.8" x2="133.5" y2="403.6"/>
<line fill="none" stroke="#000000" stroke-width="1.3" x1="84.5" y1="412.8" x2="84.5" y2="403.6"/>
<line fill="none" stroke="#000000" stroke-width="1.3" x1="37.7" y1="412.8" x2="37.7" y2="403.6"/>
<polyline fill="#FFFFFF" stroke="#000000" stroke-width="1.3" points="-28.1,501.5 -33.8,507.2 -39.5,501.5 "/>
<line fill="none" stroke="#000000" stroke-width="1.3" x1="-33.8" y1="507.2" x2="-33.8" y2="439.4"/>
<polyline fill="#FFFFFF" stroke="#000000" stroke-width="1.3" points="126,330.4 131.7,336.1 126,341.8 "/>
<line fill="none" stroke="#000000" stroke-width="1.3" x1="133" y1="336.1" x2="65.1" y2="336.1"/>
<g enable-background="new    ">
	<path d="M409.2,563.8c-0.7,0-1.3,0-2-0.1v4.2c0.7,0,1.4,0.2,2,0.3v1.3h-6.1v-1.3c0.6-0.1,1.2-0.3,1.9-0.3v-14.2
		c-0.6-0.1-1.3-0.2-1.9-0.2v-1.3c1.1-0.1,2.7-0.2,4-0.2c0,0.7-0.1,1.7-0.2,2.4l0,0c0.7-1.6,2.1-2.6,3.9-2.6c2.7,0,4.3,1.9,4.3,5.5
		C415.2,561.4,413,563.8,409.2,563.8z M410.4,553.5c-2.1,0-3.2,2.5-3.2,4.5v3.8c0.6,0.2,1.3,0.3,2.1,0.3c2.2,0,3.7-1.3,3.7-4.7
		C413,555,412.2,553.5,410.4,553.5z"/>
	<path d="M422.4,563.9c-3.2,0-5.2-1.8-5.2-5.9c0-3.5,2.2-6.2,5.7-6.2c2.9,0,5.2,1.6,5.2,5.9C428,561.1,425.9,563.9,422.4,563.9z
		 M422.6,553.6c-1.7,0-3.3,1.3-3.3,4.3c0,2.7,1.1,4.2,3.3,4.2c1.7,0,3.3-1.4,3.3-4.3C425.9,555.1,424.7,553.6,422.6,553.6z"/>
	<path d="M429.7,563.6v-1.3c0.6-0.1,1.3-0.3,2-0.3v-8.4c-0.6-0.1-1.4-0.2-2-0.2v-1.3c1.2-0.1,2.8-0.2,4.1-0.2v10.1
		c0.7,0,1.4,0.2,2,0.3v1.3H429.7z M432.8,549.7c-0.8,0-1.4-0.6-1.4-1.4s0.6-1.4,1.4-1.4c0.7,0,1.4,0.6,1.4,1.4
		C434.2,549.1,433.6,549.7,432.8,549.7z"/>
	<path d="M446.3,563.6v-7.5c0-1.6-0.4-2.6-2-2.6c-1.9,0-3.3,2-3.3,4.5v4c0.6,0,1.3,0.1,1.9,0.3v1.3h-6v-1.3c0.6-0.1,1.3-0.3,2-0.3
		v-8.4c-0.6-0.1-1.4-0.2-2-0.2v-1.3c1.2-0.1,2.8-0.2,4.1-0.2c0,0.7,0,1.8-0.2,2.5h0c0.7-1.6,2.1-2.7,4.1-2.7c2.6,0,3.5,1.7,3.5,3.7
		v6.6c0.7,0,1.4,0.2,1.9,0.3v1.3H446.3z"/>
	<path d="M456.1,563.8c-2.4,0-3.1-1-3.1-3.5v-6.7h-2.4V552h2.4v-3.8l2.1-0.6v4.4h3.3v1.6h-3.3v5.9c0,1.9,0.4,2.4,1.7,2.4
		c0.5,0,1.1-0.1,1.5-0.2l0.2,1.7C457.8,563.7,456.9,563.8,456.1,563.8z"/>
	<path d="M473.9,568.9c-3.9-3.6-5.8-7.3-5.8-11.8c0-4.8,2.3-8.7,5.8-11.9l1.2,1.2c-3.2,3.1-4.9,6.7-4.9,10.5c0,3.9,1.6,7.5,4.9,10.7
		L473.9,568.9z"/>
	<path d="M488.8,563.6l-3.5-4.5l-3.4,4.5h-2.6l4.8-5.9l-4.5-5.8h2.6l3.4,4.4l3.4-4.4h2.4l-4.5,5.8l4.7,5.9H488.8z"/>
	<path d="M495.6,566.7c2.4-0.7,3.1-1.8,3.1-2.6c0-1.5-1.2-1.5-1.2-2.8c0-1,0.7-1.7,1.7-1.7c1.5,0,2.2,1.4,2.2,2.9
		c0,2.9-2,4.6-5.4,5.4L495.6,566.7z"/>
	<path d="M514.5,563.6c-1.8,4.3-3.2,5.6-6,6l-0.4-1.9c2.2-0.3,3-0.9,4.4-4.1l-4.7-11.6h2.4l2.5,6.5c0.3,0.8,0.7,1.9,0.9,2.7h0
		c0.2-0.8,0.7-2,1.2-3.3l2.2-5.8h2.3L514.5,563.6z"/>
	<path d="M525.1,545.2c3.9,3.6,5.8,7.3,5.8,11.8c0,4.8-2.3,8.7-5.8,11.9l-1.2-1.2c3.2-3.1,4.9-6.8,4.9-10.5c0-3.9-1.6-7.5-4.9-10.7
		L525.1,545.2z"/>
	<path d="M537.1,567.3l-0.9-0.8c1.5-1.6,1.5-2.7,1-3.4c-0.7-0.8-0.1-2.1,1-2.1C540,561,540.8,564,537.1,567.3z M538.3,557
		c-0.8,0-1.5-0.6-1.5-1.5c0-0.8,0.7-1.5,1.5-1.5s1.5,0.7,1.5,1.5C539.7,556.4,539.1,557,538.3,557z"/>
</g>
<text transform="matrix(1 0 0 1 87.9765 767.8242)" fill="#808080" font-family="'TheSerif-HP5Plain'" font-size="23.409">Example:  </text>
<g enable-background="new    ">
	<path d="M206.9,767.8v-1.3c0.6-0.1,1.2-0.2,1.8-0.3l-0.9-2.6h-6.6l-0.9,2.6c0.6,0,1.3,0.2,1.8,0.3v1.3h-5.5v-1.3
		c0.4-0.1,1-0.2,1.4-0.3l5.2-14.3h2.6l5.2,14.3c0.4,0,1,0.1,1.4,0.3v1.3H206.9z M205.3,756.4c-0.3-0.8-0.5-1.5-0.7-2.3h0
		c-0.2,0.7-0.4,1.5-0.7,2.3l-2,5.6h5.5L205.3,756.4z"/>
	<path d="M227.4,773.1c-3.9-3.6-5.8-7.3-5.8-11.8c0-4.8,2.3-8.7,5.8-11.9l1.2,1.2c-3.2,3.1-4.9,6.7-4.9,10.5c0,3.9,1.6,7.5,4.9,10.7
		L227.4,773.1z"/>
	<path d="M242.2,765.8v3.9h-2.1v-3.9h-7.2l-0.2-1.7l6.5-10.3h3v10.2h2.7v1.9H242.2z M240.1,755.7L240.1,755.7l-5.3,8.3
		c1.4,0,4.3,0,5.3,0V755.7z"/>
	<path d="M249.1,770.9c2.4-0.7,3.1-1.8,3.1-2.6c0-1.5-1.2-1.5-1.2-2.8c0-1,0.7-1.7,1.7-1.7c1.5,0,2.2,1.4,2.2,2.9
		c0,2.9-2,4.6-5.4,5.4L249.1,770.9z"/>
	<path d="M264.9,770c-0.7,0-1.8-0.1-2.6-0.2l0.2-1.8c0.8,0.2,1.8,0.3,2.6,0.3c2.8,0,4.4-1.6,4.4-3.5c0-2-1.6-3.1-4.2-3.1
		c-0.9,0-1.8,0.1-2.4,0.2v-8h8.2v2l-6.3,0v4.1c0.4,0,0.8,0,1.1,0c3.9,0,5.8,2,5.8,4.5C271.8,767.5,269,770,264.9,770z"/>
	<path d="M278.6,749.4c3.9,3.6,5.8,7.3,5.8,11.8c0,4.8-2.3,8.7-5.8,11.9l-1.2-1.2c3.2-3.1,4.9-6.8,4.9-10.5c0-3.9-1.6-7.5-4.9-10.7
		L278.6,749.4z"/>
	<path d="M295.7,771.4l-0.9-0.8c1.5-1.6,1.5-2.7,1-3.4c-0.7-0.8-0.1-2.1,1-2.1C298.6,765.2,299.4,768.1,295.7,771.4z M296.9,761.2
		c-0.8,0-1.5-0.6-1.5-1.5c0-0.8,0.7-1.5,1.5-1.5s1.5,0.7,1.5,1.5C298.3,760.5,297.7,761.2,296.9,761.2z"/>
</g>
<g enable-background="new    ">
	<path d="M263.5,659.9v-1.3c0.6-0.1,1.2-0.2,1.8-0.3l-0.9-2.6h-6.6l-0.9,2.6c0.6,0,1.3,0.2,1.8,0.3v1.3h-5.5v-1.3
		c0.4-0.1,1-0.2,1.4-0.3l5.2-14.3h2.6l5.2,14.3c0.4,0,1,0.1,1.4,0.3v1.3H263.5z M261.9,648.4c-0.3-0.8-0.5-1.5-0.7-2.3h0
		c-0.2,0.7-0.4,1.5-0.7,2.3l-2,5.6h5.5L261.9,648.4z"/>
	<path d="M284,665.1c-3.9-3.6-5.8-7.3-5.8-11.8c0-4.8,2.3-8.7,5.8-11.9l1.2,1.2c-3.2,3.1-4.9,6.7-4.9,10.5c0,3.9,1.6,7.5,4.9,10.7
		L284,665.1z"/>
	<path d="M298.7,657.9v3.9h-2.1v-3.9h-7.2l-0.2-1.7l6.5-10.3h3V656h2.7v1.9H298.7z M296.7,647.8L296.7,647.8l-5.3,8.3
		c1.4,0,4.3,0,5.3,0V647.8z"/>
	<path d="M305.7,663c2.4-0.7,3.1-1.8,3.1-2.6c0-1.5-1.2-1.5-1.2-2.8c0-1,0.7-1.7,1.7-1.7c1.5,0,2.2,1.4,2.2,2.9c0,2.9-2,4.6-5.4,5.4
		L305.7,663z"/>
	<path d="M321.5,662.1c-0.7,0-1.8-0.1-2.6-0.2l0.2-1.8c0.8,0.2,1.8,0.3,2.6,0.3c2.8,0,4.4-1.6,4.4-3.5c0-2-1.6-3.1-4.2-3.1
		c-0.9,0-1.8,0.1-2.4,0.2v-8h8.2v2l-6.3,0v4.1c0.4,0,0.8,0,1.1,0c3.9,0,5.8,2,5.8,4.5C328.4,659.6,325.6,662.1,321.5,662.1z"/>
	<path d="M335.2,641.4c3.9,3.6,5.8,7.3,5.8,11.8c0,4.8-2.3,8.7-5.8,11.9l-1.2-1.2c3.2-3.1,4.9-6.8,4.9-10.5c0-3.9-1.6-7.5-4.9-10.7
		L335.2,641.4z"/>
</g>
</svg>
