<?xml version="1.0" encoding="utf-8"?>
<!-- Generator: Adobe Illustrator 18.0.0, SVG Export Plug-In . SVG Version: 6.00 Build 0)  -->
<!DOCTYPE svg PUBLIC "-//W3C//DTD SVG 1.1//EN" "http://www.w3.org/Graphics/SVG/1.1/DTD/svg11.dtd">
<svg version="1.1" id="Layer_1" xmlns="http://www.w3.org/2000/svg" xmlns:xlink="http://www.w3.org/1999/xlink" x="0px" y="0px"
	 viewBox="0 0 612 792" enable-background="new 0 0 612 792" xml:space="preserve">
<g>
	<rect x="-29.6" y="145.1" fill="none" stroke="#999999" stroke-width="1.3" width="444.1" height="444.1"/>
	<line fill="none" stroke="#999999" stroke-width="1.3" x1="-29.6" y1="515.3" x2="414.3" y2="515.3"/>
	<line fill="none" stroke="#999999" stroke-width="1.3" x1="-29.6" y1="441" x2="414.3" y2="441"/>
	<line fill="none" stroke="#999999" stroke-width="1.3" x1="-29.6" y1="367.2" x2="414.3" y2="367.2"/>
	<line fill="none" stroke="#999999" stroke-width="1.3" x1="-29.6" y1="293.3" x2="414.3" y2="293.3"/>
	<line fill="none" stroke="#999999" stroke-width="1.3" x1="-29.6" y1="219" x2="414.3" y2="219"/>
	<line fill="none" stroke="#999999" stroke-width="1.3" x1="340.4" y1="145.1" x2="340.4" y2="589.2"/>
	<line fill="none" stroke="#999999" stroke-width="1.3" x1="266.5" y1="145.1" x2="266.5" y2="589.2"/>
	<line fill="none" stroke="#999999" stroke-width="1.3" x1="192.4" y1="145.1" x2="192.4" y2="589.2"/>
	<line fill="none" stroke="#999999" stroke-width="1.3" x1="118.4" y1="145.1" x2="118.4" y2="589.2"/>
	<line fill="none" stroke="#999999" stroke-width="1.3" x1="44.3" y1="145.1" x2="44.3" y2="589.2"/>
</g>
<g enable-background="new    ">
	<path d="M-20.8,38.3l-4-6.7l-3.9,6.7h-5.4v-2.1c1.1-0.2,2.1-0.4,3-0.6l4.3-6.5l-4.1-6.3c-0.9,0-2.1-0.4-3-0.6v-2.1h5.4l3.7,6.5
		l3.9-6.5h5.2v2.1c-1.1,0.2-2.1,0.4-3,0.6l-3.9,6.3l4.3,6.5c0.9,0,2.1,0.4,3,0.6v2.1H-20.8z"/>
</g>
<g enable-background="new    ">
	<path d="M-130.4,135l-6.3,17.4c-1.9,5.4-3.7,7.3-7.7,7.3c-0.7,0-1.7,0-2.4-0.2l0.2-3c0.7,0.2,1.5,0.4,2.4,0.4c1.9,0,3-0.9,4.3-4.5
		l0.7-2.1h-0.7l-5.4-15.5c-0.7,0-1.7-0.2-2.2-0.4v-1.8h8.2v1.9c-0.7,0.2-1.5,0.4-2.2,0.4l2.6,7.7c0.6,1.7,0.9,3,1.3,4.5l0,0
		c0.4-1.3,0.9-3.2,1.7-5.2l2.4-6.9c-0.9,0-1.7-0.2-2.2-0.4v-2h8v1.9C-128.7,134.8-129.5,135-130.4,135z"/>
</g>
<g enable-background="new    ">
	<path d="M-23.1,99.7c-4.9,0-8.8-2.8-8.8-11c0-7.1,4.3-11.2,9.3-11.2c4.7,0,8.8,2.6,8.8,11C-13.7,95.8-18,99.7-23.1,99.7z
		 M-22.9,80.1c-3,0-5.6,2.6-5.6,8.2c0,6,2.2,8.6,5.8,8.6c3,0,5.6-2.4,5.6-8.2C-17.1,82.7-19.5,80.1-22.9,80.1z"/>
</g>
<g enable-background="new    ">
	<path d="M41.9,99.3v-3h6.5V81.2l-6.2,4.1l-1.1-2.8l7.8-4.9h2.8v18.7h5.6v3H41.9z"/>
</g>
<g enable-background="new    ">
	<path d="M112.6,99.3v-2.6l5-4.7c4.5-3.9,5.6-5.4,5.6-7.8s-1.3-3.9-4.5-3.9c-2.1,0-4.1,0.9-5.2,1.9l-0.7-2.8
		c1.9-1.1,3.9-1.9,6.5-1.9c4.9,0,7.3,2.8,7.3,6.3c0,3-1.5,5.4-5.6,8.8l-4.3,3.7h-0.2c1.7-0.2,5.6-0.2,11-0.2v3.2H112.6z"/>
</g>
<g enable-background="new    ">
	<path d="M189.2,102.7c-1.5,0-3.2-0.2-4.5-0.6l0.6-3c1.3,0.4,2.8,0.7,4.3,0.7c3.7,0,6.3-2.2,6.3-4.9c0-2.6-2.1-4.5-6-4.5
		c-1.3,0-2.2,0-3.2,0.2V88h0.7c5,0,7.7-1.5,7.7-4.5c0-2.2-1.7-3.5-4.3-3.5c-2.1,0-3.5,0.6-5,1.3l-0.6-2.8c1.9-0.7,3.9-1.3,6.2-1.3
		c4.9,0,7.3,2.4,7.3,5.8c0,2.8-1.7,4.9-4.3,5.6l0,0c3,0.4,5.2,2.8,5.2,5.8C199.4,99.3,195.2,102.7,189.2,102.7z"/>
</g>
<g enable-background="new    ">
	<path d="M268.9,96.3v6h-3.2v-6h-11l-0.2-2.6l9.9-15.9h4.5v15.5h4.1v3H268.9z M265.7,80.7L265.7,80.7l-8,12.7c2.1,0,6.7,0,8,0V80.7z
		"/>
</g>
<g enable-background="new    ">
	<path d="M332.4,102.7c-1.1,0-2.6-0.2-3.9-0.4l0.2-2.8c1.1,0.4,2.8,0.4,4.1,0.4c4.3,0,6.7-2.4,6.7-5.4s-2.4-4.7-6.5-4.7
		c-1.5,0-2.8,0.2-3.7,0.2V77.7H342v3.2h-9.5v6.3c0.6,0,1.3,0,1.7,0c6,0,9,3,9,6.9C342.8,99,338.7,102.7,332.4,102.7z"/>
</g>
<g enable-background="new    ">
	<path d="M407.2,99.7c-5,0-8-3.7-8-10.3c0-10.3,5-14.6,11.9-14.6c0.7,0,1.5,0,2.1,0.2v2.8c-0.7-0.2-1.5-0.2-2.4-0.2
		c-4.7,0-7.3,2.8-8.2,7.7c-0.2,0.4-0.2,1.1-0.4,1.9l0,0c1.1-2.1,3.4-3.2,5.6-3.2c4.9,0,7.5,3.2,7.5,7.1
		C415.4,96.2,412.1,99.7,407.2,99.7z M407.4,86.8c-3,0-4.7,2.6-4.7,4.7c0,3,1.7,5.6,4.9,5.6c2.8,0,4.7-2.2,4.7-5.2
		C412.1,88.7,410.4,86.8,407.4,86.8z"/>
</g>
<circle fill="#808080" cx="44.3" cy="293.3" r="11.6"/>
<g enable-background="new    ">
	<path d="M-78.9,161.3c-4.9,0-8.8-2.8-8.8-11c0-7.1,4.3-11.2,9.3-11.2c4.7,0,8.8,2.6,8.8,11C-69.6,157.4-73.9,161.3-78.9,161.3z
		 M-78.7,141.9c-3,0-5.6,2.6-5.6,8.2c0,6,2.2,8.6,5.8,8.6c3,0,5.6-2.4,5.6-8.2C-72.9,144.5-75.2,141.9-78.7,141.9z"/>
</g>
<g enable-background="new    ">
	<path d="M-85.6,232.8v-3h6.5v-15.1l-6.2,4.1l-1.1-2.8l7.8-4.9h2.8v18.7h5.6v3H-85.6z"/>
</g>
<g enable-background="new    ">
	<path d="M-86.4,304.5v-2.6l5-4.7c4.5-3.9,5.6-5.4,5.6-7.8s-1.3-3.9-4.5-3.9c-2.1,0-4.1,0.9-5.2,1.9l-0.7-2.8
		c1.9-1.1,3.9-1.9,6.5-1.9c4.9,0,7.3,2.8,7.3,6.3c0,3-1.5,5.4-5.6,8.8l-4.3,3.7h-0.2c1.7-0.2,5.6-0.2,11-0.2v3.2H-86.4z"/>
</g>
<g enable-background="new    ">
	<path d="M-81.5,379.4c-1.5,0-3.2-0.2-4.5-0.6l0.6-3c1.3,0.4,2.8,0.7,4.3,0.7c3.7,0,6.3-2.2,6.3-4.9c0-2.6-2.1-4.5-6-4.5
		c-1.3,0-2.2,0-3.2,0.2v-2.6h0.7c5,0,7.7-1.5,7.7-4.5c0-2.2-1.7-3.5-4.3-3.5c-2.1,0-3.5,0.6-5,1.3l-0.6-2.8c1.9-0.7,3.9-1.3,6.2-1.3
		c4.9,0,7.3,2.4,7.3,5.8c0,2.8-1.7,4.9-4.3,5.6l0,0c3,0.4,5.2,2.8,5.2,5.8C-71.4,376-75.5,379.4-81.5,379.4z"/>
</g>
<g enable-background="new    ">
	<path d="M-73.7,444.7v6h-3.2v-6h-11l-0.2-2.6l9.9-15.9h4.5v15.5h4.1v3H-73.7L-73.7,444.7z M-76.8,429.2L-76.8,429.2l-8,12.7
		c2.1,0,6.7,0,8,0V429.2z"/>
</g>
<g enable-background="new    ">
	<path d="M-81.7,522.7c-1.1,0-2.6-0.2-3.9-0.4l0.2-2.8c1.1,0.4,2.8,0.4,4.1,0.4c4.3,0,6.7-2.4,6.7-5.4s-2.4-4.7-6.5-4.7
		c-1.5,0-2.8,0.2-3.7,0.2v-12.3h12.5v3.2h-9.5v6.3c0.6,0,1.3,0,1.7,0c6,0,9,3,9,6.9C-71.2,519-75.5,522.7-81.7,522.7z"/>
</g>
<g enable-background="new    ">
	<path d="M-78.5,591.4c-5,0-8-3.7-8-10.3c0-10.3,5-14.6,11.9-14.6c0.7,0,1.5,0,2.1,0.2v2.8c-0.7-0.2-1.5-0.2-2.4-0.2
		c-4.7,0-7.3,2.8-8.2,7.7c-0.2,0.4-0.2,1.1-0.4,1.9l0,0c1.1-2.1,3.4-3.2,5.6-3.2c4.9,0,7.5,3.2,7.5,7.1
		C-70.5,588.1-73.7,591.4-78.5,591.4z M-78.5,578.5c-3,0-4.7,2.6-4.7,4.7c0,3,1.7,5.6,4.9,5.6c2.8,0,4.7-2.2,4.7-5.2
		S-75.4,578.5-78.5,578.5z"/>
</g>
<line fill="none" stroke="#000000" stroke-width="1.3" x1="-27.7" y1="145.1" x2="-41.9" y2="145.1"/>
<line fill="none" stroke="#000000" stroke-width="1.3" x1="-27.7" y1="219.4" x2="-41.9" y2="219.4"/>
<line fill="none" stroke="#000000" stroke-width="1.3" x1="-27.7" y1="293.1" x2="-41.9" y2="293.1"/>
<line fill="none" stroke="#000000" stroke-width="1.3" x1="-27.7" y1="366.8" x2="-41.9" y2="366.8"/>
<line fill="none" stroke="#000000" stroke-width="1.3" x1="-27.7" y1="441.1" x2="-41.9" y2="441.1"/>
<line fill="none" stroke="#000000" stroke-width="1.3" x1="-27.7" y1="516" x2="-41.9" y2="516"/>
<line fill="none" stroke="#000000" stroke-width="1.3" x1="-27.7" y1="588.6" x2="-41.9" y2="588.6"/>
<line fill="none" stroke="#000000" stroke-width="1.3" x1="413.8" y1="144.9" x2="413.8" y2="130.7"/>
<line fill="none" stroke="#000000" stroke-width="1.3" x1="339.5" y1="144.9" x2="339.5" y2="130.7"/>
<line fill="none" stroke="#000000" stroke-width="1.3" x1="265.7" y1="144.9" x2="265.7" y2="130.7"/>
<line fill="none" stroke="#000000" stroke-width="1.3" x1="191.8" y1="144.9" x2="191.8" y2="130.7"/>
<line fill="none" stroke="#000000" stroke-width="1.3" x1="117.7" y1="144.9" x2="117.7" y2="130.7"/>
<line fill="none" stroke="#000000" stroke-width="1.3" x1="42.6" y1="144.9" x2="42.6" y2="130.7"/>
<line fill="none" stroke="#000000" stroke-width="1.3" x1="-29.1" y1="144.9" x2="-29.1" y2="130.7"/>
<polyline fill="#FFFFFF" stroke="#000000" stroke-width="1.3" points="-129.5,280.8 -138.3,289.4 -147,280.8 "/>
<line fill="none" stroke="#000000" stroke-width="1.3" x1="-138.3" y1="289.4" x2="-138.3" y2="185.4"/>
<polyline fill="#FFFFFF" stroke="#000000" stroke-width="1.3" points="385.8,491.4 377,500.1 368.2,491.4 "/>
<line fill="none" stroke="#000000" stroke-width="1.3" x1="377" y1="500.1" x2="377" y2="449"/>
<polyline fill="#FFFFFF" stroke="#000000" stroke-width="1.3" points="368.2,316.4 377,307.7 385.8,316.4 "/>
<line fill="none" stroke="#000000" stroke-width="1.3" x1="377" y1="307.7" x2="377" y2="358.8"/>
<polyline fill="#FFFFFF" stroke="#000000" stroke-width="1.3" points="106.1,18.7 114.9,27.5 106.1,36.2 "/>
<line fill="none" stroke="#000000" stroke-width="1.3" x1="116.9" y1="27.5" x2="12.9" y2="27.5"/>
<polyline fill="#FFFFFF" stroke="#000000" stroke-width="1.3" points="311.3,540.7 320,549.4 311.3,558 "/>
<line fill="none" stroke="#000000" stroke-width="1.3" x1="322.1" y1="549.4" x2="251.2" y2="549.4"/>
<polyline fill="#FFFFFF" stroke="#000000" stroke-width="1.3" points="70.8,558 62,549.4 70.8,540.7 "/>
<line fill="none" stroke="#000000" stroke-width="1.3" x1="60" y1="549.4" x2="130.9" y2="549.4"/>
<g enable-background="new    ">
	<path d="M543.1,357c-4.1-0.7-6,2.1-6,7.8v4.9c1.1,0,2.2,0.2,3.2,0.4v1.9h-9.5v-1.9c0.9-0.2,2.1-0.4,3.2-0.4v-12.9
		c-0.9-0.2-2.1-0.4-3.2-0.4v-1.9c1.9-0.2,4.3-0.4,6.2-0.2c0,1.1-0.2,2.8-0.4,4.3l0,0c0.7-2.4,2.6-4.9,6.5-4.5V357z"/>
	<path d="M560.5,362.9h-11.6c-0.2,4.7,1.7,6.7,5.6,6.7c1.7,0,3.5-0.4,5-1.1l0.4,2.6c-1.9,0.7-3.9,1.1-6.2,1.1
		c-5.4,0-8.4-2.8-8.4-9.1c0-5.2,3-9.3,8-9.3s7.1,3.4,7.1,7.3C560.5,361.4,560.5,362.2,560.5,362.9z M553.2,356.2
		c-2.2,0-3.9,1.7-4.3,4.5h8.4C557.3,357.9,555.8,356.2,553.2,356.2z"/>
	<path d="M571.7,372.1c-4.5,0-8-2.1-8-8.6c0-5.8,3-9.7,8.8-9.7c1.5,0,3.2,0.2,4.3,0.6v5.2h-2.1c-0.2-1.1-0.4-2.1-0.4-3
		c-0.6-0.2-1.5-0.4-2.4-0.4c-3.2,0-5,2.6-5,6.5c0,3.5,1.1,6.3,5.4,6.3c1.5,0,3-0.4,4.3-0.9l0.6,2.6
		C575.8,371.7,573.9,372.1,571.7,372.1z"/>
	<path d="M586.6,372.1c-3.7,0-4.9-1.5-4.9-5.4v-10.3H578V354h3.7v-5.8l3.2-0.9v6.7h5v2.4h-5v9.1c0,3,0.6,3.7,2.6,3.7
		c0.7,0,1.7-0.2,2.2-0.4l0.4,2.6C589.2,372.1,587.7,372.1,586.6,372.1z"/>
	<path d="M599.1,379.4c-4.3-6.7-5.2-12.3-5.2-17.7c0-5.2,1.3-11.4,5.2-17.7l2.2,1.1c-3,5-4.5,10.6-4.5,16.4c0,6.2,1.5,11.6,4.5,16.6
		L599.1,379.4z"/>
	<path d="M623.6,371.9l-3.9-6.7l-3.9,6.7h-5.4v-2.1c1.1-0.2,2.1-0.4,3-0.6l4.3-6.5l-4.1-6.3c-0.9,0-2.1-0.4-3-0.6v-2.1h5.4l3.7,6.5
		l3.9-6.5h5.2v2.1c-1.1,0.2-2.1,0.4-3,0.6l-3.9,6.3l4.3,6.5c0.9,0,2.1,0.4,3,0.6v2.1H623.6z"/>
	<path d="M639.6,377.3l-1.3-1.3c2.2-2.4,2.4-4.1,1.5-5.2c-0.9-1.3-0.2-3.2,1.5-3.2C644.1,367.8,645.2,372.3,639.6,377.3z"/>
	<path d="M669.5,356.4l-6.3,17.4c-1.9,5.4-3.7,7.3-7.7,7.3c-0.7,0-1.7,0-2.4-0.2l0.2-3c0.7,0.2,1.5,0.4,2.4,0.4c1.9,0,3-0.9,4.3-4.5
		l0.7-2.1H660l-5.4-15.5c-0.7,0-1.7-0.2-2.2-0.4v-1.9h8.2v1.9c-0.7,0.2-1.5,0.4-2.2,0.4l2.6,7.7c0.6,1.7,0.9,3,1.3,4.5l0,0
		c0.4-1.3,0.9-3.2,1.7-5.2l2.4-6.9c-0.9,0-1.7-0.2-2.2-0.4V354h8v1.9C671,356.2,670.3,356.4,669.5,356.4z"/>
	<path d="M682,377.3l-1.3-1.3c2.2-2.4,2.4-4.1,1.5-5.2c-0.9-1.3-0.2-3.2,1.5-3.2C686.5,367.8,687.6,372.3,682,377.3z"/>
	<path d="M722.3,356.4l-4.9,15.5h-3.7l-3.5-10.5c-0.4-1.1-0.7-2.2-0.9-3.5l0,0c-0.4,1.5-0.7,3-1.3,4.5l-3,9.5h-3.7l-4.7-15.5
		c-0.7,0-1.5-0.2-2.2-0.4v-1.9h8.2v1.9c-0.7,0.2-1.5,0.4-2.4,0.4l2.2,8c0.4,1.5,0.7,3,1.1,4.1l0,0c0.4-1.5,0.7-3,1.3-4.3l3.2-10.1
		h3.4l3.2,10.1c0.6,2.1,0.9,3.2,1.3,4.3l0,0c0.4-1.3,0.6-2.2,1.1-3.9l2.2-8c-0.7,0-1.7-0.2-2.4-0.4v-1.9h8v1.9
		C724,356.2,723.3,356.4,722.3,356.4z"/>
	<path d="M725.9,371.9V370c0.9-0.2,2.1-0.4,3.2-0.4v-12.9c-0.9-0.2-2.1-0.4-3.2-0.4v-1.9c1.9-0.2,4.3-0.4,6.3-0.2v15.5
		c1.1,0,2.1,0.2,3,0.4v1.9h-9.3V371.9z M730.7,350.4c-1.1,0-2.2-0.9-2.2-2.1c0-1.1,0.9-2.1,2.2-2.1c1.1,0,2.1,0.9,2.1,2.1
		S731.9,350.4,730.7,350.4z"/>
	<path d="M749.8,371.9c0-0.9,0-2.6,0.4-3.5l0,0c-0.9,2.4-3.2,3.9-6,3.9c-4.3,0-6.5-3.2-6.5-8.4c0-6.2,3.5-10.1,9.1-10.1
		c0.9,0,1.9,0,3,0.2v-5.8c-0.9-0.2-2.1-0.4-3.2-0.4v-1.9c1.9-0.2,4.3-0.4,6.3-0.2v23.5c0.9,0.2,2.1,0.4,3,0.4v1.9
		C754.3,371.9,751.7,371.9,749.8,371.9z M749.6,356.8c-1.1-0.2-2.2-0.4-3.2-0.4c-3.4,0-5.6,2.1-5.6,7.1c0,3.9,1.3,6,3.9,6
		c3.2,0,4.9-3.7,4.9-6.9L749.6,356.8L749.6,356.8z"/>
	<path d="M764.5,372.1c-3.7,0-4.9-1.5-4.9-5.4v-10.3h-3.7V354h3.7v-5.8l3.2-0.9v6.7h5v2.4h-5v9.1c0,3,0.6,3.7,2.6,3.7
		c0.7,0,1.7-0.2,2.2-0.4l0.4,2.6C767,372.1,765.7,372.1,764.5,372.1z"/>
	<path d="M784.1,371.9v-11.4c0-2.4-0.7-3.9-3-3.9c-3,0-5,3-5,6.9v6.2c0.9,0,2.1,0.2,2.8,0.4v1.9h-9.1v-1.9c0.9-0.2,2.1-0.4,3-0.4
		v-21.3c-0.9-0.2-2.1-0.4-3.2-0.4v-1.9c1.9-0.2,4.3-0.4,6.3-0.2v8.4c0,1.1,0,2.6-0.4,3.5l0,0c1.1-2.4,3.2-3.9,6.2-3.9
		c4.1,0,5.4,2.6,5.4,5.8v10.1c0.9,0,2.1,0.2,3,0.4v1.9h-6V371.9z"/>
	<path d="M801.1,377.3l-1.3-1.3c2.2-2.4,2.4-4.1,1.5-5.2c-0.9-1.3-0.2-3.2,1.5-3.2C805.6,367.8,806.7,372.3,801.1,377.3z"/>
	<path d="M828.2,371.9v-11.4c0-2.4-0.7-3.9-3-3.9c-3,0-5,3-5,6.9v6.2c0.9,0,2.1,0.2,2.8,0.4v1.9h-9.1v-1.9c0.9-0.2,2.1-0.4,3-0.4
		v-21.3c-0.9-0.2-2.1-0.4-3.2-0.4v-1.9c1.9-0.2,4.3-0.4,6.3-0.2v8.4c0,1.1,0,2.6-0.4,3.5l0,0c1.1-2.4,3.2-3.9,6.2-3.9
		c4.1,0,5.4,2.6,5.4,5.8v10.1c0.9,0,2.1,0.2,3,0.4v1.9h-6V371.9z"/>
	<path d="M851.5,362.9h-11.6c-0.2,4.7,1.7,6.7,5.6,6.7c1.7,0,3.5-0.4,5-1.1l0.4,2.6c-1.9,0.7-3.9,1.1-6.2,1.1
		c-5.4,0-8.4-2.8-8.4-9.1c0-5.2,3-9.3,8-9.3s7.1,3.4,7.1,7.3C851.7,361.4,851.7,362.2,851.5,362.9z M844.4,356.2
		c-2.2,0-3.9,1.7-4.3,4.5h8.4C848.5,357.9,846.9,356.2,844.4,356.2z"/>
	<path d="M854.3,371.9V370c0.9-0.2,2.1-0.4,3.2-0.4v-12.9c-0.9-0.2-2.1-0.4-3.2-0.4v-1.9c1.9-0.2,4.3-0.4,6.3-0.2v15.5
		c1.1,0,2.1,0.2,3,0.4v1.9h-9.3V371.9z M859.2,350.4c-1.1,0-2.2-0.9-2.2-2.1c0-1.1,0.9-2.1,2.2-2.1c1.1,0,2.1,0.9,2.1,2.1
		C861.2,349.5,860.3,350.4,859.2,350.4z"/>
	<path d="M873.4,381c-4.7,0-7.5-1.9-7.5-5.4c0-2.1,1.3-3.9,3-4.7c-1.1-0.4-1.7-1.5-1.7-2.6c0-1.3,0.7-2.4,2.1-3
		c-1.7-0.9-2.6-2.6-2.6-4.9c0-3.5,2.6-6.7,7.5-6.7c0.9,0,1.7,0.2,2.4,0.4h6v2.6h-3c0.9,0.7,1.5,1.9,1.5,3.4c0,3.7-2.4,6.5-7.5,6.5
		c-0.7,0-1.3,0-1.9-0.2c-0.7,0.4-1.1,0.9-1.1,1.5c0,0.9,0.9,1.3,3,1.3l3.2,0.2c3.9,0.2,6,1.9,6,5.2C882.7,378.1,879,381,873.4,381z
		 M875.8,371.7l-3.4-0.2c-0.4,0-0.7,0-1.1,0c-1.3,0.9-2.2,2.2-2.2,3.5c0,2.1,2.1,3.4,4.9,3.4c3.5,0,5.6-1.7,5.6-3.9
		C879.5,373,878.2,371.9,875.8,371.7z M873.7,356.2c-2.6,0-4.3,1.7-4.3,3.9c0,2.4,1.5,3.9,4.1,3.9s4.1-1.5,4.1-3.9
		C877.9,357.7,876.4,356.2,873.7,356.2z"/>
	<path d="M898.8,371.9v-11.4c0-2.4-0.7-3.9-3-3.9c-3,0-5,3-5,6.9v6.2c0.9,0,2.1,0.2,2.8,0.4v1.9h-9.1v-1.9c0.9-0.2,2.1-0.4,3-0.4
		v-21.3c-0.9-0.2-2.1-0.4-3.2-0.4v-1.9c1.9-0.2,4.3-0.4,6.3-0.2v8.4c0,1.1,0,2.6-0.4,3.5l0,0c1.1-2.4,3.2-3.9,6.2-3.9
		c4.1,0,5.4,2.6,5.4,5.8v10.1c0.9,0,2.1,0.2,3,0.4v1.9h-6V371.9z"/>
	<path d="M913.7,372.1c-3.7,0-4.9-1.5-4.9-5.4v-10.3h-3.7V354h3.7v-5.8l3.2-0.9v6.7h5v2.4h-5v9.1c0,3,0.6,3.7,2.6,3.7
		c0.7,0,1.7-0.2,2.2-0.4l0.4,2.6C916.3,372.1,914.8,372.1,913.7,372.1z"/>
	<path d="M929.6,379.4l-2.2-1.1c3-5,4.5-10.6,4.5-16.4c0-6.2-1.5-11.6-4.5-16.6l2.4-1.1c4.1,6.7,5.2,12.3,5.2,17.5
		C934.8,366.7,933.7,372.8,929.6,379.4z"/>
	<path d="M949,377.3l-1.3-1.3c2.2-2.4,2.4-4.1,1.5-5.2c-0.9-1.3-0.2-3.2,1.5-3.2C953.3,367.8,954.4,372.3,949,377.3z M950.7,361.6
		c-1.3,0-2.2-0.9-2.2-2.2c0-1.3,0.9-2.2,2.2-2.2c1.3,0,2.2,0.9,2.2,2.2S952,361.6,950.7,361.6z"/>
</g>
<g enable-background="new    ">
	<path d="M66.7,280.4c-6-5.4-8.8-11.2-8.8-18.1c0-7.3,3.5-13.4,9-18.3l1.9,1.9c-4.9,4.7-7.5,10.3-7.5,16.1c0,6,2.4,11.4,7.5,16.4
		L66.7,280.4z"/>
	<path d="M77.2,272.2v-2.8h6.5v-15.1l-6.2,4.1l-1.1-2.8l8-4.9h2.8v18.7h5.6v3H77.1L77.2,272.2L77.2,272.2z"/>
	<path d="M99.9,277.1c3.7-0.9,4.9-2.6,4.9-3.9c0-2.2-1.9-2.2-1.9-4.3c0-1.5,1.1-2.6,2.6-2.6c2.2,0,3.4,2.2,3.4,4.5
		c0,4.5-3,7.1-8.2,8.4L99.9,277.1z"/>
	<path d="M119.5,272.2v-2.6l5-4.7c4.5-3.9,5.6-5.4,5.6-7.8c0-2.4-1.3-3.9-4.5-3.9c-2.1,0-4.1,0.9-5.2,1.9l-0.7-2.8
		c1.9-1.1,3.9-1.9,6.5-1.9c4.9,0,7.3,2.8,7.3,6.3c0,3-1.5,5.4-5.6,8.8l-4.3,3.7h-0.2c1.7-0.2,5.6-0.2,11-0.2v3.2H119.5z"/>
	<path d="M145.1,244c6,5.6,8.8,11.2,8.8,18.1c0,7.3-3.5,13.4-9,18.3l-1.9-1.9c4.9-4.7,7.5-10.3,7.5-16.1c0-6-2.4-11.6-7.5-16.4
		L145.1,244z"/>
</g>
<line fill="none" stroke="#000000" stroke-width="2" x1="42.1" y1="294.4" x2="340.4" y2="294.4"/>
<line fill="none" stroke="#000000" stroke-width="2" x1="42.1" y1="513.6" x2="340.4" y2="513.6"/>
<line fill="none" stroke="#000000" stroke-width="2" x1="338.5" y1="515.3" x2="338.5" y2="293.3"/>
<line fill="none" stroke="#000000" stroke-width="2" x1="43.8" y1="515.3" x2="43.8" y2="293.3"/>
<g enable-background="new    ">
	<path fill="#808080" d="M-16.5,689.6v-1.9c0.9-0.2,2.1-0.4,3.2-0.4v-19.4c-1.1,0-2.2-0.2-3.2-0.4v-1.9h15.7v5.6H-3
		c-0.2-1.1-0.4-2.2-0.4-3h-6.5v8h5.2c0.2-0.9,0.4-1.7,0.6-2.4H-2v7.3h-2.1c-0.2-0.7-0.4-1.7-0.6-2.4h-5.2v8.6h6.5
		c0.2-0.9,0.4-2.1,0.6-3.2h2.2v5.8h-15.9V689.6z"/>
	<path fill="#808080" d="M15,689.6l-3.9-6.7l-3.9,6.7H1.7v-2c1.1-0.2,2.1-0.4,3-0.6l4.3-6.5l-4.1-6.3c-0.9,0-2.1-0.4-3-0.6v-2.1h5.4
		l3.7,6.5l3.9-6.5h5.2v2.1c-1.1,0.2-2.1,0.4-3,0.6l-3.9,6.3l4.3,6.5c0.9,0,2.1,0.4,3,0.6v2.1L15,689.6L15,689.6z"/>
	<path fill="#808080" d="M33.5,689.6c0-1.3,0-2.6,0.2-3.5l0,0c-0.9,2.2-3.2,3.9-6,3.9c-3,0-4.9-1.9-4.9-4.7c0-3.9,3.9-6.2,10.6-6.2
		v-1.3c0-2.4-0.9-3.9-3.7-3.9c-1.1,0-2.2,0.2-3.4,0.6c0,0.9-0.2,1.9-0.4,3h-2.1v-4.9c1.9-0.6,3.9-0.9,6-0.9c5.2,0,6.7,2.4,6.7,6v9.7
		c0.9,0.2,2.1,0.4,3,0.4v1.9C37.8,689.6,35.3,689.8,33.5,689.6z M33.3,681.4c-5.6,0-7.5,1.3-7.5,3.4c0,1.5,1.1,2.6,2.8,2.6
		c2.8,0,4.9-2.8,4.9-5.6v-0.4H33.3z"/>
	<path fill="#808080" d="M66.5,689.6v-11.4c0-2.4-0.6-4.1-2.8-4.1c-2.6,0-5,2.6-5,7.1v6c0.9,0,2.1,0.2,3,0.4v1.9h-6.2v-11.2
		c0-2.2-0.4-4.1-3-4.1s-5,3-5,7.1v6c0.9,0,2.1,0.2,2.8,0.4v1.9h-9.1v-2c0.9-0.2,2.1-0.4,3.2-0.4v-12.9c-0.9-0.2-2.1-0.4-3.2-0.4V672
		c1.9-0.2,4.3-0.4,6.3-0.2c0,1.1-0.2,2.6-0.4,3.7l0,0c0.9-2.4,3.4-4.1,6.2-4.1c3.7,0,4.9,2.6,4.9,4.1c0.7-1.7,2.6-4.1,6.2-4.1
		c3.4,0,5.2,1.9,5.2,5.8v9.9c1.1,0,2.1,0.2,3,0.4v1.9h-6L66.5,689.6L66.5,689.6z"/>
	<path fill="#808080" d="M83,689.8c-1.1,0-2.1,0-3-0.2v6.5c1.1,0,2.2,0.2,3.2,0.4v1.9h-9.3v-1.9c0.9-0.2,1.9-0.4,3-0.4v-21.7
		c-0.9-0.2-2.1-0.4-3-0.4v-1.9c1.7-0.2,4.1-0.4,6.2-0.2c0,0.9-0.2,2.6-0.4,3.5l0,0c0.9-2.4,3.2-3.9,6-3.9c4.1,0,6.5,3,6.5,8.4
		C92.1,686.3,88.7,689.8,83,689.8z M84.8,674.1c-3.2,0-4.9,3.7-4.9,6.9v5.8c0.9,0.4,2.1,0.4,3.2,0.4c3.4,0,5.6-2.1,5.6-7.1
		C88.7,676.4,87.4,674.1,84.8,674.1z"/>
	<path fill="#808080" d="M94.3,689.6v-1.9c0.9-0.2,2.1-0.4,3-0.4V666c-0.9-0.2-2.1-0.4-3.2-0.4v-1.9c1.9-0.2,4.3-0.4,6.3-0.2v23.7
		c1.1,0,2.1,0.2,3,0.4v1.9h-9.1V689.6z"/>
	<path fill="#808080" d="M120.5,680.7h-11.8c-0.2,4.7,1.7,6.7,5.6,6.7c1.7,0,3.5-0.4,5-1.1l0.4,2.6c-1.9,0.7-3.9,1.1-6.2,1.1
		c-5.4,0-8.4-2.8-8.4-9.1c0-5.2,3-9.3,8-9.3s7.1,3.4,7.1,7.3C120.5,679.2,120.5,679.9,120.5,680.7z M113.2,673.9
		c-2.2,0-3.9,1.7-4.3,4.5h8.4C117.3,675.6,115.8,673.9,113.2,673.9z"/>
	<path fill="#808080" d="M127.9,679.5c-1.3,0-2.2-0.9-2.2-2.2s0.9-2.2,2.2-2.2s2.2,0.9,2.2,2.2C130.2,678.4,129.1,679.5,127.9,679.5
		z M127.9,690c-1.3,0-2.2-0.9-2.2-2.2s0.9-2.2,2.2-2.2s2.2,0.9,2.2,2.2C130.2,688.9,129.1,690,127.9,690z"/>
</g>
<g enable-background="new    ">
	<path d="M162.1,674.7c-4.1-0.7-6,2.1-6,7.8v4.9c1.1,0,2.2,0.2,3.2,0.4v1.9h-9.5v-1.9c0.9-0.2,2.1-0.4,3.2-0.4v-12.9
		c-0.9-0.2-2.1-0.4-3.2-0.4v-1.9c1.9-0.2,4.3-0.4,6.2-0.2c0,1.1-0.2,2.8-0.4,4.3l0,0c0.7-2.4,2.6-4.9,6.5-4.5L162.1,674.7
		L162.1,674.7z"/>
	<path d="M179.3,680.7h-11.6c-0.2,4.7,1.7,6.7,5.6,6.7c1.7,0,3.5-0.4,5-1.1l0.4,2.6c-1.9,0.7-3.9,1.1-6.2,1.1
		c-5.4,0-8.4-2.8-8.4-9.1c0-5.2,3-9.3,8-9.3s7.1,3.4,7.1,7.3C179.3,679.2,179.3,679.9,179.3,680.7z M172.2,673.9
		c-2.2,0-3.9,1.7-4.3,4.5h8.4C176.1,675.6,174.6,673.9,172.2,673.9z"/>
	<path d="M190.5,690c-4.5,0-8-2.1-8-8.6c0-5.8,3-9.7,8.8-9.7c1.5,0,3.2,0.2,4.3,0.6v5.2h-2.1c-0.2-1.1-0.4-2.1-0.4-3
		c-0.6-0.2-1.5-0.4-2.4-0.4c-3.2,0-5,2.6-5,6.5c0,3.5,1.1,6.3,5.4,6.3c1.5,0,3-0.4,4.3-0.9l0.6,2.6C194.6,689.4,192.7,690,190.5,690
		z"/>
	<path d="M205.6,690c-3.7,0-4.9-1.5-4.9-5.4v-10.3H197v-2.4h3.7v-5.8l3.2-0.9v6.7h5v2.4h-5v9.1c0,3,0.6,3.7,2.6,3.7
		c0.7,0,1.7-0.2,2.2-0.4l0.4,2.6C208,689.8,206.7,690,205.6,690z"/>
	<path d="M232.7,697.7c-6-5.4-8.8-11.2-8.8-18.1c0-7.3,3.5-13.4,9-18.3l1.9,1.9c-4.9,4.7-7.5,10.3-7.5,16.1c0,6,2.4,11.4,7.5,16.4
		L232.7,697.7z"/>
	<path d="M243.3,689.6v-3h6.5v-15.1l-6.1,4.1l-1.1-2.8l7.8-4.9h2.8v18.7h5.6v3H243.3L243.3,689.6z"/>
	<path d="M266.1,694.3c3.7-0.9,4.9-2.6,4.9-3.9c0-2.2-1.9-2.2-1.9-4.3c0-1.5,1.1-2.6,2.6-2.6c2.2,0,3.4,2.2,3.4,4.5
		c0,4.5-3,7.1-8.2,8.4L266.1,694.3z"/>
	<path d="M285.5,689.6V687l5-4.7c4.5-3.9,5.6-5.4,5.6-7.8c0-2.4-1.3-3.9-4.5-3.9c-2.1,0-4.1,0.9-5.2,1.9l-0.7-2.8
		c1.9-1.1,3.9-1.9,6.5-1.9c4.9,0,7.3,2.8,7.3,6.3c0,3-1.5,5.4-5.6,8.8l-4.3,3.7h-0.2c1.7-0.2,5.6-0.2,11-0.2v3.2H285.5L285.5,689.6z
		"/>
	<path d="M309,694.3c3.7-0.9,4.9-2.6,4.9-3.9c0-2.2-1.9-2.2-1.9-4.3c0-1.5,1.1-2.6,2.6-2.6c2.2,0,3.4,2.2,3.4,4.5
		c0,4.5-3,7.1-8.2,8.4L309,694.3z"/>
	<path d="M341.3,686.6v6h-3.2v-6h-11l-0.2-2.6l9.9-15.9h4.5v15.5h4.1v3H341.3L341.3,686.6z M338.2,671.1L338.2,671.1l-8,12.7
		c2.1,0,6.7,0,8,0V671.1z"/>
	<path d="M352,694.3c3.7-0.9,4.9-2.6,4.9-3.9c0-2.2-1.9-2.2-1.9-4.3c0-1.5,1.1-2.6,2.6-2.6c2.2,0,3.4,2.2,3.4,4.5
		c0,4.5-3,7.1-8.2,8.4L352,694.3z"/>
	<path d="M376.4,693c-1.5,0-3.2-0.2-4.5-0.6l0.6-3c1.3,0.4,2.8,0.7,4.3,0.7c3.7,0,6.3-2.2,6.3-4.9c0-2.6-2.1-4.5-6-4.5
		c-1.3,0-2.2,0-3.2,0.2v-2.6h0.7c5,0,7.7-1.5,7.7-4.5c0-2.2-1.7-3.5-4.3-3.5c-2.1,0-3.5,0.6-5,1.3l-0.6-2.8c1.9-0.7,3.9-1.3,6.2-1.3
		c4.9,0,7.3,2.4,7.3,5.8c0,2.8-1.7,4.9-4.3,5.6l0,0c3,0.4,5.2,2.8,5.2,5.8C386.7,689.6,382.4,693,376.4,693z"/>
	<path d="M397.1,661.4c6,5.6,8.8,11.2,8.8,18.1c0,7.3-3.5,13.4-9,18.3l-1.9-1.9c4.9-4.7,7.5-10.3,7.5-16.1c0-6-2.4-11.6-7.5-16.4
		L397.1,661.4z"/>
	<path d="M423.5,695.2l-1.3-1.3c2.2-2.4,2.4-4.1,1.5-5.2c-0.9-1.3-0.2-3.2,1.5-3.2C427.8,685.5,428.9,690.2,423.5,695.2z
		 M425.1,679.5c-1.3,0-2.2-0.9-2.2-2.2s0.9-2.2,2.2-2.2s2.2,0.9,2.2,2.2C427.4,678.4,426.3,679.5,425.1,679.5z"/>
</g>
<g enable-background="new    ">
	<path d="M164.9,541.8l-4.9,15.5h-3.7l-3.5-10.5c-0.4-1.1-0.7-2.2-0.9-3.5l0,0c-0.4,1.5-0.7,3-1.3,4.5l-3,9.5h-3.7l-4.7-15.5
		c-0.7,0-1.5-0.2-2.2-0.4v-1.9h8.2v1.9c-0.7,0.2-1.5,0.4-2.4,0.4l2.2,8c0.4,1.5,0.7,3,1.1,4.1l0,0c0.4-1.5,0.7-3,1.3-4.3l3.2-10.1
		h3.4l3.2,10.1c0.6,2.1,0.9,3.2,1.3,4.3l0,0c0.4-1.3,0.6-2.2,1.1-3.9l2.2-8c-0.7,0-1.7-0.2-2.4-0.4v-1.9h8v1.9
		C166.4,541.6,165.7,541.8,164.9,541.8z"/>
	<path d="M168.5,557.3v-1.9c0.9-0.2,2.1-0.4,3.2-0.4v-13.1c-0.9-0.2-2.1-0.4-3.2-0.4v-1.9c1.9-0.2,4.3-0.4,6.3-0.2v15.5
		c1.1,0,2.1,0.2,3,0.4v1.9h-9.3V557.3z M173.1,536c-1.1,0-2.2-0.9-2.2-2.1s0.9-2.1,2.2-2.1c1.1,0,2.1,0.9,2.1,2.1
		C175.4,535.1,174.2,536,173.1,536z"/>
	<path d="M192.2,557.3c0-0.9,0-2.6,0.4-3.5l0,0c-0.9,2.4-3.2,3.9-6,3.9c-4.3,0-6.5-3.2-6.5-8.4c0-6.2,3.5-10.1,9.1-10.1
		c0.9,0,1.9,0,3,0.2v-5.8c-0.9-0.2-2.1-0.4-3.2-0.4v-1.9c1.9-0.2,4.3-0.4,6.3-0.2v23.5c0.9,0.2,2.1,0.4,3,0.4v1.9
		C196.6,557.3,194.2,557.5,192.2,557.3z M192.2,542.1c-1.1-0.2-2.2-0.4-3.2-0.4c-3.4,0-5.6,2.1-5.6,7.1c0,3.9,1.3,6,3.9,6
		c3.2,0,4.9-3.7,4.9-6.9L192.2,542.1L192.2,542.1z"/>
	<path d="M206.9,557.6c-3.7,0-4.9-1.5-4.9-5.4v-10.3h-3.7v-2.4h3.7v-5.8l3.2-0.9v6.7h5v2.4h-5v9.1c0,3,0.6,3.7,2.6,3.7
		c0.7,0,1.7-0.2,2.2-0.4l0.4,2.6C209.3,557.5,208,557.6,206.9,557.6z"/>
	<path d="M226.7,557.3v-11.4c0-2.4-0.7-4.1-3-4.1c-3,0-5,3-5,6.9v6.2c0.9,0,2.1,0.2,2.8,0.4v1.9h-9.1v-1.9c0.9-0.2,2.1-0.4,3-0.4
		v-21.3c-0.9-0.2-2.1-0.4-3.2-0.4v-1.9c1.9-0.2,4.3-0.4,6.3-0.2v8.4c0,1.1,0,2.6-0.4,3.5l0,0c1.1-2.4,3.2-3.9,6.2-3.9
		c4.1,0,5.4,2.6,5.4,5.8V555c0.9,0,2.1,0.2,3,0.4v1.9L226.7,557.3L226.7,557.3z"/>
</g>
<g enable-background="new    ">
	<path d="M369.7,415.9v-11.3c0-2.4-0.7-4.1-3-4.1c-3,0-5,3-5,6.9v6.2c0.9,0,2.1,0.2,2.8,0.4v1.9h-9.1V414c0.9-0.2,2.1-0.4,3-0.4
		v-21.3c-0.9-0.2-2.1-0.4-3.2-0.4V390c1.9-0.2,4.3-0.4,6.3-0.2v8.4c0,1.1,0,2.6-0.4,3.5l0,0c1.1-2.4,3.2-3.9,6.2-3.9
		c4.1,0,5.4,2.6,5.4,5.8v10.1c0.9,0,2.1,0.2,3,0.4v1.9L369.7,415.9L369.7,415.9z"/>
	<path d="M393,407h-11.8c-0.2,4.7,1.7,6.7,5.6,6.7c1.7,0,3.5-0.4,5-1.1l0.4,2.6c-1.9,0.7-3.9,1.1-6.2,1.1c-5.4,0-8.4-2.8-8.4-9.1
		c0-5.2,3-9.3,8-9.3s7.1,3.4,7.1,7.3C393,405.5,393,406.2,393,407z M385.8,400.3c-2.2,0-3.9,1.7-4.3,4.5h8.4
		C389.9,401.9,388.4,400.3,385.8,400.3z"/>
	<path d="M395.8,415.9V414c0.9-0.2,2.1-0.4,3.2-0.4v-12.9c-0.9-0.2-2.1-0.4-3.2-0.4v-1.7c1.9-0.2,4.3-0.4,6.3-0.2v15.5
		c1.1,0,2.1,0.2,3,0.4v1.9h-9.3L395.8,415.9L395.8,415.9z M400.5,394.5c-1.1,0-2.2-0.9-2.2-2.1s0.9-2.1,2.2-2.1
		c1.1,0,2.1,0.9,2.1,2.1C402.6,393.5,401.6,394.5,400.5,394.5z"/>
	<path d="M414.7,425.1c-4.7,0-7.5-1.9-7.5-5.4c0-2.1,1.3-3.9,3-4.7c-1.1-0.4-1.7-1.5-1.7-2.6c0-1.3,0.7-2.4,2.1-3
		c-1.7-0.9-2.6-2.6-2.6-4.9c0-3.5,2.6-6.7,7.5-6.7c0.9,0,1.7,0.2,2.4,0.4h6v2.6h-3c0.9,0.7,1.5,1.9,1.5,3.4c0,3.7-2.4,6.5-7.5,6.5
		c-0.7,0-1.3,0-1.9-0.2c-0.7,0.4-1.1,0.9-1.1,1.5c0,0.9,0.9,1.3,3,1.3l3.2,0.2c3.9,0.2,6,1.9,6,5.2
		C424,422.1,420.3,425.1,414.7,425.1z M417.1,415.8l-3.4-0.2c-0.4,0-0.7,0-1.1,0c-1.3,0.9-2.2,2.2-2.2,3.5c0,2.1,2.1,3.4,4.9,3.4
		c3.5,0,5.6-1.7,5.6-3.9C420.9,417.1,419.7,415.9,417.1,415.8z M415.3,400.3c-2.6,0-4.3,1.7-4.3,3.9c0,2.4,1.5,3.9,4.1,3.9
		s4.1-1.5,4.1-3.9C419.2,401.8,417.7,400.3,415.3,400.3z"/>
	<path d="M440.1,415.9v-11.3c0-2.4-0.7-4.1-3-4.1c-3,0-5,3-5,6.9v6.2c0.9,0,2.1,0.2,2.8,0.4v1.9h-9.2V414c0.9-0.2,2.1-0.4,3-0.4
		v-21.3c-0.9-0.2-2.1-0.4-3.2-0.4V390c1.9-0.2,4.3-0.4,6.3-0.2v8.4c0,1.1,0,2.6-0.4,3.5l0,0c1.1-2.4,3.2-3.9,6.2-3.9
		c4.1,0,5.4,2.6,5.4,5.8v10.1c0.9,0,2.1,0.2,3,0.4v1.9L440.1,415.9L440.1,415.9z"/>
	<path d="M455.2,416.1c-3.7,0-4.9-1.5-4.9-5.4v-10.3h-3.7V398h3.7v-5.8l3.2-0.9v6.7h5v2.4h-5v9.1c0,3,0.6,3.7,2.6,3.7
		c0.7,0,1.7-0.2,2.2-0.4l0.4,2.6C457.6,416.1,456.3,416.1,455.2,416.1z"/>
</g>
</svg>
