<?xml version="1.0" encoding="utf-8"?>
<!-- Generator: Adobe Illustrator 18.0.0, SVG Export Plug-In . SVG Version: 6.00 Build 0)  -->
<!DOCTYPE svg PUBLIC "-//W3C//DTD SVG 1.1//EN" "http://www.w3.org/Graphics/SVG/1.1/DTD/svg11.dtd">
<svg version="1.1" id="Layer_1" xmlns="http://www.w3.org/2000/svg" xmlns:xlink="http://www.w3.org/1999/xlink" x="0px" y="0px"
	 viewBox="-58 0 823 792" enable-background="new -58 0 823 792" xml:space="preserve">
<g>
	<rect x="50.8" y="244.9" fill="none" stroke="#999999" stroke-width="1.3" width="319.9" height="319.9"/>
	<line fill="none" stroke="#999999" stroke-width="1.3" x1="50.8" y1="511.6" x2="370.6" y2="511.6"/>
	<line fill="none" stroke="#999999" stroke-width="1.3" x1="50.8" y1="458.1" x2="370.6" y2="458.1"/>
	<line fill="none" stroke="#999999" stroke-width="1.3" x1="50.8" y1="404.9" x2="370.6" y2="404.9"/>
	<line fill="none" stroke="#999999" stroke-width="1.3" x1="50.8" y1="351.6" x2="370.6" y2="351.6"/>
	<line fill="none" stroke="#999999" stroke-width="1.3" x1="50.8" y1="298.1" x2="370.6" y2="298.1"/>
	<line fill="none" stroke="#999999" stroke-width="1.3" x1="317.3" y1="244.9" x2="317.3" y2="564.8"/>
	<line fill="none" stroke="#999999" stroke-width="1.3" x1="264.1" y1="244.9" x2="264.1" y2="564.8"/>
	<line fill="none" stroke="#999999" stroke-width="1.3" x1="210.7" y1="244.9" x2="210.7" y2="564.8"/>
	<line fill="none" stroke="#999999" stroke-width="1.3" x1="157.4" y1="244.9" x2="157.4" y2="564.8"/>
	<line fill="none" stroke="#999999" stroke-width="1.3" x1="104.1" y1="244.9" x2="104.1" y2="564.8"/>
</g>
<text transform="matrix(1 0 0 1 47.4346 167.9454)" font-family="'TheSerif-HP5Plain'" font-size="25.8187">x</text>
<text transform="matrix(1 0 0 1 -34.4453 248.7472)" font-family="'TheSerif-HP5Plain'" font-size="25.8187">y</text>
<text transform="matrix(1 0 0 1 47.9131 211.9318)" font-family="'TheSerif-HP5Plain'" font-size="25.8187">0</text>
<text transform="matrix(1 0 0 1 62.1123 211.9318)" font-family="'TheSerif-HP5Plain'" font-size="25.8187" letter-spacing="31"> </text>
<text transform="matrix(1 0 0 1 99.5498 211.9318)" font-family="'TheSerif-HP5Plain'" font-size="25.8187">1</text>
<text transform="matrix(1 0 0 1 113.751 211.9318)" font-family="'TheSerif-HP5Plain'" font-size="25.8187" letter-spacing="31"> </text>
<text transform="matrix(1 0 0 1 151.1875 211.9318)" font-family="'TheSerif-HP5Plain'" font-size="25.8187">2</text>
<text transform="matrix(1 0 0 1 165.3877 211.9318)" font-family="'TheSerif-HP5Plain'" font-size="25.8187" letter-spacing="31"> </text>
<text transform="matrix(1 0 0 1 202.8252 211.9318)" font-family="'TheSerif-HP5Plain'" font-size="25.8187">3</text>
<text transform="matrix(1 0 0 1 217.0254 211.9318)" font-family="'TheSerif-HP5Plain'" font-size="25.8187" letter-spacing="31"> </text>
<text transform="matrix(1 0 0 1 254.4629 211.9318)" font-family="'TheSerif-HP5Plain'" font-size="25.8187">4</text>
<text transform="matrix(1 0 0 1 268.6631 211.9318)" font-family="'TheSerif-HP5Plain'" font-size="25.8187" letter-spacing="31"> </text>
<text transform="matrix(1 0 0 1 306.1006 211.9318)" font-family="'TheSerif-HP5Plain'" font-size="25.8187">5</text>
<text transform="matrix(1 0 0 1 320.2998 211.9318)" font-family="'TheSerif-HP5Plain'" font-size="25.8187" letter-spacing="31"> </text>
<text transform="matrix(1 0 0 1 357.7373 211.9318)" font-family="'TheSerif-HP5Plain'" font-size="25.8187">6</text>
<circle fill="#808080" cx="104.1" cy="351.6" r="8.3"/>
<text transform="matrix(1 0 0 1 7.75 256.3976)" font-family="'TheSerif-HP5Plain'" font-size="25.8187">0</text>
<text transform="matrix(1 0 0 1 7.75 308.0343)" font-family="'TheSerif-HP5Plain'" font-size="25.8187">1</text>
<text transform="matrix(1 0 0 1 7.75 359.672)" font-family="'TheSerif-HP5Plain'" font-size="25.8187">2</text>
<text transform="matrix(1 0 0 1 7.75 411.3097)" font-family="'TheSerif-HP5Plain'" font-size="25.8187">3</text>
<text transform="matrix(1 0 0 1 7.75 462.9474)" font-family="'TheSerif-HP5Plain'" font-size="25.8187">4</text>
<text transform="matrix(1 0 0 1 7.75 514.5841)" font-family="'TheSerif-HP5Plain'" font-size="25.8187">5</text>
<text transform="matrix(1 0 0 1 7.75 566.2228)" font-family="'TheSerif-HP5Plain'" font-size="25.8187">6</text>
<line fill="none" stroke="#000000" stroke-width="1.3" x1="52.1" y1="244.9" x2="41.9" y2="244.9"/>
<line fill="none" stroke="#000000" stroke-width="1.3" x1="52.1" y1="298.4" x2="41.9" y2="298.4"/>
<line fill="none" stroke="#000000" stroke-width="1.3" x1="52.1" y1="351.5" x2="41.9" y2="351.5"/>
<line fill="none" stroke="#000000" stroke-width="1.3" x1="52.1" y1="404.7" x2="41.9" y2="404.7"/>
<line fill="none" stroke="#000000" stroke-width="1.3" x1="52.1" y1="458.2" x2="41.9" y2="458.2"/>
<line fill="none" stroke="#000000" stroke-width="1.3" x1="52.1" y1="512.1" x2="41.9" y2="512.1"/>
<line fill="none" stroke="#000000" stroke-width="1.3" x1="52.1" y1="564.4" x2="41.9" y2="564.4"/>
<line fill="none" stroke="#000000" stroke-width="1.3" x1="370.2" y1="244.8" x2="370.2" y2="234.6"/>
<line fill="none" stroke="#000000" stroke-width="1.3" x1="316.6" y1="244.8" x2="316.6" y2="234.6"/>
<line fill="none" stroke="#000000" stroke-width="1.3" x1="263.5" y1="244.8" x2="263.5" y2="234.6"/>
<line fill="none" stroke="#000000" stroke-width="1.3" x1="210.3" y1="244.8" x2="210.3" y2="234.6"/>
<line fill="none" stroke="#000000" stroke-width="1.3" x1="156.9" y1="244.8" x2="156.9" y2="234.6"/>
<line fill="none" stroke="#000000" stroke-width="1.3" x1="102.8" y1="244.8" x2="102.8" y2="234.6"/>
<line fill="none" stroke="#000000" stroke-width="1.3" x1="51.2" y1="244.8" x2="51.2" y2="234.6"/>
<polyline fill="#FFFFFF" stroke="#000000" stroke-width="1.3" points="-21.2,342.6 -27.5,348.9 -33.8,342.6 "/>
<line fill="none" stroke="#000000" stroke-width="1.3" x1="-27.5" y1="348.9" x2="-27.5" y2="274"/>
<polyline fill="#FFFFFF" stroke="#000000" stroke-width="1.3" points="350,494.4 343.7,500.7 337.4,494.4 "/>
<line fill="none" stroke="#000000" stroke-width="1.3" x1="343.7" y1="500.7" x2="343.7" y2="463.8"/>
<polyline fill="#FFFFFF" stroke="#000000" stroke-width="1.3" points="337.4,368.3 343.7,362 350,368.3 "/>
<line fill="none" stroke="#000000" stroke-width="1.3" x1="343.7" y1="362" x2="343.7" y2="398.8"/>
<polyline fill="#FFFFFF" stroke="#000000" stroke-width="1.3" points="148.6,153.8 154.9,160.2 148.6,166.5 "/>
<line fill="none" stroke="#000000" stroke-width="1.3" x1="156.4" y1="160.2" x2="81.5" y2="160.2"/>
<polyline fill="#FFFFFF" stroke="#000000" stroke-width="1.3" points="296.3,529.8 302.7,536.1 296.3,542.4 "/>
<line fill="none" stroke="#000000" stroke-width="1.3" x1="304.1" y1="536.1" x2="253" y2="536.1"/>
<polyline fill="#FFFFFF" stroke="#000000" stroke-width="1.3" points="123.1,542.4 116.8,536.1 123.1,529.8 "/>
<line fill="none" stroke="#000000" stroke-width="1.3" x1="115.3" y1="536.1" x2="166.4" y2="536.1"/>
<text transform="matrix(1 0 0 1 453.8408 408.2521)" font-family="'TheSerif-HP5Plain'" font-size="25.8187">rect( x , y , width , height ) ;</text>
<text transform="matrix(1 0 0 1 109.5908 336.5343)" font-family="'TheSerif-HP5Plain'" font-size="25.8187">( 1 , 2 )</text>
<line fill="none" stroke="#000000" stroke-width="2" x1="102.4" y1="352.5" x2="317.3" y2="352.5"/>
<line fill="none" stroke="#000000" stroke-width="2" x1="102.4" y1="510.3" x2="317.3" y2="510.3"/>
<line fill="none" stroke="#000000" stroke-width="2" x1="316" y1="511.6" x2="316" y2="351.6"/>
<line fill="none" stroke="#000000" stroke-width="2" x1="103.7" y1="511.6" x2="103.7" y2="351.6"/>
<text transform="matrix(1 0 0 1 59.5205 637.1681)" fill="#808080" font-family="'TheSerif-HP5Plain'" font-size="25.8187">Example:  </text>
<text transform="matrix(1 0 0 1 179.29 637.1681)" font-family="'TheSerif-HP5Plain'" font-size="25.8187">rect ( 1 , 2 , 4 , 3 ) ;</text>
<text transform="matrix(1 0 0 1 170.5518 541.838)" font-family="'TheSerif-HP5Plain'" font-size="25.8187">width</text>
<text transform="matrix(1 0 0 1 327.6162 439.9972)" font-family="'TheSerif-HP5Plain'" font-size="25.8187">height</text>
</svg>
