<?xml version="1.0" encoding="utf-8"?>
<!-- Generator: Adobe Illustrator 18.0.0, SVG Export Plug-In . SVG Version: 6.00 Build 0)  -->
<!DOCTYPE svg PUBLIC "-//W3C//DTD SVG 1.1//EN" "http://www.w3.org/Graphics/SVG/1.1/DTD/svg11.dtd">
<svg version="1.1" id="Layer_1" xmlns="http://www.w3.org/2000/svg" xmlns:xlink="http://www.w3.org/1999/xlink" x="0px" y="0px"
	 viewBox="-69.4 105.6 815.3 564.8" enable-background="new -69.4 105.6 815.3 564.8" xml:space="preserve">
<g>
	<rect x="34.5" y="223.5" fill="none" stroke="#999999" stroke-width="1.3" width="319.9" height="319.9"/>
	<line fill="none" stroke="#999999" stroke-width="1.3" x1="34.5" y1="490.2" x2="354.4" y2="490.2"/>
	<line fill="none" stroke="#999999" stroke-width="1.3" x1="34.5" y1="436.6" x2="354.4" y2="436.6"/>
	<line fill="none" stroke="#999999" stroke-width="1.3" x1="34.5" y1="383.4" x2="354.4" y2="383.4"/>
	<line fill="none" stroke="#999999" stroke-width="1.3" x1="34.5" y1="330.2" x2="354.4" y2="330.2"/>
	<line fill="none" stroke="#999999" stroke-width="1.3" x1="34.5" y1="276.7" x2="354.4" y2="276.7"/>
	<line fill="none" stroke="#999999" stroke-width="1.3" x1="301" y1="223.5" x2="301" y2="543.4"/>
	<line fill="none" stroke="#999999" stroke-width="1.3" x1="247.8" y1="223.5" x2="247.8" y2="543.4"/>
	<line fill="none" stroke="#999999" stroke-width="1.3" x1="194.5" y1="223.5" x2="194.5" y2="543.4"/>
	<line fill="none" stroke="#999999" stroke-width="1.3" x1="141.1" y1="223.5" x2="141.1" y2="543.4"/>
	<line fill="none" stroke="#999999" stroke-width="1.3" x1="87.9" y1="223.5" x2="87.9" y2="543.4"/>
</g>
<text transform="matrix(1 0 0 1 31.1788 146.5254)" font-family="'TheSerif-HP5Plain'" font-size="25.8187">x</text>
<text transform="matrix(1 0 0 1 -50.702 227.3281)" font-family="'TheSerif-HP5Plain'" font-size="25.8187">y</text>
<text transform="matrix(1 0 0 1 31.6564 190.5117)" font-family="'TheSerif-HP5Plain'" font-size="25.8187">0</text>
<text transform="matrix(1 0 0 1 45.8566 190.5117)" font-family="'TheSerif-HP5Plain'" font-size="25.8187" letter-spacing="31"> </text>
<text transform="matrix(1 0 0 1 83.2941 190.5117)" font-family="'TheSerif-HP5Plain'" font-size="25.8187">1</text>
<text transform="matrix(1 0 0 1 97.4943 190.5117)" font-family="'TheSerif-HP5Plain'" font-size="25.8187" letter-spacing="31"> </text>
<text transform="matrix(1 0 0 1 134.9318 190.5117)" font-family="'TheSerif-HP5Plain'" font-size="25.8187">2</text>
<text transform="matrix(1 0 0 1 149.131 190.5117)" font-family="'TheSerif-HP5Plain'" font-size="25.8187" letter-spacing="31"> </text>
<text transform="matrix(1 0 0 1 186.5685 190.5117)" font-family="'TheSerif-HP5Plain'" font-size="25.8187">3</text>
<text transform="matrix(1 0 0 1 200.7687 190.5117)" font-family="'TheSerif-HP5Plain'" font-size="25.8187" letter-spacing="31"> </text>
<text transform="matrix(1 0 0 1 238.2062 190.5117)" font-family="'TheSerif-HP5Plain'" font-size="25.8187">4</text>
<text transform="matrix(1 0 0 1 252.4064 190.5117)" font-family="'TheSerif-HP5Plain'" font-size="25.8187" letter-spacing="31"> </text>
<text transform="matrix(1 0 0 1 289.8439 190.5117)" font-family="'TheSerif-HP5Plain'" font-size="25.8187">5</text>
<text transform="matrix(1 0 0 1 304.0441 190.5117)" font-family="'TheSerif-HP5Plain'" font-size="25.8187" letter-spacing="31"> </text>
<text transform="matrix(1 0 0 1 341.4816 190.5117)" font-family="'TheSerif-HP5Plain'" font-size="25.8187">6</text>
<circle fill="#808080" cx="87.9" cy="278.6" r="8.3"/>
<circle fill="#808080" cx="250" cy="490.9" r="8.3"/>
<text transform="matrix(1 0 0 1 -8.5057 234.9775)" font-family="'TheSerif-HP5Plain'" font-size="25.8187">0</text>
<text transform="matrix(1 0 0 1 -8.5057 286.6152)" font-family="'TheSerif-HP5Plain'" font-size="25.8187">1</text>
<text transform="matrix(1 0 0 1 -8.5057 338.2529)" font-family="'TheSerif-HP5Plain'" font-size="25.8187">2</text>
<text transform="matrix(1 0 0 1 -8.5057 389.8896)" font-family="'TheSerif-HP5Plain'" font-size="25.8187">3</text>
<text transform="matrix(1 0 0 1 -8.5057 441.5273)" font-family="'TheSerif-HP5Plain'" font-size="25.8187">4</text>
<text transform="matrix(1 0 0 1 -8.5057 493.165)" font-family="'TheSerif-HP5Plain'" font-size="25.8187">5</text>
<text transform="matrix(1 0 0 1 -8.5057 544.8027)" font-family="'TheSerif-HP5Plain'" font-size="25.8187">6</text>
<line fill="none" stroke="#000000" stroke-width="1.3" x1="35.8" y1="223.5" x2="25.6" y2="223.5"/>
<line fill="none" stroke="#000000" stroke-width="1.3" x1="35.8" y1="277" x2="25.6" y2="277"/>
<line fill="none" stroke="#000000" stroke-width="1.3" x1="35.8" y1="330.1" x2="25.6" y2="330.1"/>
<line fill="none" stroke="#000000" stroke-width="1.3" x1="35.8" y1="383.3" x2="25.6" y2="383.3"/>
<line fill="none" stroke="#000000" stroke-width="1.3" x1="35.8" y1="436.8" x2="25.6" y2="436.8"/>
<line fill="none" stroke="#000000" stroke-width="1.3" x1="35.8" y1="490.7" x2="25.6" y2="490.7"/>
<line fill="none" stroke="#000000" stroke-width="1.3" x1="35.8" y1="542.9" x2="25.6" y2="542.9"/>
<line fill="none" stroke="#000000" stroke-width="1.3" x1="354" y1="223.4" x2="354" y2="213.2"/>
<line fill="none" stroke="#000000" stroke-width="1.3" x1="300.3" y1="223.4" x2="300.3" y2="213.2"/>
<line fill="none" stroke="#000000" stroke-width="1.3" x1="247.2" y1="223.4" x2="247.2" y2="213.2"/>
<line fill="none" stroke="#000000" stroke-width="1.3" x1="194" y1="223.4" x2="194" y2="213.2"/>
<line fill="none" stroke="#000000" stroke-width="1.3" x1="140.7" y1="223.4" x2="140.7" y2="213.2"/>
<line fill="none" stroke="#000000" stroke-width="1.3" x1="86.6" y1="223.4" x2="86.6" y2="213.2"/>
<line fill="none" stroke="#000000" stroke-width="1.3" x1="35" y1="223.4" x2="35" y2="213.2"/>
<polyline fill="#FFFFFF" stroke="#000000" stroke-width="1.3" points="-37.5,321.2 -43.8,327.5 -50.1,321.2 "/>
<line fill="none" stroke="#000000" stroke-width="1.3" x1="-43.8" y1="327.5" x2="-43.8" y2="252.6"/>
<polyline fill="#FFFFFF" stroke="#000000" stroke-width="1.3" points="132.3,132.4 138.7,138.7 132.3,145 "/>
<line fill="none" stroke="#000000" stroke-width="1.3" x1="140.1" y1="138.7" x2="65.2" y2="138.7"/>
<text transform="matrix(1 0 0 1 437.5841 386.834)" font-family="'TheSerif-HP5Plain'" font-size="25.8187">ellipseMode ( CORNERS ) ;</text>
<text transform="matrix(1 0 0 1 437.5841 417.8164)" font-family="'TheSerif-HP5Plain'" font-size="25.8187">ellipse ( x1 , y1 , x2 , y2 ) ;</text>
<text transform="matrix(1 0 0 1 93.5997 264.1943)" font-family="'TheSerif-HP5Plain'" font-size="25.8187">( 1 , 1 )</text>
<text transform="matrix(1 0 0 1 258.2872 476.4824)" font-family="'TheSerif-HP5Plain'" font-size="25.8187">( 4 , 5 )</text>
<text transform="matrix(1 0 0 1 17.4454 615.748)" fill="#808080" font-family="'TheSerif-HP5Plain'" font-size="25.8187">Example:  </text>
<text transform="matrix(1 0 0 1 137.215 615.748)" font-family="'TheSerif-HP5Plain'" font-size="25.8187">ellipseMode ( CORNERS ) ;</text>
<text transform="matrix(1 0 0 1 17.4454 646.7305)" font-family="'TheSerif-HP5Plain'" font-size="25.8187" letter-spacing="45">  </text>
<text transform="matrix(1 0 0 1 120.7198 646.7305)" font-family="'TheSerif-HP5Plain'" font-size="25.8187">   ellipse ( 1 , 1 , 4 , 5 ) ;</text>
<ellipse fill="none" stroke="#000000" stroke-width="2" cx="167.8" cy="383.4" rx="80" ry="106.7"/>
</svg>
