<?xml version="1.0" encoding="utf-8"?>
<!-- Generator: Adobe Illustrator 18.0.0, SVG Export Plug-In . SVG Version: 6.00 Build 0)  -->
<!DOCTYPE svg PUBLIC "-//W3C//DTD SVG 1.1//EN" "http://www.w3.org/Graphics/SVG/1.1/DTD/svg11.dtd">
<svg version="1.1" id="Layer_1" xmlns="http://www.w3.org/2000/svg" xmlns:xlink="http://www.w3.org/1999/xlink" x="0px" y="0px"
	 viewBox="0 0 612 792" enable-background="new 0 0 612 792" xml:space="preserve">
<g>
	<rect x="22.9" y="403.4" fill="none" stroke="#999999" stroke-width="1.3" width="237.9" height="237.9"/>
	<line fill="none" stroke="#999999" stroke-width="1.3" x1="22.9" y1="601.7" x2="260.7" y2="601.7"/>
	<line fill="none" stroke="#999999" stroke-width="1.3" x1="22.9" y1="561.9" x2="260.7" y2="561.9"/>
	<line fill="none" stroke="#999999" stroke-width="1.3" x1="22.9" y1="522.4" x2="260.7" y2="522.4"/>
	<line fill="none" stroke="#999999" stroke-width="1.3" x1="22.9" y1="482.8" x2="260.7" y2="482.8"/>
	<line fill="none" stroke="#999999" stroke-width="1.3" x1="22.9" y1="443" x2="260.7" y2="443"/>
	<line fill="none" stroke="#999999" stroke-width="1.3" x1="221.1" y1="403.4" x2="221.1" y2="641.3"/>
	<line fill="none" stroke="#999999" stroke-width="1.3" x1="181.5" y1="403.4" x2="181.5" y2="641.3"/>
	<line fill="none" stroke="#999999" stroke-width="1.3" x1="141.8" y1="403.4" x2="141.8" y2="641.3"/>
	<line fill="none" stroke="#999999" stroke-width="1.3" x1="102.2" y1="403.4" x2="102.2" y2="641.3"/>
	<line fill="none" stroke="#999999" stroke-width="1.3" x1="62.5" y1="403.4" x2="62.5" y2="641.3"/>
</g>
<g enable-background="new    ">
	<path d="M27.6,346.2l-2.1-3.6l-2.1,3.6h-2.9v-1.1c0.6-0.1,1.1-0.2,1.6-0.3l2.3-3.5l-2.2-3.4c-0.5,0-1.1-0.2-1.6-0.3v-1.1h2.9l2,3.5
		l2.1-3.5h2.8v1.1c-0.6,0.1-1.1,0.2-1.6,0.3l-2.1,3.4l2.3,3.5c0.5,0,1.1,0.2,1.6,0.3v1.1H27.6z"/>
</g>
<g enable-background="new    ">
	<path d="M-31.1,398l-3.4,9.3c-1,2.9-2,3.9-4.1,3.9c-0.4,0-0.9,0-1.3-0.1l0.1-1.6c0.4,0.1,0.8,0.2,1.3,0.2c1,0,1.6-0.5,2.3-2.4
		l0.4-1.1h-0.4l-2.9-8.3c-0.4,0-0.9-0.1-1.2-0.2v-1h4.4v1c-0.4,0.1-0.8,0.2-1.2,0.2l1.4,4.1c0.3,0.9,0.5,1.6,0.7,2.4h0
		c0.2-0.7,0.5-1.7,0.9-2.8l1.3-3.7c-0.5,0-0.9-0.1-1.2-0.2v-1h4.3v1C-30.2,397.9-30.6,398-31.1,398z"/>
</g>
<g enable-background="new    ">
	<path d="M26.4,379.1c-2.6,0-4.7-1.5-4.7-5.9c0-3.8,2.3-6,5-6c2.5,0,4.7,1.4,4.7,5.9C31.4,377,29.1,379.1,26.4,379.1z M26.5,368.6
		c-1.6,0-3,1.4-3,4.4c0,3.2,1.2,4.6,3.1,4.6c1.6,0,3-1.3,3-4.4C29.6,370,28.3,368.6,26.5,368.6z"/>
</g>
<g enable-background="new    ">
	<path d="M61.2,378.9v-1.6h3.5v-8.1l-3.3,2.2l-0.6-1.5l4.2-2.6h1.5v10h3v1.6H61.2z"/>
</g>
<g enable-background="new    ">
	<path d="M99.1,378.9v-1.4l2.7-2.5c2.4-2.1,3-2.9,3-4.2c0-1.3-0.7-2.1-2.4-2.1c-1.1,0-2.2,0.5-2.8,1l-0.4-1.5c1-0.6,2.1-1,3.5-1
		c2.6,0,3.9,1.5,3.9,3.4c0,1.6-0.8,2.9-3,4.7l-2.3,2l-0.1,0c0.9-0.1,3-0.1,5.9-0.1v1.7H99.1z"/>
</g>
<g enable-background="new    ">
	<path d="M140.1,380.7c-0.8,0-1.7-0.1-2.4-0.3l0.3-1.6c0.7,0.2,1.5,0.4,2.3,0.4c2,0,3.4-1.2,3.4-2.6c0-1.4-1.1-2.4-3.2-2.4
		c-0.7,0-1.2,0-1.7,0.1v-1.4h0.4c2.7,0,4.1-0.8,4.1-2.4c0-1.2-0.9-1.9-2.3-1.9c-1.1,0-1.9,0.3-2.7,0.7l-0.3-1.5
		c1-0.4,2.1-0.7,3.3-0.7c2.6,0,3.9,1.3,3.9,3.1c0,1.5-0.9,2.6-2.3,3l0,0c1.6,0.2,2.8,1.5,2.8,3.1
		C145.6,378.9,143.3,380.7,140.1,380.7z"/>
</g>
<g enable-background="new    ">
	<path d="M182.8,377.3v3.2h-1.7v-3.2h-5.9l-0.1-1.4l5.3-8.5h2.4v8.3h2.2v1.6H182.8z M181.1,368.9L181.1,368.9l-4.3,6.8
		c1.1,0,3.6,0,4.3,0V368.9z"/>
</g>
<g enable-background="new    ">
	<path d="M216.8,380.7c-0.6,0-1.4-0.1-2.1-0.2l0.1-1.5c0.6,0.2,1.5,0.2,2.2,0.2c2.3,0,3.6-1.3,3.6-2.9c0-1.6-1.3-2.5-3.5-2.5
		c-0.8,0-1.5,0.1-2,0.1v-6.6h6.8v1.7l-5.1,0v3.4c0.3,0,0.7,0,0.9,0c3.2,0,4.8,1.6,4.8,3.7C222.4,378.7,220.2,380.7,216.8,380.7z"/>
</g>
<g enable-background="new    ">
	<path d="M256.9,379.1c-2.7,0-4.3-2-4.3-5.5c0-5.5,2.7-7.8,6.4-7.8c0.4,0,0.8,0,1.1,0.1v1.5c-0.4-0.1-0.8-0.1-1.3-0.1
		c-2.5,0-3.9,1.5-4.4,4.1c-0.1,0.2-0.1,0.6-0.2,1h0c0.6-1.1,1.8-1.7,3-1.7c2.6,0,4,1.7,4,3.8C261.3,377.2,259.5,379.1,256.9,379.1z
		 M257,372.2c-1.6,0-2.5,1.4-2.5,2.5c0,1.6,0.9,3,2.6,3c1.5,0,2.5-1.2,2.5-2.8C259.5,373.2,258.6,372.2,257,372.2z"/>
</g>
<circle fill="#808080" cx="62.5" cy="482.8" r="6.2"/>
<g enable-background="new    ">
	<path d="M-3.5,412.1c-2.6,0-4.7-1.5-4.7-5.9c0-3.8,2.3-6,5-6c2.5,0,4.7,1.4,4.7,5.9C1.5,410-0.8,412.1-3.5,412.1z M-3.4,401.7
		c-1.6,0-3,1.4-3,4.4c0,3.2,1.2,4.6,3.1,4.6c1.6,0,3-1.3,3-4.4C-0.3,403.1-1.5,401.7-3.4,401.7z"/>
</g>
<g enable-background="new    ">
	<path d="M-7.1,450.4v-1.6h3.5v-8.1l-3.3,2.2l-0.6-1.5l4.2-2.6h1.5v10h3v1.6H-7.1z"/>
</g>
<g enable-background="new    ">
	<path d="M-7.5,488.8v-1.4l2.7-2.5c2.4-2.1,3-2.9,3-4.2c0-1.3-0.7-2.1-2.4-2.1c-1.1,0-2.2,0.5-2.8,1l-0.4-1.5c1-0.6,2.1-1,3.5-1
		c2.6,0,3.9,1.5,3.9,3.4c0,1.6-0.8,2.9-3,4.7l-2.3,2l-0.1,0c0.9-0.1,3-0.1,5.9-0.1v1.7H-7.5z"/>
</g>
<g enable-background="new    ">
	<path d="M-4.9,528.9c-0.8,0-1.7-0.1-2.4-0.3l0.3-1.6c0.7,0.2,1.5,0.4,2.3,0.4c2,0,3.4-1.2,3.4-2.6c0-1.4-1.1-2.4-3.2-2.4
		c-0.7,0-1.2,0-1.7,0.1v-1.4h0.4c2.7,0,4.1-0.8,4.1-2.4c0-1.2-0.9-1.9-2.3-1.9c-1.1,0-1.9,0.3-2.7,0.7l-0.3-1.5
		c1-0.4,2.1-0.7,3.3-0.7c2.6,0,3.9,1.3,3.9,3.1c0,1.5-0.9,2.6-2.3,3l0,0c1.6,0.2,2.8,1.5,2.8,3.1C0.5,527.1-1.7,528.9-4.9,528.9z"/>
</g>
<g enable-background="new    ">
	<path d="M-0.7,563.9v3.2h-1.7v-3.2h-5.9l-0.1-1.4l5.3-8.5h2.4v8.3h2.2v1.6H-0.7z M-2.4,555.6L-2.4,555.6l-4.3,6.8
		c1.1,0,3.6,0,4.3,0V555.6z"/>
</g>
<g enable-background="new    ">
	<path d="M-5,605.7c-0.6,0-1.4-0.1-2.1-0.2l0.1-1.5c0.6,0.2,1.5,0.2,2.2,0.2c2.3,0,3.6-1.3,3.6-2.9c0-1.6-1.3-2.5-3.5-2.5
		c-0.8,0-1.5,0.1-2,0.1v-6.6H0v1.7l-5.1,0v3.4c0.3,0,0.7,0,0.9,0c3.2,0,4.8,1.6,4.8,3.7C0.6,603.7-1.7,605.7-5,605.7z"/>
</g>
<g enable-background="new    ">
	<path d="M-3.3,642.5c-2.7,0-4.3-2-4.3-5.5c0-5.5,2.7-7.8,6.4-7.8c0.4,0,0.8,0,1.1,0.1v1.5c-0.4-0.1-0.8-0.1-1.3-0.1
		c-2.5,0-3.9,1.5-4.4,4.1c-0.1,0.2-0.1,0.6-0.2,1h0c0.6-1.1,1.8-1.7,3-1.7c2.6,0,4,1.7,4,3.8C1,640.7-0.7,642.5-3.3,642.5z
		 M-3.3,635.6c-1.6,0-2.5,1.4-2.5,2.5c0,1.6,0.9,3,2.6,3c1.5,0,2.5-1.2,2.5-2.8C-0.7,636.7-1.6,635.6-3.3,635.6z"/>
</g>
<line fill="none" stroke="#000000" stroke-width="1.3" x1="23.9" y1="403.4" x2="16.3" y2="403.4"/>
<line fill="none" stroke="#000000" stroke-width="1.3" x1="23.9" y1="443.2" x2="16.3" y2="443.2"/>
<line fill="none" stroke="#000000" stroke-width="1.3" x1="23.9" y1="482.7" x2="16.3" y2="482.7"/>
<line fill="none" stroke="#000000" stroke-width="1.3" x1="23.9" y1="522.2" x2="16.3" y2="522.2"/>
<line fill="none" stroke="#000000" stroke-width="1.3" x1="23.9" y1="562" x2="16.3" y2="562"/>
<line fill="none" stroke="#000000" stroke-width="1.3" x1="23.9" y1="602.1" x2="16.3" y2="602.1"/>
<line fill="none" stroke="#000000" stroke-width="1.3" x1="23.9" y1="641" x2="16.3" y2="641"/>
<line fill="none" stroke="#000000" stroke-width="1.3" x1="260.4" y1="403.3" x2="260.4" y2="395.7"/>
<line fill="none" stroke="#000000" stroke-width="1.3" x1="220.6" y1="403.3" x2="220.6" y2="395.7"/>
<line fill="none" stroke="#000000" stroke-width="1.3" x1="181.1" y1="403.3" x2="181.1" y2="395.7"/>
<line fill="none" stroke="#000000" stroke-width="1.3" x1="141.5" y1="403.3" x2="141.5" y2="395.7"/>
<line fill="none" stroke="#000000" stroke-width="1.3" x1="101.8" y1="403.3" x2="101.8" y2="395.7"/>
<line fill="none" stroke="#000000" stroke-width="1.3" x1="61.6" y1="403.3" x2="61.6" y2="395.7"/>
<line fill="none" stroke="#000000" stroke-width="1.3" x1="23.2" y1="403.3" x2="23.2" y2="395.7"/>
<polyline fill="#FFFFFF" stroke="#000000" stroke-width="1.3" points="-30.6,476.1 -35.3,480.7 -40,476.1 "/>
<line fill="none" stroke="#000000" stroke-width="1.3" x1="-35.3" y1="480.7" x2="-35.3" y2="425"/>
<polyline fill="#FFFFFF" stroke="#000000" stroke-width="1.3" points="245.4,588.9 240.7,593.6 236,588.9 "/>
<line fill="none" stroke="#000000" stroke-width="1.3" x1="240.7" y1="593.6" x2="240.7" y2="566.2"/>
<polyline fill="#FFFFFF" stroke="#000000" stroke-width="1.3" points="236,495.2 240.7,490.5 245.4,495.2 "/>
<line fill="none" stroke="#000000" stroke-width="1.3" x1="240.7" y1="490.5" x2="240.7" y2="517.9"/>
<polyline fill="#FFFFFF" stroke="#000000" stroke-width="1.3" points="95.6,335.7 100.3,340.4 95.6,345.1 "/>
<line fill="none" stroke="#000000" stroke-width="1.3" x1="101.4" y1="340.4" x2="45.7" y2="340.4"/>
<polyline fill="#FFFFFF" stroke="#000000" stroke-width="1.3" points="205.5,615.3 210.2,620 205.5,624.6 "/>
<line fill="none" stroke="#000000" stroke-width="1.3" x1="211.3" y1="620" x2="173.3" y2="620"/>
<polyline fill="#FFFFFF" stroke="#000000" stroke-width="1.3" points="76.7,624.6 72,620 76.7,615.3 "/>
<line fill="none" stroke="#000000" stroke-width="1.3" x1="70.9" y1="620" x2="108.9" y2="620"/>
<g enable-background="new    ">
	<path d="M329.7,516.9c-2.2-0.4-3.2,1.1-3.2,4.2v2.6c0.6,0,1.2,0.1,1.7,0.2v1h-5.1v-1c0.5-0.1,1.1-0.2,1.7-0.2v-6.9
		c-0.5-0.1-1.1-0.2-1.7-0.2v-1c1-0.1,2.3-0.2,3.3-0.1c0,0.6-0.1,1.5-0.2,2.3h0c0.4-1.3,1.4-2.6,3.5-2.4L329.7,516.9z"/>
	<path d="M339,520.1h-6.2c-0.1,2.5,0.9,3.6,3,3.6c0.9,0,1.9-0.2,2.7-0.6l0.2,1.4c-1,0.4-2.1,0.6-3.3,0.6c-2.9,0-4.5-1.5-4.5-4.9
		c0-2.8,1.6-5,4.3-5c2.7,0,3.8,1.8,3.8,3.9C339,519.3,339,519.7,339,520.1z M335.1,516.5c-1.2,0-2.1,0.9-2.3,2.4h4.5
		C337.3,517.4,336.5,516.5,335.1,516.5z"/>
	<path d="M345,525c-2.4,0-4.3-1.1-4.3-4.6c0-3.1,1.6-5.2,4.7-5.2c0.8,0,1.7,0.1,2.3,0.3v2.8h-1.1c-0.1-0.6-0.2-1.1-0.2-1.6
		c-0.3-0.1-0.8-0.2-1.3-0.2c-1.7,0-2.7,1.4-2.7,3.5c0,1.9,0.6,3.4,2.9,3.4c0.8,0,1.6-0.2,2.3-0.5l0.3,1.4
		C347.2,524.8,346.2,525,345,525z"/>
	<path d="M353,525c-2,0-2.6-0.8-2.6-2.9v-5.5h-2v-1.3h2v-3.1l1.7-0.5v3.6h2.7v1.3h-2.7v4.9c0,1.6,0.3,2,1.4,2c0.4,0,0.9-0.1,1.2-0.2
		l0.2,1.4C354.4,525,353.6,525,353,525z"/>
	<path d="M359.7,528.9c-2.3-3.6-2.8-6.6-2.8-9.5c0-2.8,0.7-6.1,2.8-9.5l1.2,0.6c-1.6,2.7-2.4,5.7-2.4,8.8c0,3.3,0.8,6.2,2.4,8.9
		L359.7,528.9z"/>
	<path d="M372.8,524.9l-2.1-3.6l-2.1,3.6h-2.9v-1.1c0.6-0.1,1.1-0.2,1.6-0.3l2.3-3.5l-2.2-3.4c-0.5,0-1.1-0.2-1.6-0.3v-1.1h2.9
		l2,3.5l2.1-3.5h2.8v1.1c-0.6,0.1-1.1,0.2-1.6,0.3l-2.1,3.4l2.3,3.5c0.5,0,1.1,0.2,1.6,0.3v1.1H372.8z"/>
	<path d="M381.4,527.8l-0.7-0.7c1.2-1.3,1.3-2.2,0.8-2.8c-0.5-0.7-0.1-1.7,0.8-1.7C383.8,522.7,384.4,525.1,381.4,527.8z"/>
	<path d="M397.4,516.6l-3.4,9.3c-1,2.9-2,3.9-4.1,3.9c-0.4,0-0.9,0-1.3-0.1l0.1-1.6c0.4,0.1,0.8,0.2,1.3,0.2c1,0,1.6-0.5,2.3-2.4
		l0.4-1.1h-0.4l-2.9-8.3c-0.4,0-0.9-0.1-1.2-0.2v-1h4.4v1c-0.4,0.1-0.8,0.2-1.2,0.2l1.4,4.1c0.3,0.9,0.5,1.6,0.7,2.4h0
		c0.2-0.7,0.5-1.7,0.9-2.8l1.3-3.7c-0.5,0-0.9-0.1-1.2-0.2v-1h4.3v1C398.2,516.5,397.8,516.6,397.4,516.6z"/>
	<path d="M404.1,527.8l-0.7-0.7c1.2-1.3,1.3-2.2,0.8-2.8c-0.5-0.7-0.1-1.7,0.8-1.7C406.5,522.7,407.1,525.1,404.1,527.8z"/>
	<path d="M425.7,516.6l-2.6,8.3h-2l-1.9-5.6c-0.2-0.6-0.4-1.2-0.5-1.9h0c-0.2,0.8-0.4,1.6-0.7,2.4l-1.6,5.1h-2l-2.5-8.3
		c-0.4,0-0.8-0.1-1.2-0.2v-1h4.4v1c-0.4,0.1-0.8,0.2-1.3,0.2l1.2,4.3c0.2,0.8,0.4,1.6,0.6,2.2h0c0.2-0.8,0.4-1.6,0.7-2.3l1.7-5.4
		h1.8l1.7,5.4c0.3,1.1,0.5,1.7,0.7,2.3h0c0.2-0.7,0.3-1.2,0.6-2.1l1.2-4.3c-0.4,0-0.9-0.1-1.3-0.2v-1h4.3v1
		C426.6,516.5,426.2,516.6,425.7,516.6z"/>
	<path d="M427.6,524.9v-1c0.5-0.1,1.1-0.2,1.7-0.2v-6.9c-0.5-0.1-1.1-0.2-1.7-0.2v-1c1-0.1,2.3-0.2,3.4-0.1v8.3
		c0.6,0,1.1,0.1,1.6,0.2v1H427.6z M430.2,513.4c-0.6,0-1.2-0.5-1.2-1.1c0-0.6,0.5-1.1,1.2-1.1c0.6,0,1.1,0.5,1.1,1.1
		C431.3,512.9,430.8,513.4,430.2,513.4z"/>
	<path d="M440.4,524.9c0-0.5,0-1.4,0.2-1.9l0,0c-0.5,1.3-1.7,2.1-3.2,2.1c-2.3,0-3.5-1.7-3.5-4.5c0-3.3,1.9-5.4,4.9-5.4
		c0.5,0,1,0,1.6,0.1v-3.1c-0.5-0.1-1.1-0.2-1.7-0.2v-1c1-0.1,2.3-0.2,3.4-0.1v12.6c0.5,0.1,1.1,0.2,1.6,0.2v1
		C442.8,524.9,441.4,524.9,440.4,524.9z M440.3,516.8c-0.6-0.1-1.2-0.2-1.7-0.2c-1.8,0-3,1.1-3,3.8c0,2.1,0.7,3.2,2.1,3.2
		c1.7,0,2.6-2,2.6-3.7V516.8z"/>
	<path d="M448.3,525c-2,0-2.6-0.8-2.6-2.9v-5.5h-2v-1.3h2v-3.1l1.7-0.5v3.6h2.7v1.3h-2.7v4.9c0,1.6,0.3,2,1.4,2
		c0.4,0,0.9-0.1,1.2-0.2l0.2,1.4C449.6,525,448.9,525,448.3,525z"/>
	<path d="M458.8,524.9v-6.1c0-1.3-0.4-2.1-1.6-2.1c-1.6,0-2.7,1.6-2.7,3.7v3.3c0.5,0,1.1,0.1,1.5,0.2v1h-4.9v-1
		c0.5-0.1,1.1-0.2,1.6-0.2v-11.4c-0.5-0.1-1.1-0.2-1.7-0.2v-1c1-0.1,2.3-0.2,3.4-0.1v4.5c0,0.6,0,1.4-0.2,1.9l0,0
		c0.6-1.3,1.7-2.1,3.3-2.1c2.2,0,2.9,1.4,2.9,3.1v5.4c0.5,0,1.1,0.1,1.6,0.2v1H458.8z"/>
	<path d="M467.9,527.8l-0.7-0.7c1.2-1.3,1.3-2.2,0.8-2.8c-0.5-0.7-0.1-1.7,0.8-1.7C470.3,522.7,470.9,525.1,467.9,527.8z"/>
	<path d="M482.4,524.9v-6.1c0-1.3-0.4-2.1-1.6-2.1c-1.6,0-2.7,1.6-2.7,3.7v3.3c0.5,0,1.1,0.1,1.5,0.2v1h-4.9v-1
		c0.5-0.1,1.1-0.2,1.6-0.2v-11.4c-0.5-0.1-1.1-0.2-1.7-0.2v-1c1-0.1,2.3-0.2,3.4-0.1v4.5c0,0.6,0,1.4-0.2,1.9l0,0
		c0.6-1.3,1.7-2.1,3.3-2.1c2.2,0,2.9,1.4,2.9,3.1v5.4c0.5,0,1.1,0.1,1.6,0.2v1H482.4z"/>
	<path d="M494.9,520.1h-6.2c-0.1,2.5,0.9,3.6,3,3.6c0.9,0,1.9-0.2,2.7-0.6l0.2,1.4c-1,0.4-2.1,0.6-3.3,0.6c-2.9,0-4.5-1.5-4.5-4.9
		c0-2.8,1.6-5,4.3-5c2.7,0,3.8,1.8,3.8,3.9C495,519.3,495,519.7,494.9,520.1z M491.1,516.5c-1.2,0-2.1,0.9-2.3,2.4h4.5
		C493.3,517.4,492.4,516.5,491.1,516.5z"/>
	<path d="M496.4,524.9v-1c0.5-0.1,1.1-0.2,1.7-0.2v-6.9c-0.5-0.1-1.1-0.2-1.7-0.2v-1c1-0.1,2.3-0.2,3.4-0.1v8.3
		c0.6,0,1.1,0.1,1.6,0.2v1H496.4z M499,513.4c-0.6,0-1.2-0.5-1.2-1.1c0-0.6,0.5-1.1,1.2-1.1c0.6,0,1.1,0.5,1.1,1.1
		C500.1,512.9,499.6,513.4,499,513.4z"/>
	<path d="M506.6,529.8c-2.5,0-4-1-4-2.9c0-1.1,0.7-2.1,1.6-2.5c-0.6-0.2-0.9-0.8-0.9-1.4c0-0.7,0.4-1.3,1.1-1.6
		c-0.9-0.5-1.4-1.4-1.4-2.6c0-1.9,1.4-3.6,4-3.6c0.5,0,0.9,0.1,1.3,0.2h3.2v1.4h-1.6c0.5,0.4,0.8,1,0.8,1.8c0,2-1.3,3.5-4,3.5
		c-0.4,0-0.7,0-1-0.1c-0.4,0.2-0.6,0.5-0.6,0.8c0,0.5,0.5,0.7,1.6,0.7l1.7,0.1c2.1,0.1,3.2,1,3.2,2.8
		C511.6,528.2,509.6,529.8,506.6,529.8z M507.9,524.8l-1.8-0.1c-0.2,0-0.4,0-0.6,0c-0.7,0.5-1.2,1.2-1.2,1.9c0,1.1,1.1,1.8,2.6,1.8
		c1.9,0,3-0.9,3-2.1C509.9,525.5,509.2,524.9,507.9,524.8z M506.8,516.5c-1.4,0-2.3,0.9-2.3,2.1c0,1.3,0.8,2.1,2.2,2.1
		c1.4,0,2.2-0.8,2.2-2.1C509,517.3,508.2,516.5,506.8,516.5z"/>
	<path d="M520.2,524.9v-6.1c0-1.3-0.4-2.1-1.6-2.1c-1.6,0-2.7,1.6-2.7,3.7v3.3c0.5,0,1.1,0.1,1.5,0.2v1h-4.9v-1
		c0.5-0.1,1.1-0.2,1.6-0.2v-11.4c-0.5-0.1-1.1-0.2-1.7-0.2v-1c1-0.1,2.3-0.2,3.4-0.1v4.5c0,0.6,0,1.4-0.2,1.9l0,0
		c0.6-1.3,1.7-2.1,3.3-2.1c2.2,0,2.9,1.4,2.9,3.1v5.4c0.5,0,1.1,0.1,1.6,0.2v1H520.2z"/>
	<path d="M528.2,525c-2,0-2.6-0.8-2.6-2.9v-5.5h-2v-1.3h2v-3.1l1.7-0.5v3.6h2.7v1.3h-2.7v4.9c0,1.6,0.3,2,1.4,2
		c0.4,0,0.9-0.1,1.2-0.2l0.2,1.4C529.6,525,528.8,525,528.2,525z"/>
	<path d="M536.7,528.9l-1.2-0.6c1.6-2.7,2.4-5.7,2.4-8.8c0-3.3-0.8-6.2-2.4-8.9l1.3-0.6c2.2,3.6,2.8,6.6,2.8,9.4
		C539.5,522.1,538.9,525.4,536.7,528.9z"/>
	<path d="M547.1,527.8l-0.7-0.7c1.2-1.3,1.3-2.2,0.8-2.8c-0.5-0.7-0.1-1.7,0.8-1.7C549.4,522.7,550,525.1,547.1,527.8z M548,519.4
		c-0.7,0-1.2-0.5-1.2-1.2c0-0.7,0.5-1.2,1.2-1.2c0.7,0,1.2,0.5,1.2,1.2C549.2,518.9,548.7,519.4,548,519.4z"/>
</g>
<g enable-background="new    ">
	<path d="M74.5,475.9c-3.2-2.9-4.7-6-4.7-9.7c0-3.9,1.9-7.2,4.8-9.8l1,1c-2.6,2.5-4,5.5-4,8.6c0,3.2,1.3,6.1,4,8.8L74.5,475.9z"/>
	<path d="M80.1,471.5V470h3.5v-8.1l-3.3,2.2l-0.6-1.5L84,460h1.5v10h3v1.6H80.1z"/>
	<path d="M92.3,474.1c2-0.5,2.6-1.4,2.6-2.1c0-1.2-1-1.2-1-2.3c0-0.8,0.6-1.4,1.4-1.4c1.2,0,1.8,1.2,1.8,2.4c0,2.4-1.6,3.8-4.4,4.5
		L92.3,474.1z"/>
	<path d="M102.8,471.5v-1.4l2.7-2.5c2.4-2.1,3-2.9,3-4.2c0-1.3-0.7-2.1-2.4-2.1c-1.1,0-2.2,0.5-2.8,1l-0.4-1.5c1-0.6,2.1-1,3.5-1
		c2.6,0,3.9,1.5,3.9,3.4c0,1.6-0.8,2.9-3,4.7l-2.3,2l-0.1,0c0.9-0.1,3-0.1,5.9-0.1v1.7H102.8z"/>
	<path d="M116.5,456.4c3.2,3,4.7,6,4.7,9.7c0,3.9-1.9,7.2-4.8,9.8l-1-1c2.6-2.5,4-5.5,4-8.6c0-3.2-1.3-6.2-4-8.8L116.5,456.4z"/>
</g>
<line fill="none" stroke="#000000" stroke-width="2" x1="61.3" y1="483.4" x2="221.1" y2="483.4"/>
<line fill="none" stroke="#000000" stroke-width="2" x1="61.3" y1="600.8" x2="221.1" y2="600.8"/>
<line fill="none" stroke="#000000" stroke-width="2" x1="220.1" y1="601.7" x2="220.1" y2="482.8"/>
<line fill="none" stroke="#000000" stroke-width="2" x1="62.2" y1="601.7" x2="62.2" y2="482.8"/>
<g enable-background="new    ">
	<path fill="#808080" d="M29.9,695.1v-1c0.5-0.1,1.1-0.2,1.7-0.2v-10.4c-0.6,0-1.2-0.1-1.7-0.2v-1h8.4v3h-1.2
		c-0.1-0.6-0.2-1.2-0.2-1.6h-3.5v4.3h2.8c0.1-0.5,0.2-0.9,0.3-1.3h1.1v3.9h-1.1c-0.1-0.4-0.2-0.9-0.3-1.3h-2.8v4.6h3.5
		c0.1-0.5,0.2-1.1,0.3-1.7h1.2v3.1H29.9z"/>
	<path fill="#808080" d="M46.8,695.1l-2.1-3.6l-2.1,3.6h-2.9v-1.1c0.6-0.1,1.1-0.2,1.6-0.3l2.3-3.5l-2.2-3.4c-0.5,0-1.1-0.2-1.6-0.3
		v-1.1h2.9l2,3.5l2.1-3.5h2.8v1.1c-0.6,0.1-1.1,0.2-1.6,0.3l-2.1,3.4l2.3,3.5c0.5,0,1.1,0.2,1.6,0.3v1.1H46.8z"/>
	<path fill="#808080" d="M56.7,695.1c0-0.7,0-1.4,0.1-1.9h0c-0.5,1.2-1.7,2.1-3.2,2.1c-1.6,0-2.6-1-2.6-2.5c0-2.1,2.1-3.3,5.7-3.3
		v-0.7c0-1.3-0.5-2.1-2-2.1c-0.6,0-1.2,0.1-1.8,0.3c0,0.5-0.1,1-0.2,1.6h-1.1v-2.6c1-0.3,2.1-0.5,3.2-0.5c2.8,0,3.6,1.3,3.6,3.2v5.2
		c0.5,0.1,1.1,0.2,1.6,0.2v1C59,695.1,57.7,695.2,56.7,695.1z M56.6,690.7c-3,0-4,0.7-4,1.8c0,0.8,0.6,1.4,1.5,1.4
		c1.5,0,2.6-1.5,2.6-3V690.7z"/>
	<path fill="#808080" d="M74.4,695.1V689c0-1.3-0.3-2.2-1.5-2.2c-1.4,0-2.7,1.4-2.7,3.8v3.2c0.5,0,1.1,0.1,1.6,0.2v1h-3.3V689
		c0-1.2-0.2-2.2-1.6-2.2c-1.4,0-2.7,1.6-2.7,3.8v3.2c0.5,0,1.1,0.1,1.5,0.2v1h-4.9v-1c0.5-0.1,1.1-0.2,1.7-0.2v-6.9
		c-0.5-0.1-1.1-0.2-1.7-0.2v-1c1-0.1,2.3-0.2,3.4-0.1c0,0.6-0.1,1.4-0.2,2l0,0c0.5-1.3,1.8-2.2,3.3-2.2c2,0,2.6,1.4,2.6,2.2
		c0.4-0.9,1.4-2.2,3.3-2.2c1.8,0,2.8,1,2.8,3.1v5.3c0.6,0,1.1,0.1,1.6,0.2v1H74.4z"/>
	<path fill="#808080" d="M83.2,695.2c-0.6,0-1.1,0-1.6-0.1v3.5c0.6,0,1.2,0.1,1.7,0.2v1h-5v-1c0.5-0.1,1-0.2,1.6-0.2v-11.6
		c-0.5-0.1-1.1-0.2-1.6-0.2v-1c0.9-0.1,2.2-0.2,3.3-0.1c0,0.5-0.1,1.4-0.2,1.9l0,0c0.5-1.3,1.7-2.1,3.2-2.1c2.2,0,3.5,1.6,3.5,4.5
		C88.1,693.3,86.3,695.2,83.2,695.2z M84.2,686.8c-1.7,0-2.6,2-2.6,3.7v3.1c0.5,0.2,1.1,0.2,1.7,0.2c1.8,0,3-1.1,3-3.8
		C86.3,688,85.6,686.8,84.2,686.8z"/>
	<path fill="#808080" d="M89.3,695.1v-1c0.5-0.1,1.1-0.2,1.6-0.2v-11.4c-0.5-0.1-1.1-0.2-1.7-0.2v-1c1-0.1,2.3-0.2,3.4-0.1v12.7
		c0.6,0,1.1,0.1,1.6,0.2v1H89.3z"/>
	<path fill="#808080" d="M103.3,690.3H97c-0.1,2.5,0.9,3.6,3,3.6c0.9,0,1.9-0.2,2.7-0.6l0.2,1.4c-1,0.4-2.1,0.6-3.3,0.6
		c-2.9,0-4.5-1.5-4.5-4.9c0-2.8,1.6-5,4.3-5c2.7,0,3.8,1.8,3.8,3.9C103.3,689.5,103.3,689.9,103.3,690.3z M99.4,686.7
		c-1.2,0-2.1,0.9-2.3,2.4h4.5C101.6,687.6,100.8,686.7,99.4,686.7z"/>
	<path fill="#808080" d="M107.3,689.7c-0.7,0-1.2-0.5-1.2-1.2c0-0.7,0.5-1.2,1.2-1.2c0.7,0,1.2,0.5,1.2,1.2
		C108.5,689.1,107.9,689.7,107.3,689.7z M107.3,695.3c-0.7,0-1.2-0.5-1.2-1.2c0-0.7,0.5-1.2,1.2-1.2c0.7,0,1.2,0.5,1.2,1.2
		C108.5,694.7,107.9,695.3,107.3,695.3z"/>
</g>
<g enable-background="new    ">
	<path d="M125.6,687.1c-2.2-0.4-3.2,1.1-3.2,4.2v2.6c0.6,0,1.2,0.1,1.7,0.2v1H119v-1c0.5-0.1,1.1-0.2,1.7-0.2v-6.9
		c-0.5-0.1-1.1-0.2-1.7-0.2v-1c1-0.1,2.3-0.2,3.3-0.1c0,0.6-0.1,1.5-0.2,2.3h0c0.4-1.3,1.4-2.6,3.5-2.4L125.6,687.1z"/>
	<path d="M134.8,690.3h-6.2c-0.1,2.5,0.9,3.6,3,3.6c0.9,0,1.9-0.2,2.7-0.6l0.2,1.4c-1,0.4-2.1,0.6-3.3,0.6c-2.9,0-4.5-1.5-4.5-4.9
		c0-2.8,1.6-5,4.3-5c2.7,0,3.8,1.8,3.8,3.9C134.8,689.5,134.8,689.9,134.8,690.3z M131,686.7c-1.2,0-2.1,0.9-2.3,2.4h4.5
		C133.1,687.6,132.3,686.7,131,686.7z"/>
	<path d="M140.8,695.3c-2.4,0-4.3-1.1-4.3-4.6c0-3.1,1.6-5.2,4.7-5.2c0.8,0,1.7,0.1,2.3,0.3v2.8h-1.1c-0.1-0.6-0.2-1.1-0.2-1.6
		c-0.3-0.1-0.8-0.2-1.3-0.2c-1.7,0-2.7,1.4-2.7,3.5c0,1.9,0.6,3.4,2.9,3.4c0.8,0,1.6-0.2,2.3-0.5l0.3,1.4
		C143,695,142,695.3,140.8,695.3z"/>
	<path d="M148.9,695.3c-2,0-2.6-0.8-2.6-2.9v-5.5h-2v-1.3h2v-3.1l1.7-0.5v3.6h2.7v1.3H148v4.9c0,1.6,0.3,2,1.4,2
		c0.4,0,0.9-0.1,1.2-0.2l0.2,1.4C150.2,695.2,149.5,695.3,148.9,695.3z"/>
	<path d="M163.4,699.4c-3.2-2.9-4.7-6-4.7-9.7c0-3.9,1.9-7.2,4.8-9.8l1,1c-2.6,2.5-4,5.5-4,8.6c0,3.2,1.3,6.1,4,8.8L163.4,699.4z"/>
	<path d="M169.1,695.1v-1.6h3.5v-8.1l-3.3,2.2l-0.6-1.5l4.2-2.6h1.5v10h3v1.6H169.1z"/>
	<path d="M181.3,697.6c2-0.5,2.6-1.4,2.6-2.1c0-1.2-1-1.2-1-2.3c0-0.8,0.6-1.4,1.4-1.4c1.2,0,1.8,1.2,1.8,2.4c0,2.4-1.6,3.8-4.4,4.5
		L181.3,697.6z"/>
	<path d="M191.7,695.1v-1.4l2.7-2.5c2.4-2.1,3-2.9,3-4.2c0-1.3-0.7-2.1-2.4-2.1c-1.1,0-2.2,0.5-2.8,1l-0.4-1.5c1-0.6,2.1-1,3.5-1
		c2.6,0,3.9,1.5,3.9,3.4c0,1.6-0.8,2.9-3,4.7l-2.3,2l-0.1,0c0.9-0.1,3-0.1,5.9-0.1v1.7H191.7z"/>
	<path d="M204.3,697.6c2-0.5,2.6-1.4,2.6-2.1c0-1.2-1-1.2-1-2.3c0-0.8,0.6-1.4,1.4-1.4c1.2,0,1.8,1.2,1.8,2.4c0,2.4-1.6,3.8-4.4,4.5
		L204.3,697.6z"/>
	<path d="M221.6,693.5v3.2h-1.7v-3.2H214l-0.1-1.4l5.3-8.5h2.4v8.3h2.2v1.6H221.6z M219.9,685.2L219.9,685.2l-4.3,6.8
		c1.1,0,3.6,0,4.3,0V685.2z"/>
	<path d="M227.3,697.6c2-0.5,2.6-1.4,2.6-2.1c0-1.2-1-1.2-1-2.3c0-0.8,0.6-1.4,1.4-1.4c1.2,0,1.8,1.2,1.8,2.4c0,2.4-1.6,3.8-4.4,4.5
		L227.3,697.6z"/>
	<path d="M240.4,696.9c-0.8,0-1.7-0.1-2.4-0.3l0.3-1.6c0.7,0.2,1.5,0.4,2.3,0.4c2,0,3.4-1.2,3.4-2.6c0-1.4-1.1-2.4-3.2-2.4
		c-0.7,0-1.2,0-1.7,0.1v-1.4h0.4c2.7,0,4.1-0.8,4.1-2.4c0-1.2-0.9-1.9-2.3-1.9c-1.1,0-1.9,0.3-2.7,0.7l-0.3-1.5
		c1-0.4,2.1-0.7,3.3-0.7c2.6,0,3.9,1.3,3.9,3.1c0,1.5-0.9,2.6-2.3,3l0,0c1.6,0.2,2.8,1.5,2.8,3.1
		C245.9,695.1,243.6,696.9,240.4,696.9z"/>
	<path d="M251.5,680c3.2,3,4.7,6,4.7,9.7c0,3.9-1.9,7.2-4.8,9.8l-1-1c2.6-2.5,4-5.5,4-8.6c0-3.2-1.3-6.2-4-8.8L251.5,680z"/>
	<path d="M265.6,698.1l-0.7-0.7c1.2-1.3,1.3-2.2,0.8-2.8c-0.5-0.7-0.1-1.7,0.8-1.7C267.9,692.9,268.5,695.4,265.6,698.1z
		 M266.5,689.7c-0.7,0-1.2-0.5-1.2-1.2c0-0.7,0.5-1.2,1.2-1.2c0.7,0,1.2,0.5,1.2,1.2C267.7,689.1,267.1,689.7,266.5,689.7z"/>
</g>
<g enable-background="new    ">
	<path d="M127.1,615.9l-2.6,8.3h-2l-1.9-5.6c-0.2-0.6-0.4-1.2-0.5-1.9h0c-0.2,0.8-0.4,1.6-0.7,2.4l-1.6,5.1h-2l-2.5-8.3
		c-0.4,0-0.8-0.1-1.2-0.2v-1h4.4v1c-0.4,0.1-0.8,0.2-1.3,0.2l1.2,4.3c0.2,0.8,0.4,1.6,0.6,2.2h0c0.2-0.8,0.4-1.6,0.7-2.3l1.7-5.4
		h1.8l1.7,5.4c0.3,1.1,0.5,1.7,0.7,2.3h0c0.2-0.7,0.3-1.2,0.6-2.1l1.2-4.3c-0.4,0-0.9-0.1-1.3-0.2v-1h4.3v1
		C127.9,615.8,127.5,615.9,127.1,615.9z"/>
	<path d="M129,624.2v-1c0.5-0.1,1.1-0.2,1.7-0.2V616c-0.5-0.1-1.1-0.2-1.7-0.2v-1c1-0.1,2.3-0.2,3.4-0.1v8.3c0.6,0,1.1,0.1,1.6,0.2
		v1H129z M131.5,612.8c-0.6,0-1.2-0.5-1.2-1.1c0-0.6,0.5-1.1,1.2-1.1c0.6,0,1.1,0.5,1.1,1.1C132.7,612.3,132.1,612.8,131.5,612.8z"
		/>
	<path d="M141.7,624.2c0-0.5,0-1.4,0.2-1.9l0,0c-0.5,1.3-1.7,2.1-3.2,2.1c-2.3,0-3.5-1.7-3.5-4.5c0-3.3,1.9-5.4,4.9-5.4
		c0.5,0,1,0,1.6,0.1v-3.1c-0.5-0.1-1.1-0.2-1.7-0.2v-1c1-0.1,2.3-0.2,3.4-0.1v12.6c0.5,0.1,1.1,0.2,1.6,0.2v1
		C144.1,624.2,142.8,624.3,141.7,624.2z M141.7,616.1c-0.6-0.1-1.2-0.2-1.7-0.2c-1.8,0-3,1.1-3,3.8c0,2.1,0.7,3.2,2.1,3.2
		c1.7,0,2.6-2,2.6-3.7V616.1z"/>
	<path d="M149.6,624.4c-2,0-2.6-0.8-2.6-2.9V616h-2v-1.3h2v-3.1l1.7-0.5v3.6h2.7v1.3h-2.7v4.9c0,1.6,0.3,2,1.4,2
		c0.4,0,0.9-0.1,1.2-0.2l0.2,1.4C150.9,624.3,150.2,624.4,149.6,624.4z"/>
	<path d="M160.2,624.2v-6.1c0-1.3-0.4-2.2-1.6-2.2c-1.6,0-2.7,1.6-2.7,3.7v3.3c0.5,0,1.1,0.1,1.5,0.2v1h-4.9v-1
		c0.5-0.1,1.1-0.2,1.6-0.2v-11.4c-0.5-0.1-1.1-0.2-1.7-0.2v-1c1-0.1,2.3-0.2,3.4-0.1v4.5c0,0.6,0,1.4-0.2,1.9l0,0
		c0.6-1.3,1.7-2.1,3.3-2.1c2.2,0,2.9,1.4,2.9,3.1v5.4c0.5,0,1.1,0.1,1.6,0.2v1H160.2z"/>
</g>
<g enable-background="new    ">
	<path d="M236.8,548.5v-6.1c0-1.3-0.4-2.2-1.6-2.2c-1.6,0-2.7,1.6-2.7,3.7v3.3c0.5,0,1.1,0.1,1.5,0.2v1h-4.9v-1
		c0.5-0.1,1.1-0.2,1.6-0.2v-11.4c-0.5-0.1-1.1-0.2-1.7-0.2v-1c1-0.1,2.3-0.2,3.4-0.1v4.5c0,0.6,0,1.4-0.2,1.9l0,0
		c0.6-1.3,1.7-2.1,3.3-2.1c2.2,0,2.9,1.4,2.9,3.1v5.4c0.5,0,1.1,0.1,1.6,0.2v1H236.8z"/>
	<path d="M249.3,543.7H243c-0.1,2.5,0.9,3.6,3,3.6c0.9,0,1.9-0.2,2.7-0.6l0.2,1.4c-1,0.4-2.1,0.6-3.3,0.6c-2.9,0-4.5-1.5-4.5-4.9
		c0-2.8,1.6-5,4.3-5c2.7,0,3.8,1.8,3.8,3.9C249.3,542.9,249.3,543.3,249.3,543.7z M245.4,540.1c-1.2,0-2.1,0.9-2.3,2.4h4.5
		C247.6,541,246.8,540.1,245.4,540.1z"/>
	<path d="M250.8,548.5v-1c0.5-0.1,1.1-0.2,1.7-0.2v-6.9c-0.5-0.1-1.1-0.2-1.7-0.2v-1c1-0.1,2.3-0.2,3.4-0.1v8.3
		c0.6,0,1.1,0.1,1.6,0.2v1H250.8z M253.3,537c-0.6,0-1.2-0.5-1.2-1.1c0-0.6,0.5-1.1,1.2-1.1c0.6,0,1.1,0.5,1.1,1.1
		C254.4,536.5,253.9,537,253.3,537z"/>
	<path d="M260.9,553.4c-2.5,0-4-1-4-2.9c0-1.1,0.7-2.1,1.6-2.5c-0.6-0.2-0.9-0.8-0.9-1.4c0-0.7,0.4-1.3,1.1-1.6
		c-0.9-0.5-1.4-1.4-1.4-2.6c0-1.9,1.4-3.6,4-3.6c0.5,0,0.9,0.1,1.3,0.2h3.2v1.4h-1.6c0.5,0.4,0.8,1,0.8,1.8c0,2-1.3,3.5-4,3.5
		c-0.4,0-0.7,0-1-0.1c-0.4,0.2-0.6,0.5-0.6,0.8c0,0.5,0.5,0.7,1.6,0.7l1.7,0.1c2.1,0.1,3.2,1,3.2,2.8
		C265.9,551.8,263.9,553.4,260.9,553.4z M262.2,548.4l-1.8-0.1c-0.2,0-0.4,0-0.6,0c-0.7,0.5-1.2,1.2-1.2,1.9c0,1.1,1.1,1.8,2.6,1.8
		c1.9,0,3-0.9,3-2.1C264.2,549.1,263.6,548.5,262.2,548.4z M261.2,540.1c-1.4,0-2.3,0.9-2.3,2.1c0,1.3,0.8,2.1,2.2,2.1
		c1.4,0,2.2-0.8,2.2-2.1C263.3,540.9,262.5,540.1,261.2,540.1z"/>
	<path d="M274.5,548.5v-6.1c0-1.3-0.4-2.2-1.6-2.2c-1.6,0-2.7,1.6-2.7,3.7v3.3c0.5,0,1.1,0.1,1.5,0.2v1h-4.9v-1
		c0.5-0.1,1.1-0.2,1.6-0.2v-11.4c-0.5-0.1-1.1-0.2-1.7-0.2v-1c1-0.1,2.3-0.2,3.4-0.1v4.5c0,0.6,0,1.4-0.2,1.9l0,0
		c0.6-1.3,1.7-2.1,3.3-2.1c2.2,0,2.9,1.4,2.9,3.1v5.4c0.5,0,1.1,0.1,1.6,0.2v1H274.5z"/>
	<path d="M282.6,548.6c-2,0-2.6-0.8-2.6-2.9v-5.5h-2v-1.3h2v-3.1l1.7-0.5v3.6h2.7v1.3h-2.7v4.9c0,1.6,0.3,2,1.4,2
		c0.4,0,0.9-0.1,1.2-0.2l0.2,1.4C283.9,548.6,283.2,548.6,282.6,548.6z"/>
</g>
</svg>
