<?xml version="1.0" encoding="utf-8"?>
<!-- Generator: Adobe Illustrator 18.0.0, SVG Export Plug-In . SVG Version: 6.00 Build 0)  -->
<!DOCTYPE svg PUBLIC "-//W3C//DTD SVG 1.1//EN" "http://www.w3.org/Graphics/SVG/1.1/DTD/svg11.dtd">
<svg version="1.1" id="Layer_1" xmlns="http://www.w3.org/2000/svg" xmlns:xlink="http://www.w3.org/1999/xlink" x="0px" y="0px"
	 viewBox="0 0 612 792" enable-background="new 0 0 612 792" xml:space="preserve">
<g id="Layer_2" display="none">
	<rect x="270.1" y="678.4" display="inline" fill="#FBB03B" width="14.5" height="28.7"/>
	<rect x="421.6" y="738.8" display="inline" fill="#FBB03B" width="7.2" height="28.7"/>
	<rect x="212" y="678.4" display="inline" fill="#00FFFF" width="47.3" height="28.7"/>
	<rect x="153" y="678.4" display="inline" fill="#00FF00" width="47.3" height="28.7"/>
	<rect x="365.7" y="738.8" display="inline" fill="#00FFFF" width="47.3" height="29.1"/>
	<rect x="267.5" y="739.2" display="inline" fill="#00FF00" width="47.5" height="28.5"/>
	<rect x="65.3" y="738.4" display="inline" fill="#FFFF00" width="128.6" height="29.1"/>
	<rect x="65.3" y="678.7" display="inline" fill="#FFFF00" width="59.9" height="28.7"/>
	<text transform="matrix(1 0 0 1 66.3311 700.0293)" display="inline" font-family="'TheSansMono-W3Light'" font-size="24.3844">line (1,0,4,5);</text>
</g>
<g id="Layer_1_1_">
	<g enable-background="new    ">
		<path d="M73.4,753.5c-2.5,0-4.9-0.2-6.2-0.2H64V751c1-0.3,2.1-0.5,3.2-0.5v-22.8c-1.1-0.1-2.2-0.3-3.2-0.5v-2.3h3.1
			c1.9,0,4.8-0.1,7.4-0.1c7.9,0,12.7,4.3,12.7,14C87.2,748.5,81.5,753.5,73.4,753.5z M74.2,727.9c-1.3,0-2.8,0.1-3.7,0.1v21.9
			c1,0.2,2.3,0.3,3.3,0.3c5.8,0,9.8-3.5,9.8-11.2C83.6,731.8,80.6,727.9,74.2,727.9z"/>
		<path d="M102.4,735.7c-4.2-0.8-6,2.4-6,9.1v5.6c1.1,0.1,2.2,0.3,3.2,0.5v2.3h-9.7V751c1-0.3,2.1-0.5,3.2-0.5v-15.1
			c-0.9-0.2-2.1-0.3-3.2-0.4v-2.3c1.8-0.3,4.4-0.4,6.4-0.3c0,1.3-0.1,3.2-0.4,5h0c0.8-2.9,2.6-5.8,6.6-5.4L102.4,735.7z"/>
		<path d="M115.3,753.3c0-1.5,0-3,0.2-4.2h-0.1c-0.9,2.6-3.2,4.5-6.2,4.5s-5-2.1-5-5.5c0-4.5,4.1-7.2,10.9-7.2v-1.6
			c0-2.9-0.9-4.6-3.8-4.6c-1.1,0-2.4,0.2-3.4,0.6c-0.1,1.1-0.3,2.2-0.4,3.4h-2v-5.7c1.8-0.7,4-1.2,6.2-1.2c5.3,0,6.8,2.8,6.8,7v11.4
			c0.9,0.2,2.1,0.3,3.1,0.4v2.3C119.8,753.3,117.3,753.4,115.3,753.3z M115.1,743.6c-5.7,0-7.7,1.6-7.7,4c0,1.8,1.1,3.1,2.8,3.1
			c2.9,0,4.9-3.3,4.9-6.6V743.6z"/>
		<path d="M150.9,735.2l-5,18.2h-3.8l-3.6-12.3c-0.4-1.3-0.7-2.7-1-4.2h0c-0.4,1.9-0.8,3.5-1.3,5.3l-3,11.2h-3.8l-4.7-18.2
			c-0.8-0.1-1.6-0.3-2.3-0.5v-2.3h8.4v2.3c-0.8,0.3-1.6,0.4-2.5,0.5l2.2,9.4c0.4,1.7,0.8,3.4,1.1,4.8h0c0.3-1.8,0.8-3.5,1.2-5.1
			l3.3-11.8h3.4l3.3,11.8c0.7,2.5,1,3.7,1.3,5.1h0c0.3-1.5,0.7-2.7,1.1-4.6l2.4-9.5c-0.8-0.1-1.8-0.3-2.5-0.5v-2.3h8.2v2.3
			C152.5,734.9,151.7,735.1,150.9,735.2z"/>
		<path d="M174.2,753.3c0-1.5,0-3,0.2-4.2h-0.1c-0.9,2.6-3.2,4.5-6.2,4.5s-5-2.1-5-5.5c0-4.5,4.1-7.2,10.9-7.2v-1.6
			c0-2.9-0.9-4.6-3.8-4.6c-1.1,0-2.4,0.2-3.4,0.6c-0.1,1.1-0.3,2.2-0.4,3.4h-2v-5.7c1.8-0.7,4-1.2,6.2-1.2c5.3,0,6.8,2.8,6.8,7v11.4
			c0.9,0.2,2.1,0.3,3.1,0.4v2.3C178.7,753.3,176.1,753.4,174.2,753.3z M174,743.6c-5.7,0-7.7,1.6-7.7,4c0,1.8,1.1,3.1,2.8,3.1
			c2.9,0,4.9-3.3,4.9-6.6V743.6z"/>
		<path d="M189.6,753.3V751c0.9-0.3,2-0.5,3.1-0.5v-24.9c-0.9-0.2-2.1-0.3-3.1-0.4v-2.3c1.9-0.3,4.3-0.4,6.4-0.3v27.9
			c1.1,0.1,2.2,0.3,3.1,0.5v2.3H189.6z"/>
		<path d="M200.8,753.3V751c1-0.3,2.1-0.5,3.2-0.5v-15.1c-0.9-0.2-2.1-0.3-3.2-0.4v-2.3c1.8-0.3,4.4-0.4,6.5-0.3v18.1
			c1.1,0.1,2.2,0.3,3.1,0.5v2.3H200.8z M205.7,728.2c-1.2,0-2.2-1.1-2.2-2.4s1-2.5,2.2-2.5c1.2,0,2.2,1.1,2.2,2.5
			C207.8,727.1,206.8,728.2,205.7,728.2z"/>
		<path d="M226.8,753.3v-13.5c0-2.9-0.7-4.7-3.1-4.7c-3,0-5.2,3.5-5.2,8.2v7.2c1,0.1,2,0.3,2.9,0.5v2.3h-9.4V751
			c1-0.3,2.1-0.5,3.2-0.5v-15.1c-0.9-0.2-2.1-0.3-3.2-0.4v-2.3c1.8-0.3,4.4-0.4,6.4-0.3c0,1.2-0.1,3.2-0.3,4.4h0
			c1.1-2.9,3.3-4.8,6.4-4.8c4.1,0,5.4,3,5.4,6.7v11.8c1.1,0.1,2.2,0.3,3,0.5v2.3H226.8z"/>
		<path d="M250.6,742.8h-11.9c-0.1,5.5,1.8,7.8,5.7,7.8c1.8,0,3.6-0.4,5.2-1.2l0.5,3c-1.8,0.8-4,1.3-6.3,1.3
			c-5.5,0-8.5-3.4-8.5-10.7c0-6.2,3-11,8.2-11c5.1,0,7.2,3.9,7.2,8.6C250.7,741.1,250.6,741.9,250.6,742.8z M243.3,734.9
			c-2.4,0-4.1,2-4.5,5.2h8.5C247.4,736.9,245.8,734.9,243.3,734.9z"/>
		<path d="M274.5,725.8c-0.9-0.3-1.9-0.5-2.7-0.5c-2.6,0-3.8,1.7-3.8,5.4v1.6h5.1v2.9H268v15.2c1.1,0.1,2.2,0.3,3.2,0.5v2.3h-9.7
			V751c1-0.3,2.1-0.5,3.2-0.5v-15.2h-4v-2.9h4v-1.6c0-5.8,2.5-8.5,7.1-8.5c1,0,2,0.1,3,0.4L274.5,725.8z"/>
		<path d="M287.1,735.7c-4.2-0.8-6,2.4-6,9.1v5.6c1.1,0.1,2.2,0.3,3.2,0.5v2.3h-9.7V751c1-0.3,2.1-0.5,3.2-0.5v-15.1
			c-0.9-0.2-2.1-0.3-3.2-0.4v-2.3c1.8-0.3,4.4-0.4,6.4-0.3c0,1.3-0.1,3.2-0.4,5h0c0.8-2.9,2.6-5.8,6.6-5.4L287.1,735.7z"/>
		<path d="M297.5,753.7c-5,0-8.2-3.3-8.2-10.5c0-6.3,3.4-11.2,8.9-11.2c4.6,0,8.2,2.9,8.2,10.5C306.4,748.8,303,753.7,297.5,753.7z
			 M297.9,735.2c-2.7,0-5.2,2.3-5.2,7.7c0,4.8,1.8,7.6,5.1,7.6c2.7,0,5.1-2.4,5.1-7.7C302.9,737.9,301.2,735.2,297.9,735.2z"/>
		<path d="M334.7,753.3v-13.4c0-2.9-0.6-4.8-2.9-4.8c-2.6,0-5.1,3.2-5.1,8.3v7.1c1,0.1,2,0.3,3,0.5v2.3h-6.2v-13.4
			c0-2.7-0.5-4.8-3-4.8c-2.7,0-5.1,3.5-5.1,8.3v7.1c1,0.1,2,0.3,2.9,0.5v2.3h-9.4V751c1-0.3,2.1-0.5,3.2-0.5v-15.1
			c-0.9-0.2-2.1-0.3-3.2-0.4v-2.3c1.8-0.3,4.4-0.4,6.4-0.3c0,1.2-0.1,3.2-0.3,4.4l0.1,0c1-2.9,3.4-4.8,6.3-4.8c3.8,0,4.9,3,5,4.8
			c0.7-2,2.7-4.8,6.2-4.8c3.4,0,5.4,2.1,5.4,6.9v11.6c1.1,0.1,2.2,0.3,3.1,0.5v2.3H334.7z"/>
		<path d="M357.7,762.1c-4.3-7.9-5.3-14.6-5.3-20.8c0-6.2,1.2-13.4,5.4-20.9l2.4,1.3c-3,5.9-4.5,12.6-4.5,19.4
			c0,7.2,1.5,13.7,4.6,19.6L357.7,762.1z"/>
		<path d="M370.5,753.3V751c1.2-0.3,2.6-0.5,4-0.5v-15.5l-4.1,2l-0.5-3.2l5.4-2.4h2.7v19.1c1,0.1,2.2,0.3,3.3,0.5v2.3H370.5z"/>
		<path d="M392.6,759.8l-1.4-1.4c2.3-2.9,2.4-4.8,1.6-6.1c-1-1.5-0.2-3.8,1.6-3.8C397,748.6,398.2,753.9,392.6,759.8z"/>
		<path d="M415.8,753.7c-5.1,0-9-3.4-9-11.2c0-7.2,4.5-11.6,9.8-11.6c6,0,9,4.5,9,11.1C425.6,749.4,421.1,753.7,415.8,753.7z
			 M416.3,734.2c-3.4,0-6.2,3-6.2,8.1c0,4.6,1.8,8.2,6,8.2c3.4,0,6.1-3,6.1-8.2C422.3,737.8,420.4,734.2,416.3,734.2z"/>
		<path d="M438.8,762.1l-2.4-1.3c3-5.9,4.5-12.6,4.5-19.4c0-7.2-1.5-13.6-4.6-19.6l2.5-1.3c4.3,7.8,5.3,14.5,5.3,20.7
			C444.1,747.3,442.9,754.5,438.8,762.1z"/>
		<path d="M463.2,753.7c-3.7,0-4.9-1.8-4.9-6.3v-12h-3.7v-2.9h3.7v-6.8l3.3-1.1v7.8h5.1v2.9h-5.1V746c0,3.5,0.6,4.4,2.6,4.4
			c0.8,0,1.6-0.1,2.3-0.3l0.3,3.1C465.8,753.5,464.4,753.7,463.2,753.7z"/>
		<path d="M477.7,753.7c-5,0-8.2-3.3-8.2-10.5c0-6.3,3.4-11.2,8.9-11.2c4.6,0,8.2,2.9,8.2,10.5C486.6,748.8,483.2,753.7,477.7,753.7
			z M478.1,735.2c-2.7,0-5.2,2.3-5.2,7.7c0,4.8,1.8,7.6,5.1,7.6c2.7,0,5.1-2.4,5.1-7.7C483.2,737.9,481.4,735.2,478.1,735.2z"/>
		<path d="M503.9,762.1c-4.3-7.9-5.3-14.6-5.3-20.8c0-6.2,1.2-13.4,5.4-20.9l2.4,1.3c-3,5.9-4.5,12.6-4.5,19.4
			c0,7.2,1.5,13.7,4.6,19.6L503.9,762.1z"/>
		<path d="M530.2,753.3v5.1c1.1,0.1,2.2,0.3,3.1,0.6v2.1h-9.5V759c1-0.3,2.1-0.5,3.2-0.6v-5.1h-10.8l-0.5-3.1l10.3-18.8h4.3v18.5
			h4.2v3.4H530.2z M526.9,735.1L526.9,735.1l-8.1,14.8c2.1,0,6.8,0,8.1,0V735.1z"/>
		<path d="M545.4,759.8l-1.4-1.4c2.3-2.9,2.4-4.8,1.6-6.1c-1-1.5-0.2-3.8,1.6-3.8C549.8,748.6,551.1,753.9,545.4,759.8z"/>
		<path d="M562.6,761.5c-1,0-1.9-0.1-2.7-0.2l0.3-3.5c0.7,0.2,1.7,0.3,2.6,0.3c4.5,0,6.8-2.7,6.8-6.2c0-3.5-2.5-6.1-6.9-6.1
			c-0.7,0-1.4,0-2.1,0v-14.5h11.7v3.7h-8.5v7.5c6.1,0,9.5,3.7,9.5,8.7C573.3,757.2,568.7,761.5,562.6,761.5z"/>
		<path d="M586.3,762.1l-2.4-1.3c3-5.9,4.5-12.6,4.5-19.4c0-7.2-1.5-13.6-4.6-19.6l2.5-1.3c4.3,7.8,5.3,14.5,5.3,20.7
			C591.7,747.3,590.5,754.5,586.3,762.1z"/>
		<path d="M598.2,753.7c-1.2,0-2.3-1.2-2.3-2.6c0-1.4,1-2.6,2.3-2.6c1.3,0,2.3,1.2,2.3,2.6C600.5,752.5,599.5,753.7,598.2,753.7z"/>
	</g>
	<g enable-background="new    ">
		<path fill="#999999" d="M142.9,794.6l-4.3,11.8h-3l-4.2-11.8c-0.6-0.1-1.2-0.2-1.8-0.3v-1.5h6.3v1.5c-0.6,0.2-1.3,0.3-1.9,0.3
			l2.3,6.6c0.3,0.9,0.6,1.8,0.8,2.7h0c0.2-0.9,0.5-1.8,0.8-2.6l2.3-6.7c-0.7-0.1-1.3-0.2-1.9-0.3v-1.5h6.3v1.5
			C144.1,794.4,143.5,794.5,142.9,794.6z"/>
		<path fill="#999999" d="M156.8,799.6h-8.9c-0.1,3.6,1.3,5.1,4.3,5.1c1.3,0,2.7-0.3,3.9-0.8l0.4,1.9c-1.4,0.5-3,0.9-4.7,0.9
			c-4.1,0-6.4-2.2-6.4-7c0-4.1,2.3-7.1,6.1-7.1c3.8,0,5.4,2.6,5.4,5.6C156.9,798.5,156.9,799,156.8,799.6z M151.3,794.4
			c-1.8,0-3,1.3-3.3,3.4h6.4C154.4,795.7,153.3,794.4,151.3,794.4z"/>
		<path fill="#999999" d="M168.3,795c-3.1-0.5-4.5,1.6-4.5,6v3.6c0.8,0.1,1.7,0.2,2.4,0.4v1.5H159v-1.5c0.7-0.2,1.6-0.3,2.4-0.4
			v-9.8c-0.7-0.1-1.6-0.2-2.4-0.3V793c1.4-0.2,3.3-0.3,4.8-0.2c0,0.9-0.1,2.1-0.3,3.2h0c0.6-1.9,2-3.8,5-3.5L168.3,795z"/>
		<path fill="#999999" d="M175.9,806.6c-1.9,0-3.2-0.2-4.7-0.5v-17.7c-0.7-0.1-1.6-0.2-2.4-0.3v-1.5c1.4-0.2,3.2-0.3,4.8-0.2v6.6
			c0,0.8-0.1,1.9-0.2,2.6l0.1,0c0.7-1.9,2.4-3,4.5-3c3.2,0,5,2.2,5,6.4C183.1,803.7,180.4,806.6,175.9,806.6z M177.5,794.6
			c-2.5,0-3.7,2.9-3.7,5.2v4.5c0.7,0.2,1.5,0.3,2.4,0.3c2.6,0,4.3-1.6,4.3-5.5C180.5,796.2,179.5,794.6,177.5,794.6z"/>
	</g>
	<g enable-background="new    ">
		<path fill="#999999" d="M368.1,806.7c-3.7,0-6.1-2.1-6.1-6.9c0-4.1,2.5-7.3,6.6-7.3c3.5,0,6.1,1.9,6.1,6.9
			C374.7,803.5,372.2,806.7,368.1,806.7z M368.4,794.6c-2,0-3.9,1.5-3.9,5c0,3.2,1.3,5,3.8,5c2,0,3.8-1.6,3.8-5
			C372.2,796.4,370.9,794.6,368.4,794.6z"/>
		<path fill="#999999" d="M382.9,806.6c-1.9,0-3.2-0.2-4.7-0.5v-17.7c-0.7-0.1-1.6-0.2-2.4-0.3v-1.5c1.4-0.2,3.2-0.3,4.8-0.2v6.6
			c0,0.8-0.1,1.9-0.2,2.6l0.1,0c0.7-1.9,2.4-3,4.5-3c3.2,0,5,2.2,5,6.4C390,803.7,387.3,806.6,382.9,806.6z M384.4,794.6
			c-2.5,0-3.7,2.9-3.7,5.2v4.5c0.7,0.2,1.5,0.3,2.4,0.3c2.6,0,4.3-1.6,4.3-5.5C387.4,796.2,386.5,794.6,384.4,794.6z"/>
		<path fill="#999999" d="M391.7,813.4c-0.5,0-1.3-0.1-1.8-0.2l0.2-2.1c0.5,0.2,1.1,0.3,1.7,0.3c1.7,0,2.2-0.7,2.2-3.2v-13.4
			c-0.7-0.1-1.6-0.2-2.3-0.3V793c1.3-0.2,3.2-0.3,4.7-0.2v15.1C396.5,811.6,395.3,813.4,391.7,813.4z M395.3,790.1
			c-0.9,0-1.6-0.7-1.6-1.6s0.7-1.6,1.6-1.6s1.6,0.7,1.6,1.6C396.9,789.4,396.2,790.1,395.3,790.1z"/>
		<path fill="#999999" d="M411.4,799.6h-8.9c-0.1,3.6,1.3,5.1,4.3,5.1c1.3,0,2.7-0.3,3.9-0.8l0.4,1.9c-1.4,0.5-3,0.9-4.7,0.9
			c-4.1,0-6.4-2.2-6.4-7c0-4.1,2.3-7.1,6.1-7.1c3.8,0,5.4,2.6,5.4,5.6C411.5,798.5,411.4,799,411.4,799.6z M405.9,794.4
			c-1.8,0-3,1.3-3.3,3.4h6.4C409,795.7,407.8,794.4,405.9,794.4z"/>
		<path fill="#999999" d="M420,806.6c-3.4,0-6.2-1.6-6.2-6.6c0-4.4,2.2-7.5,6.8-7.5c1.2,0,2.4,0.2,3.3,0.5v4h-1.5
			c-0.2-0.8-0.3-1.6-0.4-2.2c-0.5-0.1-1.1-0.2-1.8-0.2c-2.4,0-3.8,2.1-3.8,5c0,2.8,0.9,4.9,4.1,4.9c1.2,0,2.3-0.2,3.3-0.7l0.4,2.1
			C423.2,806.3,421.7,806.6,420,806.6z"/>
		<path fill="#999999" d="M431.5,806.6c-2.8,0-3.6-1.2-3.6-4.1v-7.8h-2.8v-1.9h2.8v-4.4l2.5-0.7v5.1h3.8v1.9h-3.8v7
			c0,2.2,0.4,2.9,1.9,2.9c0.6,0,1.2-0.1,1.7-0.2l0.2,2C433.4,806.5,432.4,806.6,431.5,806.6z"/>
	</g>
	<g enable-background="new    ">
		<path fill="#999999" d="M514.8,806.7c-3.7,0-6.1-2.1-6.1-6.9c0-4.1,2.5-7.3,6.6-7.3c3.5,0,6.1,1.9,6.1,6.9
			C521.4,803.5,518.9,806.7,514.8,806.7z M515.1,794.6c-2,0-3.9,1.5-3.9,5c0,3.2,1.3,5,3.8,5c2,0,3.8-1.6,3.8-5
			C518.8,796.4,517.5,794.6,515.1,794.6z"/>
		<path fill="#999999" d="M529.5,806.6c-1.9,0-3.2-0.2-4.7-0.5v-17.7c-0.7-0.1-1.6-0.2-2.4-0.3v-1.5c1.4-0.2,3.2-0.3,4.8-0.2v6.6
			c0,0.8-0.1,1.9-0.2,2.6l0.1,0c0.7-1.9,2.4-3,4.5-3c3.2,0,5,2.2,5,6.4C536.7,803.7,534,806.6,529.5,806.6z M531.1,794.6
			c-2.5,0-3.7,2.9-3.7,5.2v4.5c0.7,0.2,1.5,0.3,2.4,0.3c2.6,0,4.3-1.6,4.3-5.5C534.1,796.2,533.1,794.6,531.1,794.6z"/>
		<path fill="#999999" d="M538.4,813.4c-0.5,0-1.3-0.1-1.8-0.2l0.2-2.1c0.5,0.2,1.1,0.3,1.7,0.3c1.7,0,2.2-0.7,2.2-3.2v-13.4
			c-0.7-0.1-1.6-0.2-2.3-0.3V793c1.3-0.2,3.2-0.3,4.7-0.2v15.1C543.1,811.6,541.9,813.4,538.4,813.4z M541.9,790.1
			c-0.9,0-1.6-0.7-1.6-1.6s0.7-1.6,1.6-1.6s1.6,0.7,1.6,1.6C543.5,789.4,542.8,790.1,541.9,790.1z"/>
		<path fill="#999999" d="M558,799.6h-8.9c-0.1,3.6,1.3,5.1,4.3,5.1c1.3,0,2.7-0.3,3.9-0.8l0.4,1.9c-1.4,0.5-3,0.9-4.7,0.9
			c-4.1,0-6.4-2.2-6.4-7c0-4.1,2.3-7.1,6.1-7.1c3.8,0,5.4,2.6,5.4,5.6C558.1,798.5,558.1,799,558,799.6z M552.6,794.4
			c-1.8,0-3,1.3-3.3,3.4h6.4C555.7,795.7,554.5,794.4,552.6,794.4z"/>
		<path fill="#999999" d="M566.7,806.6c-3.4,0-6.2-1.6-6.2-6.6c0-4.4,2.2-7.5,6.8-7.5c1.2,0,2.4,0.2,3.3,0.5v4h-1.5
			c-0.2-0.8-0.3-1.6-0.4-2.2c-0.5-0.1-1.1-0.2-1.8-0.2c-2.4,0-3.8,2.1-3.8,5c0,2.8,0.9,4.9,4.1,4.9c1.2,0,2.3-0.2,3.3-0.7l0.4,2.1
			C569.8,806.3,568.3,806.6,566.7,806.6z"/>
		<path fill="#999999" d="M578.2,806.6c-2.8,0-3.6-1.2-3.6-4.1v-7.8h-2.8v-1.9h2.8v-4.4l2.5-0.7v5.1h3.8v1.9H577v7
			c0,2.2,0.4,2.9,1.9,2.9c0.6,0,1.2-0.1,1.7-0.2l0.2,2C580.1,806.5,579,806.6,578.2,806.6z"/>
	</g>
	<line fill="none" stroke="#999999" stroke-width="5" x1="63.7" y1="771.3" x2="254.1" y2="771.3"/>
	<line fill="none" stroke="#999999" stroke-width="5" x1="354.1" y1="771.3" x2="447.8" y2="771.3"/>
	<line fill="none" stroke="#999999" stroke-width="5" x1="500.4" y1="771.3" x2="594.1" y2="771.3"/>
</g>
</svg>
