<?xml version="1.0" encoding="utf-8"?>
<!-- Generator: Adobe Illustrator 18.0.0, SVG Export Plug-In . SVG Version: 6.00 Build 0)  -->
<!DOCTYPE svg PUBLIC "-//W3C//DTD SVG 1.1//EN" "http://www.w3.org/Graphics/SVG/1.1/DTD/svg11.dtd">
<svg version="1.1" id="Layer_1" xmlns="http://www.w3.org/2000/svg" xmlns:xlink="http://www.w3.org/1999/xlink" x="0px" y="0px"
	 viewBox="0 0 215 72" enable-background="new 0 0 215 72" xml:space="preserve">
<g>
	<rect x="73.4" y="14.8" fill="none" stroke="#999999" stroke-width="1.3" width="40.8" height="40.8"/>
	<line fill="none" stroke="#999999" stroke-width="1.3" x1="73.4" y1="48.8" x2="114.2" y2="48.8"/>
	<line fill="none" stroke="#999999" stroke-width="1.3" x1="73.4" y1="42" x2="114.2" y2="42"/>
	<line fill="none" stroke="#999999" stroke-width="1.3" x1="73.4" y1="35.2" x2="114.2" y2="35.2"/>
	<line fill="none" stroke="#999999" stroke-width="1.3" x1="73.4" y1="28.4" x2="114.2" y2="28.4"/>
	<line fill="none" stroke="#999999" stroke-width="1.3" x1="73.4" y1="21.6" x2="114.2" y2="21.6"/>
	<line fill="none" stroke="#999999" stroke-width="1.3" x1="107.4" y1="14.8" x2="107.4" y2="55.6"/>
	<line fill="none" stroke="#999999" stroke-width="1.3" x1="100.6" y1="14.8" x2="100.6" y2="55.6"/>
	<line fill="none" stroke="#999999" stroke-width="1.3" x1="93.8" y1="14.8" x2="93.8" y2="55.6"/>
	<line fill="none" stroke="#999999" stroke-width="1.3" x1="87" y1="14.8" x2="87" y2="55.6"/>
	<line fill="none" stroke="#999999" stroke-width="1.3" x1="80.3" y1="14.8" x2="80.3" y2="55.6"/>
</g>
<text transform="matrix(1 0 0 1 73.0204 5.0178)" font-family="'TheSerif-HP5Plain'" font-size="3.2913">x</text>
<text transform="matrix(1 0 0 1 62.5828 15.318)" font-family="'TheSerif-HP5Plain'" font-size="3.2913">y</text>
<text transform="matrix(1 0 0 1 73.0817 10.6246)" font-family="'TheSerif-HP5Plain'" font-size="3.2913">0</text>
<text transform="matrix(1 0 0 1 74.8923 10.6246)" font-family="'TheSerif-HP5Plain'" font-size="3.2913" letter-spacing="3"> </text>
<text transform="matrix(1 0 0 1 79.6647 10.6246)" font-family="'TheSerif-HP5Plain'" font-size="3.2913">1</text>
<text transform="matrix(1 0 0 1 81.4752 10.6246)" font-family="'TheSerif-HP5Plain'" font-size="3.2913" letter-spacing="3"> </text>
<text transform="matrix(1 0 0 1 86.2476 10.6246)" font-family="'TheSerif-HP5Plain'" font-size="3.2913">2</text>
<text transform="matrix(1 0 0 1 88.0572 10.6246)" font-family="'TheSerif-HP5Plain'" font-size="3.2913" letter-spacing="3"> </text>
<text transform="matrix(1 0 0 1 92.8296 10.6246)" font-family="'TheSerif-HP5Plain'" font-size="3.2913">3</text>
<text transform="matrix(1 0 0 1 94.6401 10.6246)" font-family="'TheSerif-HP5Plain'" font-size="3.2913" letter-spacing="3"> </text>
<text transform="matrix(1 0 0 1 99.4125 10.6246)" font-family="'TheSerif-HP5Plain'" font-size="3.2913">4</text>
<text transform="matrix(1 0 0 1 101.2225 10.6246)" font-family="'TheSerif-HP5Plain'" font-size="3.2913" letter-spacing="3"> </text>
<text transform="matrix(1 0 0 1 105.995 10.6246)" font-family="'TheSerif-HP5Plain'" font-size="3.2913">5</text>
<text transform="matrix(1 0 0 1 107.8055 10.6246)" font-family="'TheSerif-HP5Plain'" font-size="3.2913" letter-spacing="3"> </text>
<text transform="matrix(1 0 0 1 112.5779 10.6246)" font-family="'TheSerif-HP5Plain'" font-size="3.2913">6</text>
<circle fill="#808080" cx="80.3" cy="21.9" r="1.1"/>
<circle fill="#808080" cx="100.9" cy="48.9" r="1.1"/>
<text transform="matrix(1 0 0 1 67.9625 16.2932)" font-family="'TheSerif-HP5Plain'" font-size="3.2913">0</text>
<text transform="matrix(1 0 0 1 67.9625 22.8757)" font-family="'TheSerif-HP5Plain'" font-size="3.2913">1</text>
<text transform="matrix(1 0 0 1 67.9625 29.4586)" font-family="'TheSerif-HP5Plain'" font-size="3.2913">2</text>
<text transform="matrix(1 0 0 1 67.9625 36.0416)" font-family="'TheSerif-HP5Plain'" font-size="3.2913">3</text>
<text transform="matrix(1 0 0 1 67.9625 42.6235)" font-family="'TheSerif-HP5Plain'" font-size="3.2913">4</text>
<text transform="matrix(1 0 0 1 67.9625 49.2065)" font-family="'TheSerif-HP5Plain'" font-size="3.2913">5</text>
<text transform="matrix(1 0 0 1 67.9625 55.7894)" font-family="'TheSerif-HP5Plain'" font-size="3.2913">6</text>
<line fill="none" stroke="#000000" stroke-width="1.3" x1="73.6" y1="14.8" x2="72.3" y2="14.8"/>
<line fill="none" stroke="#000000" stroke-width="1.3" x1="73.6" y1="21.7" x2="72.3" y2="21.7"/>
<line fill="none" stroke="#000000" stroke-width="1.3" x1="73.6" y1="28.4" x2="72.3" y2="28.4"/>
<line fill="none" stroke="#000000" stroke-width="1.3" x1="73.6" y1="35.2" x2="72.3" y2="35.2"/>
<line fill="none" stroke="#000000" stroke-width="1.3" x1="73.6" y1="42" x2="72.3" y2="42"/>
<line fill="none" stroke="#000000" stroke-width="1.3" x1="73.6" y1="48.9" x2="72.3" y2="48.9"/>
<line fill="none" stroke="#000000" stroke-width="1.3" x1="73.6" y1="55.5" x2="72.3" y2="55.5"/>
<line fill="none" stroke="#000000" stroke-width="1.3" x1="114.2" y1="14.8" x2="114.2" y2="13.5"/>
<line fill="none" stroke="#000000" stroke-width="1.3" x1="107.3" y1="14.8" x2="107.3" y2="13.5"/>
<line fill="none" stroke="#000000" stroke-width="1.3" x1="100.6" y1="14.8" x2="100.6" y2="13.5"/>
<line fill="none" stroke="#000000" stroke-width="1.3" x1="93.8" y1="14.8" x2="93.8" y2="13.5"/>
<line fill="none" stroke="#000000" stroke-width="1.3" x1="87" y1="14.8" x2="87" y2="13.5"/>
<line fill="none" stroke="#000000" stroke-width="1.3" x1="80.1" y1="14.8" x2="80.1" y2="13.5"/>
<line fill="none" stroke="#000000" stroke-width="1.3" x1="73.5" y1="14.8" x2="73.5" y2="13.5"/>
<polyline fill="#FFFFFF" stroke="#000000" stroke-width="1.3" points="64.3,27.3 63.5,28.1 62.7,27.3 "/>
<line fill="none" stroke="#000000" stroke-width="1.3" x1="63.5" y1="28.1" x2="63.5" y2="18.5"/>
<polyline fill="#FFFFFF" stroke="#000000" stroke-width="1.3" points="85.9,3.2 86.7,4 85.9,4.8 "/>
<line fill="none" stroke="#000000" stroke-width="1.3" x1="86.9" y1="4" x2="77.4" y2="4"/>
<text transform="matrix(1 0 0 1 124.829 35.6517)" font-family="'TheSerif-HP5Plain'" font-size="3.2913">ellipseMode ( CORNERS ) ;</text>
<text transform="matrix(1 0 0 1 124.829 39.6012)" font-family="'TheSerif-HP5Plain'" font-size="3.2913">ellipse ( x1 , y1 , x2 , y2 ) ;</text>
<text transform="matrix(1 0 0 1 80.978 20.0182)" font-family="'TheSerif-HP5Plain'" font-size="3.2913">( 1 , 1 )</text>
<text transform="matrix(1 0 0 1 101.9721 47.0803)" font-family="'TheSerif-HP5Plain'" font-size="3.2913">( 4 , 5 )</text>
<text transform="matrix(1 0 0 1 71.2703 64.8333)" fill="#808080" font-family="'TheSerif-HP5Plain'" font-size="3.2913">Example:  </text>
<text transform="matrix(1 0 0 1 86.5379 64.8333)" font-family="'TheSerif-HP5Plain'" font-size="3.2913">ellipseMode ( CORNERS ) ;</text>
<text transform="matrix(1 0 0 1 71.2703 68.7828)" font-family="'TheSerif-HP5Plain'" font-size="3.2913" letter-spacing="5">  </text>
<text transform="matrix(1 0 0 1 86.5381 68.7833)" font-family="'TheSerif-HP5Plain'" font-size="3.2913">ellipse ( 1 , 1 , 4 , 5 ) ;</text>
<ellipse fill="none" stroke="#000000" stroke-width="2" cx="90.4" cy="35.2" rx="10.2" ry="13.6"/>
</svg>
