<?xml version="1.0" encoding="utf-8"?>
<!-- Generator: Adobe Illustrator 18.0.0, SVG Export Plug-In . SVG Version: 6.00 Build 0)  -->
<!DOCTYPE svg PUBLIC "-//W3C//DTD SVG 1.1//EN" "http://www.w3.org/Graphics/SVG/1.1/DTD/svg11.dtd">
<svg version="1.1" id="Layer_1" xmlns="http://www.w3.org/2000/svg" xmlns:xlink="http://www.w3.org/1999/xlink" x="0px" y="0px"
	 viewBox="0 0 612 792" enable-background="new 0 0 612 792" xml:space="preserve">
<rect x="422.1" y="154.8" opacity="0.5" fill="#FFFF00" enable-background="new    " width="512.9" height="515.1"/>
<rect x="-162.3" y="412.3" opacity="0.5" fill="#FFFF00" enable-background="new    " width="257.7" height="257.7"/>
<g>
	<rect x="-417.5" y="156.9" fill="none" stroke="#999999" stroke-width="1.3" width="512.9" height="512.9"/>
	<line fill="none" stroke="#999999" stroke-width="1.3" x1="-417.5" y1="584.4" x2="95.5" y2="584.4"/>
	<line fill="none" stroke="#999999" stroke-width="1.3" x1="-417.5" y1="498.6" x2="95.5" y2="498.6"/>
	<line fill="none" stroke="#999999" stroke-width="1.3" x1="-417.5" y1="413.4" x2="95.5" y2="413.4"/>
	<line fill="none" stroke="#999999" stroke-width="1.3" x1="-417.5" y1="327.9" x2="95.5" y2="327.9"/>
	<line fill="none" stroke="#999999" stroke-width="1.3" x1="-417.5" y1="242.4" x2="95.5" y2="242.4"/>
	<line fill="none" stroke="#999999" stroke-width="1.3" x1="9.7" y1="156.9" x2="9.7" y2="670"/>
	<line fill="none" stroke="#999999" stroke-width="1.3" x1="-75.3" y1="156.9" x2="-75.3" y2="670"/>
	<line fill="none" stroke="#999999" stroke-width="1.3" x1="-161" y1="156.9" x2="-161" y2="670"/>
	<line fill="none" stroke="#999999" stroke-width="1.3" x1="-246.4" y1="156.9" x2="-246.4" y2="670"/>
	<line fill="none" stroke="#999999" stroke-width="1.3" x1="-331.8" y1="156.9" x2="-331.8" y2="670"/>
</g>
<g enable-background="new    ">
	<path d="M-158.8,126.8l-4.6-7.7l-4.6,7.7h-6.3v-2.2c1.2-0.3,2.4-0.5,3.6-0.5l5-7.4l-4.9-7.4c-1.2,0-2.4-0.3-3.4-0.5v-2.2h6.3
		l4.3,7.4l4.6-7.4h6v2.2c-1.2,0.3-2.4,0.5-3.6,0.5l-4.6,7.3l5,7.7c1.2,0,2.2,0.3,3.4,0.5v2.2h-6.3L-158.8,126.8L-158.8,126.8z"/>
</g>
<g enable-background="new    ">
	<path d="M135.4,400.4l-7.3,20.1c-2.2,6.3-4.3,8.4-8.8,8.4c-0.8,0-1.9,0-2.8-0.3l0.3-3.4c0.9,0.3,1.8,0.5,2.7,0.5c2.2,0,3.6-1.2,5-5
		l0.9-2.4h-0.9l-6.3-17.9c-0.9,0-1.9-0.3-2.7-0.5v-2.2h9.5v2.2c-0.8,0.3-1.8,0.5-2.7,0.5l3.1,8.8c0.8,1.9,1.2,3.4,1.8,5l0,0
		c0.3-1.5,1.2-3.8,1.9-6l2.7-7.9c-0.9,0-1.9-0.3-2.7-0.5v-2.2h9.3v2.2C137.5,400.2,136.5,400.4,135.4,400.4z"/>
</g>
<polyline fill="#FFFFFF" stroke="#000000" stroke-width="1.3" points="-170.4,167.8 -160.2,157.7 -149.9,167.8 "/>
<polyline fill="#FFFFFF" stroke="#000000" stroke-width="1.3" points="82.2,403.2 92.3,413.4 82.2,423.6 "/>
<line fill="none" stroke="#000000" stroke-width="1.3" x1="92.3" y1="413.4" x2="-417.5" y2="413.4"/>
<line fill="none" stroke="#000000" stroke-width="1.3" x1="-162.8" y1="158.6" x2="-162.8" y2="668.2"/>
<polyline fill="none" stroke="#000000" stroke-width="1.3" points="-151,661.3 -161.2,671.1 -171.5,661.3 "/>
<polyline fill="none" stroke="#000000" stroke-width="1.3" points="-407.4,423.6 -417.5,413.4 -407.4,403.2 "/>
<g enable-background="new    ">
	<path d="M-261.9,770.1v-2.2c0.9-0.3,2.4-0.5,3.6-0.5v-22.5c-1.2,0-2.4-0.3-3.6-0.5v-2.2h18v6.5h-2.7c-0.3-1.2-0.5-2.4-0.5-3.4h-7.4
		v9.2h6c0.3-0.9,0.3-1.9,0.5-2.8h2.4v8.4h-2.4c-0.3-0.9-0.5-1.9-0.5-2.8h-6v10h7.4c0.3-0.9,0.3-2.4,0.5-3.6h2.7v6.5H-261.9
		L-261.9,770.1z"/>
	<path d="M-239.9,770.1v-2.2c0.9-0.3,2.4-0.5,3.6-0.5v-15c-0.9-0.3-2.4-0.3-3.6-0.5v-2c2.2-0.3,4.9-0.5,7.3-0.3v17.9
		c1.2,0,2.4,0.3,3.4,0.5v2.2H-239.9z M-234.4,745.4c-1.5,0-2.4-0.9-2.4-2.4s1.2-2.4,2.4-2.4c1.2,0,2.4,0.9,2.4,2.4
		S-233.1,745.4-234.4,745.4z"/>
	<path d="M-217.9,780.6c-5.4,0-8.7-2.2-8.7-6.3c0-2.4,1.8-4.3,3.4-5.5c-1.2-0.5-1.9-1.8-1.9-3.1c0-1.5,0.9-2.8,2.2-3.4
		c-1.9-1.2-3.1-2.8-3.1-5.5c0-4.1,3.1-7.7,8.7-7.7c1.2,0,1.9,0.3,2.8,0.5h6.9v2.8h-3.4c0.9,0.8,1.8,2.2,1.8,3.8
		c0,4.1-2.8,7.4-8.7,7.4c-0.8,0-1.5,0-2.2-0.3c-0.9,0.5-1.2,0.9-1.2,1.8c0,1.2,0.9,1.5,3.6,1.8l3.8,0.3c4.3,0.3,6.9,2.2,6.9,6
		C-207.1,777.4-211.4,780.6-217.9,780.6z M-215.1,770.1l-3.8-0.3c-0.5,0-0.9,0-1.2,0c-1.8,1.2-2.7,2.4-2.7,4.1
		c0,2.4,2.4,3.8,5.5,3.8c4.1,0,6.5-1.9,6.5-4.3C-211,771.2-212.1,770.1-215.1,770.1z M-217.5,751.9c-3.1,0-4.9,1.9-4.9,4.6
		c0,2.8,1.8,4.6,4.9,4.6c2.8,0,4.9-1.8,4.9-4.6C-212.9,753.6-214.3,751.9-217.5,751.9z"/>
	<path d="M-188.5,770.1v-13.3c0-2.8-0.8-4.6-3.6-4.6c-3.4,0-5.8,3.4-5.8,7.9v6.9c1.2,0,2.4,0.3,3.4,0.5v2.2h-10.4v-2.2
		c0.9-0.3,2.2-0.5,3.4-0.5v-24.7c-0.9-0.3-2.4-0.3-3.6-0.5v-2.2c2.2-0.3,4.9-0.5,7.3-0.3v9.6c0,1.2,0,2.8-0.5,4.1l0,0
		c1.2-2.8,3.6-4.6,7.3-4.6c4.6,0,6.3,2.8,6.3,6.5v11.5c1.2,0,2.4,0.3,3.4,0.5v2.2h-6.8C-188.5,769.3-188.5,770.1-188.5,770.1z"/>
	<path d="M-171.5,770.5c-4.1,0-5.5-1.8-5.5-6.3v-11.9h-4.1v-2.8h4.1v-6.8l3.6-0.9v7.7h5.8v2.8h-5.8v10.6c0,3.4,0.8,4.3,2.8,4.3
		c0.9,0,1.9-0.3,2.7-0.3l0.5,3.1C-168.3,770.2-169.9,770.5-171.5,770.5z"/>
	<path d="M-148.6,770.1v-13.3c0-2.8-0.8-4.6-3.6-4.6c-3.4,0-5.8,3.4-5.8,7.9v6.9c1.2,0,2.4,0.3,3.4,0.5v2.2h-10.6v-2.2
		c0.9-0.3,2.2-0.5,3.4-0.5v-24.7c-0.9-0.3-2.4-0.3-3.6-0.5v-2.2c2.2-0.3,4.9-0.5,7.3-0.3v9.6c0,1.2,0,2.8-0.5,4.1l0,0
		c1.2-2.8,3.6-4.6,7.3-4.6c4.6,0,6.3,2.8,6.3,6.5v11.5c1.2,0,2.4,0.3,3.4,0.5v2.2h-6.8V770.1L-148.6,770.1L-148.6,770.1z"/>
	<path d="M-106.8,758.7v10.1c-2.7,0.9-6.3,1.8-9.2,1.8c-8.4,0-13.8-5-13.8-13.8c0-8.8,5.4-15,15-15c2.7,0,5,0.5,7.7,0.9v6.5h-2.7
		c-0.3-1.5-0.5-2.7-0.5-3.6c-1.5-0.5-3.1-0.8-4.9-0.8c-6,0-10.6,3.6-10.6,11.1c0,6.9,4.1,10.9,10.4,10.9c1.9,0,3.4-0.3,4.9-0.8v-7.7
		c-1.2,0-2.4-0.3-3.6-0.5v-2.2h10.1v2.2C-104.7,758.2-105.7,758.5-106.8,758.7z"/>
	<path d="M-87.5,752.9c-4.9-0.8-6.8,2.4-6.8,8.8v5.5c1.2,0,2.4,0.3,3.6,0.5v2.2h-11.1v-2.2c0.9-0.3,2.4-0.5,3.6-0.5v-15
		c-0.9-0.3-2.4-0.3-3.6-0.5v-1.9c2.2-0.3,4.9-0.5,7.3-0.3c0,1.2-0.3,3.1-0.5,4.9l0,0c0.9-2.8,2.8-5.8,7.4-5.4
		C-87.5,749.1-87.5,752.9-87.5,752.9z"/>
	<path d="M-72.9,770.1c0-1.5,0-2.8,0.3-4.1l0,0c-0.9,2.4-3.6,4.6-6.9,4.6c-3.3,0-5.8-2.2-5.8-5.4c0-4.3,4.6-6.9,12.3-6.9v-1.5
		c0-2.8-0.9-4.6-4.3-4.6c-1.2,0-2.7,0.3-3.8,0.5c0,0.9-0.3,2.2-0.5,3.4h-2.4v-5.8c2.2-0.8,4.6-1.2,6.9-1.2c6,0,7.7,2.7,7.7,6.8v10.9
		c0.9,0.3,2.4,0.3,3.4,0.5v2.2C-67.6,770.1-70.6,770.2-72.9,770.1z M-72.9,760.6c-6.5,0-8.7,1.8-8.7,3.8c0,1.8,1.2,3.1,3.1,3.1
		c3.4,0,5.5-3.4,5.5-6.5C-72.9,761-72.9,760.6-72.9,760.6z"/>
	<path d="M-49.1,770.1c0-1.2,0-2.8,0.3-4.1l0,0c-1.2,2.7-3.6,4.6-6.9,4.6c-5,0-7.4-3.6-7.4-9.6c0-7.3,4.1-11.5,10.6-11.5
		c1.2,0,2.2,0,3.4,0.3v-6.5c-0.9-0.3-2.4-0.3-3.6-0.5v-2.4c2.2-0.3,4.9-0.5,7.3-0.3v27.1c0.9,0.3,2.4,0.3,3.4,0.5v2.2
		C-44,770.1-46.9,770.2-49.1,770.1z M-49.2,752.6c-1.2-0.3-2.4-0.5-3.6-0.5c-3.8,0-6.5,2.4-6.5,8.2c0,4.3,1.5,6.9,4.6,6.9
		c3.6,0,5.5-4.3,5.5-7.9C-49.2,759.5-49.2,752.6-49.2,752.6z"/>
	<path d="M-22.5,759.6h-13.4c-0.3,5.4,1.9,7.7,6.5,7.7c1.9,0,4.1-0.5,5.8-1.2l0.5,2.8c-2.2,0.8-4.6,1.2-7.3,1.2
		c-6.3,0-9.6-3.4-9.6-10.6c0-6,3.4-10.9,9.2-10.9s8.2,3.8,8.2,8.4C-22.5,758-22.5,759-22.5,759.6z M-30.7,751.9c-2.7,0-4.6,1.9-5,5
		h9.6C-26.1,753.9-27.9,751.9-30.7,751.9z"/>
</g>
<g enable-background="new    ">
	<path d="M570.1,771.5c-8.4,0-12.8-5.4-12.8-13.8s4.6-15,13.4-15c2.2,0,4.6,0.3,6.8,0.8v6.8h-2.7c-0.3-1.5-0.5-2.7-0.5-3.8
		c-1.5-0.5-2.7-0.5-4.1-0.5c-6,0-8.8,4.9-8.8,11.1c0,6.8,3.1,10.9,9.5,10.9c2.2,0,4.9-0.5,6.5-1.5l0.8,3.1
		C575.7,770.7,573,771.5,570.1,771.5z"/>
	<path d="M589.5,771.5c-5.5,0-9.2-3.1-9.2-10.4c0-6.3,3.8-10.9,10.1-10.9c5.4,0,9.2,2.8,9.2,10.4
		C599.5,766.6,595.9,771.5,589.5,771.5z M590,753.1c-3.1,0-5.8,2.2-5.8,7.4c0,4.9,1.9,7.4,5.8,7.4c3.1,0,5.8-2.4,5.8-7.4
		C595.6,756,593.7,753.1,590,753.1z"/>
	<path d="M631.6,771v-13.3c0-2.8-0.8-4.6-3.4-4.6c-2.8,0-5.8,3.1-5.8,8.2v6.9c1.2,0,2.4,0.3,3.4,0.5v2.2h-6.9v-13.3
		c0-2.7-0.5-4.6-3.4-4.6c-3.1,0-5.8,3.4-5.8,8.2v6.9c1.2,0,2.4,0.3,3.4,0.5v2.2h-10.6v-2.2c0.9-0.3,2.4-0.5,3.6-0.5v-15
		c-0.9-0.3-2.4-0.3-3.6-0.5v-2.2c2.2-0.3,5-0.5,7.3-0.3c0,1.2-0.3,3.1-0.3,4.3l0,0c1.2-2.8,3.8-4.9,6.9-4.9c4.3,0,5.5,2.8,5.8,4.6
		c0.8-1.9,3.1-4.6,6.9-4.6s6,2.2,6,6.8v11.4c1.2,0,2.4,0.3,3.4,0.5v2.2L631.6,771L631.6,771z"/>
	<path d="M650.6,771.2c-1.2,0-2.2,0-3.6-0.3v7.4c1.2,0,2.4,0.3,3.6,0.5v2.2h-10.9v-2.2c0.9-0.3,2.2-0.5,3.4-0.5v-25.2
		c-0.9-0.3-2.2-0.3-3.4-0.5v-2.2c1.9-0.3,4.9-0.5,6.9-0.3c0,1.2-0.3,3.1-0.3,4.1l0,0c1.2-2.8,3.6-4.6,6.8-4.6c4.9,0,7.4,3.4,7.4,9.6
		C661.2,767.1,657.4,771.2,650.6,771.2z M652.8,753.1c-3.6,0-5.5,4.3-5.5,7.9v6.8c1.2,0.3,2.2,0.5,3.6,0.5c3.8,0,6.5-2.4,6.5-8.2
		C657.4,755.8,656,753.1,652.8,753.1z"/>
	<path d="M680.3,771c0-1.2,0-3.1,0.3-4.3l0,0c-1.2,2.8-3.6,4.9-7.3,4.9c-4.9,0-6.3-2.8-6.3-6.5v-11.4c-0.9-0.3-2.4-0.3-3.4-0.5V751
		c1.9-0.3,4.9-0.5,7.3-0.3V764c0,2.8,0.8,4.6,3.6,4.6c3.4,0,5.8-3.4,5.8-7.9v-6.9c-0.9-0.3-2.2-0.3-3.4-0.5v-2.2
		c1.9-0.3,4.9-0.5,6.9-0.3v17.6c0.9,0.3,2.4,0.3,3.4,0.5v2.2C685.4,771,682.5,771.2,680.3,771z"/>
	<path d="M697.7,771.5c-4.1,0-5.5-1.8-5.5-6.3v-11.9h-4.1v-2.8h4.1v-6.8l3.6-0.9v7.7h5.8v2.8h-5.8v10.6c0,3.4,0.8,4.3,2.8,4.3
		c0.9,0,1.9-0.3,2.7-0.3l0.5,3.1C700.5,771.2,698.9,771.5,697.7,771.5z"/>
	<path d="M722.1,760.6h-13.4c-0.3,5.4,1.9,7.7,6.5,7.7c1.9,0,4.1-0.5,5.8-1.2l0.5,2.8c-2.2,0.8-4.6,1.2-7.3,1.2
		c-6.3,0-9.6-3.4-9.6-10.6c0-6,3.4-10.9,9.2-10.9c5.8,0,8.2,3.8,8.2,8.4C722.4,759,722.4,759.9,722.1,760.6z M713.8,752.9
		c-2.7,0-4.6,1.9-5,5h9.6C718.4,754.9,716.7,752.9,713.8,752.9z"/>
	<path d="M739.4,753.9c-4.9-0.8-6.8,2.4-6.8,8.8v5.5c1.2,0,2.4,0.3,3.6,0.5v2.2h-10.9v-2.2c0.9-0.3,2.4-0.5,3.6-0.5v-15
		c-0.9-0.3-2.4-0.3-3.6-0.5v-2.2c2.2-0.3,4.9-0.5,7.3-0.3c0,1.2-0.3,3.1-0.5,4.9l0,0c0.9-2.8,2.8-5.8,7.4-5.4L739.4,753.9z"/>
</g>
<g enable-background="new    ">
	<path d="M-345.5,449.9v-3.6h13v3.4L-345.5,449.9L-345.5,449.9z"/>
	<path d="M-323.1,460.5v-3.1l6-5.4c5.4-4.3,6.5-6.3,6.5-8.8c0-2.7-1.8-4.6-5-4.6c-2.4,0-4.6,1.2-6,2.2l-0.8-3.4
		c2.2-1.2,4.6-2.2,7.4-2.2c5.5,0,8.4,3.1,8.4,7.4c0,3.6-1.9,6.3-6.5,10.1l-5,4.3h-0.3c1.9-0.3,6.5-0.3,12.5-0.3v3.6L-323.1,460.5
		L-323.1,460.5z"/>
</g>
<text transform="matrix(1 0 0 1 -289.0219 460.5762)" font-family="'TheSerif-HP5Plain'" font-size="41.3934" letter-spacing="23"> </text>
<g enable-background="new    ">
	<path d="M-256.8,449.9v-3.6h13v3.4L-256.8,449.9L-256.8,449.9z"/>
	<path d="M-233.6,460.5v-3.4h7.4v-17.4l-7.3,4.6l-1.2-3.1l9.2-5.5h3.1v21.5h6.5v3.4L-233.6,460.5L-233.6,460.5z"/>
</g>
<text transform="matrix(1 0 0 1 -188.2983 460.5762)" font-family="'TheSerif-HP5Plain'" font-size="41.3934" letter-spacing="4"> </text>
<g enable-background="new    ">
	<path d="M-138.8,460.9c-5.5,0-10.1-3.1-10.1-12.8c0-8.2,5-12.8,10.9-12.8c5.4,0,10.1,3.1,10.1,12.5
		C-128,456.3-133,460.9-138.8,460.9z M-138.6,438.5c-3.4,0-6.5,2.8-6.5,9.6c0,6.9,2.7,10,6.5,10c3.4,0,6.5-2.8,6.5-9.5
		C-132.1,441.4-134.8,438.5-138.6,438.5z"/>
	<path d="M-72.2,460.5v-3.4h7.4v-17.4l-7.3,4.6l-1.2-3.1l9.2-5.5h3.1v21.5h6.5v3.4L-72.2,460.5L-72.2,460.5z"/>
</g>
<text transform="matrix(1 0 0 1 -33.3041 460.5762)" font-family="'TheSerif-HP5Plain'" font-size="41.3934" letter-spacing="15"> </text>
<g enable-background="new    ">
	<path d="M9.1,460.5v-3.1l6-5.4c5.4-4.3,6.5-6.3,6.5-8.8c0-2.7-1.8-4.6-5-4.6c-2.4,0-4.6,1.2-6,2.2l-0.8-3.4
		c2.2-1.2,4.6-2.2,7.4-2.2c5.5,0,8.4,3.1,8.4,7.4c0,3.6-1.9,6.3-6.5,10.1l-5,4.3h-0.3c1.9-0.3,6.5-0.3,12.5-0.3v3.6L9.1,460.5
		L9.1,460.5z"/>
</g>
<g enable-background="new    ">
	<path d="M-147.2,258.3v-3.1l6-5.4c5.4-4.3,6.5-6.3,6.5-8.8c0-2.7-1.8-4.6-5-4.6c-2.4,0-4.6,1.2-6,2.2l-0.8-3.4
		c2.2-1.2,4.6-2.2,7.4-2.2c5.5,0,8.4,3.1,8.4,7.4c0,3.6-1.9,6.3-6.5,10.1l-5,4.3h-0.3c1.9-0.3,6.5-0.3,12.5-0.3v3.6L-147.2,258.3
		L-147.2,258.3L-147.2,258.3z"/>
</g>
<g enable-background="new    ">
	<path d="M-146.3,345.7v-3.4h7.4V325l-7.3,4.6l-1.2-3.1l9.2-5.5h3.1v21.5h6.5v3.4L-146.3,345.7L-146.3,345.7z"/>
</g>
<g enable-background="new    ">
	<path d="M-144.5,509.5v-3.4h13v3.4H-144.5z"/>
	<path d="M-121.5,520.2v-3.4h7.4v-17.4l-7.3,4.6l-1.2-3.1l9.2-5.5h3.1v21.5h6.5v3.4L-121.5,520.2L-121.5,520.2z"/>
</g>
<g enable-background="new    ">
	<path d="M-144.5,597.1v-3.6h13v3.4L-144.5,597.1L-144.5,597.1z"/>
	<path d="M-122.4,607.7v-3.1l6-5.4c5.4-4.3,6.5-6.3,6.5-8.8c0-2.7-1.8-4.6-5-4.6c-2.4,0-4.6,1.2-6,2.2l-0.8-3.4
		c2.2-1.2,4.6-2.2,7.4-2.2c5.5,0,8.4,3.1,8.4,7.4c0,3.6-1.9,6.3-6.5,10.1l-5,4.3h-0.3c1.9-0.3,6.5-0.3,12.5-0.3v3.6L-122.4,607.7
		L-122.4,607.7z"/>
</g>
<text transform="matrix(1 0 0 1 -190.0605 207.4405)" font-family="'TheSerif-HP5Plain'" font-size="62.293" letter-spacing="37"> </text>
<text transform="matrix(1 0 0 1 -38.4814 207.4405)" font-family="'TheSerif-HP5Plain'" font-size="62.293" letter-spacing="8"> </text>
<text transform="matrix(1 0 0 1 194.7701 207.4405)" font-family="'TheSerif-HP5Plain'" font-size="62.293" letter-spacing="24"> </text>
<g>
	<rect x="422.1" y="156.9" fill="none" stroke="#999999" stroke-width="1.3" width="512.9" height="512.9"/>
	<line fill="none" stroke="#999999" stroke-width="1.3" x1="422.1" y1="584.4" x2="934.9" y2="584.4"/>
	<line fill="none" stroke="#999999" stroke-width="1.3" x1="422.1" y1="498.6" x2="934.9" y2="498.6"/>
	<line fill="none" stroke="#999999" stroke-width="1.3" x1="422.1" y1="413.4" x2="934.9" y2="413.4"/>
	<line fill="none" stroke="#999999" stroke-width="1.3" x1="422.1" y1="327.9" x2="934.9" y2="327.9"/>
	<line fill="none" stroke="#999999" stroke-width="1.3" x1="422.1" y1="242.4" x2="934.9" y2="242.4"/>
	<line fill="none" stroke="#999999" stroke-width="1.3" x1="849.5" y1="156.9" x2="849.5" y2="670"/>
	<line fill="none" stroke="#999999" stroke-width="1.3" x1="764.1" y1="156.9" x2="764.1" y2="670"/>
	<line fill="none" stroke="#999999" stroke-width="1.3" x1="678.4" y1="156.9" x2="678.4" y2="670"/>
	<line fill="none" stroke="#999999" stroke-width="1.3" x1="592.7" y1="156.9" x2="592.7" y2="670"/>
	<line fill="none" stroke="#999999" stroke-width="1.3" x1="507.5" y1="156.9" x2="507.5" y2="670"/>
</g>
<g enable-background="new    ">
	<path d="M432.2,33.7l-4.6-7.7l-4.6,7.7h-6.3v-2.4c1.2-0.3,2.4-0.5,3.6-0.5l5-7.4l-4.9-7.4c-1.2,0-2.4-0.3-3.4-0.5v-2.2h6.3l4.3,7.4
		l4.6-7.4h6v2.2c-1.2,0.3-2.4,0.5-3.6,0.5l-4.6,7.3l5,7.7c1.2,0,2.2,0.3,3.4,0.5v2.2L432.2,33.7L432.2,33.7L432.2,33.7z"/>
</g>
<g enable-background="new    ">
	<path d="M305.6,145.4l-7.3,20.1c-2.2,6.3-4.3,8.4-8.8,8.4c-0.8,0-1.9,0-2.8-0.3l0.3-3.4c0.9,0.3,1.8,0.5,2.7,0.5c2.2,0,3.6-1.2,5-5
		l0.9-2.4h-0.9l-6.3-17.9c-0.9,0-1.9-0.3-2.7-0.5v-2.2h9.5v2.2c-0.8,0.3-1.8,0.5-2.7,0.5l3.1,8.8c0.8,1.9,1.2,3.4,1.8,5l0,0
		c0.3-1.5,1.2-3.8,1.9-6l2.7-7.9c-0.9,0-1.9-0.3-2.7-0.5v-2.2h9.2v2.2C307.5,145.2,306.6,145.2,305.6,145.4z"/>
</g>
<g enable-background="new    ">
	<path d="M429.4,104.6c-5.5,0-10.1-3.1-10.1-12.8c0-8.2,5-12.8,10.9-12.8c5.4,0,10.1,3.1,10.1,12.5
		C440.3,100,435.4,104.6,429.4,104.6z M429.8,82c-3.4,0-6.5,2.8-6.5,9.6c0,6.9,2.7,10,6.5,10c3.4,0,6.5-2.8,6.5-9.5
		C436.3,85.1,433.8,82,429.8,82z"/>
</g>
<g enable-background="new    ">
	<path d="M504.5,104.1v-3.4h7.4V83.4l-7.3,4.6l-1.2-3.1l9.2-5.5h3.1v21.5h6.5v3.4L504.5,104.1L504.5,104.1z"/>
</g>
<g enable-background="new    ">
	<path d="M586.4,104.1v-3.1l6-5.4c5.4-4.3,6.5-6.3,6.5-8.8c0-2.6-1.8-4.6-5-4.6c-2.4,0-4.6,1.2-6,2.2l-0.7-3.4
		c2.2-1.2,4.6-2.2,7.4-2.2c5.5,0,8.4,3.1,8.4,7.4c0,3.6-1.9,6.3-6.5,10.1l-5,4.3h-0.3c1.9-0.3,6.5-0.3,12.5-0.3v3.6L586.4,104.1
		L586.4,104.1L586.4,104.1z"/>
</g>
<g enable-background="new    ">
	<path d="M674.8,108c-1.8,0-3.6-0.3-5-0.8l0.8-3.4c1.5,0.5,3.1,0.8,5,0.8c4.3,0,7.3-2.4,7.3-5.5s-2.4-5-6.8-5c-1.5,0-2.4,0-3.6,0.3
		v-3.1h0.9c6,0,8.8-1.8,8.8-5c0-2.7-1.9-4.1-5-4.1c-2.2,0-4.1,0.8-5.8,1.8l-0.8-3.1c2.2-0.9,4.3-1.5,7.3-1.5c5.5,0,8.2,2.7,8.2,6.5
		c0,3.1-1.9,5.5-5,6.5l0,0c3.4,0.5,6,3.4,6,6.8C686.6,104.1,681.7,108,674.8,108z"/>
</g>
<g enable-background="new    ">
	<path d="M766.6,100.4v6.9H763v-6.9h-12.8l-0.3-3.1L761.4,79h5.4v17.9h4.9v3.4h-5V100.4z M763,82.5L763,82.5l-9.5,14.7
		c2.4,0,7.7,0,9.5,0V82.5z"/>
</g>
<g enable-background="new    ">
	<path d="M840,108c-1.2,0-3.1-0.3-4.6-0.5l0.3-3.4c1.5,0.5,3.4,0.5,4.6,0.5c5,0,7.7-2.8,7.7-6.3c0-3.6-2.8-5.4-7.4-5.4
		c-1.8,0-3.1,0.3-4.3,0.3V79h14.5v3.6h-11.1v7.3c0.8,0,1.5,0,1.9,0c6.8,0,10.4,3.6,10.4,7.9C852.3,103.6,847.3,108,840,108z"/>
</g>
<g enable-background="new    ">
	<path d="M926.7,104.6c-5.8,0-9.5-4.3-9.5-11.9c0-11.9,5.8-16.9,13.8-16.9c0.8,0,1.9,0,2.4,0.3v3.4c-0.9-0.3-1.8-0.3-2.7-0.3
		c-5.4,0-8.2,3.1-9.5,8.8c-0.3,0.5-0.3,1.2-0.5,2.2l0,0c1.5-2.4,3.8-3.6,6.5-3.6c5.5,0,8.4,3.6,8.4,8.2
		C936.2,100.4,932.2,104.6,926.7,104.6z M926.7,89.7c-3.4,0-5.4,2.8-5.4,5.4c0,3.4,1.9,6.3,5.5,6.3c3.4,0,5.4-2.4,5.4-6
		C932.2,91.7,930.3,89.7,926.7,89.7z"/>
</g>
<circle cx="422.1" cy="156.9" r="13.3"/>
<circle cx="-162.3" cy="412.3" r="13.3"/>
<g enable-background="new    ">
	<path d="M365.2,175.7c-5.5,0-10.1-3.1-10.1-12.8c0-8.2,5-12.8,10.9-12.8c5.4,0,10.1,3.1,10.1,12.5
		C376.1,171.1,371,175.7,365.2,175.7z M365.5,153.5c-3.4,0-6.5,2.8-6.5,9.6c0,6.9,2.7,10,6.5,10c3.4,0,6.5-2.8,6.5-9.5
		C372,156.3,369.3,153.5,365.5,153.5z"/>
</g>
<g enable-background="new    ">
	<path d="M357.3,258.3v-3.4h7.4v-17.4l-7.3,4.6l-1.2-3.1l9.2-5.5h3.1V255h6.5v3.4L357.3,258.3L357.3,258.3z"/>
</g>
<g enable-background="new    ">
	<path d="M356.5,341.1v-3.1l6-5.4c5.4-4.3,6.5-6.3,6.5-8.8c0-2.7-1.8-4.6-5-4.6c-2.4,0-4.6,1.2-6,2.2l-0.8-3.4
		c2.2-1.2,4.6-2.2,7.4-2.2c5.5,0,8.4,3.1,8.4,7.4c0,3.6-1.9,6.3-6.5,10.1l-5,4.3h-0.3c1.9-0.3,6.5-0.3,12.5-0.3v3.6L356.5,341.1
		L356.5,341.1L356.5,341.1z"/>
</g>
<g enable-background="new    ">
	<path d="M362,427.7c-1.8,0-3.6-0.3-5-0.8l0.8-3.4c1.5,0.5,3.1,0.8,5,0.8c4.3,0,7.3-2.4,7.3-5.5c0-3.1-2.4-5-6.8-5
		c-1.5,0-2.4,0-3.6,0.3V411h0.9c6,0,8.8-1.8,8.8-5c0-2.7-1.9-4.1-5-4.1c-2.2,0-4.1,0.8-5.8,1.8l-0.8-3.1c2.2-0.9,4.3-1.5,7.3-1.5
		c5.5,0,8.2,2.7,8.2,6.5c0,3.1-1.9,5.5-5,6.5l0,0c3.4,0.5,6,3.4,6,6.8C373.7,423.8,368.9,427.7,362,427.7z"/>
</g>
<g enable-background="new    ">
	<path d="M371.2,503v6.9h-3.6V503h-12.8l-0.3-3.1l11.5-18.3h5.4v17.9h4.9v3.4L371.2,503L371.2,503z M367.5,485.1L367.5,485.1
		l-9.5,14.7c2.4,0,7.7,0,9.5,0V485.1z"/>
</g>
<g enable-background="new    ">
	<path d="M361.9,593.1c-1.2,0-3.1-0.3-4.6-0.5l0.3-3.4c1.5,0.5,3.4,0.5,4.6,0.5c5,0,7.7-2.8,7.7-6.3c0-3.6-2.8-5.4-7.4-5.4
		c-1.8,0-3.1,0.3-4.3,0.3v-14.1h14.5v3.6h-11.1v7.3c0.8,0,1.5,0,1.9,0c6.8,0,10.4,3.6,10.4,7.9C373.9,588.9,369.2,593.1,361.9,593.1
		z"/>
</g>
<g enable-background="new    ">
	<path d="M365.5,672.5c-5.8,0-9.5-4.3-9.5-11.9c0-11.9,5.8-16.9,13.8-16.9c0.8,0,1.9,0,2.4,0.3v3.4c-0.9-0.3-1.8-0.3-2.7-0.3
		c-5.4,0-8.2,3.1-9.5,8.8c-0.3,0.5-0.3,1.2-0.5,2.2l0,0c1.5-2.4,3.8-3.6,6.5-3.6c5.5,0,8.7,3.6,8.7,8.2
		C374.8,668.7,371,672.5,365.5,672.5z M365.6,657.7c-3.4,0-5.4,2.8-5.4,5.4c0,3.4,1.9,6.3,5.5,6.3c3.4,0,5.4-2.4,5.4-6
		C371,660,369.2,657.7,365.6,657.7z"/>
</g>
<line fill="none" stroke="#000000" stroke-width="1.3" x1="424" y1="156.9" x2="407.9" y2="156.9"/>
<line fill="none" stroke="#000000" stroke-width="1.3" x1="424" y1="242.9" x2="407.9" y2="242.9"/>
<line fill="none" stroke="#000000" stroke-width="1.3" x1="424" y1="327.9" x2="407.9" y2="327.9"/>
<line fill="none" stroke="#000000" stroke-width="1.3" x1="424" y1="413.2" x2="407.9" y2="413.2"/>
<line fill="none" stroke="#000000" stroke-width="1.3" x1="424" y1="499.1" x2="407.9" y2="499.1"/>
<line fill="none" stroke="#000000" stroke-width="1.3" x1="424" y1="585.4" x2="407.9" y2="585.4"/>
<line fill="none" stroke="#000000" stroke-width="1.3" x1="424" y1="669.2" x2="407.9" y2="669.2"/>
<line fill="none" stroke="#000000" stroke-width="1.3" x1="934" y1="156.7" x2="934" y2="140.6"/>
<line fill="none" stroke="#000000" stroke-width="1.3" x1="848.3" y1="156.7" x2="848.3" y2="140.6"/>
<line fill="none" stroke="#000000" stroke-width="1.3" x1="763" y1="156.7" x2="763" y2="140.6"/>
<line fill="none" stroke="#000000" stroke-width="1.3" x1="677.9" y1="156.7" x2="677.9" y2="140.6"/>
<line fill="none" stroke="#000000" stroke-width="1.3" x1="592.2" y1="156.7" x2="592.2" y2="140.6"/>
<line fill="none" stroke="#000000" stroke-width="1.3" x1="505.4" y1="156.7" x2="505.4" y2="140.6"/>
<line fill="none" stroke="#000000" stroke-width="1.3" x1="422.1" y1="156.7" x2="422.1" y2="140.6"/>
<polyline fill="#FFFFFF" stroke="#000000" stroke-width="1.3" points="306.6,313.7 296.4,323.7 286.3,313.7 "/>
<line fill="none" stroke="#000000" stroke-width="1.3" x1="296.4" y1="323.7" x2="296.4" y2="203.7"/>
<polyline fill="#FFFFFF" stroke="#000000" stroke-width="1.3" points="578.9,11 588.9,21.1 578.9,31.2 "/>
<line fill="none" stroke="#000000" stroke-width="1.3" x1="591.3" y1="21.1" x2="471.4" y2="21.1"/>
<g id="Layer_2">
</g>
</svg>
