<?xml version="1.0" encoding="utf-8"?>
<!-- Generator: Adobe Illustrator 18.0.0, SVG Export Plug-In . SVG Version: 6.00 Build 0)  -->
<!DOCTYPE svg PUBLIC "-//W3C//DTD SVG 1.1//EN" "http://www.w3.org/Graphics/SVG/1.1/DTD/svg11.dtd">
<svg version="1.1" id="Layer_1" xmlns="http://www.w3.org/2000/svg" xmlns:xlink="http://www.w3.org/1999/xlink" x="0px" y="0px"
	 viewBox="0 0 612 792" enable-background="new 0 0 612 792" xml:space="preserve">
<g>
	<rect x="135.4" y="157" fill="none" stroke="#999999" stroke-width="1.3" width="471.6" height="471.6"/>
	<line fill="none" stroke="#999999" stroke-width="1.3" x1="135.4" y1="550.2" x2="607.1" y2="550.2"/>
	<line fill="none" stroke="#999999" stroke-width="1.3" x1="135.4" y1="471.5" x2="607.1" y2="471.5"/>
	<line fill="none" stroke="#999999" stroke-width="1.3" x1="135.4" y1="393.2" x2="607.1" y2="393.2"/>
	<line fill="none" stroke="#999999" stroke-width="1.3" x1="135.4" y1="314.4" x2="607.1" y2="314.4"/>
	<line fill="none" stroke="#999999" stroke-width="1.3" x1="135.4" y1="235.6" x2="607.1" y2="235.6"/>
	<line fill="none" stroke="#999999" stroke-width="1.3" x1="528.3" y1="157" x2="528.3" y2="629"/>
	<line fill="none" stroke="#999999" stroke-width="1.3" x1="449.9" y1="157" x2="449.9" y2="629"/>
	<line fill="none" stroke="#999999" stroke-width="1.3" x1="371.2" y1="157" x2="371.2" y2="629"/>
	<line fill="none" stroke="#999999" stroke-width="1.3" x1="292.5" y1="157" x2="292.5" y2="629"/>
	<line fill="none" stroke="#999999" stroke-width="1.3" x1="214.1" y1="157" x2="214.1" y2="629"/>
</g>
<g enable-background="new    ">
	<path d="M144.9,754.3l-4.2-7.1l-4.2,7.1h-5.7v-2c1.1-0.2,2.2-0.5,3.2-0.5l4.7-6.9l-4.3-6.9c-1.1-0.1-2.2-0.4-3.2-0.5v-2h5.8l4,7
		l4.1-7h5.5v2c-1.1,0.2-2.2,0.5-3.2,0.5l-4.2,6.6l4.6,7c1.1,0.1,2,0.4,3.2,0.5v2h-6V754.3z"/>
</g>
<g enable-background="new    ">
	<path d="M22.1,611.7l-6.7,18.4c-2,5.8-4,7.7-8.2,7.7c-0.7,0-1.8-0.1-2.6-0.2l0.2-3.1c0.8,0.2,1.7,0.4,2.5,0.4c2,0,3.2-1.1,4.6-4.7
		l0.8-2.2h-0.8l-5.8-16.4c-0.8-0.1-1.7-0.2-2.4-0.5v-2h8.7v2c-0.7,0.2-1.6,0.4-2.5,0.5l2.9,8.2c0.6,1.8,1.1,3.1,1.4,4.7h0.1
		c0.4-1.3,1.1-3.5,1.8-5.7l2.5-7.2c-1-0.1-1.8-0.2-2.5-0.5v-2h8.4v2C23.8,611.4,22.9,611.7,22.1,611.7z"/>
</g>
<g enable-background="new    ">
	<path d="M140,688.9c-5.1,0-9.4-3-9.4-11.8c0-7.6,4.6-11.8,10-11.8c4.9,0,9.4,2.9,9.4,11.7C150,684.6,145.5,688.9,140,688.9z
		 M140.3,668.1c-3.1,0-6,2.8-6,8.8c0,6.4,2.4,9,6,9c3.1,0,6-2.6,6-8.8C146.4,670.8,144,668.1,140.3,668.1z"/>
</g>
<text transform="matrix(1 0 0 1 149.8744 688.4568)" font-family="'TheSerif-HP5Plain'" font-size="38.0794" letter-spacing="42"> </text>
<g enable-background="new    ">
	<path d="M209.1,688.4v-3.1h7v-16l-6.6,4.3l-1.2-2.9l8.4-5.2h2.9v19.8h5.9v3.1h-16.4V688.4z"/>
</g>
<text transform="matrix(1 0 0 1 226.0326 688.4568)" font-family="'TheSerif-HP5Plain'" font-size="38.0794" letter-spacing="42"> </text>
<g enable-background="new    ">
	<path d="M284.4,688.4v-2.8l5.4-4.9c4.8-4.1,6-5.7,6-8.3c0-2.5-1.4-4.2-4.7-4.2c-2.2,0-4.3,1.1-5.5,1.9l-0.7-3
		c1.9-1.2,4.2-1.9,7-1.9c5.1,0,7.8,2.9,7.8,6.7c0,3.2-1.7,5.7-5.9,9.4l-4.6,4l-0.1,0.1c1.8-0.1,5.9-0.2,11.7-0.2v3.2L284.4,688.4
		L284.4,688.4z"/>
</g>
<text transform="matrix(1 0 0 1 302.1917 688.4568)" font-family="'TheSerif-HP5Plain'" font-size="38.0794" letter-spacing="42"> </text>
<g enable-background="new    ">
	<path d="M365.6,692c-1.6,0-3.4-0.2-4.8-0.6l0.6-3.1c1.3,0.5,2.9,0.7,4.6,0.7c4.1,0,6.6-2.3,6.6-5.1c0-2.9-2.3-4.7-6.3-4.7
		c-1.3,0-2.3,0.1-3.4,0.1v-2.9h0.8c5.4,0,8.2-1.6,8.2-4.7c0-2.4-1.9-3.7-4.7-3.7c-2,0-3.8,0.6-5.4,1.4l-0.6-3
		c1.9-0.8,4.1-1.3,6.6-1.3c5.1,0,7.7,2.5,7.7,6.1c0,3-1.9,5.1-4.7,5.9v0.1c3.1,0.4,5.5,3,5.5,6.1C376.5,688.4,372,692,365.6,692z"/>
</g>
<text transform="matrix(1 0 0 1 378.3509 688.4568)" font-family="'TheSerif-HP5Plain'" font-size="38.0794" letter-spacing="42"> </text>
<g enable-background="new    ">
	<path d="M450.3,685.3v6.4h-3.4v-6.4h-11.7l-0.2-2.8l10.6-16.8h4.8v16.5h4.4v3.1H450.3z M446.9,668.7L446.9,668.7l-8.5,13.5
		c2.3-0.1,7.1-0.1,8.5-0.1V668.7z"/>
</g>
<text transform="matrix(1 0 0 1 454.5101 688.4568)" font-family="'TheSerif-HP5Plain'" font-size="38.0794" letter-spacing="42"> </text>
<g enable-background="new    ">
	<path d="M526.1,692c-1.2,0-2.9-0.1-4.2-0.4l0.2-3c1.2,0.4,3,0.5,4.3,0.5c4.6,0,7.1-2.6,7.1-5.8c0-3.2-2.6-4.9-6.9-4.9
		c-1.6,0-3,0.1-4,0.2v-13H536v3.2h-10.2v6.7c0.6,0,1.3,0,1.9,0c6.3,0,9.5,3.2,9.5,7.2C537.2,688,532.8,692,526.1,692z"/>
</g>
<text transform="matrix(1 0 0 1 530.6703 688.4568)" font-family="'TheSerif-HP5Plain'" font-size="38.0794" letter-spacing="42"> </text>
<g enable-background="new    ">
	<path d="M605.6,688.9c-5.4,0-8.7-4-8.7-10.9c0-10.9,5.4-15.5,12.6-15.5c0.7,0,1.7,0,2.3,0.1v3c-0.8-0.1-1.6-0.2-2.5-0.2
		c-4.9,0-7.7,2.9-8.7,8.2c-0.1,0.4-0.2,1.2-0.4,1.9l0,0c1.2-2.2,3.5-3.4,6-3.4c5.1,0,7.9,3.2,7.9,7.5
		C614.2,685.2,610.8,688.9,605.6,688.9z M605.8,675.1c-3.1,0-4.9,2.8-4.9,4.9c0,3.1,1.8,5.9,5.2,5.9c3,0,4.9-2.3,4.9-5.7
		C610.8,677.2,609,675.1,605.8,675.1z"/>
</g>
<circle cx="215" cy="629.1" r="12.1"/>
<circle cx="449.6" cy="236.2" r="12.1"/>
<g enable-background="new    ">
	<path d="M83.3,174.4c-5.4,0-8.7-4-8.7-10.9c0-10.9,5.4-15.5,12.6-15.5c0.7,0,1.7,0,2.3,0.1v3c-0.8-0.1-1.6-0.2-2.5-0.2
		c-4.9,0-7.7,2.9-8.7,8.2c-0.1,0.4-0.2,1.1-0.4,1.9l0,0c1.2-2.2,3.5-3.4,6-3.4c5.1,0,7.9,3.2,7.9,7.5
		C91.9,170.7,88.5,174.4,83.3,174.4z M83.5,160.6c-3.1,0-4.9,2.8-4.9,4.9c0,3.1,1.8,5.9,5.2,5.9c3,0,4.9-2.3,4.9-5.7
		C88.5,162.8,86.8,160.6,83.5,160.6z"/>
</g>
<g enable-background="new    ">
	<path d="M80,253.7c-1.2,0-2.9-0.1-4.2-0.4l0.2-3c1.2,0.4,3,0.5,4.3,0.5c4.6,0,7.1-2.6,7.1-5.7c0-3.2-2.6-4.9-6.9-4.9
		c-1.6,0-3,0.1-4,0.2v-13H90v3.2H79.8v6.7c0.6,0,1.3,0,1.9,0c6.3,0,9.5,3.2,9.5,7.2C91.1,249.7,86.6,253.7,80,253.7z"/>
</g>
<g enable-background="new    ">
	<path d="M88.6,323.1v6.4h-3.4v-6.4H73.5l-0.2-2.8l10.6-16.8h4.8v16.5h4.4v3.1L88.6,323.1L88.6,323.1z M85.3,306.6L85.3,306.6
		l-8.5,13.5c2.3-0.1,7.1-0.1,8.5-0.1V306.6z"/>
</g>
<g enable-background="new    ">
	<path d="M80.2,406c-1.6,0-3.4-0.2-4.8-0.6l0.6-3.1c1.3,0.5,2.9,0.7,4.6,0.7c4.1,0,6.6-2.3,6.6-5.1c0-2.9-2.3-4.7-6.3-4.7
		c-1.3,0-2.3,0.1-3.4,0.1v-2.9h0.8c5.4,0,8.2-1.6,8.2-4.7c0-2.4-1.9-3.7-4.7-3.7c-2,0-3.8,0.6-5.4,1.4l-0.6-3
		c1.9-0.8,4.1-1.3,6.6-1.3c5.1,0,7.7,2.5,7.7,6.1c0,3-1.9,5.1-4.7,5.9v0.1c3.1,0.4,5.5,3,5.5,6.1C91,402.4,86.5,406,80.2,406z"/>
</g>
<g enable-background="new    ">
	<path d="M75,478.7v-2.8l5.4-4.9c4.8-4.1,6-5.7,6-8.3c0-2.5-1.4-4.2-4.7-4.2c-2.2,0-4.3,1.1-5.5,1.9l-0.7-3c1.9-1.2,4.2-1.9,7-1.9
		c5.1,0,7.8,2.9,7.8,6.7c0,3.2-1.7,5.7-5.9,9.4l-4.6,4l-0.1,0.1c1.8-0.1,5.9-0.2,11.7-0.2v3.2L75,478.7L75,478.7z"/>
</g>
<g enable-background="new    ">
	<path d="M75.8,554.8v-3.1h7v-16l-6.6,4.3l-1.2-2.9l8.4-5.2h2.9v19.8h5.9v3.1H75.8V554.8z"/>
</g>
<g enable-background="new    ">
	<path d="M83,631.3c-5.1,0-9.4-3-9.4-11.8c0-7.6,4.6-11.8,10-11.8c4.9,0,9.4,2.9,9.4,11.7C93,627.1,88.5,631.3,83,631.3z
		 M83.3,610.6c-3.1,0-6,2.8-6,8.8c0,6.4,2.4,9,6,9c3.1,0,6-2.6,6-8.8C89.3,613.4,86.9,610.6,83.3,610.6z"/>
</g>
<line fill="none" stroke="#000000" stroke-width="1.3" x1="137.3" y1="157" x2="122.2" y2="157"/>
<line fill="none" stroke="#000000" stroke-width="1.3" x1="137.3" y1="236.1" x2="122.2" y2="236.1"/>
<line fill="none" stroke="#000000" stroke-width="1.3" x1="137.3" y1="314.4" x2="122.2" y2="314.4"/>
<line fill="none" stroke="#000000" stroke-width="1.3" x1="137.3" y1="392.8" x2="122.2" y2="392.8"/>
<line fill="none" stroke="#000000" stroke-width="1.3" x1="137.3" y1="471.5" x2="122.2" y2="471.5"/>
<line fill="none" stroke="#000000" stroke-width="1.3" x1="137.3" y1="551.3" x2="122.2" y2="551.3"/>
<line fill="none" stroke="#000000" stroke-width="1.3" x1="137.3" y1="628.2" x2="122.2" y2="628.2"/>
<line fill="none" stroke="#000000" stroke-width="1.3" x1="606.5" y1="643.5" x2="606.5" y2="628.3"/>
<line fill="none" stroke="#000000" stroke-width="1.3" x1="527.4" y1="643.5" x2="527.4" y2="628.3"/>
<line fill="none" stroke="#000000" stroke-width="1.3" x1="449.1" y1="643.5" x2="449.1" y2="628.3"/>
<line fill="none" stroke="#000000" stroke-width="1.3" x1="370.7" y1="643.5" x2="370.7" y2="628.3"/>
<line fill="none" stroke="#000000" stroke-width="1.3" x1="291.9" y1="643.5" x2="291.9" y2="628.3"/>
<line fill="none" stroke="#000000" stroke-width="1.3" x1="212.1" y1="643.5" x2="212.1" y2="628.3"/>
<line fill="none" stroke="#000000" stroke-width="1.3" x1="135.4" y1="643.5" x2="135.4" y2="628.3"/>
<polyline fill="#FFFFFF" stroke="#000000" stroke-width="1.3" points="4,484.3 13.4,475.1 22.9,484.3 "/>
<line fill="none" stroke="#000000" stroke-width="1.3" x1="13.4" y1="475.1" x2="13.4" y2="585.6"/>
<polyline fill="#FFFFFF" stroke="#000000" stroke-width="1.3" points="279.5,733.4 288.9,742.8 279.5,752.1 "/>
<line fill="none" stroke="#000000" stroke-width="1.3" x1="291.1" y1="742.8" x2="180.6" y2="742.8"/>
<line fill="none" stroke="#000000" stroke-width="1.3" x1="215" y1="628.2" x2="449.2" y2="235.6"/>
<g enable-background="new    ">
	<path d="M486.9,246.2c-1.4,0-3.8-0.1-6.6-0.1h-3.4v-2c1-0.2,2.2-0.4,3.4-0.5V223c-1.2-0.1-2.3-0.2-3.4-0.5v-2h3.2
		c1.8,0,4.3-0.1,7.3-0.1c5.5,0,8.2,2.3,8.2,6.1c0,2.6-1.4,5.1-4.2,6v0.1c3.6,0.6,5.2,3.2,5.2,5.9
		C496.7,241.4,494.8,246.2,486.9,246.2z M486.9,223c-1.2,0-2.2,0-3.2,0.1v8.3c0.7,0,1.4,0,2.4,0c4.2,0,6-1.7,6-4.4
		C492.2,224.7,490.9,223,486.9,223z M486.1,234.1c-0.5,0-1.8,0-2.4,0v9c0.7,0.1,1.8,0.2,3.4,0.2c4.2,0,6-2,6-4.8
		C493,235.2,490,234.1,486.1,234.1z"/>
	<path d="M522.5,254.6c-6.4-5.8-9.4-11.8-9.4-19.1c0-7.8,3.7-14.2,9.5-19.4l1.9,2c-5.2,5.1-7.9,10.9-7.9,17.1
		c0,6.4,2.6,12.1,7.9,17.3L522.5,254.6z"/>
	<path d="M546.5,242.9v6.4h-3.4v-6.4h-11.7l-0.2-2.8l10.6-16.8h4.8v16.5h4.4v3.1L546.5,242.9L546.5,242.9z M543.1,226.4L543.1,226.4
		l-8.5,13.5c2.3-0.1,7.1-0.1,8.5-0.1V226.4z"/>
	<path d="M557.8,251c4-1.1,5.1-2.9,5.1-4.2c0-2.4-1.9-2.4-1.9-4.4c0-1.6,1.2-2.8,2.6-2.8c2.4,0,3.5,2.3,3.5,4.8
		c0,4.7-3.2,7.5-8.8,8.8L557.8,251z"/>
	<path d="M583.5,249.6c-1.2,0-2.9-0.1-4.2-0.4l0.2-3c1.2,0.4,3,0.5,4.3,0.5c4.6,0,7.1-2.6,7.1-5.7c0-3.2-2.6-4.9-6.9-4.9
		c-1.6,0-3,0.1-4,0.2v-13h13.3v3.2h-10.2v6.7c0.6,0,1.3,0,1.9,0c6.3,0,9.5,3.2,9.5,7.2C594.7,245.6,590.3,249.6,583.5,249.6z"/>
	<path d="M605.8,216c6.4,5.9,9.4,11.8,9.4,19.2c0,7.8-3.7,14.2-9.5,19.4l-1.9-1.9c5.2-5.1,7.9-11.1,7.9-17.1
		c0-6.4-2.6-12.3-7.9-17.3L605.8,216z"/>
</g>
<g enable-background="new    ">
	<path d="M262.2,618.3v-2c1-0.2,1.9-0.4,3-0.5l-1.4-4.2h-10.7l-1.4,4.2c1,0.1,2,0.2,3,0.5v2h-9v-2c0.7-0.2,1.7-0.4,2.3-0.4l8.4-23.2
		h4.2l8.5,23.2c0.7,0,1.7,0.2,2.3,0.4v2H262.2z M259.6,599.7c-0.5-1.3-0.8-2.5-1.2-3.7h-0.1c-0.4,1.2-0.7,2.4-1.1,3.7l-3.4,9.1h8.9
		L259.6,599.7z"/>
	<path d="M287.2,626.8c-6.4-5.8-9.4-11.8-9.4-19.1c0-7.8,3.7-14.2,9.5-19.4l1.9,2c-5.2,5.1-7.9,10.9-7.9,17.1
		c0,6.4,2.6,12.1,7.9,17.3L287.2,626.8z"/>
	<path d="M298.5,618.3v-3.1h7v-16l-6.6,4.3l-1.2-2.9l8.4-5.2h2.9v19.8h5.9v3.1h-16.4V618.3z"/>
	<path d="M321.7,623.2c4-1.1,5.1-2.9,5.1-4.2c0-2.4-1.9-2.4-1.9-4.4c0-1.6,1.2-2.8,2.6-2.8c2.4,0,3.5,2.3,3.5,4.8
		c0,4.7-3.2,7.5-8.8,8.8L321.7,623.2z"/>
	<path d="M350.6,618.7c-5.1,0-9.4-3-9.4-11.8c0-7.6,4.6-11.8,10-11.8c4.9,0,9.4,2.9,9.4,11.7C360.6,614.4,355.9,618.7,350.6,618.7z
		 M350.9,597.9c-3.1,0-6,2.8-6,8.8c0,6.4,2.4,9,6,9c3.1,0,6-2.6,6-8.8C356.9,600.6,354.5,597.9,350.9,597.9z"/>
	<path d="M369.9,588.2c6.4,5.9,9.4,11.8,9.4,19.2c0,7.8-3.7,14.2-9.5,19.4l-1.9-1.9c5.2-5.1,7.9-11.1,7.9-17.1
		c0-6.4-2.6-12.3-7.9-17.3L369.9,588.2z"/>
</g>
</svg>
