<?xml version="1.0" encoding="utf-8"?>
<!-- Generator: Adobe Illustrator 18.0.0, SVG Export Plug-In . SVG Version: 6.00 Build 0)  -->
<!DOCTYPE svg PUBLIC "-//W3C//DTD SVG 1.1//EN" "http://www.w3.org/Graphics/SVG/1.1/DTD/svg11.dtd">
<svg version="1.1" id="Layer_1" xmlns="http://www.w3.org/2000/svg" xmlns:xlink="http://www.w3.org/1999/xlink" x="0px" y="0px"
	 viewBox="0 0 612 792" enable-background="new 0 0 612 792" xml:space="preserve">
<g id="Layer_2" display="none">
	<rect x="270.1" y="678.4" display="inline" fill="#FBB03B" width="14.5" height="28.7"/>
	<rect x="421.6" y="738.8" display="inline" fill="#FBB03B" width="7.2" height="28.7"/>
	<rect x="212" y="678.4" display="inline" fill="#00FFFF" width="47.3" height="28.7"/>
	<rect x="153" y="678.4" display="inline" fill="#00FF00" width="47.3" height="28.7"/>
	<rect x="365.7" y="738.8" display="inline" fill="#00FFFF" width="47.3" height="29.1"/>
	<rect x="267.5" y="739.2" display="inline" fill="#00FF00" width="47.5" height="28.5"/>
	<rect x="65.3" y="738.4" display="inline" fill="#FFFF00" width="128.6" height="29.1"/>
	<rect x="65.3" y="678.7" display="inline" fill="#FFFF00" width="59.9" height="28.7"/>
	<text transform="matrix(1 0 0 1 66.3311 700.0293)" display="inline" font-family="'TheSansMono-W3Light'" font-size="24.3844">line (1,0,4,5);</text>
</g>
<g id="Layer_1_1_">
	<g enable-background="new    ">
		<path d="M-568.5,680.5c-5.5,0-10.9-0.4-13.8-0.4h-7.1v-5.1c2.2-0.7,4.7-1.1,7.1-1.1v-50.6c-2.4-0.2-4.9-0.7-7.1-1.1V617h6.9
			c4.2,0,10.7-0.2,16.4-0.2c17.5,0,28.2,9.5,28.2,31.1C-537.9,669.4-550.6,680.5-568.5,680.5z M-566.8,623.7c-2.9,0-6.2,0.2-8.2,0.2
			v48.6c2.2,0.4,5.1,0.7,7.3,0.7c12.9,0,21.7-7.8,21.7-24.9C-545.9,632.3-552.6,623.7-566.8,623.7z"/>
		<path d="M-504.2,641c-9.3-1.8-13.3,5.3-13.3,20.2v12.4c2.4,0.2,4.9,0.7,7.1,1.1v5.1h-21.5v-4.9c2.2-0.7,4.7-1.1,7.1-1.1v-33.5
			c-2-0.4-4.7-0.7-7.1-0.9v-5.1c4-0.7,9.8-0.9,14.2-0.7c0,2.9-0.2,7.1-0.9,11.1l0,0c1.8-6.4,5.8-12.9,14.6-12L-504.2,641z"/>
		<path d="M-475.6,680c0-3.3,0-6.7,0.4-9.3h-0.2c-2,5.8-7.1,10-13.8,10c-6.7,0-11.1-4.7-11.1-12.2c0-10,9.1-16,24.2-16V649
			c0-6.4-2-10.2-8.4-10.2c-2.4,0-5.3,0.4-7.5,1.3c-0.2,2.4-0.7,4.9-0.9,7.5h-4.4V635c4-1.6,8.9-2.7,13.8-2.7
			c11.8,0,15.1,6.2,15.1,15.5v25.3c2,0.4,4.7,0.7,6.9,0.9v5.1C-465.6,680-471.1,680.3-475.6,680z M-476,658.5
			c-12.6,0-17.1,3.6-17.1,8.9c0,4,2.4,6.9,6.2,6.9c6.4,0,10.9-7.3,10.9-14.6C-476,659.6-476,658.5-476,658.5z"/>
		<path d="M-396.6,639.9l-11.1,40.4h-8.4l-8-27.3c-0.9-2.9-1.6-6-2.2-9.3l0,0c-0.9,4.2-1.8,7.8-2.9,11.8l-6.7,24.9h-8.4l-10.4-40.4
			c-1.8-0.2-3.6-0.7-5.1-1.1v-5.1h18.6v5.1c-1.8,0.7-3.6,0.9-5.5,1.1l4.9,20.9c0.9,3.8,1.8,7.5,2.4,10.7l0,0c0.7-4,1.8-7.8,2.7-11.3
			l7.3-26.2h7.5l7.3,26.2c1.6,5.5,2.2,8.2,2.9,11.3l0,0c0.7-3.3,1.6-6,2.4-10.2l5.3-21.1c-1.8-0.2-4-0.7-5.5-1.1v-5.1h18.2v5.1
			C-393,639.2-394.8,639.7-396.6,639.9z"/>
		<path d="M-344.9,680c0-3.3,0-6.7,0.4-9.3h-0.2c-2,5.8-7.1,10-13.8,10c-6.7,0-11.1-4.7-11.1-12.2c0-10,9.1-16,24.2-16V649
			c0-6.4-2-10.2-8.4-10.2c-2.4,0-5.3,0.4-7.5,1.3c-0.2,2.4-0.7,4.9-0.9,7.5h-4.4V635c4-1.6,8.9-2.7,13.8-2.7
			c11.8,0,15.1,6.2,15.1,15.5v25.3c2,0.4,4.7,0.7,6.9,0.9v5.1C-334.9,680-340.7,680.3-344.9,680z M-345.3,658.5
			c-12.6,0-17.1,3.6-17.1,8.9c0,4,2.4,6.9,6.2,6.9c6.4,0,10.9-7.3,10.9-14.6V658.5z"/>
		<path d="M-310.7,680v-5.1c2-0.7,4.4-1.1,6.9-1.1v-55.3c-2-0.4-4.7-0.7-6.9-0.9v-5.1c4.2-0.7,9.5-0.9,14.2-0.7v61.9
			c2.4,0.2,4.9,0.7,6.9,1.1v5.1H-310.7z"/>
		<path d="M-285.8,680v-5.1c2.2-0.7,4.7-1.1,7.1-1.1v-33.5c-2-0.4-4.7-0.7-7.1-0.9v-5.1c4-0.7,9.8-0.9,14.4-0.7v40.2
			c2.4,0.2,4.9,0.7,6.9,1.1v5.1H-285.8z M-275,624.3c-2.7,0-4.9-2.4-4.9-5.3s2.2-5.5,4.9-5.5s4.9,2.4,4.9,5.5
			C-270.3,621.9-272.5,624.3-275,624.3z"/>
		<path d="M-228.1,680v-30c0-6.4-1.6-10.4-6.9-10.4c-6.7,0-11.5,7.8-11.5,18.2v16c2.2,0.2,4.4,0.7,6.4,1.1v5.1H-261v-5.1
			c2.2-0.7,4.7-1.1,7.1-1.1v-33.5c-2-0.4-4.7-0.7-7.1-0.9v-5.1c4-0.7,9.8-0.9,14.2-0.7c0,2.7-0.2,7.1-0.7,9.8l0,0
			c2.4-6.4,7.3-10.7,14.2-10.7c9.1,0,12,6.7,12,14.9v26.2c2.4,0.2,4.9,0.7,6.7,1.1v5.1L-228.1,680L-228.1,680z"/>
		<path d="M-175.3,656.7h-26.4c-0.2,12.2,4,17.3,12.6,17.3c4,0,8-0.9,11.5-2.7l1.1,6.7c-4,1.8-8.9,2.9-14,2.9
			c-12.2,0-18.9-7.5-18.9-23.7c0-13.8,6.7-24.4,18.2-24.4c11.3,0,16,8.7,16,19.1C-175.1,653-175.3,654.7-175.3,656.7z M-191.5,639.2
			c-5.3,0-9.1,4.4-10,11.5h18.9C-182.4,643.6-186,639.2-191.5,639.2z"/>
		<path d="M-122.3,619c-2-0.7-4.2-1.1-6-1.1c-5.8,0-8.4,3.8-8.4,12v3.6h11.3v6.4h-11.3v33.7c2.4,0.2,4.9,0.7,7.1,1.1v5.1h-21.5v-4.9
			c2.2-0.7,4.7-1.1,7.1-1.1v-33.7h-8.9v-6.4h8.9v-3.6c0-12.9,5.5-18.9,15.8-18.9c2.2,0,4.4,0.2,6.7,0.9L-122.3,619z"/>
		<path d="M-94.3,641c-9.3-1.8-13.3,5.3-13.3,20.2v12.4c2.4,0.2,4.9,0.7,7.1,1.1v5.1h-21.5v-4.9c2.2-0.7,4.7-1.1,7.1-1.1v-33.5
			c-2-0.4-4.7-0.7-7.1-0.9v-5.1c4-0.7,9.8-0.9,14.2-0.7c0,2.9-0.2,7.1-0.9,11.1l0,0c1.8-6.4,5.8-12.9,14.6-12L-94.3,641z"/>
		<path d="M-71.3,680.9c-11.1,0-18.2-7.3-18.2-23.3c0-14,7.5-24.9,19.7-24.9c10.2,0,18.2,6.4,18.2,23.3
			C-51.5,670.1-59.1,680.9-71.3,680.9z M-70.4,639.9c-6,0-11.5,5.1-11.5,17.1c0,10.7,4,16.9,11.3,16.9c6,0,11.3-5.3,11.3-17.1
			C-59.3,645.9-63.1,639.9-70.4,639.9z"/>
		<path d="M11.3,680v-29.7c0-6.4-1.3-10.7-6.4-10.7c-5.8,0-11.3,7.1-11.3,18.4v15.8c2.2,0.2,4.4,0.7,6.7,1.1v5.1h-13.8v-29.7
			c0-6-1.1-10.7-6.7-10.7c-6,0-11.3,7.8-11.3,18.4v15.8c2.2,0.2,4.4,0.7,6.4,1.1v5.1H-46v-5.1c2.2-0.7,4.7-1.1,7.1-1.1v-33.5
			c-2-0.4-4.7-0.7-7.1-0.9v-5.1c4-0.7,9.8-0.9,14.2-0.7c0,2.7-0.2,7.1-0.7,9.8h0.2c2.2-6.4,7.5-10.7,14-10.7
			c8.4,0,10.9,6.7,11.1,10.7c1.6-4.4,6-10.7,13.8-10.7c7.5,0,12,4.7,12,15.3v25.7c2.4,0.2,4.9,0.7,6.9,1.1v5.1L11.3,680L11.3,680z"
			/>
		<path d="M62.3,699.6c-9.5-17.5-11.8-32.4-11.8-46.2s2.7-29.7,12-46.4l5.3,2.9c-6.7,13.1-10,28-10,43c0,16,3.3,30.4,10.2,43.5
			L62.3,699.6z"/>
		<path d="M90.7,680v-5.1c2.7-0.7,5.8-1.1,8.9-1.1v-34.4l-9.1,4.4l-1.1-7.1l12-5.3h6v42.4c2.2,0.2,4.9,0.7,7.3,1.1v5.1L90.7,680
			L90.7,680z"/>
		<path d="M139.8,694.5l-3.1-3.1c5.1-6.4,5.3-10.7,3.6-13.5c-2.2-3.3-0.4-8.4,3.6-8.4C149.5,669.6,152.2,681.4,139.8,694.5z"/>
		<path d="M191.2,680.9c-11.3,0-20-7.5-20-24.9c0-16,10-25.7,21.7-25.7c13.3,0,20,10,20,24.6C213,671.4,203,680.9,191.2,680.9z
			 M192.4,637.7c-7.5,0-13.8,6.7-13.8,18c0,10.2,4,18.2,13.3,18.2c7.5,0,13.5-6.7,13.5-18.2C205.7,645.6,201.5,637.7,192.4,637.7z"
			/>
		<path d="M242.3,699.6l-5.3-2.9c6.7-13.1,10-28,10-43c0-16-3.3-30.2-10.2-43.5l5.5-2.9c9.5,17.3,11.8,32.2,11.8,45.9
			C254,666.7,251.4,682.7,242.3,699.6z"/>
		<path d="M296.4,680.9c-8.2,0-10.9-4-10.9-14v-26.6h-8.2v-6.4h8.2v-15.1l7.3-2.4v17.3h11.3v6.4h-11.3v23.7c0,7.8,1.3,9.8,5.8,9.8
			c1.8,0,3.6-0.2,5.1-0.7l0.7,6.9C302.2,680.5,299.1,680.9,296.4,680.9z"/>
		<path d="M328.6,680.9c-11.1,0-18.2-7.3-18.2-23.3c0-14,7.5-24.9,19.7-24.9c10.2,0,18.2,6.4,18.2,23.3
			C348.4,670.1,340.8,680.9,328.6,680.9z M329.5,639.9c-6,0-11.5,5.1-11.5,17.1c0,10.7,4,16.9,11.3,16.9c6,0,11.3-5.3,11.3-17.1
			C340.8,645.9,336.8,639.9,329.5,639.9z"/>
		<path d="M386.7,699.6c-9.5-17.5-11.8-32.4-11.8-46.2s2.7-29.7,12-46.4l5.3,2.9c-6.7,13.1-10,28-10,43c0,16,3.3,30.4,10.2,43.5
			L386.7,699.6z"/>
		<path d="M445.1,680v11.3c2.4,0.2,4.9,0.7,6.9,1.3v4.7h-21.1v-4.7c2.2-0.7,4.7-1.1,7.1-1.3V680h-24l-1.1-6.9l22.9-41.7h9.5v41.1
			h9.3v7.5L445.1,680L445.1,680z M437.8,639.7L437.8,639.7l-18,32.8c4.7,0,15.1,0,18,0V639.7z"/>
		<path d="M478.8,694.5l-3.1-3.1c5.1-6.4,5.3-10.7,3.6-13.5c-2.2-3.3-0.4-8.4,3.6-8.4C488.6,669.6,491.5,681.4,478.8,694.5z"/>
		<path d="M517,698.2c-2.2,0-4.2-0.2-6-0.4l0.7-7.8c1.6,0.4,3.8,0.7,5.8,0.7c10,0,15.1-6,15.1-13.8s-5.5-13.5-15.3-13.5
			c-1.6,0-3.1,0-4.7,0v-32.2h26v8.2h-18.9v16.6c13.5,0,21.1,8.2,21.1,19.3C540.7,688.7,530.5,698.2,517,698.2z"/>
		<path d="M569.6,699.6l-5.3-2.9c6.7-13.1,10-28,10-43c0-16-3.3-30.2-10.2-43.5l5.5-2.9c9.5,17.3,11.8,32.2,11.8,45.9
			C581.6,666.7,578.9,682.7,569.6,699.6z"/>
		<path d="M596,680.9c-2.7,0-5.1-2.7-5.1-5.8c0-3.1,2.2-5.8,5.1-5.8c2.9,0,5.1,2.7,5.1,5.8S598.9,680.9,596,680.9z"/>
	</g>
	<g enable-background="new    ">
		<path fill="#999999" d="M-414.3,771.7l-9.5,26.2h-6.7l-9.3-26.2c-1.3-0.2-2.7-0.4-4-0.7v-3.3h14v3.3c-1.3,0.4-2.9,0.7-4.2,0.7
			l5.1,14.6c0.7,2,1.3,4,1.8,6l0,0c0.4-2,1.1-4,1.8-5.8l5.1-14.9c-1.6-0.2-2.9-0.4-4.2-0.7v-3.3h14v3.3
			C-411.7,771.2-413,771.5-414.3,771.7z"/>
		<path fill="#999999" d="M-383.5,782.8h-19.7c-0.2,8,2.9,11.3,9.5,11.3c2.9,0,6-0.7,8.7-1.8l0.9,4.2c-3.1,1.1-6.7,2-10.4,2
			c-9.1,0-14.2-4.9-14.2-15.5c0-9.1,5.1-15.8,13.5-15.8s12,5.8,12,12.4C-383.3,780.3-383.3,781.4-383.5,782.8z M-395.7,771.2
			c-4,0-6.7,2.9-7.3,7.5h14.2C-388.8,774.1-391.2,771.2-395.7,771.2z"/>
		<path fill="#999999" d="M-358,772.6c-6.9-1.1-10,3.6-10,13.3v8c1.8,0.2,3.8,0.4,5.3,0.9v3.3h-16v-3.3c1.6-0.4,3.6-0.7,5.3-0.9
			v-21.7c-1.6-0.2-3.6-0.4-5.3-0.7v-3.3c3.1-0.4,7.3-0.7,10.7-0.4c0,2-0.2,4.7-0.7,7.1l0,0c1.3-4.2,4.4-8.4,11.1-7.8L-358,772.6z"/>
		<path fill="#999999" d="M-341.1,798.3c-4.2,0-7.1-0.4-10.4-1.1v-39.3c-1.6-0.2-3.6-0.4-5.3-0.7v-3.3c3.1-0.4,7.1-0.7,10.7-0.4
			v14.6c0,1.8-0.2,4.2-0.4,5.8h0.2c1.6-4.2,5.3-6.7,10-6.7c7.1,0,11.1,4.9,11.1,14.2C-325.1,791.9-331.1,798.3-341.1,798.3z
			 M-337.5,771.7c-5.5,0-8.2,6.4-8.2,11.5v10c1.6,0.4,3.3,0.7,5.3,0.7c5.8,0,9.5-3.6,9.5-12.2C-330.9,775.2-333.1,771.7-337.5,771.7
			z"/>
	</g>
	<g enable-background="new    ">
		<path fill="#999999" d="M85.4,798.5c-8.2,0-13.5-4.7-13.5-15.3c0-9.1,5.5-16.2,14.6-16.2c7.8,0,13.5,4.2,13.5,15.3
			C100,791.4,94.5,798.5,85.4,798.5z M86.1,771.7c-4.4,0-8.7,3.3-8.7,11.1c0,7.1,2.9,11.1,8.4,11.1c4.4,0,8.4-3.6,8.4-11.1
			C94.5,775.7,91.6,771.7,86.1,771.7z"/>
		<path fill="#999999" d="M118.2,798.3c-4.2,0-7.1-0.4-10.4-1.1v-39.3c-1.6-0.2-3.6-0.4-5.3-0.7v-3.3c3.1-0.4,7.1-0.7,10.7-0.4v14.6
			c0,1.8-0.2,4.2-0.4,5.8h0.2c1.6-4.2,5.3-6.7,10-6.7c7.1,0,11.1,4.9,11.1,14.2C134,791.9,128,798.3,118.2,798.3z M121.6,771.7
			c-5.5,0-8.2,6.4-8.2,11.5v10c1.6,0.4,3.3,0.7,5.3,0.7c5.8,0,9.5-3.6,9.5-12.2C128.2,775.2,126.2,771.7,121.6,771.7z"/>
		<path fill="#999999" d="M137.8,813.4c-1.1,0-2.9-0.2-4-0.4l0.4-4.7c1.1,0.4,2.4,0.7,3.8,0.7c3.8,0,4.9-1.6,4.9-7.1v-29.7
			c-1.6-0.2-3.6-0.4-5.1-0.7v-3.3c2.9-0.4,7.1-0.7,10.4-0.4v33.5C148.4,809.4,145.8,813.4,137.8,813.4z M145.8,761.7
			c-2,0-3.6-1.6-3.6-3.6s1.6-3.6,3.6-3.6s3.6,1.6,3.6,3.6C149.3,760.1,147.8,761.7,145.8,761.7z"/>
		<path fill="#999999" d="M181.5,782.8h-19.7c-0.2,8,2.9,11.3,9.5,11.3c2.9,0,6-0.7,8.7-1.8l0.9,4.2c-3.1,1.1-6.7,2-10.4,2
			c-9.1,0-14.2-4.9-14.2-15.5c0-9.1,5.1-15.8,13.5-15.8c8.4,0,12,5.8,12,12.4C181.7,780.3,181.5,781.4,181.5,782.8z M169.3,771.2
			c-4,0-6.7,2.9-7.3,7.5h14.2C176.2,774.1,173.5,771.2,169.3,771.2z"/>
		<path fill="#999999" d="M200.6,798.3c-7.5,0-13.8-3.6-13.8-14.6c0-9.8,4.9-16.6,15.1-16.6c2.7,0,5.3,0.4,7.3,1.1v8.9h-3.3
			c-0.4-1.8-0.7-3.6-0.9-4.9c-1.1-0.2-2.4-0.4-4-0.4c-5.3,0-8.4,4.7-8.4,11.1c0,6.2,2,10.9,9.1,10.9c2.7,0,5.1-0.4,7.3-1.6l0.9,4.7
			C207.7,797.6,204.3,798.3,200.6,798.3z"/>
		<path fill="#999999" d="M226.1,798.3c-6.2,0-8-2.7-8-9.1v-17.3h-6.2v-4.2h6.2v-9.8l5.5-1.6v11.3h8.4v4.2h-8.4v15.5
			c0,4.9,0.9,6.4,4.2,6.4c1.3,0,2.7-0.2,3.8-0.4l0.4,4.4C230.3,798.1,228.1,798.3,226.1,798.3z"/>
	</g>
	<g enable-background="new    ">
		<path fill="#999999" d="M410.9,798.5c-8.2,0-13.5-4.7-13.5-15.3c0-9.1,5.5-16.2,14.6-16.2c7.8,0,13.5,4.2,13.5,15.3
			C425.6,791.4,420,798.5,410.9,798.5z M411.6,771.7c-4.4,0-8.7,3.3-8.7,11.1c0,7.1,2.9,11.1,8.4,11.1c4.4,0,8.4-3.6,8.4-11.1
			C419.8,775.7,416.9,771.7,411.6,771.7z"/>
		<path fill="#999999" d="M443.5,798.3c-4.2,0-7.1-0.4-10.4-1.1v-39.3c-1.6-0.2-3.6-0.4-5.3-0.7v-3.3c3.1-0.4,7.1-0.7,10.7-0.4v14.6
			c0,1.8-0.2,4.2-0.4,5.8h0.2c1.6-4.2,5.3-6.7,10-6.7c7.1,0,11.1,4.9,11.1,14.2C459.5,791.9,453.5,798.3,443.5,798.3z M447.1,771.7
			c-5.5,0-8.2,6.4-8.2,11.5v10c1.6,0.4,3.3,0.7,5.3,0.7c5.8,0,9.5-3.6,9.5-12.2C453.8,775.2,451.5,771.7,447.1,771.7z"/>
		<path fill="#999999" d="M463.3,813.4c-1.1,0-2.9-0.2-4-0.4l0.4-4.7c1.1,0.4,2.4,0.7,3.8,0.7c3.8,0,4.9-1.6,4.9-7.1v-29.7
			c-1.6-0.2-3.6-0.4-5.1-0.7v-3.3c2.9-0.4,7.1-0.7,10.4-0.4v33.5C473.7,809.4,471.1,813.4,463.3,813.4z M471.1,761.7
			c-2,0-3.6-1.6-3.6-3.6s1.6-3.6,3.6-3.6c2,0,3.6,1.6,3.6,3.6C474.6,760.1,473.1,761.7,471.1,761.7z"/>
		<path fill="#999999" d="M506.8,782.8H487c-0.2,8,2.9,11.3,9.5,11.3c2.9,0,6-0.7,8.7-1.8l0.9,4.2c-3.1,1.1-6.7,2-10.4,2
			c-9.1,0-14.2-4.9-14.2-15.5c0-9.1,5.1-15.8,13.5-15.8c8.4,0,12,5.8,12,12.4C507,780.3,507,781.4,506.8,782.8z M494.8,771.2
			c-4,0-6.7,2.9-7.3,7.5h14.2C501.7,774.1,499,771.2,494.8,771.2z"/>
		<path fill="#999999" d="M526.1,798.3c-7.5,0-13.8-3.6-13.8-14.6c0-9.8,4.9-16.6,15.1-16.6c2.7,0,5.3,0.4,7.3,1.1v8.9h-3.3
			c-0.4-1.8-0.7-3.6-0.9-4.9c-1.1-0.2-2.4-0.4-4-0.4c-5.3,0-8.4,4.7-8.4,11.1c0,6.2,2,10.9,9.1,10.9c2.7,0,5.1-0.4,7.3-1.6l0.9,4.7
			C533,797.6,529.6,798.3,526.1,798.3z"/>
		<path fill="#999999" d="M551.6,798.3c-6.2,0-8-2.7-8-9.1v-17.3h-6.2v-4.2h6.2v-9.8l5.5-1.6v11.3h8.4v4.2H549v15.5
			c0,4.9,0.9,6.4,4.2,6.4c1.3,0,2.7-0.2,3.8-0.4l0.4,4.4C555.8,798.1,553.4,798.3,551.6,798.3z"/>
	</g>
	<line fill="none" stroke="#999999" stroke-width="5" x1="-590.1" y1="720" x2="-167.6" y2="720"/>
	<line fill="none" stroke="#999999" stroke-width="5" x1="54.3" y1="720" x2="262.3" y2="720"/>
	<line fill="none" stroke="#999999" stroke-width="5" x1="379" y1="720" x2="586.9" y2="720"/>
</g>
</svg>
