<?xml version="1.0" encoding="utf-8"?>
<!-- Generator: Adobe Illustrator 18.0.0, SVG Export Plug-In . SVG Version: 6.00 Build 0)  -->
<!DOCTYPE svg PUBLIC "-//W3C//DTD SVG 1.1//EN" "http://www.w3.org/Graphics/SVG/1.1/DTD/svg11.dtd">
<svg version="1.1" id="Layer_1" xmlns="http://www.w3.org/2000/svg" xmlns:xlink="http://www.w3.org/1999/xlink" x="0px" y="0px"
	 viewBox="0 0 215 72" enable-background="new 0 0 215 72" xml:space="preserve">
<g>
	<rect x="-0.6" y="120.6" fill="none" stroke="#999999" stroke-width="1.3" width="40.8" height="40.8"/>
	<line fill="none" stroke="#999999" stroke-width="1.3" x1="-0.6" y1="154.6" x2="40.2" y2="154.6"/>
	<line fill="none" stroke="#999999" stroke-width="1.3" x1="-0.6" y1="147.8" x2="40.2" y2="147.8"/>
	<line fill="none" stroke="#999999" stroke-width="1.3" x1="-0.6" y1="141" x2="40.2" y2="141"/>
	<line fill="none" stroke="#999999" stroke-width="1.3" x1="-0.6" y1="134.2" x2="40.2" y2="134.2"/>
	<line fill="none" stroke="#999999" stroke-width="1.3" x1="-0.6" y1="127.4" x2="40.2" y2="127.4"/>
	<line fill="none" stroke="#999999" stroke-width="1.3" x1="33.4" y1="120.6" x2="33.4" y2="161.4"/>
	<line fill="none" stroke="#999999" stroke-width="1.3" x1="26.6" y1="120.6" x2="26.6" y2="161.4"/>
	<line fill="none" stroke="#999999" stroke-width="1.3" x1="19.8" y1="120.6" x2="19.8" y2="161.4"/>
	<line fill="none" stroke="#999999" stroke-width="1.3" x1="13" y1="120.6" x2="13" y2="161.4"/>
	<line fill="none" stroke="#999999" stroke-width="1.3" x1="6.2" y1="120.6" x2="6.2" y2="161.4"/>
</g>
<text transform="matrix(1 0 0 1 -1.0454 110.8175)" font-family="'TheSerif-HP5Plain'" font-size="3.2913">x</text>
<text transform="matrix(1 0 0 1 -11.4831 121.1177)" font-family="'TheSerif-HP5Plain'" font-size="3.2913">y</text>
<text transform="matrix(1 0 0 1 -0.9841 116.4243)" font-family="'TheSerif-HP5Plain'" font-size="3.2913">0</text>
<text transform="matrix(1 0 0 1 0.8264 116.4243)" font-family="'TheSerif-HP5Plain'" font-size="3.2913" letter-spacing="3"> </text>
<text transform="matrix(1 0 0 1 5.5989 116.4243)" font-family="'TheSerif-HP5Plain'" font-size="3.2913">1</text>
<text transform="matrix(1 0 0 1 7.4093 116.4243)" font-family="'TheSerif-HP5Plain'" font-size="3.2913" letter-spacing="3"> </text>
<text transform="matrix(1 0 0 1 12.1818 116.4243)" font-family="'TheSerif-HP5Plain'" font-size="3.2913">2</text>
<text transform="matrix(1 0 0 1 13.9913 116.4243)" font-family="'TheSerif-HP5Plain'" font-size="3.2913" letter-spacing="3"> </text>
<text transform="matrix(1 0 0 1 18.7638 116.4243)" font-family="'TheSerif-HP5Plain'" font-size="3.2913">3</text>
<text transform="matrix(1 0 0 1 20.5743 116.4243)" font-family="'TheSerif-HP5Plain'" font-size="3.2913" letter-spacing="3"> </text>
<text transform="matrix(1 0 0 1 25.3467 116.4243)" font-family="'TheSerif-HP5Plain'" font-size="3.2913">4</text>
<text transform="matrix(1 0 0 1 27.1567 116.4243)" font-family="'TheSerif-HP5Plain'" font-size="3.2913" letter-spacing="3"> </text>
<text transform="matrix(1 0 0 1 31.9291 116.4243)" font-family="'TheSerif-HP5Plain'" font-size="3.2913">5</text>
<text transform="matrix(1 0 0 1 33.7397 116.4243)" font-family="'TheSerif-HP5Plain'" font-size="3.2913" letter-spacing="3"> </text>
<text transform="matrix(1 0 0 1 38.5121 116.4243)" font-family="'TheSerif-HP5Plain'" font-size="3.2913">6</text>
<circle fill="#808080" cx="6.2" cy="127.7" r="1.1"/>
<circle fill="#808080" cx="26.8" cy="154.7" r="1.1"/>
<text transform="matrix(1 0 0 1 -6.1033 122.0928)" font-family="'TheSerif-HP5Plain'" font-size="3.2913">0</text>
<text transform="matrix(1 0 0 1 -6.1033 128.6753)" font-family="'TheSerif-HP5Plain'" font-size="3.2913">1</text>
<text transform="matrix(1 0 0 1 -6.1033 135.2583)" font-family="'TheSerif-HP5Plain'" font-size="3.2913">2</text>
<text transform="matrix(1 0 0 1 -6.1033 141.8412)" font-family="'TheSerif-HP5Plain'" font-size="3.2913">3</text>
<text transform="matrix(1 0 0 1 -6.1033 148.4232)" font-family="'TheSerif-HP5Plain'" font-size="3.2913">4</text>
<text transform="matrix(1 0 0 1 -6.1033 155.0061)" font-family="'TheSerif-HP5Plain'" font-size="3.2913">5</text>
<text transform="matrix(1 0 0 1 -6.1033 161.589)" font-family="'TheSerif-HP5Plain'" font-size="3.2913">6</text>
<line fill="none" stroke="#000000" stroke-width="1.3" x1="-0.5" y1="120.6" x2="-1.8" y2="120.6"/>
<line fill="none" stroke="#000000" stroke-width="1.3" x1="-0.5" y1="127.4" x2="-1.8" y2="127.4"/>
<line fill="none" stroke="#000000" stroke-width="1.3" x1="-0.5" y1="134.2" x2="-1.8" y2="134.2"/>
<line fill="none" stroke="#000000" stroke-width="1.3" x1="-0.5" y1="141" x2="-1.8" y2="141"/>
<line fill="none" stroke="#000000" stroke-width="1.3" x1="-0.5" y1="147.8" x2="-1.8" y2="147.8"/>
<line fill="none" stroke="#000000" stroke-width="1.3" x1="-0.5" y1="154.7" x2="-1.8" y2="154.7"/>
<line fill="none" stroke="#000000" stroke-width="1.3" x1="-0.5" y1="161.3" x2="-1.8" y2="161.3"/>
<line fill="none" stroke="#000000" stroke-width="1.3" x1="40.1" y1="120.6" x2="40.1" y2="119.3"/>
<line fill="none" stroke="#000000" stroke-width="1.3" x1="33.3" y1="120.6" x2="33.3" y2="119.3"/>
<line fill="none" stroke="#000000" stroke-width="1.3" x1="26.5" y1="120.6" x2="26.5" y2="119.3"/>
<line fill="none" stroke="#000000" stroke-width="1.3" x1="19.7" y1="120.6" x2="19.7" y2="119.3"/>
<line fill="none" stroke="#000000" stroke-width="1.3" x1="12.9" y1="120.6" x2="12.9" y2="119.3"/>
<line fill="none" stroke="#000000" stroke-width="1.3" x1="6" y1="120.6" x2="6" y2="119.3"/>
<line fill="none" stroke="#000000" stroke-width="1.3" x1="-0.6" y1="120.6" x2="-0.6" y2="119.3"/>
<polyline fill="#FFFFFF" stroke="#000000" stroke-width="1.3" points="-9.8,133.1 -10.6,133.9 -11.4,133.1 "/>
<line fill="none" stroke="#000000" stroke-width="1.3" x1="-10.6" y1="133.9" x2="-10.6" y2="124.3"/>
<polyline fill="#FFFFFF" stroke="#000000" stroke-width="1.3" points="11.8,109 12.7,109.8 11.8,110.6 "/>
<line fill="none" stroke="#000000" stroke-width="1.3" x1="12.8" y1="109.8" x2="3.3" y2="109.8"/>
<text transform="matrix(1 0 0 1 50.7631 141.4513)" font-family="'TheSerif-HP5Plain'" font-size="3.2913">ellipseMode ( CORNERS ) ;</text>
<text transform="matrix(1 0 0 1 50.7631 145.4009)" font-family="'TheSerif-HP5Plain'" font-size="3.2913">ellipse ( x1 , y1 , x2 , y2 ) ;</text>
<text transform="matrix(1 0 0 1 6.9122 125.8178)" font-family="'TheSerif-HP5Plain'" font-size="3.2913">( 1 , 1 )</text>
<text transform="matrix(1 0 0 1 27.9063 152.88)" font-family="'TheSerif-HP5Plain'" font-size="3.2913">( 4 , 5 )</text>
<text transform="matrix(1 0 0 1 -2.7955 170.6329)" fill="#808080" font-family="'TheSerif-HP5Plain'" font-size="3.2913">Example:  </text>
<text transform="matrix(1 0 0 1 12.472 170.6329)" font-family="'TheSerif-HP5Plain'" font-size="3.2913">ellipseMode ( CORNERS ) ;</text>
<text transform="matrix(1 0 0 1 -2.7955 174.5825)" font-family="'TheSerif-HP5Plain'" font-size="3.2913" letter-spacing="5">  </text>
<text transform="matrix(1 0 0 1 12.4722 174.5829)" font-family="'TheSerif-HP5Plain'" font-size="3.2913">ellipse ( 1 , 1 , 4 , 5 ) ;</text>
<ellipse fill="none" stroke="#000000" stroke-width="2" cx="16.4" cy="141" rx="10.2" ry="13.6"/>
</svg>
