<?xml version="1.0" encoding="utf-8"?>
<!-- Generator: Adobe Illustrator 18.0.0, SVG Export Plug-In . SVG Version: 6.00 Build 0)  -->
<!DOCTYPE svg PUBLIC "-//W3C//DTD SVG 1.1//EN" "http://www.w3.org/Graphics/SVG/1.1/DTD/svg11.dtd">
<svg version="1.1" id="Layer_1" xmlns="http://www.w3.org/2000/svg" xmlns:xlink="http://www.w3.org/1999/xlink" x="0px" y="0px"
	 viewBox="-158.4 107.1 921 549" enable-background="new -158.4 107.1 921 549" xml:space="preserve">
<g id="Layer_1_1_">
	<rect x="407.4" y="240.3" opacity="0.5" fill="#FFFF00" enable-background="new    " width="319.9" height="321.3"/>
	<rect x="43" y="400.9" opacity="0.5" fill="#FFFF00" enable-background="new    " width="160.7" height="160.7"/>
	<g>
		<rect x="-116.2" y="241.7" fill="none" stroke="#999999" stroke-width="1.3" width="319.9" height="319.9"/>
		<line fill="none" stroke="#999999" stroke-width="1.3" x1="-116.2" y1="508.3" x2="203.7" y2="508.3"/>
		<line fill="none" stroke="#999999" stroke-width="1.3" x1="-116.2" y1="454.8" x2="203.7" y2="454.8"/>
		<line fill="none" stroke="#999999" stroke-width="1.3" x1="-116.2" y1="401.6" x2="203.7" y2="401.6"/>
		<line fill="none" stroke="#999999" stroke-width="1.3" x1="-116.2" y1="348.4" x2="203.7" y2="348.4"/>
		<line fill="none" stroke="#999999" stroke-width="1.3" x1="-116.2" y1="294.9" x2="203.7" y2="294.9"/>
		<line fill="none" stroke="#999999" stroke-width="1.3" x1="150.3" y1="241.7" x2="150.3" y2="561.6"/>
		<line fill="none" stroke="#999999" stroke-width="1.3" x1="97.1" y1="241.7" x2="97.1" y2="561.6"/>
		<line fill="none" stroke="#999999" stroke-width="1.3" x1="43.7" y1="241.7" x2="43.7" y2="561.6"/>
		<line fill="none" stroke="#999999" stroke-width="1.3" x1="-9.6" y1="241.7" x2="-9.6" y2="561.6"/>
		<line fill="none" stroke="#999999" stroke-width="1.3" x1="-62.8" y1="241.7" x2="-62.8" y2="561.6"/>
	</g>
	<text transform="matrix(1 0 0 1 35.374 222.8224)" font-family="'TheSerif-HP5Plain'" font-size="25.8187">x</text>
	<text transform="matrix(1 0 0 1 216.0039 404.6212)" font-family="'TheSerif-HP5Plain'" font-size="25.8187">y</text>
	<polyline fill="#FFFFFF" stroke="#000000" stroke-width="1.3" points="37.9,248.4 44.2,242.1 50.6,248.4 	"/>
	<polyline fill="#FFFFFF" stroke="#000000" stroke-width="1.3" points="195.4,395.3 201.7,401.6 195.4,407.9 	"/>
	<line fill="none" stroke="#000000" stroke-width="1.3" x1="201.7" y1="401.6" x2="-116.2" y2="401.6"/>
	<line fill="none" stroke="#000000" stroke-width="1.3" x1="42.7" y1="242.7" x2="42.7" y2="560.5"/>
	<polyline fill="none" stroke="#000000" stroke-width="1.3" points="49.9,556.1 43.6,562.4 37.3,556.1 	"/>
	<polyline fill="none" stroke="#000000" stroke-width="1.3" points="-109.9,407.9 -116.2,401.6 -109.9,395.3 	"/>
	<text transform="matrix(1 0 0 1 -19.9297 624.0685)" font-family="'TheSerif-HP5Plain'" font-size="25.8187">Eight Grade</text>
	<text transform="matrix(1 0 0 1 490.5557 624.6642)" font-family="'TheSerif-HP5Plain'" font-size="25.8187">Computer</text>
	<text transform="matrix(1 0 0 1 -64.5459 431.0236)" font-family="'TheSerif-HP5Plain'" font-size="25.8187">-2 </text>
	<text transform="matrix(1 0 0 1 -36.1455 431.0236)" font-family="'TheSerif-HP5Plain'" font-size="25.8187" letter-spacing="17"> </text>
	<text transform="matrix(1 0 0 1 -12.9092 431.0236)" font-family="'TheSerif-HP5Plain'" font-size="25.8187">  -1 </text>
	<text transform="matrix(1 0 0 1 26.6797 431.0236)" font-family="'TheSerif-HP5Plain'" font-size="25.8187" letter-spacing="5"> </text>
	<text transform="matrix(1 0 0 1 38.7285 431.0236)" font-family="'TheSerif-HP5Plain'" font-size="25.8187">  0       1 </text>
	<text transform="matrix(1 0 0 1 123.3564 431.0236)" font-family="'TheSerif-HP5Plain'" font-size="25.8187" letter-spacing="12"> </text>
	<text transform="matrix(1 0 0 1 142.0039 431.0236)" font-family="'TheSerif-HP5Plain'" font-size="25.8187">   2</text>
	<text transform="matrix(1 0 0 1 50.2041 304.798)" font-family="'TheSerif-HP5Plain'" font-size="25.8187">2</text>
	<text transform="matrix(1 0 0 1 50.2041 359.3048)" font-family="'TheSerif-HP5Plain'" font-size="25.8187">1</text>
	<text transform="matrix(1 0 0 1 50.2041 468.3165)" font-family="'TheSerif-HP5Plain'" font-size="25.8187">-1</text>
	<text transform="matrix(1 0 0 1 50.2041 522.8234)" font-family="'TheSerif-HP5Plain'" font-size="25.8187">-2</text>
	<g>
		<rect x="407.4" y="241.7" fill="none" stroke="#999999" stroke-width="1.3" width="319.9" height="319.9"/>
		<line fill="none" stroke="#999999" stroke-width="1.3" x1="407.4" y1="508.3" x2="727.2" y2="508.3"/>
		<line fill="none" stroke="#999999" stroke-width="1.3" x1="407.4" y1="454.8" x2="727.2" y2="454.8"/>
		<line fill="none" stroke="#999999" stroke-width="1.3" x1="407.4" y1="401.6" x2="727.2" y2="401.6"/>
		<line fill="none" stroke="#999999" stroke-width="1.3" x1="407.4" y1="348.4" x2="727.2" y2="348.4"/>
		<line fill="none" stroke="#999999" stroke-width="1.3" x1="407.4" y1="294.9" x2="727.2" y2="294.9"/>
		<line fill="none" stroke="#999999" stroke-width="1.3" x1="673.9" y1="241.7" x2="673.9" y2="561.6"/>
		<line fill="none" stroke="#999999" stroke-width="1.3" x1="620.7" y1="241.7" x2="620.7" y2="561.6"/>
		<line fill="none" stroke="#999999" stroke-width="1.3" x1="567.3" y1="241.7" x2="567.3" y2="561.6"/>
		<line fill="none" stroke="#999999" stroke-width="1.3" x1="513.9" y1="241.7" x2="513.9" y2="561.6"/>
		<line fill="none" stroke="#999999" stroke-width="1.3" x1="460.7" y1="241.7" x2="460.7" y2="561.6"/>
	</g>
	<text transform="matrix(1 0 0 1 404.0166 164.7091)" font-family="'TheSerif-HP5Plain'" font-size="25.8187">x</text>
	<text transform="matrix(1 0 0 1 322.1357 245.5109)" font-family="'TheSerif-HP5Plain'" font-size="25.8187">y</text>
	<text transform="matrix(1 0 0 1 404.4932 208.6954)" font-family="'TheSerif-HP5Plain'" font-size="25.8187">0</text>
	<text transform="matrix(1 0 0 1 418.6953 208.6954)" font-family="'TheSerif-HP5Plain'" font-size="25.8187" letter-spacing="31"> </text>
	<text transform="matrix(1 0 0 1 456.1318 208.6954)" font-family="'TheSerif-HP5Plain'" font-size="25.8187">1</text>
	<text transform="matrix(1 0 0 1 470.333 208.6954)" font-family="'TheSerif-HP5Plain'" font-size="25.8187" letter-spacing="31"> </text>
	<text transform="matrix(1 0 0 1 507.7695 208.6954)" font-family="'TheSerif-HP5Plain'" font-size="25.8187">2</text>
	<text transform="matrix(1 0 0 1 521.9697 208.6954)" font-family="'TheSerif-HP5Plain'" font-size="25.8187" letter-spacing="31"> </text>
	<text transform="matrix(1 0 0 1 559.4072 208.6954)" font-family="'TheSerif-HP5Plain'" font-size="25.8187">3</text>
	<text transform="matrix(1 0 0 1 573.6064 208.6954)" font-family="'TheSerif-HP5Plain'" font-size="25.8187" letter-spacing="31"> </text>
	<text transform="matrix(1 0 0 1 611.0439 208.6954)" font-family="'TheSerif-HP5Plain'" font-size="25.8187">4</text>
	<text transform="matrix(1 0 0 1 625.2441 208.6954)" font-family="'TheSerif-HP5Plain'" font-size="25.8187" letter-spacing="31"> </text>
	<text transform="matrix(1 0 0 1 662.6807 208.6954)" font-family="'TheSerif-HP5Plain'" font-size="25.8187">5</text>
	<text transform="matrix(1 0 0 1 676.8828 208.6954)" font-family="'TheSerif-HP5Plain'" font-size="25.8187" letter-spacing="31"> </text>
	<text transform="matrix(1 0 0 1 714.3193 208.6954)" font-family="'TheSerif-HP5Plain'" font-size="25.8187">6</text>
	<circle cx="407.4" cy="241.7" r="8.3"/>
	<circle cx="43" cy="400.9" r="8.3"/>
	<text transform="matrix(1 0 0 1 364.332 253.1613)" font-family="'TheSerif-HP5Plain'" font-size="25.8187">0</text>
	<text transform="matrix(1 0 0 1 364.332 304.798)" font-family="'TheSerif-HP5Plain'" font-size="25.8187">1</text>
	<text transform="matrix(1 0 0 1 364.332 356.4357)" font-family="'TheSerif-HP5Plain'" font-size="25.8187">2</text>
	<text transform="matrix(1 0 0 1 364.332 408.0734)" font-family="'TheSerif-HP5Plain'" font-size="25.8187">3</text>
	<text transform="matrix(1 0 0 1 364.332 459.7111)" font-family="'TheSerif-HP5Plain'" font-size="25.8187">4</text>
	<text transform="matrix(1 0 0 1 364.332 511.3478)" font-family="'TheSerif-HP5Plain'" font-size="25.8187">5</text>
	<text transform="matrix(1 0 0 1 364.332 562.9865)" font-family="'TheSerif-HP5Plain'" font-size="25.8187">6</text>
	<line fill="none" stroke="#000000" stroke-width="1.3" x1="408.7" y1="241.7" x2="398.5" y2="241.7"/>
	<line fill="none" stroke="#000000" stroke-width="1.3" x1="408.7" y1="295.2" x2="398.5" y2="295.2"/>
	<line fill="none" stroke="#000000" stroke-width="1.3" x1="408.7" y1="348.3" x2="398.5" y2="348.3"/>
	<line fill="none" stroke="#000000" stroke-width="1.3" x1="408.7" y1="401.5" x2="398.5" y2="401.5"/>
	<line fill="none" stroke="#000000" stroke-width="1.3" x1="408.7" y1="455" x2="398.5" y2="455"/>
	<line fill="none" stroke="#000000" stroke-width="1.3" x1="408.7" y1="508.9" x2="398.5" y2="508.9"/>
	<line fill="none" stroke="#000000" stroke-width="1.3" x1="408.7" y1="561.1" x2="398.5" y2="561.1"/>
	<line fill="none" stroke="#000000" stroke-width="1.3" x1="726.8" y1="241.5" x2="726.8" y2="231.4"/>
	<line fill="none" stroke="#000000" stroke-width="1.3" x1="673.2" y1="241.5" x2="673.2" y2="231.4"/>
	<line fill="none" stroke="#000000" stroke-width="1.3" x1="620.1" y1="241.5" x2="620.1" y2="231.4"/>
	<line fill="none" stroke="#000000" stroke-width="1.3" x1="566.9" y1="241.5" x2="566.9" y2="231.4"/>
	<line fill="none" stroke="#000000" stroke-width="1.3" x1="513.5" y1="241.5" x2="513.5" y2="231.4"/>
	<line fill="none" stroke="#000000" stroke-width="1.3" x1="459.4" y1="241.5" x2="459.4" y2="231.4"/>
	<line fill="none" stroke="#000000" stroke-width="1.3" x1="407.4" y1="241.5" x2="407.4" y2="231.4"/>
	<polyline fill="#FFFFFF" stroke="#000000" stroke-width="1.3" points="335.4,339.4 329,345.7 322.7,339.4 	"/>
	<line fill="none" stroke="#000000" stroke-width="1.3" x1="329" y1="345.7" x2="329" y2="270.8"/>
	<polyline fill="#FFFFFF" stroke="#000000" stroke-width="1.3" points="505.2,150.6 511.5,156.9 505.2,163.2 	"/>
	<line fill="none" stroke="#000000" stroke-width="1.3" x1="512.9" y1="156.9" x2="438.1" y2="156.9"/>
</g>
<g id="Layer_2">
</g>
</svg>
