<?xml version="1.0" encoding="utf-8"?>
<!-- Generator: Adobe Illustrator 18.0.0, SVG Export Plug-In . SVG Version: 6.00 Build 0)  -->
<!DOCTYPE svg PUBLIC "-//W3C//DTD SVG 1.1//EN" "http://www.w3.org/Graphics/SVG/1.1/DTD/svg11.dtd">
<svg version="1.1" id="Layer_1" xmlns="http://www.w3.org/2000/svg" xmlns:xlink="http://www.w3.org/1999/xlink" x="0px" y="0px"
	 viewBox="0 0 612 792" enable-background="new 0 0 612 792" xml:space="preserve">
<g>
	<rect x="219.3" y="302.7" fill="none" stroke="#999999" stroke-width="1.3" width="392.2" height="392.2"/>
	<line fill="none" stroke="#999999" stroke-width="1.3" x1="219.3" y1="629.7" x2="611.6" y2="629.7"/>
	<line fill="none" stroke="#999999" stroke-width="1.3" x1="219.3" y1="564.2" x2="611.6" y2="564.2"/>
	<line fill="none" stroke="#999999" stroke-width="1.3" x1="219.3" y1="499.1" x2="611.6" y2="499.1"/>
	<line fill="none" stroke="#999999" stroke-width="1.3" x1="219.3" y1="433.6" x2="611.6" y2="433.6"/>
	<line fill="none" stroke="#999999" stroke-width="1.3" x1="219.3" y1="368.1" x2="611.6" y2="368.1"/>
	<line fill="none" stroke="#999999" stroke-width="1.3" x1="546.1" y1="302.7" x2="546.1" y2="695.2"/>
	<line fill="none" stroke="#999999" stroke-width="1.3" x1="480.9" y1="302.7" x2="480.9" y2="695.2"/>
	<line fill="none" stroke="#999999" stroke-width="1.3" x1="415.4" y1="302.7" x2="415.4" y2="695.2"/>
	<line fill="none" stroke="#999999" stroke-width="1.3" x1="350" y1="302.7" x2="350" y2="695.2"/>
	<line fill="none" stroke="#999999" stroke-width="1.3" x1="284.8" y1="302.7" x2="284.8" y2="695.2"/>
</g>
<g enable-background="new    ">
	<path d="M227.2,799.4l-3.5-5.9l-3.5,5.9h-4.7v-1.7c0.9-0.2,1.8-0.4,2.7-0.4l3.9-5.7l-3.6-5.7c-0.9-0.1-1.8-0.3-2.7-0.4v-1.7h4.8
		l3.3,5.8l3.4-5.8h4.6v1.7c-0.9,0.2-1.8,0.4-2.7,0.4l-3.5,5.5l3.8,5.8c0.9,0.1,1.7,0.3,2.7,0.4v1.7H227.2z"/>
</g>
<g enable-background="new    ">
	<path d="M125.1,680.8l-5.6,15.3c-1.7,4.8-3.3,6.4-6.8,6.4c-0.6,0-1.5-0.1-2.2-0.2l0.2-2.6c0.7,0.2,1.4,0.3,2.1,0.3
		c1.7,0,2.7-0.9,3.8-3.9l0.7-1.8h-0.7l-4.8-13.6c-0.7-0.1-1.4-0.2-2-0.4v-1.7h7.2v1.7c-0.6,0.2-1.3,0.3-2.1,0.4l2.4,6.8
		c0.5,1.5,0.9,2.6,1.2,3.9h0.1c0.3-1.1,0.9-2.9,1.5-4.7l2.1-6c-0.8-0.1-1.5-0.2-2.1-0.4v-1.7h7v1.7
		C126.5,680.6,125.8,680.8,125.1,680.8z"/>
</g>
<g enable-background="new    ">
	<path d="M223.2,745c-4.2,0-7.8-2.5-7.8-9.8c0-6.3,3.8-9.8,8.3-9.8c4.1,0,7.8,2.4,7.8,9.7C231.5,741.4,227.7,745,223.2,745z
		 M223.4,727.7c-2.6,0-5,2.3-5,7.3c0,5.3,2,7.5,5,7.5c2.6,0,5-2.2,5-7.3C228.5,730,226.5,727.7,223.4,727.7z"/>
</g>
<text transform="matrix(1 0 0 1 231.3755 744.6445)" font-family="'TheSerif-HP5Plain'" font-size="31.6654" letter-spacing="35"> </text>
<g enable-background="new    ">
	<path d="M280.6,744.6v-2.6h5.8v-13.3l-5.5,3.6l-1-2.4l7-4.3h2.4v16.5h4.9v2.6H280.6z"/>
</g>
<text transform="matrix(1 0 0 1 294.706 744.6445)" font-family="'TheSerif-HP5Plain'" font-size="31.6654" letter-spacing="35"> </text>
<g enable-background="new    ">
	<path d="M343.2,744.6v-2.3l4.5-4.1c4-3.4,5-4.7,5-6.9c0-2.1-1.2-3.5-3.9-3.5c-1.8,0-3.6,0.9-4.6,1.6l-0.6-2.5
		c1.6-1,3.5-1.6,5.8-1.6c4.2,0,6.5,2.4,6.5,5.6c0,2.7-1.4,4.7-4.9,7.8l-3.8,3.3l-0.1,0.1c1.5-0.1,4.9-0.2,9.7-0.2v2.7H343.2z"/>
</g>
<text transform="matrix(1 0 0 1 358.037 744.6445)" font-family="'TheSerif-HP5Plain'" font-size="31.6654" letter-spacing="35"> </text>
<g enable-background="new    ">
	<path d="M410.8,747.6c-1.3,0-2.8-0.2-4-0.5l0.5-2.6c1.1,0.4,2.4,0.6,3.8,0.6c3.4,0,5.5-1.9,5.5-4.2c0-2.4-1.9-3.9-5.2-3.9
		c-1.1,0-1.9,0.1-2.8,0.1v-2.4h0.7c4.5,0,6.8-1.3,6.8-3.9c0-2-1.6-3.1-3.9-3.1c-1.7,0-3.2,0.5-4.5,1.2l-0.5-2.5
		c1.6-0.7,3.4-1.1,5.5-1.1c4.2,0,6.4,2.1,6.4,5.1c0,2.5-1.6,4.2-3.9,4.9l0,0.1c2.6,0.3,4.6,2.5,4.6,5.1
		C419.8,744.6,416.1,747.6,410.8,747.6z"/>
</g>
<text transform="matrix(1 0 0 1 421.3682 744.6445)" font-family="'TheSerif-HP5Plain'" font-size="31.6654" letter-spacing="35"> </text>
<g enable-background="new    ">
	<path d="M481.2,742v5.3h-2.8V742h-9.7l-0.2-2.3l8.8-14h4v13.7h3.7v2.6H481.2z M478.4,728.2L478.4,728.2l-7.1,11.2
		c1.9-0.1,5.9-0.1,7.1-0.1V728.2z"/>
</g>
<text transform="matrix(1 0 0 1 484.6992 744.6445)" font-family="'TheSerif-HP5Plain'" font-size="31.6654" letter-spacing="35"> </text>
<g enable-background="new    ">
	<path d="M544.2,747.6c-1,0-2.4-0.1-3.5-0.3l0.2-2.5c1,0.3,2.5,0.4,3.6,0.4c3.8,0,5.9-2.2,5.9-4.8c0-2.7-2.2-4.1-5.7-4.1
		c-1.3,0-2.5,0.1-3.3,0.2v-10.8h11.1v2.7l-8.5,0v5.6c0.5,0,1.1,0,1.6,0c5.2,0,7.9,2.7,7.9,6C553.5,744.3,549.8,747.6,544.2,747.6z"
		/>
</g>
<text transform="matrix(1 0 0 1 548.0312 744.6445)" font-family="'TheSerif-HP5Plain'" font-size="31.6654" letter-spacing="35"> </text>
<g enable-background="new    ">
	<path d="M610.3,745c-4.5,0-7.2-3.3-7.2-9.1c0-9.1,4.5-12.9,10.5-12.9c0.6,0,1.4,0,1.9,0.1v2.5c-0.7-0.1-1.3-0.2-2.1-0.2
		c-4.1,0-6.4,2.4-7.2,6.8c-0.1,0.3-0.2,1-0.3,1.6h0c1-1.8,2.9-2.8,5-2.8c4.2,0,6.6,2.7,6.6,6.2C617.5,741.9,614.7,745,610.3,745z
		 M610.5,733.5c-2.6,0-4.1,2.3-4.1,4.1c0,2.6,1.5,4.9,4.3,4.9c2.5,0,4.1-1.9,4.1-4.7C614.7,735.3,613.2,733.5,610.5,733.5z"/>
</g>
<circle cx="285.5" cy="695.3" r="10.1"/>
<circle cx="480.6" cy="368.6" r="10.1"/>
<g enable-background="new    ">
	<path d="M176,317.2c-4.5,0-7.2-3.3-7.2-9.1c0-9.1,4.5-12.9,10.5-12.9c0.6,0,1.4,0,1.9,0.1v2.5c-0.7-0.1-1.3-0.2-2.1-0.2
		c-4.1,0-6.4,2.4-7.2,6.8c-0.1,0.3-0.2,0.9-0.3,1.6h0c1-1.8,2.9-2.8,5-2.8c4.2,0,6.6,2.7,6.6,6.2C183.2,314.1,180.3,317.2,176,317.2
		z M176.2,305.7c-2.6,0-4.1,2.3-4.1,4.1c0,2.6,1.5,4.9,4.3,4.9c2.5,0,4.1-1.9,4.1-4.7C180.3,307.5,178.9,305.7,176.2,305.7z"/>
</g>
<g enable-background="new    ">
	<path d="M173.3,383.1c-1,0-2.4-0.1-3.5-0.3l0.2-2.5c1,0.3,2.5,0.4,3.6,0.4c3.8,0,5.9-2.2,5.9-4.7c0-2.7-2.2-4.1-5.7-4.1
		c-1.3,0-2.5,0.1-3.3,0.2v-10.8h11.1v2.7l-8.5,0v5.6c0.5,0,1.1,0,1.6,0c5.2,0,7.9,2.7,7.9,6C182.5,379.8,178.8,383.1,173.3,383.1z"
		/>
</g>
<g enable-background="new    ">
	<path d="M180.4,440.8v5.3h-2.8v-5.3h-9.7l-0.2-2.3l8.8-14h4v13.7h3.7v2.6H180.4z M177.7,427.1L177.7,427.1l-7.1,11.2
		c1.9-0.1,5.9-0.1,7.1-0.1V427.1z"/>
</g>
<g enable-background="new    ">
	<path d="M173.4,509.8c-1.3,0-2.8-0.2-4-0.5l0.5-2.6c1.1,0.4,2.4,0.6,3.8,0.6c3.4,0,5.5-1.9,5.5-4.2c0-2.4-1.9-3.9-5.2-3.9
		c-1.1,0-1.9,0.1-2.8,0.1v-2.4h0.7c4.5,0,6.8-1.3,6.8-3.9c0-2-1.6-3.1-3.9-3.1c-1.7,0-3.2,0.5-4.5,1.2l-0.5-2.5
		c1.6-0.7,3.4-1.1,5.5-1.1c4.2,0,6.4,2.1,6.4,5.1c0,2.5-1.6,4.2-3.9,4.9l0,0.1c2.6,0.3,4.6,2.5,4.6,5.1
		C182.4,506.8,178.7,509.8,173.4,509.8z"/>
</g>
<g enable-background="new    ">
	<path d="M169.1,570.2v-2.3l4.5-4.1c4-3.4,5-4.7,5-6.9c0-2.1-1.2-3.5-3.9-3.5c-1.8,0-3.6,0.9-4.6,1.6l-0.6-2.5
		c1.6-1,3.5-1.6,5.8-1.6c4.2,0,6.5,2.4,6.5,5.6c0,2.7-1.4,4.7-4.9,7.8l-3.8,3.3l-0.1,0.1c1.5-0.1,4.9-0.2,9.7-0.2v2.7H169.1z"/>
</g>
<g enable-background="new    ">
	<path d="M169.8,633.5v-2.6h5.8v-13.3l-5.5,3.6l-1-2.4l7-4.3h2.4v16.5h4.9v2.6H169.8z"/>
</g>
<g enable-background="new    ">
	<path d="M175.8,697.1c-4.2,0-7.8-2.5-7.8-9.8c0-6.3,3.8-9.8,8.3-9.8c4.1,0,7.8,2.4,7.8,9.7C184.1,693.6,180.3,697.1,175.8,697.1z
		 M176,679.9c-2.6,0-5,2.3-5,7.3c0,5.3,2,7.5,5,7.5c2.6,0,5-2.2,5-7.3C181,682.2,179,679.9,176,679.9z"/>
</g>
<line fill="none" stroke="#000000" stroke-width="1.3" x1="220.9" y1="302.7" x2="208.4" y2="302.7"/>
<line fill="none" stroke="#000000" stroke-width="1.3" x1="220.9" y1="368.5" x2="208.4" y2="368.5"/>
<line fill="none" stroke="#000000" stroke-width="1.3" x1="220.9" y1="433.6" x2="208.4" y2="433.6"/>
<line fill="none" stroke="#000000" stroke-width="1.3" x1="220.9" y1="498.8" x2="208.4" y2="498.8"/>
<line fill="none" stroke="#000000" stroke-width="1.3" x1="220.9" y1="564.2" x2="208.4" y2="564.2"/>
<line fill="none" stroke="#000000" stroke-width="1.3" x1="220.9" y1="630.6" x2="208.4" y2="630.6"/>
<line fill="none" stroke="#000000" stroke-width="1.3" x1="220.9" y1="694.5" x2="208.4" y2="694.5"/>
<line fill="none" stroke="#000000" stroke-width="1.3" x1="611.1" y1="707.3" x2="611.1" y2="694.6"/>
<line fill="none" stroke="#000000" stroke-width="1.3" x1="545.3" y1="707.3" x2="545.3" y2="694.6"/>
<line fill="none" stroke="#000000" stroke-width="1.3" x1="480.2" y1="707.3" x2="480.2" y2="694.6"/>
<line fill="none" stroke="#000000" stroke-width="1.3" x1="415" y1="707.3" x2="415" y2="694.6"/>
<line fill="none" stroke="#000000" stroke-width="1.3" x1="349.5" y1="707.3" x2="349.5" y2="694.6"/>
<line fill="none" stroke="#000000" stroke-width="1.3" x1="283.1" y1="707.3" x2="283.1" y2="694.6"/>
<line fill="none" stroke="#000000" stroke-width="1.3" x1="219.3" y1="707.3" x2="219.3" y2="694.6"/>
<polyline fill="#FFFFFF" stroke="#000000" stroke-width="1.3" points="110.1,574.9 117.9,567.2 125.8,574.9 "/>
<line fill="none" stroke="#000000" stroke-width="1.3" x1="117.9" y1="567.2" x2="117.9" y2="659.1"/>
<polyline fill="#FFFFFF" stroke="#000000" stroke-width="1.3" points="339.2,782 347,789.8 339.2,797.6 "/>
<line fill="none" stroke="#000000" stroke-width="1.3" x1="348.8" y1="789.8" x2="256.9" y2="789.8"/>
<line fill="none" stroke="#000000" stroke-width="1.3" x1="285.5" y1="694.5" x2="480.3" y2="368.1"/>
<g enable-background="new    ">
	<path d="M511.6,376.9c-1.2,0-3.2-0.1-5.5-0.1h-2.8v-1.7c0.8-0.2,1.8-0.3,2.8-0.4v-17.1c-1-0.1-1.9-0.2-2.8-0.4v-1.7h2.7
		c1.5,0,3.6-0.1,6.1-0.1c4.6,0,6.8,1.9,6.8,5.1c0,2.2-1.2,4.2-3.5,5v0.1c3,0.5,4.3,2.7,4.3,4.9C519.8,372.9,518.2,376.9,511.6,376.9
		z M511.6,357.6c-1,0-1.8,0-2.7,0.1v6.9c0.6,0,1.2,0,2,0c3.5,0,5-1.4,5-3.7C516,359,515,357.6,511.6,357.6z M511,366.8
		c-0.4,0-1.5,0-2,0v7.5c0.6,0.1,1.5,0.2,2.8,0.2c3.5,0,5-1.7,5-4C516.7,367.7,514.2,366.8,511,366.8z"/>
	<path d="M541.2,383.9c-5.3-4.8-7.8-9.8-7.8-15.9c0-6.5,3.1-11.8,7.9-16.1l1.6,1.7c-4.3,4.2-6.6,9.1-6.6,14.2
		c0,5.3,2.2,10.1,6.6,14.4L541.2,383.9z"/>
	<path d="M561.2,374.1v5.3h-2.8v-5.3h-9.7l-0.2-2.3l8.8-14h4v13.7h3.7v2.6H561.2z M558.4,360.4L558.4,360.4l-7.1,11.2
		c1.9-0.1,5.9-0.1,7.1-0.1V360.4z"/>
	<path d="M570.6,380.9c3.3-0.9,4.2-2.4,4.2-3.5c0-2-1.6-2-1.6-3.7c0-1.3,1-2.3,2.2-2.3c2,0,2.9,1.9,2.9,4c0,3.9-2.7,6.2-7.3,7.3
		L570.6,380.9z"/>
	<path d="M592,379.7c-1,0-2.4-0.1-3.5-0.3l0.2-2.5c1,0.3,2.5,0.4,3.6,0.4c3.8,0,5.9-2.2,5.9-4.7c0-2.7-2.2-4.1-5.7-4.1
		c-1.3,0-2.5,0.1-3.3,0.2v-10.8h11.1v2.7l-8.5,0v5.6c0.5,0,1.1,0,1.6,0c5.2,0,7.9,2.7,7.9,6C601.3,376.4,597.6,379.7,592,379.7z"/>
	<path d="M610.5,351.8c5.3,4.9,7.8,9.8,7.8,16c0,6.5-3.1,11.8-7.9,16.1l-1.6-1.6c4.3-4.2,6.6-9.2,6.6-14.2c0-5.3-2.2-10.2-6.6-14.4
		L610.5,351.8z"/>
</g>
<g enable-background="new    ">
	<path d="M324.8,686.3v-1.7c0.8-0.2,1.6-0.3,2.5-0.4l-1.2-3.5h-8.9l-1.2,3.5c0.8,0.1,1.7,0.2,2.5,0.4v1.7H311v-1.7
		c0.6-0.2,1.4-0.3,1.9-0.3l7-19.3h3.5l7.1,19.3c0.6,0,1.4,0.2,1.9,0.3v1.7H324.8z M322.6,670.8c-0.4-1.1-0.7-2.1-1-3.1h-0.1
		c-0.3,1-0.6,2-0.9,3.1l-2.8,7.6h7.4L322.6,670.8z"/>
	<path d="M345.6,693.4c-5.3-4.8-7.8-9.8-7.8-15.9c0-6.5,3.1-11.8,7.9-16.1l1.6,1.7c-4.3,4.2-6.6,9.1-6.6,14.2
		c0,5.3,2.2,10.1,6.6,14.4L345.6,693.4z"/>
	<path d="M355,686.3v-2.6h5.8v-13.3l-5.5,3.6l-1-2.4l7-4.3h2.4v16.5h4.9v2.6H355z"/>
	<path d="M374.3,690.4c3.3-0.9,4.2-2.4,4.2-3.5c0-2-1.6-2-1.6-3.7c0-1.3,1-2.3,2.2-2.3c2,0,2.9,1.9,2.9,4c0,3.9-2.7,6.2-7.3,7.3
		L374.3,690.4z"/>
	<path d="M398.3,686.6c-4.2,0-7.8-2.5-7.8-9.8c0-6.3,3.8-9.8,8.3-9.8c4.1,0,7.8,2.4,7.8,9.7C406.6,683.1,402.7,686.6,398.3,686.6z
		 M398.5,669.3c-2.6,0-5,2.3-5,7.3c0,5.3,2,7.5,5,7.5c2.6,0,5-2.2,5-7.3C403.5,671.6,401.5,669.3,398.5,669.3z"/>
	<path d="M414.3,661.3c5.3,4.9,7.8,9.8,7.8,16c0,6.5-3.1,11.8-7.9,16.1l-1.6-1.6c4.3-4.2,6.6-9.2,6.6-14.2c0-5.3-2.2-10.2-6.6-14.4
		L414.3,661.3z"/>
</g>
</svg>
