<?xml version="1.0" encoding="utf-8"?>
<!-- Generator: Adobe Illustrator 18.0.0, SVG Export Plug-In . SVG Version: 6.00 Build 0)  -->
<!DOCTYPE svg PUBLIC "-//W3C//DTD SVG 1.1//EN" "http://www.w3.org/Graphics/SVG/1.1/DTD/svg11.dtd">
<svg version="1.1" id="Layer_1" xmlns="http://www.w3.org/2000/svg" xmlns:xlink="http://www.w3.org/1999/xlink" x="0px" y="0px"
	 viewBox="0 0 215 72" enable-background="new 0 0 215 72" xml:space="preserve">
<g>
	<rect x="-8.7" y="141.5" fill="none" stroke="#999999" stroke-width="1.3" width="41.4" height="41.4"/>
	<line fill="none" stroke="#999999" stroke-width="1.3" x1="-8.7" y1="175.9" x2="32.6" y2="175.9"/>
	<line fill="none" stroke="#999999" stroke-width="1.3" x1="-8.7" y1="169" x2="32.6" y2="169"/>
	<line fill="none" stroke="#999999" stroke-width="1.3" x1="-8.7" y1="162.1" x2="32.6" y2="162.1"/>
	<line fill="none" stroke="#999999" stroke-width="1.3" x1="-8.7" y1="155.2" x2="32.6" y2="155.2"/>
	<line fill="none" stroke="#999999" stroke-width="1.3" x1="-8.7" y1="148.3" x2="32.6" y2="148.3"/>
	<line fill="none" stroke="#999999" stroke-width="1.3" x1="25.7" y1="141.5" x2="25.7" y2="182.8"/>
	<line fill="none" stroke="#999999" stroke-width="1.3" x1="18.8" y1="141.5" x2="18.8" y2="182.8"/>
	<line fill="none" stroke="#999999" stroke-width="1.3" x1="11.9" y1="141.5" x2="11.9" y2="182.8"/>
	<line fill="none" stroke="#999999" stroke-width="1.3" x1="5" y1="141.5" x2="5" y2="182.8"/>
	<line fill="none" stroke="#999999" stroke-width="1.3" x1="-1.9" y1="141.5" x2="-1.9" y2="182.8"/>
</g>
<text transform="matrix(1 0 0 1 -9.1815 131.5009)" font-family="'TheSerif-HP5Plain'" font-size="3.3374">x</text>
<text transform="matrix(1 0 0 1 -19.7655 141.9464)" font-family="'TheSerif-HP5Plain'" font-size="3.3374">y</text>
<text transform="matrix(1 0 0 1 -9.12 137.1869)" font-family="'TheSerif-HP5Plain'" font-size="3.3374">0</text>
<text transform="matrix(1 0 0 1 -7.2841 137.1869)" font-family="'TheSerif-HP5Plain'" font-size="3.3374" letter-spacing="4"> </text>
<text transform="matrix(1 0 0 1 -2.4452 137.1869)" font-family="'TheSerif-HP5Plain'" font-size="3.3374">1</text>
<text transform="matrix(1 0 0 1 -0.6093 137.1869)" font-family="'TheSerif-HP5Plain'" font-size="3.3374" letter-spacing="4"> </text>
<text transform="matrix(1 0 0 1 4.2296 137.1869)" font-family="'TheSerif-HP5Plain'" font-size="3.3374">2</text>
<text transform="matrix(1 0 0 1 6.0656 137.1869)" font-family="'TheSerif-HP5Plain'" font-size="3.3374" letter-spacing="4"> </text>
<text transform="matrix(1 0 0 1 10.9045 137.1869)" font-family="'TheSerif-HP5Plain'" font-size="3.3374">3</text>
<text transform="matrix(1 0 0 1 12.7404 137.1869)" font-family="'TheSerif-HP5Plain'" font-size="3.3374" letter-spacing="4"> </text>
<text transform="matrix(1 0 0 1 17.5803 137.1869)" font-family="'TheSerif-HP5Plain'" font-size="3.3374">4</text>
<text transform="matrix(1 0 0 1 19.4153 137.1869)" font-family="'TheSerif-HP5Plain'" font-size="3.3374" letter-spacing="4"> </text>
<text transform="matrix(1 0 0 1 24.2542 137.1869)" font-family="'TheSerif-HP5Plain'" font-size="3.3374">5</text>
<text transform="matrix(1 0 0 1 26.0901 137.1869)" font-family="'TheSerif-HP5Plain'" font-size="3.3374" letter-spacing="4"> </text>
<text transform="matrix(1 0 0 1 30.929 137.1869)" font-family="'TheSerif-HP5Plain'" font-size="3.3374">6</text>
<circle fill="#808080" cx="-1.9" cy="148.6" r="1.1"/>
<text transform="matrix(1 0 0 1 -14.3116 142.9358)" font-family="'TheSerif-HP5Plain'" font-size="3.3374">0</text>
<text transform="matrix(1 0 0 1 -14.3116 149.6096)" font-family="'TheSerif-HP5Plain'" font-size="3.3374">1</text>
<text transform="matrix(1 0 0 1 -14.3116 156.2845)" font-family="'TheSerif-HP5Plain'" font-size="3.3374">2</text>
<text transform="matrix(1 0 0 1 -14.3116 162.9593)" font-family="'TheSerif-HP5Plain'" font-size="3.3374">3</text>
<text transform="matrix(1 0 0 1 -14.3116 169.6342)" font-family="'TheSerif-HP5Plain'" font-size="3.3374">4</text>
<text transform="matrix(1 0 0 1 -14.3116 176.3095)" font-family="'TheSerif-HP5Plain'" font-size="3.3374">5</text>
<text transform="matrix(1 0 0 1 -14.3116 182.9843)" font-family="'TheSerif-HP5Plain'" font-size="3.3374">6</text>
<line fill="none" stroke="#000000" stroke-width="1.3" x1="-8.6" y1="141.5" x2="-9.9" y2="141.5"/>
<line fill="none" stroke="#000000" stroke-width="1.3" x1="-8.6" y1="148.4" x2="-9.9" y2="148.4"/>
<line fill="none" stroke="#000000" stroke-width="1.3" x1="-8.6" y1="155.2" x2="-9.9" y2="155.2"/>
<line fill="none" stroke="#000000" stroke-width="1.3" x1="-8.6" y1="162.1" x2="-9.9" y2="162.1"/>
<line fill="none" stroke="#000000" stroke-width="1.3" x1="-8.6" y1="169" x2="-9.9" y2="169"/>
<line fill="none" stroke="#000000" stroke-width="1.3" x1="-8.6" y1="176" x2="-9.9" y2="176"/>
<line fill="none" stroke="#000000" stroke-width="1.3" x1="-8.6" y1="182.7" x2="-9.9" y2="182.7"/>
<line fill="none" stroke="#000000" stroke-width="1.3" x1="32.5" y1="141.4" x2="32.5" y2="140.1"/>
<line fill="none" stroke="#000000" stroke-width="1.3" x1="25.6" y1="141.4" x2="25.6" y2="140.1"/>
<line fill="none" stroke="#000000" stroke-width="1.3" x1="18.8" y1="141.4" x2="18.8" y2="140.1"/>
<line fill="none" stroke="#000000" stroke-width="1.3" x1="11.9" y1="141.4" x2="11.9" y2="140.1"/>
<line fill="none" stroke="#000000" stroke-width="1.3" x1="5" y1="141.4" x2="5" y2="140.1"/>
<line fill="none" stroke="#000000" stroke-width="1.3" x1="-2" y1="141.4" x2="-2" y2="140.1"/>
<line fill="none" stroke="#000000" stroke-width="1.3" x1="-8.7" y1="141.4" x2="-8.7" y2="140.1"/>
<polyline fill="#FFFFFF" stroke="#000000" stroke-width="1.3" points="-18.1,154.1 -18.9,154.9 -19.7,154.1 "/>
<line fill="none" stroke="#000000" stroke-width="1.3" x1="-18.9" y1="154.9" x2="-18.9" y2="145.2"/>
<polyline fill="#FFFFFF" stroke="#000000" stroke-width="1.3" points="3.9,129.7 4.7,130.5 3.9,131.3 "/>
<line fill="none" stroke="#000000" stroke-width="1.3" x1="4.9" y1="130.5" x2="-4.8" y2="130.5"/>
<text transform="matrix(1 0 0 1 43.3518 162.5647)" font-family="'TheSerif-HP5Plain'" font-size="3.3374">ellipseMode ( CORNER ) ;</text>
<text transform="matrix(1 0 0 1 43.3518 166.5692)" font-family="'TheSerif-HP5Plain'" font-size="3.3374">ellipse ( x , y , width , height ) ;</text>
<text transform="matrix(1 0 0 1 -1.1132 146.7121)" font-family="'TheSerif-HP5Plain'" font-size="3.3374">( 1 , 1 )</text>
<text transform="matrix(1 0 0 1 -10.9569 192.1555)" fill="#808080" font-family="'TheSerif-HP5Plain'" font-size="3.3374">Example:  </text>
<text transform="matrix(1 0 0 1 4.5256 192.1555)" font-family="'TheSerif-HP5Plain'" font-size="3.3374">ellipseMode ( CORNER ) ;</text>
<text transform="matrix(1 0 0 1 -10.9569 196.1601)" font-family="'TheSerif-HP5Plain'" font-size="3.3374" letter-spacing="5">  </text>
<text transform="matrix(1 0 0 1 4.5258 196.16)" font-family="'TheSerif-HP5Plain'" font-size="3.3374">ellipse ( 1 , 1 , 3 , 5 ) ;</text>
<ellipse fill="none" stroke="#000000" stroke-width="2" cx="8.5" cy="165.6" rx="10.3" ry="17.2"/>
</svg>
