<?xml version="1.0" encoding="utf-8"?>
<!-- Generator: Adobe Illustrator 18.0.0, SVG Export Plug-In . SVG Version: 6.00 Build 0)  -->
<!DOCTYPE svg PUBLIC "-//W3C//DTD SVG 1.1//EN" "http://www.w3.org/Graphics/SVG/1.1/DTD/svg11.dtd">
<svg version="1.1" id="Layer_1" xmlns="http://www.w3.org/2000/svg" xmlns:xlink="http://www.w3.org/1999/xlink" x="0px" y="0px"
	 viewBox="-50 156 675 525" enable-background="new -50 156 675 525" xml:space="preserve">
<g>
	<rect x="55.2" y="265.1" fill="none" stroke="#999999" stroke-width="1.3" width="319.9" height="319.9"/>
	<line fill="none" stroke="#999999" stroke-width="1.3" x1="55.2" y1="531.8" x2="375.1" y2="531.8"/>
	<line fill="none" stroke="#999999" stroke-width="1.3" x1="55.2" y1="478.3" x2="375.1" y2="478.3"/>
	<line fill="none" stroke="#999999" stroke-width="1.3" x1="55.2" y1="425.1" x2="375.1" y2="425.1"/>
	<line fill="none" stroke="#999999" stroke-width="1.3" x1="55.2" y1="371.9" x2="375.1" y2="371.9"/>
	<line fill="none" stroke="#999999" stroke-width="1.3" x1="55.2" y1="318.4" x2="375.1" y2="318.4"/>
	<line fill="none" stroke="#999999" stroke-width="1.3" x1="321.7" y1="265.1" x2="321.7" y2="585"/>
	<line fill="none" stroke="#999999" stroke-width="1.3" x1="268.5" y1="265.1" x2="268.5" y2="585"/>
	<line fill="none" stroke="#999999" stroke-width="1.3" x1="215.2" y1="265.1" x2="215.2" y2="585"/>
	<line fill="none" stroke="#999999" stroke-width="1.3" x1="161.8" y1="265.1" x2="161.8" y2="585"/>
	<line fill="none" stroke="#999999" stroke-width="1.3" x1="108.6" y1="265.1" x2="108.6" y2="585"/>
</g>
<text transform="matrix(1 0 0 1 51.8931 188.1675)" font-family="'TheSerif-HP5Plain'" font-size="25.8187">x</text>
<text transform="matrix(1 0 0 1 -29.9878 268.9702)" font-family="'TheSerif-HP5Plain'" font-size="25.8187">y</text>
<text transform="matrix(1 0 0 1 52.3706 232.1548)" font-family="'TheSerif-HP5Plain'" font-size="25.8187">0</text>
<text transform="matrix(1 0 0 1 66.5708 232.1548)" font-family="'TheSerif-HP5Plain'" font-size="25.8187" letter-spacing="31"> </text>
<text transform="matrix(1 0 0 1 104.0083 232.1548)" font-family="'TheSerif-HP5Plain'" font-size="25.8187">1</text>
<text transform="matrix(1 0 0 1 118.2085 232.1548)" font-family="'TheSerif-HP5Plain'" font-size="25.8187" letter-spacing="31"> </text>
<text transform="matrix(1 0 0 1 155.646 232.1548)" font-family="'TheSerif-HP5Plain'" font-size="25.8187">2</text>
<text transform="matrix(1 0 0 1 169.8462 232.1548)" font-family="'TheSerif-HP5Plain'" font-size="25.8187" letter-spacing="31"> </text>
<text transform="matrix(1 0 0 1 207.2837 232.1548)" font-family="'TheSerif-HP5Plain'" font-size="25.8187">3</text>
<text transform="matrix(1 0 0 1 221.4829 232.1548)" font-family="'TheSerif-HP5Plain'" font-size="25.8187" letter-spacing="31"> </text>
<text transform="matrix(1 0 0 1 258.9204 232.1548)" font-family="'TheSerif-HP5Plain'" font-size="25.8187">4</text>
<text transform="matrix(1 0 0 1 273.1206 232.1548)" font-family="'TheSerif-HP5Plain'" font-size="25.8187" letter-spacing="31"> </text>
<text transform="matrix(1 0 0 1 310.5581 232.1548)" font-family="'TheSerif-HP5Plain'" font-size="25.8187">5</text>
<text transform="matrix(1 0 0 1 324.7588 232.1548)" font-family="'TheSerif-HP5Plain'" font-size="25.8187" letter-spacing="31"> </text>
<text transform="matrix(1 0 0 1 362.1963 232.1548)" font-family="'TheSerif-HP5Plain'" font-size="25.8187">6</text>
<circle cx="268.5" cy="530.5" r="8.3"/>
<text transform="matrix(1 0 0 1 12.2085 276.6196)" font-family="'TheSerif-HP5Plain'" font-size="25.8187">0</text>
<text transform="matrix(1 0 0 1 12.2085 328.2573)" font-family="'TheSerif-HP5Plain'" font-size="25.8187">1</text>
<text transform="matrix(1 0 0 1 12.2085 379.895)" font-family="'TheSerif-HP5Plain'" font-size="25.8187">2</text>
<text transform="matrix(1 0 0 1 12.2085 431.5332)" font-family="'TheSerif-HP5Plain'" font-size="25.8187">3</text>
<text transform="matrix(1 0 0 1 12.2085 483.1699)" font-family="'TheSerif-HP5Plain'" font-size="25.8187">4</text>
<text transform="matrix(1 0 0 1 12.2085 534.8086)" font-family="'TheSerif-HP5Plain'" font-size="25.8187">5</text>
<text transform="matrix(1 0 0 1 12.2085 586.4453)" font-family="'TheSerif-HP5Plain'" font-size="25.8187">6</text>
<line fill="none" stroke="#000000" stroke-width="1.3" x1="56.5" y1="265.1" x2="46.3" y2="265.1"/>
<line fill="none" stroke="#000000" stroke-width="1.3" x1="56.5" y1="318.6" x2="46.3" y2="318.6"/>
<line fill="none" stroke="#000000" stroke-width="1.3" x1="56.5" y1="371.7" x2="46.3" y2="371.7"/>
<line fill="none" stroke="#000000" stroke-width="1.3" x1="56.5" y1="424.9" x2="46.3" y2="424.9"/>
<line fill="none" stroke="#000000" stroke-width="1.3" x1="56.5" y1="478.4" x2="46.3" y2="478.4"/>
<line fill="none" stroke="#000000" stroke-width="1.3" x1="56.5" y1="532.4" x2="46.3" y2="532.4"/>
<line fill="none" stroke="#000000" stroke-width="1.3" x1="56.5" y1="584.6" x2="46.3" y2="584.6"/>
<line fill="none" stroke="#000000" stroke-width="1.3" x1="374.7" y1="265" x2="374.7" y2="254.8"/>
<line fill="none" stroke="#000000" stroke-width="1.3" x1="321" y1="265" x2="321" y2="254.8"/>
<line fill="none" stroke="#000000" stroke-width="1.3" x1="268" y1="265" x2="268" y2="254.8"/>
<line fill="none" stroke="#000000" stroke-width="1.3" x1="214.7" y1="265" x2="214.7" y2="254.8"/>
<line fill="none" stroke="#000000" stroke-width="1.3" x1="161.4" y1="265" x2="161.4" y2="254.8"/>
<line fill="none" stroke="#000000" stroke-width="1.3" x1="107.3" y1="265" x2="107.3" y2="254.8"/>
<line fill="none" stroke="#000000" stroke-width="1.3" x1="55.7" y1="265" x2="55.7" y2="254.8"/>
<polyline fill="#FFFFFF" stroke="#000000" stroke-width="1.3" points="-16.8,362.8 -23.1,369.1 -29.4,362.8 "/>
<line fill="none" stroke="#000000" stroke-width="1.3" x1="-23.1" y1="369.1" x2="-23.1" y2="294.3"/>
<polyline fill="#FFFFFF" stroke="#000000" stroke-width="1.3" points="153.1,174.1 159.4,180.4 153.1,186.7 "/>
<line fill="none" stroke="#000000" stroke-width="1.3" x1="160.8" y1="180.4" x2="85.9" y2="180.4"/>
<text transform="matrix(1 0 0 1 458.2998 431.3457)" font-family="'TheSerif-HP5Plain'" font-size="25.8187">point ( x , y ) ;</text>
<text transform="matrix(1 0 0 1 111.1802 656.541)" fill="#808080" font-family="'TheSerif-HP5Plain'" font-size="25.8187">Example:  </text>
<text transform="matrix(1 0 0 1 230.9507 656.541)" font-family="'TheSerif-HP5Plain'" font-size="25.8187">A ( 4 , 5 ) ;</text>
<text transform="matrix(1 0 0 1 293.3462 537.4883)" font-family="'TheSerif-HP5Plain'" font-size="25.8187">A ( 4 , 5 )</text>
</svg>
