<?xml version="1.0" encoding="utf-8"?>
<!-- Generator: Adobe Illustrator 18.0.0, SVG Export Plug-In . SVG Version: 6.00 Build 0)  -->
<!DOCTYPE svg PUBLIC "-//W3C//DTD SVG 1.1//EN" "http://www.w3.org/Graphics/SVG/1.1/DTD/svg11.dtd">
<svg version="1.1" id="Layer_1" xmlns="http://www.w3.org/2000/svg" xmlns:xlink="http://www.w3.org/1999/xlink" x="0px" y="0px"
	 viewBox="0 0 612 792" enable-background="new 0 0 612 792" xml:space="preserve">
<g id="Layer_2" display="none">
	<rect x="270.1" y="678.4" display="inline" fill="#FBB03B" width="14.5" height="28.7"/>
	<rect x="421.6" y="738.8" display="inline" fill="#FBB03B" width="7.2" height="28.7"/>
	<rect x="212" y="678.4" display="inline" fill="#00FFFF" width="47.3" height="28.7"/>
	<rect x="153" y="678.4" display="inline" fill="#00FF00" width="47.3" height="28.7"/>
	<rect x="365.7" y="738.8" display="inline" fill="#00FFFF" width="47.3" height="29.1"/>
	<rect x="267.5" y="739.2" display="inline" fill="#00FF00" width="47.5" height="28.5"/>
	<rect x="65.3" y="738.4" display="inline" fill="#FFFF00" width="128.6" height="29.1"/>
	<rect x="65.3" y="678.7" display="inline" fill="#FFFF00" width="59.9" height="28.7"/>
	<text transform="matrix(1 0 0 1 66.3311 700.0293)" display="inline" font-family="'TheSansMono-W3Light'" font-size="24.3844">line (1,0,4,5);</text>
</g>
<g id="Layer_1_1_">
	<g enable-background="new    ">
		<path d="M-2290.5,591.4c-22,0-43.6-1.6-55.2-1.6h-28.4v-20.4c8.8-2.8,18.8-4.4,28.4-4.4V362.6c-9.6-0.8-19.6-2.8-28.4-4.4v-20.8
			h27.6c16.8,0,42.8-0.8,65.6-0.8c70,0,112.8,38,112.8,124.4C-2168.1,547-2218.9,591.4-2290.5,591.4z M-2283.7,364.2
			c-11.6,0-24.8,0.8-32.8,0.8v194.4c8.8,1.6,20.4,2.8,29.2,2.8c51.6,0,86.8-31.2,86.8-99.6C-2200.1,398.6-2226.9,364.2-2283.7,364.2
			z"/>
		<path d="M-2033.3,433.4c-37.2-7.2-53.2,21.2-53.2,80.8v49.6c9.6,0.8,19.6,2.8,28.4,4.4v20.4h-86V569c8.8-2.8,18.8-4.4,28.4-4.4
			v-134c-8-1.6-18.8-2.8-28.4-3.6v-20.4c16-2.8,39.2-3.6,56.8-2.8c0,11.6-0.8,28.4-3.6,44.4l0,0c7.2-25.6,23.2-51.6,58.4-48
			L-2033.3,433.4z"/>
		<path d="M-1918.9,589.4c0-13.2,0-26.8,1.6-37.2h-0.8c-8,23.2-28.4,40-55.2,40c-26.8,0-44.4-18.8-44.4-48.8c0-40,36.4-64,96.8-64
			v-14c0-25.6-8-40.8-33.6-40.8c-9.6,0-21.2,1.6-30,5.2c-0.8,9.6-2.8,19.6-3.6,30h-17.6v-50.4c16-6.4,35.6-10.8,55.2-10.8
			c47.2,0,60.4,24.8,60.4,62v101.2c8,1.6,18.8,2.8,27.6,3.6v20.4C-1878.9,589.4-1900.9,590.6-1918.9,589.4z M-1920.5,503.4
			c-50.4,0-68.4,14.4-68.4,35.6c0,16,9.6,27.6,24.8,27.6c25.6,0,43.6-29.2,43.6-58.4C-1920.5,507.8-1920.5,503.4-1920.5,503.4z"/>
		<path d="M-1602.9,429l-44.4,161.6h-33.6l-32-109.2c-3.6-11.6-6.4-24-8.8-37.2l0,0c-3.6,16.8-7.2,31.2-11.6,47.2l-26.8,99.6h-33.6
			l-41.6-161.6c-7.2-0.8-14.4-2.8-20.4-4.4v-20.4h74.4V425c-7.2,2.8-14.4,3.6-22,4.4l19.6,83.6c3.6,15.2,7.2,30,9.6,42.8l0,0
			c2.8-16,7.2-31.2,10.8-45.2l29.2-104.8h30l29.2,104.8c6.4,22,8.8,32.8,11.6,45.2l0,0c2.8-13.2,6.4-24,9.6-40.8l21.2-84.4
			c-7.2-0.8-16-2.8-22-4.4v-20.4h72.8v20.4C-1588.5,426.2-1595.7,428.2-1602.9,429z"/>
		<path d="M-1396.1,589.4c0-13.2,0-26.8,1.6-37.2h-0.8c-8,23.2-28.4,40-55.2,40c-26.8,0-44.4-18.8-44.4-48.8c0-40,36.4-64,96.8-64
			v-14c0-25.6-8-40.8-33.6-40.8c-9.6,0-21.2,1.6-30,5.2c-0.8,9.6-2.8,19.6-3.6,30h-17.6v-50.4c16-6.4,35.6-10.8,55.2-10.8
			c47.2,0,60.4,24.8,60.4,62v101.2c8,1.6,18.8,2.8,27.6,3.6v20.4C-1356.1,589.4-1379.3,590.6-1396.1,589.4z M-1397.7,503.4
			c-50.4,0-68.4,14.4-68.4,35.6c0,16,9.6,27.6,24.8,27.6c25.6,0,43.6-29.2,43.6-58.4V503.4z"/>
		<path d="M-1259.3,589.4V569c8-2.8,17.6-4.4,27.6-4.4V343.4c-8-1.6-18.8-2.8-27.6-3.6v-20.4c16.8-2.8,38-3.6,56.8-2.8v247.6
			c9.6,0.8,19.6,2.8,27.6,4.4V589h-84.4V589.4z"/>
		<path d="M-1159.7,589.4V569c8.8-2.8,18.8-4.4,28.4-4.4v-134c-8-1.6-18.8-2.8-28.4-3.6v-20.4c16-2.8,39.2-3.6,57.6-2.8v160.8
			c9.6,0.8,19.6,2.8,27.6,4.4v20.4H-1159.7z M-1116.5,366.6c-10.8,0-19.6-9.6-19.6-21.2s8.8-22,19.6-22s19.6,9.6,19.6,22
			C-1097.7,357-1106.5,366.6-1116.5,366.6z"/>
		<path d="M-928.9,589.4v-120c0-25.6-6.4-41.6-27.6-41.6c-26.8,0-46,31.2-46,72.8v64c8.8,0.8,17.6,2.8,25.6,4.4v20.4h-83.6V569
			c8.8-2.8,18.8-4.4,28.4-4.4v-134c-8-1.6-18.8-2.8-28.4-3.6v-20.4c16-2.8,39.2-3.6,56.8-2.8c0,10.8-0.8,28.4-2.8,39.2l0,0
			c9.6-25.6,29.2-42.8,56.8-42.8c36.4,0,48,26.8,48,59.6v104.8c9.6,0.8,19.6,2.8,26.8,4.4v20.4L-928.9,589.4L-928.9,589.4z"/>
		<path d="M-717.7,496.2h-105.6c-0.8,48.8,16,69.2,50.4,69.2c16,0,32-3.6,46-10.8l4.4,26.8c-16,7.2-35.6,11.6-56,11.6
			c-48.8,0-75.6-30-75.6-94.8c0-55.2,26.8-97.6,72.8-97.6c45.2,0,64,34.8,64,76.4C-716.9,481.4-717.7,488.2-717.7,496.2z
			 M-782.5,426.2c-21.2,0-36.4,17.6-40,46h75.6C-746.1,443.8-760.5,426.2-782.5,426.2z"/>
		<path d="M-505.7,345.4c-8-2.8-16.8-4.4-24-4.4c-23.2,0-33.6,15.2-33.6,48v14.4h45.2V429h-45.2v134.8c9.6,0.8,19.6,2.8,28.4,4.4
			v20.4h-86V569c8.8-2.8,18.8-4.4,28.4-4.4V429.8h-35.6v-25.6h35.6v-14.4c0-51.6,22-75.6,63.2-75.6c8.8,0,17.6,0.8,26.8,3.6
			L-505.7,345.4z"/>
		<path d="M-393.7,433.4c-37.2-7.2-53.2,21.2-53.2,80.8v49.6c9.6,0.8,19.6,2.8,28.4,4.4v20.4h-86V569c8.8-2.8,18.8-4.4,28.4-4.4
			v-134c-8-1.6-18.8-2.8-28.4-3.6v-20.4c16-2.8,39.2-3.6,56.8-2.8c0,11.6-0.8,28.4-3.6,44.4l0,0c7.2-25.6,23.2-51.6,58.4-48
			L-393.7,433.4z"/>
		<path d="M-301.7,593c-44.4,0-72.8-29.2-72.8-93.2c0-56,30-99.6,78.8-99.6c40.8,0,72.8,25.6,72.8,93.2
			C-222.5,549.8-252.9,593-301.7,593z M-298.1,429c-24,0-46,20.4-46,68.4c0,42.8,16,67.6,45.2,67.6c24,0,45.2-21.2,45.2-68.4
			C-253.7,453-268.9,429-298.1,429z"/>
		<path d="M28.7,589.4V470.6c0-25.6-5.2-42.8-25.6-42.8c-23.2,0-45.2,28.4-45.2,73.6v63.2c8.8,0.8,17.6,2.8,26.8,4.4v20.4h-55.2
			V470.6c0-24-4.4-42.8-26.8-42.8c-24,0-45.2,31.2-45.2,73.6v63.2c8.8,0.8,17.6,2.8,25.6,4.4v20.4h-83.6V569
			c8.8-2.8,18.8-4.4,28.4-4.4v-134c-8-1.6-18.8-2.8-28.4-3.6v-20.4c16-2.8,39.2-3.6,56.8-2.8c0,10.8-0.8,28.4-2.8,39.2h0.8
			c8.8-25.6,30-42.8,56-42.8c33.6,0,43.6,26.8,44.4,42.8c6.4-17.6,24-42.8,55.2-42.8c30,0,48,18.8,48,61.2v102.8
			c9.6,0.8,19.6,2.8,27.6,4.4V589L28.7,589.4L28.7,589.4z"/>
		<path d="M232.7,667.8c-38-70-47.2-129.6-47.2-184.8s10.8-118.8,48-185.6l21.2,11.6c-26.8,52.4-40,112-40,172
			c0,64,13.2,121.6,40.8,174L232.7,667.8z"/>
		<path d="M346.3,589.4V569c10.8-2.8,23.2-4.4,35.6-4.4V427l-36.4,17.6l-4.4-28.4l48-21.2h24v169.6c8.8,0.8,19.6,2.8,29.2,4.4v20.4
			L346.3,589.4L346.3,589.4z"/>
		<path d="M542.7,647.4L530.3,635c20.4-25.6,21.2-42.8,14.4-54c-8.8-13.2-1.6-33.6,14.4-33.6C581.5,547.8,592.3,595,542.7,647.4z"/>
		<path d="M748.3,593c-45.2,0-80-30-80-99.6c0-64,40-102.8,86.8-102.8c53.2,0,80,40,80,98.4C835.5,555,795.5,593,748.3,593z
			 M753.1,420.2c-30,0-55.2,26.8-55.2,72c0,40.8,16,72.8,53.2,72.8c30,0,54-26.8,54-72.8C806.3,451.8,789.5,420.2,753.1,420.2z"/>
		<path d="M952.7,667.8l-21.2-11.6c26.8-52.4,40-112,40-172c0-64-13.2-120.8-40.8-174l22-11.6c38,69.2,47.2,128.8,47.2,183.6
			C999.5,536.2,989.1,600.2,952.7,667.8z"/>
		<path d="M1169.1,593c-32.8,0-43.6-16-43.6-56V430.6h-32.8V405h32.8v-60.4l29.2-9.6v69.2h45.2v25.6h-45.2v94.8
			c0,31.2,5.2,39.2,23.2,39.2c7.2,0,14.4-0.8,20.4-2.8l2.8,27.6C1192.3,591.4,1179.9,593,1169.1,593z"/>
		<path d="M1297.9,593c-44.4,0-72.8-29.2-72.8-93.2c0-56,30-99.6,78.8-99.6c40.8,0,72.8,25.6,72.8,93.2
			C1377.1,549.8,1346.7,593,1297.9,593z M1301.5,429c-24,0-46,20.4-46,68.4c0,42.8,16,67.6,45.2,67.6c24,0,45.2-21.2,45.2-68.4
			C1346.7,453,1330.7,429,1301.5,429z"/>
		<path d="M1530.3,667.8c-38-70-47.2-129.6-47.2-184.8s10.8-118.8,48-185.6l21.2,11.6c-26.8,52.4-40,112-40,172
			c0,64,13.2,121.6,40.8,174L1530.3,667.8z"/>
		<path d="M1763.9,589.4v45.2c9.6,0.8,19.6,2.8,27.6,5.2v18.8h-84.4v-18.8c8.8-2.8,18.8-4.4,28.4-5.2v-45.2h-96l-4.4-27.6
			l91.6-166.8h38v164.4h37.2v30L1763.9,589.4L1763.9,589.4z M1734.7,428.2L1734.7,428.2l-72,131.2c18.8,0,60.4,0,72,0V428.2z"/>
		<path d="M1898.7,647.4l-12.4-12.4c20.4-25.6,21.2-42.8,14.4-54c-8.8-13.2-1.6-33.6,14.4-33.6
			C1937.9,547.8,1949.5,595,1898.7,647.4z"/>
		<path d="M2051.5,662.2c-8.8,0-16.8-0.8-24-1.6l2.8-31.2c6.4,1.6,15.2,2.8,23.2,2.8c40,0,60.4-24,60.4-55.2s-22-54-61.2-54
			c-6.4,0-12.4,0-18.8,0V394.2h104V427h-75.6v66.4c54,0,84.4,32.8,84.4,77.2C2146.3,624.2,2105.5,662.2,2051.5,662.2z"/>
		<path d="M2261.9,667.8l-21.2-11.6c26.8-52.4,40-112,40-172c0-64-13.2-120.8-40.8-174l22-11.6c38,69.2,47.2,128.8,47.2,183.6
			C2309.9,536.2,2299.1,600.2,2261.9,667.8z"/>
		<path d="M2367.5,593c-10.8,0-20.4-10.8-20.4-23.2s8.8-23.2,20.4-23.2c11.6,0,20.4,10.8,20.4,23.2S2379.1,593,2367.5,593z"/>
	</g>
	<g enable-background="new    ">
		<path fill="#999999" d="M-1673.7,956.2l-38,104.8h-26.8l-37.2-104.8c-5.2-0.8-10.8-1.6-16-2.8v-13.2h56v13.2
			c-5.2,1.6-11.6,2.8-16.8,2.8l20.4,58.4c2.8,8,5.2,16,7.2,24l0,0c1.6-8,4.4-16,7.2-23.2l20.4-59.6c-6.4-0.8-11.6-1.6-16.8-2.8
			v-13.2h56V953C-1663.3,954.2-1668.5,955.4-1673.7,956.2z"/>
		<path fill="#999999" d="M-1550.5,1000.6h-78.8c-0.8,32,11.6,45.2,38,45.2c11.6,0,24-2.8,34.8-7.2l3.6,16.8
			c-12.4,4.4-26.8,8-41.6,8c-36.4,0-56.8-19.6-56.8-62c0-36.4,20.4-63.2,54-63.2s48,23.2,48,49.6
			C-1549.7,990.6-1549.7,995-1550.5,1000.6z M-1599.3,954.2c-16,0-26.8,11.6-29.2,30h56.8C-1571.7,965.8-1581.3,954.2-1599.3,954.2z
			"/>
		<path fill="#999999" d="M-1448.5,959.8c-27.6-4.4-40,14.4-40,53.2v32c7.2,0.8,15.2,1.6,21.2,3.6v13.2h-64v-13.2
			c6.4-1.6,14.4-2.8,21.2-3.6v-86.8c-6.4-0.8-14.4-1.6-21.2-2.8v-13.2c12.4-1.6,29.2-2.8,42.8-1.6c0,8-0.8,18.8-2.8,28.4l0,0
			c5.2-16.8,17.6-33.6,44.4-31.2L-1448.5,959.8z"/>
		<path fill="#999999" d="M-1380.9,1062.6c-16.8,0-28.4-1.6-41.6-4.4V901c-6.4-0.8-14.4-1.6-21.2-2.8V885
			c12.4-1.6,28.4-2.8,42.8-1.6v58.4c0,7.2-0.8,16.8-1.6,23.2h0.8c6.4-16.8,21.2-26.8,40-26.8c28.4,0,44.4,19.6,44.4,56.8
			C-1316.9,1037-1340.9,1062.6-1380.9,1062.6z M-1366.5,956.2c-22,0-32.8,25.6-32.8,46v40c6.4,1.6,13.2,2.8,21.2,2.8
			c23.2,0,38-14.4,38-48.8C-1340.1,970.2-1348.9,956.2-1366.5,956.2z"/>
	</g>
	<g enable-background="new    ">
		<path fill="#999999" d="M325.1,1063.4c-32.8,0-54-18.8-54-61.2c0-36.4,22-64.8,58.4-64.8c31.2,0,54,16.8,54,61.2
			C383.5,1035,361.5,1063.4,325.1,1063.4z M327.9,956.2c-17.6,0-34.8,13.2-34.8,44.4c0,28.4,11.6,44.4,33.6,44.4
			c17.6,0,33.6-14.4,33.6-44.4C361.5,972.2,349.9,956.2,327.9,956.2z"/>
		<path fill="#999999" d="M456.3,1062.6c-16.8,0-28.4-1.6-41.6-4.4V901c-6.4-0.8-14.4-1.6-21.2-2.8V885c12.4-1.6,28.4-2.8,42.8-1.6
			v58.4c0,7.2-0.8,16.8-1.6,23.2h0.8c6.4-16.8,21.2-26.8,40-26.8c28.4,0,44.4,19.6,44.4,56.8C519.5,1037,495.5,1062.6,456.3,1062.6z
			 M469.9,956.2c-22,0-32.8,25.6-32.8,46v40c6.4,1.6,13.2,2.8,21.2,2.8c23.2,0,38-14.4,38-48.8C496.3,970.2,488.3,956.2,469.9,956.2
			z"/>
		<path fill="#999999" d="M534.7,1123c-4.4,0-11.6-0.8-16-1.6l1.6-18.8c4.4,1.6,9.6,2.8,15.2,2.8c15.2,0,19.6-6.4,19.6-28.4V958.2
			c-6.4-0.8-14.4-1.6-20.4-2.8v-13.2c11.6-1.6,28.4-2.8,41.6-1.6v134C577.1,1107,566.7,1123,534.7,1123z M566.7,916.2
			c-8,0-14.4-6.4-14.4-14.4s6.4-14.4,14.4-14.4s14.4,6.4,14.4,14.4C580.7,909.8,574.7,916.2,566.7,916.2z"/>
		<path fill="#999999" d="M709.5,1000.6h-78.8c-0.8,32,11.6,45.2,38,45.2c11.6,0,24-2.8,34.8-7.2l3.6,16.8c-12.4,4.4-26.8,8-41.6,8
			c-36.4,0-56.8-19.6-56.8-62c0-36.4,20.4-63.2,54-63.2s48,23.2,48,49.6C710.3,990.6,709.5,995,709.5,1000.6z M660.7,954.2
			c-16,0-26.8,11.6-29.2,30h56.8C688.3,965.8,677.5,954.2,660.7,954.2z"/>
		<path fill="#999999" d="M785.9,1062.6c-30,0-55.2-14.4-55.2-58.4c0-39.2,19.6-66.4,60.4-66.4c10.8,0,21.2,1.6,29.2,4.4v35.6h-13.2
			c-1.6-7.2-2.8-14.4-3.6-19.6c-4.4-0.8-9.6-1.6-16-1.6c-21.2,0-33.6,18.8-33.6,44.4c0,24.8,8,43.6,36.4,43.6
			c10.8,0,20.4-1.6,29.2-6.4l3.6,18.8C814.3,1059.8,800.7,1062.6,785.9,1062.6z"/>
		<path fill="#999999" d="M887.9,1062.6c-24.8,0-32-10.8-32-36.4V957h-24.8v-16.8h24.8V901l22-6.4v45.2h33.6v16.8h-33.6v62
			c0,19.6,3.6,25.6,16.8,25.6c5.2,0,10.8-0.8,15.2-1.6l1.6,17.6C904.7,1061.8,895.9,1062.6,887.9,1062.6z"/>
	</g>
	<g enable-background="new    ">
		<path fill="#999999" d="M1627.1,1063.4c-32.8,0-54-18.8-54-61.2c0-36.4,22-64.8,58.4-64.8c31.2,0,54,16.8,54,61.2
			C1685.9,1035,1663.5,1063.4,1627.1,1063.4z M1629.9,956.2c-17.6,0-34.8,13.2-34.8,44.4c0,28.4,11.6,44.4,33.6,44.4
			c17.6,0,33.6-14.4,33.6-44.4C1662.7,972.2,1651.1,956.2,1629.9,956.2z"/>
		<path fill="#999999" d="M1757.5,1062.6c-16.8,0-28.4-1.6-41.6-4.4V901c-6.4-0.8-14.4-1.6-21.2-2.8V885c12.4-1.6,28.4-2.8,42.8-1.6
			v58.4c0,7.2-0.8,16.8-1.6,23.2h0.8c6.4-16.8,21.2-26.8,40-26.8c28.4,0,44.4,19.6,44.4,56.8
			C1821.5,1037,1797.5,1062.6,1757.5,1062.6z M1771.9,956.2c-22,0-32.8,25.6-32.8,46v40c6.4,1.6,13.2,2.8,21.2,2.8
			c23.2,0,38-14.4,38-48.8C1798.7,970.2,1789.5,956.2,1771.9,956.2z"/>
		<path fill="#999999" d="M1836.7,1123c-4.4,0-11.6-0.8-16-1.6l1.6-18.8c4.4,1.6,9.6,2.8,15.2,2.8c15.2,0,19.6-6.4,19.6-28.4V958.2
			c-6.4-0.8-14.4-1.6-20.4-2.8v-13.2c11.6-1.6,28.4-2.8,41.6-1.6v134C1878.3,1107,1867.9,1123,1836.7,1123z M1867.9,916.2
			c-8,0-14.4-6.4-14.4-14.4s6.4-14.4,14.4-14.4s14.4,6.4,14.4,14.4C1881.9,909.8,1875.9,916.2,1867.9,916.2z"/>
		<path fill="#999999" d="M2010.7,1000.6h-79.2c-0.8,32,11.6,45.2,38,45.2c11.6,0,24-2.8,34.8-7.2l3.6,16.8c-12.4,4.4-26.8,8-41.6,8
			c-36.4,0-56.8-19.6-56.8-62c0-36.4,20.4-63.2,54-63.2s48,23.2,48,49.6C2011.5,990.6,2011.5,995,2010.7,1000.6z M1962.7,954.2
			c-16,0-26.8,11.6-29.2,30h56.8C1990.3,965.8,1979.5,954.2,1962.7,954.2z"/>
		<path fill="#999999" d="M2087.9,1062.6c-30,0-55.2-14.4-55.2-58.4c0-39.2,19.6-66.4,60.4-66.4c10.8,0,21.2,1.6,29.2,4.4v35.6
			h-13.2c-1.6-7.2-2.8-14.4-3.6-19.6c-4.4-0.8-9.6-1.6-16-1.6c-21.2,0-33.6,18.8-33.6,44.4c0,24.8,8,43.6,36.4,43.6
			c10.8,0,20.4-1.6,29.2-6.4l3.6,18.8C2115.5,1059.8,2101.9,1062.6,2087.9,1062.6z"/>
		<path fill="#999999" d="M2189.9,1062.6c-24.8,0-32-10.8-32-36.4V957h-24.8v-16.8h24.8V901l22-6.4v45.2h33.6v16.8h-34v62
			c0,19.6,3.6,25.6,16.8,25.6c5.2,0,10.8-0.8,15.2-1.6l1.6,17.6C2206.7,1061.8,2197.1,1062.6,2189.9,1062.6z"/>
	</g>
	<line fill="none" stroke="#999999" stroke-width="5" x1="-2376.9" y1="749.4" x2="-686.9" y2="749.4"/>
	<line fill="none" stroke="#999999" stroke-width="5" x1="200.7" y1="749.4" x2="1032.7" y2="749.4"/>
	<line fill="none" stroke="#999999" stroke-width="5" x1="1499.5" y1="749.4" x2="2331.1" y2="749.4"/>
</g>
</svg>
