<?xml version="1.0" encoding="utf-8"?>
<!-- Generator: Adobe Illustrator 18.0.0, SVG Export Plug-In . SVG Version: 6.00 Build 0)  -->
<!DOCTYPE svg PUBLIC "-//W3C//DTD SVG 1.1//EN" "http://www.w3.org/Graphics/SVG/1.1/DTD/svg11.dtd">
<svg version="1.1" id="Layer_1" xmlns="http://www.w3.org/2000/svg" xmlns:xlink="http://www.w3.org/1999/xlink" x="0px" y="0px"
	 viewBox="37 5 141 59" enable-background="new 37 5 141 59" xml:space="preserve">
<line fill="none" stroke="#000000" x1="78.9" y1="14.9" x2="78.9" y2="44.7"/>
<circle cx="54.8" cy="29.5" r="1.3"/>
<rect x="96.7" y="19.8" fill="#FFFFFF" stroke="#000000" width="32.3" height="19.8"/>
<ellipse fill="#FFFFFF" stroke="#000000" cx="155.2" cy="29.6" rx="10.4" ry="14.7"/>
<text transform="matrix(1 0 0 1 49.8999 56.5135)" font-family="'TheSerif-HP5Plain'" font-size="4.05">Point</text>
<text transform="matrix(1 0 0 1 59.7095 56.5135)" font-family="'TheSerif-HP5Plain'" font-size="4.05" letter-spacing="5"> </text>
<text transform="matrix(1 0 0 1 66.0997 56.5135)" font-family="'TheSerif-HP5Plain'" font-size="4.05" letter-spacing="7"> </text>
<text transform="matrix(1 0 0 1 74.2003 56.5135)" font-family="'TheSerif-HP5Plain'" font-size="4.05"> Line</text>
<text transform="matrix(1 0 0 1 82.8397 56.5135)" font-family="'TheSerif-HP5Plain'" font-size="4.05" letter-spacing="6"> </text>
<text transform="matrix(1 0 0 1 90.3999 56.5135)" font-family="'TheSerif-HP5Plain'" font-size="4.05" letter-spacing="7"> </text>
<text transform="matrix(1 0 0 1 98.5005 56.5135)" font-family="'TheSerif-HP5Plain'" font-size="4.05">       Rectangle</text>
<text transform="matrix(1 0 0 1 122.6211 56.5135)" font-family="'TheSerif-HP5Plain'" font-size="4.05"> </text>
<text transform="matrix(1 0 0 1 122.7997 56.5135)" font-family="'TheSerif-HP5Plain'" font-size="4.05"> </text>
<text transform="matrix(1 0 0 1 123.6779 56.5135)" font-family="'TheSerif-HP5Plain'" font-size="4.05" letter-spacing="6"> </text>
<text transform="matrix(1 0 0 1 130.9004 56.5135)" font-family="'TheSerif-HP5Plain'" font-size="4.05" letter-spacing="7">  </text>
<text transform="matrix(1 0 0 1 147.0997 56.5135)" font-family="'TheSerif-HP5Plain'" font-size="4.05">   Ellipse</text>
</svg>
