<?xml version="1.0" encoding="utf-8"?>
<!-- Generator: Adobe Illustrator 18.0.0, SVG Export Plug-In . SVG Version: 6.00 Build 0)  -->
<!DOCTYPE svg PUBLIC "-//W3C//DTD SVG 1.1//EN" "http://www.w3.org/Graphics/SVG/1.1/DTD/svg11.dtd">
<svg version="1.1" id="Layer_1" xmlns="http://www.w3.org/2000/svg" xmlns:xlink="http://www.w3.org/1999/xlink" x="0px" y="0px"
	 viewBox="0 0 215 72" enable-background="new 0 0 215 72" xml:space="preserve">
<g>
	<rect x="8.1" y="130.2" fill="none" stroke="#999999" stroke-width="1.3" width="41.3" height="41.3"/>
	<line fill="none" stroke="#999999" stroke-width="1.3" x1="8.1" y1="164.6" x2="49.4" y2="164.6"/>
	<line fill="none" stroke="#999999" stroke-width="1.3" x1="8.1" y1="157.7" x2="49.4" y2="157.7"/>
	<line fill="none" stroke="#999999" stroke-width="1.3" x1="8.1" y1="150.9" x2="49.4" y2="150.9"/>
	<line fill="none" stroke="#999999" stroke-width="1.3" x1="8.1" y1="144" x2="49.4" y2="144"/>
	<line fill="none" stroke="#999999" stroke-width="1.3" x1="8.1" y1="137.1" x2="49.4" y2="137.1"/>
	<line fill="none" stroke="#999999" stroke-width="1.3" x1="42.5" y1="130.2" x2="42.5" y2="171.5"/>
	<line fill="none" stroke="#999999" stroke-width="1.3" x1="35.6" y1="130.2" x2="35.6" y2="171.5"/>
	<line fill="none" stroke="#999999" stroke-width="1.3" x1="28.8" y1="130.2" x2="28.8" y2="171.5"/>
	<line fill="none" stroke="#999999" stroke-width="1.3" x1="21.9" y1="130.2" x2="21.9" y2="171.5"/>
	<line fill="none" stroke="#999999" stroke-width="1.3" x1="15" y1="130.2" x2="15" y2="171.5"/>
</g>
<text transform="matrix(1 0 0 1 7.6826 120.3086)" font-family="'TheSerif-HP5Plain'" font-size="3.3314">x</text>
<text transform="matrix(1 0 0 1 -2.8823 130.7352)" font-family="'TheSerif-HP5Plain'" font-size="3.3314">y</text>
<text transform="matrix(1 0 0 1 7.7441 125.9843)" font-family="'TheSerif-HP5Plain'" font-size="3.3314">0</text>
<text transform="matrix(1 0 0 1 9.5765 125.9843)" font-family="'TheSerif-HP5Plain'" font-size="3.3314" letter-spacing="3"> </text>
<text transform="matrix(1 0 0 1 14.407 125.9843)" font-family="'TheSerif-HP5Plain'" font-size="3.3314">1</text>
<text transform="matrix(1 0 0 1 16.2394 125.9843)" font-family="'TheSerif-HP5Plain'" font-size="3.3314" letter-spacing="3"> </text>
<text transform="matrix(1 0 0 1 21.0699 125.9843)" font-family="'TheSerif-HP5Plain'" font-size="3.3314">2</text>
<text transform="matrix(1 0 0 1 22.9023 125.9843)" font-family="'TheSerif-HP5Plain'" font-size="3.3314" letter-spacing="3"> </text>
<text transform="matrix(1 0 0 1 27.7328 125.9843)" font-family="'TheSerif-HP5Plain'" font-size="3.3314">3</text>
<text transform="matrix(1 0 0 1 29.5656 125.9843)" font-family="'TheSerif-HP5Plain'" font-size="3.3314" letter-spacing="3"> </text>
<text transform="matrix(1 0 0 1 34.3961 125.9843)" font-family="'TheSerif-HP5Plain'" font-size="3.3314">4</text>
<text transform="matrix(1 0 0 1 36.228 125.9843)" font-family="'TheSerif-HP5Plain'" font-size="3.3314" letter-spacing="3"> </text>
<text transform="matrix(1 0 0 1 41.059 125.9843)" font-family="'TheSerif-HP5Plain'" font-size="3.3314">5</text>
<text transform="matrix(1 0 0 1 42.8909 125.9843)" font-family="'TheSerif-HP5Plain'" font-size="3.3314" letter-spacing="3"> </text>
<text transform="matrix(1 0 0 1 47.7219 125.9843)" font-family="'TheSerif-HP5Plain'" font-size="3.3314">6</text>
<circle fill="#808080" cx="15" cy="137.1" r="1.1"/>
<circle fill="#808080" cx="42.6" cy="151" r="1.1"/>
<text transform="matrix(1 0 0 1 2.5618 131.7215)" font-family="'TheSerif-HP5Plain'" font-size="3.3314">0</text>
<text transform="matrix(1 0 0 1 2.5618 138.3848)" font-family="'TheSerif-HP5Plain'" font-size="3.3314">1</text>
<text transform="matrix(1 0 0 1 2.5618 145.0477)" font-family="'TheSerif-HP5Plain'" font-size="3.3314">2</text>
<text transform="matrix(1 0 0 1 2.5618 151.7111)" font-family="'TheSerif-HP5Plain'" font-size="3.3314">3</text>
<text transform="matrix(1 0 0 1 2.5618 158.374)" font-family="'TheSerif-HP5Plain'" font-size="3.3314">4</text>
<text transform="matrix(1 0 0 1 2.5618 165.0373)" font-family="'TheSerif-HP5Plain'" font-size="3.3314">5</text>
<text transform="matrix(1 0 0 1 2.5618 171.6992)" font-family="'TheSerif-HP5Plain'" font-size="3.3314">6</text>
<line fill="none" stroke="#000000" stroke-width="1.3" x1="8.3" y1="130.2" x2="7" y2="130.2"/>
<line fill="none" stroke="#000000" stroke-width="1.3" x1="8.3" y1="137.1" x2="7" y2="137.1"/>
<line fill="none" stroke="#000000" stroke-width="1.3" x1="8.3" y1="144" x2="7" y2="144"/>
<line fill="none" stroke="#000000" stroke-width="1.3" x1="8.3" y1="150.9" x2="7" y2="150.9"/>
<line fill="none" stroke="#000000" stroke-width="1.3" x1="8.3" y1="157.8" x2="7" y2="157.8"/>
<line fill="none" stroke="#000000" stroke-width="1.3" x1="8.3" y1="164.7" x2="7" y2="164.7"/>
<line fill="none" stroke="#000000" stroke-width="1.3" x1="8.3" y1="171.5" x2="7" y2="171.5"/>
<line fill="none" stroke="#000000" stroke-width="1.3" x1="49.3" y1="130.2" x2="49.3" y2="128.9"/>
<line fill="none" stroke="#000000" stroke-width="1.3" x1="42.4" y1="130.2" x2="42.4" y2="128.9"/>
<line fill="none" stroke="#000000" stroke-width="1.3" x1="35.6" y1="130.2" x2="35.6" y2="128.9"/>
<line fill="none" stroke="#000000" stroke-width="1.3" x1="28.7" y1="130.2" x2="28.7" y2="128.9"/>
<line fill="none" stroke="#000000" stroke-width="1.3" x1="21.8" y1="130.2" x2="21.8" y2="128.9"/>
<line fill="none" stroke="#000000" stroke-width="1.3" x1="14.8" y1="130.2" x2="14.8" y2="128.9"/>
<line fill="none" stroke="#000000" stroke-width="1.3" x1="8.2" y1="130.2" x2="8.2" y2="128.9"/>
<polyline fill="#FFFFFF" stroke="#000000" stroke-width="1.3" points="-1.2,142.9 -2,143.7 -2.8,142.9 "/>
<line fill="none" stroke="#000000" stroke-width="1.3" x1="-2" y1="143.7" x2="-2" y2="134"/>
<polyline fill="#FFFFFF" stroke="#000000" stroke-width="1.3" points="20.7,118.5 21.6,119.3 20.7,120.1 "/>
<line fill="none" stroke="#000000" stroke-width="1.3" x1="21.7" y1="119.3" x2="12.1" y2="119.3"/>
<text transform="matrix(1 0 0 1 60.122 151.3162)" font-family="'TheSerif-HP5Plain'" font-size="3.3314">rectMode ( CORNERS ) ;</text>
<text transform="matrix(1 0 0 1 60.122 155.3143)" font-family="'TheSerif-HP5Plain'" font-size="3.3314">rect( x1 , y1 , x2 , y2 ) ;</text>
<text transform="matrix(1 0 0 1 17.033 135.677)" font-family="'TheSerif-HP5Plain'" font-size="3.3314">( 1 , 1 )</text>
<text transform="matrix(1 0 0 1 42.9439 155.1102)" font-family="'TheSerif-HP5Plain'" font-size="3.3314">( 5 , 3 )</text>
<line fill="none" stroke="#000000" stroke-width="2" x1="15" y1="137.1" x2="42.7" y2="137.1"/>
<line fill="none" stroke="#000000" stroke-width="2" x1="14.8" y1="151" x2="42.5" y2="151"/>
<line fill="none" stroke="#000000" stroke-width="2" x1="42.5" y1="150.9" x2="42.5" y2="137"/>
<line fill="none" stroke="#000000" stroke-width="2" x1="14.9" y1="151" x2="14.9" y2="137.2"/>
<text transform="matrix(1 0 0 1 5.9108 180.8536)" fill="#808080" font-family="'TheSerif-HP5Plain'" font-size="3.3314">Example:  </text>
<text transform="matrix(1 0 0 1 21.3649 180.8536)" font-family="'TheSerif-HP5Plain'" font-size="3.3314">rectMode ( CORNERS ) ;</text>
<text transform="matrix(1 0 0 1 5.9108 184.8517)" font-family="'TheSerif-HP5Plain'" font-size="3.3314" letter-spacing="5">  </text>
<text transform="matrix(1 0 0 1 21.3651 184.852)" font-family="'TheSerif-HP5Plain'" font-size="3.3314">rect ( 1 , 1 , 5 , 3 ) ;</text>
</svg>
