<?xml version="1.0" encoding="utf-8"?>
<!-- Generator: Adobe Illustrator 23.0.3, SVG Export Plug-In . SVG Version: 6.00 Build 0)  -->
<svg version="1.1" id="Layer_1" xmlns="http://www.w3.org/2000/svg" xmlns:xlink="http://www.w3.org/1999/xlink" x="0px" y="0px"
	 viewBox="0 0 1360.5 792" style="enable-background:new 0 0 1360.5 792;" xml:space="preserve">
<style type="text/css">
	.st0{fill:none;stroke:#999999;stroke-width:1.3;}
	.st1{enable-background:new    ;}
	.st2{fill:none;stroke:#000000;stroke-width:1.3;}
	.st3{fill:#FFFFFF;stroke:#000000;stroke-width:1.3;}
	.st4{fill:#808080;}
</style>
<g>
	<rect x="434.5" y="165.3" class="st0" width="488.1" height="488.1"/>
	<line class="st0" x1="434.5" y1="572.3" x2="922.7" y2="572.3"/>
	<line class="st0" x1="434.5" y1="490.7" x2="922.7" y2="490.7"/>
	<line class="st0" x1="434.5" y1="409.5" x2="922.7" y2="409.5"/>
	<line class="st0" x1="434.5" y1="328.3" x2="922.7" y2="328.3"/>
	<line class="st0" x1="434.5" y1="246.6" x2="922.7" y2="246.6"/>
	<line class="st0" x1="841.1" y1="165.3" x2="841.1" y2="653.6"/>
	<line class="st0" x1="760" y1="165.3" x2="760" y2="653.6"/>
	<line class="st0" x1="678.7" y1="165.3" x2="678.7" y2="653.6"/>
	<line class="st0" x1="597.2" y1="165.3" x2="597.2" y2="653.6"/>
	<line class="st0" x1="515.9" y1="165.3" x2="515.9" y2="653.6"/>
</g>
<g class="st1">
	<path d="M444.2,48l-4.4-7.4l-4.3,7.4h-5.9v-2.2c1.2-0.2,2.4-0.5,3.4-0.5l4.9-7.1l-4.5-7.1c-1,0-2.2-0.3-3.4-0.5v-2.2h6.1l4.2,7.2
		l4.2-7.2h5.7v2.2c-1.2,0.2-2.4,0.5-3.4,0.5l-4.4,6.9l4.7,7.2c1,0,2.2,0.3,3.4,0.5V48H444.2L444.2,48z"/>
</g>
<g class="st1">
	<path d="M323.9,154.2l-6.9,19c-2.2,6.1-4.2,7.9-8.6,7.9c-0.7,0-1.9,0-2.7-0.2l0.3-3.2c0.8,0.3,1.7,0.5,2.5,0.5c2.2,0,3.4-1,4.7-4.9
		l0.8-2.2h-0.8l-6.1-17c-0.8,0-1.9-0.2-2.5-0.5v-2.2h8.9v2.2c-0.7,0.2-1.7,0.3-2.5,0.5l3,8.4c0.7,1.9,1,3.2,1.5,4.9l0,0
		c0.3-1.3,1-3.5,1.9-5.9l2.7-7.6c-1,0-1.9-0.2-2.5-0.5v-2.2h8.8v2.2C325.6,154.1,324.7,154.2,323.9,154.2z"/>
</g>
<g class="st1">
	<path d="M441.7,115.5c-5.2,0-9.8-3-9.8-12.1c0-7.9,4.7-12.3,10.3-12.3c5,0,9.8,3,9.8,12.1C452,111.1,447.3,115.5,441.7,115.5z
		 M442,94c-3.2,0-6.2,2.9-6.2,9.1c0,6.6,2.5,9.4,6.2,9.4c3.2,0,6.2-2.7,6.2-9.1C448.3,96.8,445.7,94,442,94z"/>
</g>
<g class="st1">
	<path d="M513.1,115v-3.2h7.2V95.1l-6.7,4.4l-1.2-3l8.8-5.4h3v20.5h5.9v3.2h-17V115z"/>
</g>
<g class="st1">
	<path d="M591,115v-2.9l5.6-5c5-4.2,6.2-5.9,6.2-8.6c0-2.5-1.5-4.4-4.9-4.4c-2.4,0-4.4,1-5.7,2l-0.8-3.2c2-1.2,4.4-2,7.2-2
		c5.2,0,8.1,3,8.1,7.1c0,3.4-1.7,5.9-6.1,9.6l-4.7,4h-0.2c1.9-0.2,6.2-0.2,12-0.2v3.4H591V115L591,115z"/>
</g>
<g class="st1">
	<path d="M675.2,118.7c-1.7,0-3.5-0.2-4.9-0.7l0.7-3.2c1.3,0.5,3,0.8,4.7,0.8c4.2,0,6.9-2.4,6.9-5.2c0-3-2.4-4.9-6.6-4.9
		c-1.3,0-2.4,0-3.5,0.2v-3h0.8c5.6,0,8.4-1.7,8.4-4.9c0-2.5-1.9-3.9-4.9-3.9c-2.2,0-4,0.7-5.6,1.5l-0.7-3c2-0.8,4.2-1.3,6.7-1.3
		c5.2,0,7.9,2.5,7.9,6.2c0,3-1.9,5.2-4.9,6.2l0,0c3.2,0.3,5.7,3.2,5.7,6.4C686.3,115,681.7,118.7,675.2,118.7z"/>
</g>
<g class="st1">
	<path d="M762.7,111.8v6.6h-3.5v-6.6h-12.1l-0.3-2.9l10.8-17.3h5v17.2h4.5v3.2h-4.5v-0.2H762.7z M759.1,94.6L759.1,94.6l-8.9,14
		c2.4,0,7.2,0,8.9,0V94.6z"/>
</g>
<g class="st1">
	<path d="M832.5,118.7c-1.2,0-3-0.2-4.4-0.3l0.3-3c1.3,0.3,3,0.5,4.4,0.5c4.7,0,7.4-2.7,7.4-5.9c0-3.4-2.7-5.2-7.1-5.2
		c-1.5,0-3,0.2-4,0.3V91.6h13.8V95h-10.6v6.9c0.7,0,1.3,0,1.9,0c6.6,0,9.8,3.4,9.8,7.6C844.1,114.7,839.4,118.7,832.5,118.7z"/>
</g>
<g class="st1">
	<path d="M914.8,115.5c-5.6,0-8.9-4.2-8.9-11.3c0-11.3,5.6-16,13.1-16c0.8,0,1.7,0,2.4,0.2v3.2c-0.8-0.2-1.7-0.2-2.7-0.2
		c-5,0-7.9,3-8.9,8.4c-0.2,0.5-0.2,1.2-0.3,2l0,0c1.3-2.2,3.7-3.4,6.2-3.4c5.2,0,8.1,3.4,8.1,7.7
		C923.7,111.6,920.2,115.5,914.8,115.5z M915,101.2c-3.2,0-5.2,2.9-5.2,5c0,3.2,1.9,6.1,5.4,6.1c3.2,0,5-2.4,5-5.9
		C920.2,103.4,918.4,101.2,915,101.2z"/>
</g>
<circle cx="760" cy="570.3" r="12.6"/>
<g class="st1">
	<path d="M380.4,183.3c-5.2,0-9.8-3-9.8-12.1c0-7.9,4.7-12.3,10.3-12.3c5,0,9.8,3,9.8,12.1C390.7,179,386,183.3,380.4,183.3z
		 M380.6,161.8c-3.2,0-6.2,2.9-6.2,9.1c0,6.6,2.5,9.4,6.2,9.4c3.2,0,6.2-2.7,6.2-9.1C387,164.7,384.5,161.8,380.6,161.8z"/>
</g>
<g class="st1">
	<path d="M373,261.8v-3.2h7.2v-16.7l-6.7,4.4l-1.2-3l8.8-5.4h3v20.5h6.2v3.2H373V261.8z"/>
</g>
<g class="st1">
	<path d="M372.2,340.5v-2.9l5.6-5c5-4.2,6.2-5.9,6.2-8.6c0-2.5-1.5-4.4-4.9-4.4c-2.4,0-4.4,1-5.7,2l-0.8-3.2c2-1.2,4.4-2,7.2-2
		c5.2,0,8.1,3,8.1,7.1c0,3.4-1.7,5.9-6.1,9.6l-4.7,4h-0.2c1.9-0.2,6.2-0.2,12-0.2v3.4h-16.7V340.5z"/>
</g>
<g class="st1">
	<path d="M377.4,423c-1.7,0-3.5-0.2-4.9-0.7l0.7-3.2c1.3,0.5,3,0.8,4.7,0.8c4.2,0,6.9-2.4,6.9-5.2c0-3-2.4-4.9-6.6-4.9
		c-1.3,0-2.4,0-3.5,0.2v-3h0.9c5.6,0,8.4-1.7,8.4-4.9c0-2.5-1.9-3.9-4.9-3.9c-2.2,0-4,0.7-5.6,1.5l-0.7-3c2-0.8,4.2-1.3,6.7-1.3
		c5.2,0,7.9,2.5,7.9,6.2c0,3-1.9,5.2-4.9,6.2l0,0c3.2,0.3,5.7,3.2,5.7,6.4C388.7,419.3,384,423,377.4,423z"/>
</g>
<g class="st1">
	<path d="M386.2,494.7v6.6h-3.6v-6.6h-12.1l-0.3-2.9l10.9-17.3h5v17.2h4.5v3.2h-4.5v-0.2H386.2z M382.8,477.7L382.8,477.7l-8.9,14
		c2.4,0,7.2,0,8.9,0V477.7z"/>
</g>
<g class="st1">
	<path d="M377.2,580.6c-1.2,0-3-0.2-4.4-0.3l0.3-3c1.3,0.3,3,0.5,4.4,0.5c4.7,0,7.4-2.7,7.4-5.9c0-3.4-2.7-5.2-7.1-5.2
		c-1.5,0-3,0.2-4,0.3v-13.5h13.8v3.4h-10.5v6.9c0.7,0,1.3,0,1.9,0c6.6,0,9.8,3.4,9.8,7.6C388.9,576.5,384.1,580.6,377.2,580.6z"/>
</g>
<g class="st1">
	<path d="M380.8,656.1c-5.6,0-8.9-4.2-8.9-11.3c0-11.3,5.6-16,13.1-16c0.8,0,1.7,0,2.4,0.2v3.2c-0.8-0.2-1.7-0.2-2.7-0.2
		c-5,0-7.9,3-8.9,8.4c-0.2,0.5-0.2,1.2-0.3,2l0,0c1.3-2.2,3.7-3.4,6.2-3.4c5.2,0,8.1,3.4,8.1,7.7C389.7,652.4,386,656.1,380.8,656.1
		z M380.9,642c-3.2,0-5.2,2.9-5.2,5c0,3.2,1.9,6.1,5.4,6.1c3.2,0,5-2.4,5-5.9C386,644.2,384.3,642,380.9,642z"/>
</g>
<line class="st2" x1="436.5" y1="165.3" x2="421" y2="165.3"/>
<line class="st2" x1="436.5" y1="247" x2="421" y2="247"/>
<line class="st2" x1="436.5" y1="328.1" x2="421" y2="328.1"/>
<line class="st2" x1="436.5" y1="409.2" x2="421" y2="409.2"/>
<line class="st2" x1="436.5" y1="490.8" x2="421" y2="490.8"/>
<line class="st2" x1="436.5" y1="573.3" x2="421" y2="573.3"/>
<line class="st2" x1="436.5" y1="652.9" x2="421" y2="652.9"/>
<line class="st2" x1="922.1" y1="165.2" x2="922.1" y2="149.7"/>
<line class="st2" x1="840.1" y1="165.2" x2="840.1" y2="149.7"/>
<line class="st2" x1="759.3" y1="165.2" x2="759.3" y2="149.7"/>
<line class="st2" x1="677.8" y1="165.2" x2="677.8" y2="149.7"/>
<line class="st2" x1="596.6" y1="165.2" x2="596.6" y2="149.7"/>
<line class="st2" x1="514.1" y1="165.2" x2="514.1" y2="149.7"/>
<line class="st2" x1="435.3" y1="165.2" x2="435.3" y2="149.7"/>
<polyline class="st3" points="324.6,314.5 315,324 305.4,314.5 "/>
<line class="st2" x1="315" y1="324" x2="315" y2="209.9"/>
<polyline class="st3" points="583.9,26.5 593.5,36.1 583.9,45.7 "/>
<line class="st2" x1="595.7" y1="36.1" x2="481.4" y2="36.1"/>
<g class="st1">
	<path d="M1060.6,419.3c-1.2,0-2.2,0-3.4-0.2v7.1c1.2,0,2.4,0.3,3.4,0.5v2.2h-10.3v-2.2c1-0.2,2-0.5,3.2-0.5v-23.9
		c-1-0.2-2.2-0.3-3.2-0.3v-2.2c1.9-0.2,4.5-0.3,6.7-0.3c0,1.2-0.2,2.9-0.3,4l0,0c1.2-2.7,3.5-4.4,6.6-4.4c4.5,0,7.2,3.2,7.2,9.3
		C1070.7,415.3,1067,419.3,1060.6,419.3z M1062.6,402c-3.5,0-5.4,4.2-5.4,7.6v6.4c1,0.3,2.2,0.5,3.5,0.5c3.7,0,6.2-2.2,6.2-7.9
		C1067,404.5,1065.6,402,1062.6,402z"/>
	<path d="M1082.8,419.5c-5.4,0-8.8-3-8.8-9.9c0-5.9,3.7-10.4,9.6-10.4c4.9,0,8.8,2.7,8.8,9.9
		C1092.2,414.8,1088.7,419.5,1082.8,419.5z M1083.1,402.1c-2.9,0-5.6,2.2-5.6,7.2c0,4.5,1.9,7.1,5.6,7.1c2.9,0,5.6-2.4,5.6-7.2
		C1088.7,404.7,1086.7,402.1,1083.1,402.1z"/>
	<path d="M1095.1,419v-2.2c1-0.2,2.2-0.5,3.4-0.5v-14.1c-1-0.2-2.4-0.3-3.4-0.3v-2.2c2-0.2,4.7-0.3,6.9-0.3v17
		c1.2,0,2.4,0.3,3.4,0.5v2.2L1095.1,419L1095.1,419z M1100.3,395.6c-1.3,0-2.4-1-2.4-2.4c0-1.3,1-2.4,2.4-2.4c1.2,0,2.4,1,2.4,2.4
		C1102.7,394.6,1101.7,395.6,1100.3,395.6z"/>
	<path d="M1123,419v-12.6c0-2.7-0.7-4.4-3.4-4.4c-3.2,0-5.6,3.4-5.6,7.6v6.7c1,0,2.2,0.2,3.2,0.5v2.2h-10.1v-2.2
		c1-0.2,2.2-0.5,3.4-0.5v-14.1c-1-0.2-2.4-0.3-3.4-0.3v-2.2c2-0.2,4.7-0.3,6.9-0.3c0,1.2,0,3-0.3,4.2l0,0c1.2-2.7,3.5-4.5,6.9-4.5
		c4.4,0,5.9,2.9,5.9,6.2v11.1c1.2,0,2.4,0.3,3.2,0.5v2.2L1123,419L1123,419z"/>
	<path d="M1139.5,419.3c-4,0-5.2-1.7-5.2-5.9v-11.3h-4v-2.7h4V393l3.5-1v7.4h5.6v2.7h-5.6v9.9c0,3.2,0.7,4,2.9,4
		c0.8,0,1.9-0.2,2.5-0.3l0.3,2.9C1142.4,419.1,1140.9,419.3,1139.5,419.3z"/>
	<path d="M1169.5,427.9c-6.6-6.1-9.8-12.3-9.8-19.9c0-8.1,3.9-14.6,9.8-20l2,2c-5.4,5.2-8.2,11.3-8.2,17.7c0,6.6,2.7,12.6,8.2,18
		L1169.5,427.9z"/>
	<path d="M1194.6,419l-5.9-7.6l-5.7,7.6h-4.4l8.1-9.9l-7.6-9.8h4.4l5.7,7.4l5.7-7.4h4l-7.6,9.8l7.9,9.9H1194.6z"/>
	<path d="M1206,424.2c4-1.2,5.2-3,5.2-4.4c0-2.5-2-2.5-2-4.7c0-1.7,1.2-2.9,2.9-2.9c2.5,0,3.7,2.4,3.7,4.9c0,4.9-3.4,7.7-9.1,9.1
		L1206,424.2z"/>
	<path d="M1237.8,419c-3,7.2-5.4,9.4-10.1,10.1l-0.7-3.2c3.7-0.5,5-1.5,7.4-6.9l-7.9-19.5h4l4.2,10.9c0.5,1.3,1.2,3.2,1.5,4.5l0,0
		c0.3-1.3,1.2-3.4,2-5.6l3.7-9.8h3.9L1237.8,419z"/>
	<path d="M1255.7,388c6.6,6.1,9.8,12.3,9.8,19.9c0,8.1-3.9,14.6-9.8,20l-2-2c5.4-5.2,8.2-11.4,8.2-17.7c0-6.6-2.7-12.6-8.2-18
		L1255.7,388z"/>
	<path d="M1275.9,425.2l-1.5-1.3c2.5-2.7,2.5-4.5,1.7-5.7c-1.2-1.3-0.2-3.5,1.7-3.5C1280.7,414.6,1282.1,419.6,1275.9,425.2z
		 M1277.9,407.9c-1.3,0-2.5-1-2.5-2.5c0-1.3,1.2-2.5,2.5-2.5c1.3,0,2.5,1.2,2.5,2.5C1280.2,406.9,1279.2,407.9,1277.9,407.9z"/>
</g>
<g class="st1">
	<path class="st4" d="M466,762.7v-2.1c1-0.2,2.2-0.4,3.4-0.5v-21.3c-1.2-0.1-2.4-0.3-3.4-0.5v-2.1h17.2v6.1h-2.5
		c-0.2-1.2-0.4-2.4-0.5-3.3H473v8.7h5.7c0.2-1,0.3-1.9,0.6-2.7h2.2v8.1h-2.2c-0.2-0.8-0.4-1.8-0.6-2.7H473v9.5h7.2
		c0.1-1,0.3-2.2,0.6-3.4h2.6v6.3H466z"/>
	<path class="st4" d="M500.7,762.7l-4.3-7.4l-4.3,7.4h-5.9v-2.2c1.1-0.2,2.3-0.5,3.3-0.6l4.8-7.1l-4.5-7.1c-1.1-0.1-2.2-0.3-3.3-0.6
		v-2.2h6l4.1,7.2l4.3-7.2h5.7v2.2c-1.1,0.2-2.3,0.5-3.3,0.6l-4.4,6.9l4.7,7.2c1.1,0.1,2.2,0.3,3.3,0.6v2.2H500.7z"/>
	<path class="st4" d="M520.9,762.7c0-1.4,0-2.8,0.2-3.9h-0.1c-0.9,2.4-3.4,4.3-6.7,4.3c-3.2,0-5.4-2-5.4-5.2c0-4.2,4.4-6.7,11.7-6.7
		v-1.5c0-2.8-1-4.3-4.1-4.3c-1.2,0-2.6,0.2-3.7,0.6c-0.1,1-0.3,2.1-0.5,3.2h-2.2v-5.4c2-0.6,4.3-1.1,6.7-1.1c5.8,0,7.4,2.6,7.4,6.5
		v10.6c0.9,0.2,2.2,0.3,3.3,0.4v2.1C525.7,762.7,523,762.8,520.9,762.7z M520.7,753.6c-6.1,0-8.3,1.5-8.3,3.7c0,1.7,1.2,2.9,3,2.9
		c3.2,0,5.3-3.1,5.3-6.2V753.6z"/>
	<path class="st4" d="M557.2,762.7v-12.6c0-2.7-0.6-4.5-3.2-4.5c-2.8,0-5.5,3-5.5,7.7v6.7c1.1,0.1,2.2,0.2,3.2,0.5v2.1h-6.7v-12.6
		c0-2.5-0.5-4.5-3.2-4.5c-3,0-5.5,3.2-5.5,7.7v6.7c1.1,0.1,2.2,0.2,3.2,0.5v2.1h-10.1v-2.1c1-0.2,2.2-0.4,3.4-0.5v-14.1
		c-0.9-0.2-2.3-0.3-3.4-0.4v-2.1c2-0.2,4.7-0.4,6.9-0.3c0,1.1-0.1,3-0.3,4.1l0.1,0c1.1-2.8,3.6-4.5,6.8-4.5c4.1,0,5.2,2.8,5.4,4.5
		c0.8-1.9,2.9-4.5,6.7-4.5c3.7,0,5.8,2,5.8,6.4v10.9c1.2,0.1,2.3,0.3,3.3,0.5v2.1H557.2z"/>
	<path class="st4" d="M575.4,762.9c-1.3,0-2.2,0-3.3-0.2v7.1c1.2,0.1,2.4,0.3,3.4,0.5v2.1h-10.2v-2.1c1-0.2,2.1-0.4,3.3-0.5v-23.9
		c-0.9-0.2-2.2-0.3-3.3-0.4v-2.1c1.9-0.2,4.6-0.4,6.7-0.3c0,1.1-0.1,2.9-0.3,4l0.1,0c1.1-2.7,3.5-4.4,6.5-4.4c4.6,0,7.2,3.2,7.2,9.2
		C585.4,759,581.7,762.9,575.4,762.9z M577.4,745.7c-3.5,0-5.4,4.1-5.4,7.6v6.5c1.1,0.3,2.2,0.5,3.5,0.5c3.7,0,6.2-2.2,6.2-7.9
		C581.7,748.1,580.4,745.7,577.4,745.7z"/>
	<path class="st4" d="M587.8,762.7v-2.1c1-0.2,2.2-0.4,3.3-0.5v-23.3c-0.9-0.2-2.2-0.3-3.4-0.4v-2.1c2-0.2,4.6-0.4,6.9-0.3v26.1
		c1.1,0.1,2.3,0.3,3.3,0.5v2.1H587.8z"/>
	<path class="st4" d="M616.6,752.9h-12.8c-0.2,5.1,1.9,7.3,6.2,7.3c1.9,0,3.9-0.4,5.6-1.1l0.5,2.8c-2,0.8-4.3,1.2-6.8,1.2
		c-5.9,0-9.2-3.2-9.2-10c0-5.8,3.3-10.2,8.8-10.2c5.5,0,7.8,3.7,7.8,8C616.7,751.3,616.6,752.1,616.6,752.9z M608.7,745.5
		c-2.6,0-4.4,1.9-4.8,4.9h9.2C613.1,747.3,611.4,745.5,608.7,745.5z"/>
	<path class="st4" d="M624.7,751.5c-1.3,0-2.4-1.1-2.4-2.4c0-1.3,1.1-2.4,2.4-2.4c1.3,0,2.4,1.1,2.4,2.4
		C627.2,750.5,626.1,751.5,624.7,751.5z M624.7,763.1c-1.3,0-2.4-1.1-2.4-2.4c0-1.3,1.1-2.4,2.4-2.4c1.3,0,2.4,1.1,2.4,2.4
		C627.2,762,626.1,763.1,624.7,763.1z"/>
</g>
<path d="M768.6,771.6c-6.6-6.1-9.8-12.3-9.8-19.9c0-8.1,3.9-14.6,9.8-20l2,2c-5.4,5.2-8.2,11.3-8.2,17.7c0,6.6,2.7,12.6,8.2,18
	L768.6,771.6z"/>
<path d="M793.5,759.3v6.6H790v-6.6h-12.1l-0.3-2.9l10.9-17.3h5v17.2h4.5v3.2h-4.5V759.3z M790,742.3L790,742.3l-8.9,14
	c2.4,0,7.2,0,8.9,0V742.3z"/>
<path d="M805.1,767.9c4-1.2,5.2-3,5.2-4.4c0-2.5-2-2.5-2-4.7c0-1.7,1.2-2.9,2.9-2.9c2.5,0,3.7,2.4,3.7,4.9c0,4.9-3.4,7.7-9.1,9.1
	L805.1,767.9z"/>
<path d="M831.7,766.4c-1.2,0-3-0.2-4.4-0.3l0.3-3c1.3,0.3,3,0.5,4.4,0.5c4.7,0,7.4-2.7,7.4-5.9c0-3.4-2.7-5.2-7.1-5.2
	c-1.5,0-3,0.2-4,0.3v-13.5h13.8v3.4h-10.6v6.9c0.7,0,1.3,0,1.9,0c6.6,0,9.8,3.4,9.8,7.6C843.3,762.2,838.6,766.4,831.7,766.4z"/>
<path d="M854.8,731.7c6.6,6.1,9.8,12.3,9.8,19.9c0,8.1-3.9,14.6-9.8,20l-2-2c5.4-5.2,8.2-11.4,8.2-17.7c0-6.6-2.7-12.6-8.2-18
	L854.8,731.7z"/>
<path d="M883.6,768.7l-1.5-1.3c2.5-2.7,2.5-4.5,1.7-5.7c-1.2-1.3-0.2-3.5,1.7-3.5C888.4,758.3,889.8,763.2,883.6,768.7z
	 M885.6,751.6c-1.3,0-2.5-1-2.5-2.5c0-1.3,1.2-2.5,2.5-2.5s2.5,1.2,2.5,2.5C887.9,750.4,886.9,751.6,885.6,751.6z"/>
<g class="st1">
	<path d="M815.4,581.1v-2.2c1-0.2,2-0.3,3-0.5l-1.5-4.4h-11.1l-1.5,4.4c1,0,2.2,0.3,3,0.5v2.2H798v-2.2c0.7-0.2,1.7-0.3,2.4-0.5
		l8.8-24.1h4.4l8.8,24.1c0.7,0,1.7,0.2,2.4,0.5v2.2H815.4z M812.7,561.7c-0.5-1.3-0.8-2.5-1.2-3.9l0,0c-0.3,1.2-0.7,2.5-1.2,3.9
		l-3.4,9.4h9.3L812.7,561.7z"/>
	<path d="M849.9,589.8c-6.6-6.1-9.8-12.3-9.8-19.9c0-8.1,3.9-14.6,9.8-20l2,2c-5.4,5.2-8.2,11.3-8.2,17.7c0,6.6,2.7,12.6,8.2,18
		L849.9,589.8z"/>
	<path d="M874.6,577.7v6.6h-3.5v-6.6H859l-0.3-2.9l10.9-17.3h5v17h4.5v3.2H874.6z M871.2,560.7L871.2,560.7l-8.9,14
		c2.4,0,7.2,0,8.9,0V560.7z"/>
	<path d="M886.4,586.3c4-1.2,5.2-3,5.2-4.4c0-2.5-2-2.5-2-4.7c0-1.7,1.2-2.9,2.9-2.9c2.5,0,3.7,2.4,3.7,4.9c0,4.9-3.4,7.7-9.1,9.1
		L886.4,586.3z"/>
	<path d="M913,584.8c-1.2,0-3-0.2-4.4-0.3l0.3-3c1.3,0.3,3,0.5,4.4,0.5c4.7,0,7.4-2.7,7.4-5.9c0-3.4-2.7-5.2-7.1-5.2
		c-1.5,0-3,0.2-4,0.3v-13.5h13.8v3.4h-10.6v6.9c0.7,0,1.3,0,1.9,0c6.6,0,9.8,3.4,9.8,7.6C924.6,580.6,919.9,584.8,913,584.8z"/>
	<path d="M936,549.9c6.6,6.1,9.8,12.3,9.8,19.9c0,8.1-3.9,14.6-9.8,20l-2-2c5.4-5.2,8.2-11.4,8.2-17.7c0-6.6-2.7-12.6-8.2-18
		L936,549.9z"/>
</g>
<g>
	<path d="M663.8,760.4c-1.3,0-2.2,0-3.4-0.2v7.2c1.2,0.1,2.4,0.3,3.5,0.5v2.2h-10.4v-2.2c1-0.2,2.1-0.4,3.3-0.5v-24.2
		c-1-0.2-2.2-0.3-3.3-0.4v-2.2c2-0.2,4.7-0.4,6.8-0.3c0,1.1-0.1,2.9-0.3,4l0.1,0c1.1-2.8,3.5-4.4,6.6-4.4c4.7,0,7.3,3.3,7.3,9.4
		C674.1,756.4,670.2,760.4,663.8,760.4z M665.9,742.9c-3.6,0-5.4,4.2-5.4,7.7v6.6c1.1,0.3,2.2,0.5,3.6,0.5c3.8,0,6.3-2.3,6.3-8
		C670.3,745.3,668.9,742.9,665.9,742.9z"/>
	<path d="M686.4,760.5c-5.4,0-8.9-3.1-8.9-10c0-6,3.7-10.6,9.7-10.6c5,0,8.9,2.8,8.9,10C696,755.9,692.4,760.5,686.4,760.5z
		 M686.8,742.9c-2.9,0-5.6,2.2-5.6,7.3c0,4.6,1.9,7.2,5.6,7.2c3,0,5.6-2.3,5.6-7.3C692.3,745.6,690.4,742.9,686.8,742.9z"/>
	<path d="M698.8,760.2V758c1-0.2,2.3-0.4,3.5-0.5v-14.4c-1-0.2-2.3-0.3-3.5-0.4v-2.2c2-0.2,4.8-0.4,7.1-0.3v17.2
		c1.2,0.1,2.4,0.3,3.4,0.5v2.2H698.8z M704.2,736.3c-1.3,0-2.4-1-2.4-2.3c0-1.3,1.1-2.4,2.4-2.4c1.3,0,2.4,1,2.4,2.4
		C706.5,735.3,705.4,736.3,704.2,736.3z"/>
	<path d="M727.3,760.2v-12.8c0-2.8-0.8-4.5-3.4-4.5c-3.3,0-5.7,3.4-5.7,7.8v6.8c1.1,0.1,2.2,0.2,3.2,0.5v2.2h-10.3V758
		c1-0.2,2.3-0.4,3.5-0.5v-14.4c-1-0.2-2.3-0.3-3.5-0.4v-2.2c2-0.2,4.8-0.4,7-0.3c0,1.2-0.1,3-0.3,4.2h0c1.2-2.7,3.6-4.6,7-4.6
		c4.5,0,6,2.8,6,6.4v11.2c1.2,0.1,2.4,0.3,3.3,0.5v2.2H727.3z"/>
	<path d="M744,760.5c-4.1,0-5.3-1.7-5.3-6v-11.4h-4.1v-2.8h4.1v-6.4l3.6-1v7.4h5.6v2.8h-5.6v10.2c0,3.3,0.6,4.2,2.8,4.2
		c0.9,0,1.8-0.1,2.5-0.3l0.4,3C746.9,760.3,745.3,760.5,744,760.5z"/>
</g>
</svg>
