<?xml version="1.0" encoding="utf-8"?>
<!-- Generator: Adobe Illustrator 18.0.0, SVG Export Plug-In . SVG Version: 6.00 Build 0)  -->
<!DOCTYPE svg PUBLIC "-//W3C//DTD SVG 1.1//EN" "http://www.w3.org/Graphics/SVG/1.1/DTD/svg11.dtd">
<svg version="1.1" id="Layer_1" xmlns="http://www.w3.org/2000/svg" xmlns:xlink="http://www.w3.org/1999/xlink" x="0px" y="0px"
	 viewBox="-59 113 815 566" enable-background="new -59 113 815 566" xml:space="preserve">
<g>
	<rect x="39.3" y="228.3" fill="none" stroke="#999999" stroke-width="1.3" width="319.9" height="319.9"/>
	<line fill="none" stroke="#999999" stroke-width="1.3" x1="39.3" y1="494.9" x2="359.2" y2="494.9"/>
	<line fill="none" stroke="#999999" stroke-width="1.3" x1="39.3" y1="441.4" x2="359.2" y2="441.4"/>
	<line fill="none" stroke="#999999" stroke-width="1.3" x1="39.3" y1="388.2" x2="359.2" y2="388.2"/>
	<line fill="none" stroke="#999999" stroke-width="1.3" x1="39.3" y1="335" x2="359.2" y2="335"/>
	<line fill="none" stroke="#999999" stroke-width="1.3" x1="39.3" y1="281.5" x2="359.2" y2="281.5"/>
	<line fill="none" stroke="#999999" stroke-width="1.3" x1="305.8" y1="228.3" x2="305.8" y2="548.1"/>
	<line fill="none" stroke="#999999" stroke-width="1.3" x1="252.6" y1="228.3" x2="252.6" y2="548.1"/>
	<line fill="none" stroke="#999999" stroke-width="1.3" x1="199.2" y1="228.3" x2="199.2" y2="548.1"/>
	<line fill="none" stroke="#999999" stroke-width="1.3" x1="145.9" y1="228.3" x2="145.9" y2="548.1"/>
	<line fill="none" stroke="#999999" stroke-width="1.3" x1="92.7" y1="228.3" x2="92.7" y2="548.1"/>
</g>
<text transform="matrix(1 0 0 1 35.9601 151.3066)" font-family="'TheSerif-HP5Plain'" font-size="25.8187">x</text>
<text transform="matrix(1 0 0 1 -45.9208 232.1094)" font-family="'TheSerif-HP5Plain'" font-size="25.8187">y</text>
<text transform="matrix(1 0 0 1 36.4376 195.293)" font-family="'TheSerif-HP5Plain'" font-size="25.8187">0</text>
<text transform="matrix(1 0 0 1 50.6378 195.293)" font-family="'TheSerif-HP5Plain'" font-size="25.8187" letter-spacing="31"> </text>
<text transform="matrix(1 0 0 1 88.0753 195.293)" font-family="'TheSerif-HP5Plain'" font-size="25.8187">1</text>
<text transform="matrix(1 0 0 1 102.2755 195.293)" font-family="'TheSerif-HP5Plain'" font-size="25.8187" letter-spacing="31"> </text>
<text transform="matrix(1 0 0 1 139.713 195.293)" font-family="'TheSerif-HP5Plain'" font-size="25.8187">2</text>
<text transform="matrix(1 0 0 1 153.9122 195.293)" font-family="'TheSerif-HP5Plain'" font-size="25.8187" letter-spacing="31"> </text>
<text transform="matrix(1 0 0 1 191.3497 195.293)" font-family="'TheSerif-HP5Plain'" font-size="25.8187">3</text>
<text transform="matrix(1 0 0 1 205.5499 195.293)" font-family="'TheSerif-HP5Plain'" font-size="25.8187" letter-spacing="31"> </text>
<text transform="matrix(1 0 0 1 242.9874 195.293)" font-family="'TheSerif-HP5Plain'" font-size="25.8187">4</text>
<text transform="matrix(1 0 0 1 257.1876 195.293)" font-family="'TheSerif-HP5Plain'" font-size="25.8187" letter-spacing="31"> </text>
<text transform="matrix(1 0 0 1 294.6251 195.293)" font-family="'TheSerif-HP5Plain'" font-size="25.8187">5</text>
<text transform="matrix(1 0 0 1 308.8253 195.293)" font-family="'TheSerif-HP5Plain'" font-size="25.8187" letter-spacing="31"> </text>
<text transform="matrix(1 0 0 1 346.2628 195.293)" font-family="'TheSerif-HP5Plain'" font-size="25.8187">6</text>
<circle fill="#808080" cx="200.2" cy="333.6" r="8.3"/>
<text transform="matrix(1 0 0 1 -3.7245 239.7588)" font-family="'TheSerif-HP5Plain'" font-size="25.8187">0</text>
<text transform="matrix(1 0 0 1 -3.7245 291.3965)" font-family="'TheSerif-HP5Plain'" font-size="25.8187">1</text>
<text transform="matrix(1 0 0 1 -3.7245 343.0342)" font-family="'TheSerif-HP5Plain'" font-size="25.8187">2</text>
<text transform="matrix(1 0 0 1 -3.7245 394.6709)" font-family="'TheSerif-HP5Plain'" font-size="25.8187">3</text>
<text transform="matrix(1 0 0 1 -3.7245 446.3086)" font-family="'TheSerif-HP5Plain'" font-size="25.8187">4</text>
<text transform="matrix(1 0 0 1 -3.7245 497.9463)" font-family="'TheSerif-HP5Plain'" font-size="25.8187">5</text>
<text transform="matrix(1 0 0 1 -3.7245 549.584)" font-family="'TheSerif-HP5Plain'" font-size="25.8187">6</text>
<line fill="none" stroke="#000000" stroke-width="1.3" x1="40.6" y1="228.3" x2="30.4" y2="228.3"/>
<line fill="none" stroke="#000000" stroke-width="1.3" x1="40.6" y1="281.8" x2="30.4" y2="281.8"/>
<line fill="none" stroke="#000000" stroke-width="1.3" x1="40.6" y1="334.9" x2="30.4" y2="334.9"/>
<line fill="none" stroke="#000000" stroke-width="1.3" x1="40.6" y1="388.1" x2="30.4" y2="388.1"/>
<line fill="none" stroke="#000000" stroke-width="1.3" x1="40.6" y1="441.6" x2="30.4" y2="441.6"/>
<line fill="none" stroke="#000000" stroke-width="1.3" x1="40.6" y1="495.5" x2="30.4" y2="495.5"/>
<line fill="none" stroke="#000000" stroke-width="1.3" x1="40.6" y1="547.7" x2="30.4" y2="547.7"/>
<line fill="none" stroke="#000000" stroke-width="1.3" x1="358.7" y1="228.1" x2="358.7" y2="218"/>
<line fill="none" stroke="#000000" stroke-width="1.3" x1="305.1" y1="228.1" x2="305.1" y2="218"/>
<line fill="none" stroke="#000000" stroke-width="1.3" x1="252" y1="228.1" x2="252" y2="218"/>
<line fill="none" stroke="#000000" stroke-width="1.3" x1="198.8" y1="228.1" x2="198.8" y2="218"/>
<line fill="none" stroke="#000000" stroke-width="1.3" x1="145.4" y1="228.1" x2="145.4" y2="218"/>
<line fill="none" stroke="#000000" stroke-width="1.3" x1="91.4" y1="228.1" x2="91.4" y2="218"/>
<line fill="none" stroke="#000000" stroke-width="1.3" x1="39.7" y1="228.1" x2="39.7" y2="218"/>
<polyline fill="#FFFFFF" stroke="#000000" stroke-width="1.3" points="-32.7,326 -39,332.3 -45.3,326 "/>
<line fill="none" stroke="#000000" stroke-width="1.3" x1="-39" y1="332.3" x2="-39" y2="257.4"/>
<polyline fill="#FFFFFF" stroke="#000000" stroke-width="1.3" points="137.1,137.2 143.4,143.5 137.1,149.8 "/>
<line fill="none" stroke="#000000" stroke-width="1.3" x1="144.9" y1="143.5" x2="70" y2="143.5"/>
<text transform="matrix(1 0 0 1 442.3654 391.6152)" font-family="'TheSerif-HP5Plain'" font-size="25.8187">rectMode ( CENTER ) ;</text>
<text transform="matrix(1 0 0 1 442.3654 422.5977)" font-family="'TheSerif-HP5Plain'" font-size="25.8187">rect( x , y , width , height ) ;</text>
<text transform="matrix(1 0 0 1 211.6964 322.0469)" font-family="'TheSerif-HP5Plain'" font-size="25.8187">( 3 , 2 )</text>
<line fill="none" stroke="#000000" stroke-width="2" x1="92.4" y1="281.4" x2="307.2" y2="281.4"/>
<line fill="none" stroke="#000000" stroke-width="2" x1="90.9" y1="388.9" x2="305.8" y2="388.9"/>
<line fill="none" stroke="#000000" stroke-width="2" x1="306" y1="388.2" x2="306" y2="280.5"/>
<line fill="none" stroke="#000000" stroke-width="2" x1="92.2" y1="388.9" x2="92.2" y2="281.9"/>
<text transform="matrix(1 0 0 1 22.2267 620.5293)" fill="#808080" font-family="'TheSerif-HP5Plain'" font-size="25.8187">Example:  </text>
<text transform="matrix(1 0 0 1 141.9962 620.5293)" font-family="'TheSerif-HP5Plain'" font-size="25.8187">rectMode ( CENTER ) ;</text>
<text transform="matrix(1 0 0 1 22.2267 651.5117)" font-family="'TheSerif-HP5Plain'" font-size="25.8187" letter-spacing="45">  </text>
<text transform="matrix(1 0 0 1 125.5011 651.5117)" font-family="'TheSerif-HP5Plain'" font-size="25.8187">   rect ( 3 , 2 , 4 , 2 ) ;</text>
</svg>
