<?xml version="1.0" encoding="utf-8"?>
<!-- Generator: Adobe Illustrator 18.0.0, SVG Export Plug-In . SVG Version: 6.00 Build 0)  -->
<!DOCTYPE svg PUBLIC "-//W3C//DTD SVG 1.1//EN" "http://www.w3.org/Graphics/SVG/1.1/DTD/svg11.dtd">
<svg version="1.1" id="Layer_1" xmlns="http://www.w3.org/2000/svg" xmlns:xlink="http://www.w3.org/1999/xlink" x="0px" y="0px"
	 viewBox="0 0 215 72" enable-background="new 0 0 215 72" xml:space="preserve">
<g>
	<rect x="74.7" y="15.1" fill="none" stroke="#999999" stroke-width="1.3" width="40.7" height="40.7"/>
	<line fill="none" stroke="#999999" stroke-width="1.3" x1="74.7" y1="49" x2="115.4" y2="49"/>
	<line fill="none" stroke="#999999" stroke-width="1.3" x1="74.7" y1="42.2" x2="115.4" y2="42.2"/>
	<line fill="none" stroke="#999999" stroke-width="1.3" x1="74.7" y1="35.4" x2="115.4" y2="35.4"/>
	<line fill="none" stroke="#999999" stroke-width="1.3" x1="74.7" y1="28.7" x2="115.4" y2="28.7"/>
	<line fill="none" stroke="#999999" stroke-width="1.3" x1="74.7" y1="21.9" x2="115.4" y2="21.9"/>
	<line fill="none" stroke="#999999" stroke-width="1.3" x1="108.6" y1="15.1" x2="108.6" y2="55.8"/>
	<line fill="none" stroke="#999999" stroke-width="1.3" x1="101.8" y1="15.1" x2="101.8" y2="55.8"/>
	<line fill="none" stroke="#999999" stroke-width="1.3" x1="95" y1="15.1" x2="95" y2="55.8"/>
	<line fill="none" stroke="#999999" stroke-width="1.3" x1="88.3" y1="15.1" x2="88.3" y2="55.8"/>
	<line fill="none" stroke="#999999" stroke-width="1.3" x1="81.5" y1="15.1" x2="81.5" y2="55.8"/>
</g>
<text transform="matrix(1 0 0 1 74.2826 5.2896)" font-family="'TheSerif-HP5Plain'" font-size="3.2844">x</text>
<text transform="matrix(1 0 0 1 63.8673 15.5677)" font-family="'TheSerif-HP5Plain'" font-size="3.2844">y</text>
<text transform="matrix(1 0 0 1 74.3436 10.8844)" font-family="'TheSerif-HP5Plain'" font-size="3.2844">0</text>
<text transform="matrix(1 0 0 1 76.1496 10.8844)" font-family="'TheSerif-HP5Plain'" font-size="3.2844" letter-spacing="3"> </text>
<text transform="matrix(1 0 0 1 80.9127 10.8844)" font-family="'TheSerif-HP5Plain'" font-size="3.2844">1</text>
<text transform="matrix(1 0 0 1 82.7187 10.8844)" font-family="'TheSerif-HP5Plain'" font-size="3.2844" letter-spacing="3"> </text>
<text transform="matrix(1 0 0 1 87.4808 10.8844)" font-family="'TheSerif-HP5Plain'" font-size="3.2844">2</text>
<text transform="matrix(1 0 0 1 89.2873 10.8844)" font-family="'TheSerif-HP5Plain'" font-size="3.2844" letter-spacing="3"> </text>
<text transform="matrix(1 0 0 1 94.0498 10.8844)" font-family="'TheSerif-HP5Plain'" font-size="3.2844">3</text>
<text transform="matrix(1 0 0 1 95.8559 10.8844)" font-family="'TheSerif-HP5Plain'" font-size="3.2844" letter-spacing="3"> </text>
<text transform="matrix(1 0 0 1 100.6184 10.8844)" font-family="'TheSerif-HP5Plain'" font-size="3.2844">4</text>
<text transform="matrix(1 0 0 1 102.4244 10.8844)" font-family="'TheSerif-HP5Plain'" font-size="3.2844" letter-spacing="3"> </text>
<text transform="matrix(1 0 0 1 107.1875 10.8844)" font-family="'TheSerif-HP5Plain'" font-size="3.2844">5</text>
<text transform="matrix(1 0 0 1 108.9935 10.8844)" font-family="'TheSerif-HP5Plain'" font-size="3.2844" letter-spacing="3"> </text>
<text transform="matrix(1 0 0 1 113.7555 10.8844)" font-family="'TheSerif-HP5Plain'" font-size="3.2844">6</text>
<circle fill="#808080" cx="95.2" cy="28.5" r="1.1"/>
<text transform="matrix(1 0 0 1 69.2345 16.5415)" font-family="'TheSerif-HP5Plain'" font-size="3.2844">0</text>
<text transform="matrix(1 0 0 1 69.2345 23.1096)" font-family="'TheSerif-HP5Plain'" font-size="3.2844">1</text>
<text transform="matrix(1 0 0 1 69.2345 29.6782)" font-family="'TheSerif-HP5Plain'" font-size="3.2844">2</text>
<text transform="matrix(1 0 0 1 69.2345 36.2472)" font-family="'TheSerif-HP5Plain'" font-size="3.2844">3</text>
<text transform="matrix(1 0 0 1 69.2345 42.8148)" font-family="'TheSerif-HP5Plain'" font-size="3.2844">4</text>
<text transform="matrix(1 0 0 1 69.2345 49.3849)" font-family="'TheSerif-HP5Plain'" font-size="3.2844">5</text>
<text transform="matrix(1 0 0 1 69.2345 55.9535)" font-family="'TheSerif-HP5Plain'" font-size="3.2844">6</text>
<line fill="none" stroke="#000000" stroke-width="1.3" x1="74.9" y1="15.1" x2="73.6" y2="15.1"/>
<line fill="none" stroke="#000000" stroke-width="1.3" x1="74.9" y1="21.9" x2="73.6" y2="21.9"/>
<line fill="none" stroke="#000000" stroke-width="1.3" x1="74.9" y1="28.6" x2="73.6" y2="28.6"/>
<line fill="none" stroke="#000000" stroke-width="1.3" x1="74.9" y1="35.4" x2="73.6" y2="35.4"/>
<line fill="none" stroke="#000000" stroke-width="1.3" x1="74.9" y1="42.2" x2="73.6" y2="42.2"/>
<line fill="none" stroke="#000000" stroke-width="1.3" x1="74.9" y1="49.1" x2="73.6" y2="49.1"/>
<line fill="none" stroke="#000000" stroke-width="1.3" x1="74.9" y1="55.7" x2="73.6" y2="55.7"/>
<line fill="none" stroke="#000000" stroke-width="1.3" x1="115.3" y1="15.1" x2="115.3" y2="13.8"/>
<line fill="none" stroke="#000000" stroke-width="1.3" x1="108.5" y1="15.1" x2="108.5" y2="13.8"/>
<line fill="none" stroke="#000000" stroke-width="1.3" x1="101.8" y1="15.1" x2="101.8" y2="13.8"/>
<line fill="none" stroke="#000000" stroke-width="1.3" x1="95" y1="15.1" x2="95" y2="13.8"/>
<line fill="none" stroke="#000000" stroke-width="1.3" x1="88.2" y1="15.1" x2="88.2" y2="13.8"/>
<line fill="none" stroke="#000000" stroke-width="1.3" x1="81.3" y1="15.1" x2="81.3" y2="13.8"/>
<line fill="none" stroke="#000000" stroke-width="1.3" x1="74.8" y1="15.1" x2="74.8" y2="13.8"/>
<polyline fill="#FFFFFF" stroke="#000000" stroke-width="1.3" points="65.5,27.5 64.7,28.3 63.9,27.5 "/>
<line fill="none" stroke="#000000" stroke-width="1.3" x1="64.7" y1="28.3" x2="64.7" y2="18.8"/>
<polyline fill="#FFFFFF" stroke="#000000" stroke-width="1.3" points="87.1,3.5 87.9,4.3 87.1,5.1 "/>
<line fill="none" stroke="#000000" stroke-width="1.3" x1="88.1" y1="4.3" x2="78.6" y2="4.3"/>
<text transform="matrix(1 0 0 1 125.9808 35.8585)" font-family="'TheSerif-HP5Plain'" font-size="3.2844">rectMode ( CENTER ) ;</text>
<text transform="matrix(1 0 0 1 125.9808 39.7993)" font-family="'TheSerif-HP5Plain'" font-size="3.2844">rect( x , y , width , height ) ;</text>
<text transform="matrix(1 0 0 1 96.6382 27.0082)" font-family="'TheSerif-HP5Plain'" font-size="3.2844">( 3 , 2 )</text>
<line fill="none" stroke="#000000" stroke-width="2" x1="81.5" y1="21.8" x2="108.8" y2="21.8"/>
<line fill="none" stroke="#000000" stroke-width="2" x1="81.3" y1="35.5" x2="108.6" y2="35.5"/>
<line fill="none" stroke="#000000" stroke-width="2" x1="108.6" y1="35.4" x2="108.6" y2="21.7"/>
<line fill="none" stroke="#000000" stroke-width="2" x1="81.4" y1="35.5" x2="81.4" y2="21.9"/>
<text transform="matrix(1 0 0 1 72.5361 64.9779)" fill="#808080" font-family="'TheSerif-HP5Plain'" font-size="3.2844">Example:  </text>
<text transform="matrix(1 0 0 1 87.7711 64.9779)" font-family="'TheSerif-HP5Plain'" font-size="3.2844">rectMode ( CENTER ) ;</text>
<text transform="matrix(1 0 0 1 72.5361 68.9193)" font-family="'TheSerif-HP5Plain'" font-size="3.2844" letter-spacing="5">  </text>
<text transform="matrix(1 0 0 1 87.7712 68.9197)" font-family="'TheSerif-HP5Plain'" font-size="3.2844">rect ( 3 , 2 , 4 , 2 ) ;</text>
</svg>
