<?xml version="1.0" encoding="utf-8"?>
<!-- Generator: Adobe Illustrator 18.0.0, SVG Export Plug-In . SVG Version: 6.00 Build 0)  -->
<!DOCTYPE svg PUBLIC "-//W3C//DTD SVG 1.1//EN" "http://www.w3.org/Graphics/SVG/1.1/DTD/svg11.dtd">
<svg version="1.1" id="Layer_1" xmlns="http://www.w3.org/2000/svg" xmlns:xlink="http://www.w3.org/1999/xlink" x="0px" y="0px"
	 viewBox="0 0 612 792" enable-background="new 0 0 612 792" xml:space="preserve">
<g id="Layer_2" display="none">
	<rect x="270.1" y="678.4" display="inline" fill="#FBB03B" width="14.5" height="28.7"/>
	<rect x="421.6" y="738.8" display="inline" fill="#FBB03B" width="7.2" height="28.7"/>
	<rect x="212" y="678.4" display="inline" fill="#00FFFF" width="47.3" height="28.7"/>
	<rect x="153" y="678.4" display="inline" fill="#00FF00" width="47.3" height="28.7"/>
	<rect x="365.7" y="738.8" display="inline" fill="#00FFFF" width="47.3" height="29.1"/>
	<rect x="267.5" y="739.2" display="inline" fill="#00FF00" width="47.5" height="28.5"/>
	<rect x="65.3" y="738.4" display="inline" fill="#FFFF00" width="128.6" height="29.1"/>
	<rect x="65.3" y="678.7" display="inline" fill="#FFFF00" width="59.9" height="28.7"/>
	<text transform="matrix(1 0 0 1 66.3311 700.0293)" display="inline" font-family="'TheSansMono-W3Light'" font-size="24.3844">line (1,0,4,5);</text>
</g>
<g id="Layer_1_1_">
	<g enable-background="new    ">
		<path d="M-2315.2,743.5c-15.7,0-31.1-1.1-39.4-1.1h-20.3v-14.6c6.3-2,13.4-3.1,20.3-3.1V580.1c-6.9-0.6-14-2-20.3-3.1v-14.8h19.7
			c12,0,30.6-0.6,46.8-0.6c50,0,80.5,27.1,80.5,88.8C-2227.8,711.8-2264.1,743.5-2315.2,743.5z M-2310.4,581.3
			c-8.3,0-17.7,0.6-23.4,0.6v138.8c6.3,1.1,14.6,2,20.8,2c36.8,0,62-22.3,62-71.1C-2250.7,605.8-2269.8,581.3-2310.4,581.3z"/>
		<path d="M-2131.6,630.7c-26.6-5.1-38,15.1-38,57.7v35.4c6.9,0.6,14,2,20.3,3.1v14.6h-61.4v-14c6.3-2,13.4-3.1,20.3-3.1v-95.7
			c-5.7-1.1-13.4-2-20.3-2.6v-14.6c11.4-2,28-2.6,40.5-2c0,8.3-0.6,20.3-2.6,31.7l0,0c5.1-18.3,16.6-36.8,41.7-34.3L-2131.6,630.7z"
			/>
		<path d="M-2049.9,742.1c0-9.4,0-19.1,1.1-26.6h-0.6c-5.7,16.6-20.3,28.6-39.4,28.6c-19.1,0-31.7-13.4-31.7-34.8
			c0-28.6,26-45.7,69.1-45.7v-10c0-18.3-5.7-29.1-24-29.1c-6.9,0-15.1,1.1-21.4,3.7c-0.6,6.9-2,14-2.6,21.4h-12.6v-36
			c11.4-4.6,25.4-7.7,39.4-7.7c33.7,0,43.1,17.7,43.1,44.3v72.2c5.7,1.1,13.4,2,19.7,2.6v14.6
			C-2021.4,742.1-2037.1,742.9-2049.9,742.1z M-2051.1,680.7c-36,0-48.8,10.3-48.8,25.4c0,11.4,6.9,19.7,17.7,19.7
			c18.3,0,31.1-20.8,31.1-41.7C-2051.1,683.8-2051.1,680.7-2051.1,680.7z"/>
		<path d="M-1824.3,627.6l-31.7,115.4h-24l-22.8-78c-2.6-8.3-4.6-17.1-6.3-26.6l0,0c-2.6,12-5.1,22.3-8.3,33.7l-19.1,71.1h-24
			l-29.7-115.4c-5.1-0.6-10.3-2-14.6-3.1v-14.6h53.1v14.6c-5.1,2-10.3,2.6-15.7,3.1l14,59.7c2.6,10.9,5.1,21.4,6.9,30.6l0,0
			c2-11.4,5.1-22.3,7.7-32.3l20.8-74.8h21.4l20.8,74.8c4.6,15.7,6.3,23.4,8.3,32.3l0,0c2-9.4,4.6-17.1,6.9-29.1l15.1-60.3
			c-5.1-0.6-11.4-2-15.7-3.1V611h52v14.6C-1814.1,625.6-1819.2,627-1824.3,627.6z"/>
		<path d="M-1676.7,742.1c0-9.4,0-19.1,1.1-26.6h-0.6c-5.7,16.6-20.3,28.6-39.4,28.6c-19.1,0-31.7-13.4-31.7-34.8
			c0-28.6,26-45.7,69.1-45.7v-10c0-18.3-5.7-29.1-24-29.1c-6.9,0-15.1,1.1-21.4,3.7c-0.6,6.9-2,14-2.6,21.4h-12.6v-36
			c11.4-4.6,25.4-7.7,39.4-7.7c33.7,0,43.1,17.7,43.1,44.3v72.2c5.7,1.1,13.4,2,19.7,2.6v14.6
			C-1648.1,742.1-1664.7,742.9-1676.7,742.1z M-1677.8,680.7c-36,0-48.8,10.3-48.8,25.4c0,11.4,6.9,19.7,17.7,19.7
			c18.3,0,31.1-20.8,31.1-41.7V680.7z"/>
		<path d="M-1579,742.1v-14.6c5.7-2,12.6-3.1,19.7-3.1V566.4c-5.7-1.1-13.4-2-19.7-2.6v-14.6c12-2,27.1-2.6,40.5-2v176.8
			c6.9,0.6,14,2,19.7,3.1v14.6h-60.3V742.1z"/>
		<path d="M-1507.9,742.1v-14.6c6.3-2,13.4-3.1,20.3-3.1v-95.7c-5.7-1.1-13.4-2-20.3-2.6v-14.6c11.4-2,28-2.6,41.1-2v114.8
			c6.9,0.6,14,2,19.7,3.1v14.6H-1507.9z M-1477.1,583c-7.7,0-14-6.9-14-15.1s6.3-15.7,14-15.7c7.7,0,14,6.9,14,15.7
			C-1463.7,576.1-1470,583-1477.1,583z"/>
		<path d="M-1343.2,742.1v-85.7c0-18.3-4.6-29.7-19.7-29.7c-19.1,0-32.8,22.3-32.8,52v45.7c6.3,0.6,12.6,2,18.3,3.1v14.6h-59.7
			v-14.6c6.3-2,13.4-3.1,20.3-3.1v-95.7c-5.7-1.1-13.4-2-20.3-2.6v-14.6c11.4-2,28-2.6,40.5-2c0,7.7-0.6,20.3-2,28l0,0
			c6.9-18.3,20.8-30.6,40.5-30.6c26,0,34.3,19.1,34.3,42.5v74.8c6.9,0.6,14,2,19.1,3.1v14.6L-1343.2,742.1L-1343.2,742.1z"/>
		<path d="M-1192.4,675.5h-75.4c-0.6,34.8,11.4,49.4,36,49.4c11.4,0,22.8-2.6,32.8-7.7l3.1,19.1c-11.4,5.1-25.4,8.3-40,8.3
			c-34.8,0-54-21.4-54-67.7c0-39.4,19.1-69.7,52-69.7c32.3,0,45.7,24.8,45.7,54.5C-1191.8,665-1192.4,669.8-1192.4,675.5z
			 M-1238.6,625.6c-15.1,0-26,12.6-28.6,32.8h54C-1212.7,638.1-1222.9,625.6-1238.6,625.6z"/>
		<path d="M-1041,567.9c-5.7-2-12-3.1-17.1-3.1c-16.6,0-24,10.9-24,34.3v10.3h32.3v18.3h-32.3v96.2c6.9,0.6,14,2,20.3,3.1v14.6
			h-61.4v-14c6.3-2,13.4-3.1,20.3-3.1v-96.2h-25.4v-18.3h25.4v-10.3c0-36.8,15.7-54,45.1-54c6.3,0,12.6,0.6,19.1,2.6L-1041,567.9z"
			/>
		<path d="M-961.1,630.7c-26.6-5.1-38,15.1-38,57.7v35.4c6.9,0.6,14,2,20.3,3.1v14.6h-61.4v-14c6.3-2,13.4-3.1,20.3-3.1v-95.7
			c-5.7-1.1-13.4-2-20.3-2.6v-14.6c11.4-2,28-2.6,40.5-2c0,8.3-0.6,20.3-2.6,31.7l0,0c5.1-18.3,16.6-36.8,41.7-34.3L-961.1,630.7z"
			/>
		<path d="M-895.4,744.6c-31.7,0-52-20.8-52-66.5c0-40,21.4-71.1,56.3-71.1c29.1,0,52,18.3,52,66.5
			C-838.9,713.8-860.6,744.6-895.4,744.6z M-892.8,627.6c-17.1,0-32.8,14.6-32.8,48.8c0,30.6,11.4,48.3,32.3,48.3
			c17.1,0,32.3-15.1,32.3-48.8C-861.1,644.7-872,627.6-892.8,627.6z"/>
		<path d="M-659.5,742.1v-84.8c0-18.3-3.7-30.6-18.3-30.6c-16.6,0-32.3,20.3-32.3,52.5v45.1c6.3,0.6,12.6,2,19.1,3.1v14.6h-39.4
			v-84.8c0-17.1-3.1-30.6-19.1-30.6c-17.1,0-32.3,22.3-32.3,52.5v45.1c6.3,0.6,12.6,2,18.3,3.1v14.6h-59.7v-14.6
			c6.3-2,13.4-3.1,20.3-3.1v-95.7c-5.7-1.1-13.4-2-20.3-2.6v-14.6c11.4-2,28-2.6,40.5-2c0,7.7-0.6,20.3-2,28h0.6
			c6.3-18.3,21.4-30.6,40-30.6c24,0,31.1,19.1,31.7,30.6c4.6-12.6,17.1-30.6,39.4-30.6c21.4,0,34.3,13.4,34.3,43.7v73.4
			c6.9,0.6,14,2,19.7,3.1v14.6L-659.5,742.1L-659.5,742.1z"/>
		<path d="M-513.9,798c-27.1-50-33.7-92.5-33.7-131.9s7.7-84.8,34.3-132.5l15.1,8.3c-19.1,37.4-28.6,80-28.6,122.8
			c0,45.7,9.4,86.8,29.1,124.2L-513.9,798z"/>
		<path d="M-432.8,742.1v-14.6c7.7-2,16.6-3.1,25.4-3.1v-98.2l-26,12.6l-3.1-20.3l34.3-15.1h17.1v121.1c6.3,0.6,14,2,20.8,3.1v14.6
			L-432.8,742.1L-432.8,742.1z"/>
		<path d="M-292.6,783.5l-8.9-8.9c14.6-18.3,15.1-30.6,10.3-38.6c-6.3-9.4-1.1-24,10.3-24C-264.9,712.4-257.2,746.1-292.6,783.5z"/>
		<path d="M-145.8,744.6c-32.3,0-57.1-21.4-57.1-71.1c0-45.7,28.6-73.4,62-73.4c38,0,57.1,28.6,57.1,70.2
			C-83.6,717.5-112.1,744.6-145.8,744.6z M-142.4,621.3c-21.4,0-39.4,19.1-39.4,51.4c0,29.1,11.4,52,38,52c21.4,0,38.6-19.1,38.6-52
			C-104.4,643.8-116.4,621.3-142.4,621.3z"/>
		<path d="M0.1,798l-15.1-8.3c19.1-37.4,28.6-80,28.6-122.8c0-45.7-9.4-86.2-29.1-124.2l15.7-8.3c27.1,49.4,33.7,92,33.7,131.1
			C33.5,704.1,26.1,749.8,0.1,798z"/>
		<path d="M154.6,744.6c-23.4,0-31.1-11.4-31.1-40v-76h-23.4v-18.3h23.4v-43.1l20.8-6.9v49.4h32.3v18.3h-32.3v67.7
			c0,22.3,3.7,28,16.6,28c5.1,0,10.3-0.6,14.6-2l2,19.7C171.2,743.5,162.3,744.6,154.6,744.6z"/>
		<path d="M246.6,744.6c-31.7,0-52-20.8-52-66.5c0-40,21.4-71.1,56.3-71.1c29.1,0,52,18.3,52,66.5
			C303.1,713.8,281.4,744.6,246.6,744.6z M249.1,627.6c-17.1,0-32.8,14.6-32.8,48.8c0,30.6,11.4,48.3,32.3,48.3
			c17.1,0,32.3-15.1,32.3-48.8C281.4,644.7,270,627.6,249.1,627.6z"/>
		<path d="M412.5,798c-27.1-50-33.7-92.5-33.7-131.9s7.7-84.8,34.3-132.5l15.1,8.3c-19.1,37.4-28.6,80-28.6,122.8
			c0,45.7,9.4,86.8,29.1,124.2L412.5,798z"/>
		<path d="M579.2,742.1v32.3c6.9,0.6,14,2,19.7,3.7v13.4h-60.3V778c6.3-2,13.4-3.1,20.3-3.7v-32.3h-68.5l-3.1-19.7l65.4-119.1h27.1
			v117.4h26.6v21.4L579.2,742.1L579.2,742.1z M558.4,627L558.4,627L507,720.6c13.4,0,43.1,0,51.4,0V627z"/>
		<path d="M675.5,783.5l-8.9-8.9c14.6-18.3,15.1-30.6,10.3-38.6c-6.3-9.4-1.1-24,10.3-24C703.5,712.4,711.7,746.1,675.5,783.5z"/>
		<path d="M784.6,794c-6.3,0-12-0.6-17.1-1.1l2-22.3c4.6,1.1,10.9,2,16.6,2c28.6,0,43.1-17.1,43.1-39.4s-15.7-38.6-43.7-38.6
			c-4.6,0-8.9,0-13.4,0v-92h74.2v23.4h-54v47.4c38.6,0,60.3,23.4,60.3,55.1C852.2,766.9,823.1,794,784.6,794z"/>
		<path d="M934.8,798l-15.1-8.3c19.1-37.4,28.6-80,28.6-122.8c0-45.7-9.4-86.2-29.1-124.2l15.7-8.3c27.1,49.4,33.7,92,33.7,131.1
			C969,704.1,961.3,749.8,934.8,798z"/>
		<path d="M1010.2,744.6c-7.7,0-14.6-7.7-14.6-16.6s6.3-16.6,14.6-16.6c8.3,0,14.6,7.7,14.6,16.6S1018.4,744.6,1010.2,744.6z"/>
	</g>
	<g enable-background="new    ">
		<path fill="#999999" d="M-1874.9,1003.9l-27.1,74.8h-19.1l-26.6-74.8c-3.7-0.6-7.7-1.1-11.4-2v-9.4h40v9.4c-3.7,1.1-8.3,2-12,2
			l14.6,41.7c2,5.7,3.7,11.4,5.1,17.1l0,0c1.1-5.7,3.1-11.4,5.1-16.6l14.6-42.5c-4.6-0.6-8.3-1.1-12-2v-9.4h40v9.4
			C-1867.5,1002.5-1871.2,1003.3-1874.9,1003.9z"/>
		<path fill="#999999" d="M-1786.9,1035.6h-56.3c-0.6,22.8,8.3,32.3,27.1,32.3c8.3,0,17.1-2,24.8-5.1l2.6,12
			c-8.9,3.1-19.1,5.7-29.7,5.7c-26,0-40.5-14-40.5-44.3c0-26,14.6-45.1,38.6-45.1s34.3,16.6,34.3,35.4
			C-1786.4,1028.5-1786.4,1031.6-1786.9,1035.6z M-1821.8,1002.5c-11.4,0-19.1,8.3-20.8,21.4h40.5
			C-1802.1,1010.8-1808.9,1002.5-1821.8,1002.5z"/>
		<path fill="#999999" d="M-1714.1,1006.5c-19.7-3.1-28.6,10.3-28.6,38v22.8c5.1,0.6,10.9,1.1,15.1,2.6v9.4h-45.7v-9.4
			c4.6-1.1,10.3-2,15.1-2.6v-62c-4.6-0.6-10.3-1.1-15.1-2v-9.4c8.9-1.1,20.8-2,30.6-1.1c0,5.7-0.6,13.4-2,20.3l0,0
			c3.7-12,12.6-24,31.7-22.3L-1714.1,1006.5z"/>
		<path fill="#999999" d="M-1665.9,1079.9c-12,0-20.3-1.1-29.7-3.1V964.5c-4.6-0.6-10.3-1.1-15.1-2v-9.4c8.9-1.1,20.3-2,30.6-1.1
			v41.7c0,5.1-0.6,12-1.1,16.6h0.6c4.6-12,15.1-19.1,28.6-19.1c20.3,0,31.7,14,31.7,40.5
			C-1620.2,1061.6-1637.3,1079.9-1665.9,1079.9z M-1655.6,1003.9c-15.7,0-23.4,18.3-23.4,32.8v28.6c4.6,1.1,9.4,2,15.1,2
			c16.6,0,27.1-10.3,27.1-34.8C-1636.7,1013.9-1643,1003.9-1655.6,1003.9z"/>
	</g>
	<g enable-background="new    ">
		<path fill="#999999" d="M-447.9,1080.5c-23.4,0-38.6-13.4-38.6-43.7c0-26,15.7-46.3,41.7-46.3c22.3,0,38.6,12,38.6,43.7
			C-406.2,1060.2-421.9,1080.5-447.9,1080.5z M-445.9,1003.9c-12.6,0-24.8,9.4-24.8,31.7c0,20.3,8.3,31.7,24,31.7
			c12.6,0,24-10.3,24-31.7C-421.9,1015.3-430.2,1003.9-445.9,1003.9z"/>
		<path fill="#999999" d="M-354.3,1079.9c-12,0-20.3-1.1-29.7-3.1V964.5c-4.6-0.6-10.3-1.1-15.1-2v-9.4c8.9-1.1,20.3-2,30.6-1.1
			v41.7c0,5.1-0.6,12-1.1,16.6h0.6c4.6-12,15.1-19.1,28.6-19.1c20.3,0,31.7,14,31.7,40.5C-309.1,1061.6-326.3,1079.9-354.3,1079.9z
			 M-344.6,1003.9c-15.7,0-23.4,18.3-23.4,32.8v28.6c4.6,1.1,9.4,2,15.1,2c16.6,0,27.1-10.3,27.1-34.8
			C-325.7,1013.9-331.4,1003.9-344.6,1003.9z"/>
		<path fill="#999999" d="M-298.3,1123c-3.1,0-8.3-0.6-11.4-1.1l1.1-13.4c3.1,1.1,6.9,2,10.9,2c10.9,0,14-4.6,14-20.3v-84.8
			c-4.6-0.6-10.3-1.1-14.6-2v-9.4c8.3-1.1,20.3-2,29.7-1.1v95.7C-268,1111.6-275.4,1123-298.3,1123z M-275.4,975.4
			c-5.7,0-10.3-4.6-10.3-10.3s4.6-10.3,10.3-10.3c5.7,0,10.3,4.6,10.3,10.3C-265.5,970.8-269.7,975.4-275.4,975.4z"/>
		<path fill="#999999" d="M-173.5,1035.6h-56.3c-0.6,22.8,8.3,32.3,27.1,32.3c8.3,0,17.1-2,24.8-5.1l2.6,12
			c-8.9,3.1-19.1,5.7-29.7,5.7c-26,0-40.5-14-40.5-44.3c0-26,14.6-45.1,38.6-45.1s34.3,16.6,34.3,35.4
			C-172.9,1028.5-173.5,1031.6-173.5,1035.6z M-208.3,1002.5c-11.4,0-19.1,8.3-20.8,21.4h40.5
			C-188.6,1010.8-196.3,1002.5-208.3,1002.5z"/>
		<path fill="#999999" d="M-119,1079.9c-21.4,0-39.4-10.3-39.4-41.7c0-28,14-47.4,43.1-47.4c7.7,0,15.1,1.1,20.8,3.1v25.4h-9.4
			c-1.1-5.1-2-10.3-2.6-14c-3.1-0.6-6.9-1.1-11.4-1.1c-15.1,0-24,13.4-24,31.7c0,17.7,5.7,31.1,26,31.1c7.7,0,14.6-1.1,20.8-4.6
			l2.6,13.4C-98.7,1077.9-108.4,1079.9-119,1079.9z"/>
		<path fill="#999999" d="M-46.1,1079.9c-17.7,0-22.8-7.7-22.8-26v-49.4h-17.7v-12H-69v-28l15.7-4.6v32.3h24v12h-24v44.3
			c0,14,2.6,18.3,12,18.3c3.7,0,7.7-0.6,10.9-1.1l1.1,12.6C-34.1,1079.3-40.4,1079.9-46.1,1079.9z"/>
	</g>
	<g enable-background="new    ">
		<path fill="#999999" d="M481.6,1080.5c-23.4,0-38.6-13.4-38.6-43.7c0-26,15.7-46.3,41.7-46.3c22.3,0,38.6,12,38.6,43.7
			C523.6,1060.2,507.6,1080.5,481.6,1080.5z M483.6,1003.9c-12.6,0-24.8,9.4-24.8,31.7c0,20.3,8.3,31.7,24,31.7
			c12.6,0,24-10.3,24-31.7C507,1015.3,498.7,1003.9,483.6,1003.9z"/>
		<path fill="#999999" d="M574.7,1079.9c-12,0-20.3-1.1-29.7-3.1V964.5c-4.6-0.6-10.3-1.1-15.1-2v-9.4c8.9-1.1,20.3-2,30.6-1.1v41.7
			c0,5.1-0.6,12-1.1,16.6h0.6c4.6-12,15.1-19.1,28.6-19.1c20.3,0,31.7,14,31.7,40.5C620.4,1061.6,603.2,1079.9,574.7,1079.9z
			 M584.9,1003.9c-15.7,0-23.4,18.3-23.4,32.8v28.6c4.6,1.1,9.4,2,15.1,2c16.6,0,27.1-10.3,27.1-34.8
			C604.1,1013.9,597.5,1003.9,584.9,1003.9z"/>
		<path fill="#999999" d="M631.2,1123c-3.1,0-8.3-0.6-11.4-1.1l1.1-13.4c3.1,1.1,6.9,2,10.9,2c10.9,0,14-4.6,14-20.3v-84.8
			c-4.6-0.6-10.3-1.1-14.6-2v-9.4c8.3-1.1,20.3-2,29.7-1.1v95.7C660.9,1111.6,653.5,1123,631.2,1123z M653.5,975.4
			c-5.7,0-10.3-4.6-10.3-10.3s4.6-10.3,10.3-10.3s10.3,4.6,10.3,10.3C663.5,970.8,659.2,975.4,653.5,975.4z"/>
		<path fill="#999999" d="M755.4,1035.6h-56.5c-0.6,22.8,8.3,32.3,27.1,32.3c8.3,0,17.1-2,24.8-5.1l2.6,12
			c-8.9,3.1-19.1,5.7-29.7,5.7c-26,0-40.5-14-40.5-44.3c0-26,14.6-45.1,38.6-45.1c24,0,34.3,16.6,34.3,35.4
			C756,1028.5,756,1031.6,755.4,1035.6z M721.2,1002.5c-11.4,0-19.1,8.3-20.8,21.4h40.5C740.9,1010.8,733.2,1002.5,721.2,1002.5z"/>
		<path fill="#999999" d="M810.5,1079.9c-21.4,0-39.4-10.3-39.4-41.7c0-28,14-47.4,43.1-47.4c7.7,0,15.1,1.1,20.8,3.1v25.4h-9.4
			c-1.1-5.1-2-10.3-2.6-14c-3.1-0.6-6.9-1.1-11.4-1.1c-15.1,0-24,13.4-24,31.7c0,17.7,5.7,31.1,26,31.1c7.7,0,14.6-1.1,20.8-4.6
			l2.6,13.4C830.2,1077.9,820.5,1079.9,810.5,1079.9z"/>
		<path fill="#999999" d="M883.4,1079.9c-17.7,0-22.8-7.7-22.8-26v-49.4h-17.7v-12h17.7v-28l15.7-4.6v32.3h24v12h-24.3v44.3
			c0,14,2.6,18.3,12,18.3c3.7,0,7.7-0.6,10.9-1.1l1.1,12.6C895.4,1079.3,888.5,1079.9,883.4,1079.9z"/>
	</g>
	<line fill="none" stroke="#999999" stroke-width="5" x1="-2376.9" y1="856.3" x2="-1170.4" y2="856.3"/>
	<line fill="none" stroke="#999999" stroke-width="5" x1="-536.7" y1="856.3" x2="57.2" y2="856.3"/>
	<line fill="none" stroke="#999999" stroke-width="5" x1="390.5" y1="856.3" x2="984.2" y2="856.3"/>
</g>
</svg>
