<?xml version="1.0" encoding="utf-8"?>
<!-- Generator: Adobe Illustrator 18.0.0, SVG Export Plug-In . SVG Version: 6.00 Build 0)  -->
<!DOCTYPE svg PUBLIC "-//W3C//DTD SVG 1.1//EN" "http://www.w3.org/Graphics/SVG/1.1/DTD/svg11.dtd">
<svg version="1.1" id="Layer_1" xmlns="http://www.w3.org/2000/svg" xmlns:xlink="http://www.w3.org/1999/xlink" x="0px" y="0px"
	 viewBox="-64 151 739 538" enable-background="new -64 151 739 538" xml:space="preserve">
<g>
	<rect x="35.6" y="269.2" fill="none" stroke="#999999" stroke-width="1.3" width="319.9" height="319.9"/>
	<line fill="none" stroke="#999999" stroke-width="1.3" x1="35.6" y1="535.9" x2="355.5" y2="535.9"/>
	<line fill="none" stroke="#999999" stroke-width="1.3" x1="35.6" y1="482.4" x2="355.5" y2="482.4"/>
	<line fill="none" stroke="#999999" stroke-width="1.3" x1="35.6" y1="429.1" x2="355.5" y2="429.1"/>
	<line fill="none" stroke="#999999" stroke-width="1.3" x1="35.6" y1="375.9" x2="355.5" y2="375.9"/>
	<line fill="none" stroke="#999999" stroke-width="1.3" x1="35.6" y1="322.4" x2="355.5" y2="322.4"/>
	<line fill="none" stroke="#999999" stroke-width="1.3" x1="302.1" y1="269.2" x2="302.1" y2="589.1"/>
	<line fill="none" stroke="#999999" stroke-width="1.3" x1="248.9" y1="269.2" x2="248.9" y2="589.1"/>
	<line fill="none" stroke="#999999" stroke-width="1.3" x1="195.6" y1="269.2" x2="195.6" y2="589.1"/>
	<line fill="none" stroke="#999999" stroke-width="1.3" x1="142.2" y1="269.2" x2="142.2" y2="589.1"/>
	<line fill="none" stroke="#999999" stroke-width="1.3" x1="89" y1="269.2" x2="89" y2="589.1"/>
</g>
<text transform="matrix(1 0 0 1 32.2793 192.2323)" font-family="'TheSerif-HP5Plain'" font-size="25.8187">x</text>
<text transform="matrix(1 0 0 1 -49.6016 273.0341)" font-family="'TheSerif-HP5Plain'" font-size="25.8187">y</text>
<text transform="matrix(1 0 0 1 32.7568 236.2186)" font-family="'TheSerif-HP5Plain'" font-size="25.8187">0</text>
<text transform="matrix(1 0 0 1 46.957 236.2186)" font-family="'TheSerif-HP5Plain'" font-size="25.8187" letter-spacing="31"> </text>
<text transform="matrix(1 0 0 1 84.3945 236.2186)" font-family="'TheSerif-HP5Plain'" font-size="25.8187">1</text>
<text transform="matrix(1 0 0 1 98.5947 236.2186)" font-family="'TheSerif-HP5Plain'" font-size="25.8187" letter-spacing="31"> </text>
<text transform="matrix(1 0 0 1 136.0322 236.2186)" font-family="'TheSerif-HP5Plain'" font-size="25.8187">2</text>
<text transform="matrix(1 0 0 1 150.2314 236.2186)" font-family="'TheSerif-HP5Plain'" font-size="25.8187" letter-spacing="31"> </text>
<text transform="matrix(1 0 0 1 187.6689 236.2186)" font-family="'TheSerif-HP5Plain'" font-size="25.8187">3</text>
<text transform="matrix(1 0 0 1 201.8691 236.2186)" font-family="'TheSerif-HP5Plain'" font-size="25.8187" letter-spacing="31"> </text>
<text transform="matrix(1 0 0 1 239.3066 236.2186)" font-family="'TheSerif-HP5Plain'" font-size="25.8187">4</text>
<text transform="matrix(1 0 0 1 253.5068 236.2186)" font-family="'TheSerif-HP5Plain'" font-size="25.8187" letter-spacing="31"> </text>
<text transform="matrix(1 0 0 1 290.9443 236.2186)" font-family="'TheSerif-HP5Plain'" font-size="25.8187">5</text>
<text transform="matrix(1 0 0 1 305.1445 236.2186)" font-family="'TheSerif-HP5Plain'" font-size="25.8187" letter-spacing="31"> </text>
<text transform="matrix(1 0 0 1 342.582 236.2186)" font-family="'TheSerif-HP5Plain'" font-size="25.8187">6</text>
<circle fill="#808080" cx="89" cy="375.9" r="8.3"/>
<circle fill="#808080" cx="301.3" cy="375.9" r="8.3"/>
<text transform="matrix(1 0 0 1 -7.4053 280.6844)" font-family="'TheSerif-HP5Plain'" font-size="25.8187">0</text>
<text transform="matrix(1 0 0 1 -7.4053 332.3212)" font-family="'TheSerif-HP5Plain'" font-size="25.8187">1</text>
<text transform="matrix(1 0 0 1 -7.4053 383.9589)" font-family="'TheSerif-HP5Plain'" font-size="25.8187">2</text>
<text transform="matrix(1 0 0 1 -7.4053 435.5966)" font-family="'TheSerif-HP5Plain'" font-size="25.8187">3</text>
<text transform="matrix(1 0 0 1 -7.4053 487.2343)" font-family="'TheSerif-HP5Plain'" font-size="25.8187">4</text>
<text transform="matrix(1 0 0 1 -7.4053 538.871)" font-family="'TheSerif-HP5Plain'" font-size="25.8187">5</text>
<text transform="matrix(1 0 0 1 -7.4053 590.5096)" font-family="'TheSerif-HP5Plain'" font-size="25.8187">6</text>
<line fill="none" stroke="#000000" stroke-width="1.3" x1="36.9" y1="269.2" x2="26.7" y2="269.2"/>
<line fill="none" stroke="#000000" stroke-width="1.3" x1="36.9" y1="322.7" x2="26.7" y2="322.7"/>
<line fill="none" stroke="#000000" stroke-width="1.3" x1="36.9" y1="375.8" x2="26.7" y2="375.8"/>
<line fill="none" stroke="#000000" stroke-width="1.3" x1="36.9" y1="429" x2="26.7" y2="429"/>
<line fill="none" stroke="#000000" stroke-width="1.3" x1="36.9" y1="482.5" x2="26.7" y2="482.5"/>
<line fill="none" stroke="#000000" stroke-width="1.3" x1="36.9" y1="536.4" x2="26.7" y2="536.4"/>
<line fill="none" stroke="#000000" stroke-width="1.3" x1="36.9" y1="588.6" x2="26.7" y2="588.6"/>
<line fill="none" stroke="#000000" stroke-width="1.3" x1="355.1" y1="269.1" x2="355.1" y2="258.9"/>
<line fill="none" stroke="#000000" stroke-width="1.3" x1="301.4" y1="269.1" x2="301.4" y2="258.9"/>
<line fill="none" stroke="#000000" stroke-width="1.3" x1="248.3" y1="269.1" x2="248.3" y2="258.9"/>
<line fill="none" stroke="#000000" stroke-width="1.3" x1="195.1" y1="269.1" x2="195.1" y2="258.9"/>
<line fill="none" stroke="#000000" stroke-width="1.3" x1="141.8" y1="269.1" x2="141.8" y2="258.9"/>
<line fill="none" stroke="#000000" stroke-width="1.3" x1="87.7" y1="269.1" x2="87.7" y2="258.9"/>
<line fill="none" stroke="#000000" stroke-width="1.3" x1="36.1" y1="269.1" x2="36.1" y2="258.9"/>
<polyline fill="#FFFFFF" stroke="#000000" stroke-width="1.3" points="-36.4,366.9 -42.7,373.2 -49,366.9 "/>
<line fill="none" stroke="#000000" stroke-width="1.3" x1="-42.7" y1="373.2" x2="-42.7" y2="298.3"/>
<polyline fill="#FFFFFF" stroke="#000000" stroke-width="1.3" points="133.4,178.1 139.8,184.4 133.4,190.7 "/>
<line fill="none" stroke="#000000" stroke-width="1.3" x1="141.2" y1="184.4" x2="66.3" y2="184.4"/>
<text transform="matrix(1 0 0 1 409.9971 432.5389)" font-family="'TheSerif-HP5Plain'" font-size="25.8187">line ( x1 , y1 , x2 , y2 ) ;</text>
<text transform="matrix(1 0 0 1 409.9971 487.621)" fill="#999999" font-family="'TheSerif-HP5Plain'" font-size="20.0812" letter-spacing="45"> </text>
<text transform="matrix(1 0 0 1 461.6338 487.621)" fill="#999999" font-family="'TheSerif-HP5Plain'" font-size="20.0812">   Point A    Point B</text>
<text transform="matrix(1 0 0 1 94.4346 360.8212)" font-family="'TheSerif-HP5Plain'" font-size="25.8187">A ( 1 , 2 )</text>
<text transform="matrix(1 0 0 1 306.7227 360.8212)" font-family="'TheSerif-HP5Plain'" font-size="25.8187">B ( 5 , 2 )</text>
<line fill="none" stroke="#999999" stroke-width="5" x1="474.5" y1="451.4" x2="538.4" y2="451.4"/>
<line fill="none" stroke="#999999" stroke-width="5" x1="553.4" y1="451.4" x2="625.6" y2="451.4"/>
<line fill="none" stroke="#000000" stroke-width="2" x1="87.3" y1="376.8" x2="302.1" y2="376.8"/>
<text transform="matrix(1 0 0 1 43.7793 659.1718)" fill="#808080" font-family="'TheSerif-HP5Plain'" font-size="25.8187">Example:  </text>
<text transform="matrix(1 0 0 1 163.5498 659.1718)" font-family="'TheSerif-HP5Plain'" font-size="25.8187">line ( 1 , 2 , 5 , 2 ) ;</text>
</svg>
