<?xml version="1.0" encoding="utf-8"?>
<!-- Generator: Adobe Illustrator 18.0.0, SVG Export Plug-In . SVG Version: 6.00 Build 0)  -->
<!DOCTYPE svg PUBLIC "-//W3C//DTD SVG 1.1//EN" "http://www.w3.org/Graphics/SVG/1.1/DTD/svg11.dtd">
<svg version="1.1" id="Layer_1" xmlns="http://www.w3.org/2000/svg" xmlns:xlink="http://www.w3.org/1999/xlink" x="0px" y="0px"
	 viewBox="0 0 612 792" enable-background="new 0 0 612 792" xml:space="preserve">
<line fill="none" stroke="#000000" x1="343.4" y1="130.9" x2="343.4" y2="388.8"/>
<circle cx="135" cy="257.3" r="11.2"/>
<rect x="497.3" y="173.4" fill="#FFFFFF" stroke="#000000" width="279.4" height="171.2"/>
<ellipse fill="#FFFFFF" stroke="#000000" cx="1003.4" cy="258.1" rx="89.9" ry="127.2"/>
<g enable-background="new    ">
	<path d="M102.3,482.9c-1,0-1.8,0-2.4-0.2v6c1,0,2.2,0.2,3,0.4v1.8h-9.4v-1.8c1-0.2,2-0.4,3-0.4v-18.9c-1,0-2.2-0.2-3-0.4v-1.8h3
		c1,0,4-0.2,6.2-0.2c6.4,0,9,3.4,9,7.4C111.6,479.3,108.1,482.9,102.3,482.9z M102.3,469.7c-1,0-1.8,0-2.6,0v10.2
		c0.6,0.2,1.6,0.2,2.8,0.2c4,0,5.8-2.4,5.8-5.2C108.2,472.3,106.9,469.7,102.3,469.7z"/>
	<path d="M121.8,491.3c-4.8,0-7.8-2.8-7.8-8.8c0-5.2,3.2-9.4,8.6-9.4c4.4,0,7.8,2.4,7.8,8.8C130.2,487.3,127,491.3,121.8,491.3z
		 M122.2,475.9c-2.6,0-5,2-5,6.4c0,4,1.6,6.4,5,6.4c2.6,0,4.8-2,4.8-6.4C127,478.1,125.2,475.9,122.2,475.9z"/>
	<path d="M132.8,490.9v-1.8c1-0.2,2-0.4,3-0.4v-12.6c-0.8-0.2-2-0.2-3-0.4v-1.8c1.8-0.2,4.2-0.4,6.2-0.2v15.1c1,0,2,0.2,3,0.4v1.8
		h-9.2V490.9z M137.3,470.1c-1.2,0-2.2-0.8-2.2-2s1-2,2.2-2s2,1,2,2S138.5,470.1,137.3,470.1z"/>
	<path d="M157.7,490.9v-11.2c0-2.4-0.6-4-3-4c-2.8,0-5,3-5,6.8v6c1,0,2,0.2,2.8,0.4v1.8h-9v-1.8c1-0.2,2-0.4,3-0.4v-12.6
		c-0.8-0.2-2-0.2-3-0.4v-1.8c1.8-0.2,4.2-0.4,6.2-0.2c0,1,0,2.6-0.2,3.6l0,0c1-2.4,3.2-4,6.2-4c4,0,5.2,2.4,5.2,5.6v9.8
		c1,0,2,0.2,3,0.4v1.8h-6.2V490.9z"/>
	<path d="M172.2,491.3c-3.6,0-4.6-1.4-4.6-5.2v-10h-3.6v-2.4h3.6v-5.8l3.2-0.8v6.6h4.8v2.4h-4.8v9c0,2.8,0.6,3.6,2.4,3.6
		c0.8,0,1.6-0.2,2.2-0.2l0.4,2.6C174.8,491.1,173.4,491.3,172.2,491.3z"/>
</g>
<text transform="matrix(1 0 0 1 177.3449 490.9619)" font-family="'TheSerif-HP5Plain'" font-size="35.0372" letter-spacing="41"> </text>
<text transform="matrix(1 0 0 1 232.6284 490.9619)" font-family="'TheSerif-HP5Plain'" font-size="35.0372" letter-spacing="59"> </text>
<g enable-background="new    ">
	<path d="M311.4,490.9v-1.8c1-0.2,2-0.4,3-0.4v-18.9c-1,0-2.2-0.2-3-0.4v-1.8h9.4v1.8c-1,0.2-2,0.4-3,0.4v18.7h6.2
		c0.2-1,0.4-2.2,0.6-3.4h2.2v6h-15.3V490.9z"/>
	<path d="M328.1,490.9v-1.8c1-0.2,2-0.4,3-0.4v-12.6c-0.8-0.2-2-0.2-3-0.4v-1.8c1.8-0.2,4.2-0.4,6.2-0.2v15.1c1,0,2,0.2,3,0.4v1.8
		h-9.2V490.9z M332.7,470.1c-1.2,0-2.2-0.8-2.2-2s1-2,2.2-2c1.2,0,2,1,2,2S333.9,470.1,332.7,470.1z"/>
	<path d="M353,490.9v-11.2c0-2.4-0.6-4-3-4c-2.8,0-5,3-5,6.8v6c1,0,2,0.2,2.8,0.4v1.8h-9v-1.8c1-0.2,2-0.4,3-0.4v-12.6
		c-0.8-0.2-2-0.2-3-0.4v-1.8c1.8-0.2,4.2-0.4,6.2-0.2c0,1,0,2.6-0.2,3.6l0,0c1-2.4,3.2-4,6.2-4c4,0,5.2,2.4,5.2,5.6v9.8
		c1,0,2,0.2,3,0.4v1.8H353V490.9z"/>
	<path d="M375.7,482.3h-11.4c-0.2,4.6,1.8,6.6,5.6,6.6c1.6,0,3.4-0.4,5-1l0.4,2.4c-1.8,0.8-3.8,1-6,1c-5.4,0-8.2-2.8-8.2-9
		c0-5.2,3-9.2,7.8-9.2c4.8,0,7,3.2,7,7.2C375.7,480.9,375.7,481.5,375.7,482.3z M368.8,475.7c-2.2,0-4,1.6-4.2,4.4h8.2
		C372.7,477.3,371.1,475.7,368.8,475.7z"/>
</g>
<text transform="matrix(1 0 0 1 377.4524 490.9619)" font-family="'TheSerif-HP5Plain'" font-size="35.0372" letter-spacing="51"> </text>
<text transform="matrix(1 0 0 1 442.8546 490.9619)" font-family="'TheSerif-HP5Plain'" font-size="35.0372" letter-spacing="59"> </text>
<g enable-background="new    ">
	<path d="M581.8,490.9l-6.4-10.6h-1.8v8.2c0.8,0,1.8,0.2,2.6,0.4v1.8h-8.8v-1.8c1-0.2,2-0.4,3-0.4v-18.9c-1,0-2.2-0.2-3-0.4v-1.8
		h2.8c1,0,4-0.2,6.6-0.2c5,0,8.4,1.6,8.4,6.4c0,3.6-2.6,6-6.4,6.4c0.6,0.6,1,1.4,1.6,2.2l4,6.6c0.8,0.2,1.8,0.2,2.8,0.4v2h-5.4
		V490.9z M576,469.7c-0.8,0-1.8,0-2.4,0.2v8.2h2.8c3.4,0,5.4-1.6,5.4-4.2C581.6,470.9,579.8,469.7,576,469.7z"/>
	<path d="M603.7,482.3h-11.4c-0.2,4.6,1.8,6.6,5.6,6.6c1.6,0,3.4-0.4,5-1l0.4,2.4c-1.8,0.8-3.8,1-6,1c-5.4,0-8.2-2.8-8.2-9
		c0-5.2,3-9.2,7.8-9.2s7,3.2,7,7.2C603.7,480.9,603.7,481.5,603.7,482.3z M596.8,475.7c-2.2,0-4,1.6-4.2,4.4h8.2
		C600.8,477.3,599.2,475.7,596.8,475.7z"/>
	<path d="M614.7,491.3c-4.4,0-8-2-8-8.4c0-5.6,2.8-9.6,8.6-9.6c1.4,0,3,0.2,4.2,0.6v5h-2c-0.2-1-0.4-2-0.4-2.8
		c-0.6-0.2-1.4-0.2-2.4-0.2c-3.2,0-4.8,2.6-4.8,6.4c0,3.6,1.2,6.2,5.2,6.2c1.6,0,3-0.4,4.2-0.8l0.6,2.6
		C618.7,490.9,616.9,491.3,614.7,491.3z"/>
	<path d="M629.5,491.3c-3.6,0-4.6-1.4-4.6-5.2v-10h-3.6v-2.4h3.6v-5.8l3.2-0.8v6.6h4.8v2.4h-4.8v9c0,2.8,0.6,3.6,2.4,3.6
		c0.8,0,1.6-0.2,2.2-0.2l0.4,2.6C631.9,491.1,630.5,491.3,629.5,491.3z"/>
	<path d="M646.2,490.9c0-1.2,0-2.4,0.2-3.4l0,0c-0.8,2.2-3,3.8-6,3.8c-3,0-4.8-1.8-4.8-4.6c0-3.8,4-6,10.4-6v-1.4
		c0-2.4-0.8-3.8-3.6-3.8c-1,0-2.2,0.2-3.2,0.4c0,0.8-0.2,1.8-0.4,2.8h-2v-4.8c1.8-0.6,3.8-1,6-1c5.2,0,6.6,2.4,6.6,5.8v9.4
		c0.8,0.2,2,0.2,3,0.4v1.8C650.6,490.9,648.2,491.1,646.2,490.9z M646,482.9c-5.4,0-7.4,1.4-7.4,3.4c0,1.6,1,2.6,2.6,2.6
		c2.8,0,4.8-2.8,4.8-5.6L646,482.9L646,482.9z"/>
	<path d="M667.9,490.9v-11.2c0-2.4-0.6-4-3-4c-2.8,0-5,3-5,6.8v6c1,0,2,0.2,2.8,0.4v1.8h-9v-1.8c1-0.2,2-0.4,3-0.4v-12.6
		c-0.8-0.2-2-0.2-3-0.4v-1.8c1.8-0.2,4.2-0.4,6.2-0.2c0,1,0,2.6-0.2,3.6l0,0c1-2.4,3.2-4,6.2-4c4,0,5.2,2.4,5.2,5.6v9.8
		c1,0,2,0.2,3,0.4v1.8h-6.2V490.9z"/>
	<path d="M683.3,499.8c-4.4,0-7.4-1.8-7.4-5.2c0-2,1.4-3.8,3-4.6c-1-0.4-1.8-1.4-1.8-2.6c0-1.2,0.8-2.4,2-3c-1.6-1-2.6-2.6-2.6-4.8
		c0-3.6,2.6-6.6,7.4-6.6c1,0,1.6,0.2,2.4,0.4h6v2.4h-2.8c0.8,0.8,1.4,1.8,1.4,3.2c0,3.6-2.4,6.4-7.4,6.4c-0.8,0-1.2,0-1.8-0.2
		c-0.8,0.4-1.2,1-1.2,1.4c0,1,0.8,1.4,3,1.4l3.2,0.2c3.8,0.2,5.8,1.8,5.8,5C692.4,497,688.9,499.8,683.3,499.8z M685.7,490.9
		l-3.4-0.2c-0.4,0-0.8,0-1,0c-1.4,1-2.2,2.2-2.2,3.4c0,2,2,3.4,4.8,3.4c3.6,0,5.6-1.6,5.6-3.8C689.3,492.1,688.3,490.9,685.7,490.9z
		 M683.9,475.5c-2.6,0-4.2,1.6-4.2,4s1.4,3.8,4,3.8c2.4,0,4-1.4,4-3.8S686.3,475.5,683.9,475.5z"/>
	<path d="M694.2,490.9v-1.8c0.8-0.2,2-0.4,3-0.4v-20.7c-0.8-0.2-2-0.2-3-0.4v-1.8c1.8-0.2,4.2-0.4,6.2-0.2v23.3c1,0,2,0.2,3,0.4v1.8
		h-9.2V490.9z"/>
	<path d="M719.8,482.3h-11.4c-0.2,4.6,1.8,6.6,5.6,6.6c1.6,0,3.4-0.4,5-1l0.4,2.4c-1.8,0.8-3.8,1-6,1c-5.4,0-8.2-2.8-8.2-9
		c0-5.2,3-9.2,7.8-9.2s7,3.2,7,7.2C719.8,480.9,719.8,481.5,719.8,482.3z M712.8,475.7c-2.2,0-4,1.6-4.2,4.4h8.2
		C716.8,477.3,715.2,475.7,712.8,475.7z"/>
</g>
<text transform="matrix(1 0 0 1 721.6044 490.9619)" font-family="'TheSerif-HP5Plain'" font-size="35.0372"> </text>
<text transform="matrix(1 0 0 1 723.1531 490.9619)" font-family="'TheSerif-HP5Plain'" font-size="35.0372"> </text>
<text transform="matrix(1 0 0 1 730.748 490.9619)" font-family="'TheSerif-HP5Plain'" font-size="35.0372" letter-spacing="51"> </text>
<text transform="matrix(1 0 0 1 793.2335 490.9619)" font-family="'TheSerif-HP5Plain'" font-size="35.0372" letter-spacing="59">  </text>
<g enable-background="new    ">
	<path d="M957.3,490.9v-1.8c1-0.2,2-0.4,3-0.4v-18.9c-1,0-2.2-0.2-3-0.4v-1.8h15.3v5.4h-2.2c-0.2-1-0.4-2.2-0.4-3h-6.6v7.8h5
		c0.2-0.8,0.2-1.6,0.4-2.4h2v7.2h-2c-0.2-0.8-0.4-1.6-0.4-2.4h-5v8.4h6.4c0.2-1,0.2-2,0.4-3h2.2v5.6h-15.1V490.9z"/>
	<path d="M975.5,490.9v-1.8c0.8-0.2,2-0.4,3-0.4v-20.7c-0.8-0.2-2-0.2-3-0.4v-1.8c1.8-0.2,4.2-0.4,6.2-0.2v23.3c1,0,2,0.2,3,0.4v1.8
		h-9.2V490.9z"/>
	<path d="M985.8,490.9v-1.8c0.8-0.2,2-0.4,3-0.4v-20.7c-0.8-0.2-2-0.2-3-0.4v-1.8c1.8-0.2,4.2-0.4,6.2-0.2v23.3c1,0,2,0.2,3,0.4v1.8
		h-9.2V490.9z"/>
	<path d="M996.6,490.9v-1.8c1-0.2,2-0.4,3-0.4v-12.6c-0.8-0.2-2-0.2-3-0.4v-1.8c1.8-0.2,4.2-0.4,6.2-0.2v15.1c1,0,2,0.2,3,0.4v1.8
		h-9.2V490.9z M1001.2,470.1c-1.2,0-2.2-0.8-2.2-2s1-2,2.2-2s2,1,2,2S1002.4,470.1,1001.2,470.1z"/>
	<path d="M1015.5,491.3c-1.2,0-2,0-3-0.2v6.4c1,0,2.2,0.2,3,0.4v1.8h-9.2v-1.8c1-0.2,1.8-0.4,3-0.4v-21.3c-0.8-0.2-2-0.2-3-0.4v-1.8
		c1.8-0.2,4.2-0.4,6-0.2c0,1-0.2,2.6-0.2,3.6l0,0c1-2.4,3-4,5.8-4c4.2,0,6.4,2.8,6.4,8.2C1024.5,487.7,1021.1,491.3,1015.5,491.3z
		 M1017.3,475.9c-3.2,0-4.8,3.6-4.8,6.8v5.8c1,0.2,2,0.4,3.2,0.4c3.4,0,5.6-2,5.6-7C1021.3,477.9,1020.1,475.9,1017.3,475.9z"/>
	<path d="M1032.3,491.3c-1.4,0-3-0.2-4.2-0.4v-5h2c0.2,0.8,0.4,1.8,0.4,2.8c0.6,0.2,1.4,0.2,2,0.2c2.4,0,4-1,4-2.8
		c0-3.8-8.8-1.6-8.8-7.6c0-3,2.4-5.2,7-5.2c1.2,0,2.8,0.2,4,0.4v4.8h-2c-0.2-0.8-0.4-1.8-0.4-2.8c-0.6-0.2-1.4-0.2-2-0.2
		c-2.4,0-3.6,1-3.6,2.6c0,4,8.8,1.8,8.8,7.6C1039.7,488.9,1036.9,491.3,1032.3,491.3z"/>
	<path d="M1057.4,482.3H1046c-0.2,4.6,1.8,6.6,5.6,6.6c1.6,0,3.4-0.4,5-1l0.4,2.4c-1.8,0.8-3.8,1-6,1c-5.4,0-8.2-2.8-8.2-9
		c0-5.2,3-9.2,7.8-9.2c4.8,0,7,3.2,7,7.2C1057.6,480.9,1057.6,481.5,1057.4,482.3z M1050.4,475.7c-2.2,0-4,1.6-4.2,4.4h8.2
		C1054.4,477.3,1052.8,475.7,1050.4,475.7z"/>
</g>
</svg>
