<?xml version="1.0" encoding="utf-8"?>
<!-- Generator: Adobe Illustrator 18.0.0, SVG Export Plug-In . SVG Version: 6.00 Build 0)  -->
<!DOCTYPE svg PUBLIC "-//W3C//DTD SVG 1.1//EN" "http://www.w3.org/Graphics/SVG/1.1/DTD/svg11.dtd">
<svg version="1.1" id="Layer_1" xmlns="http://www.w3.org/2000/svg" xmlns:xlink="http://www.w3.org/1999/xlink" x="0px" y="0px"
	 viewBox="-50 156 675 525" enable-background="new -50 156 675 525" xml:space="preserve">
<g>
	<rect x="46.2" y="265.1" fill="none" stroke="#999999" stroke-width="1.3" width="319.9" height="319.9"/>
	<line fill="none" stroke="#999999" stroke-width="1.3" x1="46.2" y1="531.8" x2="366.1" y2="531.8"/>
	<line fill="none" stroke="#999999" stroke-width="1.3" x1="46.2" y1="478.3" x2="366.1" y2="478.3"/>
	<line fill="none" stroke="#999999" stroke-width="1.3" x1="46.2" y1="425.1" x2="366.1" y2="425.1"/>
	<line fill="none" stroke="#999999" stroke-width="1.3" x1="46.2" y1="371.9" x2="366.1" y2="371.9"/>
	<line fill="none" stroke="#999999" stroke-width="1.3" x1="46.2" y1="318.4" x2="366.1" y2="318.4"/>
	<line fill="none" stroke="#999999" stroke-width="1.3" x1="312.7" y1="265.1" x2="312.7" y2="585"/>
	<line fill="none" stroke="#999999" stroke-width="1.3" x1="259.5" y1="265.1" x2="259.5" y2="585"/>
	<line fill="none" stroke="#999999" stroke-width="1.3" x1="206.2" y1="265.1" x2="206.2" y2="585"/>
	<line fill="none" stroke="#999999" stroke-width="1.3" x1="152.8" y1="265.1" x2="152.8" y2="585"/>
	<line fill="none" stroke="#999999" stroke-width="1.3" x1="99.6" y1="265.1" x2="99.6" y2="585"/>
</g>
<text transform="matrix(1 0 0 1 42.8931 188.1675)" font-family="'TheSerif-HP5Plain'" font-size="25.8187">x</text>
<text transform="matrix(1 0 0 1 -38.9878 268.9702)" font-family="'TheSerif-HP5Plain'" font-size="25.8187">y</text>
<text transform="matrix(1 0 0 1 43.3706 232.1548)" font-family="'TheSerif-HP5Plain'" font-size="25.8187">0</text>
<text transform="matrix(1 0 0 1 57.5708 232.1548)" font-family="'TheSerif-HP5Plain'" font-size="25.8187" letter-spacing="31"> </text>
<text transform="matrix(1 0 0 1 95.0083 232.1548)" font-family="'TheSerif-HP5Plain'" font-size="25.8187">1</text>
<text transform="matrix(1 0 0 1 109.2085 232.1548)" font-family="'TheSerif-HP5Plain'" font-size="25.8187" letter-spacing="31"> </text>
<text transform="matrix(1 0 0 1 146.646 232.1548)" font-family="'TheSerif-HP5Plain'" font-size="25.8187">2</text>
<text transform="matrix(1 0 0 1 160.8462 232.1548)" font-family="'TheSerif-HP5Plain'" font-size="25.8187" letter-spacing="31"> </text>
<text transform="matrix(1 0 0 1 198.2837 232.1548)" font-family="'TheSerif-HP5Plain'" font-size="25.8187">3</text>
<text transform="matrix(1 0 0 1 212.4829 232.1548)" font-family="'TheSerif-HP5Plain'" font-size="25.8187" letter-spacing="31"> </text>
<text transform="matrix(1 0 0 1 249.9204 232.1548)" font-family="'TheSerif-HP5Plain'" font-size="25.8187">4</text>
<text transform="matrix(1 0 0 1 264.1206 232.1548)" font-family="'TheSerif-HP5Plain'" font-size="25.8187" letter-spacing="31"> </text>
<text transform="matrix(1 0 0 1 301.5581 232.1548)" font-family="'TheSerif-HP5Plain'" font-size="25.8187">5</text>
<text transform="matrix(1 0 0 1 315.7588 232.1548)" font-family="'TheSerif-HP5Plain'" font-size="25.8187" letter-spacing="31"> </text>
<text transform="matrix(1 0 0 1 353.1963 232.1548)" font-family="'TheSerif-HP5Plain'" font-size="25.8187">6</text>
<circle cx="259.5" cy="530.5" r="8.3"/>
<text transform="matrix(1 0 0 1 3.2085 276.6196)" font-family="'TheSerif-HP5Plain'" font-size="25.8187">0</text>
<text transform="matrix(1 0 0 1 3.2085 328.2573)" font-family="'TheSerif-HP5Plain'" font-size="25.8187">1</text>
<text transform="matrix(1 0 0 1 3.2085 379.895)" font-family="'TheSerif-HP5Plain'" font-size="25.8187">2</text>
<text transform="matrix(1 0 0 1 3.2085 431.5332)" font-family="'TheSerif-HP5Plain'" font-size="25.8187">3</text>
<text transform="matrix(1 0 0 1 3.2085 483.1699)" font-family="'TheSerif-HP5Plain'" font-size="25.8187">4</text>
<text transform="matrix(1 0 0 1 3.2085 534.8086)" font-family="'TheSerif-HP5Plain'" font-size="25.8187">5</text>
<text transform="matrix(1 0 0 1 3.2085 586.4453)" font-family="'TheSerif-HP5Plain'" font-size="25.8187">6</text>
<line fill="none" stroke="#000000" stroke-width="1.3" x1="47.5" y1="265.1" x2="37.3" y2="265.1"/>
<line fill="none" stroke="#000000" stroke-width="1.3" x1="47.5" y1="318.6" x2="37.3" y2="318.6"/>
<line fill="none" stroke="#000000" stroke-width="1.3" x1="47.5" y1="371.7" x2="37.3" y2="371.7"/>
<line fill="none" stroke="#000000" stroke-width="1.3" x1="47.5" y1="424.9" x2="37.3" y2="424.9"/>
<line fill="none" stroke="#000000" stroke-width="1.3" x1="47.5" y1="478.4" x2="37.3" y2="478.4"/>
<line fill="none" stroke="#000000" stroke-width="1.3" x1="47.5" y1="532.4" x2="37.3" y2="532.4"/>
<line fill="none" stroke="#000000" stroke-width="1.3" x1="47.5" y1="584.6" x2="37.3" y2="584.6"/>
<line fill="none" stroke="#000000" stroke-width="1.3" x1="365.7" y1="265" x2="365.7" y2="254.8"/>
<line fill="none" stroke="#000000" stroke-width="1.3" x1="312" y1="265" x2="312" y2="254.8"/>
<line fill="none" stroke="#000000" stroke-width="1.3" x1="259" y1="265" x2="259" y2="254.8"/>
<line fill="none" stroke="#000000" stroke-width="1.3" x1="205.7" y1="265" x2="205.7" y2="254.8"/>
<line fill="none" stroke="#000000" stroke-width="1.3" x1="152.4" y1="265" x2="152.4" y2="254.8"/>
<line fill="none" stroke="#000000" stroke-width="1.3" x1="98.3" y1="265" x2="98.3" y2="254.8"/>
<line fill="none" stroke="#000000" stroke-width="1.3" x1="46.7" y1="265" x2="46.7" y2="254.8"/>
<polyline fill="#FFFFFF" stroke="#000000" stroke-width="1.3" points="-25.8,362.8 -32.1,369.1 -38.4,362.8 "/>
<line fill="none" stroke="#000000" stroke-width="1.3" x1="-32.1" y1="369.1" x2="-32.1" y2="294.3"/>
<polyline fill="#FFFFFF" stroke="#000000" stroke-width="1.3" points="144.1,174.1 150.4,180.4 144.1,186.7 "/>
<line fill="none" stroke="#000000" stroke-width="1.3" x1="151.8" y1="180.4" x2="76.9" y2="180.4"/>
<text transform="matrix(1 0 0 1 449.2998 431.3457)" font-family="'TheSerif-HP5Plain'" font-size="25.8187">point ( x , y ) ;</text>
<text transform="matrix(1 0 0 1 102.1802 656.541)" fill="#808080" font-family="'TheSerif-HP5Plain'" font-size="25.8187">Example:  </text>
<text transform="matrix(1 0 0 1 221.9507 656.541)" font-family="'TheSerif-HP5Plain'" font-size="25.8187">A ( 4 , 5 ) ;</text>
<text transform="matrix(1 0 0 1 284.3462 537.4883)" font-family="'TheSerif-HP5Plain'" font-size="25.8187">A ( 4 , 5 )</text>
</svg>
