<?xml version="1.0" encoding="utf-8"?>
<!-- Generator: Adobe Illustrator 18.0.0, SVG Export Plug-In . SVG Version: 6.00 Build 0)  -->
<!DOCTYPE svg PUBLIC "-//W3C//DTD SVG 1.1//EN" "http://www.w3.org/Graphics/SVG/1.1/DTD/svg11.dtd">
<svg version="1.1" id="Layer_1" xmlns="http://www.w3.org/2000/svg" xmlns:xlink="http://www.w3.org/1999/xlink" x="0px" y="0px"
	 viewBox="0 0 215 72" enable-background="new 0 0 215 72" xml:space="preserve">
<g>
	<rect x="75.7" y="14.2" fill="none" stroke="#999999" stroke-width="1.3" width="41.4" height="41.4"/>
	<line fill="none" stroke="#999999" stroke-width="1.3" x1="75.7" y1="48.6" x2="117.1" y2="48.6"/>
	<line fill="none" stroke="#999999" stroke-width="1.3" x1="75.7" y1="41.7" x2="117.1" y2="41.7"/>
	<line fill="none" stroke="#999999" stroke-width="1.3" x1="75.7" y1="34.8" x2="117.1" y2="34.8"/>
	<line fill="none" stroke="#999999" stroke-width="1.3" x1="75.7" y1="27.9" x2="117.1" y2="27.9"/>
	<line fill="none" stroke="#999999" stroke-width="1.3" x1="75.7" y1="21" x2="117.1" y2="21"/>
	<line fill="none" stroke="#999999" stroke-width="1.3" x1="110.2" y1="14.2" x2="110.2" y2="55.5"/>
	<line fill="none" stroke="#999999" stroke-width="1.3" x1="103.3" y1="14.2" x2="103.3" y2="55.5"/>
	<line fill="none" stroke="#999999" stroke-width="1.3" x1="96.4" y1="14.2" x2="96.4" y2="55.5"/>
	<line fill="none" stroke="#999999" stroke-width="1.3" x1="89.5" y1="14.2" x2="89.5" y2="55.5"/>
	<line fill="none" stroke="#999999" stroke-width="1.3" x1="82.6" y1="14.2" x2="82.6" y2="55.5"/>
</g>
<text transform="matrix(1 0 0 1 75.2842 4.2001)" font-family="'TheSerif-HP5Plain'" font-size="3.3374">x</text>
<text transform="matrix(1 0 0 1 64.7002 14.6456)" font-family="'TheSerif-HP5Plain'" font-size="3.3374">y</text>
<text transform="matrix(1 0 0 1 75.3461 9.8866)" font-family="'TheSerif-HP5Plain'" font-size="3.3374">0</text>
<text transform="matrix(1 0 0 1 77.1811 9.8866)" font-family="'TheSerif-HP5Plain'" font-size="3.3374" letter-spacing="4"> </text>
<text transform="matrix(1 0 0 1 82.0204 9.8866)" font-family="'TheSerif-HP5Plain'" font-size="3.3374">1</text>
<text transform="matrix(1 0 0 1 83.8564 9.8866)" font-family="'TheSerif-HP5Plain'" font-size="3.3374" letter-spacing="4"> </text>
<text transform="matrix(1 0 0 1 88.6953 9.8866)" font-family="'TheSerif-HP5Plain'" font-size="3.3374">2</text>
<text transform="matrix(1 0 0 1 90.5312 9.8866)" font-family="'TheSerif-HP5Plain'" font-size="3.3374" letter-spacing="4"> </text>
<text transform="matrix(1 0 0 1 95.3701 9.8866)" font-family="'TheSerif-HP5Plain'" font-size="3.3374">3</text>
<text transform="matrix(1 0 0 1 97.2061 9.8866)" font-family="'TheSerif-HP5Plain'" font-size="3.3374" letter-spacing="4"> </text>
<text transform="matrix(1 0 0 1 102.045 9.8866)" font-family="'TheSerif-HP5Plain'" font-size="3.3374">4</text>
<text transform="matrix(1 0 0 1 103.8809 9.8866)" font-family="'TheSerif-HP5Plain'" font-size="3.3374" letter-spacing="4"> </text>
<text transform="matrix(1 0 0 1 108.7198 9.8866)" font-family="'TheSerif-HP5Plain'" font-size="3.3374">5</text>
<text transform="matrix(1 0 0 1 110.5557 9.8866)" font-family="'TheSerif-HP5Plain'" font-size="3.3374" letter-spacing="4"> </text>
<text transform="matrix(1 0 0 1 115.3947 9.8866)" font-family="'TheSerif-HP5Plain'" font-size="3.3374">6</text>
<circle fill="#808080" cx="96.5" cy="35.2" r="1.1"/>
<text transform="matrix(1 0 0 1 70.1536 15.634)" font-family="'TheSerif-HP5Plain'" font-size="3.3374">0</text>
<text transform="matrix(1 0 0 1 70.1536 22.3088)" font-family="'TheSerif-HP5Plain'" font-size="3.3374">1</text>
<text transform="matrix(1 0 0 1 70.1536 28.9837)" font-family="'TheSerif-HP5Plain'" font-size="3.3374">2</text>
<text transform="matrix(1 0 0 1 70.1536 35.659)" font-family="'TheSerif-HP5Plain'" font-size="3.3374">3</text>
<text transform="matrix(1 0 0 1 70.1536 42.3338)" font-family="'TheSerif-HP5Plain'" font-size="3.3374">4</text>
<text transform="matrix(1 0 0 1 70.1536 49.0087)" font-family="'TheSerif-HP5Plain'" font-size="3.3374">5</text>
<text transform="matrix(1 0 0 1 70.1536 55.6835)" font-family="'TheSerif-HP5Plain'" font-size="3.3374">6</text>
<line fill="none" stroke="#000000" stroke-width="1.3" x1="75.9" y1="14.2" x2="74.6" y2="14.2"/>
<line fill="none" stroke="#000000" stroke-width="1.3" x1="75.9" y1="21.1" x2="74.6" y2="21.1"/>
<line fill="none" stroke="#000000" stroke-width="1.3" x1="75.9" y1="27.9" x2="74.6" y2="27.9"/>
<line fill="none" stroke="#000000" stroke-width="1.3" x1="75.9" y1="34.8" x2="74.6" y2="34.8"/>
<line fill="none" stroke="#000000" stroke-width="1.3" x1="75.9" y1="41.7" x2="74.6" y2="41.7"/>
<line fill="none" stroke="#000000" stroke-width="1.3" x1="75.9" y1="48.7" x2="74.6" y2="48.7"/>
<line fill="none" stroke="#000000" stroke-width="1.3" x1="75.9" y1="55.4" x2="74.6" y2="55.4"/>
<line fill="none" stroke="#000000" stroke-width="1.3" x1="117" y1="14.1" x2="117" y2="12.8"/>
<line fill="none" stroke="#000000" stroke-width="1.3" x1="110.1" y1="14.1" x2="110.1" y2="12.8"/>
<line fill="none" stroke="#000000" stroke-width="1.3" x1="103.2" y1="14.1" x2="103.2" y2="12.8"/>
<line fill="none" stroke="#000000" stroke-width="1.3" x1="96.3" y1="14.1" x2="96.3" y2="12.8"/>
<line fill="none" stroke="#000000" stroke-width="1.3" x1="89.4" y1="14.1" x2="89.4" y2="12.8"/>
<line fill="none" stroke="#000000" stroke-width="1.3" x1="82.4" y1="14.1" x2="82.4" y2="12.8"/>
<line fill="none" stroke="#000000" stroke-width="1.3" x1="75.8" y1="14.1" x2="75.8" y2="12.8"/>
<polyline fill="#FFFFFF" stroke="#000000" stroke-width="1.3" points="66.4,26.8 65.6,27.6 64.8,26.8 "/>
<line fill="none" stroke="#000000" stroke-width="1.3" x1="65.6" y1="27.6" x2="65.6" y2="17.9"/>
<polyline fill="#FFFFFF" stroke="#000000" stroke-width="1.3" points="88.4,2.4 89.2,3.2 88.4,4 "/>
<line fill="none" stroke="#000000" stroke-width="1.3" x1="89.4" y1="3.2" x2="79.7" y2="3.2"/>
<text transform="matrix(1 0 0 1 127.8174 35.2638)" font-family="'TheSerif-HP5Plain'" font-size="3.3374">ellipseMode ( CENTER ) ;</text>
<text transform="matrix(1 0 0 1 127.8174 39.2684)" font-family="'TheSerif-HP5Plain'" font-size="3.3374">ellipse ( x , y , width , height ) ;</text>
<text transform="matrix(1 0 0 1 96.888 32.9462)" font-family="'TheSerif-HP5Plain'" font-size="3.3374">( 3 , 3 )</text>
<text transform="matrix(1 0 0 1 73.5087 64.8537)" fill="#808080" font-family="'TheSerif-HP5Plain'" font-size="3.3374">Example:  </text>
<text transform="matrix(1 0 0 1 88.9912 64.8537)" font-family="'TheSerif-HP5Plain'" font-size="3.3374">ellipseMode ( CENTER ) ;</text>
<text transform="matrix(1 0 0 1 73.5087 68.8593)" font-family="'TheSerif-HP5Plain'" font-size="3.3374" letter-spacing="5">  </text>
<text transform="matrix(1 0 0 1 88.9912 68.8592)" font-family="'TheSerif-HP5Plain'" font-size="3.3374">ellipse ( 3 , 3 , 4 , 6 ) ;</text>
<ellipse fill="none" stroke="#000000" stroke-width="2" cx="96.4" cy="34.8" rx="13.8" ry="20.7"/>
</svg>
