<?xml version="1.0" encoding="utf-8"?>
<!-- Generator: Adobe Illustrator 18.0.0, SVG Export Plug-In . SVG Version: 6.00 Build 0)  -->
<!DOCTYPE svg PUBLIC "-//W3C//DTD SVG 1.1//EN" "http://www.w3.org/Graphics/SVG/1.1/DTD/svg11.dtd">
<svg version="1.1" id="Layer_1" xmlns="http://www.w3.org/2000/svg" xmlns:xlink="http://www.w3.org/1999/xlink" x="0px" y="0px"
	 viewBox="36 365 565 128" enable-background="new 36 365 565 128" xml:space="preserve">
<g id="Layer_2" display="none">
	<rect x="256.3" y="351.3" display="inline" fill="#FBB03B" width="13.6" height="27"/>
	<rect x="398.9" y="408.1" display="inline" fill="#FBB03B" width="6.8" height="27"/>
	<rect x="201.6" y="351.3" display="inline" fill="#00FFFF" width="44.5" height="27"/>
	<rect x="146.1" y="351.3" display="inline" fill="#00FF00" width="44.5" height="27"/>
	<rect x="346.3" y="408.1" display="inline" fill="#00FFFF" width="44.5" height="27.4"/>
	<rect x="253.9" y="408.5" display="inline" fill="#00FF00" width="44.7" height="26.8"/>
	<rect x="63.6" y="407.7" display="inline" fill="#FFFF00" width="121" height="27.4"/>
	<rect x="63.6" y="351.5" display="inline" fill="#FFFF00" width="56.4" height="27"/>
	<text transform="matrix(1 0 0 1 64.5469 371.6157)" display="inline" font-family="'TheSansMono-W3Light'" font-size="22.95">line (1,0,4,5);</text>
</g>
<g id="Layer_1_1_">
	<text transform="matrix(0.8682 0 0 1 -300.6428 390.2808)" font-family="'TheSerif-HP5Plain'" font-size="99.1316">Draw a line from ( 1 , 0 ) to ( 4 , 5 ).</text>
	<text transform="matrix(1 0 0 1 -343.6721 515.2319)" fill="#999999" font-family="'TheSerif-HP5Plain'" font-size="64.5469">     </text>
	
		<text transform="matrix(1 0 0 1 -273.3889 515.2319)" fill="#999999" font-family="'TheSerif-HP5Plain'" font-size="64.5469" letter-spacing="41"> </text>
	<text transform="matrix(1 0 0 1 -214.5803 515.2319)" fill="#999999" font-family="'TheSerif-HP5Plain'" font-size="64.5469">     verb</text>
	
		<text transform="matrix(1 0 0 1 -14.1272 515.2319)" fill="#999999" font-family="'TheSerif-HP5Plain'" font-size="64.5469" letter-spacing="41"> </text>
	
		<text transform="matrix(1 0 0 1 43.6064 515.2319)" fill="#999999" font-family="'TheSerif-HP5Plain'" font-size="64.5469" letter-spacing="112">  </text>
	<text transform="matrix(1 0 0 1 301.7959 515.2319)" fill="#999999" font-family="'TheSerif-HP5Plain'" font-size="64.5469">       object</text>
	
		<text transform="matrix(1 0 0 1 575.0459 515.2319)" fill="#999999" font-family="'TheSerif-HP5Plain'" font-size="64.5469" letter-spacing="93"> </text>
	<text transform="matrix(1 0 0 1 689.0732 515.2319)" fill="#999999" font-family="'TheSerif-HP5Plain'" font-size="64.5469">    object</text>
	<line fill="none" stroke="#999999" stroke-width="5" x1="-298.9" y1="432.7" x2="149.3" y2="432.7"/>
	<line fill="none" stroke="#999999" stroke-width="5" x1="384.4" y1="432.7" x2="604.9" y2="432.7"/>
	<line fill="none" stroke="#999999" stroke-width="5" x1="728.6" y1="432.7" x2="949.1" y2="432.7"/>
</g>
</svg>
