<?xml version="1.0" encoding="utf-8"?>
<!-- Generator: Adobe Illustrator 18.0.0, SVG Export Plug-In . SVG Version: 6.00 Build 0)  -->
<!DOCTYPE svg PUBLIC "-//W3C//DTD SVG 1.1//EN" "http://www.w3.org/Graphics/SVG/1.1/DTD/svg11.dtd">
<svg version="1.1" id="Layer_1" xmlns="http://www.w3.org/2000/svg" xmlns:xlink="http://www.w3.org/1999/xlink" x="0px" y="0px"
	 viewBox="0 0 215 72" enable-background="new 0 0 215 72" xml:space="preserve">
<g>
	<rect x="76.1" y="14.5" fill="none" stroke="#999999" stroke-width="1.3" width="41.4" height="41.4"/>
	<line fill="none" stroke="#999999" stroke-width="1.3" x1="76.1" y1="49" x2="117.4" y2="49"/>
	<line fill="none" stroke="#999999" stroke-width="1.3" x1="76.1" y1="42.1" x2="117.4" y2="42.1"/>
	<line fill="none" stroke="#999999" stroke-width="1.3" x1="76.1" y1="35.2" x2="117.4" y2="35.2"/>
	<line fill="none" stroke="#999999" stroke-width="1.3" x1="76.1" y1="28.3" x2="117.4" y2="28.3"/>
	<line fill="none" stroke="#999999" stroke-width="1.3" x1="76.1" y1="21.4" x2="117.4" y2="21.4"/>
	<line fill="none" stroke="#999999" stroke-width="1.3" x1="110.5" y1="14.5" x2="110.5" y2="55.9"/>
	<line fill="none" stroke="#999999" stroke-width="1.3" x1="103.6" y1="14.5" x2="103.6" y2="55.9"/>
	<line fill="none" stroke="#999999" stroke-width="1.3" x1="96.8" y1="14.5" x2="96.8" y2="55.9"/>
	<line fill="none" stroke="#999999" stroke-width="1.3" x1="89.9" y1="14.5" x2="89.9" y2="55.9"/>
	<line fill="none" stroke="#999999" stroke-width="1.3" x1="83" y1="14.5" x2="83" y2="55.9"/>
</g>
<text transform="matrix(1 0 0 1 75.6496 4.5828)" font-family="'TheSerif-HP5Plain'" font-size="3.3374">x</text>
<text transform="matrix(1 0 0 1 65.0656 15.0283)" font-family="'TheSerif-HP5Plain'" font-size="3.3374">y</text>
<text transform="matrix(1 0 0 1 75.711 10.2688)" font-family="'TheSerif-HP5Plain'" font-size="3.3374">0</text>
<text transform="matrix(1 0 0 1 77.5469 10.2688)" font-family="'TheSerif-HP5Plain'" font-size="3.3374" letter-spacing="4"> </text>
<text transform="matrix(1 0 0 1 82.3858 10.2688)" font-family="'TheSerif-HP5Plain'" font-size="3.3374">1</text>
<text transform="matrix(1 0 0 1 84.2217 10.2688)" font-family="'TheSerif-HP5Plain'" font-size="3.3374" letter-spacing="4"> </text>
<text transform="matrix(1 0 0 1 89.0607 10.2688)" font-family="'TheSerif-HP5Plain'" font-size="3.3374">2</text>
<text transform="matrix(1 0 0 1 90.8966 10.2688)" font-family="'TheSerif-HP5Plain'" font-size="3.3374" letter-spacing="4"> </text>
<text transform="matrix(1 0 0 1 95.7355 10.2688)" font-family="'TheSerif-HP5Plain'" font-size="3.3374">3</text>
<text transform="matrix(1 0 0 1 97.5714 10.2688)" font-family="'TheSerif-HP5Plain'" font-size="3.3374" letter-spacing="4"> </text>
<text transform="matrix(1 0 0 1 102.4113 10.2688)" font-family="'TheSerif-HP5Plain'" font-size="3.3374">4</text>
<text transform="matrix(1 0 0 1 104.2463 10.2688)" font-family="'TheSerif-HP5Plain'" font-size="3.3374" letter-spacing="4"> </text>
<text transform="matrix(1 0 0 1 109.0852 10.2688)" font-family="'TheSerif-HP5Plain'" font-size="3.3374">5</text>
<text transform="matrix(1 0 0 1 110.9211 10.2688)" font-family="'TheSerif-HP5Plain'" font-size="3.3374" letter-spacing="4"> </text>
<text transform="matrix(1 0 0 1 115.76 10.2688)" font-family="'TheSerif-HP5Plain'" font-size="3.3374">6</text>
<circle fill="#808080" cx="83" cy="21.7" r="1.1"/>
<text transform="matrix(1 0 0 1 70.5194 16.0177)" font-family="'TheSerif-HP5Plain'" font-size="3.3374">0</text>
<text transform="matrix(1 0 0 1 70.5194 22.6915)" font-family="'TheSerif-HP5Plain'" font-size="3.3374">1</text>
<text transform="matrix(1 0 0 1 70.5194 29.3664)" font-family="'TheSerif-HP5Plain'" font-size="3.3374">2</text>
<text transform="matrix(1 0 0 1 70.5194 36.0412)" font-family="'TheSerif-HP5Plain'" font-size="3.3374">3</text>
<text transform="matrix(1 0 0 1 70.5194 42.7161)" font-family="'TheSerif-HP5Plain'" font-size="3.3374">4</text>
<text transform="matrix(1 0 0 1 70.5194 49.3914)" font-family="'TheSerif-HP5Plain'" font-size="3.3374">5</text>
<text transform="matrix(1 0 0 1 70.5194 56.0662)" font-family="'TheSerif-HP5Plain'" font-size="3.3374">6</text>
<line fill="none" stroke="#000000" stroke-width="1.3" x1="76.2" y1="14.5" x2="74.9" y2="14.5"/>
<line fill="none" stroke="#000000" stroke-width="1.3" x1="76.2" y1="21.4" x2="74.9" y2="21.4"/>
<line fill="none" stroke="#000000" stroke-width="1.3" x1="76.2" y1="28.3" x2="74.9" y2="28.3"/>
<line fill="none" stroke="#000000" stroke-width="1.3" x1="76.2" y1="35.2" x2="74.9" y2="35.2"/>
<line fill="none" stroke="#000000" stroke-width="1.3" x1="76.2" y1="42.1" x2="74.9" y2="42.1"/>
<line fill="none" stroke="#000000" stroke-width="1.3" x1="76.2" y1="49.1" x2="74.9" y2="49.1"/>
<line fill="none" stroke="#000000" stroke-width="1.3" x1="76.2" y1="55.8" x2="74.9" y2="55.8"/>
<line fill="none" stroke="#000000" stroke-width="1.3" x1="117.4" y1="14.5" x2="117.4" y2="13.2"/>
<line fill="none" stroke="#000000" stroke-width="1.3" x1="110.4" y1="14.5" x2="110.4" y2="13.2"/>
<line fill="none" stroke="#000000" stroke-width="1.3" x1="103.6" y1="14.5" x2="103.6" y2="13.2"/>
<line fill="none" stroke="#000000" stroke-width="1.3" x1="96.7" y1="14.5" x2="96.7" y2="13.2"/>
<line fill="none" stroke="#000000" stroke-width="1.3" x1="89.8" y1="14.5" x2="89.8" y2="13.2"/>
<line fill="none" stroke="#000000" stroke-width="1.3" x1="82.8" y1="14.5" x2="82.8" y2="13.2"/>
<line fill="none" stroke="#000000" stroke-width="1.3" x1="76.1" y1="14.5" x2="76.1" y2="13.2"/>
<polyline fill="#FFFFFF" stroke="#000000" stroke-width="1.3" points="66.8,27.2 66,28 65.1,27.2 "/>
<line fill="none" stroke="#000000" stroke-width="1.3" x1="66" y1="28" x2="66" y2="18.3"/>
<polyline fill="#FFFFFF" stroke="#000000" stroke-width="1.3" points="88.7,2.8 89.5,3.6 88.7,4.4 "/>
<line fill="none" stroke="#000000" stroke-width="1.3" x1="89.7" y1="3.6" x2="80.1" y2="3.6"/>
<text transform="matrix(1 0 0 1 128.1828 35.6465)" font-family="'TheSerif-HP5Plain'" font-size="3.3374">ellipseMode ( CORNER ) ;</text>
<text transform="matrix(1 0 0 1 128.1828 39.6511)" font-family="'TheSerif-HP5Plain'" font-size="3.3374">ellipse ( x , y , width , height ) ;</text>
<text transform="matrix(1 0 0 1 83.7179 19.794)" font-family="'TheSerif-HP5Plain'" font-size="3.3374">( 1 , 1 )</text>
<text transform="matrix(1 0 0 1 73.8741 65.2374)" fill="#808080" font-family="'TheSerif-HP5Plain'" font-size="3.3374">Example:  </text>
<text transform="matrix(1 0 0 1 89.3566 65.2374)" font-family="'TheSerif-HP5Plain'" font-size="3.3374">ellipseMode ( CORNER ) ;</text>
<text transform="matrix(1 0 0 1 73.8741 69.242)" font-family="'TheSerif-HP5Plain'" font-size="3.3374" letter-spacing="5">  </text>
<text transform="matrix(1 0 0 1 89.3568 69.2419)" font-family="'TheSerif-HP5Plain'" font-size="3.3374">ellipse ( 1 , 1 , 3 , 5 ) ;</text>
<ellipse fill="none" stroke="#000000" stroke-width="2" cx="93.3" cy="38.7" rx="10.3" ry="17.2"/>
</svg>
