<?xml version="1.0" encoding="utf-8"?>
<!-- Generator: Adobe Illustrator 18.0.0, SVG Export Plug-In . SVG Version: 6.00 Build 0)  -->
<!DOCTYPE svg PUBLIC "-//W3C//DTD SVG 1.1//EN" "http://www.w3.org/Graphics/SVG/1.1/DTD/svg11.dtd">
<svg version="1.1" id="Layer_1" xmlns="http://www.w3.org/2000/svg" xmlns:xlink="http://www.w3.org/1999/xlink" x="0px" y="0px"
	 viewBox="0 0 612 792" enable-background="new 0 0 612 792" xml:space="preserve">
<line fill="none" stroke="#000000" x1="218.9" y1="315.9" x2="218.9" y2="445.3"/>
<circle cx="114.3" cy="379.3" r="5.6"/>
<rect x="296.1" y="337.2" fill="#FFFFFF" stroke="#000000" width="140.2" height="85.9"/>
<ellipse fill="#FFFFFF" stroke="#000000" cx="550" cy="379.7" rx="45.1" ry="63.8"/>
<g enable-background="new    ">
	<path d="M97.9,492.5c-0.5,0-0.9,0-1.2-0.1v3c0.5,0,1.1,0.1,1.5,0.2v0.9h-4.7v-0.9c0.5-0.1,1-0.2,1.5-0.2v-9.5
		c-0.5,0-1.1-0.1-1.5-0.2v-0.9H95c0.5,0,2-0.1,3.1-0.1c3.2,0,4.5,1.7,4.5,3.7C102.6,490.7,100.8,492.5,97.9,492.5z M97.9,485.9
		c-0.5,0-0.9,0-1.3,0v5.1c0.3,0.1,0.8,0.1,1.4,0.1c2,0,2.9-1.2,2.9-2.6C100.9,487.2,100.2,485.9,97.9,485.9z"/>
	<path d="M107.7,496.7c-2.4,0-3.9-1.4-3.9-4.4c0-2.6,1.6-4.7,4.3-4.7c2.2,0,3.9,1.2,3.9,4.4C111.9,494.7,110.3,496.7,107.7,496.7z
		 M107.9,489c-1.3,0-2.5,1-2.5,3.2c0,2,0.8,3.2,2.5,3.2c1.3,0,2.4-1,2.4-3.2C110.3,490.1,109.4,489,107.9,489z"/>
	<path d="M113.2,496.5v-0.9c0.5-0.1,1-0.2,1.5-0.2v-6.3c-0.4-0.1-1-0.1-1.5-0.2v-0.9c0.9-0.1,2.1-0.2,3.1-0.1v7.6
		c0.5,0,1,0.1,1.5,0.2v0.9H113.2z M115.5,486.1c-0.6,0-1.1-0.4-1.1-1s0.5-1,1.1-1c0.6,0,1,0.5,1,1
		C116.5,485.6,116.1,486.1,115.5,486.1z"/>
	<path d="M125.7,496.5v-5.6c0-1.2-0.3-2-1.5-2c-1.4,0-2.5,1.5-2.5,3.4v3c0.5,0,1,0.1,1.4,0.2v0.9h-4.5v-0.9c0.5-0.1,1-0.2,1.5-0.2
		v-6.3c-0.4-0.1-1-0.1-1.5-0.2v-0.9c0.9-0.1,2.1-0.2,3.1-0.1c0,0.5,0,1.3-0.1,1.8h0c0.5-1.2,1.6-2,3.1-2c2,0,2.6,1.2,2.6,2.8v4.9
		c0.5,0,1,0.1,1.5,0.2v0.9H125.7z"/>
	<path d="M133,496.7c-1.8,0-2.3-0.7-2.3-2.6v-5h-1.8v-1.2h1.8V485l1.6-0.4v3.3h2.4v1.2h-2.4v4.5c0,1.4,0.3,1.8,1.2,1.8
		c0.4,0,0.8-0.1,1.1-0.1l0.2,1.3C134.3,496.6,133.6,496.7,133,496.7z"/>
</g>
<text transform="matrix(1 0 0 1 135.5663 496.5493)" font-family="'TheSerif-HP5Plain'" font-size="17.5787" letter-spacing="21"> </text>
<text transform="matrix(1 0 0 1 163.3031 496.5493)" font-family="'TheSerif-HP5Plain'" font-size="17.5787" letter-spacing="30"> </text>
<g enable-background="new    ">
	<path d="M202.8,496.5v-0.9c0.5-0.1,1-0.2,1.5-0.2v-9.5c-0.5,0-1.1-0.1-1.5-0.2v-0.9h4.7v0.9c-0.5,0.1-1,0.2-1.5,0.2v9.4h3.1
		c0.1-0.5,0.2-1.1,0.3-1.7h1.1v3H202.8z"/>
	<path d="M211.2,496.5v-0.9c0.5-0.1,1-0.2,1.5-0.2v-6.3c-0.4-0.1-1-0.1-1.5-0.2v-0.9c0.9-0.1,2.1-0.2,3.1-0.1v7.6
		c0.5,0,1,0.1,1.5,0.2v0.9H211.2z M213.5,486.1c-0.6,0-1.1-0.4-1.1-1s0.5-1,1.1-1c0.6,0,1,0.5,1,1
		C214.5,485.6,214.1,486.1,213.5,486.1z"/>
	<path d="M223.7,496.5v-5.6c0-1.2-0.3-2-1.5-2c-1.4,0-2.5,1.5-2.5,3.4v3c0.5,0,1,0.1,1.4,0.2v0.9h-4.5v-0.9c0.5-0.1,1-0.2,1.5-0.2
		v-6.3c-0.4-0.1-1-0.1-1.5-0.2v-0.9c0.9-0.1,2.1-0.2,3.1-0.1c0,0.5,0,1.3-0.1,1.8h0c0.5-1.2,1.6-2,3.1-2c2,0,2.6,1.2,2.6,2.8v4.9
		c0.5,0,1,0.1,1.5,0.2v0.9H223.7z"/>
	<path d="M235.1,492.2h-5.7c-0.1,2.3,0.9,3.3,2.8,3.3c0.8,0,1.7-0.2,2.5-0.5l0.2,1.2c-0.9,0.4-1.9,0.5-3,0.5c-2.7,0-4.1-1.4-4.1-4.5
		c0-2.6,1.5-4.6,3.9-4.6c2.4,0,3.5,1.6,3.5,3.6C235.1,491.5,235.1,491.8,235.1,492.2z M231.6,488.9c-1.1,0-2,0.8-2.1,2.2h4.1
		C233.6,489.7,232.8,488.9,231.6,488.9z"/>
</g>
<text transform="matrix(1 0 0 1 235.9635 496.5493)" font-family="'TheSerif-HP5Plain'" font-size="17.5787" letter-spacing="26"> </text>
<text transform="matrix(1 0 0 1 268.7766 496.5493)" font-family="'TheSerif-HP5Plain'" font-size="17.5787" letter-spacing="30"> </text>
<g enable-background="new    ">
	<path d="M338.5,496.5l-3.2-5.3h-0.9v4.1c0.4,0,0.9,0.1,1.3,0.2v0.9h-4.4v-0.9c0.5-0.1,1-0.2,1.5-0.2v-9.5c-0.5,0-1.1-0.1-1.5-0.2
		v-0.9h1.4c0.5,0,2-0.1,3.3-0.1c2.5,0,4.2,0.8,4.2,3.2c0,1.8-1.3,3-3.2,3.2c0.3,0.3,0.5,0.7,0.8,1.1l2,3.3c0.4,0.1,0.9,0.1,1.4,0.2
		v1H338.5z M335.6,485.9c-0.4,0-0.9,0-1.2,0.1v4.1h1.4c1.7,0,2.7-0.8,2.7-2.1C338.4,486.5,337.5,485.9,335.6,485.9z"/>
	<path d="M349.5,492.2h-5.7c-0.1,2.3,0.9,3.3,2.8,3.3c0.8,0,1.7-0.2,2.5-0.5l0.2,1.2c-0.9,0.4-1.9,0.5-3,0.5c-2.7,0-4.1-1.4-4.1-4.5
		c0-2.6,1.5-4.6,3.9-4.6c2.4,0,3.5,1.6,3.5,3.6C349.5,491.5,349.5,491.8,349.5,492.2z M346,488.9c-1.1,0-2,0.8-2.1,2.2h4.1
		C348,489.7,347.2,488.9,346,488.9z"/>
	<path d="M355,496.7c-2.2,0-4-1-4-4.2c0-2.8,1.4-4.8,4.3-4.8c0.7,0,1.5,0.1,2.1,0.3v2.5h-1c-0.1-0.5-0.2-1-0.2-1.4
		c-0.3-0.1-0.7-0.1-1.2-0.1c-1.6,0-2.4,1.3-2.4,3.2c0,1.8,0.6,3.1,2.6,3.1c0.8,0,1.5-0.2,2.1-0.4l0.3,1.3
		C357,496.5,356.1,496.7,355,496.7z"/>
	<path d="M362.4,496.7c-1.8,0-2.3-0.7-2.3-2.6v-5h-1.8v-1.2h1.8V485l1.6-0.4v3.3h2.4v1.2h-2.4v4.5c0,1.4,0.3,1.8,1.2,1.8
		c0.4,0,0.8-0.1,1.1-0.1l0.2,1.3C363.6,496.6,362.9,496.7,362.4,496.7z"/>
	<path d="M370.8,496.5c0-0.6,0-1.2,0.1-1.7h0c-0.4,1.1-1.5,1.9-3,1.9s-2.4-0.9-2.4-2.3c0-1.9,2-3,5.2-3v-0.7c0-1.2-0.4-1.9-1.8-1.9
		c-0.5,0-1.1,0.1-1.6,0.2c0,0.4-0.1,0.9-0.2,1.4h-1v-2.4c0.9-0.3,1.9-0.5,3-0.5c2.6,0,3.3,1.2,3.3,2.9v4.7c0.4,0.1,1,0.1,1.5,0.2
		v0.9C373,496.5,371.8,496.6,370.8,496.5z M370.7,492.5c-2.7,0-3.7,0.7-3.7,1.7c0,0.8,0.5,1.3,1.3,1.3c1.4,0,2.4-1.4,2.4-2.8V492.5z
		"/>
	<path d="M381.7,496.5v-5.6c0-1.2-0.3-2-1.5-2c-1.4,0-2.5,1.5-2.5,3.4v3c0.5,0,1,0.1,1.4,0.2v0.9h-4.5v-0.9c0.5-0.1,1-0.2,1.5-0.2
		v-6.3c-0.4-0.1-1-0.1-1.5-0.2v-0.9c0.9-0.1,2.1-0.2,3.1-0.1c0,0.5,0,1.3-0.1,1.8h0c0.5-1.2,1.6-2,3.1-2c2,0,2.6,1.2,2.6,2.8v4.9
		c0.5,0,1,0.1,1.5,0.2v0.9H381.7z"/>
	<path d="M389.4,501c-2.2,0-3.7-0.9-3.7-2.6c0-1,0.7-1.9,1.5-2.3c-0.5-0.2-0.9-0.7-0.9-1.3c0-0.6,0.4-1.2,1-1.5
		c-0.8-0.5-1.3-1.3-1.3-2.4c0-1.8,1.3-3.3,3.7-3.3c0.5,0,0.8,0.1,1.2,0.2h3v1.2h-1.4c0.4,0.4,0.7,0.9,0.7,1.6c0,1.8-1.2,3.2-3.7,3.2
		c-0.4,0-0.6,0-0.9-0.1c-0.4,0.2-0.6,0.5-0.6,0.7c0,0.5,0.4,0.7,1.5,0.7l1.6,0.1c1.9,0.1,2.9,0.9,2.9,2.5
		C394,499.6,392.2,501,389.4,501z M390.6,496.5l-1.7-0.1c-0.2,0-0.4,0-0.5,0c-0.7,0.5-1.1,1.1-1.1,1.7c0,1,1,1.7,2.4,1.7
		c1.8,0,2.8-0.8,2.8-1.9C392.4,497.1,391.9,496.5,390.6,496.5z M389.7,488.8c-1.3,0-2.1,0.8-2.1,2c0,1.2,0.7,1.9,2,1.9
		c1.2,0,2-0.7,2-1.9C391.6,489.6,390.9,488.8,389.7,488.8z"/>
	<path d="M394.9,496.5v-0.9c0.4-0.1,1-0.2,1.5-0.2V485c-0.4-0.1-1-0.1-1.5-0.2v-0.9c0.9-0.1,2.1-0.2,3.1-0.1v11.7
		c0.5,0,1,0.1,1.5,0.2v0.9H394.9z"/>
	<path d="M407.7,492.2H402c-0.1,2.3,0.9,3.3,2.8,3.3c0.8,0,1.7-0.2,2.5-0.5l0.2,1.2c-0.9,0.4-1.9,0.5-3,0.5c-2.7,0-4.1-1.4-4.1-4.5
		c0-2.6,1.5-4.6,3.9-4.6c2.4,0,3.5,1.6,3.5,3.6C407.7,491.5,407.7,491.8,407.7,492.2z M404.2,488.9c-1.1,0-2,0.8-2.1,2.2h4.1
		C406.2,489.7,405.4,488.9,404.2,488.9z"/>
</g>
<text transform="matrix(1 0 0 1 408.6299 496.5493)" font-family="'TheSerif-HP5Plain'" font-size="17.5787"> </text>
<text transform="matrix(1 0 0 1 409.407 496.5493)" font-family="'TheSerif-HP5Plain'" font-size="17.5787"> </text>
<text transform="matrix(1 0 0 1 413.2175 496.5493)" font-family="'TheSerif-HP5Plain'" font-size="17.5787" letter-spacing="26"> </text>
<text transform="matrix(1 0 0 1 444.5673 496.5493)" font-family="'TheSerif-HP5Plain'" font-size="17.5787" letter-spacing="30">  </text>
<g enable-background="new    ">
	<path d="M526.9,496.5v-0.9c0.5-0.1,1-0.2,1.5-0.2v-9.5c-0.5,0-1.1-0.1-1.5-0.2v-0.9h7.7v2.7h-1.1c-0.1-0.5-0.2-1.1-0.2-1.5H530v3.9
		h2.5c0.1-0.4,0.1-0.8,0.2-1.2h1v3.6h-1c-0.1-0.4-0.2-0.8-0.2-1.2H530v4.2h3.2c0.1-0.5,0.1-1,0.2-1.5h1.1v2.8H526.9z"/>
	<path d="M536,496.5v-0.9c0.4-0.1,1-0.2,1.5-0.2V485c-0.4-0.1-1-0.1-1.5-0.2v-0.9c0.9-0.1,2.1-0.2,3.1-0.1v11.7c0.5,0,1,0.1,1.5,0.2
		v0.9H536z"/>
	<path d="M541.2,496.5v-0.9c0.4-0.1,1-0.2,1.5-0.2V485c-0.4-0.1-1-0.1-1.5-0.2v-0.9c0.9-0.1,2.1-0.2,3.1-0.1v11.7
		c0.5,0,1,0.1,1.5,0.2v0.9H541.2z"/>
	<path d="M546.6,496.5v-0.9c0.5-0.1,1-0.2,1.5-0.2v-6.3c-0.4-0.1-1-0.1-1.5-0.2v-0.9c0.9-0.1,2.1-0.2,3.1-0.1v7.6
		c0.5,0,1,0.1,1.5,0.2v0.9H546.6z M548.9,486.1c-0.6,0-1.1-0.4-1.1-1s0.5-1,1.1-1c0.6,0,1,0.5,1,1
		C549.9,485.6,549.5,486.1,548.9,486.1z"/>
	<path d="M556.1,496.7c-0.6,0-1,0-1.5-0.1v3.2c0.5,0,1.1,0.1,1.5,0.2v0.9h-4.6v-0.9c0.5-0.1,0.9-0.2,1.5-0.2v-10.7
		c-0.4-0.1-1-0.1-1.5-0.2v-0.9c0.9-0.1,2.1-0.2,3-0.1c0,0.5-0.1,1.3-0.1,1.8l0,0c0.5-1.2,1.5-2,2.9-2c2.1,0,3.2,1.4,3.2,4.1
		C560.6,494.9,558.9,496.7,556.1,496.7z M557,489c-1.6,0-2.4,1.8-2.4,3.4v2.9c0.5,0.1,1,0.2,1.6,0.2c1.7,0,2.8-1,2.8-3.5
		C559,490,558.4,489,557,489z"/>
	<path d="M564.5,496.7c-0.7,0-1.5-0.1-2.1-0.2V494h1c0.1,0.4,0.2,0.9,0.2,1.4c0.3,0.1,0.7,0.1,1,0.1c1.2,0,2-0.5,2-1.4
		c0-1.9-4.4-0.8-4.4-3.8c0-1.5,1.2-2.6,3.5-2.6c0.6,0,1.4,0.1,2,0.2v2.4h-1c-0.1-0.4-0.2-0.9-0.2-1.4c-0.3-0.1-0.7-0.1-1-0.1
		c-1.2,0-1.8,0.5-1.8,1.3c0,2,4.4,0.9,4.4,3.8C568.2,495.5,566.8,496.7,564.5,496.7z"/>
	<path d="M577.1,492.2h-5.7c-0.1,2.3,0.9,3.3,2.8,3.3c0.8,0,1.7-0.2,2.5-0.5l0.2,1.2c-0.9,0.4-1.9,0.5-3,0.5c-2.7,0-4.1-1.4-4.1-4.5
		c0-2.6,1.5-4.6,3.9-4.6c2.4,0,3.5,1.6,3.5,3.6C577.2,491.5,577.2,491.8,577.1,492.2z M573.6,488.9c-1.1,0-2,0.8-2.1,2.2h4.1
		C575.6,489.7,574.8,488.9,573.6,488.9z"/>
</g>
</svg>
