<?xml version="1.0" encoding="utf-8"?>
<!-- Generator: Adobe Illustrator 18.0.0, SVG Export Plug-In . SVG Version: 6.00 Build 0)  -->
<!DOCTYPE svg PUBLIC "-//W3C//DTD SVG 1.1//EN" "http://www.w3.org/Graphics/SVG/1.1/DTD/svg11.dtd">
<svg version="1.1" id="Layer_1" xmlns="http://www.w3.org/2000/svg" xmlns:xlink="http://www.w3.org/1999/xlink" x="0px" y="0px"
	 viewBox="0 0 612 792" enable-background="new 0 0 612 792" xml:space="preserve">
<line fill="none" stroke="#000000" x1="-52" y1="131.8" x2="-52" y2="501.2"/>
<circle cx="-350.5" cy="312.9" r="16"/>
<rect x="168.4" y="192.7" fill="#FFFFFF" stroke="#000000" width="400.1" height="245.2"/>
<ellipse fill="#FFFFFF" stroke="#000000" cx="893.2" cy="314" rx="128.7" ry="182.2"/>
<g enable-background="new    ">
	<path d="M-397.3,636c-1.4,0-2.6,0-3.4-0.3v8.6c1.4,0,3.2,0.3,4.3,0.6v2.6h-13.5v-2.6c1.4-0.3,2.9-0.6,4.3-0.6v-27.1
		c-1.4,0-3.2-0.3-4.3-0.6V614h4.3c1.4,0,5.7-0.3,8.9-0.3c9.2,0,12.9,4.9,12.9,10.6C-384,630.8-389,636-397.3,636z M-397.3,617
		c-1.4,0-2.6,0-3.7,0v14.6c0.9,0.3,2.3,0.3,4,0.3c5.7,0,8.3-3.4,8.3-7.4C-388.9,620.8-390.7,617-397.3,617z"/>
	<path d="M-369.4,648c-6.9,0-11.2-4-11.2-12.6c0-7.4,4.6-13.5,12.3-13.5c6.3,0,11.2,3.4,11.2,12.6C-357.4,642.3-361.9,648-369.4,648
		z M-368.8,625.9c-3.7,0-7.2,2.9-7.2,9.2c0,5.7,2.3,9.2,7.2,9.2c3.7,0,6.9-2.9,6.9-9.2C-361.9,629.1-364.5,625.9-368.8,625.9z"/>
	<path d="M-353.6,647.4v-2.6c1.4-0.3,2.9-0.6,4.3-0.6v-18c-1.1-0.3-2.9-0.3-4.3-0.6v-2.6c2.6-0.3,6-0.6,8.9-0.3v21.6
		c1.4,0,2.9,0.3,4.3,0.6v2.6h-13.2V647.4z M-347.2,617.6c-1.7,0-3.2-1.1-3.2-2.9s1.4-2.9,3.2-2.9c1.7,0,2.9,1.4,2.9,2.9
		S-345.5,617.6-347.2,617.6z"/>
	<path d="M-318,647.4v-16c0-3.4-0.9-5.7-4.3-5.7c-4,0-7.2,4.3-7.2,9.7v8.6c1.4,0,2.9,0.3,4,0.6v2.6h-12.9v-2.6
		c1.4-0.3,2.9-0.6,4.3-0.6v-18c-1.1-0.3-2.9-0.3-4.3-0.6v-2.6c2.6-0.3,6-0.6,8.9-0.3c0,1.4,0,3.7-0.3,5.2l0,0
		c1.4-3.4,4.6-5.7,8.9-5.7c5.7,0,7.4,3.4,7.4,8v14c1.4,0,2.9,0.3,4.3,0.6v2.6h-8.9V647.4z"/>
	<path d="M-297.2,648c-5.2,0-6.6-2-6.6-7.4v-14.3h-5.2v-3.4h5.2v-8.3l4.6-1.1v9.5h6.9v3.4h-6.9v12.9c0,4,0.9,5.2,3.4,5.2
		c1.1,0,2.3-0.3,3.2-0.3l0.6,3.7C-293.5,647.7-295.5,648-297.2,648z"/>
</g>
<text transform="matrix(1 0 0 1 -289.8447 647.4984)" font-family="'TheSerif-HP5Plain'" font-size="50.1778" letter-spacing="58"> </text>
<text transform="matrix(1 0 0 1 -210.6718 647.4984)" font-family="'TheSerif-HP5Plain'" font-size="50.1778" letter-spacing="84"> </text>
<g enable-background="new    ">
	<path d="M-97.9,647.4v-2.6c1.4-0.3,2.9-0.6,4.3-0.6v-27.1c-1.4,0-3.2-0.3-4.3-0.6V614h13.5v2.6c-1.4,0.3-2.9,0.6-4.3,0.6V644h8.9
		c0.3-1.4,0.6-3.2,0.9-4.9h3.2v8.6h-21.9v-0.3H-97.9z"/>
	<path d="M-73.9,647.4v-2.6c1.4-0.3,2.9-0.6,4.3-0.6v-18c-1.1-0.3-2.9-0.3-4.3-0.6v-2.6c2.6-0.3,6-0.6,8.9-0.3v21.6
		c1.4,0,2.9,0.3,4.3,0.6v2.6h-13.2V647.4z M-67.4,617.6c-1.7,0-3.2-1.1-3.2-2.9s1.4-2.9,3.2-2.9s2.9,1.4,2.9,2.9
		S-65.6,617.6-67.4,617.6z"/>
	<path d="M-38.3,647.4v-16c0-3.4-0.9-5.7-4.3-5.7c-4,0-7.2,4.3-7.2,9.7v8.6c1.4,0,2.9,0.3,4,0.6v2.6h-12.9v-2.6
		c1.4-0.3,2.9-0.6,4.3-0.6v-18c-1.1-0.3-2.9-0.3-4.3-0.6v-2.6c2.6-0.3,6-0.6,8.9-0.3c0,1.4,0,3.7-0.3,5.2l0,0
		c1.4-3.4,4.6-5.7,8.9-5.7c5.7,0,7.4,3.4,7.4,8v14c1.4,0,2.9,0.3,4.3,0.6v2.6h-8.9V647.4z"/>
	<path d="M-5.8,635.1h-16.3c-0.3,6.6,2.6,9.5,8,9.5c2.3,0,4.9-0.6,7.2-1.4l0.6,3.4c-2.6,1.1-5.4,1.4-8.6,1.4
		c-7.7,0-11.7-4-11.7-12.9c0-7.4,4.3-13.2,11.2-13.2s10,4.6,10,10.3C-5.8,633.1-5.8,633.9-5.8,635.1z M-15.7,625.6
		c-3.2,0-5.7,2.3-6,6.3h11.7C-10.1,627.9-12.4,625.6-15.7,625.6z"/>
</g>
<text transform="matrix(1 0 0 1 -3.2646 647.4984)" font-family="'TheSerif-HP5Plain'" font-size="50.1778" letter-spacing="73"> </text>
<text transform="matrix(1 0 0 1 90.3999 647.4984)" font-family="'TheSerif-HP5Plain'" font-size="50.1778" letter-spacing="84"> </text>
<g enable-background="new    ">
	<path d="M289.4,647.4l-9.2-15.2h-2.6V644c1.1,0,2.6,0.3,3.7,0.6v2.6h-12.6v-2.6c1.4-0.3,2.9-0.6,4.3-0.6v-27.1
		c-1.4,0-3.2-0.3-4.3-0.6v-2.6h4c1.4,0,5.7-0.3,9.5-0.3c7.2,0,12,2.3,12,9.2c0,5.2-3.7,8.6-9.2,9.2c0.9,0.9,1.4,2,2.3,3.2l5.7,9.5
		c1.1,0.3,2.6,0.3,4,0.6v2.9h-7.7L289.4,647.4L289.4,647.4z M281.1,617c-1.1,0-2.6,0-3.4,0.3v11.7h4c4.9,0,7.7-2.3,7.7-6
		C289.1,618.8,286.5,617,281.1,617z"/>
	<path d="M320.8,635.1h-16.3c-0.3,6.6,2.6,9.5,8,9.5c2.3,0,4.9-0.6,7.2-1.4l0.6,3.4c-2.6,1.1-5.4,1.4-8.6,1.4
		c-7.7,0-11.7-4-11.7-12.9c0-7.4,4.3-13.2,11.2-13.2s10,4.6,10,10.3C320.8,633.1,320.8,633.9,320.8,635.1z M310.9,625.6
		c-3.2,0-5.7,2.3-6,6.3h11.7C316.6,627.9,314.3,625.6,310.9,625.6z"/>
	<path d="M336.5,648c-6.3,0-11.5-2.9-11.5-12c0-8,4-13.7,12.3-13.7c2,0,4.3,0.3,6,0.9v7.2h-2.9c-0.3-1.4-0.6-2.9-0.6-4
		c-0.9-0.3-2-0.3-3.4-0.3c-4.6,0-6.9,3.7-6.9,9.2c0,5.2,1.7,8.9,7.4,8.9c2.3,0,4.3-0.6,6-1.1l0.9,3.7
		C342.2,647.4,339.7,648,336.5,648z"/>
	<path d="M357.7,648c-5.2,0-6.6-2-6.6-7.4v-14.3H346v-3.4h5.2v-8.3l4.6-1.1v9.5h6.9v3.4h-6.9v12.9c0,4,0.9,5.2,3.4,5.2
		c1.1,0,2.3-0.3,3.2-0.3l0.6,3.7C361.1,647.7,359.1,648,357.7,648z"/>
	<path d="M381.6,647.4c0-1.7,0-3.4,0.3-4.9l0,0c-1.1,3.2-4.3,5.4-8.6,5.4s-6.9-2.6-6.9-6.6c0-5.4,5.7-8.6,14.9-8.6v-2
		c0-3.4-1.1-5.4-5.2-5.4c-1.4,0-3.2,0.3-4.6,0.6c0,1.1-0.3,2.6-0.6,4h-2.9v-6.9c2.6-0.9,5.4-1.4,8.6-1.4c7.4,0,9.5,3.4,9.5,8.3v13.5
		c1.1,0.3,2.9,0.3,4.3,0.6v2.6C387.9,647.4,384.5,647.7,381.6,647.4z M381.3,636c-7.7,0-10.6,2-10.6,4.9c0,2.3,1.4,3.7,3.7,3.7
		c4,0,6.9-4,6.9-8L381.3,636L381.3,636z"/>
	<path d="M412.7,647.4v-16c0-3.4-0.9-5.7-4.3-5.7c-4,0-7.2,4.3-7.2,9.7v8.6c1.4,0,2.9,0.3,4,0.6v2.6h-12.9v-2.6
		c1.4-0.3,2.9-0.6,4.3-0.6v-18c-1.1-0.3-2.9-0.3-4.3-0.6v-2.6c2.6-0.3,6-0.6,8.9-0.3c0,1.4,0,3.7-0.3,5.2l0,0
		c1.4-3.4,4.6-5.7,8.9-5.7c5.7,0,7.4,3.4,7.4,8v14c1.4,0,2.9,0.3,4.3,0.6v2.6h-8.9V647.4z"/>
	<path d="M434.7,660.2c-6.3,0-10.6-2.6-10.6-7.4c0-2.9,2-5.4,4.3-6.6c-1.4-0.6-2.6-2-2.6-3.7c0-1.7,1.1-3.4,2.9-4.3
		c-2.3-1.4-3.7-3.7-3.7-6.9c0-5.2,3.7-9.5,10.6-9.5c1.4,0,2.3,0.3,3.4,0.6h8.6v3.4h-4c1.1,1.1,2,2.6,2,4.6c0,5.2-3.4,9.2-10.6,9.2
		c-1.1,0-1.7,0-2.6-0.3c-1.1,0.6-1.7,1.4-1.7,2c0,1.4,1.1,2,4.3,2l4.6,0.3c5.4,0.3,8.3,2.6,8.3,7.2
		C447.8,656.1,442.8,660.2,434.7,660.2z M438.2,647.4l-4.9-0.3c-0.6,0-1.1,0-1.4,0c-2,1.4-3.2,3.2-3.2,4.9c0,2.9,2.9,4.9,6.9,4.9
		c5.2,0,8-2.3,8-5.4C443.3,649.1,441.9,647.4,438.2,647.4z M435.6,625.4c-3.7,0-6,2.3-6,5.7c0,3.4,2,5.4,5.7,5.4
		c3.4,0,5.7-2,5.7-5.4C441,627.6,439,625.4,435.6,625.4z"/>
	<path d="M450.4,647.4v-2.6c1.1-0.3,2.9-0.6,4.3-0.6v-29.6c-1.1-0.3-2.9-0.3-4.3-0.6v-2.6c2.6-0.3,6-0.6,8.9-0.3v33.4
		c1.4,0,2.9,0.3,4.3,0.6v2.6h-13.2V647.4z"/>
	<path d="M487,635.1h-16.3c-0.3,6.6,2.6,9.5,8,9.5c2.3,0,4.9-0.6,7.2-1.4l0.6,3.4c-2.6,1.1-5.4,1.4-8.6,1.4c-7.7,0-11.7-4-11.7-12.9
		c0-7.4,4.3-13.2,11.2-13.2c6.9,0,10,4.6,10,10.3C487,633.1,487,633.9,487,635.1z M477,625.6c-3.2,0-5.7,2.3-6,6.3h11.7
		C482.7,627.9,480.4,625.6,477,625.6z"/>
</g>
<text transform="matrix(1 0 0 1 489.6055 647.4984)" font-family="'TheSerif-HP5Plain'" font-size="50.1778"> </text>
<text transform="matrix(1 0 0 1 491.8237 647.4984)" font-family="'TheSerif-HP5Plain'" font-size="50.1778"> </text>
<text transform="matrix(1 0 0 1 502.7002 647.4984)" font-family="'TheSerif-HP5Plain'" font-size="50.1778" letter-spacing="73"> </text>
<text transform="matrix(1 0 0 1 592.1876 647.4984)" font-family="'TheSerif-HP5Plain'" font-size="50.1778" letter-spacing="84">  </text>
<g enable-background="new    ">
	<path d="M827.2,647.4v-2.6c1.4-0.3,2.9-0.6,4.3-0.6v-27.1c-1.4,0-3.2-0.3-4.3-0.6V614h21.9v7.7h-3.2c-0.3-1.4-0.6-3.2-0.6-4.3h-9.5
		v11.2h7.2c0.3-1.1,0.3-2.3,0.6-3.4h2.9v10.3h-2.9c-0.3-1.1-0.6-2.3-0.6-3.4h-7.2v12h9.2c0.3-1.4,0.3-2.9,0.6-4.3h3.2v8h-21.6
		L827.2,647.4L827.2,647.4z"/>
	<path d="M853.2,647.4v-2.6c1.1-0.3,2.9-0.6,4.3-0.6v-29.6c-1.1-0.3-2.9-0.3-4.3-0.6v-2.6c2.6-0.3,6-0.6,8.9-0.3v33.4
		c1.4,0,2.9,0.3,4.3,0.6v2.6h-13.2V647.4z"/>
	<path d="M868,647.4v-2.6c1.1-0.3,2.9-0.6,4.3-0.6v-29.6c-1.1-0.3-2.9-0.3-4.3-0.6v-2.6c2.6-0.3,6-0.6,8.9-0.3v33.4
		c1.4,0,2.9,0.3,4.3,0.6v2.6H868V647.4z"/>
	<path d="M883.4,647.4v-2.6c1.4-0.3,2.9-0.6,4.3-0.6v-18c-1.1-0.3-2.9-0.3-4.3-0.6v-2.6c2.6-0.3,6-0.6,8.9-0.3v21.6
		c1.4,0,2.9,0.3,4.3,0.6v2.6h-13.2V647.4z M890,617.6c-1.7,0-3.2-1.1-3.2-2.9s1.4-2.9,3.2-2.9c1.7,0,2.9,1.4,2.9,2.9
		S891.7,617.6,890,617.6z"/>
	<path d="M910.5,648c-1.7,0-2.9,0-4.3-0.3v9.2c1.4,0,3.2,0.3,4.3,0.6v2.6h-13.2v-2.6c1.4-0.3,2.6-0.6,4.3-0.6v-30.5
		c-1.1-0.3-2.9-0.3-4.3-0.6v-2.6c2.6-0.3,6-0.6,8.6-0.3c0,1.4-0.3,3.7-0.3,5.2l0,0c1.4-3.4,4.3-5.7,8.3-5.7c6,0,9.2,4,9.2,11.7
		C923.4,642.8,918.5,648,910.5,648z M913.1,625.9c-4.6,0-6.9,5.2-6.9,9.7v8.3c1.4,0.3,2.9,0.6,4.6,0.6c4.9,0,8-2.9,8-10
		C918.8,628.8,917.1,625.9,913.1,625.9z"/>
	<path d="M934.6,648c-2,0-4.3-0.3-6-0.6v-7.2h2.9c0.3,1.1,0.6,2.6,0.6,4c0.9,0.3,2,0.3,2.9,0.3c3.4,0,5.7-1.4,5.7-4
		c0-5.4-12.6-2.3-12.6-10.9c0-4.3,3.4-7.4,10-7.4c1.7,0,4,0.3,5.7,0.6v6.9h-2.9c-0.3-1.1-0.6-2.6-0.6-4c-0.9-0.3-2-0.3-2.9-0.3
		c-3.4,0-5.2,1.4-5.2,3.7c0,5.7,12.6,2.6,12.6,10.9C945.2,644.5,941.1,648,934.6,648z"/>
	<path d="M970.5,635.1h-16.3c-0.3,6.6,2.6,9.5,8,9.5c2.3,0,4.9-0.6,7.2-1.4l0.6,3.4c-2.6,1.1-5.4,1.4-8.6,1.4
		c-7.7,0-11.7-4-11.7-12.9c0-7.4,4.3-13.2,11.2-13.2c6.9,0,10,4.6,10,10.3C970.8,633.1,970.8,633.9,970.5,635.1z M960.5,625.6
		c-3.2,0-5.7,2.3-6,6.3h11.7C966.2,627.9,963.9,625.6,960.5,625.6z"/>
</g>
</svg>
