<?xml version="1.0" encoding="utf-8"?>
<!-- Generator: Adobe Illustrator 18.0.0, SVG Export Plug-In . SVG Version: 6.00 Build 0)  -->
<!DOCTYPE svg PUBLIC "-//W3C//DTD SVG 1.1//EN" "http://www.w3.org/Graphics/SVG/1.1/DTD/svg11.dtd">
<svg version="1.1" id="Layer_1" xmlns="http://www.w3.org/2000/svg" xmlns:xlink="http://www.w3.org/1999/xlink" x="0px" y="0px"
	 viewBox="-60 113 870 557" enable-background="new -60 113 870 557" xml:space="preserve">
<g>
	<rect x="49.8" y="223.5" fill="none" stroke="#999999" stroke-width="1.3" width="319.9" height="319.9"/>
	<line fill="none" stroke="#999999" stroke-width="1.3" x1="49.8" y1="490.2" x2="369.7" y2="490.2"/>
	<line fill="none" stroke="#999999" stroke-width="1.3" x1="49.8" y1="436.6" x2="369.7" y2="436.6"/>
	<line fill="none" stroke="#999999" stroke-width="1.3" x1="49.8" y1="383.4" x2="369.7" y2="383.4"/>
	<line fill="none" stroke="#999999" stroke-width="1.3" x1="49.8" y1="330.2" x2="369.7" y2="330.2"/>
	<line fill="none" stroke="#999999" stroke-width="1.3" x1="49.8" y1="276.7" x2="369.7" y2="276.7"/>
	<line fill="none" stroke="#999999" stroke-width="1.3" x1="316.3" y1="223.5" x2="316.3" y2="543.4"/>
	<line fill="none" stroke="#999999" stroke-width="1.3" x1="263.1" y1="223.5" x2="263.1" y2="543.4"/>
	<line fill="none" stroke="#999999" stroke-width="1.3" x1="209.8" y1="223.5" x2="209.8" y2="543.4"/>
	<line fill="none" stroke="#999999" stroke-width="1.3" x1="156.4" y1="223.5" x2="156.4" y2="543.4"/>
	<line fill="none" stroke="#999999" stroke-width="1.3" x1="103.2" y1="223.5" x2="103.2" y2="543.4"/>
</g>
<text transform="matrix(1 0 0 1 46.478 146.5254)" font-family="'TheSerif-HP5Plain'" font-size="25.8187">x</text>
<text transform="matrix(1 0 0 1 -35.4019 227.3281)" font-family="'TheSerif-HP5Plain'" font-size="25.8187">y</text>
<text transform="matrix(1 0 0 1 46.9565 190.5117)" font-family="'TheSerif-HP5Plain'" font-size="25.8187">0</text>
<text transform="matrix(1 0 0 1 61.1567 190.5117)" font-family="'TheSerif-HP5Plain'" font-size="25.8187" letter-spacing="31"> </text>
<text transform="matrix(1 0 0 1 98.5942 190.5117)" font-family="'TheSerif-HP5Plain'" font-size="25.8187">1</text>
<text transform="matrix(1 0 0 1 112.7935 190.5117)" font-family="'TheSerif-HP5Plain'" font-size="25.8187" letter-spacing="31"> </text>
<text transform="matrix(1 0 0 1 150.231 190.5117)" font-family="'TheSerif-HP5Plain'" font-size="25.8187">2</text>
<text transform="matrix(1 0 0 1 164.4321 190.5117)" font-family="'TheSerif-HP5Plain'" font-size="25.8187" letter-spacing="31"> </text>
<text transform="matrix(1 0 0 1 201.8687 190.5117)" font-family="'TheSerif-HP5Plain'" font-size="25.8187">3</text>
<text transform="matrix(1 0 0 1 216.0688 190.5117)" font-family="'TheSerif-HP5Plain'" font-size="25.8187" letter-spacing="31"> </text>
<text transform="matrix(1 0 0 1 253.5063 190.5117)" font-family="'TheSerif-HP5Plain'" font-size="25.8187">4</text>
<text transform="matrix(1 0 0 1 267.7065 190.5117)" font-family="'TheSerif-HP5Plain'" font-size="25.8187" letter-spacing="31"> </text>
<text transform="matrix(1 0 0 1 305.144 190.5117)" font-family="'TheSerif-HP5Plain'" font-size="25.8187">5</text>
<text transform="matrix(1 0 0 1 319.3438 190.5117)" font-family="'TheSerif-HP5Plain'" font-size="25.8187" letter-spacing="31"> </text>
<text transform="matrix(1 0 0 1 356.7812 190.5117)" font-family="'TheSerif-HP5Plain'" font-size="25.8187">6</text>
<circle fill="#808080" cx="210.8" cy="386.2" r="8.3"/>
<text transform="matrix(1 0 0 1 6.7935 234.9775)" font-family="'TheSerif-HP5Plain'" font-size="25.8187">0</text>
<text transform="matrix(1 0 0 1 6.7935 286.6152)" font-family="'TheSerif-HP5Plain'" font-size="25.8187">1</text>
<text transform="matrix(1 0 0 1 6.7935 338.2529)" font-family="'TheSerif-HP5Plain'" font-size="25.8187">2</text>
<text transform="matrix(1 0 0 1 6.7935 389.8896)" font-family="'TheSerif-HP5Plain'" font-size="25.8187">3</text>
<text transform="matrix(1 0 0 1 6.7935 441.5273)" font-family="'TheSerif-HP5Plain'" font-size="25.8187">4</text>
<text transform="matrix(1 0 0 1 6.7935 493.165)" font-family="'TheSerif-HP5Plain'" font-size="25.8187">5</text>
<text transform="matrix(1 0 0 1 6.7935 544.8027)" font-family="'TheSerif-HP5Plain'" font-size="25.8187">6</text>
<line fill="none" stroke="#000000" stroke-width="1.3" x1="51.1" y1="223.5" x2="40.9" y2="223.5"/>
<line fill="none" stroke="#000000" stroke-width="1.3" x1="51.1" y1="277" x2="40.9" y2="277"/>
<line fill="none" stroke="#000000" stroke-width="1.3" x1="51.1" y1="330.1" x2="40.9" y2="330.1"/>
<line fill="none" stroke="#000000" stroke-width="1.3" x1="51.1" y1="383.3" x2="40.9" y2="383.3"/>
<line fill="none" stroke="#000000" stroke-width="1.3" x1="51.1" y1="436.8" x2="40.9" y2="436.8"/>
<line fill="none" stroke="#000000" stroke-width="1.3" x1="51.1" y1="490.7" x2="40.9" y2="490.7"/>
<line fill="none" stroke="#000000" stroke-width="1.3" x1="51.1" y1="542.9" x2="40.9" y2="542.9"/>
<line fill="none" stroke="#000000" stroke-width="1.3" x1="369.3" y1="223.4" x2="369.3" y2="213.2"/>
<line fill="none" stroke="#000000" stroke-width="1.3" x1="315.6" y1="223.4" x2="315.6" y2="213.2"/>
<line fill="none" stroke="#000000" stroke-width="1.3" x1="262.5" y1="223.4" x2="262.5" y2="213.2"/>
<line fill="none" stroke="#000000" stroke-width="1.3" x1="209.3" y1="223.4" x2="209.3" y2="213.2"/>
<line fill="none" stroke="#000000" stroke-width="1.3" x1="156" y1="223.4" x2="156" y2="213.2"/>
<line fill="none" stroke="#000000" stroke-width="1.3" x1="101.9" y1="223.4" x2="101.9" y2="213.2"/>
<line fill="none" stroke="#000000" stroke-width="1.3" x1="50.3" y1="223.4" x2="50.3" y2="213.2"/>
<polyline fill="#FFFFFF" stroke="#000000" stroke-width="1.3" points="-22.2,321.2 -28.5,327.5 -34.8,321.2 "/>
<line fill="none" stroke="#000000" stroke-width="1.3" x1="-28.5" y1="327.5" x2="-28.5" y2="252.6"/>
<polyline fill="#FFFFFF" stroke="#000000" stroke-width="1.3" points="147.6,132.4 154,138.7 147.6,145 "/>
<line fill="none" stroke="#000000" stroke-width="1.3" x1="155.4" y1="138.7" x2="80.5" y2="138.7"/>
<text transform="matrix(1 0 0 1 452.8828 386.834)" font-family="'TheSerif-HP5Plain'" font-size="25.8187">ellipseMode ( CENTER ) ;</text>
<text transform="matrix(1 0 0 1 452.8828 417.8164)" font-family="'TheSerif-HP5Plain'" font-size="25.8187">ellipse ( x , y , width , height ) ;</text>
<text transform="matrix(1 0 0 1 213.6089 368.9043)" font-family="'TheSerif-HP5Plain'" font-size="25.8187">( 3 , 3 )</text>
<text transform="matrix(1 0 0 1 32.7446 615.748)" fill="#808080" font-family="'TheSerif-HP5Plain'" font-size="25.8187">Example:  </text>
<text transform="matrix(1 0 0 1 152.5151 615.748)" font-family="'TheSerif-HP5Plain'" font-size="25.8187">ellipseMode ( CENTER ) ;</text>
<text transform="matrix(1 0 0 1 32.7446 646.7305)" font-family="'TheSerif-HP5Plain'" font-size="25.8187" letter-spacing="45">  </text>
<text transform="matrix(1 0 0 1 136.02 646.7305)" font-family="'TheSerif-HP5Plain'" font-size="25.8187">   ellipse ( 3 , 3 , 4 , 6 ) ;</text>
<ellipse fill="none" stroke="#000000" stroke-width="2" cx="209.8" cy="383.4" rx="106.6" ry="159.9"/>
</svg>
