<?xml version="1.0" encoding="utf-8"?>
<!-- Generator: Adobe Illustrator 18.0.0, SVG Export Plug-In . SVG Version: 6.00 Build 0)  -->
<!DOCTYPE svg PUBLIC "-//W3C//DTD SVG 1.1//EN" "http://www.w3.org/Graphics/SVG/1.1/DTD/svg11.dtd">
<svg version="1.1" id="Layer_1" xmlns="http://www.w3.org/2000/svg" xmlns:xlink="http://www.w3.org/1999/xlink" x="0px" y="0px"
	 viewBox="0 0 612 792" enable-background="new 0 0 612 792" xml:space="preserve">
<g>
	<rect x="77.7" y="146.5" fill="none" stroke="#999999" stroke-width="1.3" width="444.1" height="444.1"/>
	<line fill="none" stroke="#999999" stroke-width="1.3" x1="77.7" y1="516.7" x2="521.6" y2="516.7"/>
	<line fill="none" stroke="#999999" stroke-width="1.3" x1="77.7" y1="442.4" x2="521.6" y2="442.4"/>
	<line fill="none" stroke="#999999" stroke-width="1.3" x1="77.7" y1="368.6" x2="521.6" y2="368.6"/>
	<line fill="none" stroke="#999999" stroke-width="1.3" x1="77.7" y1="294.7" x2="521.6" y2="294.7"/>
	<line fill="none" stroke="#999999" stroke-width="1.3" x1="77.7" y1="220.4" x2="521.6" y2="220.4"/>
	<line fill="none" stroke="#999999" stroke-width="1.3" x1="447.7" y1="146.5" x2="447.7" y2="590.6"/>
	<line fill="none" stroke="#999999" stroke-width="1.3" x1="373.8" y1="146.5" x2="373.8" y2="590.6"/>
	<line fill="none" stroke="#999999" stroke-width="1.3" x1="299.7" y1="146.5" x2="299.7" y2="590.6"/>
	<line fill="none" stroke="#999999" stroke-width="1.3" x1="225.7" y1="146.5" x2="225.7" y2="590.6"/>
	<line fill="none" stroke="#999999" stroke-width="1.3" x1="151.6" y1="146.5" x2="151.6" y2="590.6"/>
</g>
<g enable-background="new    ">
	<path d="M86.5,39.7L82.5,33l-3.9,6.7h-5.4v-2.1c1.1-0.2,2.1-0.4,3-0.6l4.3-6.5l-4.1-6.3c-0.9,0-2.1-0.4-3-0.6v-2.1h5.4l3.7,6.5
		l3.9-6.5h5.2v2.1c-1.1,0.2-2.1,0.4-3,0.6l-3.9,6.3l4.3,6.5c0.9,0,2.1,0.4,3,0.6v2.1H86.5z"/>
</g>
<g enable-background="new    ">
	<path d="M-23.1,136.4l-6.3,17.4c-1.9,5.4-3.7,7.3-7.7,7.3c-0.7,0-1.7,0-2.4-0.2l0.2-3c0.7,0.2,1.5,0.4,2.4,0.4c1.9,0,3-0.9,4.3-4.5
		l0.7-2.1h-0.7l-5.4-15.5c-0.7,0-1.7-0.2-2.2-0.4V134h8.2v1.9c-0.7,0.2-1.5,0.4-2.2,0.4l2.6,7.7c0.6,1.7,0.9,3,1.3,4.5l0,0
		c0.4-1.3,0.9-3.2,1.7-5.2l2.4-6.9c-0.9,0-1.7-0.2-2.2-0.4V134h8v1.9C-21.4,136.2-22.2,136.4-23.1,136.4z"/>
</g>
<g enable-background="new    ">
	<path d="M84.2,101.1c-4.9,0-8.8-2.8-8.8-11c0-7.1,4.3-11.2,9.3-11.2c4.7,0,8.8,2.6,8.8,11C93.6,97.2,89.3,101.1,84.2,101.1z
		 M84.4,81.5c-3,0-5.6,2.6-5.6,8.2c0,6,2.2,8.6,5.8,8.6c3,0,5.6-2.4,5.6-8.2C90.2,84.1,87.8,81.5,84.4,81.5z"/>
</g>
<g enable-background="new    ">
	<path d="M149.2,100.7v-3h6.5V82.6l-6.2,4.1l-1.1-2.8l7.8-4.9h2.8v18.7h5.6v3H149.2z"/>
</g>
<g enable-background="new    ">
	<path d="M219.9,100.7v-2.6l5-4.7c4.5-3.9,5.6-5.4,5.6-7.8c0-2.4-1.3-3.9-4.5-3.9c-2.1,0-4.1,0.9-5.2,1.9l-0.7-2.8
		c1.9-1.1,3.9-1.9,6.5-1.9c4.9,0,7.3,2.8,7.3,6.3c0,3-1.5,5.4-5.6,8.8l-4.3,3.7h-0.2c1.7-0.2,5.6-0.2,11-0.2v3.2H219.9z"/>
</g>
<g enable-background="new    ">
	<path d="M296.5,104.1c-1.5,0-3.2-0.2-4.5-0.6l0.6-3c1.3,0.4,2.8,0.7,4.3,0.7c3.7,0,6.3-2.2,6.3-4.9c0-2.6-2.1-4.5-6-4.5
		c-1.3,0-2.2,0-3.2,0.2v-2.6h0.7c5,0,7.7-1.5,7.7-4.5c0-2.2-1.7-3.5-4.3-3.5c-2.1,0-3.5,0.6-5,1.3l-0.6-2.8c1.9-0.7,3.9-1.3,6.2-1.3
		c4.9,0,7.3,2.4,7.3,5.8c0,2.8-1.7,4.9-4.3,5.6l0,0c3,0.4,5.2,2.8,5.2,5.8C306.7,100.7,302.5,104.1,296.5,104.1z"/>
</g>
<g enable-background="new    ">
	<path d="M376.2,97.7v6H373v-6h-11l-0.2-2.6l9.9-15.9h4.5v15.5h4.1v3H376.2z M373,82.1L373,82.1l-8,12.7c2.1,0,6.7,0,8,0V82.1z"/>
</g>
<g enable-background="new    ">
	<path d="M439.7,104.1c-1.1,0-2.6-0.2-3.9-0.4l0.2-2.8c1.1,0.4,2.8,0.4,4.1,0.4c4.3,0,6.7-2.4,6.7-5.4c0-3-2.4-4.7-6.5-4.7
		c-1.5,0-2.8,0.2-3.7,0.2V79.1h12.7v3.2h-9.5v6.3c0.6,0,1.3,0,1.7,0c6,0,9,3,9,6.9C450.1,100.4,446,104.1,439.7,104.1z"/>
</g>
<g enable-background="new    ">
	<path d="M514.5,101.1c-5,0-8-3.7-8-10.3c0-10.3,5-14.6,11.9-14.6c0.7,0,1.5,0,2.1,0.2v2.8c-0.7-0.2-1.5-0.2-2.4-0.2
		c-4.7,0-7.3,2.8-8.2,7.7c-0.2,0.4-0.2,1.1-0.4,1.9l0,0c1.1-2.1,3.4-3.2,5.6-3.2c4.9,0,7.5,3.2,7.5,7.1
		C522.7,97.6,519.4,101.1,514.5,101.1z M514.7,88.2c-3,0-4.7,2.6-4.7,4.7c0,3,1.7,5.6,4.9,5.6c2.8,0,4.7-2.2,4.7-5.2
		C519.4,90.1,517.7,88.2,514.7,88.2z"/>
</g>
<circle fill="#808080" cx="151.6" cy="294.7" r="11.6"/>
<g enable-background="new    ">
	<path d="M28.4,162.7c-4.9,0-8.8-2.8-8.8-11c0-7.1,4.3-11.2,9.3-11.2c4.7,0,8.8,2.6,8.8,11C37.7,158.8,33.4,162.7,28.4,162.7z
		 M28.6,143.3c-3,0-5.6,2.6-5.6,8.2c0,6,2.2,8.6,5.8,8.6c3,0,5.6-2.4,5.6-8.2C34.4,145.9,32.1,143.3,28.6,143.3z"/>
</g>
<g enable-background="new    ">
	<path d="M21.7,234.2v-3h6.5v-15.1l-6.2,4.1l-1.1-2.8l7.8-4.9h2.8v18.7h5.6v3H21.7z"/>
</g>
<g enable-background="new    ">
	<path d="M20.9,305.9v-2.6l5-4.7c4.5-3.9,5.6-5.4,5.6-7.8c0-2.4-1.3-3.9-4.5-3.9c-2.1,0-4.1,0.9-5.2,1.9l-0.7-2.8
		c1.9-1.1,3.9-1.9,6.5-1.9c4.9,0,7.3,2.8,7.3,6.3c0,3-1.5,5.4-5.6,8.8l-4.3,3.7h-0.2c1.7-0.2,5.6-0.2,11-0.2v3.2H20.9z"/>
</g>
<g enable-background="new    ">
	<path d="M25.8,380.8c-1.5,0-3.2-0.2-4.5-0.6l0.6-3c1.3,0.4,2.8,0.7,4.3,0.7c3.7,0,6.3-2.2,6.3-4.9c0-2.6-2.1-4.5-6-4.5
		c-1.3,0-2.2,0-3.2,0.2v-2.6h0.7c5,0,7.7-1.5,7.7-4.5c0-2.2-1.7-3.5-4.3-3.5c-2.1,0-3.5,0.6-5,1.3l-0.6-2.8c1.9-0.7,3.9-1.3,6.2-1.3
		c4.9,0,7.3,2.4,7.3,5.8c0,2.8-1.7,4.9-4.3,5.6l0,0c3,0.4,5.2,2.8,5.2,5.8C35.9,377.4,31.8,380.8,25.8,380.8z"/>
</g>
<g enable-background="new    ">
	<path d="M33.6,446.1v6h-3.2v-6h-11l-0.2-2.6l9.9-15.9h4.5v15.5h4.1v3L33.6,446.1L33.6,446.1z M30.5,430.6L30.5,430.6l-8,12.7
		c2.1,0,6.7,0,8,0V430.6z"/>
</g>
<g enable-background="new    ">
	<path d="M25.6,524.1c-1.1,0-2.6-0.2-3.9-0.4l0.2-2.8c1.1,0.4,2.8,0.4,4.1,0.4c4.3,0,6.7-2.4,6.7-5.4c0-3-2.4-4.7-6.5-4.7
		c-1.5,0-2.8,0.2-3.7,0.2v-12.3h12.5v3.2h-9.5v6.3c0.6,0,1.3,0,1.7,0c6,0,9,3,9,6.9C36.1,520.4,31.8,524.1,25.6,524.1z"/>
</g>
<g enable-background="new    ">
	<path d="M28.8,592.8c-5,0-8-3.7-8-10.3c0-10.3,5-14.6,11.9-14.6c0.7,0,1.5,0,2.1,0.2v2.8c-0.7-0.2-1.5-0.2-2.4-0.2
		c-4.7,0-7.3,2.8-8.2,7.7c-0.2,0.4-0.2,1.1-0.4,1.9l0,0c1.1-2.1,3.4-3.2,5.6-3.2c4.9,0,7.5,3.2,7.5,7.1
		C36.8,589.5,33.6,592.8,28.8,592.8z M28.8,579.9c-3,0-4.7,2.6-4.7,4.7c0,3,1.7,5.6,4.9,5.6c2.8,0,4.7-2.2,4.7-5.2
		S31.9,579.9,28.8,579.9z"/>
</g>
<line fill="none" stroke="#000000" stroke-width="1.3" x1="79.6" y1="146.5" x2="65.4" y2="146.5"/>
<line fill="none" stroke="#000000" stroke-width="1.3" x1="79.6" y1="220.8" x2="65.4" y2="220.8"/>
<line fill="none" stroke="#000000" stroke-width="1.3" x1="79.6" y1="294.5" x2="65.4" y2="294.5"/>
<line fill="none" stroke="#000000" stroke-width="1.3" x1="79.6" y1="368.2" x2="65.4" y2="368.2"/>
<line fill="none" stroke="#000000" stroke-width="1.3" x1="79.6" y1="442.5" x2="65.4" y2="442.5"/>
<line fill="none" stroke="#000000" stroke-width="1.3" x1="79.6" y1="517.4" x2="65.4" y2="517.4"/>
<line fill="none" stroke="#000000" stroke-width="1.3" x1="79.6" y1="590" x2="65.4" y2="590"/>
<line fill="none" stroke="#000000" stroke-width="1.3" x1="521.1" y1="146.3" x2="521.1" y2="132.1"/>
<line fill="none" stroke="#000000" stroke-width="1.3" x1="446.8" y1="146.3" x2="446.8" y2="132.1"/>
<line fill="none" stroke="#000000" stroke-width="1.3" x1="373" y1="146.3" x2="373" y2="132.1"/>
<line fill="none" stroke="#000000" stroke-width="1.3" x1="299.1" y1="146.3" x2="299.1" y2="132.1"/>
<line fill="none" stroke="#000000" stroke-width="1.3" x1="225" y1="146.3" x2="225" y2="132.1"/>
<line fill="none" stroke="#000000" stroke-width="1.3" x1="149.9" y1="146.3" x2="149.9" y2="132.1"/>
<line fill="none" stroke="#000000" stroke-width="1.3" x1="78.2" y1="146.3" x2="78.2" y2="132.1"/>
<polyline fill="#FFFFFF" stroke="#000000" stroke-width="1.3" points="-22.2,282.2 -31,290.8 -39.7,282.2 "/>
<line fill="none" stroke="#000000" stroke-width="1.3" x1="-31" y1="290.8" x2="-31" y2="186.8"/>
<polyline fill="#FFFFFF" stroke="#000000" stroke-width="1.3" points="493.1,492.8 484.3,501.5 475.5,492.8 "/>
<line fill="none" stroke="#000000" stroke-width="1.3" x1="484.3" y1="501.5" x2="484.3" y2="450.4"/>
<polyline fill="#FFFFFF" stroke="#000000" stroke-width="1.3" points="475.5,317.8 484.3,309.1 493.1,317.8 "/>
<line fill="none" stroke="#000000" stroke-width="1.3" x1="484.3" y1="309.1" x2="484.3" y2="360.2"/>
<polyline fill="#FFFFFF" stroke="#000000" stroke-width="1.3" points="213.4,20.1 222.2,28.9 213.4,37.6 "/>
<line fill="none" stroke="#000000" stroke-width="1.3" x1="224.2" y1="28.9" x2="120.2" y2="28.9"/>
<polyline fill="#FFFFFF" stroke="#000000" stroke-width="1.3" points="418.6,542.1 427.3,550.8 418.6,559.4 "/>
<line fill="none" stroke="#000000" stroke-width="1.3" x1="429.4" y1="550.8" x2="358.5" y2="550.8"/>
<polyline fill="#FFFFFF" stroke="#000000" stroke-width="1.3" points="178.1,559.4 169.3,550.8 178.1,542.1 "/>
<line fill="none" stroke="#000000" stroke-width="1.3" x1="167.3" y1="550.8" x2="238.2" y2="550.8"/>
<g enable-background="new    ">
	<path d="M650.4,358.4c-4.1-0.7-6,2.1-6,7.8v4.9c1.1,0,2.2,0.2,3.2,0.4v1.9h-9.5v-1.9c0.9-0.2,2.1-0.4,3.2-0.4v-12.9
		c-0.9-0.2-2.1-0.4-3.2-0.4v-1.9c1.9-0.2,4.3-0.4,6.2-0.2c0,1.1-0.2,2.8-0.4,4.3l0,0c0.7-2.4,2.6-4.9,6.5-4.5L650.4,358.4z"/>
	<path d="M667.8,364.3h-11.6c-0.2,4.7,1.7,6.7,5.6,6.7c1.7,0,3.5-0.4,5-1.1l0.4,2.6c-1.9,0.7-3.9,1.1-6.2,1.1
		c-5.4,0-8.4-2.8-8.4-9.1c0-5.2,3-9.3,8-9.3c5,0,7.1,3.4,7.1,7.3C667.8,362.8,667.8,363.6,667.8,364.3z M660.5,357.6
		c-2.2,0-3.9,1.7-4.3,4.5h8.4C664.6,359.3,663.1,357.6,660.5,357.6z"/>
	<path d="M679,373.5c-4.5,0-8-2.1-8-8.6c0-5.8,3-9.7,8.8-9.7c1.5,0,3.2,0.2,4.3,0.6v5.2H682c-0.2-1.1-0.4-2.1-0.4-3
		c-0.6-0.2-1.5-0.4-2.4-0.4c-3.2,0-5,2.6-5,6.5c0,3.5,1.1,6.3,5.4,6.3c1.5,0,3-0.4,4.3-0.9l0.6,2.6
		C683.1,373.1,681.2,373.5,679,373.5z"/>
	<path d="M693.9,373.5c-3.7,0-4.9-1.5-4.9-5.4v-10.3h-3.7v-2.4h3.7v-5.8l3.2-0.9v6.7h5v2.4h-5v9.1c0,3,0.6,3.7,2.6,3.7
		c0.7,0,1.7-0.2,2.2-0.4l0.4,2.6C696.5,373.5,695,373.5,693.9,373.5z"/>
	<path d="M706.4,380.8c-4.3-6.7-5.2-12.3-5.2-17.7c0-5.2,1.3-11.4,5.2-17.7l2.2,1.1c-3,5-4.5,10.6-4.5,16.4c0,6.2,1.5,11.6,4.5,16.6
		L706.4,380.8z"/>
	<path d="M730.9,373.3l-3.9-6.7l-3.9,6.7h-5.4v-2.1c1.1-0.2,2.1-0.4,3-0.6l4.3-6.5l-4.1-6.3c-0.9,0-2.1-0.4-3-0.6v-2.1h5.4l3.7,6.5
		l3.9-6.5h5.2v2.1c-1.1,0.2-2.1,0.4-3,0.6l-3.9,6.3l4.3,6.5c0.9,0,2.1,0.4,3,0.6v2.1H730.9z"/>
	<path d="M746.9,378.7l-1.3-1.3c2.2-2.4,2.4-4.1,1.5-5.2c-0.9-1.3-0.2-3.2,1.5-3.2C751.4,369.2,752.5,373.7,746.9,378.7z"/>
	<path d="M776.8,357.8l-6.3,17.4c-1.9,5.4-3.7,7.3-7.7,7.3c-0.7,0-1.7,0-2.4-0.2l0.2-3c0.7,0.2,1.5,0.4,2.4,0.4c1.9,0,3-0.9,4.3-4.5
		l0.7-2.1h-0.7l-5.4-15.5c-0.7,0-1.7-0.2-2.2-0.4v-1.9h8.2v1.9c-0.7,0.2-1.5,0.4-2.2,0.4l2.6,7.7c0.6,1.7,0.9,3,1.3,4.5l0,0
		c0.4-1.3,0.9-3.2,1.7-5.2l2.4-6.9c-0.9,0-1.7-0.2-2.2-0.4v-1.9h8v1.9C778.3,357.6,777.6,357.8,776.8,357.8z"/>
	<path d="M789.3,378.7l-1.3-1.3c2.2-2.4,2.4-4.1,1.5-5.2c-0.9-1.3-0.2-3.2,1.5-3.2C793.8,369.2,794.9,373.7,789.3,378.7z"/>
	<path d="M829.6,357.8l-4.9,15.5h-3.7l-3.5-10.5c-0.4-1.1-0.7-2.2-0.9-3.5l0,0c-0.4,1.5-0.7,3-1.3,4.5l-3,9.5h-3.7l-4.7-15.5
		c-0.7,0-1.5-0.2-2.2-0.4v-1.9h8.2v1.9c-0.7,0.2-1.5,0.4-2.4,0.4l2.2,8c0.4,1.5,0.7,3,1.1,4.1l0,0c0.4-1.5,0.7-3,1.3-4.3l3.2-10.1
		h3.4l3.2,10.1c0.6,2.1,0.9,3.2,1.3,4.3l0,0c0.4-1.3,0.6-2.2,1.1-3.9l2.2-8c-0.7,0-1.7-0.2-2.4-0.4v-1.9h8v1.9
		C831.3,357.6,830.6,357.8,829.6,357.8z"/>
	<path d="M833.2,373.3v-1.9c0.9-0.2,2.1-0.4,3.2-0.4v-12.9c-0.9-0.2-2.1-0.4-3.2-0.4v-1.9c1.9-0.2,4.3-0.4,6.3-0.2v15.5
		c1.1,0,2.1,0.2,3,0.4v1.9h-9.3V373.3z M838,351.8c-1.1,0-2.2-0.9-2.2-2.1c0-1.1,0.9-2.1,2.2-2.1c1.1,0,2.1,0.9,2.1,2.1
		C840.1,350.9,839.2,351.8,838,351.8z"/>
	<path d="M857.1,373.3c0-0.9,0-2.6,0.4-3.5l0,0c-0.9,2.4-3.2,3.9-6,3.9c-4.3,0-6.5-3.2-6.5-8.4c0-6.2,3.5-10.1,9.1-10.1
		c0.9,0,1.9,0,3,0.2v-5.8c-0.9-0.2-2.1-0.4-3.2-0.4v-1.9c1.9-0.2,4.3-0.4,6.3-0.2v23.5c0.9,0.2,2.1,0.4,3,0.4v1.9
		C861.6,373.3,859,373.3,857.1,373.3z M856.9,358.2c-1.1-0.2-2.2-0.4-3.2-0.4c-3.4,0-5.6,2.1-5.6,7.1c0,3.9,1.3,6,3.9,6
		c3.2,0,4.9-3.7,4.9-6.9V358.2z"/>
	<path d="M871.8,373.5c-3.7,0-4.9-1.5-4.9-5.4v-10.3h-3.7v-2.4h3.7v-5.8l3.2-0.9v6.7h5v2.4h-5v9.1c0,3,0.6,3.7,2.6,3.7
		c0.7,0,1.7-0.2,2.2-0.4l0.4,2.6C874.3,373.5,873,373.5,871.8,373.5z"/>
	<path d="M891.4,373.3v-11.4c0-2.4-0.7-3.9-3-3.9c-3,0-5,3-5,6.9v6.2c0.9,0,2.1,0.2,2.8,0.4v1.9h-9.1v-1.9c0.9-0.2,2.1-0.4,3-0.4
		v-21.3c-0.9-0.2-2.1-0.4-3.2-0.4v-1.9c1.9-0.2,4.3-0.4,6.3-0.2v8.4c0,1.1,0,2.6-0.4,3.5l0,0c1.1-2.4,3.2-3.9,6.2-3.9
		c4.1,0,5.4,2.6,5.4,5.8v10.1c0.9,0,2.1,0.2,3,0.4v1.9h-6V373.3z"/>
	<path d="M908.4,378.7l-1.3-1.3c2.2-2.4,2.4-4.1,1.5-5.2c-0.9-1.3-0.2-3.2,1.5-3.2C912.9,369.2,914,373.7,908.4,378.7z"/>
	<path d="M935.5,373.3v-11.4c0-2.4-0.7-3.9-3-3.9c-3,0-5,3-5,6.9v6.2c0.9,0,2.1,0.2,2.8,0.4v1.9h-9.1v-1.9c0.9-0.2,2.1-0.4,3-0.4
		v-21.3c-0.9-0.2-2.1-0.4-3.2-0.4v-1.9c1.9-0.2,4.3-0.4,6.3-0.2v8.4c0,1.1,0,2.6-0.4,3.5l0,0c1.1-2.4,3.2-3.9,6.2-3.9
		c4.1,0,5.4,2.6,5.4,5.8v10.1c0.9,0,2.1,0.2,3,0.4v1.9h-6V373.3z"/>
	<path d="M958.8,364.3h-11.6c-0.2,4.7,1.7,6.7,5.6,6.7c1.7,0,3.5-0.4,5-1.1l0.4,2.6c-1.9,0.7-3.9,1.1-6.2,1.1
		c-5.4,0-8.4-2.8-8.4-9.1c0-5.2,3-9.3,8-9.3c5,0,7.1,3.4,7.1,7.3C959,362.8,959,363.6,958.8,364.3z M951.7,357.6
		c-2.2,0-3.9,1.7-4.3,4.5h8.4C955.8,359.3,954.2,357.6,951.7,357.6z"/>
	<path d="M961.6,373.3v-1.9c0.9-0.2,2.1-0.4,3.2-0.4v-12.9c-0.9-0.2-2.1-0.4-3.2-0.4v-1.9c1.9-0.2,4.3-0.4,6.3-0.2v15.5
		c1.1,0,2.1,0.2,3,0.4v1.9h-9.3V373.3z M966.5,351.8c-1.1,0-2.2-0.9-2.2-2.1c0-1.1,0.9-2.1,2.2-2.1c1.1,0,2.1,0.9,2.1,2.1
		C968.5,350.9,967.6,351.8,966.5,351.8z"/>
	<path d="M980.7,382.4c-4.7,0-7.5-1.9-7.5-5.4c0-2.1,1.3-3.9,3-4.7c-1.1-0.4-1.7-1.5-1.7-2.6c0-1.3,0.7-2.4,2.1-3
		c-1.7-0.9-2.6-2.6-2.6-4.9c0-3.5,2.6-6.7,7.5-6.7c0.9,0,1.7,0.2,2.4,0.4h6v2.6h-3c0.9,0.7,1.5,1.9,1.5,3.4c0,3.7-2.4,6.5-7.5,6.5
		c-0.7,0-1.3,0-1.9-0.2c-0.7,0.4-1.1,0.9-1.1,1.5c0,0.9,0.9,1.3,3,1.3l3.2,0.2c3.9,0.2,6,1.9,6,5.2
		C990,379.5,986.3,382.4,980.7,382.4z M983.1,373.1l-3.4-0.2c-0.4,0-0.7,0-1.1,0c-1.3,0.9-2.2,2.2-2.2,3.5c0,2.1,2.1,3.4,4.9,3.4
		c3.5,0,5.6-1.7,5.6-3.9C986.8,374.4,985.5,373.3,983.1,373.1z M981,357.6c-2.6,0-4.3,1.7-4.3,3.9c0,2.4,1.5,3.9,4.1,3.9
		c2.6,0,4.1-1.5,4.1-3.9C985.2,359.1,983.7,357.6,981,357.6z"/>
	<path d="M1006.1,373.3v-11.4c0-2.4-0.7-3.9-3-3.9c-3,0-5,3-5,6.9v6.2c0.9,0,2.1,0.2,2.8,0.4v1.9h-9.1v-1.9c0.9-0.2,2.1-0.4,3-0.4
		v-21.3c-0.9-0.2-2.1-0.4-3.2-0.4v-1.9c1.9-0.2,4.3-0.4,6.3-0.2v8.4c0,1.1,0,2.6-0.4,3.5l0,0c1.1-2.4,3.2-3.9,6.2-3.9
		c4.1,0,5.4,2.6,5.4,5.8v10.1c0.9,0,2.1,0.2,3,0.4v1.9h-6V373.3z"/>
	<path d="M1021,373.5c-3.7,0-4.9-1.5-4.9-5.4v-10.3h-3.7v-2.4h3.7v-5.8l3.2-0.9v6.7h5v2.4h-5v9.1c0,3,0.6,3.7,2.6,3.7
		c0.7,0,1.7-0.2,2.2-0.4l0.4,2.6C1023.6,373.5,1022.1,373.5,1021,373.5z"/>
	<path d="M1036.9,380.8l-2.2-1.1c3-5,4.5-10.6,4.5-16.4c0-6.2-1.5-11.6-4.5-16.6l2.4-1.1c4.1,6.7,5.2,12.3,5.2,17.5
		C1042.1,368.1,1041,374.2,1036.9,380.8z"/>
	<path d="M1056.3,378.7l-1.3-1.3c2.2-2.4,2.4-4.1,1.5-5.2c-0.9-1.3-0.2-3.2,1.5-3.2C1060.6,369.2,1061.7,373.7,1056.3,378.7z
		 M1058,363c-1.3,0-2.2-0.9-2.2-2.2c0-1.3,0.9-2.2,2.2-2.2c1.3,0,2.2,0.9,2.2,2.2C1060.2,362.1,1059.3,363,1058,363z"/>
</g>
<g enable-background="new    ">
	<path d="M174,281.8c-6-5.4-8.8-11.2-8.8-18.1c0-7.3,3.5-13.4,9-18.3l1.9,1.9c-4.9,4.7-7.5,10.3-7.5,16.1c0,6,2.4,11.4,7.5,16.4
		L174,281.8z"/>
	<path d="M184.5,273.6v-2.8h6.5v-15.1l-6.2,4.1l-1.1-2.8l8-4.9h2.8v18.7h5.6v3h-15.7V273.6z"/>
	<path d="M207.2,278.5c3.7-0.9,4.9-2.6,4.9-3.9c0-2.2-1.9-2.2-1.9-4.3c0-1.5,1.1-2.6,2.6-2.6c2.2,0,3.4,2.2,3.4,4.5
		c0,4.5-3,7.1-8.2,8.4L207.2,278.5z"/>
	<path d="M226.8,273.6V271l5-4.7c4.5-3.9,5.6-5.4,5.6-7.8c0-2.4-1.3-3.9-4.5-3.9c-2.1,0-4.1,0.9-5.2,1.9l-0.7-2.8
		c1.9-1.1,3.9-1.9,6.5-1.9c4.9,0,7.3,2.8,7.3,6.3c0,3-1.5,5.4-5.6,8.8l-4.3,3.7h-0.2c1.7-0.2,5.6-0.2,11-0.2v3.2H226.8z"/>
	<path d="M252.4,245.4c6,5.6,8.8,11.2,8.8,18.1c0,7.3-3.5,13.4-9,18.3l-1.9-1.9c4.9-4.7,7.5-10.3,7.5-16.1c0-6-2.4-11.6-7.5-16.4
		L252.4,245.4z"/>
</g>
<line fill="none" stroke="#000000" stroke-width="2" x1="149.4" y1="295.8" x2="447.7" y2="295.8"/>
<line fill="none" stroke="#000000" stroke-width="2" x1="149.4" y1="515" x2="447.7" y2="515"/>
<line fill="none" stroke="#000000" stroke-width="2" x1="445.8" y1="516.7" x2="445.8" y2="294.7"/>
<line fill="none" stroke="#000000" stroke-width="2" x1="151.1" y1="516.7" x2="151.1" y2="294.7"/>
<g enable-background="new    ">
	<path fill="#808080" d="M90.8,691v-1.9c0.9-0.2,2.1-0.4,3.2-0.4v-19.4c-1.1,0-2.2-0.2-3.2-0.4v-1.9h15.7v5.6h-2.2
		c-0.2-1.1-0.4-2.2-0.4-3h-6.5v8h5.2c0.2-0.9,0.4-1.7,0.6-2.4h2.1v7.3h-2.1c-0.2-0.7-0.4-1.7-0.6-2.4h-5.2v8.6h6.5
		c0.2-0.9,0.4-2.1,0.6-3.2h2.2v5.8H90.8V691z"/>
	<path fill="#808080" d="M122.3,691l-3.9-6.7l-3.9,6.7H109V689c1.1-0.2,2.1-0.4,3-0.6l4.3-6.5l-4.1-6.3c-0.9,0-2.1-0.4-3-0.6v-2.1
		h5.4l3.7,6.5l3.9-6.5h5.2v2.1c-1.1,0.2-2.1,0.4-3,0.6l-3.9,6.3l4.3,6.5c0.9,0,2.1,0.4,3,0.6v2.1H122.3z"/>
	<path fill="#808080" d="M140.8,691c0-1.3,0-2.6,0.2-3.5l0,0c-0.9,2.2-3.2,3.9-6,3.9c-3,0-4.9-1.9-4.9-4.7c0-3.9,3.9-6.2,10.6-6.2
		v-1.3c0-2.4-0.9-3.9-3.7-3.9c-1.1,0-2.2,0.2-3.4,0.6c0,0.9-0.2,1.9-0.4,3h-2.1V674c1.9-0.6,3.9-0.9,6-0.9c5.2,0,6.7,2.4,6.7,6v9.7
		c0.9,0.2,2.1,0.4,3,0.4v1.9C145.1,691,142.6,691.2,140.8,691z M140.6,682.8c-5.6,0-7.5,1.3-7.5,3.4c0,1.5,1.1,2.6,2.8,2.6
		c2.8,0,4.9-2.8,4.9-5.6v-0.4H140.6z"/>
	<path fill="#808080" d="M173.8,691v-11.4c0-2.4-0.6-4.1-2.8-4.1c-2.6,0-5,2.6-5,7.1v6c0.9,0,2.1,0.2,3,0.4v1.9h-6.2v-11.2
		c0-2.2-0.4-4.1-3-4.1s-5,3-5,7.1v6c0.9,0,2.1,0.2,2.8,0.4v1.9h-9.1V689c0.9-0.2,2.1-0.4,3.2-0.4v-12.9c-0.9-0.2-2.1-0.4-3.2-0.4
		v-1.9c1.9-0.2,4.3-0.4,6.3-0.2c0,1.1-0.2,2.6-0.4,3.7l0,0c0.9-2.4,3.4-4.1,6.2-4.1c3.7,0,4.9,2.6,4.9,4.1c0.7-1.7,2.6-4.1,6.2-4.1
		c3.4,0,5.2,1.9,5.2,5.8v9.9c1.1,0,2.1,0.2,3,0.4v1.9h-6V691z"/>
	<path fill="#808080" d="M190.3,691.2c-1.1,0-2.1,0-3-0.2v6.5c1.1,0,2.2,0.2,3.2,0.4v1.9h-9.3v-1.9c0.9-0.2,1.9-0.4,3-0.4v-21.7
		c-0.9-0.2-2.1-0.4-3-0.4v-1.9c1.7-0.2,4.1-0.4,6.2-0.2c0,0.9-0.2,2.6-0.4,3.5l0,0c0.9-2.4,3.2-3.9,6-3.9c4.1,0,6.5,3,6.5,8.4
		C199.4,687.7,196,691.2,190.3,691.2z M192.1,675.5c-3.2,0-4.9,3.7-4.9,6.9v5.8c0.9,0.4,2.1,0.4,3.2,0.4c3.4,0,5.6-2.1,5.6-7.1
		C196,677.8,194.7,675.5,192.1,675.5z"/>
	<path fill="#808080" d="M201.6,691v-1.9c0.9-0.2,2.1-0.4,3-0.4v-21.3c-0.9-0.2-2.1-0.4-3.2-0.4v-1.9c1.9-0.2,4.3-0.4,6.3-0.2v23.7
		c1.1,0,2.1,0.2,3,0.4v1.9H201.6z"/>
	<path fill="#808080" d="M227.8,682.1H216c-0.2,4.7,1.7,6.7,5.6,6.7c1.7,0,3.5-0.4,5-1.1l0.4,2.6c-1.9,0.7-3.9,1.1-6.2,1.1
		c-5.4,0-8.4-2.8-8.4-9.1c0-5.2,3-9.3,8-9.3c5,0,7.1,3.4,7.1,7.3C227.8,680.6,227.8,681.3,227.8,682.1z M220.5,675.3
		c-2.2,0-3.9,1.7-4.3,4.5h8.4C224.6,677,223.1,675.3,220.5,675.3z"/>
	<path fill="#808080" d="M235.2,680.9c-1.3,0-2.2-0.9-2.2-2.2s0.9-2.2,2.2-2.2s2.2,0.9,2.2,2.2C237.5,679.8,236.4,680.9,235.2,680.9
		z M235.2,691.4c-1.3,0-2.2-0.9-2.2-2.2s0.9-2.2,2.2-2.2s2.2,0.9,2.2,2.2C237.5,690.3,236.4,691.4,235.2,691.4z"/>
</g>
<g enable-background="new    ">
	<path d="M269.4,676.1c-4.1-0.7-6,2.1-6,7.8v4.9c1.1,0,2.2,0.2,3.2,0.4v1.9h-9.5v-1.9c0.9-0.2,2.1-0.4,3.2-0.4v-12.9
		c-0.9-0.2-2.1-0.4-3.2-0.4v-1.9c1.9-0.2,4.3-0.4,6.2-0.2c0,1.1-0.2,2.8-0.4,4.3l0,0c0.7-2.4,2.6-4.9,6.5-4.5V676.1z"/>
	<path d="M286.6,682.1H275c-0.2,4.7,1.7,6.7,5.6,6.7c1.7,0,3.5-0.4,5-1.1l0.4,2.6c-1.9,0.7-3.9,1.1-6.2,1.1c-5.4,0-8.4-2.8-8.4-9.1
		c0-5.2,3-9.3,8-9.3c5,0,7.1,3.4,7.1,7.3C286.6,680.6,286.6,681.3,286.6,682.1z M279.5,675.3c-2.2,0-3.9,1.7-4.3,4.5h8.4
		C283.4,677,281.9,675.3,279.5,675.3z"/>
	<path d="M297.8,691.4c-4.5,0-8-2.1-8-8.6c0-5.8,3-9.7,8.8-9.7c1.5,0,3.2,0.2,4.3,0.6v5.2h-2.1c-0.2-1.1-0.4-2.1-0.4-3
		c-0.6-0.2-1.5-0.4-2.4-0.4c-3.2,0-5,2.6-5,6.5c0,3.5,1.1,6.3,5.4,6.3c1.5,0,3-0.4,4.3-0.9l0.6,2.6
		C301.9,690.8,300,691.4,297.8,691.4z"/>
	<path d="M312.9,691.4c-3.7,0-4.9-1.5-4.9-5.4v-10.3h-3.7v-2.4h3.7v-5.8l3.2-0.9v6.7h5v2.4h-5v9.1c0,3,0.6,3.7,2.6,3.7
		c0.7,0,1.7-0.2,2.2-0.4l0.4,2.6C315.3,691.2,314,691.4,312.9,691.4z"/>
	<path d="M340,699.1c-6-5.4-8.8-11.2-8.8-18.1c0-7.3,3.5-13.4,9-18.3l1.9,1.9c-4.9,4.7-7.5,10.3-7.5,16.1c0,6,2.4,11.4,7.5,16.4
		L340,699.1z"/>
	<path d="M350.6,691v-3h6.5v-15.1L351,677l-1.1-2.8l7.8-4.9h2.8V688h5.6v3L350.6,691L350.6,691z"/>
	<path d="M373.4,695.7c3.7-0.9,4.9-2.6,4.9-3.9c0-2.2-1.9-2.2-1.9-4.3c0-1.5,1.1-2.6,2.6-2.6c2.2,0,3.4,2.2,3.4,4.5
		c0,4.5-3,7.1-8.2,8.4L373.4,695.7z"/>
	<path d="M392.8,691v-2.6l5-4.7c4.5-3.9,5.6-5.4,5.6-7.8c0-2.4-1.3-3.9-4.5-3.9c-2.1,0-4.1,0.9-5.2,1.9l-0.7-2.8
		c1.9-1.1,3.9-1.9,6.5-1.9c4.9,0,7.3,2.8,7.3,6.3c0,3-1.5,5.4-5.6,8.8l-4.3,3.7h-0.2c1.7-0.2,5.6-0.2,11-0.2v3.2L392.8,691
		L392.8,691z"/>
	<path d="M416.3,695.7c3.7-0.9,4.9-2.6,4.9-3.9c0-2.2-1.9-2.2-1.9-4.3c0-1.5,1.1-2.6,2.6-2.6c2.2,0,3.4,2.2,3.4,4.5
		c0,4.5-3,7.1-8.2,8.4L416.3,695.7z"/>
	<path d="M448.6,688v6h-3.2v-6h-11l-0.2-2.6l9.9-15.9h4.5v15.5h4.1v3L448.6,688L448.6,688z M445.5,672.5L445.5,672.5l-8,12.7
		c2.1,0,6.7,0,8,0V672.5z"/>
	<path d="M459.3,695.7c3.7-0.9,4.9-2.6,4.9-3.9c0-2.2-1.9-2.2-1.9-4.3c0-1.5,1.1-2.6,2.6-2.6c2.2,0,3.4,2.2,3.4,4.5
		c0,4.5-3,7.1-8.2,8.4L459.3,695.7z"/>
	<path d="M483.7,694.4c-1.5,0-3.2-0.2-4.5-0.6l0.6-3c1.3,0.4,2.8,0.7,4.3,0.7c3.7,0,6.3-2.2,6.3-4.9c0-2.6-2.1-4.5-6-4.5
		c-1.3,0-2.2,0-3.2,0.2v-2.6h0.7c5,0,7.7-1.5,7.7-4.5c0-2.2-1.7-3.5-4.3-3.5c-2.1,0-3.5,0.6-5,1.3l-0.6-2.8c1.9-0.7,3.9-1.3,6.2-1.3
		c4.9,0,7.3,2.4,7.3,5.8c0,2.8-1.7,4.9-4.3,5.6l0,0c3,0.4,5.2,2.8,5.2,5.8C494,691,489.7,694.4,483.7,694.4z"/>
	<path d="M504.4,662.8c6,5.6,8.8,11.2,8.8,18.1c0,7.3-3.5,13.4-9,18.3l-1.9-1.9c4.9-4.7,7.5-10.3,7.5-16.1c0-6-2.4-11.6-7.5-16.4
		L504.4,662.8z"/>
	<path d="M530.8,696.6l-1.3-1.3c2.2-2.4,2.4-4.1,1.5-5.2c-0.9-1.3-0.2-3.2,1.5-3.2C535.1,686.9,536.2,691.6,530.8,696.6z
		 M532.4,680.9c-1.3,0-2.2-0.9-2.2-2.2s0.9-2.2,2.2-2.2s2.2,0.9,2.2,2.2C534.7,679.8,533.6,680.9,532.4,680.9z"/>
</g>
<g enable-background="new    ">
	<path d="M272.2,543.2l-4.9,15.5h-3.7l-3.5-10.5c-0.4-1.1-0.7-2.2-0.9-3.5l0,0c-0.4,1.5-0.7,3-1.3,4.5l-3,9.5h-3.7l-4.7-15.5
		c-0.7,0-1.5-0.2-2.2-0.4v-1.9h8.2v1.9c-0.7,0.2-1.5,0.4-2.4,0.4l2.2,8c0.4,1.5,0.7,3,1.1,4.1l0,0c0.4-1.5,0.7-3,1.3-4.3l3.2-10.1
		h3.4l3.2,10.1c0.6,2.1,0.9,3.2,1.3,4.3l0,0c0.4-1.3,0.6-2.2,1.1-3.9l2.2-8c-0.7,0-1.7-0.2-2.4-0.4v-1.9h8v1.9
		C273.7,543,273,543.2,272.2,543.2z"/>
	<path d="M275.8,558.7v-1.9c0.9-0.2,2.1-0.4,3.2-0.4v-13.1c-0.9-0.2-2.1-0.4-3.2-0.4v-1.9c1.9-0.2,4.3-0.4,6.3-0.2v15.5
		c1.1,0,2.1,0.2,3,0.4v1.9H275.8z M280.4,537.4c-1.1,0-2.2-0.9-2.2-2.1s0.9-2.1,2.2-2.1c1.1,0,2.1,0.9,2.1,2.1
		C282.7,536.5,281.5,537.4,280.4,537.4z"/>
	<path d="M299.5,558.7c0-0.9,0-2.6,0.4-3.5l0,0c-0.9,2.4-3.2,3.9-6,3.9c-4.3,0-6.5-3.2-6.5-8.4c0-6.2,3.5-10.1,9.1-10.1
		c0.9,0,1.9,0,3,0.2V535c-0.9-0.2-2.1-0.4-3.2-0.4v-1.9c1.9-0.2,4.3-0.4,6.3-0.2v23.5c0.9,0.2,2.1,0.4,3,0.4v1.9
		C303.9,558.7,301.5,558.9,299.5,558.7z M299.5,543.5c-1.1-0.2-2.2-0.4-3.2-0.4c-3.4,0-5.6,2.1-5.6,7.1c0,3.9,1.3,6,3.9,6
		c3.2,0,4.9-3.7,4.9-6.9L299.5,543.5L299.5,543.5z"/>
	<path d="M314.2,559c-3.7,0-4.9-1.5-4.9-5.4v-10.3h-3.7v-2.4h3.7v-5.8l3.2-0.9v6.7h5v2.4h-5v9.1c0,3,0.6,3.7,2.6,3.7
		c0.7,0,1.7-0.2,2.2-0.4l0.4,2.6C316.6,558.9,315.3,559,314.2,559z"/>
	<path d="M334,558.7v-11.4c0-2.4-0.7-4.1-3-4.1c-3,0-5,3-5,6.9v6.2c0.9,0,2.1,0.2,2.8,0.4v1.9h-9.1v-1.9c0.9-0.2,2.1-0.4,3-0.4V535
		c-0.9-0.2-2.1-0.4-3.2-0.4v-1.9c1.9-0.2,4.3-0.4,6.3-0.2v8.4c0,1.1,0,2.6-0.4,3.5l0,0c1.1-2.4,3.2-3.9,6.2-3.9
		c4.1,0,5.4,2.6,5.4,5.8v10.1c0.9,0,2.1,0.2,3,0.4v1.9L334,558.7L334,558.7z"/>
</g>
<g enable-background="new    ">
	<path d="M477,417.3V406c0-2.4-0.7-4.1-3-4.1c-3,0-5,3-5,6.9v6.2c0.9,0,2.1,0.2,2.8,0.4v1.9h-9.1v-1.9c0.9-0.2,2.1-0.4,3-0.4v-21.3
		c-0.9-0.2-2.1-0.4-3.2-0.4v-1.9c1.9-0.2,4.3-0.4,6.3-0.2v8.4c0,1.1,0,2.6-0.4,3.5l0,0c1.1-2.4,3.2-3.9,6.2-3.9
		c4.1,0,5.4,2.6,5.4,5.8v10.1c0.9,0,2.1,0.2,3,0.4v1.9L477,417.3L477,417.3z"/>
	<path d="M500.3,408.4h-11.8c-0.2,4.7,1.7,6.7,5.6,6.7c1.7,0,3.5-0.4,5-1.1l0.4,2.6c-1.9,0.7-3.9,1.1-6.2,1.1
		c-5.4,0-8.4-2.8-8.4-9.1c0-5.2,3-9.3,8-9.3c5,0,7.1,3.4,7.1,7.3C500.3,406.9,500.3,407.6,500.3,408.4z M493.1,401.7
		c-2.2,0-3.9,1.7-4.3,4.5h8.4C497.2,403.3,495.7,401.7,493.1,401.7z"/>
	<path d="M503.1,417.3v-1.9c0.9-0.2,2.1-0.4,3.2-0.4v-12.9c-0.9-0.2-2.1-0.4-3.2-0.4V400c1.9-0.2,4.3-0.4,6.3-0.2v15.5
		c1.1,0,2.1,0.2,3,0.4v1.9h-9.3V417.3z M507.8,395.9c-1.1,0-2.2-0.9-2.2-2.1s0.9-2.1,2.2-2.1c1.1,0,2.1,0.9,2.1,2.1
		C509.9,394.9,508.9,395.9,507.8,395.9z"/>
	<path d="M522,426.5c-4.7,0-7.5-1.9-7.5-5.4c0-2.1,1.3-3.9,3-4.7c-1.1-0.4-1.7-1.5-1.7-2.6c0-1.3,0.7-2.4,2.1-3
		c-1.7-0.9-2.6-2.6-2.6-4.9c0-3.5,2.6-6.7,7.5-6.7c0.9,0,1.7,0.2,2.4,0.4h6v2.6h-3c0.9,0.7,1.5,1.9,1.5,3.4c0,3.7-2.4,6.5-7.5,6.5
		c-0.7,0-1.3,0-1.9-0.2c-0.7,0.4-1.1,0.9-1.1,1.5c0,0.9,0.9,1.3,3,1.3l3.2,0.2c3.9,0.2,6,1.9,6,5.2
		C531.3,423.5,527.6,426.5,522,426.5z M524.4,417.2l-3.4-0.2c-0.4,0-0.7,0-1.1,0c-1.3,0.9-2.2,2.2-2.2,3.5c0,2.1,2.1,3.4,4.9,3.4
		c3.5,0,5.6-1.7,5.6-3.9C528.2,418.5,527,417.3,524.4,417.2z M522.6,401.7c-2.6,0-4.3,1.7-4.3,3.9c0,2.4,1.5,3.9,4.1,3.9
		s4.1-1.5,4.1-3.9C526.5,403.2,525,401.7,522.6,401.7z"/>
	<path d="M547.4,417.3V406c0-2.4-0.7-4.1-3-4.1c-3,0-5,3-5,6.9v6.2c0.9,0,2.1,0.2,2.8,0.4v1.9H533v-1.9c0.9-0.2,2.1-0.4,3-0.4v-21.3
		c-0.9-0.2-2.1-0.4-3.2-0.4v-1.9c1.9-0.2,4.3-0.4,6.3-0.2v8.4c0,1.1,0,2.6-0.4,3.5l0,0c1.1-2.4,3.2-3.9,6.2-3.9
		c4.1,0,5.4,2.6,5.4,5.8v10.1c0.9,0,2.1,0.2,3,0.4v1.9L547.4,417.3L547.4,417.3z"/>
	<path d="M562.5,417.5c-3.7,0-4.9-1.5-4.9-5.4v-10.3h-3.7v-2.4h3.7v-5.8l3.2-0.9v6.7h5v2.4h-5v9.1c0,3,0.6,3.7,2.6,3.7
		c0.7,0,1.7-0.2,2.2-0.4l0.4,2.6C564.9,417.5,563.6,417.5,562.5,417.5z"/>
</g>
</svg>
