<?xml version="1.0" encoding="utf-8"?>
<!-- Generator: Adobe Illustrator 18.0.0, SVG Export Plug-In . SVG Version: 6.00 Build 0)  -->
<!DOCTYPE svg PUBLIC "-//W3C//DTD SVG 1.1//EN" "http://www.w3.org/Graphics/SVG/1.1/DTD/svg11.dtd">
<svg version="1.1" id="Layer_1" xmlns="http://www.w3.org/2000/svg" xmlns:xlink="http://www.w3.org/1999/xlink" x="0px" y="0px"
	 viewBox="0 0 612 792" enable-background="new 0 0 612 792" xml:space="preserve">
<rect x="656.1" y="41.2" opacity="0.5" fill="#FFFF00" enable-background="new    " width="703.1" height="706.2"/>
<rect x="-145" y="394.1" opacity="0.5" fill="#FFFF00" enable-background="new    " width="353.3" height="353.3"/>
<g>
	<rect x="-494.9" y="44" fill="none" stroke="#999999" stroke-width="1.3" width="703.1" height="703.1"/>
	<line fill="none" stroke="#999999" stroke-width="1.3" x1="-494.9" y1="630.1" x2="208.3" y2="630.1"/>
	<line fill="none" stroke="#999999" stroke-width="1.3" x1="-494.9" y1="512.4" x2="208.3" y2="512.4"/>
	<line fill="none" stroke="#999999" stroke-width="1.3" x1="-494.9" y1="395.6" x2="208.3" y2="395.6"/>
	<line fill="none" stroke="#999999" stroke-width="1.3" x1="-494.9" y1="278.5" x2="208.3" y2="278.5"/>
	<line fill="none" stroke="#999999" stroke-width="1.3" x1="-494.9" y1="161.3" x2="208.3" y2="161.3"/>
	<line fill="none" stroke="#999999" stroke-width="1.3" x1="90.8" y1="44" x2="90.8" y2="747.4"/>
	<line fill="none" stroke="#999999" stroke-width="1.3" x1="-25.8" y1="44" x2="-25.8" y2="747.4"/>
	<line fill="none" stroke="#999999" stroke-width="1.3" x1="-143.3" y1="44" x2="-143.3" y2="747.4"/>
	<line fill="none" stroke="#999999" stroke-width="1.3" x1="-260.3" y1="44" x2="-260.3" y2="747.4"/>
	<line fill="none" stroke="#999999" stroke-width="1.3" x1="-377.4" y1="44" x2="-377.4" y2="747.4"/>
</g>
<g enable-background="new    ">
	<path d="M-140.2,2.8l-6.3-10.6l-6.3,10.6h-8.7v-3c1.7-0.4,3.3-0.7,5-0.7l6.9-10.2l-6.7-10.2c-1.7,0-3.3-0.4-4.6-0.7v-3h8.7
		l5.9,10.2l6.3-10.2h8.2v3c-1.7,0.4-3.3,0.7-5,0.7l-6.3,10l6.9,10.6c1.7,0,3,0.4,4.6,0.7v3h-8.7V2.8z"/>
</g>
<g enable-background="new    ">
	<path d="M263.1,377.8l-10,27.5c-3,8.7-5.9,11.5-12.1,11.5c-1.1,0-2.6,0-3.9-0.4l0.4-4.6c1.3,0.4,2.4,0.7,3.7,0.7c3,0,5-1.7,6.9-6.9
		l1.3-3.3h-1.3l-8.7-24.5c-1.3,0-2.6-0.4-3.7-0.7v-3h13v3c-1.1,0.4-2.4,0.7-3.7,0.7l4.3,12.1c1.1,2.6,1.7,4.6,2.4,6.9l0,0
		c0.4-2,1.7-5.2,2.6-8.2l3.7-10.8c-1.3,0-2.6-0.4-3.7-0.7v-3H267v3C265.9,377.6,264.6,377.8,263.1,377.8z"/>
</g>
<polyline fill="#FFFFFF" stroke="#000000" stroke-width="1.3" points="-156.1,59 -142.2,45.1 -128.1,59 "/>
<polyline fill="#FFFFFF" stroke="#000000" stroke-width="1.3" points="190.1,381.7 204,395.6 190.1,409.7 "/>
<line fill="none" stroke="#000000" stroke-width="1.3" x1="204" y1="395.6" x2="-494.9" y2="395.6"/>
<line fill="none" stroke="#000000" stroke-width="1.3" x1="-145.7" y1="46.4" x2="-145.7" y2="745"/>
<polyline fill="none" stroke="#000000" stroke-width="1.3" points="-129.6,735.5 -143.5,748.9 -157.6,735.5 "/>
<polyline fill="none" stroke="#000000" stroke-width="1.3" points="-481,409.7 -494.9,395.6 -481,381.7 "/>
<g enable-background="new    ">
	<path d="M-281.6,884.6v-3c1.3-0.4,3.3-0.7,5-0.7v-30.8c-1.7,0-3.3-0.4-5-0.7v-3h24.7v8.9h-3.7c-0.4-1.7-0.7-3.3-0.7-4.6h-10.2v12.6
		h8.2c0.4-1.3,0.4-2.6,0.7-3.9h3.3v11.5h-3.3c-0.4-1.3-0.7-2.6-0.7-3.9h-8.2v13.7h10.2c0.4-1.3,0.4-3.3,0.7-5h3.7v8.9L-281.6,884.6
		L-281.6,884.6z"/>
	<path d="M-251.4,884.6v-3c1.3-0.4,3.3-0.7,5-0.7v-20.6c-1.3-0.4-3.3-0.4-5-0.7v-2.8c3-0.4,6.7-0.7,10-0.4v24.5
		c1.7,0,3.3,0.4,4.6,0.7v3H-251.4z M-243.9,850.8c-2,0-3.3-1.3-3.3-3.3s1.7-3.3,3.3-3.3s3.3,1.3,3.3,3.3S-242.1,850.8-243.9,850.8z"
		/>
	<path d="M-221.3,899.1c-7.4,0-11.9-3-11.9-8.7c0-3.3,2.4-5.9,4.6-7.6c-1.7-0.7-2.6-2.4-2.6-4.3c0-2,1.3-3.9,3-4.6
		c-2.6-1.7-4.3-3.9-4.3-7.6c0-5.6,4.3-10.6,11.9-10.6c1.7,0,2.6,0.4,3.9,0.7h9.5v3.9h-4.6c1.3,1.1,2.4,3,2.4,5.2
		c0,5.6-3.9,10.2-11.9,10.2c-1.1,0-2,0-3-0.4c-1.3,0.7-1.7,1.3-1.7,2.4c0,1.7,1.3,2,5,2.4l5.2,0.4c5.9,0.4,9.5,3,9.5,8.2
		C-206.4,894.6-212.4,899.1-221.3,899.1z M-217.4,884.6l-5.2-0.4c-0.7,0-1.3,0-1.7,0c-2.4,1.7-3.7,3.3-3.7,5.6
		c0,3.3,3.3,5.2,7.6,5.2c5.6,0,8.9-2.6,8.9-5.9C-211.8,886.1-213.3,884.6-217.4,884.6z M-220.7,859.7c-4.3,0-6.7,2.6-6.7,6.3
		c0,3.9,2.4,6.3,6.7,6.3c3.9,0,6.7-2.4,6.7-6.3C-214.4,862-216.3,859.7-220.7,859.7z"/>
	<path d="M-181,884.6v-18.2c0-3.9-1.1-6.3-5-6.3c-4.6,0-8,4.6-8,10.8v9.5c1.7,0,3.3,0.4,4.6,0.7v3h-14.3v-3c1.3-0.4,3-0.7,4.6-0.7
		v-33.8c-1.3-0.4-3.3-0.4-5-0.7v-3c3-0.4,6.7-0.7,10-0.4v13.2c0,1.7,0,3.9-0.7,5.6l0,0c1.7-3.9,5-6.3,10-6.3c6.3,0,8.7,3.9,8.7,8.9
		v15.8c1.7,0,3.3,0.4,4.6,0.7v3h-9.3C-181,883.5-181,884.6-181,884.6z"/>
	<path d="M-157.6,885.2c-5.6,0-7.6-2.4-7.6-8.7v-16.3h-5.6v-3.9h5.6v-9.3l5-1.3v10.6h8v3.9h-8v14.5c0,4.6,1.1,5.9,3.9,5.9
		c1.3,0,2.6-0.4,3.7-0.4l0.7,4.3C-153.3,884.8-155.4,885.2-157.6,885.2z"/>
	<path d="M-126.2,884.6v-18.2c0-3.9-1.1-6.3-5-6.3c-4.6,0-8,4.6-8,10.8v9.5c1.7,0,3.3,0.4,4.6,0.7v3h-14.5v-3c1.3-0.4,3-0.7,4.6-0.7
		v-33.8c-1.3-0.4-3.3-0.4-5-0.7v-3c3-0.4,6.7-0.7,10-0.4v13.2c0,1.7,0,3.9-0.7,5.6l0,0c1.7-3.9,5-6.3,10-6.3c6.3,0,8.7,3.9,8.7,8.9
		v15.8c1.7,0,3.3,0.4,4.6,0.7v3h-9.3v1.1H-126.2z"/>
	<path d="M-68.9,869v13.9c-3.7,1.3-8.7,2.4-12.6,2.4c-11.5,0-18.9-6.9-18.9-18.9s7.4-20.6,20.6-20.6c3.7,0,6.9,0.7,10.6,1.3v8.9
		h-3.7c-0.4-2-0.7-3.7-0.7-5c-2-0.7-4.3-1.1-6.7-1.1c-8.2,0-14.5,5-14.5,15.2c0,9.5,5.6,15,14.3,15c2.6,0,4.6-0.4,6.7-1.1v-10.6
		c-1.7,0-3.3-0.4-5-0.7v-3h13.9v3C-66.1,868.3-67.4,868.8-68.9,869z"/>
	<path d="M-42.5,861c-6.7-1.1-9.3,3.3-9.3,12.1v7.6c1.7,0,3.3,0.4,5,0.7v3H-62v-3c1.3-0.4,3.3-0.7,5-0.7v-20.6
		c-1.3-0.4-3.3-0.4-5-0.7v-2.6c3-0.4,6.7-0.7,10-0.4c0,1.7-0.4,4.3-0.7,6.7l0,0c1.3-3.9,3.9-8,10.2-7.4
		C-42.5,855.8-42.5,861-42.5,861z"/>
	<path d="M-22.5,884.6c0-2,0-3.9,0.4-5.6l0,0c-1.3,3.3-5,6.3-9.5,6.3s-8-3-8-7.4c0-5.9,6.3-9.5,16.9-9.5v-2c0-3.9-1.3-6.3-5.9-6.3
		c-1.7,0-3.7,0.4-5.2,0.7c0,1.3-0.4,3-0.7,4.6h-3.3v-8c3-1.1,6.3-1.7,9.5-1.7c8.2,0,10.6,3.7,10.6,9.3V880c1.3,0.4,3.3,0.4,4.6,0.7
		v3C-15.2,884.6-19.3,884.8-22.5,884.6z M-22.5,871.6c-8.9,0-11.9,2.4-11.9,5.2c0,2.4,1.7,4.3,4.3,4.3c4.6,0,7.6-4.6,7.6-8.9V871.6z
		"/>
	<path d="M10.2,884.6c0-1.7,0-3.9,0.4-5.6l0,0c-1.7,3.7-5,6.3-9.5,6.3c-6.9,0-10.2-5-10.2-13.2c0-10,5.6-15.8,14.5-15.8
		c1.7,0,3,0,4.6,0.4v-8.9c-1.3-0.4-3.3-0.4-5-0.7v-3.3c3-0.4,6.7-0.7,10-0.4v37.1c1.3,0.4,3.3,0.4,4.6,0.7v3
		C17.1,884.6,13.2,884.8,10.2,884.6z M10,860.7c-1.7-0.4-3.3-0.7-5-0.7c-5.2,0-8.9,3.3-8.9,11.3c0,5.9,2,9.5,6.3,9.5
		c5,0,7.6-5.9,7.6-10.8C10,870.1,10,860.7,10,860.7z"/>
	<path d="M46.6,870.3H28.2c-0.4,7.4,2.6,10.6,8.9,10.6c2.6,0,5.6-0.7,8-1.7l0.7,3.9c-3,1.1-6.3,1.7-10,1.7
		c-8.7,0-13.2-4.6-13.2-14.5c0-8.2,4.6-15,12.6-15s11.3,5.2,11.3,11.5C46.6,868.1,46.6,869.4,46.6,870.3z M35.3,859.7
		c-3.7,0-6.3,2.6-6.9,6.9h13.2C41.6,862.5,39.2,859.7,35.3,859.7z"/>
</g>
<g enable-background="new    ">
	<path d="M859,886.5c-11.5,0-17.6-7.4-17.6-18.9s6.3-20.6,18.4-20.6c3,0,6.3,0.4,9.3,1.1v9.3h-3.7c-0.4-2-0.7-3.7-0.7-5.2
		c-2-0.7-3.7-0.7-5.6-0.7c-8.2,0-12.1,6.7-12.1,15.2c0,9.3,4.3,15,13,15c3,0,6.7-0.7,8.9-2l1.1,4.3
		C866.6,885.5,862.9,886.5,859,886.5z"/>
	<path d="M885.6,886.5c-7.6,0-12.6-4.3-12.6-14.3c0-8.7,5.2-15,13.9-15c7.4,0,12.6,3.9,12.6,14.3
		C899.3,879.8,894.3,886.5,885.6,886.5z M886.3,861.4c-4.3,0-8,3-8,10.2c0,6.7,2.6,10.2,8,10.2c4.3,0,8-3.3,8-10.2
		C893.9,865.3,891.3,861.4,886.3,861.4z"/>
	<path d="M943.3,885.9v-18.2c0-3.9-1.1-6.3-4.6-6.3c-3.9,0-8,4.3-8,11.3v9.5c1.7,0,3.3,0.4,4.6,0.7v3h-9.5v-18.2
		c0-3.7-0.7-6.3-4.6-6.3c-4.3,0-8,4.6-8,11.3v9.5c1.7,0,3.3,0.4,4.6,0.7v3h-14.5v-3c1.3-0.4,3.3-0.7,5-0.7v-20.6
		c-1.3-0.4-3.3-0.4-5-0.7v-3c3-0.4,6.9-0.7,10-0.4c0,1.7-0.4,4.3-0.4,5.9l0,0c1.7-3.9,5.2-6.7,9.5-6.7c5.9,0,7.6,3.9,8,6.3
		c1.1-2.6,4.3-6.3,9.5-6.3s8.2,3,8.2,9.3v15.6c1.7,0,3.3,0.4,4.6,0.7v3L943.3,885.9L943.3,885.9z"/>
	<path d="M969.3,886.1c-1.7,0-3,0-5-0.4v10.2c1.7,0,3.3,0.4,5,0.7v3h-15v-3c1.3-0.4,3-0.7,4.6-0.7v-34.5c-1.3-0.4-3-0.4-4.6-0.7v-3
		c2.6-0.4,6.7-0.7,9.5-0.4c0,1.7-0.4,4.3-0.4,5.6l0,0c1.7-3.9,5-6.3,9.3-6.3c6.7,0,10.2,4.6,10.2,13.2
		C983.8,880.5,978.6,886.1,969.3,886.1z M972.3,861.4c-5,0-7.6,5.9-7.6,10.8v9.3c1.7,0.4,3,0.7,5,0.7c5.2,0,8.9-3.3,8.9-11.3
		C978.6,865.1,976.7,861.4,972.3,861.4z"/>
	<path d="M1010.1,885.9c0-1.7,0-4.3,0.4-5.9l0,0c-1.7,3.9-5,6.7-10,6.7c-6.7,0-8.7-3.9-8.7-8.9v-15.6c-1.3-0.4-3.3-0.4-4.6-0.7v-3
		c2.6-0.4,6.7-0.7,10-0.4v18.2c0,3.9,1.1,6.3,5,6.3c4.6,0,8-4.6,8-10.8v-9.5c-1.3-0.4-3-0.4-4.6-0.7v-3c2.6-0.4,6.7-0.7,9.5-0.4
		v24.1c1.3,0.4,3.3,0.4,4.6,0.7v3C1017,885.9,1013.1,886.1,1010.1,885.9z"/>
	<path d="M1033.9,886.5c-5.6,0-7.6-2.4-7.6-8.7v-16.3h-5.6v-3.9h5.6v-9.3l5-1.3v10.6h8v3.9h-8v14.5c0,4.6,1.1,5.9,3.9,5.9
		c1.3,0,2.6-0.4,3.7-0.4l0.7,4.3C1037.8,886.1,1035.6,886.5,1033.9,886.5z"/>
	<path d="M1067.3,871.6h-18.4c-0.4,7.4,2.6,10.6,8.9,10.6c2.6,0,5.6-0.7,8-1.7l0.7,3.9c-3,1.1-6.3,1.7-10,1.7
		c-8.7,0-13.2-4.6-13.2-14.5c0-8.2,4.6-15,12.6-15c8,0,11.3,5.2,11.3,11.5C1067.7,869.4,1067.7,870.7,1067.3,871.6z M1056,861
		c-3.7,0-6.3,2.6-6.9,6.9h13.2C1062.3,863.8,1059.9,861,1056,861z"/>
	<path d="M1091.1,862.5c-6.7-1.1-9.3,3.3-9.3,12.1v7.6c1.7,0,3.3,0.4,5,0.7v3h-15v-3c1.3-0.4,3.3-0.7,5-0.7v-20.6
		c-1.3-0.4-3.3-0.4-5-0.7v-3c3-0.4,6.7-0.7,10-0.4c0,1.7-0.4,4.3-0.7,6.7l0,0c1.3-3.9,3.9-8,10.2-7.4L1091.1,862.5z"/>
</g>
<g enable-background="new    ">
	<path d="M-396.2,445.7v-5h17.8v4.6L-396.2,445.7L-396.2,445.7z"/>
	<path d="M-365.5,460.2v-4.3l8.2-7.4c7.4-5.9,8.9-8.7,8.9-12.1c0-3.7-2.4-6.3-6.9-6.3c-3.3,0-6.3,1.7-8.2,3l-1.1-4.6
		c3-1.7,6.3-3,10.2-3c7.6,0,11.5,4.3,11.5,10.2c0,5-2.6,8.7-8.9,13.9l-6.9,5.9h-0.4c2.6-0.4,8.9-0.4,17.1-0.4v5L-365.5,460.2
		L-365.5,460.2z"/>
</g>
<text transform="matrix(1 0 0 1 -318.7682 460.3259)" font-family="'TheSerif-HP5Plain'" font-size="56.7449" letter-spacing="32"> </text>
<g enable-background="new    ">
	<path d="M-274.6,445.7v-5h17.8v4.6L-274.6,445.7L-274.6,445.7z"/>
	<path d="M-242.8,460.2v-4.6h10.2v-23.8l-10,6.3l-1.7-4.3l12.6-7.6h4.3v29.5h8.9v4.6H-242.8L-242.8,460.2z"/>
</g>
<text transform="matrix(1 0 0 1 -180.6891 460.3259)" font-family="'TheSerif-HP5Plain'" font-size="56.7449" letter-spacing="6"> </text>
<g enable-background="new    ">
	<path d="M-112.9,460.8c-7.6,0-13.9-4.3-13.9-17.6c0-11.3,6.9-17.6,15-17.6c7.4,0,13.9,4.3,13.9,17.1
		C-98,454.5-104.9,460.8-112.9,460.8z M-112.5,430.1c-4.6,0-8.9,3.9-8.9,13.2c0,9.5,3.7,13.7,8.9,13.7c4.6,0,8.9-3.9,8.9-13
		C-103.6,434-107.3,430.1-112.5,430.1z"/>
	<path d="M-21.5,460.2v-4.6h10.2v-23.8l-10,6.3l-1.7-4.3l12.6-7.6h4.3v29.5h8.9v4.6H-21.5L-21.5,460.2z"/>
</g>
<text transform="matrix(1 0 0 1 31.7878 460.3259)" font-family="'TheSerif-HP5Plain'" font-size="56.7449" letter-spacing="21"> </text>
<g enable-background="new    ">
	<path d="M89.9,460.2v-4.3l8.2-7.4c7.4-5.9,8.9-8.7,8.9-12.1c0-3.7-2.4-6.3-6.9-6.3c-3.3,0-6.3,1.7-8.2,3l-1.1-4.6
		c3-1.7,6.3-3,10.2-3c7.6,0,11.5,4.3,11.5,10.2c0,5-2.6,8.7-8.9,13.9l-6.9,5.9h-0.4c2.6-0.4,8.9-0.4,17.1-0.4v5L89.9,460.2
		L89.9,460.2z"/>
</g>
<g enable-background="new    ">
	<path d="M-124.4,183v-4.3l8.2-7.4c7.4-5.9,8.9-8.7,8.9-12.1c0-3.7-2.4-6.3-6.9-6.3c-3.3,0-6.3,1.7-8.2,3l-1.1-4.6
		c3-1.7,6.3-3,10.2-3c7.6,0,11.5,4.3,11.5,10.2c0,5-2.6,8.7-8.9,13.9l-6.9,5.9h-0.4c2.6-0.4,8.9-0.4,17.1-0.4v5h-23.4V183z"/>
</g>
<g enable-background="new    ">
	<path d="M-123.1,302.8v-4.6h10.2v-23.8l-10,6.3l-1.7-4.3l12.6-7.6h4.3v29.5h8.9v4.6H-123.1z"/>
</g>
<g enable-background="new    ">
	<path d="M-120.7,527.4v-4.6h17.8v4.6H-120.7z"/>
	<path d="M-89.1,542.1v-4.6h10.2v-23.8l-10,6.3l-1.7-4.3l12.6-7.6h4.3v29.5h8.9v4.6H-89.1L-89.1,542.1z"/>
</g>
<g enable-background="new    ">
	<path d="M-120.7,647.5v-5h17.8v4.6L-120.7,647.5L-120.7,647.5z"/>
	<path d="M-90.4,662v-4.3l8.2-7.4c7.4-5.9,8.9-8.7,8.9-12.1c0-3.7-2.4-6.3-6.9-6.3c-3.3,0-6.3,1.7-8.2,3l-1.1-4.6
		c3-1.7,6.3-3,10.2-3c7.6,0,11.5,4.3,11.5,10.2c0,5-2.6,8.7-8.9,13.9l-6.9,5.9h-0.4c2.6-0.4,8.9-0.4,17.1-0.4v5L-90.4,662L-90.4,662
		z"/>
</g>
<text transform="matrix(1 0 0 1 -183.1049 113.3094)" font-family="'TheSerif-HP5Plain'" font-size="85.3955" letter-spacing="52"> </text>
<text transform="matrix(1 0 0 1 24.6899 113.3094)" font-family="'TheSerif-HP5Plain'" font-size="85.3955" letter-spacing="12"> </text>
<text transform="matrix(1 0 0 1 344.4471 113.3094)" font-family="'TheSerif-HP5Plain'" font-size="85.3955" letter-spacing="34"> </text>
<g>
	<rect x="656.1" y="44" fill="none" stroke="#999999" stroke-width="1.3" width="703.1" height="703.1"/>
	<line fill="none" stroke="#999999" stroke-width="1.3" x1="656.1" y1="630.1" x2="1359" y2="630.1"/>
	<line fill="none" stroke="#999999" stroke-width="1.3" x1="656.1" y1="512.4" x2="1359" y2="512.4"/>
	<line fill="none" stroke="#999999" stroke-width="1.3" x1="656.1" y1="395.6" x2="1359" y2="395.6"/>
	<line fill="none" stroke="#999999" stroke-width="1.3" x1="656.1" y1="278.5" x2="1359" y2="278.5"/>
	<line fill="none" stroke="#999999" stroke-width="1.3" x1="656.1" y1="161.3" x2="1359" y2="161.3"/>
	<line fill="none" stroke="#999999" stroke-width="1.3" x1="1242" y1="44" x2="1242" y2="747.4"/>
	<line fill="none" stroke="#999999" stroke-width="1.3" x1="1124.9" y1="44" x2="1124.9" y2="747.4"/>
	<line fill="none" stroke="#999999" stroke-width="1.3" x1="1007.5" y1="44" x2="1007.5" y2="747.4"/>
	<line fill="none" stroke="#999999" stroke-width="1.3" x1="890" y1="44" x2="890" y2="747.4"/>
	<line fill="none" stroke="#999999" stroke-width="1.3" x1="773.2" y1="44" x2="773.2" y2="747.4"/>
</g>
<g enable-background="new    ">
	<path d="M670-124.8l-6.3-10.6l-6.3,10.6h-8.7v-3.3c1.7-0.4,3.3-0.7,5-0.7l6.9-10.2l-6.7-10.2c-1.7,0-3.3-0.4-4.6-0.7v-3h8.7
		l5.9,10.2l6.3-10.2h8.2v3c-1.7,0.4-3.3,0.7-5,0.7l-6.3,10l6.9,10.6c1.7,0,3,0.4,4.6,0.7v3H670L670-124.8L670-124.8z"/>
</g>
<g enable-background="new    ">
	<path d="M496.4,28.2l-10,27.5c-3,8.7-5.9,11.5-12.1,11.5c-1.1,0-2.6,0-3.9-0.4l0.4-4.6c1.3,0.4,2.4,0.7,3.7,0.7c3,0,5-1.7,6.9-6.9
		l1.3-3.3h-1.3l-8.7-24.5c-1.3,0-2.6-0.4-3.7-0.7v-3h13v3c-1.1,0.4-2.4,0.7-3.7,0.7l4.3,12.1c1.1,2.6,1.7,4.6,2.4,6.9l0,0
		c0.4-2,1.7-5.2,2.6-8.2l3.7-10.8c-1.3,0-2.6-0.4-3.7-0.7v-3h12.6v3C499,28,497.7,28,496.4,28.2z"/>
</g>
<g enable-background="new    ">
	<path d="M666.1-27.7c-7.6,0-13.9-4.3-13.9-17.6c0-11.3,6.9-17.6,15-17.6c7.4,0,13.9,4.3,13.9,17.1C681-34,674.3-27.7,666.1-27.7z
		 M666.7-58.7c-4.6,0-8.9,3.9-8.9,13.2c0,9.5,3.7,13.7,8.9,13.7c4.6,0,8.9-3.9,8.9-13C675.6-54.4,672.1-58.7,666.7-58.7z"/>
</g>
<g enable-background="new    ">
	<path d="M769-28.4v-4.6h10.2v-23.8l-10,6.3l-1.7-4.3l12.6-7.6h4.3v29.5h8.9v4.6H769z"/>
</g>
<g enable-background="new    ">
	<path d="M881.3-28.4v-4.3l8.2-7.4c7.4-5.9,8.9-8.7,8.9-12.1c0-3.5-2.4-6.3-6.9-6.3c-3.3,0-6.3,1.7-8.2,3l-0.9-4.6
		c3-1.7,6.3-3,10.2-3c7.6,0,11.5,4.3,11.5,10.2c0,5-2.6,8.7-8.9,13.9l-6.9,5.9h-0.4c2.6-0.4,8.9-0.4,17.1-0.4v5h-23.6V-28.4z"/>
</g>
<g enable-background="new    ">
	<path d="M1002.5-23c-2.4,0-5-0.4-6.9-1.1l1.1-4.6c2,0.7,4.3,1.1,6.9,1.1c5.9,0,10-3.3,10-7.6s-3.3-6.9-9.3-6.9c-2,0-3.3,0-5,0.4
		v-4.3h1.3c8.2,0,12.1-2.4,12.1-6.9c0-3.7-2.6-5.6-6.9-5.6c-3,0-5.6,1.1-8,2.4l-1.1-4.3c3-1.3,5.9-2,10-2c7.6,0,11.3,3.7,11.3,8.9
		c0,4.3-2.6,7.6-6.9,8.9l0,0c4.6,0.7,8.2,4.6,8.2,9.3C1018.7-28.4,1012-23,1002.5-23z"/>
</g>
<g enable-background="new    ">
	<path d="M1128.4-33.4v9.5h-5v-9.5h-17.6l-0.4-4.3l15.8-25.1h7.4v24.5h6.7v4.6h-6.9V-33.4z M1123.4-57.9L1123.4-57.9l-13,20.2
		c3.3,0,10.6,0,13,0V-57.9z"/>
</g>
<g enable-background="new    ">
	<path d="M1229-23c-1.7,0-4.3-0.4-6.3-0.7l0.4-4.6c2,0.7,4.6,0.7,6.3,0.7c6.9,0,10.6-3.9,10.6-8.7c0-5-3.9-7.4-10.2-7.4
		c-2.4,0-4.3,0.4-5.9,0.4v-19.5h19.9v5h-15.2v10c1.1,0,2,0,2.6,0c9.3,0,14.3,5,14.3,10.8C1245.9-29,1239-23,1229-23z"/>
</g>
<g enable-background="new    ">
	<path d="M1347.8-27.7c-8,0-13-5.9-13-16.3c0-16.3,8-23.2,18.9-23.2c1.1,0,2.6,0,3.3,0.4v4.6c-1.3-0.4-2.4-0.4-3.7-0.4
		c-7.4,0-11.3,4.3-13,12.1c-0.4,0.7-0.4,1.7-0.7,3l0,0c2-3.3,5.2-5,8.9-5c7.6,0,11.5,5,11.5,11.3
		C1360.8-33.4,1355.3-27.7,1347.8-27.7z M1347.8-48.1c-4.6,0-7.4,3.9-7.4,7.4c0,4.6,2.6,8.7,7.6,8.7c4.6,0,7.4-3.3,7.4-8.2
		C1355.3-45.3,1352.7-48.1,1347.8-48.1z"/>
</g>
<circle cx="656.1" cy="44" r="18.2"/>
<circle cx="-145" cy="394.1" r="18.2"/>
<g enable-background="new    ">
	<path d="M578.1,69.8c-7.6,0-13.9-4.3-13.9-17.6c0-11.3,6.9-17.6,15-17.6c7.4,0,13.9,4.3,13.9,17.1C593,63.5,586.1,69.8,578.1,69.8z
		 M578.5,39.3c-4.6,0-8.9,3.9-8.9,13.2c0,9.5,3.7,13.7,8.9,13.7c4.6,0,8.9-3.9,8.9-13C587.4,43.2,583.7,39.3,578.5,39.3z"/>
</g>
<g enable-background="new    ">
	<path d="M567.2,183v-4.6h10.2v-23.8l-10,6.3l-1.7-4.3l12.6-7.6h4.3v29.5h8.9v4.6H567.2z"/>
</g>
<g enable-background="new    ">
	<path d="M566.2,296.5v-4.3l8.2-7.4c7.4-5.9,8.9-8.7,8.9-12.1c0-3.7-2.4-6.3-6.9-6.3c-3.3,0-6.3,1.7-8.2,3l-1.1-4.6
		c3-1.7,6.3-3,10.2-3c7.6,0,11.5,4.3,11.5,10.2c0,5-2.6,8.7-8.9,13.9l-6.9,5.9h-0.4c2.6-0.4,8.9-0.4,17.1-0.4v5h-23.4V296.5z"/>
</g>
<g enable-background="new    ">
	<path d="M573.7,415.3c-2.4,0-5-0.4-6.9-1.1l1.1-4.6c2,0.7,4.3,1.1,6.9,1.1c5.9,0,10-3.3,10-7.6s-3.3-6.9-9.3-6.9c-2,0-3.3,0-5,0.4
		v-4.3h1.3c8.2,0,12.1-2.4,12.1-6.9c0-3.7-2.6-5.6-6.9-5.6c-3,0-5.6,1.1-8,2.4l-1.1-4.3c3-1.3,5.9-2,10-2c7.6,0,11.3,3.7,11.3,8.9
		c0,4.3-2.6,7.6-6.9,8.9l0,0c4.6,0.7,8.2,4.6,8.2,9.3C589.8,409.9,583.1,415.3,573.7,415.3z"/>
</g>
<g enable-background="new    ">
	<path d="M586.3,518.5v9.5h-5v-9.5h-17.6l-0.4-4.3l15.8-25.1h7.4v24.5h6.7v4.6L586.3,518.5L586.3,518.5z M581.3,494L581.3,494
		l-13,20.2c3.3,0,10.6,0,13,0V494z"/>
</g>
<g enable-background="new    ">
	<path d="M573.5,642c-1.7,0-4.3-0.4-6.3-0.7l0.4-4.6c2,0.7,4.6,0.7,6.3,0.7c6.9,0,10.6-3.9,10.6-8.7c0-5-3.9-7.4-10.2-7.4
		c-2.4,0-4.3,0.4-5.9,0.4v-19.3h19.9v5h-15.2v10c1.1,0,2,0,2.6,0c9.3,0,14.3,5,14.3,10.8C590,636.2,583.5,642,573.5,642z"/>
</g>
<g enable-background="new    ">
	<path d="M578.5,750.8c-8,0-13-5.9-13-16.3c0-16.3,8-23.2,18.9-23.2c1.1,0,2.6,0,3.3,0.4v4.6c-1.3-0.4-2.4-0.4-3.7-0.4
		c-7.4,0-11.3,4.3-13,12.1c-0.4,0.7-0.4,1.7-0.7,3l0,0c2-3.3,5.2-5,8.9-5c7.6,0,11.9,5,11.9,11.3
		C591.3,745.6,586.1,750.8,578.5,750.8z M578.7,730.5c-4.6,0-7.4,3.9-7.4,7.4c0,4.6,2.6,8.7,7.6,8.7c4.6,0,7.4-3.3,7.4-8.2
		C586.1,733.7,583.5,730.5,578.7,730.5z"/>
</g>
<line fill="none" stroke="#000000" stroke-width="1.3" x1="658.7" y1="44" x2="636.6" y2="44"/>
<line fill="none" stroke="#000000" stroke-width="1.3" x1="658.7" y1="161.9" x2="636.6" y2="161.9"/>
<line fill="none" stroke="#000000" stroke-width="1.3" x1="658.7" y1="278.5" x2="636.6" y2="278.5"/>
<line fill="none" stroke="#000000" stroke-width="1.3" x1="658.7" y1="395.4" x2="636.6" y2="395.4"/>
<line fill="none" stroke="#000000" stroke-width="1.3" x1="658.7" y1="513.1" x2="636.6" y2="513.1"/>
<line fill="none" stroke="#000000" stroke-width="1.3" x1="658.7" y1="631.4" x2="636.6" y2="631.4"/>
<line fill="none" stroke="#000000" stroke-width="1.3" x1="658.7" y1="746.3" x2="636.6" y2="746.3"/>
<line fill="none" stroke="#000000" stroke-width="1.3" x1="1357.9" y1="43.8" x2="1357.9" y2="21.7"/>
<line fill="none" stroke="#000000" stroke-width="1.3" x1="1240.3" y1="43.8" x2="1240.3" y2="21.7"/>
<line fill="none" stroke="#000000" stroke-width="1.3" x1="1123.4" y1="43.8" x2="1123.4" y2="21.7"/>
<line fill="none" stroke="#000000" stroke-width="1.3" x1="1006.8" y1="43.8" x2="1006.8" y2="21.7"/>
<line fill="none" stroke="#000000" stroke-width="1.3" x1="889.3" y1="43.8" x2="889.3" y2="21.7"/>
<line fill="none" stroke="#000000" stroke-width="1.3" x1="770.3" y1="43.8" x2="770.3" y2="21.7"/>
<line fill="none" stroke="#000000" stroke-width="1.3" x1="656.1" y1="43.8" x2="656.1" y2="21.7"/>
<polyline fill="#FFFFFF" stroke="#000000" stroke-width="1.3" points="497.7,259 483.8,272.7 469.9,259 "/>
<line fill="none" stroke="#000000" stroke-width="1.3" x1="483.8" y1="272.7" x2="483.8" y2="108.2"/>
<polyline fill="#FFFFFF" stroke="#000000" stroke-width="1.3" points="871.1,-156 884.8,-142.2 871.1,-128.3 "/>
<line fill="none" stroke="#000000" stroke-width="1.3" x1="888" y1="-142.2" x2="723.7" y2="-142.2"/>
<g id="Layer_2">
</g>
</svg>
