<?xml version="1.0" encoding="utf-8"?>
<!-- Generator: Adobe Illustrator 18.0.0, SVG Export Plug-In . SVG Version: 6.00 Build 0)  -->
<!DOCTYPE svg PUBLIC "-//W3C//DTD SVG 1.1//EN" "http://www.w3.org/Graphics/SVG/1.1/DTD/svg11.dtd">
<svg version="1.1" id="Layer_1" xmlns="http://www.w3.org/2000/svg" xmlns:xlink="http://www.w3.org/1999/xlink" x="0px" y="0px"
	 viewBox="0 0 215 72" enable-background="new 0 0 215 72" xml:space="preserve">
<g>
	<rect x="87" y="14.6" fill="none" stroke="#999999" stroke-width="1.3" width="41.3" height="41.3"/>
	<line fill="none" stroke="#999999" stroke-width="1.3" x1="87" y1="49" x2="128.3" y2="49"/>
	<line fill="none" stroke="#999999" stroke-width="1.3" x1="87" y1="42.1" x2="128.3" y2="42.1"/>
	<line fill="none" stroke="#999999" stroke-width="1.3" x1="87" y1="35.2" x2="128.3" y2="35.2"/>
	<line fill="none" stroke="#999999" stroke-width="1.3" x1="87" y1="28.3" x2="128.3" y2="28.3"/>
	<line fill="none" stroke="#999999" stroke-width="1.3" x1="87" y1="21.4" x2="128.3" y2="21.4"/>
	<line fill="none" stroke="#999999" stroke-width="1.3" x1="121.4" y1="14.6" x2="121.4" y2="55.8"/>
	<line fill="none" stroke="#999999" stroke-width="1.3" x1="114.5" y1="14.6" x2="114.5" y2="55.8"/>
	<line fill="none" stroke="#999999" stroke-width="1.3" x1="107.6" y1="14.6" x2="107.6" y2="55.8"/>
	<line fill="none" stroke="#999999" stroke-width="1.3" x1="100.7" y1="14.6" x2="100.7" y2="55.8"/>
	<line fill="none" stroke="#999999" stroke-width="1.3" x1="93.9" y1="14.6" x2="93.9" y2="55.8"/>
</g>
<text transform="matrix(1 0 0 1 86.5627 4.6377)" font-family="'TheSerif-HP5Plain'" font-size="3.3314">x</text>
<text transform="matrix(1 0 0 1 75.9978 15.0643)" font-family="'TheSerif-HP5Plain'" font-size="3.3314">y</text>
<text transform="matrix(1 0 0 1 86.6243 10.3133)" font-family="'TheSerif-HP5Plain'" font-size="3.3314">0</text>
<text transform="matrix(1 0 0 1 88.4566 10.3133)" font-family="'TheSerif-HP5Plain'" font-size="3.3314" letter-spacing="3"> </text>
<text transform="matrix(1 0 0 1 93.2871 10.3133)" font-family="'TheSerif-HP5Plain'" font-size="3.3314">1</text>
<text transform="matrix(1 0 0 1 95.1195 10.3133)" font-family="'TheSerif-HP5Plain'" font-size="3.3314" letter-spacing="3"> </text>
<text transform="matrix(1 0 0 1 99.95 10.3133)" font-family="'TheSerif-HP5Plain'" font-size="3.3314">2</text>
<text transform="matrix(1 0 0 1 101.7824 10.3133)" font-family="'TheSerif-HP5Plain'" font-size="3.3314" letter-spacing="3"> </text>
<text transform="matrix(1 0 0 1 106.6129 10.3133)" font-family="'TheSerif-HP5Plain'" font-size="3.3314">3</text>
<text transform="matrix(1 0 0 1 108.4458 10.3133)" font-family="'TheSerif-HP5Plain'" font-size="3.3314" letter-spacing="3"> </text>
<text transform="matrix(1 0 0 1 113.2763 10.3133)" font-family="'TheSerif-HP5Plain'" font-size="3.3314">4</text>
<text transform="matrix(1 0 0 1 115.1082 10.3133)" font-family="'TheSerif-HP5Plain'" font-size="3.3314" letter-spacing="3"> </text>
<text transform="matrix(1 0 0 1 119.9391 10.3133)" font-family="'TheSerif-HP5Plain'" font-size="3.3314">5</text>
<text transform="matrix(1 0 0 1 121.771 10.3133)" font-family="'TheSerif-HP5Plain'" font-size="3.3314" letter-spacing="3"> </text>
<text transform="matrix(1 0 0 1 126.602 10.3133)" font-family="'TheSerif-HP5Plain'" font-size="3.3314">6</text>
<circle fill="#808080" cx="93.9" cy="21.4" r="1.1"/>
<circle fill="#808080" cx="121.5" cy="35.3" r="1.1"/>
<text transform="matrix(1 0 0 1 81.442 16.0505)" font-family="'TheSerif-HP5Plain'" font-size="3.3314">0</text>
<text transform="matrix(1 0 0 1 81.442 22.7139)" font-family="'TheSerif-HP5Plain'" font-size="3.3314">1</text>
<text transform="matrix(1 0 0 1 81.442 29.3768)" font-family="'TheSerif-HP5Plain'" font-size="3.3314">2</text>
<text transform="matrix(1 0 0 1 81.442 36.0401)" font-family="'TheSerif-HP5Plain'" font-size="3.3314">3</text>
<text transform="matrix(1 0 0 1 81.442 42.703)" font-family="'TheSerif-HP5Plain'" font-size="3.3314">4</text>
<text transform="matrix(1 0 0 1 81.442 49.3664)" font-family="'TheSerif-HP5Plain'" font-size="3.3314">5</text>
<text transform="matrix(1 0 0 1 81.442 56.0283)" font-family="'TheSerif-HP5Plain'" font-size="3.3314">6</text>
<line fill="none" stroke="#000000" stroke-width="1.3" x1="87.2" y1="14.6" x2="85.9" y2="14.6"/>
<line fill="none" stroke="#000000" stroke-width="1.3" x1="87.2" y1="21.5" x2="85.9" y2="21.5"/>
<line fill="none" stroke="#000000" stroke-width="1.3" x1="87.2" y1="28.3" x2="85.9" y2="28.3"/>
<line fill="none" stroke="#000000" stroke-width="1.3" x1="87.2" y1="35.2" x2="85.9" y2="35.2"/>
<line fill="none" stroke="#000000" stroke-width="1.3" x1="87.2" y1="42.1" x2="85.9" y2="42.1"/>
<line fill="none" stroke="#000000" stroke-width="1.3" x1="87.2" y1="49.1" x2="85.9" y2="49.1"/>
<line fill="none" stroke="#000000" stroke-width="1.3" x1="87.2" y1="55.8" x2="85.9" y2="55.8"/>
<line fill="none" stroke="#000000" stroke-width="1.3" x1="128.2" y1="14.5" x2="128.2" y2="13.2"/>
<line fill="none" stroke="#000000" stroke-width="1.3" x1="121.3" y1="14.5" x2="121.3" y2="13.2"/>
<line fill="none" stroke="#000000" stroke-width="1.3" x1="114.4" y1="14.5" x2="114.4" y2="13.2"/>
<line fill="none" stroke="#000000" stroke-width="1.3" x1="107.6" y1="14.5" x2="107.6" y2="13.2"/>
<line fill="none" stroke="#000000" stroke-width="1.3" x1="100.7" y1="14.5" x2="100.7" y2="13.2"/>
<line fill="none" stroke="#000000" stroke-width="1.3" x1="93.7" y1="14.5" x2="93.7" y2="13.2"/>
<line fill="none" stroke="#000000" stroke-width="1.3" x1="87.1" y1="14.5" x2="87.1" y2="13.2"/>
<polyline fill="#FFFFFF" stroke="#000000" stroke-width="1.3" points="77.7,27.2 76.9,28 76.1,27.2 "/>
<line fill="none" stroke="#000000" stroke-width="1.3" x1="76.9" y1="28" x2="76.9" y2="18.3"/>
<polyline fill="#FFFFFF" stroke="#000000" stroke-width="1.3" points="99.6,2.8 100.4,3.6 99.6,4.4 "/>
<line fill="none" stroke="#000000" stroke-width="1.3" x1="100.6" y1="3.6" x2="91" y2="3.6"/>
<text transform="matrix(1 0 0 1 139.0021 35.6452)" font-family="'TheSerif-HP5Plain'" font-size="3.3314">rectMode ( CORNERS ) ;</text>
<text transform="matrix(1 0 0 1 139.0021 39.6433)" font-family="'TheSerif-HP5Plain'" font-size="3.3314">rect( x1 , y1 , x2 , y2 ) ;</text>
<text transform="matrix(1 0 0 1 95.9131 20.006)" font-family="'TheSerif-HP5Plain'" font-size="3.3314">( 1 , 1 )</text>
<text transform="matrix(1 0 0 1 121.8241 39.4393)" font-family="'TheSerif-HP5Plain'" font-size="3.3314">( 5 , 3 )</text>
<line fill="none" stroke="#000000" stroke-width="2" x1="93.8" y1="21.4" x2="121.6" y2="21.4"/>
<line fill="none" stroke="#000000" stroke-width="2" x1="93.7" y1="35.3" x2="121.4" y2="35.3"/>
<line fill="none" stroke="#000000" stroke-width="2" x1="121.4" y1="35.2" x2="121.4" y2="21.3"/>
<line fill="none" stroke="#000000" stroke-width="2" x1="93.8" y1="35.3" x2="93.8" y2="21.5"/>
<text transform="matrix(1 0 0 1 84.7909 65.1826)" fill="#808080" font-family="'TheSerif-HP5Plain'" font-size="3.3314">Example:  </text>
<text transform="matrix(1 0 0 1 100.245 65.1826)" font-family="'TheSerif-HP5Plain'" font-size="3.3314">rectMode ( CORNERS ) ;</text>
<text transform="matrix(1 0 0 1 84.7909 69.1808)" font-family="'TheSerif-HP5Plain'" font-size="3.3314" letter-spacing="5">  </text>
<text transform="matrix(1 0 0 1 100.2452 69.181)" font-family="'TheSerif-HP5Plain'" font-size="3.3314">rect ( 1 , 1 , 5 , 3 ) ;</text>
</svg>
