<?xml version="1.0" encoding="utf-8"?>
<!-- Generator: Adobe Illustrator 18.0.0, SVG Export Plug-In . SVG Version: 6.00 Build 0)  -->
<!DOCTYPE svg PUBLIC "-//W3C//DTD SVG 1.1//EN" "http://www.w3.org/Graphics/SVG/1.1/DTD/svg11.dtd">
<svg version="1.1" id="Layer_1" xmlns="http://www.w3.org/2000/svg" xmlns:xlink="http://www.w3.org/1999/xlink" x="0px" y="0px"
	 viewBox="-74 127 865 557" enable-background="new -74 127 865 557" xml:space="preserve">
<g>
	<rect x="31.7" y="238.8" fill="none" stroke="#999999" stroke-width="1.3" width="319.9" height="319.9"/>
	<line fill="none" stroke="#999999" stroke-width="1.3" x1="31.7" y1="505.5" x2="351.5" y2="505.5"/>
	<line fill="none" stroke="#999999" stroke-width="1.3" x1="31.7" y1="451.9" x2="351.5" y2="451.9"/>
	<line fill="none" stroke="#999999" stroke-width="1.3" x1="31.7" y1="398.7" x2="351.5" y2="398.7"/>
	<line fill="none" stroke="#999999" stroke-width="1.3" x1="31.7" y1="345.5" x2="351.5" y2="345.5"/>
	<line fill="none" stroke="#999999" stroke-width="1.3" x1="31.7" y1="292" x2="351.5" y2="292"/>
	<line fill="none" stroke="#999999" stroke-width="1.3" x1="298.2" y1="238.8" x2="298.2" y2="558.7"/>
	<line fill="none" stroke="#999999" stroke-width="1.3" x1="244.9" y1="238.8" x2="244.9" y2="558.7"/>
	<line fill="none" stroke="#999999" stroke-width="1.3" x1="191.6" y1="238.8" x2="191.6" y2="558.7"/>
	<line fill="none" stroke="#999999" stroke-width="1.3" x1="138.2" y1="238.8" x2="138.2" y2="558.7"/>
	<line fill="none" stroke="#999999" stroke-width="1.3" x1="85" y1="238.8" x2="85" y2="558.7"/>
</g>
<text transform="matrix(1 0 0 1 28.3096 161.8252)" font-family="'TheSerif-HP5Plain'" font-size="25.8187">x</text>
<text transform="matrix(1 0 0 1 -53.5703 242.627)" font-family="'TheSerif-HP5Plain'" font-size="25.8187">y</text>
<text transform="matrix(1 0 0 1 28.7881 205.8115)" font-family="'TheSerif-HP5Plain'" font-size="25.8187">0</text>
<text transform="matrix(1 0 0 1 42.9873 205.8115)" font-family="'TheSerif-HP5Plain'" font-size="25.8187" letter-spacing="31"> </text>
<text transform="matrix(1 0 0 1 80.4248 205.8115)" font-family="'TheSerif-HP5Plain'" font-size="25.8187">1</text>
<text transform="matrix(1 0 0 1 94.626 205.8115)" font-family="'TheSerif-HP5Plain'" font-size="25.8187" letter-spacing="31"> </text>
<text transform="matrix(1 0 0 1 132.0625 205.8115)" font-family="'TheSerif-HP5Plain'" font-size="25.8187">2</text>
<text transform="matrix(1 0 0 1 146.2627 205.8115)" font-family="'TheSerif-HP5Plain'" font-size="25.8187" letter-spacing="31"> </text>
<text transform="matrix(1 0 0 1 183.7002 205.8115)" font-family="'TheSerif-HP5Plain'" font-size="25.8187">3</text>
<text transform="matrix(1 0 0 1 197.9004 205.8115)" font-family="'TheSerif-HP5Plain'" font-size="25.8187" letter-spacing="31"> </text>
<text transform="matrix(1 0 0 1 235.3379 205.8115)" font-family="'TheSerif-HP5Plain'" font-size="25.8187">4</text>
<text transform="matrix(1 0 0 1 249.5381 205.8115)" font-family="'TheSerif-HP5Plain'" font-size="25.8187" letter-spacing="31"> </text>
<text transform="matrix(1 0 0 1 286.9756 205.8115)" font-family="'TheSerif-HP5Plain'" font-size="25.8187">5</text>
<text transform="matrix(1 0 0 1 301.1748 205.8115)" font-family="'TheSerif-HP5Plain'" font-size="25.8187" letter-spacing="31"> </text>
<text transform="matrix(1 0 0 1 338.6123 205.8115)" font-family="'TheSerif-HP5Plain'" font-size="25.8187">6</text>
<circle fill="#808080" cx="85" cy="293.9" r="8.3"/>
<text transform="matrix(1 0 0 1 -11.375 250.2773)" font-family="'TheSerif-HP5Plain'" font-size="25.8187">0</text>
<text transform="matrix(1 0 0 1 -11.375 301.915)" font-family="'TheSerif-HP5Plain'" font-size="25.8187">1</text>
<text transform="matrix(1 0 0 1 -11.375 353.5518)" font-family="'TheSerif-HP5Plain'" font-size="25.8187">2</text>
<text transform="matrix(1 0 0 1 -11.375 405.1895)" font-family="'TheSerif-HP5Plain'" font-size="25.8187">3</text>
<text transform="matrix(1 0 0 1 -11.375 456.8271)" font-family="'TheSerif-HP5Plain'" font-size="25.8187">4</text>
<text transform="matrix(1 0 0 1 -11.375 508.4648)" font-family="'TheSerif-HP5Plain'" font-size="25.8187">5</text>
<text transform="matrix(1 0 0 1 -11.375 560.1016)" font-family="'TheSerif-HP5Plain'" font-size="25.8187">6</text>
<line fill="none" stroke="#000000" stroke-width="1.3" x1="32.9" y1="238.8" x2="22.8" y2="238.8"/>
<line fill="none" stroke="#000000" stroke-width="1.3" x1="32.9" y1="292.3" x2="22.8" y2="292.3"/>
<line fill="none" stroke="#000000" stroke-width="1.3" x1="32.9" y1="345.4" x2="22.8" y2="345.4"/>
<line fill="none" stroke="#000000" stroke-width="1.3" x1="32.9" y1="398.6" x2="22.8" y2="398.6"/>
<line fill="none" stroke="#000000" stroke-width="1.3" x1="32.9" y1="452.1" x2="22.8" y2="452.1"/>
<line fill="none" stroke="#000000" stroke-width="1.3" x1="32.9" y1="506" x2="22.8" y2="506"/>
<line fill="none" stroke="#000000" stroke-width="1.3" x1="32.9" y1="558.2" x2="22.8" y2="558.2"/>
<line fill="none" stroke="#000000" stroke-width="1.3" x1="351.1" y1="238.7" x2="351.1" y2="228.5"/>
<line fill="none" stroke="#000000" stroke-width="1.3" x1="297.4" y1="238.7" x2="297.4" y2="228.5"/>
<line fill="none" stroke="#000000" stroke-width="1.3" x1="244.4" y1="238.7" x2="244.4" y2="228.5"/>
<line fill="none" stroke="#000000" stroke-width="1.3" x1="191.2" y1="238.7" x2="191.2" y2="228.5"/>
<line fill="none" stroke="#000000" stroke-width="1.3" x1="137.8" y1="238.7" x2="137.8" y2="228.5"/>
<line fill="none" stroke="#000000" stroke-width="1.3" x1="83.7" y1="238.7" x2="83.7" y2="228.5"/>
<line fill="none" stroke="#000000" stroke-width="1.3" x1="32.1" y1="238.7" x2="32.1" y2="228.5"/>
<polyline fill="#FFFFFF" stroke="#000000" stroke-width="1.3" points="-40.3,336.5 -46.7,342.8 -53,336.5 "/>
<line fill="none" stroke="#000000" stroke-width="1.3" x1="-46.7" y1="342.8" x2="-46.7" y2="267.9"/>
<polyline fill="#FFFFFF" stroke="#000000" stroke-width="1.3" points="129.5,147.7 135.8,154 129.5,160.3 "/>
<line fill="none" stroke="#000000" stroke-width="1.3" x1="137.2" y1="154" x2="62.4" y2="154"/>
<text transform="matrix(1 0 0 1 434.7158 402.1328)" font-family="'TheSerif-HP5Plain'" font-size="25.8187">ellipseMode ( CORNER ) ;</text>
<text transform="matrix(1 0 0 1 434.7158 433.1152)" font-family="'TheSerif-HP5Plain'" font-size="25.8187">ellipse ( x , y , width , height ) ;</text>
<text transform="matrix(1 0 0 1 90.7305 279.4941)" font-family="'TheSerif-HP5Plain'" font-size="25.8187">( 1 , 1 )</text>
<text transform="matrix(1 0 0 1 14.5762 631.0469)" fill="#808080" font-family="'TheSerif-HP5Plain'" font-size="25.8187">Example:  </text>
<text transform="matrix(1 0 0 1 134.3467 631.0469)" font-family="'TheSerif-HP5Plain'" font-size="25.8187">ellipseMode ( CORNER ) ;</text>
<text transform="matrix(1 0 0 1 14.5762 662.0293)" font-family="'TheSerif-HP5Plain'" font-size="25.8187" letter-spacing="45">  </text>
<text transform="matrix(1 0 0 1 117.8516 662.0293)" font-family="'TheSerif-HP5Plain'" font-size="25.8187">   ellipse ( 1 , 1 , 3 , 5 ) ;</text>
<ellipse fill="none" stroke="#000000" stroke-width="2" cx="164.9" cy="425.4" rx="80" ry="133.3"/>
</svg>
