<?xml version="1.0" encoding="utf-8"?>
<!-- Generator: Adobe Illustrator 18.0.0, SVG Export Plug-In . SVG Version: 6.00 Build 0)  -->
<!DOCTYPE svg PUBLIC "-//W3C//DTD SVG 1.1//EN" "http://www.w3.org/Graphics/SVG/1.1/DTD/svg11.dtd">
<svg version="1.1" id="Layer_1" xmlns="http://www.w3.org/2000/svg" xmlns:xlink="http://www.w3.org/1999/xlink" x="0px" y="0px"
	 viewBox="-62 116 784 558" enable-background="new -62 116 784 558" xml:space="preserve">
<g>
	<rect x="40.3" y="226.4" fill="none" stroke="#999999" stroke-width="1.3" width="319.9" height="319.9"/>
	<line fill="none" stroke="#999999" stroke-width="1.3" x1="40.3" y1="493" x2="360.1" y2="493"/>
	<line fill="none" stroke="#999999" stroke-width="1.3" x1="40.3" y1="439.5" x2="360.1" y2="439.5"/>
	<line fill="none" stroke="#999999" stroke-width="1.3" x1="40.3" y1="386.3" x2="360.1" y2="386.3"/>
	<line fill="none" stroke="#999999" stroke-width="1.3" x1="40.3" y1="333.1" x2="360.1" y2="333.1"/>
	<line fill="none" stroke="#999999" stroke-width="1.3" x1="40.3" y1="279.6" x2="360.1" y2="279.6"/>
	<line fill="none" stroke="#999999" stroke-width="1.3" x1="306.8" y1="226.4" x2="306.8" y2="546.2"/>
	<line fill="none" stroke="#999999" stroke-width="1.3" x1="253.6" y1="226.4" x2="253.6" y2="546.2"/>
	<line fill="none" stroke="#999999" stroke-width="1.3" x1="200.2" y1="226.4" x2="200.2" y2="546.2"/>
	<line fill="none" stroke="#999999" stroke-width="1.3" x1="146.8" y1="226.4" x2="146.8" y2="546.2"/>
	<line fill="none" stroke="#999999" stroke-width="1.3" x1="93.6" y1="226.4" x2="93.6" y2="546.2"/>
</g>
<text transform="matrix(1 0 0 1 36.9155 149.3937)" font-family="'TheSerif-HP5Plain'" font-size="25.8187">x</text>
<text transform="matrix(1 0 0 1 -44.9644 230.1964)" font-family="'TheSerif-HP5Plain'" font-size="25.8187">y</text>
<text transform="matrix(1 0 0 1 37.394 193.381)" font-family="'TheSerif-HP5Plain'" font-size="25.8187">0</text>
<text transform="matrix(1 0 0 1 51.5942 193.381)" font-family="'TheSerif-HP5Plain'" font-size="25.8187" letter-spacing="31"> </text>
<text transform="matrix(1 0 0 1 89.0317 193.381)" font-family="'TheSerif-HP5Plain'" font-size="25.8187">1</text>
<text transform="matrix(1 0 0 1 103.231 193.381)" font-family="'TheSerif-HP5Plain'" font-size="25.8187" letter-spacing="31"> </text>
<text transform="matrix(1 0 0 1 140.6685 193.381)" font-family="'TheSerif-HP5Plain'" font-size="25.8187">2</text>
<text transform="matrix(1 0 0 1 154.8696 193.381)" font-family="'TheSerif-HP5Plain'" font-size="25.8187" letter-spacing="31"> </text>
<text transform="matrix(1 0 0 1 192.3062 193.381)" font-family="'TheSerif-HP5Plain'" font-size="25.8187">3</text>
<text transform="matrix(1 0 0 1 206.5063 193.381)" font-family="'TheSerif-HP5Plain'" font-size="25.8187" letter-spacing="31"> </text>
<text transform="matrix(1 0 0 1 243.9438 193.381)" font-family="'TheSerif-HP5Plain'" font-size="25.8187">4</text>
<text transform="matrix(1 0 0 1 258.144 193.381)" font-family="'TheSerif-HP5Plain'" font-size="25.8187" letter-spacing="31"> </text>
<text transform="matrix(1 0 0 1 295.5815 193.381)" font-family="'TheSerif-HP5Plain'" font-size="25.8187">5</text>
<text transform="matrix(1 0 0 1 309.7812 193.381)" font-family="'TheSerif-HP5Plain'" font-size="25.8187" letter-spacing="31"> </text>
<text transform="matrix(1 0 0 1 347.2188 193.381)" font-family="'TheSerif-HP5Plain'" font-size="25.8187">6</text>
<circle fill="#808080" cx="93.8" cy="279.4" r="8.3"/>
<circle fill="#808080" cx="307.5" cy="387" r="8.3"/>
<text transform="matrix(1 0 0 1 -2.769 237.8458)" font-family="'TheSerif-HP5Plain'" font-size="25.8187">0</text>
<text transform="matrix(1 0 0 1 -2.769 289.4835)" font-family="'TheSerif-HP5Plain'" font-size="25.8187">1</text>
<text transform="matrix(1 0 0 1 -2.769 341.1212)" font-family="'TheSerif-HP5Plain'" font-size="25.8187">2</text>
<text transform="matrix(1 0 0 1 -2.769 392.7589)" font-family="'TheSerif-HP5Plain'" font-size="25.8187">3</text>
<text transform="matrix(1 0 0 1 -2.769 444.3956)" font-family="'TheSerif-HP5Plain'" font-size="25.8187">4</text>
<text transform="matrix(1 0 0 1 -2.769 496.0343)" font-family="'TheSerif-HP5Plain'" font-size="25.8187">5</text>
<text transform="matrix(1 0 0 1 -2.769 547.671)" font-family="'TheSerif-HP5Plain'" font-size="25.8187">6</text>
<line fill="none" stroke="#000000" stroke-width="1.3" x1="41.6" y1="226.4" x2="31.4" y2="226.4"/>
<line fill="none" stroke="#000000" stroke-width="1.3" x1="41.6" y1="279.9" x2="31.4" y2="279.9"/>
<line fill="none" stroke="#000000" stroke-width="1.3" x1="41.6" y1="332.9" x2="31.4" y2="332.9"/>
<line fill="none" stroke="#000000" stroke-width="1.3" x1="41.6" y1="386.2" x2="31.4" y2="386.2"/>
<line fill="none" stroke="#000000" stroke-width="1.3" x1="41.6" y1="439.7" x2="31.4" y2="439.7"/>
<line fill="none" stroke="#000000" stroke-width="1.3" x1="41.6" y1="493.6" x2="31.4" y2="493.6"/>
<line fill="none" stroke="#000000" stroke-width="1.3" x1="41.6" y1="545.8" x2="31.4" y2="545.8"/>
<line fill="none" stroke="#000000" stroke-width="1.3" x1="359.7" y1="226.2" x2="359.7" y2="216"/>
<line fill="none" stroke="#000000" stroke-width="1.3" x1="306.1" y1="226.2" x2="306.1" y2="216"/>
<line fill="none" stroke="#000000" stroke-width="1.3" x1="253" y1="226.2" x2="253" y2="216"/>
<line fill="none" stroke="#000000" stroke-width="1.3" x1="199.8" y1="226.2" x2="199.8" y2="216"/>
<line fill="none" stroke="#000000" stroke-width="1.3" x1="146.4" y1="226.2" x2="146.4" y2="216"/>
<line fill="none" stroke="#000000" stroke-width="1.3" x1="92.3" y1="226.2" x2="92.3" y2="216"/>
<line fill="none" stroke="#000000" stroke-width="1.3" x1="40.7" y1="226.2" x2="40.7" y2="216"/>
<polyline fill="#FFFFFF" stroke="#000000" stroke-width="1.3" points="-31.7,324.1 -38.1,330.4 -44.4,324.1 "/>
<line fill="none" stroke="#000000" stroke-width="1.3" x1="-38.1" y1="330.4" x2="-38.1" y2="255.5"/>
<polyline fill="#FFFFFF" stroke="#000000" stroke-width="1.3" points="138.1,135.3 144.4,141.6 138.1,147.9 "/>
<line fill="none" stroke="#000000" stroke-width="1.3" x1="145.8" y1="141.6" x2="71" y2="141.6"/>
<text transform="matrix(1 0 0 1 443.3203 389.7023)" font-family="'TheSerif-HP5Plain'" font-size="25.8187">rectMode ( CORNERS ) ;</text>
<text transform="matrix(1 0 0 1 443.3203 420.6847)" font-family="'TheSerif-HP5Plain'" font-size="25.8187">rect( x1 , y1 , x2 , y2 ) ;</text>
<text transform="matrix(1 0 0 1 109.3774 268.4972)" font-family="'TheSerif-HP5Plain'" font-size="25.8187">( 1 , 1 )</text>
<text transform="matrix(1 0 0 1 310.1895 419.1066)" font-family="'TheSerif-HP5Plain'" font-size="25.8187">( 5 , 3 )</text>
<line fill="none" stroke="#000000" stroke-width="2" x1="93.3" y1="279.4" x2="308.2" y2="279.4"/>
<line fill="none" stroke="#000000" stroke-width="2" x1="91.9" y1="387" x2="306.8" y2="387"/>
<line fill="none" stroke="#000000" stroke-width="2" x1="306.9" y1="386.3" x2="306.9" y2="278.6"/>
<line fill="none" stroke="#000000" stroke-width="2" x1="93.2" y1="387" x2="93.2" y2="280"/>
<text transform="matrix(1 0 0 1 23.1821 618.6163)" fill="#808080" font-family="'TheSerif-HP5Plain'" font-size="25.8187">Example:  </text>
<text transform="matrix(1 0 0 1 142.9526 618.6163)" font-family="'TheSerif-HP5Plain'" font-size="25.8187">rectMode ( CORNERS ) ;</text>
<text transform="matrix(1 0 0 1 23.1821 649.5997)" font-family="'TheSerif-HP5Plain'" font-size="25.8187" letter-spacing="45">  </text>
<text transform="matrix(1 0 0 1 126.4575 649.5997)" font-family="'TheSerif-HP5Plain'" font-size="25.8187">   rect ( 1 , 1 , 5 , 3 ) ;</text>
</svg>
