<?xml version="1.0" encoding="utf-8"?>
<!-- Generator: Adobe Illustrator 16.0.4, SVG Export Plug-In . SVG Version: 6.00 Build 0)  -->
<!DOCTYPE svg PUBLIC "-//W3C//DTD SVG 1.1//EN" "http://www.w3.org/Graphics/SVG/1.1/DTD/svg11.dtd">
<svg version="1.1" id="Layer_1" xmlns:svg="http://www.w3.org/2000/svg"
	 xmlns="http://www.w3.org/2000/svg" xmlns:xlink="http://www.w3.org/1999/xlink" x="0px" y="0px" width="222.8px" height="184.8px"
	 viewBox="0 0 222.8 184.8" enable-background="new 0 0 222.8 184.8" xml:space="preserve">
<g id="gSeaBase" display="none">
	<circle id="cSeaBase" display="inline" fill="#C6ECFF" cx="276.5" cy="276.5" r="275"/>
</g>
<g id="gCountries">
	<g id="gNL1">
		<g id="gABW">
		</g>
		<g id="gCUW">
		</g>
		<g id="gNLD">
		</g>
		<g id="gSXM">
		</g>
	</g>
	<g id="gAFG">
	</g>
	<g id="gALB">
	</g>
	<g id="gFI1">
		<g id="gALD">
		</g>
		<g id="gFIN">
		</g>
	</g>
	<g id="gAND">
	</g>
	<g id="gARE">
	</g>
	<g id="gARM">
	</g>
	<g id="gATA">
		<path id="polyF1S12P1" d="M100,124.8h0.4v0.399h0.4v1.2L100,126v-0.4l-0.4-0.4h0.4V124.8z"/>
		<path id="polyF1S12P2" d="M96,128.4V130V128.4z"/>
		<path id="polyF1S12P3" d="M96.8,131.2l2,1.601v0.399h-1.2L96.8,132V131.2z"/>
		<path id="polyF1S12P4" d="M89.2,136l0.8,0.8v0.8h0.4L90,138V137.2l-0.8-0.8V136z"/>
		<path id="polyF1S12P5" d="M70.4,70.4l0.8,0.8h0.4l0.4,0.4l0.4,0.4v0.4l-1.2,1.2H70v0.8h0.4v0.4h-0.8l-1.2,0.4L68,75.6h-0.4v-0.4
			h-0.4h1.2l1.2-2.8v-1.2l-0.4,0.4h-0.4l-0.4-0.4v-0.4H68v-0.4h-0.4v-0.8l0.4-0.4l1.2,0.8H70v0.4H70.4z"/>
		<path id="polyF1S12P6" d="M85.2,52v-0.4l-0.4-0.4l0.4,0.4H86l0.4,0.4H86v0.8l-0.4-0.4l-0.8,0.4l-0.4-0.4v-0.8L85.2,52z"/>
		<path id="polyF1S12P7" d="M84,52l-0.4,0.4v-0.8H84V52z"/>
		<path id="polyF1S12P8" d="M66.8,74.8h-1.6l-0.8,0.4L64,74.8l0.4-0.4h0.4v-0.8H66l0.8,0.8V74.8z"/>
		<path id="polyF1S12P9" d="M63.6,74.4H64l-0.4,0.8h-0.8v-0.4l-0.4-0.4l0.4-0.4h0.4L63.6,74.4z"/>
		<path id="polyF1S12P10" d="M81.6,51.6L80,52.8h-0.4v-0.4L80,52v-0.4l1.2-0.4h0.4V51.6z"/>
		<path id="polyF1S12P11" d="M92.8,138.8l1.6,0.399L94.8,140L96,141.2v0.4l0.4,0.4v0.8L96,143.2V144h-0.4l-0.8,0.8H94v-0.4l-0.8-1.2
			v-0.8l-0.4-0.8v-0.8l-0.4-0.4L92.8,140V138.8z"/>
		<path id="polyF1S12P12" d="M64,77.2L63.2,78h-0.8l-1.2-0.8h-0.4l-0.4-0.8V76L60,75.6v-0.4l-0.4-0.4L58.8,72h0.8v0.4l0.8,0.8
			l0.8,1.6l0.8,0.8h0.4l0.4,0.8h0.4L64,77.2z"/>
		<path id="polyF1S12P13" d="M122,148.8V148h0.4l0.399-0.4h0.4v0.4l0.399,0.399h-0.8V148H122.4v1.199H122V148.8z"/>
		<path id="polyF1S12P14" d="M72.4,56.4V56l0.4-0.4h0.4v-0.4h0.4v0.4H74l0.4,0.4h0.4l1.2,1.2h0.4l0.4,0.8l0.8,0.8l-0.4,0.4l0.4,0.4
			H78V60l-1.6,4.4v0.8l-1.6,3.2l-1.2-0.8v-0.4L72.4,66v-0.4h0.4v-0.4l-0.4-0.4h0.4v0.4V64L72,62.4L71.6,62v-0.4h-0.4v-0.4h-0.4v0.4
			l-0.4-0.4v-0.4H70l-0.8-1.2h-0.4v-0.4h-0.4v-0.4L68,58.4l-0.4-1.2l-0.4-0.4v-2l0.4-0.4V54l1.6-0.8h1.6L72,54l0.4,0.4v0.4L72,55.6
			v0.8H72.4z"/>
		<path id="polyF1S12P15" d="M79.2,145.2V144.8l0.4,0.399v0.4h-0.4V145.2z"/>
		<path id="polyF1S12P16" d="M80.4,145.6l0.8,0.8v0.4h-0.4l-0.4-0.8V145.6z"/>
		<path id="polyF1S12P17" d="M123.2,152.4L122.8,152L122,152.4L120.8,152v-0.4l0.8-0.8h1.2v-0.4l0.4-0.8v0.4l0.8,0.8v0.399l-0.4,0.4
			v0.4l0.4,0.399v0.4h-0.4L123.2,152.4z"/>
		<path id="polyF1S12P18" d="M78,146l0.4,0.399v0.4l-0.4-0.4h-0.4L78,146z"/>
		<path id="polyF1S12P19" d="M78.8,146l1.2,0.8v0.8h-1.2V146z"/>
		<path id="polyF1S12P20" d="M76,145.2h0.4V146H76l-0.4-0.801V144.8L76,145.2z"/>
		<path id="polyF1S12P21" d="M78,147.6h-0.4l-0.4-0.4V146.8l0.4,0.399V146.8L78,147.2V147.6z"/>
		<path id="polyF1S12P22" d="M78.8,148h0.8v0.399h-0.8V148z"/>
		<path id="polyF1S12P23" d="M76,147.2V146.8l0.4,0.399v0.4H76V147.2z"/>
		<path id="polyF1S12P24" d="M75.2,146.4h0.4l0.4,0.4l-0.4,0.399l-0.4-0.399V146.4z"/>
		<path id="polyF1S12P25" d="M74.4,148l0.4,0.399v0.8h-0.4L74,148.8L74.4,148z"/>
		<path id="polyF1S12P26" d="M130,158.8v-0.4V158.8z"/>
		<path id="polyF1S12P27" d="M71.6,149.2v0.4L72,150v0.399h-0.4l-0.4-0.8L71.6,149.2z"/>
		<path id="polyF1S12P28" d="M129.6,162.4h0.4v1.2h-0.4V162.4z"/>
		<path id="polyF1S12P29" d="M55.6,143.2H56v0.4h-0.4V143.2z"/>
		<path id="polyF1S12P30" d="M55.2,141.6l0.4,0.4v0.8h-0.8V142h-0.4v-0.4H55.2z"/>
		<path id="polyF1S12P31" d="M52.4,137.6v1.2l-0.8,0.399V138l0.4-0.4H52.4z"/>
		<path id="polyF1S12P32" d="M43.2,127.2l0.4,0.4v0.4h-0.4l-1.6-0.801V126.8l0.8,0.399H43.2z"/>
		<path id="polyF1S12P33" d="M44.8,130.4v0.8h-0.4V130.8l-0.8,0.8v-0.4h-0.4v-0.8H44.8z"/>
		<path id="polyF1S12P34" d="M44,132.4l0.8-0.8L46,132h0.4v-0.4h0.4l1.2,2l-0.4,0.4h-0.4l-1.2,0.8v0.399l0.4,0.4h-1.2v-0.4
			l-0.4-0.399v-0.4l-0.8-1.6V132.4z"/>
		<path id="polyF1S12P35" d="M83.2,22.4l0.4,0.8v0.4H84l0.4,0.4v0.8H84L83.6,24h-0.4v-0.4h-0.8L82,24v-0.4l0.8-0.4v-2l0.4,0.4V22.4z
			"/>
		<path id="polyF1S12P36" d="M123.6,170v-0.4l0.4,0.4v1.199h-0.4V170z"/>
		<path id="polyF1S12P37" d="M46.4,140.4v-1.2l0.4-0.399v-0.4L47.2,138l0.4,0.399H48V138l-0.4-0.4v-0.4h-0.8V136h0.4v-0.4h0.4v-0.4
			h0.8v0.4l0.4,0.4v2.399l-0.4,0.4v0.399H48v0.4h0.4v0.4l0.4-0.4v0.4L48,141.2h-0.8V140.8h-0.4v-0.4H46.4z"/>
		<path id="polyF1S12P38" d="M34.4,72v0.4l-0.8-0.8v-0.4l0.4,0.4h0.4V72z"/>
		<path id="polyF1S12P39" d="M33.2,113.2V114l-0.4,0.399h-0.4L33.2,113.2z"/>
		<path id="polyF1S12P40" d="M33.2,72.4h0.4v0.4h1.6l0.4,0.4l-2,1.2v0.4h-0.8v-0.4h-0.4V74h0.4v-0.4l-0.4-0.4v0.4H32V74h-0.4v-0.8
			l0.8-1.2h0.4L33.2,72.4z"/>
		<path id="polyF1S12P41" d="M29.6,98.8V99.2h-0.4L29.6,98.8z"/>
		<path id="polyF1S12P42" d="M30.8,95.2v0.4h-1.2v-0.4h-0.4l-0.4,0.4H28l-0.4-0.4V94.8l0.4-0.4h0.4l0.4,0.4l0.4-0.4h0.4L30.8,95.2z"
			/>
		<path id="polyF1S12P43" d="M28.4,100.4l0.4,0.4h-0.4l-0.8-0.8l0.4-0.4h0.4V100.4z"/>
		<path id="polyF1S12P44" d="M87.6,15.2h-0.8v-0.8L87.6,15.2z"/>
		<path id="polyF1S12P45" d="M187.6,63.2h1.2H188.4l-0.4,0.4L187.6,63.2z"/>
		<path id="polyF1S12P46" d="M92,11.6h-0.8v-0.8L92,11.6z"/>
		<path id="polyF1S12P47" d="M190,64.4h-0.8H190z"/>
		<path id="polyF1S12P48" d="M25.6,105.6H26l0.8-0.4h-1.2V104.8l0.4-0.4h0.8V104h-1.2l-0.4-0.4v-1.2l0.8,0.4l0.8,0.8v-0.8l-0.8-1.2
			h1.6v0.4h0.8v3.199l0.4,0.4l-0.4,0.4v1.199H28V108l-0.4,0.399H28l-0.4,2H28v0.4l-0.4,0.399v0.4h-0.4v-0.4L26,108.8v-0.4L26.4,108
			h0.4l-0.4-0.4H26l0.4-0.4L26,106.8h-0.4l-0.4-0.4v-0.8H25.6z"/>
		<path id="polyF1S12P49" d="M105.6,5.2v0.4h-0.4V5.2h-0.4V4.8h0.4L105.6,5.2z"/>
		<path id="polyF1S12P50" d="M32.4,50L32,50.4L31.6,50l0.4-0.4h0.4V50z"/>
		<path id="polyF1S12P51" d="M106,3.2l0.4,0.4h0.4v0.8h-0.4L106,5.2V4.4L105.6,4V3.6l-0.8-0.4h-0.4l0.8-0.4h0.8V3.2z"/>
		<path id="polyF1S12P52" d="M22.8,68.4l0.4-0.4v0.4L24,70v2.8h-1.2v-0.4L22.4,72l0.4-1.2l-0.4-0.4H22V70l0.8-0.4L22,69.2l0.4-0.4
			H22l0.4-0.4H22.8z"/>
		<path id="polyF1S12P53" d="M30.8,49.2v0.4h-0.4L30,49.2l0.4-0.4h0.4V49.2z"/>
		<path id="polyF1S12P54" d="M100.8,2.8l-0.4,0.4V2.8L100,2.4l0.4-0.4h0.4V2.8z"/>
		<path id="polyF1S12P55" d="M114.8,2.4L114,2.8V2l0.8-0.4l0.4,0.4L114.8,2.4z"/>
		<path id="polyF1S12P56" d="M104.8,2.4L104.4,2l0.8-0.8h0.8V2L104.8,2.4z"/>
		<path id="polyF1S12P57" d="M22,64.8v-0.4l0.4-0.4l0.4,0.4v0.4H22z"/>
		<path id="polyF1S12P58" d="M196.4,65.6v-0.4h0.399v-0.4h1.2l-0.4,0.4H197.2v0.4H196.4z"/>
		<path id="polyF1S12P59" d="M117.2,2l-0.4,0.4L116.4,2V1.2h0.8V2z"/>
		<path id="polyF1S12P60" d="M151.6,11.6H151.2v-0.4l-0.4,0.4v-0.4l-0.399-0.4v-0.4l0.8-0.8l0.8,0.8h-0.4V11.6z"/>
		<path id="polyF1S12P61" d="M112,0.8l-0.4,0.8V0.8L111.2,0.4V0h0.8V0.8z"/>
		<path id="polyF1S12P62" d="M27.6,48.4v0.4h-0.4V48L27.6,48.4z"/>
		<path id="polyF1S12P63" d="M18,69.2l0.8-0.8h0.8v0.4l0.4,0.4V70l-0.4,0.8h-0.8v-0.4h-0.4v-0.8H18V69.2z"/>
		<path id="polyF1S12P64" d="M136,3.6l-0.4-0.4H135.2V2.4h0.399L136,2l0.4,0.4h0.8l-0.8,0.4L136,3.6z"/>
		<path id="polyF1S12P65" d="M19.6,64.4v0.4h-0.4l-0.4,0.8H18v-0.8l0.4-0.4H19.6z"/>
		<path id="polyF1S12P66" d="M26,49.2h-0.4l-0.8-0.4h-1.6L24,48h1.2v0.4l0.4,0.4H26V49.2z"/>
		<path id="polyF1S12P67" d="M18.4,60.4l0.4,0.4v-0.4l0.4-0.4h1.6l1.2,0.4h3.6l0.4,0.4l0.4-0.4h0.4L30,62h0.4l0.8,0.4l1.6,2h0.4v1.2
			l-0.4,0.8v0.4h-0.4v1.6L32,68.8v0.4h-0.4v0.4h-0.8l-0.4-0.4v-0.8l0.8-0.8l0.4-1.2V66l-0.4-0.8v0.4h-0.4v2H30V66h-0.4v-0.4
			l-0.8,0.8v0.8h-0.4l-0.8,0.4l1.2,1.2l-0.4,0.4H28V70h0.4l0.4-0.4l0.4,0.8v0.4h-0.4l-0.4,0.4v0.4L28,72h-1.6v-0.4H26v-0.4l0.4-0.4
			h0.4v-0.4H26L25.6,70l0.8-0.8h0.4v-0.4l-0.4,0.4H26v-0.4h-0.4L26,68h0.4v-1.2L25.2,68v-1.2L26,66l-0.8-1.2l0.4-0.4v-0.8l1.2-0.4
			h-0.4v-0.4h-0.8v0.4h-0.4L24.8,64v0.4H24l-0.8-1.2V62h0.4v-0.4L23.2,62h-0.4L22,62.8v0.8l-0.8,0.8H20l-1.2-0.8H18L17.6,64h-0.4
			l-0.4-0.4h-0.4v-3.2H18.4z"/>
		<path id="polyF1S12P69" d="M23.2,44.8l0.4,0.4h-0.4l-0.4,0.4v-0.4L23.2,44.8z"/>
		<path id="polyF1S12P70" d="M14,53.6v0.8L13.6,54v0.4L13.2,54l0.4-0.4v-0.4H14V53.6z"/>
		<path id="polyF1S12P72" d="M10.4,52.4v0.4L10,52.4V52h0.4V52.4z"/>
		<path id="polyF1S12P73" d="M217.2,86v-0.4l0.8-0.8V86H217.2z"/>
		<path id="polyF1S12P74" d="M191.2,22h-0.4v-0.4h0.4L191.6,22v0.4H191.2V22z"/>
		<path id="polyF1S12P76" d="M218,87.2v-0.4h0.4v0.8L218,87.2z"/>
		<path id="polyF1S12P77" d="M12.4,54.4h0.4v0.4h-0.4v0.4h0.4l0.4,0.4v0.8h-1.6V56l-2-2l-0.4-1.6h0.4v0.4l0.8,0.8h0.4l0.4-0.4
			l0.4,0.4V54l0.4,0.4H12.4z"/>
		<path id="polyF1S12P78" d="M218.8,84.8H218.4v-0.4h0.399V84.8z"/>
		<path id="polyF1S12P79" d="M218.4,110.4V110h0.399L218.4,110.4z"/>
		<path id="polyF1S12P81" d="M218.8,113.2V112.8h0.4v0.399H218.8z"/>
		<path id="polyF1S12P82" d="M8.4,49.6l0.4,0.8H8.4V50H8l-0.4-0.4H8.4z"/>
		<path id="polyF1S12P83" d="M220.8,106.4l-0.399,0.4H220v-1.2l0.8,0.4V106.4z"/>
		<path id="polyF1S12P84" d="M222.4,98.4V98h0.399V98.4l-0.399,0.4V98.4z"/>
		<path id="polyF1S12P85" d="M7.6,47.6v0.8H7.2l-0.8-0.8v-0.8l0.4,0.4v0.4H7.6z"/>
		<path id="polyF1S12P86" d="M220.8,114.8l0.4-0.8v-0.4h0.399l0.801,0.8v0.8H222l-0.4,0.4H221.2L220.8,114.8z"/>
		<path id="polyF1S12P87" d="M220.8,120v-0.4h0.4v-0.4l0.399,0.4l0.4-0.4V118.8h0.4v0.399l-0.4,0.4h-0.8v0.4H220.8z"/>
		<path id="polyF1S12P88" d="M6,41.2v0.4L5.6,42v-0.8l-0.4-0.4h0.4v0.4H6z"/>
		<path id="polyF1S12P89" d="M10.8,30h-0.4v-1.2l0.4,0.4V30z"/>
		<path id="polyF1S12P90" d="M4.4,40.4l0.4,0.4V40h0.4v2l-0.8,0.8L4,42.4v-0.8H3.6v-0.8l-0.4-0.4h0.4L4,40v0.4H4.4z"/>
		<path id="polyF1S12P91" d="M5.2,38.8v0.4l-0.4,0.4v-0.4L4,38.4H3.6L3.2,38h0.4v-0.4L4,38l0.4-0.4V38h0.4v0.4L5.2,38.8z"/>
		<path id="polyF1S12P92" d="M4,37.2v0.4V37.2H3.6L4,36.8V37.2z"/>
		<path id="polyF1S12P93_2_" d="M8.4,29.2l0.8-0.4v0.4h0.4v0.4H10L9.6,30H9.2v0.4v0.8H8.8v-0.8l-0.4,0.4v-0.4H8v0.4H7.6v-0.4H7.2
			v-1.2H8v0.4h0.4"/>
		<path id="polyF1S12P94" d="M8,28.4L8.4,28v0.4L8,28.8H7.6L8,28.4z"/>
		<path id="polyF1S12P95" d="M4.8,34.4v0.4H4.4L4,34.4V34l0.4,0.4H4.8z"/>
		<path id="polyF1S12P96" d="M8.8,25.2l-0.4,0.4H8l0.4-0.8v-0.4l0.4,0.4V25.2z"/>
		<path id="polyF1S12P97_1_" d="M110,120.4h-1.2L108.4,120v-0.4H108v0.4h-0.4l-2.4-1.601L104.8,118v-0.4h-0.4l-1.2-0.8l-2-2v-0.4
			h-0.4V116h-0.4v0.399l2.4,2v0.8h0.4v0.4h-0.8h0.4v1.2h-0.4v1.2l0.4,0.399h1.2v1.2l0.4,0.8l1.2,1.2l1.2,1.6v0.4l-0.8-0.4h-0.8
			L104,126V125.2h-1.6L102,124.8v-1.2h-0.4l-0.4,0.4h-0.4v-1.2h-1.2l-0.4-0.4l-1.2,0.4l-0.4,0.399V124h-1.2L96,124.4l-1.2,0.4
			l-0.8,0.8l-0.4,1.6v1.2l-0.4,0.4h-0.4v1.2l1.2,1.6l-0.4,0.4h-0.8l-5.6-1.601v0.8h0.4v0.4h-0.4v0.4l0.4,0.8v0.8l-0.8,0.8h-0.4V134
			l-0.8-0.4h-0.4v0.8h-0.8v0.8l1.6,2.4v2h0.4l1.2,0.8l0.8,2v0.8H88v0.4h-1.6L86,144l0.4,0.399h0.4l1.2,0.8h0.4L88.8,146v1.6
			l-0.8,1.2v0.399L87.6,150l-0.4,0.399l-0.4-0.8v-0.4H86l-0.4,0.4h-0.4l-0.4-0.4h-0.4l-1.2-1.6l0.4-0.4l-0.4-0.399l-1.2-0.4V146
			l-0.8-2l-0.4-0.4l-0.4,0.4h-1.6v1.6l-0.4,0.4v-0.4l-0.4-0.4v-0.8h-0.8v-1.2l-0.4-0.399h-0.4v0.399l-0.4,0.4h-0.4v0.8l-0.8,0.8V146
			l0.4,1.199l2.4,2h-1.2l-0.4,0.4h-0.4l-0.4-0.4L74.4,148v-0.4l-0.4-0.8h-0.4v1.6l-0.4,0.4h-0.4l-0.8-0.4h-3.2L68,148V146.4
			L67.6,146l-0.4,0.8H64l-1.6-1.2v-0.4L62,144.8h-0.8l-1.2,0.8l-0.8-0.4l-0.4-0.8V144l-0.4-0.4v-0.4l-0.8-0.8L56.8,142l-0.4-0.4
			v-0.4l-0.8-0.8v-0.8l-0.4-0.4l-0.8-0.399H54l-1.2-0.8L52,136.4l-1.6-2v-0.8l-3.6-4v-0.4H46l-0.4-0.399h-0.4v-0.4L44.8,128v-1.2
			l-0.8-0.4l-0.4-1.6l-2.8,0.399l0.4-2h0.4v0.4l0.8-0.4v-0.8l0.8,0.4h1.6l0.4-0.4l-1.6-2h-0.4V120h-0.4l-0.4,0.399H42l-1.2,0.8h-0.4
			v-1.6l1.6-1.2l0.8,0.4h0.8l0.8,0.399l0.4-0.399l-0.8-1.2v-0.8l-0.4-0.8V115.2L44,114.8l-0.4-0.8V113.2l-1.6-1.6v-0.4l-0.4-0.399
			V110l-0.4-0.4v-2h0.4l0.8-0.8l-0.4-0.4v-0.8l-0.8-1.2V104h-0.8v0.8l-0.8,0.399v0.4L40,106l-0.4,0.399h-0.4L38.4,106L38,106.4v0.4
			l0.4,0.399L37.6,108l-1.2,0.399l-0.4,0.4v1.2l-0.4,0.399h-0.8L34.4,110V108.4h0.4v-0.8l-0.4-1.2H34L33.6,106V105.2V106l-0.8,1.199
			v2.4l0.4,1.6h-0.4L31.6,112h-0.8l-0.4-0.4v-0.8h1.2v-1.2l-0.4-0.4v-1.6l-0.4-0.4v-2.8h0.4v-1.2l0.4-0.399v-1.2l-0.4-0.4v-1.6
			l0.4-0.4l-0.8-0.8v-2l0.4-1.6l-0.8-1.2L29.6,94v-0.4h-0.4v-0.8l-0.8-0.4v-0.8l0.4-0.4h0.4l0.4,0.4h1.2V90l0.8-0.4v-0.4l-0.8-0.8
			V88l2-1.6V86l0.8-0.8V84l0.8-0.4v-1.2L34,82h-2v-0.4l0.8-0.8h-2V80l0.8-0.8l1.2-0.4h0.8L34,78v-2h0.4l0.8,0.4l0.4,0.4v-2L35.2,74
			l0.8-0.8v-0.8l-0.8-1.6l0.4-0.4V70l-0.4-0.4l0.4-0.4v-0.4L35.2,68l0.4-0.8v-2.4l-0.4-1.2v-0.8l-1.6-1.6l-1.2-0.8h-2.8l-2-0.8h-0.8
			L26,59.2h-3.2L22,58.8h-2v-1.2l0.8-1.2h-0.4V56l-0.8-0.8l-0.4,0.4h-0.4L18,54.8h-0.4l-1.2-1.2H16L15.2,54v-0.4L14,52.8v-0.4h-0.8
			v1.2h-0.4l-1.6-0.8v-0.4L10.8,52l0.4-0.4L12,52h0.4v-0.4h0.4v-0.4H12l-0.4-0.4h-0.4l-0.8-0.4L10,50l0.8-0.8L10,48.4H9.2L8.8,48
			v-0.4l0.4-0.4H8.8l-0.4-0.4L9.2,46v-0.4H8l0.4-0.4L8,44.8v-1.2H6.8L6,42.8v-0.4L6.4,42l0.4-0.4h0.4l-0.4-0.4H6.4V40L6,39.6H5.6
			L6,39.2h0.4v-1.6L6,37.2V36l-0.4-0.4H5.2V34l0.4-0.8v-2l-0.4-0.8L5.6,30v-2L6,27.2v-0.4l0.4-0.4l0.4,0.4H8l-0.4,0.4v0.4H7.2v-0.4
			l-0.4,0.4V30l0.8,1.2v1.2H8V32h0.4v0.4h0.8l-0.4,0.4H8.4v0.4H7.6v0.4H8L8.4,34L8,34.4L7.6,34v2l0.8,1.2V38L8,38.4v0.4h0.8v0.8H8.4
			V40h0.4l0.4,0.4L9.6,40H10v0.8l0.4,0.4v0.4H12v-0.8l0.4-0.4L12,40v-0.4h0.4H12v-0.4h0.4v-0.4h0.4v0.4h0.4l-0.4,0.4V40h0.8v0.4
			h-0.8l-0.4,0.4h0.4v0.4l0.4,0.4V42l-0.4-0.4L12,42v0.4l-0.4,0.4l0.4,0.4h0.8v0.4h0.8V44h-2.4v0.4h-0.4v0.4h0.8v0.8L12,46h1.2
			l0.4,0.4l-0.8,0.8h-0.4v0.4h0.4V48l0.4,0.4h0.4v0.4H14v0.8h-0.4l0.8,0.8h0.8l0.8,0.8v-0.4l0.4,0.4h0.4v0.4h0.4V50l0.4,0.4v0.8
			l0.4,0.4l0.4-0.4h0.4v0.4h0.4l1.6-1.2h-0.4l-0.8-0.8L20,48h0.4H20l0.4,1.6h0.4l0.4-0.4l1.2,0.8h0.4l0.4-0.4h2L26,50h2l0.4,0.4H28
			v0.4h1.2l0.4-0.8H30v1.2l0.4,0.4h0.4v-0.8l0.4-0.4l0.4,0.4h1.2l0.8,1.2v0.8l0.4,0.4v-1.6l0.4,0.4h0.4l0.4,0.4l-0.4,0.8v0.4
			l0.4,0.8l0.4-0.4v-0.4l0.8-1.2h0.4l0.4,0.4h0.4V54l0.4,0.4l0.8-0.4v-0.4l0.8,0.4h0.8v-0.4h0.4l0.8,0.8l-0.4,0.4v0.8h-0.8L40,56
			v0.4h0.8l0.8,0.4v-0.4L42,56h0.8l0.8,0.8v0.4h-0.4v0.4l0.4,0.4l0.4-0.4v-0.4h0.4v1.6l0.8-0.8v-0.8v0.4h0.4L46,58l-0.4,0.8
			l-0.8,0.8h1.6l0.4,0.4v0.8h-1.2l-0.4,0.4H46l0.4,0.4H46v0.8h0.4V62h0.8v1.6l0.4-0.4v-0.4H48v-0.4l0.4,0.4l0.4,1.2v1.6l0.4,1.2v1.6
			l0.4,2.4l0.8,1.2v0.4l0.4,0.4l-0.4,0.4V74l-0.8,0.8v1.6l-1.2,1.2v1.2L48,79.6l0.4,0.4h0.8l0.8-0.4h1.2l0.4-0.4H52l0.4-0.4l0.8-2
			l0.4-0.4H54l1.2,1.2l0.8,1.6l-1.2,1.2L54,81.6l-0.8,2L52.8,84v1.2h0.4l1.6-1.6L56,82h1.2l0.4,0.4v2.4L56,86l-0.4,0.8L54,87.2
			l-0.8,0.4h1.2l0.8-0.4v0.4l0.4,0.4l0.4-0.4h1.2v-0.4l0.4-0.4l1.2-0.4l0.4-0.4h1.6v-0.4h-0.4L60,85.2h-0.4l1.2-3.2l0.4-0.4l1.6,0.8
			h0.4l0.4,0.4v0.8l-0.4,0.8v0.8l1.2-1.2v-1.2l0.8-0.4H68v-0.8l0.4-0.4h0.4L68,80.4v-1.6h0.4l0.8,0.4l0.8-0.8V78h0.8l2.4-1.2
			l1.2-1.6h0.4v0.4L74.4,76v0.8H74v0.8h0.4v-0.4h0.4v-0.4h0.4l-0.4,1.6l0.4-0.4h0.4l0.8,0.8l0.4-0.4h0.4v-1.6l0.4-0.4v-0.8H78
			l0.4,1.2v0.8H80l0.4,0.4h0.4l-0.4-0.4h0.4l0.4,0.4h0.4v0.4H82v0.4h0.4l0.8-0.8l-1.6-2v-0.4l-0.8-1.2V74l-0.4-0.4v-1.2L80,72v-0.8
			h0.4v-1.6l0.4-0.4l0.4-1.2H82l0.4-0.4v-0.4l0.4,0.4h0.4l0.8,1.2h0.4v-0.4l0.4-0.8h-0.4h0.4v-0.4L84,66l-1.6-4l0.4-0.4V60l0.8-0.4
			h0.8v-0.8l0.4-0.4L84.4,58v-0.8l0.8-1.2h0.4v-0.4l0.8-0.8V54l0.4-0.4v-0.4l4.4-3.2l-0.4-0.8l-0.4,0.4L90,49.2v0.4h-0.8l-4,1.2
			L84,49.2h-0.4l-1.2,1.2v0.4h-4l-0.8-1.2l-0.8-3.2l0.4-0.4v-0.4l-0.4-0.8v-1.6l0.4-0.8V42h0.4v-0.8l0.8-1.6v-1.2l0.4-1.2l0.8-1.2
			H80v-0.8l0.4-0.8l2-2.4l1.2-0.4l0.4-0.8h0.8l0.8-0.8H86v-0.8h1.2l1.2-1.2H88l-0.4-0.4v-1.2L88,26v-3.2h0.8l0.4-0.4l1.2,0.4V22
			l0.8-1.6V20l-0.4-0.4L90,20l-0.4,0.8h-0.8v-0.4l0.4-0.4l-0.4-0.4H88v-1.2l0.4-0.4v-0.8l0.4-0.4l0.8-0.4h1.2v-0.8L90,14.8h1.2
			l1.6-2l0.4-0.4h0.4L94,9.6l-0.4-0.4v0.4h-0.4l-0.4-0.4H92l-0.4-0.8V7.6h0.8l1.2,0.8H94V7.2l0.4-0.4V6.4h0.4L94.4,6H94V5.6l0.4-0.4
			l2,1.6l0.8,1.6h0.4L98,8h0.4V5.6L98,5.2V4.4h0.4V4l0.8,0.4h0.4l0.8-0.8h0.8l0.4,0.4l-0.4,0.4v0.4l-0.4,0.8v0.8l2.4-0.4h3.6
			l0.4,0.4l1.2-0.8l0.4,0.4v0.8l0.4,0.4v0.4l0.8-0.8V6l1.2-0.8l1.2-0.4l0.399-0.4l2.4-0.8l3.6-0.4l1.2-0.4h1.6L122,2l1.2,0.8h0.8
			l0.8-1.2l1.2,2l2,1.6h0.4l0.399-0.8l0.8-0.4V3.6l0.4-0.4h0.8L130,2.4h1.2v0.8L132,4h0.8l2,0.8h0.4L136,4l0.4,0.4v1.2L136.8,6
			l1.601,0.8l0.8-0.8h0.399l0.4-0.4l0.4,0.8L139.6,7.6v1.6h1.2l1.601,0.4l0.399-0.8l1.2-1.2h0.4V8l0.399,0.4v0.8L144.4,9.6V10
			l0.8,0.4v0.4l2-1.2L147.6,10l-0.399,1.6l1.6,2h1.601L150.8,14l0.8-0.4h4.4l2,0.4l0.4,0.4h2.399l1.2-0.8l0.4-1.6l0.8-1.6L163.6,10
			h0.801l1.6,1.2l-0.4,0.4H165.2l-0.4,0.4H164.4v0.4h0.399l0.8,0.8v0.4l-0.8,2l1.601,1.2h0.399v0.8l1.2,0.8l0.4,0.8l-0.4,1.2
			l0.4,0.8l0.399-0.4v-0.4h0.4L170,20h0.8l0.8-0.4L173.2,18h1.2l0.8,0.4L176,18h0.4l2,0.8h1.6l2.4,1.6h1.199l1.2,0.8h0.4l0.399,0.4
			l0.801-0.8h0.399l0.8,1.2v0.4h-0.8v1.2l0.8,0.4v0.8l-0.399,0.4h-0.4h1.2l0.4-0.8h2l-0.4-0.8v-0.8h0.8l0.4,0.8l0.399,1.6l0.4,0.4
			V26h0.4l0.8-1.2v-0.4l1.2-0.8h0.8L195.6,24l1.601,0.8h0.399l1.601,1.6l1.2,0.8L202,30v0.8l-0.4,0.8v1.2l0.4,0.8V34l-0.4,0.8
			l-0.8-0.4v-1.2H200.4v0.4l-1.2,0.8L198,34v0.8h1.2v0.4h0.399l0.801,1.2v0.8l0.399,0.4v0.8L200.4,40l1.6,1.6v1.6l0.8,2.8h0.4
			l0.399,0.4l0.801,1.2v1.2l1.6,6.8l0.4,0.8l0.8,0.8v0.4h-0.4L206,58l-0.8,0.8h-0.4v0.4H204l-0.8-0.4l-0.8,0.8l-0.4-0.4l-0.8,0.8
			h-0.4v-0.4l-0.8-0.8l-0.8,1.2H198l-0.4-0.4v-1.2H197.2l-0.8-0.4H195.6v0.8l-0.399,0.4L195.6,60l0.801,0.8l-0.4,0.4h-0.8l-0.4,0.4
			H192.4l-1.2-0.8l-0.8,0.4h-2l-3.2,0.8h-2l-0.4,0.4v0.8l0.8,0.4h1.2l0.4-0.4h0.8l0.8,0.4l1.2,1.2h1.2l1.2,0.8l0.399-0.4v0.4
			l0.4,0.4h1.2l0.8-0.4h2.8l0.8,0.8h1.601l0.8-0.4l2,1.6V68l-0.4,0.8l0.4,0.8V70l0.399,0.4h1.2l2,1.6l0.4,0.8l0.8,0.4h0.8l0.4,0.4h2
			l1.2,1.2l1.199,1.6l1.601,2.8v0.4l0.8,1.6v0.4l0.8,0.4l1.601,1.6V86l0.399,0.4v1.2l0.4,0.4v0.4L218,90v3.2l1.2,3.2V98h-0.4v2
			L218.4,100.4v1.2l0.8,1.2l-0.8,1.2v2.399l0.399,0.4L218,108l0.4,1.6H218v0.4h-0.4L217.2,111.2l0.8,1.601v1.6l1.6,1.2l-0.399,1.6
			v0.4l0.399,0.4l-0.399,0.8l-0.8,0.8v0.8l-0.801,1.2l-2.399,2.8L214.8,126L214,126.4l-0.8,0.8h0.399l-0.8,0.4l-0.8,0.8l-0.4,0.8
			V130l0.4,1.6l2,1.6v2.4l-0.4,0.8v1.2l-0.8,0.8H212.4l-0.801,0.4H210.4l-1.2,0.8v0.4L207.6,140.4l-0.8-0.8l0.4-1.6v-1.2l-0.8-0.4
			H206v2.8L205.6,140v1.6L205.2,142h-0.4v0.399l-0.399,0.8V144H204l-0.8,0.8v2l-0.4,0.8H202.4l0.399-0.8v-2H202.4L201.6,147.2v1.2
			l-0.399,0.8V152l-0.8,1.6v0.8l-1.2,0.8v1.601l0.399,0.399l-0.8,1.2l-0.8,0.4h-0.4l-0.8-0.4l-2,0.4l-0.399,0.8L193.6,160H193.2
			v0.399l-0.4,0.4v0.399l1.601,2.4v1.2l-0.4,0.8l-1.6,1.6l-0.4,1.2l-0.8,0.4v0.8l-1.2,0.8h-1.2L188.4,170L188,171.2v1.2l-0.4,0.4
			l-0.8,0.399h-1.6V174l-1.2,0.8h-1.2l-1.6,1.6H180l-3.6,2.4H174.8v0.399l-1.2,1.2H173.2L172.8,180H172.4v0.8H172l-0.4-0.4
			l-0.399-1.6V178l-0.4-0.4v-0.4H170.4V178l-0.801,0.8v0.399L169.2,180H167.6l-1.6-0.4l-0.4-0.4v-0.8h-0.8l-0.399,0.4H164l-2,1.2
			l-1.6,1.199H160l-0.8,0.4v0.4h-0.4L158.4,181.2l-0.801-0.8v0.4L157.2,181.2L155.6,182h-0.8l-0.8,0.8v0.399l0.8,1.2l-0.399,0.4
			l-0.4-0.4l-2-0.8l-0.4-0.4H151.2l-0.8-0.399L149.6,183.2h-0.8l-0.8,0.4l-0.8-0.4L146.4,184h-1.2l-2-0.4l-1.2-0.8v-0.4L141.6,182
			h-0.8l-0.8-1.2l-2-2h-0.4l-0.399-0.4v0.4l1.2,2l-0.4,0.8l-0.8,0.4l-1.2-1.2h-0.4l-1.199,0.8H134l-0.8,0.4l-1.2-0.4l-0.4,0.4h-0.8
			l-0.8-0.4h-0.8l-0.8-0.8v-0.4H127.6l-2.8-1.6L124.4,179.2V180L123.6,178.4L123.2,178l0.399-0.801l0.4,0.4l0.4-0.4v-2H124v0.4
			l-0.4-0.4l0.4-0.8l0.4,0.4h1.199l0.4,0.399l0.4-0.399l-0.4-0.4h-0.4l-1.199-0.8H124l0.4-0.4v-0.8l0.399-0.8l0.8,0.4h0.4v-0.4
			l1.6-0.4l1.2,0.801v-0.4l-0.8-0.8l-0.8-0.4h-0.4L126.4,170h0.8V169.2h1.2l0.399-0.399l-0.399-0.4v-0.8h0.399l0.4-0.4l0.399,1.601
			l0.4,0.8l0.4-0.4v-0.8l-0.801-1.2v-0.8l-0.399-0.8l-0.8-0.8V164h1.6v-0.4h0.4l0.399,0.8l0.4-0.399l-0.4-0.801l0.4-0.399l-0.4-2.8
			h1.2l0.4-0.801V158.8L132,159.2h-1.2v-0.8l-1.2-0.8V156H129.2l-0.4-1.2V154l-0.399-0.4v-1.2H127.6V152l-0.8-0.801L126.4,150
			l-0.4-0.4v-0.4h-0.4V148.8L125.2,149.2v-2h-0.8v0.4L124,148v0.399V148l-1.2-1.2H122V146h0.8v0.399l1.2-0.8h0.4l1.199-1.2V144
			l1.2,1.199h0.4l-0.4-0.399l-0.399-1.2H126v-0.8l0.4,0.399h0.399V142.8l0.4-0.8l-0.4-0.4v-0.4H126.4l0.399-0.8V140H126.4v-1.2H126
			l-0.4-0.4V138h0.4l0.4-1.2l0.399-0.4L126.4,136L124.8,136.4v-0.8H124.4v-0.8h0.399l-0.399-0.4H124v-0.8l-0.4-0.4v-0.8H123.2l-2-2
			V130l-0.8-0.4v-0.4l0.399-0.8l0.8-0.8H120v0.8l-0.4,0.4L118,127.2h-0.4V126.8H117.2V126h-0.4v0.399L116.4,126V125.2h0.399V124.8
			H116.4v-0.4h-1.2V124l-0.4,0.399H114.4V124l-0.4-0.4h-0.4l-0.8-0.8H112.4l-1.601-1.2h-0.4v-0.4H110V120.4z"/>
		<path id="polyF1S12P98" d="M8,23.6l0.4-0.4v-0.4h0.4v0.4L8,24.4v0.8l-0.4,0.4V26l-0.4-0.4v-1.2l0.4-0.8H8z"/>
		<path id="polyF1S12P99" d="M6.8,24.4v0.8H6v-0.4l0.4-0.4L6.8,24V24.4z"/>
		<path id="polyF1S12P103" d="M0.8,29.2H0l0.4-0.4h0.4V29.2z"/>
		<path id="polyF1S12P104" d="M0.8,27.6V28l-0.4,0.4V28L0.8,27.6z"/>
		<path id="polyF1S12P105" d="M0.4,25.2l0.4-0.4h0.4l-0.4,0.4l0.4,0.4L0.8,26h0.4l-0.4,0.4v0.8H0.4v0.4H0V26l0.4-0.4V25.2z"/>
		<path id="polyF1S12P106" d="M3.2,16.4H2.8V16h0.4V16.4z"/>
		<path id="polyF1S12P107" d="M1.6,18v0.4H0.8L2,16.8v0.4L1.6,18z"/>
	</g>
	<g id="gATG">
	</g>
	<g id="gAUT">
	</g>
	<g id="gAZE">
	</g>
	<g id="gBEL">
	</g>
	<g id="gBEN">
	</g>
	<g id="gBFA">
	</g>
	<g id="gBGD">
	</g>
	<g id="gBGR">
	</g>
	<g id="gBHR">
	</g>
	<g id="gBHS">
	</g>
	<g id="gBIH">
	</g>
	<g id="gBLR">
	</g>
	<g id="gBLZ">
	</g>
	<g id="gBRB">
	</g>
	<g id="gBRN">
	</g>
	<g id="gBTN">
	</g>
	<g id="gCAF">
	</g>
	<g id="gCAN">
	</g>
	<g id="gCHE">
	</g>
	<g id="gCH1">
		<g id="gCHN">
		</g>
		<g id="gHKG">
		</g>
		<g id="gMAC">
		</g>
	</g>
	<g id="gCIV">
	</g>
	<g id="gCMR">
	</g>
	<g id="gCPV">
	</g>
	<g id="gCRI">
	</g>
	<g id="gCUB">
	</g>
	<g id="gCYN">
	</g>
	<g id="gCYP">
	</g>
	<g id="gCZE">
	</g>
	<g id="gDEU">
	</g>
	<g id="gDJI">
	</g>
	<g id="gDMA">
	</g>
	<g id="gDN1">
		<g id="gDNK">
		</g>
		<g id="gFRO">
		</g>
		<g id="gGRL">
		</g>
	</g>
	<g id="gDOM">
	</g>
	<g id="gDZA">
	</g>
	<g id="gEGY">
	</g>
	<g id="gERI">
	</g>
	<g id="gESP">
	</g>
	<g id="gEST">
	</g>
	<g id="gETH">
	</g>
	<g id="gFSM">
	</g>
	<g id="gGEO">
	</g>
	<g id="gGHA">
	</g>
	<g id="gGIN">
	</g>
	<g id="gGMB">
	</g>
	<g id="gGNB">
	</g>
	<g id="gGNQ">
	</g>
	<g id="gGRC">
	</g>
	<g id="gGRD">
	</g>
	<g id="gGTM">
	</g>
	<g id="gGUY">
	</g>
	<g id="gHND">
	</g>
	<g id="gHRV">
	</g>
	<g id="gHTI">
	</g>
	<g id="gHUN">
	</g>
	<g id="gIND">
	</g>
	<g id="gIRL">
	</g>
	<g id="gIRN">
	</g>
	<g id="gIRQ">
	</g>
	<g id="gISL">
	</g>
	<g id="gISR">
		<g id="gPSX">
		</g>
	</g>
	<g id="gITA">
	</g>
	<g id="gJAM">
	</g>
	<g id="gJOR">
	</g>
	<g id="gJPN">
	</g>
	<g id="gKAS">
	</g>
	<g id="gKAZ">
	</g>
	<g id="gKGZ">
	</g>
	<g id="gKHM">
	</g>
	<g id="gKNA">
	</g>
	<g id="gKOR">
	</g>
	<g id="gKOS">
	</g>
	<g id="gKWT">
	</g>
	<g id="gLAO">
	</g>
	<g id="gLBN">
	</g>
	<g id="gLBR">
	</g>
	<g id="gLBY">
	</g>
	<g id="gLCA">
	</g>
	<g id="gLIE">
	</g>
	<g id="gLKA">
	</g>
	<g id="gLTU">
	</g>
	<g id="gLUX">
	</g>
	<g id="gLVA">
	</g>
	<g id="gMAR">
	</g>
	<g id="gMCO">
	</g>
	<g id="gMDA">
	</g>
	<g id="gMDV">
	</g>
	<g id="gMEX">
	</g>
	<g id="gMHL">
	</g>
	<g id="gMKD">
	</g>
	<g id="gMLI">
	</g>
	<g id="gMLT">
	</g>
	<g id="gMMR">
	</g>
	<g id="gMNE">
	</g>
	<g id="gMNG">
	</g>
	<g id="gMRT">
	</g>
	<g id="gMYS">
	</g>
	<g id="gNER">
	</g>
	<g id="gNGA">
	</g>
	<g id="gNIC">
	</g>
	<g id="gNOR">
	</g>
	<g id="gNPL">
	</g>
	<g id="gOMN">
	</g>
	<g id="gPAK">
	</g>
	<g id="gPAN">
	</g>
	<g id="gPHL">
	</g>
	<g id="gPLW">
	</g>
	<g id="gPOL">
	</g>
	<g id="gPRK">
	</g>
	<g id="gPRT">
	</g>
	<g id="gQAT">
	</g>
	<g id="gROU">
	</g>
	<g id="gRUS">
	</g>
	<g id="gSAH">
	</g>
	<g id="gSAU">
	</g>
	<g id="gSDN">
	</g>
	<g id="gSDS">
	</g>
	<g id="gSEN">
	</g>
	<g id="gSGP">
	</g>
	<g id="gSLE">
	</g>
	<g id="gSLV">
	</g>
	<g id="gSMR">
	</g>
	<g id="gSOL">
	</g>
	<g id="gSRB">
	</g>
	<g id="gSTP">
	</g>
	<g id="gSUR">
	</g>
	<g id="gSVK">
	</g>
	<g id="gSVN">
	</g>
	<g id="gSWE">
	</g>
	<g id="gSYR">
	</g>
	<g id="gTCD">
	</g>
	<g id="gTGO">
	</g>
	<g id="gTHA">
	</g>
	<g id="gTJK">
	</g>
	<g id="gTKM">
	</g>
	<g id="gTTO">
	</g>
	<g id="gTUN">
	</g>
	<g id="gTUR">
	</g>
	<g id="gTWN">
	</g>
	<g id="gUKR">
	</g>
	<g id="gUZB">
	</g>
	<g id="gVAT">
	</g>
	<g id="gVCT">
	</g>
	<g id="gVEN">
	</g>
	<g id="gVNM">
	</g>
	<g id="gYEM">
	</g>
</g>
<g id="gLatLongLines" display="none">
	
		<path id="lat-60" display="inline" opacity="0.5" fill="none" stroke="#0978AB" stroke-width="0.25" stroke-linejoin="bevel" enable-background="new    " d="
		M276.5,413.7h-8.8v-0.4h-4.8V412.9h-3.6v-0.4h-2.8v-0.4h-2.4l-0.4-0.399h-2v-0.4h-2V410.9h-2v-0.4h-1.6l-0.4-0.4h-1.2l-0.4-0.399
		h-1.2l-0.4-0.4h-1.2l-0.4-0.399h-1.2l-0.4-0.4h-0.8l-0.4-0.4h-1.2V407.7h-1.2l-0.4-0.4h-0.8l-0.4-0.399h-0.8l-0.4-0.4h-0.8
		l-0.4-0.4h-0.8l-0.4-0.399h-0.8l-1.2-0.8h-0.8l-0.4-0.4h-0.8v-0.4h-0.8l-0.4-0.399h-0.8v-0.4h-0.8l-1.2-0.8h-0.8v-0.4h-0.8
		l-0.4-0.399h-0.8v-0.4h-0.8V400.9h-0.8v-0.4h-0.8l-0.4-0.4h-0.4V399.7h-0.8v-0.4h-0.8V398.9h-0.8l-0.4-0.4h-0.4v-0.4h-0.8V397.7
		h-0.4l-0.4-0.4h-0.8V396.9h-0.4l-1.2-0.801h-0.4V395.7h-0.4l-0.4-0.4h-0.4l-0.4-0.399h-0.4v-0.4h-0.8v-0.4h-0.8V393.7h-0.4
		l-0.4-0.4h-0.4V392.9h-0.4l-0.4-0.4h-0.4v-0.4h-0.4l-0.4-0.399h-0.4v-0.4h-0.4l-0.4-0.399h-0.4v-0.4h-0.4l-0.4-0.4h-0.4V389.7h-0.4
		l-0.4-0.4h-0.4V388.9h-0.4l-0.4-0.4h-0.4v-0.4h-0.4l-0.4-0.399h-0.4v-0.4h-0.4V386.9h-0.4v-0.4h-0.4l-0.4-0.4h-0.4V385.7h-0.4
		l-0.8-0.8h-0.4v-0.4h-0.4l-1.2-1.2h-0.4V382.9h-0.4l-0.8-0.801h-0.4V381.7l-0.4-0.4h-0.4V380.9h-0.4v-0.4h-0.4l-1.2-1.2h-0.4V378.9
		h-0.4v-0.4h-0.4v-0.4h-0.4V377.7h-0.4l-0.4-0.4V376.9h-0.4v-0.4h-0.4l-1.6-1.6h-0.4v-0.4l-0.8-0.8h-0.4v-0.4l-0.8-0.8h-0.4v-0.4
		l-1.6-1.6v-0.4h-0.4V369.7h-0.4l-0.4-0.4V368.9h-0.4v-0.4h-0.4v-0.4h-0.4V367.7h-0.4v-0.4l-1.2-1.2V365.7h-0.4v-0.4h-0.4V364.9
		l-0.4-0.4h-0.4v-0.4l-0.8-0.8V362.9h-0.4v-0.4l-1.2-1.2V360.9h-0.4v-0.4l-0.8-0.8v-0.4h-0.4V358.9l-0.4-0.4v-0.4h-0.4V357.7h-0.4
		v-0.4h-0.4V356.9l-0.4-0.4v-0.4h-0.4V355.7l-0.4-0.4V354.9h-0.4v-0.4l-0.4-0.4V353.7h-0.4v-0.4l-0.4-0.399v-0.4h-0.4v-0.4
		l-0.4-0.399v-0.4h-0.4V350.9l-0.4-0.4v-0.4h-0.4V349.7l-0.4-0.4V348.9h-0.4v-0.4l-0.4-0.4V347.7h-0.4v-0.8h-0.4V346.1h-0.4V345.7
		l-0.4-0.4V344.9l-0.4-0.4v-0.4h-0.4V343.7l-0.8-1.2v-0.4h-0.4v-0.8l-0.4-0.399v-0.4h-0.4v-0.8h-0.4v-0.4l-0.4-0.399V338.1h-0.4
		v-0.8h-0.4v-0.8h-0.4v-0.4l-0.4-0.399v-0.8h-0.4V334.1h-0.4v-0.8h-0.4v-0.8l-0.4-0.4v-0.8h-0.4v-0.8l-0.8-1.2v-0.8h-0.4v-0.8
		l-0.4-0.4v-0.8h-0.4v-0.8l-0.4-0.4v-0.8l-0.8-1.2v-0.8l-0.4-0.4v-0.8l-0.4-0.399V320.1l-0.4-0.399v-0.8l-0.4-0.4v-0.8l-0.4-0.4
		v-1.2h-0.4V314.9l-0.4-0.4v-0.8l-0.4-0.4v-1.2l-0.4-0.399v-1.2l-0.4-0.4V308.9l-0.4-0.4v-1.2l-0.4-0.399V305.3h-0.4v-2h-0.4v-2
		h-0.4v-2l-0.4-0.399v-2.4h-0.4v-2.8h-0.4V290.1h-0.4v-4.8h-0.4v-17.6h0.4v-4.8h0.4v-3.6h0.4v-2.8h0.4v-2.4l0.4-0.4v-2h0.4v-2h0.4
		v-2h0.4v-1.6l0.4-0.4v-1.2l0.4-0.4v-1.2l0.4-0.4v-1.2l0.4-0.4v-1.2l0.4-0.4v-0.8l0.4-0.4v-1.2h0.4v-1.2l0.4-0.4v-0.8l0.4-0.4v-0.8
		l0.4-0.4v-0.8l0.4-0.4v-0.8l0.4-0.4v-0.8l0.8-1.2v-0.8l0.4-0.4v-0.8h0.4v-0.8l0.4-0.4v-0.8h0.4v-0.8l0.8-1.2v-0.8h0.4v-0.8l0.4-0.4
		v-0.8h0.4v-0.8h0.4v-0.8h0.4v-0.8l0.4-0.4v-0.4h0.4v-0.8h0.4v-0.8h0.4v-0.8l0.4-0.4v-0.4h0.4v-0.8h0.4v-0.4l0.4-0.4v-0.8h0.4v-0.4
		l0.8-1.2v-0.4h0.4v-0.4l0.4-0.4v-0.4l0.4-0.4v-0.4h0.4v-0.8h0.4v-0.8h0.4v-0.4l0.4-0.4v-0.4h0.4v-0.4l0.4-0.4v-0.4h0.4v-0.4
		l0.4-0.4v-0.4h0.4v-0.4l0.4-0.4v-0.4h0.4v-0.4l0.4-0.4v-0.4h0.4v-0.4l0.4-0.4v-0.4h0.4v-0.4l0.4-0.4v-0.4h0.4v-0.4l0.4-0.4v-0.4
		h0.4v-0.4h0.4v-0.4h0.4v-0.4l0.4-0.4v-0.4h0.4v-0.4l0.8-0.8v-0.4h0.4v-0.4l1.2-1.2v-0.4h0.4v-0.4l0.8-0.8v-0.4h0.4l0.4-0.4v-0.4
		h0.4v-0.4h0.4v-0.4l1.2-1.2v-0.4h0.4v-0.4h0.4v-0.4h0.4v-0.4h0.4v-0.4l0.4-0.4h0.4v-0.4h0.4v-0.4l1.6-1.6v-0.4h0.4l0.8-0.8v-0.4
		h0.4l0.8-0.8v-0.4h0.4l1.6-1.6h0.4v-0.4h0.4v-0.4l0.4-0.4h0.4v-0.4h0.4v-0.4h0.4v-0.4h0.4v-0.4h0.4l1.2-1.2h0.4v-0.4h0.4v-0.4h0.4
		l0.4-0.4v-0.4h0.4l0.8-0.8h0.4v-0.4h0.4l1.2-1.2h0.4v-0.4h0.4l0.8-0.8h0.4v-0.4h0.4l0.4-0.4h0.4v-0.4h0.4v-0.4h0.4v-0.4h0.4
		l0.4-0.4h0.4v-0.4h0.4l0.4-0.4h0.4v-0.4h0.4l0.4-0.4h0.4v-0.4h0.4l0.4-0.4h0.4v-0.4h0.4l0.4-0.4h0.4v-0.4h0.4l0.4-0.4h0.4v-0.4h0.4
		l0.4-0.4h0.4v-0.4h0.4l0.4-0.4h0.4v-0.4h0.8v-0.4h0.8v-0.4h0.4l0.4-0.4h0.4l0.4-0.4h0.4v-0.4h0.4l1.2-0.8h0.4v-0.4h0.8l0.4-0.4h0.4
		v-0.4h0.8v-0.4h0.4l0.4-0.4h0.8v-0.4h0.8v-0.4h0.8v-0.4h0.4l0.4-0.4h0.8v-0.4h0.8v-0.4h0.8v-0.4h0.8l0.4-0.4h0.8v-0.4h0.8l1.2-0.8
		h0.8v-0.4h0.8l0.4-0.4h0.8v-0.4h0.8l0.4-0.4h0.8l1.2-0.8h0.8l0.4-0.4h0.8l0.4-0.4h0.8l0.4-0.4h0.8l0.4-0.4h0.8l0.4-0.4h1.2v-0.4
		h1.2l0.4-0.4h0.8l0.4-0.4h1.2l0.4-0.4h1.2l0.4-0.4h1.2l0.4-0.4h1.2l0.4-0.4h1.6v-0.4h2v-0.4h2v-0.4h2l0.4-0.4h2.4v-0.4h2.8v-0.4
		h3.6v-0.4h4.8v-0.4h17.6v0.4h4.8v0.4h3.601v0.4h2.8v0.4h2.4l0.399,0.4h2v0.4h2v0.4h2v0.4h1.601l0.399,0.4h1.2l0.4,0.4h1.199
		l0.4,0.4h1.2l0.399,0.4h1.2l0.4,0.4h0.8l0.4,0.4h1.199v0.4h1.2l0.4,0.4h0.8l0.4,0.4h0.8l0.399,0.4h0.801l0.399,0.4h0.8l0.4,0.4h0.8
		l1.2,0.8h0.8l0.4,0.4h0.8v0.4h0.8l0.4,0.4h0.8v0.4h0.8l1.2,0.8h0.8v0.4h0.8l0.4,0.4h0.8v0.4h0.8v0.4h0.801v0.4h0.8l0.399,0.4h0.4
		v0.4h0.8v0.4h0.8v0.4h0.801l0.399,0.4h0.4v0.4h0.8v0.4h0.4l0.399,0.4h0.8v0.4h0.4l1.2,0.8h0.399v0.4h0.4l0.4,0.4h0.399l0.4,0.4
		h0.399v0.4h0.801v0.4h0.8v0.4h0.399l0.4,0.4h0.4v0.4h0.399l0.4,0.4h0.399v0.4h0.4l0.4,0.4h0.399v0.4h0.4l0.399,0.4h0.4v0.4h0.4
		l0.399,0.4h0.4v0.4h0.399l0.4,0.4h0.4v0.4h0.399l0.4,0.4h0.399v0.4h0.4l0.4,0.4h0.399v0.4h0.4v0.4h0.399v0.4h0.4l0.4,0.4h0.399v0.4
		h0.4l0.8,0.8h0.4v0.4h0.399l1.2,1.2h0.4v0.4h0.399l0.8,0.8h0.4v0.4l0.4,0.4h0.399v0.4h0.4v0.4h0.399l1.2,1.2h0.4v0.4h0.399v0.4h0.4
		v0.4h0.4v0.4h0.399l0.4,0.4v0.4h0.399v0.4h0.4l1.6,1.6h0.4v0.4l0.8,0.8h0.4v0.4l0.8,0.8h0.4v0.4l1.6,1.6v0.4h0.4v0.4h0.399l0.4,0.4
		v0.4h0.399v0.4h0.4v0.4h0.4v0.4h0.399v0.4l1.2,1.2v0.4h0.4v0.4h0.399v0.4l0.4,0.4h0.399v0.4l0.801,0.8v0.4h0.399v0.4l1.2,1.2v0.4
		h0.4v0.4l0.8,0.8v0.4h0.399v0.4l0.4,0.4v0.4h0.4v0.4h0.399v0.4h0.4v0.4l0.399,0.4v0.4h0.4v0.4l0.4,0.4v0.4h0.399v0.4l0.4,0.4v0.4
		h0.399v0.4l0.4,0.4v0.4h0.4v0.4l0.399,0.4v0.4h0.4v0.4l0.399,0.4v0.4h0.4v0.4l0.4,0.4v0.4h0.399v0.4l0.4,0.4v0.4h0.399v0.8h0.4v0.8
		h0.4v0.4l0.399,0.4v0.4l0.4,0.4v0.4h0.399v0.4l0.801,1.2v0.4h0.399v0.8l0.4,0.4v0.4h0.399v0.8h0.4v0.4l0.4,0.4v0.8h0.399v0.8h0.4
		v0.8h0.399v0.4l0.4,0.4v0.8h0.4v0.8h0.399v0.8h0.4v0.8l0.399,0.4v0.8h0.4v0.8l0.8,1.2v0.8h0.4v0.8l0.399,0.4v0.8h0.4v0.8l0.4,0.4
		v0.8l0.8,1.2v0.8l0.399,0.4v0.8l0.4,0.4v0.8l0.4,0.4v0.8l0.399,0.4v0.8l0.4,0.4v1.2h0.399v1.2l0.4,0.4v0.8l0.4,0.4v1.2l0.399,0.4
		v1.2l0.4,0.4v1.2l0.399,0.4v1.2l0.4,0.4v1.6h0.4v2h0.399v2h0.4v2l0.399,0.4v2.4h0.4v2.8h0.4v3.6h0.399v4.8h0.4v17.6h-0.4v4.8H412.9
		v3.601h-0.4v2.8h-0.4v2.4L411.7,299.3v2h-0.4v2H410.9v2h-0.4v1.601l-0.4,0.399v1.2l-0.399,0.4v1.199l-0.4,0.4v1.2L408.9,312.1v1.2
		l-0.4,0.4v0.8l-0.4,0.4v1.199H407.7v1.2l-0.4,0.4v0.8l-0.399,0.4v0.8l-0.4,0.399v0.801l-0.4,0.399v0.8l-0.399,0.4v0.8l-0.8,1.2v0.8
		l-0.4,0.4v0.8h-0.4v0.8l-0.399,0.4v0.8h-0.4v0.8l-0.8,1.2v0.8h-0.4v0.8l-0.399,0.4v0.8h-0.4v0.8H400.9v0.801h-0.4v0.8l-0.4,0.399
		v0.4H399.7v0.8h-0.4v0.8H398.9v0.801l-0.4,0.399v0.4h-0.4v0.8H397.7v0.4l-0.4,0.399v0.8H396.9v0.4l-0.801,1.2v0.399H395.7v0.4
		l-0.4,0.4v0.399l-0.399,0.4v0.399h-0.4v0.801h-0.4v0.8H393.7v0.399l-0.4,0.4v0.4H392.9v0.399l-0.4,0.4v0.399h-0.4v0.4l-0.399,0.4
		v0.399h-0.4v0.4L390.9,352.1v0.4h-0.4v0.4l-0.4,0.399v0.4H389.7v0.399l-0.4,0.4v0.4H388.9v0.399l-0.4,0.4v0.399h-0.4v0.4
		l-0.399,0.4v0.399h-0.4v0.4H386.9v0.399h-0.4v0.4l-0.4,0.4v0.399H385.7v0.4l-0.8,0.8v0.4h-0.4v0.399l-1.2,1.2v0.4H382.9v0.399
		l-0.801,0.8v0.4H381.7l-0.4,0.4v0.399H380.9v0.4h-0.4v0.399l-1.2,1.2v0.4H378.9v0.399h-0.4v0.4h-0.4v0.4H377.7v0.399l-0.4,0.4
		H376.9v0.399h-0.4v0.4l-1.6,1.6v0.4h-0.4l-0.8,0.8v0.4h-0.4l-0.8,0.8v0.4h-0.4l-1.6,1.6h-0.4v0.4H369.7v0.399l-0.4,0.4H368.9v0.399
		h-0.4v0.4h-0.4v0.4H367.7v0.399h-0.4l-1.2,1.2H365.7v0.4h-0.4v0.399H364.9l-0.4,0.4v0.399h-0.4l-0.8,0.801H362.9v0.399h-0.4
		l-1.2,1.2H360.9v0.4h-0.4l-0.8,0.8h-0.4v0.399H358.9l-0.4,0.4h-0.4v0.4H357.7v0.399h-0.4v0.4H356.9l-0.4,0.399h-0.4v0.4H355.7
		l-0.4,0.4H354.9v0.399h-0.4l-0.4,0.4H353.7v0.399h-0.4l-0.399,0.4h-0.4v0.4h-0.4L351.7,391.3h-0.4v0.4H350.9l-0.4,0.399h-0.4v0.4
		H349.7l-0.4,0.4H348.9v0.399h-0.4l-0.4,0.4H347.7v0.399h-0.8v0.4H346.1v0.4H345.7l-0.4,0.399H344.9l-0.4,0.4h-0.4v0.399H343.7
		l-1.2,0.801h-0.4v0.399h-0.8l-0.399,0.4h-0.4v0.399h-0.8v0.4h-0.4l-0.399,0.4H338.1v0.399h-0.8v0.4h-0.8v0.399h-0.4l-0.399,0.4
		h-0.8v0.4H334.1v0.399h-0.8v0.4h-0.8l-0.4,0.399h-0.8v0.4h-0.8l-1.2,0.8h-0.8v0.4h-0.8l-0.4,0.399h-0.8v0.4h-0.8l-0.4,0.4h-0.8
		l-1.2,0.8h-0.8l-0.4,0.399h-0.8l-0.399,0.4H320.1l-0.399,0.4h-0.8l-0.4,0.399h-0.8l-0.4,0.4h-1.2v0.399H314.9l-0.4,0.4h-0.8
		l-0.4,0.4h-1.2L311.7,409.3h-1.2l-0.4,0.4H308.9l-0.4,0.399h-1.2l-0.399,0.4H305.3v0.4h-2v0.399h-2v0.4h-2L298.9,412.1h-2.4v0.4
		h-2.8v0.4H290.1v0.399h-4.8v0.4H276.5"/>
	
		<path id="lat-30" display="inline" opacity="0.5" fill="none" stroke="#0978AB" stroke-width="0.25" stroke-linejoin="bevel" enable-background="new    " d="
		M276.5,514.5h-8l-0.4-0.4h-7.6l-0.4-0.399h-4.4l-0.4-0.4h-4l-0.4-0.399h-2.8l-0.4-0.4h-2.8l-0.4-0.4h-2.4l-0.8-0.399h-2l-0.4-0.4
		h-2l-0.4-0.399h-1.6l-0.4-0.4h-2l-0.4-0.4h-1.6l-0.4-0.399h-1.6l-0.4-0.4h-1.2l-0.4-0.399h-1.6l-0.4-0.4h-1.2l-0.4-0.4h-1.2
		l-0.4-0.399h-1.6l-0.4-0.4h-1.2l-0.4-0.399h-1.2l-0.4-0.4h-1.2l-0.4-0.4h-1.2l-0.4-0.399h-0.8l-0.4-0.4h-1.2l-0.4-0.399h-0.8
		l-0.4-0.4h-0.8l-0.4-0.4h-1.2l-0.4-0.399h-0.8l-0.4-0.4h-0.8l-1.2-0.8h-0.8l-0.4-0.4h-0.8l-0.4-0.399h-0.8l-0.4-0.4h-0.8
		l-0.4-0.399h-0.8l-0.4-0.4h-0.8l-0.4-0.4h-0.8l-0.4-0.399h-0.8l-1.2-0.8h-0.8l-0.4-0.4h-0.8l-1.2-0.8h-0.8l-0.4-0.4h-0.8l-0.8-0.8
		h-0.8l-1.2-0.8h-0.8l-1.2-0.8h-0.8l-0.4-0.4h-0.4l-0.4-0.4h-0.4l-0.4-0.399h-0.8l-0.8-0.8h-0.4l-0.4-0.4h-0.8l-1.2-0.8h-0.4
		l-0.4-0.4h-0.4l-0.4-0.399h-0.8l-0.4-0.4h-0.4v-0.4h-0.4l-0.4-0.399h-0.4l-0.4-0.4h-0.4l-1.2-0.8h-0.8l-0.4-0.4h-0.4V487.7h-0.4
		l-0.4-0.4h-0.4l-1.2-0.8h-0.4l-0.4-0.4h-0.4l-0.4-0.399h-0.4l-0.8-0.8h-0.4l-0.4-0.4h-0.4l-1.2-0.8h-0.4l-0.8-0.8h-0.4l-0.4-0.4
		h-0.4l-0.4-0.4h-0.4l-0.4-0.399h-0.4l-0.4-0.4V480.9h-0.4l-0.4-0.4h-0.4l-1.2-0.8h-0.4l-2-1.601h-0.4l-0.4-0.399h-0.4l-2-1.601
		h-0.4l-0.4-0.399h-0.4v-0.4h-0.4l-0.8-0.8h-0.4l-0.4-0.4h-0.4V473.7h-0.4l-0.8-0.8h-0.4l-0.4-0.4h-0.4v-0.4l-0.4-0.399h-0.4
		l-0.4-0.4h-0.4l-1.2-1.2h-0.4l-0.8-0.8h-0.4V468.9h-0.4l-0.8-0.801h-0.4l-0.4-0.399v-0.4h-0.4l-0.4-0.399h-0.4l-1.6-1.601h-0.4
		l-0.4-0.399h-0.4v-0.4l-0.4-0.4h-0.4l-0.8-0.8h-0.4V462.9l-0.4-0.4h-0.4l-0.4-0.4h-0.4V461.7l-0.4-0.4h-0.4l-1.6-1.6h-0.4l-0.4-0.4
		V458.9h-0.4l-0.8-0.801h-0.4V457.7l-0.4-0.4h-0.4l-2.8-2.8h-0.4l-0.4-0.4V453.7h-0.4l-2-2h-0.4v-0.4l-0.4-0.399h-0.4l-0.4-0.4v-0.4
		h-0.4l-0.8-0.8V448.9h-0.4l-4-4h-0.4v-0.4l-4-4v-0.4h-0.4l-0.8-0.8V438.9h-0.4l-0.8-1.2h-0.4v-0.4l-2-2V434.9h-0.4l-0.4-0.4v-0.4
		l-2.8-2.8V430.9l-0.4-0.4h-0.4v-0.4l-0.8-0.8V428.9h-0.4l-0.4-0.4v-0.4l-1.6-1.6v-0.4l-0.4-0.399h-0.4v-0.4l-0.4-0.399v-0.4
		l-0.4-0.4h-0.4V423.7l-0.8-0.8v-0.4l-0.4-0.4h-0.4V421.7l-0.4-0.4V420.9l-1.6-1.601V418.9l-0.4-0.4v-0.4h-0.4l-0.4-0.399v-0.4
		l-0.8-0.8v-0.4h-0.4V415.7l-0.8-0.8v-0.4l-1.2-1.2V412.9l-0.4-0.4v-0.4l-0.4-0.399h-0.4v-0.4l-0.4-0.399v-0.4l-0.8-0.8v-0.4h-0.4
		V408.9l-0.4-0.4v-0.4l-0.8-0.8V406.9h-0.4v-0.4l-0.4-0.4V405.7l-1.6-2v-0.4l-0.4-0.399v-0.4l-1.6-2v-0.4l-0.8-1.199v-0.4l-0.4-0.4
		V397.7h-0.4l-0.4-0.4V396.9l-0.4-0.4v-0.4l-0.4-0.399v-0.4l-0.4-0.399v-0.4l-0.8-0.8v-0.4l-0.8-1.2V391.7l-0.4-0.4V390.9
		l-0.8-0.801V389.7l-0.4-0.4V388.9l-0.8-1.2v-0.4l-0.4-0.399v-0.4l-0.4-0.4V385.7h-0.4v-0.4l-0.4-0.399V384.1l-0.8-1.199v-0.4
		l-0.4-0.4V381.7l-0.4-0.4V380.9h-0.4v-0.4l-0.4-0.4v-0.8l-0.4-0.399v-0.4l-0.4-0.4V377.7l-0.8-1.2v-0.8l-0.4-0.4V374.9l-0.8-0.801
		v-0.8l-0.4-0.399v-0.4l-0.4-0.4V371.7l-0.4-0.4v-0.8l-0.8-1.2v-0.8l-0.8-1.2v-0.8l-0.8-0.8v-0.8l-0.4-0.4v-0.8l-0.8-1.2v-0.8
		l-0.4-0.4v-0.8l-0.8-1.2v-0.8l-0.4-0.4v-0.8l-0.4-0.399V356.1l-0.4-0.399v-0.8l-0.4-0.4v-0.8l-0.4-0.4v-0.8l-0.4-0.4v-0.8
		l-0.4-0.399V350.1l-0.8-1.199V348.1l-0.4-0.399v-0.8l-0.4-0.4v-1.2l-0.4-0.399V344.1l-0.4-0.399v-0.8l-0.4-0.4v-1.2l-0.4-0.399
		V340.1l-0.4-0.399v-1.2l-0.4-0.4V336.9l-0.4-0.4v-1.2l-0.4-0.399v-1.2l-0.4-0.4v-1.6l-0.4-0.4v-1.2l-0.4-0.399v-1.2l-0.4-0.4v-1.6
		l-0.4-0.4V324.9l-0.4-0.4v-1.6l-0.4-0.4v-1.6l-0.4-0.4v-2l-0.4-0.4v-1.6l-0.4-0.4v-2l-0.4-0.399v-2l-0.4-0.8v-2.4l-0.4-0.4v-2.8
		l-0.4-0.399V302.1l-0.4-0.399v-4l-0.4-0.4V292.9l-0.4-0.4v-7.6l-0.4-0.4v-16l0.4-0.4v-7.6l0.4-0.4v-4.4l0.4-0.4v-4l0.4-0.4v-2.8
		l0.4-0.4v-2.8l0.4-0.4v-2.4l0.4-0.8v-2l0.4-0.4v-2l0.4-0.4v-1.6l0.4-0.4v-2l0.4-0.4v-1.6l0.4-0.4v-1.6l0.4-0.4v-1.2l0.4-0.4v-1.6
		l0.4-0.4v-1.2l0.4-0.4v-1.2l0.4-0.4v-1.6l0.4-0.4v-1.2l0.4-0.4v-1.2l0.4-0.4v-1.2l0.4-0.4v-1.2l0.4-0.4v-0.8l0.4-0.4v-1.2l0.4-0.4
		v-0.8l0.4-0.4v-0.8l0.4-0.4v-1.2l0.4-0.4v-0.8l0.4-0.4v-0.8l0.8-1.2v-0.8l0.4-0.4v-0.8l0.4-0.4v-0.8l0.4-0.4v-0.8l0.4-0.4v-0.8
		l0.4-0.4v-0.8l0.4-0.4v-0.8l0.4-0.4v-0.8l0.8-1.2v-0.8l0.4-0.4v-0.8l0.4-0.4v-0.4l0.4-0.4v-0.8l0.4-0.4v-0.8l0.8-0.8v-0.8l0.8-1.2
		v-0.8l0.8-1.2v-0.8l0.4-0.4v-0.4l0.4-0.4v-0.4l0.4-0.4v-0.8l0.8-0.8v-0.4l0.4-0.4v-0.8l0.8-1.2v-0.4l0.4-0.4v-0.4l0.4-0.4v-0.8
		l0.4-0.4v-0.4h0.4v-0.4l0.4-0.4v-0.4l0.4-0.4v-0.4l0.8-1.2v-0.8l0.4-0.4v-0.4h0.4v-0.4l0.4-0.4v-0.4l0.8-1.2v-0.4l0.4-0.4v-0.4
		l0.4-0.4v-0.4l0.8-0.8v-0.4l0.4-0.4v-0.4l0.8-1.2v-0.4l0.8-0.8v-0.4l0.4-0.4v-0.4l0.4-0.4v-0.4l0.4-0.4v-0.4l0.4-0.4h0.4v-0.4
		l0.4-0.4v-0.4l0.8-1.2v-0.4l1.6-2v-0.4l0.4-0.4v-0.4l1.6-2v-0.4l0.4-0.4v-0.4h0.4v-0.4l0.8-0.8v-0.4l0.4-0.4v-0.4h0.4v-0.4l0.8-0.8
		v-0.4l0.4-0.4v-0.4h0.4l0.4-0.4v-0.4l0.4-0.4v-0.4l1.2-1.2v-0.4l0.8-0.8v-0.4h0.4v-0.4l0.8-0.8v-0.4l0.4-0.4h0.4v-0.4l0.4-0.4v-0.4
		l1.6-1.6v-0.4l0.4-0.4v-0.4h0.4l0.4-0.4v-0.4l0.8-0.8v-0.4h0.4l0.4-0.4v-0.4l0.4-0.4v-0.4h0.4l0.4-0.4v-0.4l1.6-1.6v-0.4l0.4-0.4
		h0.4v-0.4l0.8-0.8v-0.4h0.4l0.4-0.4v-0.4l2.8-2.8v-0.4l0.4-0.4h0.4v-0.4l2-2v-0.4h0.4l0.4-0.4v-0.4l0.4-0.4h0.4v-0.4l0.8-0.8h0.4
		v-0.4l4-4v-0.4h0.4l4-4h0.4v-0.4l0.8-0.8h0.4v-0.4l1.2-0.8v-0.4h0.4l2-2h0.4v-0.4l0.4-0.4h0.4l2.8-2.8h0.4l0.4-0.4v-0.4h0.4
		l0.8-0.8h0.4v-0.4l0.4-0.4h0.4l1.6-1.6h0.4l0.4-0.4v-0.4h0.4l0.4-0.4h0.4l0.4-0.4v-0.4h0.4l0.8-0.8h0.4l0.4-0.4v-0.4h0.4l0.4-0.4
		h0.4l1.6-1.6h0.4l0.4-0.4h0.4v-0.4l0.4-0.4h0.4l0.8-0.8h0.4v-0.4h0.4l0.8-0.8h0.4l1.2-1.2h0.4l0.4-0.4h0.4l0.4-0.4v-0.4h0.4
		l0.4-0.4h0.4l0.8-0.8h0.4v-0.4h0.4l0.4-0.4h0.4l0.8-0.8h0.4v-0.4h0.4l0.4-0.4h0.4l2-1.6h0.4l0.4-0.4h0.4l2-1.6h0.4l1.2-0.8h0.4
		l0.4-0.4h0.4v-0.4l0.4-0.4h0.4l0.4-0.4h0.4l0.4-0.4h0.4l0.4-0.4h0.4l0.8-0.8h0.4l1.2-0.8h0.4l0.4-0.4h0.4l0.8-0.8h0.4l0.4-0.4h0.4
		l1.2-0.8h0.4l0.4-0.4h0.4l0.4-0.4h0.4v-0.4h0.4l0.4-0.4h0.8l1.2-0.8h0.4l0.4-0.4h0.4l0.4-0.4h0.4v-0.4h0.4l0.4-0.4h0.8l0.4-0.4h0.4
		l0.4-0.4h0.4l1.2-0.8h0.8l0.4-0.4h0.4l0.8-0.8h0.8l0.4-0.4h0.4l0.4-0.4h0.4l0.4-0.4h0.8l1.2-0.8h0.8l1.2-0.8h0.8l0.8-0.8h0.8
		l0.4-0.4h0.8l1.2-0.8h0.8l0.4-0.4h0.8l1.2-0.8h0.8l0.4-0.4h0.8l0.4-0.4h0.8l0.4-0.4h0.8l0.4-0.4h0.8l0.4-0.4h0.8l0.4-0.4h0.8
		l0.4-0.4h0.8l1.2-0.8h0.8l0.4-0.4h0.8l0.4-0.4h1.2l0.4-0.4h0.8l0.4-0.4h0.8l0.4-0.4h1.2l0.4-0.4h0.8l0.4-0.4h1.2l0.4-0.4h1.2
		l0.4-0.4h1.2l0.4-0.4h1.2l0.4-0.4h1.6l0.4-0.4h1.2l0.4-0.4h1.2l0.4-0.4h1.6l0.4-0.4h1.2l0.4-0.4h1.6l0.4-0.4h1.6l0.4-0.4h2l0.4-0.4
		h1.6l0.4-0.4h2l0.4-0.4h2l0.8-0.4h2.4l0.4-0.4h2.8l0.4-0.4h2.8l0.4-0.4h4l0.4-0.4h4.4l0.4-0.4h7.6l0.4-0.4h16l0.4,0.4h7.6l0.4,0.4
		h4.399l0.4,0.4h4l0.399,0.4h2.801l0.399,0.4h2.8l0.4,0.4h2.4l0.8,0.4h2l0.399,0.4h2l0.4,0.4h1.6l0.4,0.4h2l0.4,0.4h1.6l0.4,0.4h1.6
		l0.4,0.4h1.199l0.4,0.4h1.6l0.4,0.4h1.2l0.399,0.4h1.2l0.4,0.4h1.6l0.4,0.4h1.2l0.399,0.4h1.2l0.4,0.4h1.199l0.4,0.4h1.2l0.399,0.4
		h0.801l0.399,0.4h1.2l0.4,0.4h0.8l0.399,0.4h0.801l0.399,0.4h1.2l0.4,0.4h0.8l0.399,0.4h0.801l1.199,0.8h0.801l0.399,0.4h0.8
		l0.4,0.4h0.8l0.4,0.4h0.8l0.4,0.4h0.8l0.399,0.4h0.801l0.399,0.4h0.8l0.4,0.4h0.8l1.2,0.8h0.8l0.4,0.4h0.8l0.4,0.4h0.399l0.4,0.4
		h0.8l0.4,0.4h0.8l0.8,0.8h0.8l1.2,0.8h0.8l1.2,0.8h0.8l0.4,0.4h0.399l0.4,0.4h0.4l0.399,0.4h0.8l0.801,0.8h0.399l0.4,0.4h0.8
		l1.2,0.8h0.399l0.4,0.4h0.4l0.399,0.4h0.8l0.4,0.4h0.4v0.4h0.399l0.4,0.4h0.399l0.4,0.4h0.4l1.199,0.8h0.801l0.399,0.4h0.4v0.4
		h0.399l0.4,0.4h0.4l1.199,0.8h0.4l0.4,0.4h0.399l0.4,0.4h0.399l0.801,0.8h0.399l0.4,0.4h0.399l1.2,0.8h0.4l0.8,0.8h0.4l0.399,0.4
		h0.4l0.399,0.4h0.4l0.4,0.4h0.399l0.4,0.4v0.4h0.399l0.4,0.4h0.4l1.199,0.8h0.4l2,1.6h0.4l0.399,0.4h0.4l2,1.6h0.399l0.4,0.4h0.4
		v0.4h0.399l0.8,0.8h0.4l0.4,0.4h0.399v0.4h0.4l0.8,0.8h0.4l0.399,0.4h0.4v0.4l0.399,0.4h0.4l0.4,0.4h0.399l1.2,1.2h0.4l0.8,0.8
		h0.399v0.4h0.4l0.8,0.8h0.4l0.399,0.4v0.4h0.4l0.4,0.4h0.399l1.601,1.6h0.399l0.4,0.4h0.399v0.4l0.4,0.4h0.4l0.8,0.8h0.399v0.4
		l0.4,0.4h0.4l0.399,0.4h0.4v0.4l0.399,0.4h0.4l1.6,1.6h0.4l0.4,0.4v0.4h0.399l0.8,0.8h0.4v0.4l0.4,0.4h0.399l2.8,2.8h0.4l0.4,0.4
		v0.4h0.399l2,2h0.4v0.4l0.399,0.4h0.4l0.4,0.4v0.4h0.399l0.8,0.8v0.4h0.4l4,4h0.4v0.4l4,4v0.4h0.399l0.8,0.8v0.4h0.4l0.8,1.2h0.4
		v0.4l2,2v0.4h0.399l0.4,0.4v0.4l2.8,2.8v0.4l0.4,0.4h0.399v0.4l0.801,0.8v0.4h0.399l0.4,0.4v0.4l1.6,1.6v0.4l0.4,0.4h0.399v0.4
		l0.4,0.4v0.4l0.4,0.4h0.399v0.4l0.8,0.8v0.4l0.4,0.4h0.4v0.4l0.399,0.4v0.4l1.601,1.6v0.4l0.399,0.4v0.4h0.4l0.399,0.4v0.4
		l0.801,0.8v0.4h0.399v0.4l0.8,0.8v0.4l1.2,1.2v0.4l0.4,0.4v0.4l0.399,0.4h0.4v0.4l0.4,0.4v0.4l0.8,0.8v0.4h0.399v0.4l0.4,0.4v0.4
		l0.8,0.8v0.4h0.4v0.4l0.399,0.4v0.4l1.601,2v0.4l0.399,0.4v0.4l1.601,2v0.4l0.8,1.2v0.4l0.4,0.4v0.4h0.399l0.4,0.4v0.4l0.399,0.4
		v0.4l0.4,0.4v0.4l0.4,0.4v0.4l0.8,0.8v0.4l0.8,1.2v0.4l0.4,0.4v0.4l0.8,0.8v0.4l0.399,0.4v0.4l0.801,1.2v0.4l0.399,0.4v0.4l0.4,0.4
		v0.4h0.399v0.4l0.4,0.4v0.8l0.8,1.2v0.4l0.4,0.4v0.4l0.399,0.4v0.4h0.4v0.4l0.4,0.4v0.8l0.399,0.4v0.4l0.4,0.4v0.4l0.8,1.2v0.8
		l0.4,0.4v0.4l0.8,0.8v0.8l0.399,0.4v0.4l0.4,0.4v0.4l0.4,0.4v0.8l0.8,1.2v0.8l0.8,1.2v0.8l0.8,0.8v0.8l0.4,0.4v0.8l0.8,1.2v0.8
		l0.4,0.4v0.8l0.8,1.2v0.8l0.399,0.4v0.8l0.4,0.4v0.8l0.4,0.4v0.8l0.399,0.4v0.8l0.4,0.4v0.8l0.399,0.4v0.8l0.4,0.4v0.8l0.8,1.2v0.8
		l0.4,0.4v0.8l0.399,0.4v1.2l0.4,0.4v0.8l0.4,0.4v0.8l0.399,0.4v1.2l0.4,0.4v0.8l0.399,0.4v1.2l0.4,0.4v1.2l0.4,0.4v1.2l0.399,0.4
		v1.2l0.4,0.4v1.6l0.399,0.4v1.2l0.4,0.4v1.2l0.4,0.4v1.6l0.399,0.4v1.2l0.4,0.4v1.6l0.399,0.4v1.6l0.4,0.4v2l0.4,0.4v1.6l0.399,0.4
		v2l0.4,0.4v2l0.399,0.8v2.4l0.4,0.4v2.8l0.4,0.4v2.8l0.399,0.4v4l0.4,0.4v4.4l0.399,0.4v7.6l0.4,0.4v16l-0.4,0.4v7.6l-0.399,0.4
		v4.399l-0.4,0.4v4L512.9,302.1v2.801l-0.4,0.399v2.8l-0.4,0.4v2.4l-0.399,0.8v2l-0.4,0.399v2l-0.399,0.4v1.6l-0.4,0.4v2l-0.4,0.4
		v1.6l-0.399,0.4v1.6l-0.4,0.4v1.199l-0.399,0.4v1.6l-0.4,0.4v1.2l-0.4,0.399v1.2l-0.399,0.4v1.6l-0.4,0.4v1.2L506.9,335.3v1.2
		l-0.4,0.4v1.199l-0.4,0.4v1.2L505.7,340.1v0.801l-0.4,0.399v1.2l-0.399,0.4v0.8l-0.4,0.399v0.801l-0.4,0.399v1.2l-0.399,0.4v0.8
		l-0.4,0.399v0.801l-0.8,1.199v0.801l-0.4,0.399v0.8l-0.399,0.4v0.8l-0.4,0.4v0.8l-0.399,0.4v0.8l-0.4,0.399v0.801l-0.4,0.399v0.8
		l-0.399,0.4v0.8l-0.8,1.2v0.8l-0.4,0.4v0.8l-0.8,1.2v0.8l-0.4,0.4v0.8l-0.8,0.8v0.8l-0.8,1.2v0.8l-0.8,1.2v0.8l-0.4,0.4v0.399
		l-0.4,0.4v0.4L493.7,373.3v0.8l-0.8,0.801v0.399l-0.4,0.4v0.8l-0.8,1.2v0.399l-0.4,0.4v0.4L490.9,379.3v0.8l-0.4,0.4v0.4h-0.4
		v0.399l-0.399,0.4v0.399l-0.4,0.4v0.4l-0.8,1.199v0.801l-0.4,0.399v0.4H487.7v0.399l-0.4,0.4v0.4l-0.8,1.199v0.4l-0.4,0.4v0.399
		l-0.399,0.4v0.399l-0.8,0.801v0.399l-0.4,0.4v0.399l-0.8,1.2v0.4l-0.8,0.8v0.4l-0.4,0.399v0.4l-0.4,0.399v0.4l-0.399,0.4v0.399
		l-0.4,0.4H480.9v0.399l-0.4,0.4v0.4l-0.8,1.199v0.4l-1.601,2v0.4L477.7,403.3v0.4l-1.601,2v0.399l-0.399,0.4v0.4h-0.4v0.399
		l-0.8,0.8v0.4l-0.4,0.4v0.399H473.7v0.4l-0.8,0.8v0.4l-0.4,0.399v0.4h-0.4L471.7,412.1v0.4l-0.4,0.4v0.399l-1.2,1.2v0.4l-0.8,0.8
		v0.399H468.9v0.4l-0.801,0.8v0.4L467.7,418.1h-0.4v0.4l-0.399,0.4v0.399L465.3,420.9v0.399l-0.399,0.4v0.399h-0.4l-0.4,0.4v0.4
		l-0.8,0.8v0.399H462.9l-0.4,0.4v0.4l-0.4,0.399v0.4H461.7l-0.4,0.399v0.4l-1.6,1.6v0.4l-0.4,0.4H458.9v0.399l-0.801,0.8v0.4H457.7
		l-0.4,0.4v0.399l-2.8,2.8v0.4l-0.4,0.4H453.7v0.399l-2,2v0.4h-0.4L450.9,438.1v0.4l-0.4,0.4h-0.4v0.399l-0.8,0.8H448.9v0.4l-4,4
		v0.4h-0.4l-4,4h-0.4v0.399l-0.8,0.8H438.9v0.4l-1.2,0.8v0.4h-0.4l-2,2H434.9v0.399l-0.4,0.4h-0.4l-2.8,2.8H430.9l-0.4,0.4v0.399
		h-0.4l-0.8,0.801H428.9v0.399l-0.4,0.4h-0.4l-1.6,1.6h-0.4l-0.399,0.4v0.399h-0.4l-0.399,0.4h-0.4l-0.4,0.4v0.399H423.7l-0.8,0.8
		h-0.4l-0.4,0.4v0.4H421.7l-0.4,0.399H420.9L419.3,466.9H418.9l-0.4,0.399h-0.4v0.4L417.7,468.1h-0.4l-0.8,0.801h-0.4v0.399H415.7
		l-0.8,0.8h-0.4l-1.2,1.2H412.9l-0.4,0.4h-0.4L411.7,472.1v0.4h-0.4l-0.399,0.4h-0.4l-0.8,0.8h-0.4v0.399H408.9l-0.4,0.4h-0.4
		l-0.8,0.8H406.9v0.4h-0.4l-0.4,0.399H405.7l-2,1.601h-0.4L402.9,478.1h-0.4l-2,1.601h-0.4l-1.199,0.8h-0.4l-0.4,0.4H397.7v0.399
		l-0.4,0.4H396.9l-0.4,0.399h-0.4l-0.399,0.4h-0.4l-0.399,0.4h-0.4l-0.8,0.8h-0.4l-1.2,0.8H391.7l-0.4,0.4H390.9l-0.801,0.8H389.7
		l-0.4,0.399H388.9l-1.2,0.801h-0.4L386.9,487.3h-0.4l-0.4,0.4H385.7v0.399h-0.4l-0.399,0.4H384.1l-1.199,0.8h-0.4l-0.4,0.4H381.7
		l-0.4,0.399H380.9v0.4h-0.4l-0.4,0.4h-0.8L378.9,491.3h-0.4l-0.4,0.4H377.7l-1.2,0.8h-0.8l-0.4,0.4H374.9l-0.801,0.8h-0.8
		L372.9,494.1h-0.4l-0.4,0.4H371.7l-0.4,0.4h-0.8l-1.2,0.8h-0.8l-1.2,0.8h-0.8l-0.8,0.8h-0.8l-0.4,0.4h-0.8l-1.2,0.8h-0.8l-0.4,0.4
		h-0.8l-1.2,0.8h-0.8l-0.4,0.399h-0.8l-0.399,0.4H356.1l-0.399,0.4h-0.8l-0.4,0.399h-0.8l-0.4,0.4h-0.8l-0.4,0.399h-0.8l-0.399,0.4
		H350.1l-1.199,0.8H348.1l-0.399,0.4h-0.8l-0.4,0.399h-1.2l-0.399,0.4H344.1l-0.399,0.4h-0.8l-0.4,0.399h-1.2l-0.399,0.4H340.1
		L339.7,506.1h-1.2l-0.4,0.4H336.9l-0.4,0.4h-1.2L334.9,507.3h-1.2l-0.4,0.4h-1.6l-0.4,0.399h-1.2l-0.399,0.4h-1.2l-0.4,0.4h-1.6
		l-0.4,0.399H324.9l-0.4,0.4h-1.6l-0.4,0.399h-1.6l-0.4,0.4h-2l-0.4,0.4h-1.6l-0.4,0.399h-2l-0.399,0.4h-2l-0.8,0.399h-2.4l-0.4,0.4
		h-2.8l-0.399,0.4H302.1L301.7,513.3h-4l-0.4,0.4H292.9l-0.4,0.399h-7.6l-0.4,0.4H276.5"/>
	
		<path id="lat0" display="inline" opacity="0.5" fill="none" stroke="#0978AB" stroke-width="0.25" stroke-linejoin="bevel" enable-background="new    " d="
		M1.7,276.1v-9.6l0.4-0.4v-7.2l0.4-0.4v-4.8l0.4-0.4v-4l0.4-0.4v-3.2l0.4-0.8v-2.8l0.4-0.4v-2.4l0.4-0.4v-2.4l0.4-0.4v-2.4l0.4-0.4
		v-2l0.4-0.4v-2l0.4-0.4v-1.6l0.4-0.4v-2l0.4-0.4v-1.2l0.4-0.4v-1.6l0.4-0.4v-1.6l0.4-0.4v-1.2l0.4-0.4v-1.6l0.4-0.4v-1.6l0.4-0.4
		v-0.8l0.4-0.4v-1.6l0.4-0.4v-0.8l0.4-0.4v-1.2l0.4-0.4v-1.2l0.4-0.8v-0.8l0.4-0.4v-0.8l0.4-0.8v-0.8l0.4-0.4v-0.8l0.4-0.4v-1.2
		l0.4-0.4v-0.8l0.4-0.4v-1.2l0.4-0.4v-0.8l0.4-0.4v-0.4l0.4-0.8v-0.8l0.4-0.4v-0.8l0.4-0.4v-0.8l0.4-0.4v-0.8l0.4-0.4v-0.8l0.4-0.4
		v-0.8l0.4-0.4v-0.8l0.8-1.2v-1.2l0.4-0.4v-0.4l0.4-0.4v-0.4l0.4-0.4v-1.2l0.8-1.2v-0.4l0.4-0.4v-0.8l0.4-0.4v-0.8l0.8-1.2v-0.4
		l0.4-0.4v-0.8l0.4-0.4v-0.8l0.8-1.2v-0.4l0.4-0.4v-0.4l0.4-0.4l0.4-1.6l0.4-0.4v-0.8l0.4-0.4v-0.4l0.8-1.2v-0.8l0.4-0.4v-0.4
		l0.4-0.4v-0.4l0.8-1.2v-0.4l0.4-0.4v-0.4l0.4-0.4v-0.8l0.8-0.8v-0.4l0.8-1.2v-0.4l0.4-0.4v-0.4l0.4-0.4v-0.4l0.4-0.4v-0.8l0.4-0.4
		v-0.4l0.8-0.8v-0.4l0.8-1.2v-0.4l0.4-0.4v-0.4l0.8-0.8v-0.4l0.4-0.4v-0.8l0.4-0.4v-0.4l0.8-0.8v-0.4l0.4-0.4v-0.4l0.8-0.8v-0.4
		l0.4-0.4v-0.4l0.8-0.8v-0.4l0.4-0.4v-0.4l0.8-0.8v-0.4l0.4-0.4v-0.4l0.8-1.2v-0.4l0.4-0.4v-0.4l1.6-2v-0.4l0.4-0.4v-0.4l0.8-0.8
		v-0.4l1.6-2v-0.4l0.8-0.8v-0.4l0.8-0.8v-0.4l0.8-0.8v-0.4l0.8-0.8v-0.4l0.8-0.8v-0.4l0.8-0.8v-0.4l1.6-2v-0.4l0.8-0.8v-0.4l1.2-1.2
		v-0.4l0.8-0.8v-0.4h0.4l0.8-0.8v-0.4l0.8-0.8v-0.4l1.2-1.2v-0.4l1.2-1.2v-0.4l0.8-0.8v-0.4l2.4-2.4v-0.4l1.2-1.2v-0.4l1.6-1.6v-0.4
		h0.4l0.8-0.8v-0.4l1.6-1.6v-0.4l2.8-2.8v-0.4l3.2-3.2v-0.4l0.8-0.8h0.4l0.8-0.8v-0.4l3.6-3.6v-0.4l0.4-0.4h0.4l1.6-1.6v-0.4h0.4
		l1.6-1.6v-0.4l0.4-0.4h0.4l3.6-3.6h0.4l1.6-2h0.4l3.2-3.2h0.4l2.8-2.8h0.4l1.6-1.6h0.4l0.8-0.8v-0.4h0.4l1.6-1.6h0.4l1.2-1.2h0.4
		l2.4-2.4h0.4l0.8-0.8h0.4l1.2-1.2h0.4l1.2-1.2h0.4l0.8-0.8h0.4l0.8-0.8v-0.4h0.4l0.8-0.8h0.4l1.2-1.2h0.4l0.8-0.8h0.4l2-1.6h0.4
		l0.8-0.8h0.4l0.8-0.8h0.4l0.8-0.8h0.4l2-1.6h0.4l0.8-0.8h0.4l0.8-0.8h0.4l0.8-0.8h0.4l0.8-0.8h0.4l0.4-0.4h0.4l2-1.6h0.4l0.4-0.4
		h0.4l1.2-0.8h0.4l0.4-0.4h0.4l0.8-0.8h0.4l0.4-0.4h0.4l0.8-0.8h0.4l0.4-0.4h0.4l0.8-0.8h0.4l0.4-0.4h0.4l0.8-0.8h0.4l0.4-0.4h0.8
		l0.4-0.4h0.4l0.8-0.8h0.4l1.2-0.8h0.4l0.4-0.4h0.4l0.8-0.8h0.4l0.4-0.4h0.8l0.4-0.4h0.4l1.2-0.8h0.4l0.4-0.4h0.4l0.4-0.4h0.4
		l0.8-0.8h0.8l0.4-0.4h0.4l0.4-0.4h0.4l1.2-0.8h0.4l0.4-0.4h0.4l0.4-0.4h0.8l1.2-0.8h0.4l0.4-0.4h0.8l0.4-0.4l1.6-0.4l0.4-0.4h0.4
		l0.4-0.4h0.4l1.2-0.8h0.8l0.4-0.4h0.8l0.4-0.4h0.4l1.2-0.8h0.8l0.4-0.4h0.8l0.4-0.4h0.4l1.2-0.8h1.2l0.4-0.4h0.4l0.4-0.4h0.4
		l0.4-0.4h1.2l1.2-0.8h0.8l0.4-0.4h0.8l0.4-0.4h0.8l0.4-0.4h0.8l0.4-0.4h0.8l0.4-0.4h0.8l0.4-0.4h0.8l0.8-0.4h0.4l0.4-0.4h0.8
		l0.4-0.4h1.2l0.4-0.4h0.8l0.4-0.4h1.2l0.4-0.4h0.8l0.4-0.4h0.8l0.8-0.4h0.8l0.4-0.4h0.8l0.8-0.4h1.2l0.4-0.4h1.2l0.4-0.4h0.8
		l0.4-0.4h1.6l0.4-0.4h0.8l0.4-0.4h1.6l0.4-0.4h1.6l0.4-0.4h1.2l0.4-0.4h1.6l0.4-0.4h1.6l0.4-0.4h1.2l0.4-0.4h2l0.4-0.4h1.6l0.4-0.4
		h2l0.4-0.4h2l0.4-0.4h2.4l0.4-0.4h2.4l0.4-0.4h2.4l0.4-0.4h2.8l0.8-0.4h3.2l0.4-0.4h4l0.4-0.4h4.8l0.4-0.4h7.2l0.4-0.4h20l0.4,0.4
		h7.199l0.4,0.4h4.8l0.4,0.4h4l0.399,0.4h3.2l0.8,0.4h2.801l0.399,0.4h2.4l0.399,0.4h2.4l0.4,0.4h2.399l0.4,0.4h2l0.399,0.4h2
		l0.4,0.4h1.6l0.4,0.4h2l0.4,0.4h1.199l0.4,0.4h1.6l0.4,0.4h1.6l0.4,0.4h1.2l0.399,0.4h1.601l0.399,0.4h1.601l0.399,0.4h0.801
		l0.399,0.4h1.601l0.399,0.4h0.8l0.4,0.4h1.2l0.399,0.4h1.2l0.8,0.4h0.801l0.399,0.4h0.8l0.801,0.4h0.8l0.399,0.4h0.801l0.399,0.4
		h1.2l0.4,0.4h0.8l0.399,0.4h1.2l0.4,0.4h0.8l0.4,0.4h0.399l0.8,0.4h0.801l0.399,0.4h0.8l0.4,0.4h0.8l0.4,0.4h0.8l0.4,0.4h0.8
		l0.399,0.4h0.801l0.399,0.4h0.8l1.2,0.8h1.2l0.4,0.4h0.399l0.4,0.4h0.399l0.4,0.4h1.2l1.2,0.8h0.399l0.4,0.4h0.8l0.4,0.4h0.8
		l1.2,0.8h0.399l0.4,0.4h0.8l0.4,0.4h0.8l1.2,0.8h0.399l0.4,0.4h0.399l0.4,0.4l1.6,0.4l0.4,0.4h0.8l0.4,0.4h0.399l1.2,0.8h0.8
		l0.4,0.4h0.4l0.399,0.4h0.4l1.2,0.8h0.399l0.4,0.4h0.399l0.4,0.4h0.8l0.8,0.8h0.4l1.2,0.8h0.399l0.4,0.4h0.4l0.399,0.4h0.4
		l0.399,0.4h0.801l0.399,0.4h0.4l0.8,0.8h0.4l1.199,0.8h0.4l0.4,0.4h0.399l0.8,0.8h0.4l0.4,0.4h0.8l0.399,0.4h0.4l0.8,0.8h0.4
		l0.399,0.4h0.4l0.8,0.8h0.4l0.399,0.4h0.4l0.8,0.8h0.4l0.399,0.4h0.4l0.8,0.8h0.4l0.399,0.4h0.4l1.2,0.8h0.399l0.4,0.4h0.4l2,1.6
		h0.399l0.4,0.4h0.399l0.801,0.8h0.399l2,1.6h0.4l0.8,0.8h0.4l0.8,0.8h0.399l0.801,0.8h0.399l0.8,0.8h0.4l0.8,0.8h0.4l0.8,0.8h0.4
		l2,1.6h0.399l0.8,0.8h0.4l1.2,1.2h0.399l0.801,0.8h0.399v0.4l0.8,0.8h0.4l0.8,0.8h0.4l1.2,1.2h0.399l1.2,1.2h0.4l0.8,0.8h0.399
		l2.4,2.4h0.4l1.199,1.2h0.4l1.6,1.6h0.4v0.4l0.8,0.8h0.4l1.6,1.6h0.4l2.8,2.8h0.4l3.199,3.2h0.4l1.6,2h0.4l3.6,3.6h0.4l0.4,0.4v0.4
		l1.6,1.6h0.4v0.4l1.6,1.6h0.4l0.399,0.4v0.4l3.601,3.6v0.4l2,1.6v0.4l3.199,3.2v0.4l2.801,2.8v0.4l1.6,1.6v0.4l0.8,0.8h0.4v0.4
		l1.6,1.6v0.4l1.2,1.2v0.4l2.4,2.4v0.4l0.8,0.8v0.4l1.2,1.2v0.4l1.199,1.2v0.4l0.801,0.8v0.4l0.8,0.8h0.399v0.4l0.801,0.8v0.4
		l1.199,1.2v0.4l0.801,0.8v0.4l1.6,2v0.4l0.8,0.8v0.4l0.8,0.8v0.4l0.801,0.8v0.4l1.6,2v0.4l0.8,0.8v0.4l0.8,0.8v0.4l0.801,0.8v0.4
		l0.8,0.8v0.4l0.399,0.4v0.4l1.601,2v0.4l0.399,0.4v0.4l0.801,1.2v0.4l0.399,0.4v0.4l0.8,0.8v0.4l0.4,0.4v0.4l0.8,0.8v0.4l0.4,0.4
		v0.4l0.8,0.8v0.4l0.4,0.4v0.4l0.8,0.8v0.4l0.399,0.4v0.8l0.4,0.4v0.4l0.8,0.8v0.4l0.8,1.2v0.4l0.4,0.4v0.4l0.8,0.8v0.4l0.4,0.4v0.8
		l0.399,0.4v0.4l0.801,1.2v0.4l0.399,0.4v0.4l0.4,0.4v0.4l0.8,0.8v0.8l0.4,0.4v0.4l0.399,0.4v0.4l0.8,1.2v0.4l0.4,0.4v0.4l0.4,0.4
		v0.8l0.8,1.2v0.4l0.399,0.4v0.8l0.4,0.4l0.4,1.6l0.399,0.4v0.4l0.4,0.4v0.4l0.8,1.2v0.8l0.4,0.4v0.8l0.399,0.4v0.4l0.8,1.2v0.8
		l0.4,0.4v0.8l0.4,0.4v0.4l0.8,1.2v1.2l0.399,0.4v0.4l0.4,0.4v0.4l0.4,0.4v1.2l0.8,1.2v0.8l0.399,0.4v0.8l0.4,0.4v0.8l0.4,0.4v0.8
		l0.399,0.4v0.8l0.4,0.4v0.8l0.399,0.4v0.8l0.4,0.8v0.4l0.4,0.4v0.8l0.399,0.4v1.2l0.4,0.4v0.8l0.399,0.4v1.2l0.4,0.4v0.8l0.4,0.4
		v0.8l0.399,0.8v0.8l0.4,0.4v0.8l0.399,0.8v1.2l0.4,0.4v1.2l0.4,0.4v0.8l0.399,0.4v1.6l0.4,0.4v0.8l0.399,0.4v1.6l0.4,0.4v1.6
		l0.4,0.4v1.2l0.399,0.4v1.6l0.4,0.4v1.6l0.399,0.4v1.2l0.4,0.4v2l0.4,0.4v1.6l0.399,0.4v2l0.4,0.4v2l0.399,0.4v2.4l0.4,0.4v2.4
		l0.4,0.4v2.4l0.399,0.4v2.8l0.4,0.8v2.4"/>
	
		<path id="long-180" display="inline" opacity="0.5" fill="none" stroke="#0978AB" stroke-width="0.25" stroke-linejoin="bevel" enable-background="new    " d="
		M276.5,413.7v136"/>
	
		<path id="long-150" display="inline" opacity="0.5" fill="none" stroke="#0978AB" stroke-width="0.25" stroke-linejoin="bevel" enable-background="new    " d="
		M208.1,395.3l-0.8,1.2v0.4l-0.4,0.399v0.4h-0.4l-0.4,0.399v0.4l-0.4,0.4v0.399l-0.8,1.2v0.4h-0.4v0.399l-0.4,0.4v0.399l-0.4,0.4
		v0.4l-0.4,0.399v0.4l-0.8,0.8v0.4l-0.4,0.399v0.4l-0.4,0.399v0.4l-0.8,0.8v0.4l-0.4,0.399v0.4l-0.4,0.4v0.399h-0.4v0.4l-0.4,0.399
		v0.4l-0.4,0.4v0.399l-0.8,0.8v0.4l-0.4,0.4v0.399l-0.4,0.4v0.399h-0.4v0.4l-0.4,0.4v0.399l-0.4,0.4v0.399h-0.4v0.4l-0.4,0.4v0.8
		l-0.8,0.8v0.4l-0.4,0.399v0.4l-0.8,0.8v0.4l-0.4,0.399v0.4l-0.8,0.8v0.4l-0.4,0.399v0.4l-0.4,0.399v0.4l-0.4,0.4v0.399l-0.8,0.8
		v0.4l-0.4,0.4v0.399h-0.4v0.4l-0.4,0.399v0.4l-0.8,1.2v0.399l-0.8,0.801v0.399l-0.4,0.4v0.399h-0.4v0.801l-0.8,0.8v0.399l-0.4,0.4
		v0.4h-0.4v0.399l-0.8,1.2v0.4l-0.4,0.399v0.4h-0.4v0.8l-1.6,2v0.8h-0.4v0.4l-0.4,0.399v0.4h-0.4v0.8l-0.8,0.8v0.4l-0.4,0.4v0.399
		l-0.8,0.8v0.4l-0.4,0.4v0.399l-0.4,0.4v0.399h-0.4v0.801h-0.4v0.399l-0.8,1.2v0.4h-0.4v0.399l-0.8,1.2v0.4h-0.4v0.8h-0.4v0.399
		l-0.4,0.4v0.4l-0.8,0.8v0.8h-0.4v0.8h-0.4v0.4l-0.4,0.399v0.4l-0.8,0.8v0.4l-0.4,0.399v0.4h-0.4v0.8h-0.4v0.8h-0.4v0.4h-0.4v0.8
		h-0.4v0.8h-0.4v0.801h-0.4v0.399h-0.4v0.8h-0.4v0.801h-0.4v0.399l-0.4,0.4v0.399h-0.4v0.801h-0.4v0.399l-0.4,0.4v0.399l-0.4,0.4
		v0.4l-0.4,0.399v0.4h-0.4v0.8h-0.4v0.4l-0.4,0.399v0.4l-0.4,0.399v0.4h-0.4v0.8h-0.4v0.4l-0.8,1.2v0.399h-0.4v0.4l-0.8,1.2v0.399
		h-0.4v0.4l-0.4,0.399v0.4l-0.4,0.4v0.399l-0.4,0.4v0.399h-0.4v0.801h-0.4v0.399l-0.4,0.4v0.399h-0.4v0.801h-0.4v0.399l-0.4,0.4
		v0.399l-0.4,0.4v0.4h-0.4v0.8h-0.4v0.399l-0.4,0.4v0.4h-0.4v0.8h-0.4v0.8h-0.4v0.4h-0.4v0.8h-0.4v0.8h-0.4v0.4l-0.4,0.399v0.4h-0.4
		v0.8l-0.4,0.4v0.399h-0.4v0.4l-0.4,0.399v0.4h-0.4v0.8h-0.4v0.4l-0.8,1.2v0.399l-0.4,0.4v0.399h-0.4v0.4l-0.4,0.4v0.399h-0.4v0.8
		h-0.4v0.801h-0.4v0.399l-0.4,0.4v0.399h-0.4v0.801h-0.4v0.8h-0.4v0.399l-0.4,0.4v0.4h-0.4v0.8h-0.4v0.8h-0.4v0.4l-0.4,0.399v0.4
		h-0.4v0.8h-0.4v0.8h-0.4v0.4l-0.4,0.399v0.4h-0.4v0.8h-0.4v0.8h-0.4v0.4"/>
	
		<path id="long-120" display="inline" opacity="0.5" fill="none" stroke="#0978AB" stroke-width="0.25" stroke-linejoin="bevel" enable-background="new    " d="
		M157.7,344.9l-1.2,0.8h-0.4l-0.4,0.399h-0.4v0.4l-0.4,0.4h-0.4l-0.4,0.399h-0.4l-1.2,0.8h-0.4v0.4h-0.4l-0.4,0.4h-0.4l-0.4,0.399
		h-0.4l-0.4,0.4h-0.4l-0.8,0.8h-0.4l-0.4,0.4h-0.4l-0.4,0.399h-0.4l-0.8,0.8h-0.4l-0.4,0.4h-0.4l-0.4,0.4h-0.4v0.399h-0.4l-0.4,0.4
		h-0.4l-0.4,0.399h-0.4l-0.8,0.801h-0.4l-0.4,0.399h-0.4l-0.4,0.4h-0.4v0.399h-0.4l-0.4,0.4h-0.4l-0.4,0.4h-0.4v0.399h-0.4l-0.4,0.4
		h-0.8l-0.8,0.8h-0.4l-0.4,0.4h-0.4l-0.8,0.8h-0.4l-0.4,0.399h-0.4l-0.8,0.801h-0.4l-0.4,0.399h-0.4l-0.4,0.4h-0.4l-0.4,0.399h-0.4
		l-0.8,0.801h-0.4l-0.4,0.399h-0.4v0.4h-0.4l-0.4,0.399h-0.4l-1.2,0.801h-0.4l-0.8,0.8h-0.4l-0.4,0.399h-0.4v0.4h-0.8l-0.8,0.8h-0.4
		l-0.4,0.4h-0.4v0.399h-0.4l-1.2,0.801h-0.4l-0.4,0.399h-0.4v0.4h-0.8l-2,1.6h-0.8v0.4h-0.4l-0.4,0.399h-0.4v0.4h-0.8l-0.8,0.8h-0.4
		l-0.4,0.4h-0.4l-0.8,0.8h-0.4l-0.4,0.4h-0.4l-0.4,0.399h-0.4v0.4h-0.8v0.399h-0.4l-1.2,0.801h-0.4v0.399h-0.4l-1.2,0.8h-0.4v0.4
		h-0.8v0.4h-0.4l-0.4,0.399h-0.4l-0.8,0.8h-0.8v0.4h-0.8v0.4h-0.4l-0.4,0.399h-0.4l-0.8,0.8h-0.4l-0.4,0.4h-0.4v0.4h-0.8v0.399h-0.8
		v0.4h-0.4v0.399h-0.8v0.4h-0.8v0.4h-0.8v0.399h-0.4v0.4h-0.8v0.399h-0.8v0.4h-0.4l-0.4,0.4h-0.4v0.399h-0.8v0.4h-0.4l-0.4,0.399
		h-0.4l-0.4,0.4h-0.4l-0.4,0.4h-0.4v0.399h-0.8v0.4h-0.4l-0.4,0.399h-0.4l-0.4,0.4h-0.4v0.4h-0.8v0.399h-0.4l-1.2,0.8h-0.4v0.4h-0.4
		l-1.2,0.8h-0.4v0.4h-0.4l-0.4,0.399h-0.4l-0.4,0.4h-0.4l-0.4,0.4h-0.4v0.399h-0.8v0.4h-0.4l-0.4,0.399h-0.4v0.4h-0.8v0.4h-0.4
		l-0.4,0.399h-0.4l-0.4,0.4h-0.4v0.399h-0.8v0.4h-0.4l-0.4,0.4h-0.4v0.399h-0.8v0.4h-0.8v0.399h-0.4v0.4h-0.8v0.4h-0.8v0.399h-0.4
		l-0.4,0.4h-0.4v0.399h-0.8l-0.4,0.4h-0.4v0.4h-0.4l-0.4,0.399h-0.4v0.4h-0.8v0.399h-0.4l-1.2,0.801h-0.4l-0.4,0.399h-0.4v0.4h-0.4
		l-0.4,0.399h-0.4v0.4h-0.8v0.4h-0.8v0.399h-0.4l-0.4,0.4h-0.4v0.399h-0.8v0.4h-0.8v0.4h-0.4l-0.4,0.399h-0.4v0.4h-0.8v0.399h-0.8
		v0.4h-0.4l-0.4,0.4h-0.4v0.399h-0.8v0.4h-0.8v0.399h-0.4l-0.4,0.4h-0.4v0.4h-0.8v0.399h-0.8v0.4h-0.4"/>
	
		<path id="long-90" display="inline" opacity="0.5" fill="none" stroke="#0978AB" stroke-width="0.25" stroke-linejoin="bevel" enable-background="new    " d="
		M139.3,276.5H1.7"/>
	
		<path id="long-60" display="inline" opacity="0.5" fill="none" stroke="#0978AB" stroke-width="0.25" stroke-linejoin="bevel" enable-background="new    " d="
		M157.7,208.1l-1.2-0.8h-0.4l-0.4-0.4h-0.4v-0.4l-0.4-0.4h-0.4l-0.4-0.4h-0.4l-1.2-0.8h-0.4v-0.4h-0.4l-0.4-0.4h-0.4l-0.4-0.4h-0.4
		l-0.4-0.4h-0.4l-0.8-0.8h-0.4l-0.4-0.4h-0.4l-0.4-0.4h-0.4l-0.8-0.8h-0.4l-0.4-0.4h-0.4l-0.4-0.4h-0.4v-0.4h-0.4l-0.4-0.4h-0.4
		l-0.4-0.4h-0.4l-0.8-0.8h-0.4l-0.4-0.4h-0.4l-0.4-0.4h-0.4v-0.4h-0.4l-0.4-0.4h-0.4l-0.4-0.4h-0.4v-0.4h-0.4l-0.4-0.4h-0.8
		l-0.8-0.8h-0.4l-0.4-0.4h-0.4l-0.8-0.8h-0.4l-0.4-0.4h-0.4l-0.8-0.8h-0.4l-0.4-0.4h-0.4l-0.4-0.4h-0.4l-0.4-0.4h-0.4l-0.8-0.8h-0.4
		l-0.4-0.4h-0.4v-0.4h-0.4l-0.4-0.4h-0.4l-1.2-0.8h-0.4l-0.8-0.8h-0.4l-0.4-0.4h-0.4v-0.4h-0.8l-0.8-0.8h-0.4l-0.4-0.4h-0.4v-0.4
		h-0.4l-1.2-0.8h-0.4l-0.4-0.4h-0.4v-0.4h-0.8l-2-1.6h-0.8v-0.4h-0.4l-0.4-0.4h-0.4v-0.4h-0.8l-0.8-0.8h-0.4l-0.4-0.4h-0.4l-0.8-0.8
		h-0.4l-0.4-0.4h-0.4l-0.4-0.4h-0.4v-0.4h-0.8v-0.4h-0.4l-1.2-0.8h-0.4v-0.4h-0.4l-1.2-0.8h-0.4v-0.4h-0.8v-0.4h-0.4l-0.4-0.4h-0.4
		l-0.8-0.8h-0.8v-0.4h-0.8v-0.4h-0.4l-0.4-0.4h-0.4l-0.8-0.8h-0.4l-0.4-0.4h-0.4v-0.4h-0.8v-0.4h-0.8v-0.4h-0.4v-0.4h-0.8v-0.4h-0.8
		v-0.4h-0.8v-0.4h-0.4v-0.4h-0.8v-0.4h-0.8v-0.4h-0.4l-0.4-0.4h-0.4v-0.4h-0.8v-0.4h-0.4l-0.4-0.4h-0.4l-0.4-0.4h-0.4l-0.4-0.4h-0.4
		v-0.4h-0.8v-0.4h-0.4l-0.4-0.4h-0.4l-0.4-0.4h-0.4v-0.4h-0.8v-0.4h-0.4l-1.2-0.8h-0.4v-0.4h-0.4l-1.2-0.8h-0.4v-0.4h-0.4l-0.4-0.4
		h-0.4l-0.4-0.4h-0.4l-0.4-0.4h-0.4v-0.4h-0.8v-0.4h-0.4l-0.4-0.4h-0.4v-0.4h-0.8v-0.4h-0.4l-0.4-0.4h-0.4l-0.4-0.4h-0.4v-0.4h-0.8
		v-0.4h-0.4l-0.4-0.4h-0.4v-0.4h-0.8v-0.4h-0.8v-0.4h-0.4v-0.4h-0.8v-0.4h-0.8v-0.4h-0.4l-0.4-0.4h-0.4v-0.4h-0.8l-0.4-0.4h-0.4
		v-0.4h-0.4l-0.4-0.4h-0.4v-0.4h-0.8v-0.4h-0.4l-1.2-0.8h-0.4l-0.4-0.4h-0.4v-0.4h-0.4l-0.4-0.4h-0.4v-0.4h-0.8v-0.4h-0.8v-0.4h-0.4
		l-0.4-0.4h-0.4v-0.4h-0.8v-0.4h-0.8v-0.4h-0.4l-0.4-0.4h-0.4v-0.4h-0.8v-0.4h-0.8v-0.4h-0.4l-0.4-0.4h-0.4v-0.4h-0.8v-0.4h-0.8
		v-0.4h-0.4l-0.4-0.4h-0.4v-0.4h-0.8v-0.4h-0.8v-0.4h-0.4"/>
	
		<path id="long-30" display="inline" opacity="0.5" fill="none" stroke="#0978AB" stroke-width="0.25" stroke-linejoin="bevel" enable-background="new    " d="
		M208.1,157.7l-0.8-1.2v-0.4l-0.4-0.4v-0.4h-0.4l-0.4-0.4v-0.4l-0.4-0.4v-0.4l-0.8-1.2v-0.4h-0.4v-0.4l-0.4-0.4v-0.4l-0.4-0.4v-0.4
		l-0.4-0.4v-0.4l-0.8-0.8v-0.4l-0.4-0.4v-0.4l-0.4-0.4v-0.4l-0.8-0.8v-0.4l-0.4-0.4v-0.4l-0.4-0.4v-0.4h-0.4v-0.4l-0.4-0.4v-0.4
		l-0.4-0.4v-0.4l-0.8-0.8v-0.4l-0.4-0.4v-0.4l-0.4-0.4v-0.4h-0.4v-0.4l-0.4-0.4v-0.4l-0.4-0.4v-0.4h-0.4v-0.4l-0.4-0.4v-0.8
		l-0.8-0.8v-0.4l-0.4-0.4v-0.4l-0.8-0.8v-0.4l-0.4-0.4v-0.4l-0.8-0.8v-0.4l-0.4-0.4v-0.4l-0.4-0.4v-0.4l-0.4-0.4v-0.4l-0.8-0.8v-0.4
		l-0.4-0.4v-0.4h-0.4v-0.4l-0.4-0.4v-0.4l-0.8-1.2v-0.4l-0.8-0.8v-0.4l-0.4-0.4v-0.4h-0.4v-0.8l-0.8-0.8v-0.4l-0.4-0.4v-0.4h-0.4
		v-0.4l-0.8-1.2v-0.4l-0.4-0.4v-0.4h-0.4v-0.8l-1.6-2v-0.8h-0.4v-0.4l-0.4-0.4v-0.4h-0.4v-0.8l-0.8-0.8v-0.4l-0.4-0.4v-0.4l-0.8-0.8
		v-0.4l-0.4-0.4v-0.4l-0.4-0.4v-0.4h-0.4v-0.8h-0.4v-0.4l-0.8-1.2v-0.4h-0.4v-0.4l-0.8-1.2v-0.4h-0.4v-0.8h-0.4v-0.4l-0.4-0.4v-0.4
		l-0.8-0.8v-0.8h-0.4v-0.8h-0.4v-0.4l-0.4-0.4v-0.4l-0.8-0.8v-0.4l-0.4-0.4v-0.4h-0.4v-0.8h-0.4v-0.8h-0.4v-0.4h-0.4v-0.8h-0.4v-0.8
		h-0.4v-0.8h-0.4v-0.4h-0.4v-0.8h-0.4v-0.8h-0.4v-0.4l-0.4-0.4v-0.4h-0.4v-0.8h-0.4v-0.4l-0.4-0.4v-0.4l-0.4-0.4v-0.4l-0.4-0.4v-0.4
		h-0.4v-0.8h-0.4v-0.4l-0.4-0.4v-0.4l-0.4-0.4v-0.4h-0.4v-0.8h-0.4v-0.4l-0.8-1.2v-0.4h-0.4v-0.4l-0.8-1.2v-0.4h-0.4v-0.4l-0.4-0.4
		v-0.4l-0.4-0.4v-0.4l-0.4-0.4v-0.4h-0.4v-0.8h-0.4v-0.4l-0.4-0.4v-0.4h-0.4v-0.8h-0.4v-0.4l-0.4-0.4v-0.4l-0.4-0.4v-0.4h-0.4v-0.8
		h-0.4v-0.4l-0.4-0.4v-0.4h-0.4v-0.8h-0.4v-0.8h-0.4v-0.4h-0.4v-0.8h-0.4v-0.8h-0.4v-0.4l-0.4-0.4v-0.4h-0.4v-0.8l-0.4-0.4v-0.4
		h-0.4v-0.4l-0.4-0.4v-0.4h-0.4v-0.8h-0.4v-0.4l-0.8-1.2v-0.4l-0.4-0.4v-0.4h-0.4v-0.4l-0.4-0.4v-0.4h-0.4v-0.8h-0.4v-0.8h-0.4v-0.4
		l-0.4-0.4v-0.4h-0.4v-0.8h-0.4v-0.8h-0.4v-0.4l-0.4-0.4v-0.4h-0.4v-0.8h-0.4v-0.8h-0.4v-0.4l-0.4-0.4v-0.4h-0.4v-0.8h-0.4v-0.8
		h-0.4v-0.4l-0.4-0.4v-0.4h-0.4v-0.8h-0.4v-0.8h-0.4v-0.4"/>
	
		<path id="long0" display="inline" opacity="0.5" fill="none" stroke="#0978AB" stroke-width="0.25" stroke-linejoin="bevel" enable-background="new    " d="
		M276.5,139.3V1.7"/>
	
		<path id="long30" display="inline" opacity="0.5" fill="none" stroke="#0978AB" stroke-width="0.25" stroke-linejoin="bevel" enable-background="new    " d="
		M344.9,157.7l0.8-1.2v-0.4l0.399-0.4v-0.4h0.4l0.4-0.4v-0.4l0.399-0.4v-0.4l0.8-1.2v-0.4h0.4v-0.4l0.4-0.4v-0.4l0.399-0.4v-0.4
		l0.4-0.4v-0.4l0.8-0.8v-0.4l0.4-0.4v-0.4l0.399-0.4v-0.4l0.8-0.8v-0.4l0.4-0.4v-0.4l0.4-0.4v-0.4h0.399v-0.4l0.4-0.4v-0.4
		l0.399-0.4v-0.4l0.801-0.8v-0.4l0.399-0.4v-0.4l0.4-0.4v-0.4h0.399v-0.4l0.4-0.4v-0.4l0.4-0.4v-0.4h0.399v-0.4l0.4-0.4v-0.8
		l0.8-0.8v-0.4l0.4-0.4v-0.4l0.8-0.8v-0.4l0.399-0.4v-0.4l0.801-0.8v-0.4l0.399-0.4v-0.4l0.4-0.4v-0.4l0.399-0.4v-0.4l0.801-0.8
		v-0.4l0.399-0.4v-0.4h0.4v-0.4l0.399-0.4v-0.4l0.801-1.2v-0.4l0.8-0.8v-0.4l0.399-0.4v-0.4h0.4v-0.8l0.8-0.8v-0.4l0.4-0.4v-0.4
		h0.399v-0.4l0.801-1.2v-0.4l0.399-0.4v-0.4h0.4v-0.8l1.6-2v-0.8h0.4v-0.4l0.399-0.4v-0.4h0.4v-0.8l0.8-0.8v-0.4l0.4-0.4v-0.4
		l0.8-0.8v-0.4l0.4-0.4v-0.4l0.399-0.4v-0.4h0.4v-0.8h0.399v-0.4l0.801-1.2v-0.4h0.399v-0.4l0.8-1.2v-0.4h0.4v-0.8h0.4v-0.4
		l0.399-0.4v-0.4l0.8-0.8v-0.8h0.4v-0.8h0.4v-0.4l0.399-0.4v-0.4l0.8-0.8v-0.4l0.4-0.4v-0.4h0.4v-0.8h0.399v-0.8h0.4v-0.4h0.399
		v-0.8h0.4v-0.8h0.4v-0.8h0.399v-0.4h0.4v-0.8h0.399v-0.8h0.4v-0.4l0.4-0.4v-0.4h0.399v-0.8h0.4v-0.4l0.399-0.4v-0.4l0.4-0.4v-0.4
		l0.4-0.4v-0.4h0.399v-0.8h0.4v-0.4l0.399-0.4v-0.4l0.4-0.4v-0.4h0.4v-0.8h0.399v-0.4l0.8-1.2v-0.4h0.4v-0.4l0.8-1.2v-0.4h0.4v-0.4
		l0.399-0.4v-0.4l0.4-0.4v-0.4l0.4-0.4v-0.4h0.399v-0.8h0.4v-0.4l0.399-0.4v-0.4h0.4v-0.8h0.4v-0.4l0.399-0.4v-0.4l0.4-0.4v-0.4
		h0.399v-0.8h0.4v-0.4l0.4-0.4v-0.4h0.399v-0.8h0.4v-0.8h0.399v-0.4h0.4v-0.8h0.4v-0.8h0.399v-0.4l0.4-0.4v-0.4h0.399v-0.8l0.4-0.4
		v-0.4h0.4v-0.4l0.399-0.4v-0.4h0.4v-0.8h0.399v-0.4l0.801-1.2v-0.4l0.399-0.4v-0.4h0.4v-0.4l0.399-0.4v-0.4h0.4v-0.8h0.4v-0.8
		h0.399v-0.4l0.4-0.4v-0.4h0.399v-0.8h0.4v-0.8h0.4v-0.4l0.399-0.4v-0.4h0.4v-0.8h0.399v-0.8h0.4v-0.4l0.4-0.4v-0.4h0.399v-0.8h0.4
		v-0.8h0.399v-0.4l0.4-0.4v-0.4h0.4v-0.8h0.399v-0.8h0.4v-0.4"/>
	
		<path id="long60" display="inline" opacity="0.5" fill="none" stroke="#0978AB" stroke-width="0.25" stroke-linejoin="bevel" enable-background="new    " d="
		M395.3,208.1l1.2-0.8h0.4l0.399-0.4h0.4v-0.4l0.399-0.4h0.4l0.4-0.4h0.399l1.2-0.8h0.4v-0.4h0.399l0.4-0.4h0.399l0.4-0.4h0.4
		l0.399-0.4h0.4l0.8-0.8h0.4l0.399-0.4h0.4l0.399-0.4h0.4l0.8-0.8h0.4l0.399-0.4h0.4l0.4-0.4h0.399v-0.4h0.4l0.399-0.4h0.4l0.4-0.4
		h0.399l0.8-0.8h0.4l0.4-0.4h0.399l0.4-0.4h0.399v-0.4h0.4l0.4-0.4h0.399l0.4-0.4h0.399v-0.4h0.4l0.4-0.4h0.8l0.8-0.8h0.4l0.399-0.4
		h0.4l0.8-0.8h0.4l0.399-0.4h0.4l0.8-0.8h0.4l0.399-0.4h0.4l0.399-0.4h0.4l0.4-0.4h0.399l0.8-0.8h0.4l0.4-0.4h0.399v-0.4h0.4
		l0.399-0.4h0.4l1.2-0.8h0.399l0.801-0.8h0.399l0.4-0.4h0.399v-0.4h0.801l0.8-0.8h0.399l0.4-0.4h0.4v-0.4h0.399l1.2-0.8h0.4
		l0.399-0.4h0.4v-0.4h0.8l2-1.6h0.8v-0.4h0.4l0.399-0.4h0.4v-0.4h0.8l0.8-0.8h0.4l0.4-0.4h0.399l0.8-0.8h0.4l0.4-0.4h0.399l0.4-0.4
		h0.399v-0.4h0.801v-0.4h0.399l1.2-0.8h0.4v-0.4h0.399l1.2-0.8h0.4v-0.4h0.8v-0.4h0.399l0.4-0.4h0.4l0.8-0.8h0.8v-0.4h0.8v-0.4h0.4
		l0.399-0.4h0.4l0.8-0.8h0.4l0.399-0.4h0.4v-0.4h0.8v-0.4h0.8v-0.4h0.4v-0.4h0.8v-0.4h0.8v-0.4h0.801v-0.4h0.399v-0.4h0.8v-0.4
		h0.801v-0.4h0.399l0.4-0.4h0.399v-0.4h0.801v-0.4h0.399l0.4-0.4h0.399l0.4-0.4h0.4l0.399-0.4h0.4v-0.4h0.8v-0.4h0.4l0.399-0.4h0.4
		l0.399-0.4h0.4v-0.4h0.8v-0.4h0.4l1.2-0.8h0.399v-0.4h0.4l1.2-0.8h0.399v-0.4h0.4l0.399-0.4h0.4l0.4-0.4h0.399l0.4-0.4h0.399v-0.4
		h0.801v-0.4h0.399l0.4-0.4h0.399v-0.4h0.801v-0.4h0.399l0.4-0.4h0.399l0.4-0.4h0.4v-0.4h0.8v-0.4h0.399l0.4-0.4h0.4v-0.4h0.8v-0.4
		h0.8v-0.4h0.4v-0.4h0.8v-0.4h0.8v-0.4h0.4l0.399-0.4h0.4v-0.4h0.8l0.4-0.4h0.399v-0.4h0.4l0.399-0.4h0.4v-0.4h0.8v-0.4h0.4l1.2-0.8
		h0.399l0.4-0.4h0.399v-0.4h0.4l0.4-0.4h0.399v-0.4h0.8v-0.4h0.801v-0.4h0.399l0.4-0.4h0.399v-0.4h0.801v-0.4h0.8v-0.4h0.399
		l0.4-0.4h0.4v-0.4h0.8v-0.4h0.8v-0.4h0.4l0.399-0.4h0.4v-0.4h0.8v-0.4h0.8v-0.4h0.4l0.399-0.4h0.4v-0.4h0.8v-0.4h0.8v-0.4h0.4"/>
	
		<path id="long90" display="inline" opacity="0.5" fill="none" stroke="#0978AB" stroke-width="0.25" stroke-linejoin="bevel" enable-background="new    " d="
		M413.7,276.5h136"/>
	
		<path id="long120" display="inline" opacity="0.5" fill="none" stroke="#0978AB" stroke-width="0.25" stroke-linejoin="bevel" enable-background="new    " d="
		M395.3,344.9l1.2,0.8h0.4l0.399,0.399h0.4v0.4l0.399,0.4h0.4l0.4,0.399h0.399l1.2,0.8h0.4v0.4h0.399l0.4,0.4h0.399l0.4,0.399h0.4
		l0.399,0.4h0.4l0.8,0.8h0.4l0.399,0.4h0.4l0.399,0.399h0.4l0.8,0.8h0.4l0.399,0.4h0.4l0.4,0.4h0.399v0.399h0.4l0.399,0.4h0.4
		l0.4,0.399h0.399l0.8,0.801h0.4l0.4,0.399h0.399l0.4,0.4h0.399v0.399h0.4l0.4,0.4h0.399l0.4,0.4h0.399v0.399h0.4l0.4,0.4h0.8
		l0.8,0.8h0.4l0.399,0.4h0.4l0.8,0.8h0.4l0.399,0.399h0.4l0.8,0.801h0.4l0.399,0.399h0.4l0.399,0.4h0.4l0.4,0.399h0.399l0.8,0.801
		h0.4l0.4,0.399h0.399v0.4h0.4l0.399,0.399h0.4l1.2,0.801h0.399l0.801,0.8h0.399l0.4,0.399h0.399v0.4h0.801l0.8,0.8h0.399l0.4,0.4
		h0.4v0.399h0.399l1.2,0.801h0.4l0.399,0.399h0.4v0.4h0.8l2,1.6h0.8v0.4h0.4l0.399,0.399h0.4v0.4h0.8l0.8,0.8h0.4l0.4,0.4h0.399
		l0.8,0.8h0.4l0.4,0.4h0.399l0.4,0.399h0.399v0.4h0.801v0.399h0.399l1.2,0.801h0.4v0.399h0.399l1.2,0.8h0.4v0.4h0.8v0.4h0.399
		l0.4,0.399h0.4l0.8,0.8h0.8v0.4h0.8v0.4h0.4l0.399,0.399h0.4l0.8,0.8h0.4l0.399,0.4h0.4v0.4h0.8v0.399h0.8v0.4h0.4v0.399h0.8v0.4
		h0.8v0.4h0.801v0.399h0.399v0.4h0.8v0.399h0.801v0.4h0.399l0.4,0.4h0.399v0.399h0.801v0.4h0.399l0.4,0.399h0.399l0.4,0.4h0.4
		l0.399,0.4h0.4v0.399h0.8v0.4h0.4l0.399,0.399h0.4l0.399,0.4h0.4v0.4h0.8v0.399h0.4l1.2,0.8h0.399v0.4h0.4l1.2,0.8h0.399v0.4h0.4
		l0.399,0.399h0.4l0.4,0.4h0.399l0.4,0.4h0.399v0.399h0.801v0.4h0.399l0.4,0.399h0.399v0.4h0.801v0.4h0.399l0.4,0.399h0.399l0.4,0.4
		h0.4v0.399h0.8v0.4h0.399l0.4,0.4h0.4v0.399h0.8v0.4h0.8v0.399h0.4v0.4h0.8v0.4h0.8v0.399h0.4l0.399,0.4h0.4v0.399h0.8l0.4,0.4
		h0.399v0.4h0.4l0.399,0.399h0.4v0.4h0.8v0.399h0.4l1.2,0.801h0.399l0.4,0.399h0.399v0.4h0.4l0.4,0.399h0.399v0.4h0.8v0.4h0.801
		v0.399h0.399l0.4,0.4h0.399v0.399h0.801v0.4h0.8v0.4h0.399l0.4,0.399h0.4v0.4h0.8v0.399h0.8v0.4h0.4l0.399,0.4h0.4v0.399h0.8v0.4
		h0.8v0.399h0.4l0.399,0.4h0.4v0.4h0.8v0.399h0.8v0.4h0.4"/>
	
		<path id="long150" display="inline" opacity="0.5" fill="none" stroke="#0978AB" stroke-width="0.25" stroke-linejoin="bevel" enable-background="new    " d="
		M344.9,395.3l0.8,1.2v0.4l0.399,0.399v0.4h0.4l0.4,0.399v0.4l0.399,0.4v0.399l0.8,1.2v0.4h0.4v0.399l0.4,0.4v0.399l0.399,0.4v0.4
		l0.4,0.399v0.4l0.8,0.8v0.4l0.4,0.399v0.4l0.399,0.399v0.4l0.8,0.8v0.4l0.4,0.399v0.4l0.4,0.4v0.399h0.399v0.4l0.4,0.399v0.4
		l0.399,0.4v0.399l0.801,0.8v0.4l0.399,0.4v0.399l0.4,0.4v0.399h0.399v0.4l0.4,0.4v0.399l0.4,0.4v0.399h0.399v0.4l0.4,0.4v0.8
		l0.8,0.8v0.4l0.4,0.399v0.4l0.8,0.8v0.4l0.399,0.399v0.4l0.801,0.8v0.4l0.399,0.399v0.4l0.4,0.399v0.4l0.399,0.4v0.399l0.801,0.8
		v0.4l0.399,0.4v0.399h0.4v0.4l0.399,0.399v0.4l0.801,1.2v0.399l0.8,0.801v0.399l0.399,0.4v0.399h0.4v0.801l0.8,0.8v0.399l0.4,0.4
		v0.4h0.399v0.399l0.801,1.2v0.4l0.399,0.399v0.4h0.4v0.8l1.6,2v0.8h0.4v0.4l0.399,0.399v0.4h0.4v0.8l0.8,0.8v0.4l0.4,0.4v0.399
		l0.8,0.8v0.4l0.4,0.4v0.399l0.399,0.4v0.399h0.4v0.801h0.399v0.399l0.801,1.2v0.4h0.399v0.399l0.8,1.2v0.4h0.4v0.8h0.4v0.399
		l0.399,0.4v0.4l0.8,0.8v0.8h0.4v0.8h0.4v0.4l0.399,0.399v0.4l0.8,0.8v0.4l0.4,0.399v0.4h0.4v0.8h0.399v0.8h0.4v0.4h0.399v0.8h0.4
		v0.8h0.4v0.801h0.399v0.399h0.4v0.8h0.399v0.801h0.4v0.399l0.4,0.4v0.399h0.399v0.801h0.4v0.399l0.399,0.4v0.399l0.4,0.4v0.4
		l0.4,0.399v0.4h0.399v0.8h0.4v0.4l0.399,0.399v0.4l0.4,0.399v0.4h0.4v0.8h0.399v0.4l0.8,1.2v0.399h0.4v0.4l0.8,1.2v0.399h0.4v0.4
		l0.399,0.399v0.4l0.4,0.4v0.399l0.4,0.4v0.399h0.399v0.801h0.4v0.399l0.399,0.4v0.399h0.4v0.801h0.4v0.399l0.399,0.4v0.399l0.4,0.4
		v0.4h0.399v0.8h0.4v0.399l0.4,0.4v0.4h0.399v0.8h0.4v0.8h0.399v0.4h0.4v0.8h0.4v0.8h0.399v0.4l0.4,0.399v0.4h0.399v0.8l0.4,0.4
		v0.399h0.4v0.4l0.399,0.399v0.4h0.4v0.8h0.399v0.4l0.801,1.2v0.399l0.399,0.4v0.399h0.4v0.4l0.399,0.4v0.399h0.4v0.8h0.4v0.801
		h0.399v0.399l0.4,0.4v0.399h0.399v0.801h0.4v0.8h0.4v0.399l0.399,0.4v0.4h0.4v0.8h0.399v0.8h0.4v0.4l0.4,0.399v0.4h0.399v0.8h0.4
		v0.8h0.399v0.4l0.4,0.399v0.4h0.4v0.8h0.399v0.8h0.4v0.4"/>
</g>
<radialGradient id="cGlobeShade_1_" cx="-802.4473" cy="1356.2842" r="0.5" fx="-802.3223" fy="1356.1592" gradientTransform="matrix(550 0 0 -550 441622.5 746232.5)" gradientUnits="userSpaceOnUse">
	<stop  offset="0" style="stop-color:#FFFFFF;stop-opacity:0"/>
	<stop  offset="0.7071" style="stop-color:#808080;stop-opacity:0.0625"/>
	<stop  offset="1" style="stop-color:#000000;stop-opacity:0.25"/>
</radialGradient>
<circle id="cGlobeShade" display="none" fill="url(#cGlobeShade_1_)" cx="276.5" cy="276.5" r="275"/>
<circle id="cGlobeBorder" display="none" fill="none" stroke="#0978AB" stroke-width="0.25" cx="276.5" cy="276.5" r="275"/>
</svg>
