<?xml version="1.0" encoding="utf-8"?>
<!-- Generator: Adobe Illustrator 18.0.0, SVG Export Plug-In . SVG Version: 6.00 Build 0)  -->
<!DOCTYPE svg PUBLIC "-//W3C//DTD SVG 1.1//EN" "http://www.w3.org/Graphics/SVG/1.1/DTD/svg11.dtd">
<svg version="1.1" id="Layer_1" xmlns="http://www.w3.org/2000/svg" xmlns:xlink="http://www.w3.org/1999/xlink" x="0px" y="0px"
	 viewBox="0 0 687 120" enable-background="new 0 0 687 120" xml:space="preserve">
<line fill="none" stroke="#020202" stroke-width="0.5" stroke-linecap="round" x1="29.7" y1="27.6" x2="314.4" y2="27.6"/>
<line fill="none" stroke="#CECCCC" stroke-width="0.5" x1="29.7" y1="13.5" x2="29.7" y2="49.4"/>
<path fill="none" stroke="#020202" stroke-width="0.1172" d="M314.3,85.1"/>
<path fill="none" stroke="#020202" stroke-width="0.1172" d="M314.3,13.5"/>
<line fill="none" stroke="#CECCCC" stroke-width="0.5" x1="29.8" y1="49" x2="314.3" y2="49"/>
<g>
	<text transform="matrix(1 0 0 1 283.3445 64.541)" fill="#010101" font-family="'TheSansMono-W3Light'" font-size="11.8321">Time</text>
</g>
<g>
	<text transform="matrix(1 0 0 1 27.6688 103.0645)" fill="#020202" font-family="'TheSerif-HP5Plain'" font-size="13.8041">Direct Current (DC)</text>
</g>
<line fill="none" stroke="#CECCCC" stroke-width="0.5" x1="29.7" y1="13.5" x2="29.7" y2="49.4"/>
<line fill="none" stroke="#CECCCC" stroke-width="0.5" x1="29.7" y1="48.3" x2="29.7" y2="84.3"/>
<line fill="none" stroke="#CECCCC" stroke-width="0.5" x1="401.1" y1="13.5" x2="401.1" y2="49.4"/>
<path fill="none" stroke="#020202" stroke-width="0.1172" d="M685.7,85.1"/>
<path fill="none" stroke="#020202" stroke-width="0.1172" d="M685.7,13.5"/>
<line fill="none" stroke="#CECCCC" stroke-width="0.5" x1="401.2" y1="49" x2="685.7" y2="49"/>
<g>
	<path fill="none" stroke="#020202" stroke-width="0.5" d="M650.2,13.5c2.6,0,14.8-0.8,35.8,35.7"/>
</g>
<g>
	<text transform="matrix(1 0 0 1 654.741 64.541)" fill="#010101" font-family="'TheSansMono-W3Light'" font-size="11.8321">Time</text>
</g>
<g>
	<text transform="matrix(0 -1 1 0 381.9842 68.168)" fill="#010101" font-family="'TheSansMono-W3Light'" font-size="11.8321">Volts</text>
</g>
<g>
	<text transform="matrix(1 0 0 1 399.0652 103.0645)" fill="#020202" font-family="'TheSerif-HP5Plain'" font-size="13.8041">Alternating Current (AC)</text>
</g>
<line fill="none" stroke="#CECCCC" stroke-width="0.5" x1="401.1" y1="13.5" x2="401.1" y2="49.4"/>
<line fill="none" stroke="#CECCCC" stroke-width="0.5" x1="401.1" y1="49" x2="401.1" y2="84.9"/>
<g>
	<path fill="none" stroke="#020202" stroke-width="0.5" stroke-linecap="round" d="M401.2,49.2c20.5,35.6,31.4,35.5,35.4,35.5"/>
	<path fill="none" stroke="#020202" stroke-width="0.5" stroke-linecap="round" d="M436.5,84.6c2.6,0,14.8,0.8,35.8-35.7
		c20.5-35.6,31.4-35.5,35.4-35.5"/>
	<path fill="none" stroke="#020202" stroke-width="0.5" stroke-linecap="round" d="M650.1,13.5c-2.6,0-14.8-0.8-35.8,35.7
		c-20.5,35.6-31.4,35.5-35.4,35.5"/>
	<path fill="none" stroke="#020202" stroke-width="0.5" stroke-linecap="round" d="M578.9,84.6c-2.6,0-14.8,0.8-35.8-35.7
		c-20.5-35.6-31.4-35.4-35.4-35.4"/>
</g>
<g>
	<text transform="matrix(1 0 0 1 389.0027 52.9526)" fill="#010101" font-family="'TheSansMono-W3Light'" font-size="11.8321">0</text>
</g>
<g>
	<text transform="matrix(0 -1 1 0 10.2615 68.168)" fill="#010101" font-family="'TheSansMono-W3Light'" font-size="11.8321">Volts</text>
</g>
<g>
	<text transform="matrix(1 0 0 1 17.2776 52.9526)" fill="#010101" font-family="'TheSansMono-W3Light'" font-size="11.8321">0</text>
</g>
</svg>
