<?xml version="1.0" encoding="utf-8"?>
<!-- Generator: Adobe Illustrator 18.0.0, SVG Export Plug-In . SVG Version: 6.00 Build 0)  -->
<!DOCTYPE svg PUBLIC "-//W3C//DTD SVG 1.1//EN" "http://www.w3.org/Graphics/SVG/1.1/DTD/svg11.dtd">
<svg version="1.1" id="Layer_1" xmlns="http://www.w3.org/2000/svg" xmlns:xlink="http://www.w3.org/1999/xlink" x="0px" y="0px"
	 viewBox="0 0 687 420" enable-background="new 0 0 687 420" xml:space="preserve">
<line fill="none" stroke="#010101" stroke-width="0.5" stroke-linecap="round" x1="65.2" y1="192.2" x2="301.5" y2="192.2"/>
<line fill="none" stroke="#CDCCCC" stroke-width="0.5" x1="65.2" y1="180.5" x2="65.2" y2="210.3"/>
<path fill="none" stroke="#010101" stroke-width="0.1172" d="M301.4,239.9"/>
<path fill="none" stroke="#010101" stroke-width="0.1172" d="M301.4,180.5"/>
<line fill="none" stroke="#CDCCCC" stroke-width="0.5" x1="65.3" y1="209.9" x2="301.4" y2="209.9"/>
<g>
	<text transform="matrix(1 0 0 1 275.7309 222.8428)" font-family="'TheSansMono-W3Light'" font-size="9.8199">Time</text>
</g>
<g>
	<text transform="matrix(1 0 0 1 63.5365 254.8154)" fill="#010101" font-family="'TheSerif-HP5Plain'" font-size="11.4565">Direct Current (DC)</text>
</g>
<line fill="none" stroke="#CDCCCC" stroke-width="0.5" x1="65.2" y1="180.5" x2="65.2" y2="210.3"/>
<line fill="none" stroke="#CDCCCC" stroke-width="0.5" x1="65.2" y1="209.4" x2="65.2" y2="239.2"/>
<line fill="none" stroke="#CDCCCC" stroke-width="0.5" x1="373.5" y1="180.5" x2="373.5" y2="210.3"/>
<path fill="none" stroke="#010101" stroke-width="0.1172" d="M609.7,239.9"/>
<path fill="none" stroke="#010101" stroke-width="0.1172" d="M609.7,180.5"/>
<line fill="none" stroke="#CDCCCC" stroke-width="0.5" x1="373.5" y1="209.9" x2="609.7" y2="209.9"/>
<g>
	<path fill="none" stroke="#010101" stroke-width="0.5" d="M580.2,180.5c2.2,0,12.3-0.7,29.7,29.6"/>
</g>
<g>
	<text transform="matrix(1 0 0 1 583.9662 222.8428)" font-family="'TheSansMono-W3Light'" font-size="9.8199">Time</text>
</g>
<g>
	<text transform="matrix(0 -1 1 0 357.5961 225.8535)" font-family="'TheSansMono-W3Light'" font-size="9.8199">Volts</text>
</g>
<g>
	<text transform="matrix(1 0 0 1 371.7719 254.8154)" fill="#010101" font-family="'TheSerif-HP5Plain'" font-size="11.4565">Alternating Current (AC)</text>
</g>
<line fill="none" stroke="#CDCCCC" stroke-width="0.5" x1="373.5" y1="180.5" x2="373.5" y2="210.3"/>
<line fill="none" stroke="#CDCCCC" stroke-width="0.5" x1="373.5" y1="209.9" x2="373.5" y2="239.7"/>
<g>
	<path fill="none" stroke="#010101" stroke-width="0.5" stroke-linecap="round" d="M373.5,210.1c17,29.5,26.1,29.5,29.4,29.5"/>
	<path fill="none" stroke="#010101" stroke-width="0.5" stroke-linecap="round" d="M402.8,239.5c2.2,0,12.3,0.7,29.7-29.6
		c17-29.5,26.1-29.5,29.4-29.5"/>
	<path fill="none" stroke="#010101" stroke-width="0.5" stroke-linecap="round" d="M580.1,180.5c-2.2,0-12.3-0.7-29.7,29.6
		c-17,29.5-26.1,29.5-29.4,29.5"/>
	<path fill="none" stroke="#010101" stroke-width="0.5" stroke-linecap="round" d="M521,239.5c-2.2,0-12.3,0.7-29.7-29.6
		c-17-29.5-26.1-29.4-29.4-29.4"/>
</g>
<g>
	<text transform="matrix(1 0 0 1 363.4213 213.2256)" font-family="'TheSansMono-W3Light'" font-size="9.8199">0</text>
</g>
<g>
	<text transform="matrix(0 -1 1 0 49.0902 225.8535)" font-family="'TheSansMono-W3Light'" font-size="9.8199">Volts</text>
</g>
<g>
	<text transform="matrix(1 0 0 1 54.9135 213.2256)" font-family="'TheSansMono-W3Light'" font-size="9.8199">0</text>
</g>
</svg>
