<?xml version="1.0" encoding="utf-8"?>
<!-- Generator: Adobe Illustrator 16.0.4, SVG Export Plug-In . SVG Version: 6.00 Build 0)  -->
<!DOCTYPE svg PUBLIC "-//W3C//DTD SVG 1.1//EN" "http://www.w3.org/Graphics/SVG/1.1/DTD/svg11.dtd">
<svg version="1.1" id="Layer_1" xmlns="http://www.w3.org/2000/svg" xmlns:xlink="http://www.w3.org/1999/xlink" x="0px" y="0px"
	 width="650px" height="80px" viewBox="-19 0 650 80" enable-background="new -19 0 650 80" xml:space="preserve">
<line fill="none" stroke="#010101" stroke-width="0.5" stroke-linecap="round" x1="52.737" y1="15.512" x2="263.24" y2="15.512"/>
<line fill="none" stroke="#CDCCCC" stroke-width="0.5" x1="52.737" y1="5.089" x2="52.737" y2="31.636"/>
<line fill="none" stroke="#CDCCCC" stroke-width="0.5" x1="52.826" y1="31.279" x2="263.151" y2="31.279"/>
<g>
	<g enable-background="new    ">
		<path d="M243.192,37.371v5.438h-0.56v-5.438h-1.845v-0.463h4.249v0.463H243.192z"/>
		<path d="M246.413,42.809v-0.446h1.688v-3.462h-1.557v-0.437h2.107v3.899h1.46v0.446H246.413z M248.869,37.074
			c0,0.297-0.236,0.542-0.542,0.542c-0.297,0-0.542-0.245-0.542-0.542c0-0.297,0.245-0.534,0.542-0.534
			C248.633,36.54,248.869,36.776,248.869,37.074z"/>
		<path d="M255.036,42.809v-2.876c0-0.778-0.079-1.119-0.437-1.119c-0.455,0-0.944,0.848-0.944,1.897v2.099h-0.489v-2.833
			c0-0.822-0.114-1.163-0.472-1.163c-0.446,0-0.91,0.848-0.91,1.897v2.099h-0.498v-4.345h0.472c0,0.376-0.026,0.708-0.07,1.093
			l0.009,0.009c0.166-0.7,0.551-1.172,1.119-1.172c0.577,0,0.778,0.463,0.743,1.154c0.175-0.691,0.56-1.154,1.137-1.154
			c0.604,0,0.839,0.49,0.839,1.364v3.051H255.036z"/>
		<path d="M260.486,40.527h-3.208c-0.009,0.035-0.009,0.07-0.009,0.114c0,1.277,0.656,1.775,1.626,1.775
			c0.455,0,1.084-0.131,1.399-0.288l0.053,0.48c-0.394,0.166-0.997,0.28-1.548,0.28c-1.303,0-2.098-0.709-2.098-2.239
			c0-1.294,0.813-2.265,1.993-2.265c1.189,0,1.81,0.892,1.81,1.819C260.503,40.273,260.503,40.405,260.486,40.527z M258.659,38.813
			c-0.647,0-1.233,0.463-1.338,1.285h2.597C259.917,39.303,259.367,38.813,258.659,38.813z"/>
	</g>
</g>
<g>
	<g enable-background="new    ">
		<path fill="#010101" d="M54.109,71.332c-0.68,0-1.33-0.04-1.699-0.04h-0.87v-0.54c0.26-0.06,0.57-0.109,0.87-0.13v-5.407
			c-0.3-0.02-0.61-0.069-0.87-0.13v-0.539h0.85c0.53,0,1.299-0.03,2.029-0.03c2.169,0,3.458,1.01,3.458,3.328
			C57.876,70.152,56.317,71.332,54.109,71.332z M54.338,65.265c-0.36,0-0.759,0.02-1.019,0.029v5.197
			c0.26,0.04,0.62,0.061,0.899,0.061c1.589,0,2.688-0.82,2.688-2.648C56.907,66.184,56.087,65.265,54.338,65.265z"/>
		<path fill="#010101" d="M58.63,71.292v-0.54c0.26-0.06,0.569-0.109,0.869-0.13v-3.588c-0.24-0.04-0.58-0.08-0.869-0.1v-0.54
			c0.5-0.06,1.189-0.1,1.769-0.069v4.297c0.29,0.021,0.589,0.07,0.839,0.13v0.54H58.63z M59.959,65.334c-0.33,0-0.6-0.25-0.6-0.579
			c0-0.33,0.27-0.59,0.6-0.59c0.32,0,0.59,0.26,0.59,0.59C60.549,65.075,60.279,65.334,59.959,65.334z"/>
		<path fill="#010101" d="M65.128,67.124c-1.14-0.189-1.649,0.58-1.649,2.169v1.329c0.3,0.021,0.609,0.07,0.869,0.13v0.54H61.71
			v-0.54c0.26-0.06,0.569-0.109,0.869-0.13v-3.588c-0.24-0.04-0.58-0.08-0.869-0.1v-0.54c0.5-0.06,1.189-0.1,1.739-0.069
			c0,0.31-0.03,0.77-0.1,1.179h0.01c0.22-0.689,0.72-1.379,1.809-1.27L65.128,67.124z"/>
		<path fill="#010101" d="M69.928,68.792H66.68c-0.04,1.3,0.49,1.859,1.569,1.859c0.48,0,0.979-0.1,1.419-0.29l0.13,0.71
			c-0.5,0.2-1.1,0.31-1.719,0.31c-1.509,0-2.329-0.8-2.329-2.549c0-1.479,0.83-2.599,2.239-2.599c1.389,0,1.969,0.93,1.969,2.039
			C69.958,68.393,69.948,68.593,69.928,68.792z M67.929,66.914c-0.649,0-1.109,0.48-1.219,1.239h2.329
			C69.058,67.394,68.628,66.914,67.929,66.914z"/>
		<path fill="#010101" d="M73.079,71.372c-1.229,0-2.249-0.569-2.249-2.398c0-1.6,0.81-2.729,2.469-2.729
			c0.42,0,0.87,0.069,1.219,0.18v1.449h-0.56c-0.06-0.29-0.1-0.57-0.13-0.81c-0.17-0.05-0.4-0.08-0.67-0.08
			c-0.889,0-1.389,0.75-1.389,1.839c0,1.01,0.33,1.77,1.5,1.77c0.43,0,0.849-0.091,1.189-0.24l0.15,0.75
			C74.228,71.242,73.678,71.372,73.079,71.372z"/>
		<path fill="#010101" d="M77.259,71.372c-1.02,0-1.33-0.42-1.33-1.489v-2.858h-1.02v-0.699h1.02v-1.609l0.899-0.25v1.859h1.39
			v0.699h-1.39v2.538c0,0.82,0.16,1.04,0.71,1.04c0.229,0,0.45-0.03,0.629-0.08l0.09,0.739
			C77.968,71.332,77.579,71.372,77.259,71.372z"/>
		<path fill="#010101" d="M84.298,71.381c-2.039,0-3.088-1.259-3.088-3.298c0-2.069,1.079-3.618,3.288-3.618
			c0.55,0,1.099,0.08,1.609,0.2v1.648h-0.649c-0.07-0.34-0.1-0.629-0.13-0.909c-0.35-0.09-0.67-0.13-0.99-0.13
			c-1.439,0-2.139,1.159-2.139,2.658c0,1.609,0.729,2.629,2.299,2.629c0.55,0,1.149-0.14,1.569-0.34l0.16,0.77
			C85.677,71.211,84.988,71.381,84.298,71.381z"/>
		<path fill="#010101" d="M90.867,71.292c0-0.3,0.02-0.739,0.07-1.05h-0.02c-0.29,0.68-0.9,1.14-1.749,1.14
			c-1.14,0-1.489-0.71-1.489-1.589v-2.759c-0.24-0.04-0.57-0.08-0.84-0.1v-0.54c0.47-0.06,1.149-0.1,1.729-0.069v3.198
			c0,0.699,0.2,1.119,0.849,1.119c0.82,0,1.419-0.84,1.419-1.939v-1.679c-0.23-0.03-0.54-0.07-0.81-0.09v-0.54
			c0.49-0.06,1.149-0.1,1.699-0.069v4.257c0.24,0.04,0.569,0.08,0.839,0.101v0.539C92.097,71.282,91.407,71.322,90.867,71.292z"/>
		<path fill="#010101" d="M96.458,67.124c-1.14-0.189-1.649,0.58-1.649,2.169v1.329c0.3,0.021,0.609,0.07,0.869,0.13v0.54H93.04
			v-0.54c0.26-0.06,0.569-0.109,0.869-0.13v-3.588c-0.24-0.04-0.58-0.08-0.869-0.1v-0.54c0.5-0.06,1.189-0.1,1.739-0.069
			c0,0.31-0.03,0.77-0.1,1.179h0.01c0.22-0.689,0.72-1.379,1.809-1.27L96.458,67.124z"/>
		<path fill="#010101" d="M100.377,67.124c-1.14-0.189-1.649,0.58-1.649,2.169v1.329c0.3,0.021,0.609,0.07,0.869,0.13v0.54h-2.638
			v-0.54c0.26-0.06,0.569-0.109,0.869-0.13v-3.588c-0.24-0.04-0.58-0.08-0.869-0.1v-0.54c0.5-0.06,1.189-0.1,1.739-0.069
			c0,0.31-0.03,0.77-0.1,1.179h0.01c0.22-0.689,0.72-1.379,1.809-1.27L100.377,67.124z"/>
		<path fill="#010101" d="M105.177,68.792h-3.248c-0.04,1.3,0.49,1.859,1.569,1.859c0.48,0,0.979-0.1,1.419-0.29l0.13,0.71
			c-0.5,0.2-1.099,0.31-1.719,0.31c-1.509,0-2.329-0.8-2.329-2.549c0-1.479,0.83-2.599,2.239-2.599c1.389,0,1.969,0.93,1.969,2.039
			C105.208,68.393,105.197,68.593,105.177,68.792z M103.178,66.914c-0.649,0-1.109,0.48-1.219,1.239h2.329
			C104.308,67.394,103.878,66.914,103.178,66.914z"/>
		<path fill="#010101" d="M109.987,71.292v-3.198c0-0.699-0.19-1.119-0.84-1.119c-0.819,0-1.419,0.839-1.419,1.938v1.709
			c0.27,0.021,0.56,0.061,0.799,0.13v0.54h-2.568v-0.54c0.26-0.06,0.569-0.109,0.869-0.13v-3.588c-0.24-0.04-0.58-0.08-0.869-0.1
			v-0.54c0.5-0.06,1.189-0.1,1.739-0.069c0,0.289-0.02,0.749-0.07,1.049h0.01c0.29-0.68,0.91-1.14,1.759-1.14
			c1.129,0,1.489,0.71,1.489,1.59v2.798c0.29,0.021,0.589,0.07,0.83,0.13v0.54H109.987z"/>
		<path fill="#010101" d="M114.178,71.372c-1.02,0-1.33-0.42-1.33-1.489v-2.858h-1.02v-0.699h1.02v-1.609l0.899-0.25v1.859h1.39
			v0.699h-1.39v2.538c0,0.82,0.16,1.04,0.71,1.04c0.229,0,0.45-0.03,0.629-0.08l0.09,0.739
			C114.888,71.332,114.498,71.372,114.178,71.372z"/>
		<path fill="#010101" d="M119.848,73.38c-1.179-1.869-1.459-3.458-1.459-4.928c0-1.459,0.34-3.178,1.469-4.967l0.649,0.31
			c-0.81,1.39-1.239,2.979-1.239,4.607c0,1.709,0.41,3.238,1.25,4.647L119.848,73.38z"/>
		<path fill="#010101" d="M123.568,71.332c-0.68,0-1.33-0.04-1.699-0.04h-0.87v-0.54c0.26-0.06,0.57-0.109,0.87-0.13v-5.407
			c-0.3-0.02-0.61-0.069-0.87-0.13v-0.539h0.85c0.53,0,1.299-0.03,2.029-0.03c2.169,0,3.458,1.01,3.458,3.328
			C127.335,70.152,125.776,71.332,123.568,71.332z M123.797,65.265c-0.36,0-0.759,0.02-1.019,0.029v5.197
			c0.26,0.04,0.62,0.061,0.899,0.061c1.589,0,2.688-0.82,2.688-2.648C126.366,66.184,125.546,65.265,123.797,65.265z"/>
		<path fill="#010101" d="M131.327,71.381c-2.039,0-3.088-1.259-3.088-3.298c0-2.069,1.079-3.618,3.288-3.618
			c0.55,0,1.099,0.08,1.609,0.2v1.648h-0.649c-0.07-0.34-0.1-0.629-0.13-0.909c-0.35-0.09-0.67-0.13-0.99-0.13
			c-1.439,0-2.139,1.159-2.139,2.658c0,1.609,0.729,2.629,2.299,2.629c0.55,0,1.149-0.14,1.569-0.34l0.16,0.77
			C132.707,71.211,132.017,71.381,131.327,71.381z"/>
		<path fill="#010101" d="M134.599,73.38l-0.65-0.32c0.82-1.389,1.239-2.978,1.239-4.597c0-1.709-0.41-3.238-1.249-4.658l0.68-0.319
			c1.169,1.859,1.449,3.448,1.449,4.917C136.068,69.862,135.738,71.582,134.599,73.38z"/>
	</g>
</g>
<line fill="none" stroke="#CDCCCC" stroke-width="0.5" x1="52.737" y1="5.089" x2="52.737" y2="31.636"/>
<line fill="none" stroke="#CDCCCC" stroke-width="0.5" x1="52.737" y1="30.834" x2="52.737" y2="57.38"/>
<line fill="none" stroke="#CDCCCC" stroke-width="0.5" x1="327.38" y1="5.089" x2="327.38" y2="31.636"/>
<line fill="none" stroke="#CDCCCC" stroke-width="0.5" x1="327.38" y1="31.279" x2="537.794" y2="31.279"/>
<g>
	<path fill="none" stroke="#010101" stroke-width="0.5" d="M511.515,5.089c1.96,0,10.957-0.624,26.457,26.369"/>
</g>
<g>
	<g enable-background="new    ">
		<path d="M517.864,37.209v5.6h-0.576v-5.6h-1.9v-0.477h4.376v0.477H517.864z"/>
		<path d="M521.176,42.809V42.35h1.737v-3.565h-1.603v-0.45h2.17v4.015h1.503v0.459H521.176z M523.705,36.903
			c0,0.306-0.243,0.558-0.558,0.558c-0.307,0-0.559-0.252-0.559-0.558s0.252-0.549,0.559-0.549
			C523.462,36.354,523.705,36.597,523.705,36.903z"/>
		<path d="M530.05,42.809v-2.962c0-0.801-0.081-1.152-0.45-1.152c-0.468,0-0.972,0.873-0.972,1.954v2.161h-0.505v-2.917
			c0-0.846-0.116-1.197-0.485-1.197c-0.459,0-0.937,0.873-0.937,1.954v2.161h-0.514v-4.474h0.486c0,0.387-0.026,0.729-0.071,1.125
			l0.009,0.009c0.171-0.72,0.567-1.207,1.152-1.207c0.594,0,0.801,0.477,0.765,1.188c0.181-0.711,0.576-1.188,1.171-1.188
			c0.621,0,0.864,0.504,0.864,1.404v3.142H530.05z"/>
		<path d="M535.657,40.459h-3.304c-0.009,0.036-0.009,0.072-0.009,0.117c0,1.314,0.675,1.827,1.675,1.827
			c0.468,0,1.116-0.135,1.44-0.297l0.054,0.495c-0.405,0.171-1.026,0.288-1.594,0.288c-1.341,0-2.16-0.729-2.16-2.305
			c0-1.333,0.837-2.332,2.053-2.332c1.224,0,1.863,0.918,1.863,1.873C535.676,40.198,535.676,40.333,535.657,40.459z
			 M533.776,38.695c-0.667,0-1.27,0.477-1.378,1.323h2.674C535.072,39.199,534.505,38.695,533.776,38.695z"/>
	</g>
</g>
<g>
	<g enable-background="new    ">
		<path d="M313.217,42.484v0.666l-6.077,2.161v-0.667l4.169-1.422c0.369-0.126,0.854-0.297,1.314-0.433v-0.009
			c-0.441-0.117-0.9-0.288-1.359-0.45l-4.124-1.467v-0.612L313.217,42.484z"/>
		<path d="M313.298,37.471c0,1.197-0.738,2.043-2.305,2.043c-1.251,0-2.332-0.837-2.332-2.206c0-1.053,0.586-2.044,2.251-2.044
			C312.218,35.265,313.298,36.139,313.298,37.471z M309.13,37.381c0,0.774,0.566,1.54,1.818,1.54c1.188,0,1.872-0.594,1.872-1.548
			c0-0.774-0.566-1.521-1.881-1.521C309.813,35.851,309.13,36.409,309.13,37.381z"/>
		<path d="M307.095,32.188v1.693h-0.45v-2.26h6.113v-1.692h0.459v3.952h-0.459v-1.693H307.095z"/>
		<path d="M313.289,25.933c0,0.864-0.441,1.485-1.495,1.485h-2.593v1.503h-0.459v-1.503h-1.512l-0.153-0.567h1.665V24.79h0.459
			v2.062h2.396c0.882,0,1.197-0.45,1.197-1.071c0-0.306-0.036-0.702-0.117-0.981l0.477-0.063
			C313.244,25.087,313.289,25.582,313.289,25.933z"/>
		<path d="M313.298,21.416c0,0.603-0.072,1.161-0.234,1.575l-0.567-0.117c0.208-0.415,0.334-0.937,0.334-1.558
			c0-0.612-0.253-1.251-0.793-1.251c-1.242,0-0.468,2.818-2.115,2.818c-0.702,0-1.27-0.612-1.27-1.792
			c0-0.468,0.072-0.963,0.162-1.323l0.486,0.09c-0.145,0.432-0.207,0.855-0.207,1.296c0,0.765,0.333,1.134,0.747,1.134
			c1.18,0,0.45-2.827,2.115-2.827C312.875,19.462,313.298,20.434,313.298,21.416z"/>
	</g>
</g>
<g>
	<g enable-background="new    ">
		<path fill="#010101" d="M330.273,71.292v-0.54c0.239-0.05,0.52-0.1,0.779-0.119l-0.39-1.109h-2.818l-0.39,1.109
			c0.26,0.02,0.55,0.069,0.789,0.119v0.54h-2.339v-0.54c0.181-0.05,0.43-0.1,0.61-0.109l2.219-6.097h1.119l2.229,6.097
			c0.18,0.01,0.43,0.06,0.61,0.109v0.54H330.273z M329.573,66.404c-0.119-0.35-0.22-0.649-0.31-0.979h-0.02
			c-0.08,0.32-0.181,0.63-0.29,0.97l-0.87,2.398h2.35L329.573,66.404z"/>
		<path fill="#010101" d="M332.936,71.292v-0.54c0.25-0.06,0.55-0.109,0.84-0.13v-5.916c-0.24-0.04-0.569-0.08-0.859-0.101v-0.539
			c0.51-0.061,1.179-0.101,1.759-0.07v6.626c0.29,0.021,0.59,0.07,0.84,0.13v0.54H332.936z"/>
		<path fill="#010101" d="M337.895,71.372c-1.02,0-1.329-0.42-1.329-1.489v-2.858h-1.02v-0.699h1.02v-1.609l0.899-0.25v1.859h1.389
			v0.699h-1.389v2.538c0,0.82,0.159,1.04,0.709,1.04c0.23,0,0.45-0.03,0.63-0.08l0.09,0.739
			C338.604,71.332,338.214,71.372,337.895,71.372z"/>
		<path fill="#010101" d="M343.813,68.792h-3.249c-0.04,1.3,0.49,1.859,1.569,1.859c0.479,0,0.979-0.1,1.419-0.29l0.131,0.71
			c-0.5,0.2-1.1,0.31-1.72,0.31c-1.509,0-2.328-0.8-2.328-2.549c0-1.479,0.829-2.599,2.238-2.599c1.39,0,1.969,0.93,1.969,2.039
			C343.843,68.393,343.833,68.593,343.813,68.792z M341.814,66.914c-0.65,0-1.109,0.48-1.22,1.239h2.329
			C342.943,67.394,342.514,66.914,341.814,66.914z"/>
		<path fill="#010101" d="M348.014,67.124c-1.14-0.189-1.649,0.58-1.649,2.169v1.329c0.3,0.021,0.61,0.07,0.87,0.13v0.54h-2.639
			v-0.54c0.26-0.06,0.569-0.109,0.869-0.13v-3.588c-0.239-0.04-0.579-0.08-0.869-0.1v-0.54c0.5-0.06,1.189-0.1,1.739-0.069
			c0,0.31-0.03,0.77-0.101,1.179h0.01c0.221-0.689,0.72-1.379,1.81-1.27L348.014,67.124z"/>
		<path fill="#010101" d="M352.543,71.292v-3.198c0-0.699-0.189-1.119-0.839-1.119c-0.82,0-1.42,0.839-1.42,1.938v1.709
			c0.271,0.021,0.56,0.061,0.8,0.13v0.54h-2.568v-0.54c0.26-0.06,0.569-0.109,0.869-0.13v-3.588c-0.239-0.04-0.579-0.08-0.869-0.1
			v-0.54c0.5-0.06,1.189-0.1,1.739-0.069c0,0.289-0.021,0.749-0.07,1.049h0.01c0.29-0.68,0.909-1.14,1.759-1.14
			c1.13,0,1.489,0.71,1.489,1.59v2.798c0.29,0.021,0.59,0.07,0.83,0.13v0.54H352.543z"/>
		<path fill="#010101" d="M357.863,71.292c0-0.35,0.011-0.71,0.061-0.989h-0.021c-0.239,0.609-0.869,1.079-1.688,1.079
			c-0.82,0-1.38-0.51-1.38-1.31c0-1.069,1.109-1.698,2.979-1.698v-0.37c0-0.7-0.25-1.09-1.039-1.09c-0.3,0-0.649,0.051-0.93,0.141
			c-0.02,0.249-0.07,0.529-0.12,0.81h-0.56v-1.359c0.5-0.16,1.1-0.28,1.689-0.28c1.459,0,1.868,0.67,1.868,1.659v2.698
			c0.24,0.04,0.57,0.08,0.84,0.101v0.539C359.093,71.282,358.403,71.322,357.863,71.292z M357.813,68.993
			c-1.559,0-2.099,0.39-2.099,0.939c0,0.43,0.3,0.739,0.76,0.739c0.799,0,1.339-0.789,1.339-1.568V68.993z"/>
		<path fill="#010101" d="M361.994,71.372c-1.02,0-1.329-0.42-1.329-1.489v-2.858h-1.02v-0.699h1.02v-1.609l0.899-0.25v1.859h1.389
			v0.699h-1.389v2.538c0,0.82,0.159,1.04,0.709,1.04c0.23,0,0.45-0.03,0.63-0.08l0.09,0.739
			C362.703,71.332,362.313,71.372,361.994,71.372z"/>
		<path fill="#010101" d="M363.615,71.292v-0.54c0.26-0.06,0.569-0.109,0.869-0.13v-3.588c-0.239-0.04-0.579-0.08-0.869-0.1v-0.54
			c0.5-0.06,1.189-0.1,1.769-0.069v4.297c0.29,0.021,0.59,0.07,0.84,0.13v0.54H363.615z M364.944,65.334c-0.33,0-0.6-0.25-0.6-0.579
			c0-0.33,0.27-0.59,0.6-0.59c0.319,0,0.59,0.26,0.59,0.59C365.534,65.075,365.264,65.334,364.944,65.334z"/>
		<path fill="#010101" d="M370.723,71.292v-3.198c0-0.699-0.189-1.119-0.839-1.119c-0.82,0-1.42,0.839-1.42,1.938v1.709
			c0.271,0.021,0.56,0.061,0.8,0.13v0.54h-2.568v-0.54c0.26-0.06,0.569-0.109,0.869-0.13v-3.588c-0.239-0.04-0.579-0.08-0.869-0.1
			v-0.54c0.5-0.06,1.189-0.1,1.739-0.069c0,0.289-0.021,0.749-0.07,1.049h0.01c0.29-0.68,0.909-1.14,1.759-1.14
			c1.13,0,1.489,0.71,1.489,1.59v2.798c0.29,0.021,0.59,0.07,0.83,0.13v0.54H370.723z"/>
		<path fill="#010101" d="M375.123,73.85c-1.279,0-2.089-0.529-2.089-1.489c0-0.58,0.38-1.069,0.83-1.319
			c-0.3-0.13-0.49-0.409-0.49-0.739c0-0.35,0.22-0.68,0.55-0.84c-0.449-0.27-0.729-0.72-0.729-1.369c0-0.999,0.75-1.859,2.109-1.859
			c0.27,0,0.449,0.03,0.699,0.091h1.689v0.709h-0.82c0.25,0.2,0.4,0.53,0.4,0.92c0,1.02-0.689,1.799-2.099,1.799
			c-0.2,0-0.351-0.021-0.53-0.07c-0.21,0.101-0.319,0.26-0.319,0.42c0,0.28,0.249,0.37,0.85,0.39l0.909,0.03
			c1.069,0.04,1.669,0.54,1.669,1.439C377.752,73.01,376.683,73.85,375.123,73.85z M375.823,71.272l-0.96-0.04
			c-0.09,0-0.21,0-0.29-0.011c-0.39,0.271-0.64,0.6-0.64,0.979c0,0.59,0.561,0.939,1.34,0.939c1.01,0,1.569-0.459,1.569-1.069
			C376.843,71.591,376.522,71.292,375.823,71.272z M375.264,66.904c-0.75,0-1.18,0.479-1.18,1.109c0,0.689,0.41,1.09,1.149,1.09
			c0.71,0,1.149-0.4,1.149-1.09C376.383,67.333,375.983,66.904,375.264,66.904z"/>
		<path fill="#010101" d="M383.753,71.381c-2.039,0-3.089-1.259-3.089-3.298c0-2.069,1.08-3.618,3.288-3.618
			c0.55,0,1.1,0.08,1.609,0.2v1.648h-0.649c-0.07-0.34-0.1-0.629-0.13-0.909c-0.35-0.09-0.67-0.13-0.989-0.13
			c-1.439,0-2.139,1.159-2.139,2.658c0,1.609,0.729,2.629,2.298,2.629c0.55,0,1.149-0.14,1.569-0.34l0.16,0.77
			C385.132,71.211,384.442,71.381,383.753,71.381z"/>
		<path fill="#010101" d="M390.322,71.292c0-0.3,0.02-0.739,0.069-1.05h-0.02c-0.29,0.68-0.899,1.14-1.749,1.14
			c-1.14,0-1.489-0.71-1.489-1.589v-2.759c-0.24-0.04-0.569-0.08-0.84-0.1v-0.54c0.47-0.06,1.149-0.1,1.729-0.069v3.198
			c0,0.699,0.199,1.119,0.85,1.119c0.819,0,1.419-0.84,1.419-1.939v-1.679c-0.229-0.03-0.54-0.07-0.81-0.09v-0.54
			c0.489-0.06,1.149-0.1,1.699-0.069v4.257c0.239,0.04,0.569,0.08,0.84,0.101v0.539C391.551,71.282,390.861,71.322,390.322,71.292z"
			/>
		<path fill="#010101" d="M395.913,67.124c-1.14-0.189-1.649,0.58-1.649,2.169v1.329c0.3,0.021,0.61,0.07,0.87,0.13v0.54h-2.639
			v-0.54c0.26-0.06,0.569-0.109,0.869-0.13v-3.588c-0.239-0.04-0.579-0.08-0.869-0.1v-0.54c0.5-0.06,1.189-0.1,1.739-0.069
			c0,0.31-0.03,0.77-0.101,1.179h0.01c0.221-0.689,0.72-1.379,1.81-1.27L395.913,67.124z"/>
		<path fill="#010101" d="M399.833,67.124c-1.14-0.189-1.649,0.58-1.649,2.169v1.329c0.3,0.021,0.61,0.07,0.87,0.13v0.54h-2.639
			v-0.54c0.26-0.06,0.569-0.109,0.869-0.13v-3.588c-0.239-0.04-0.579-0.08-0.869-0.1v-0.54c0.5-0.06,1.189-0.1,1.739-0.069
			c0,0.31-0.03,0.77-0.101,1.179h0.01c0.221-0.689,0.72-1.379,1.81-1.27L399.833,67.124z"/>
		<path fill="#010101" d="M404.633,68.792h-3.249c-0.04,1.3,0.49,1.859,1.569,1.859c0.479,0,0.979-0.1,1.419-0.29l0.131,0.71
			c-0.5,0.2-1.1,0.31-1.72,0.31c-1.509,0-2.328-0.8-2.328-2.549c0-1.479,0.829-2.599,2.238-2.599c1.39,0,1.969,0.93,1.969,2.039
			C404.662,68.393,404.652,68.593,404.633,68.792z M402.634,66.914c-0.65,0-1.109,0.48-1.22,1.239h2.329
			C403.763,67.394,403.333,66.914,402.634,66.914z"/>
		<path fill="#010101" d="M409.442,71.292v-3.198c0-0.699-0.189-1.119-0.839-1.119c-0.82,0-1.42,0.839-1.42,1.938v1.709
			c0.271,0.021,0.56,0.061,0.8,0.13v0.54h-2.568v-0.54c0.26-0.06,0.569-0.109,0.869-0.13v-3.588c-0.239-0.04-0.579-0.08-0.869-0.1
			v-0.54c0.5-0.06,1.189-0.1,1.739-0.069c0,0.289-0.021,0.749-0.07,1.049h0.01c0.29-0.68,0.91-1.14,1.759-1.14
			c1.13,0,1.489,0.71,1.489,1.59v2.798c0.29,0.021,0.59,0.07,0.83,0.13v0.54H409.442z"/>
		<path fill="#010101" d="M413.634,71.372c-1.02,0-1.329-0.42-1.329-1.489v-2.858h-1.02v-0.699h1.02v-1.609l0.899-0.25v1.859h1.389
			v0.699h-1.389v2.538c0,0.82,0.159,1.04,0.709,1.04c0.23,0,0.45-0.03,0.63-0.08l0.09,0.739
			C414.343,71.332,413.953,71.372,413.634,71.372z"/>
		<path fill="#010101" d="M419.304,73.38c-1.18-1.869-1.46-3.458-1.46-4.928c0-1.459,0.34-3.178,1.47-4.967l0.649,0.31
			c-0.81,1.39-1.239,2.979-1.239,4.607c0,1.709,0.41,3.238,1.249,4.647L419.304,73.38z"/>
		<path fill="#010101" d="M424.602,71.292v-0.54c0.239-0.05,0.52-0.1,0.779-0.119l-0.39-1.109h-2.818l-0.39,1.109
			c0.26,0.02,0.55,0.069,0.789,0.119v0.54h-2.339v-0.54c0.181-0.05,0.43-0.1,0.61-0.109l2.219-6.097h1.119l2.229,6.097
			c0.18,0.01,0.43,0.06,0.61,0.109v0.54H424.602z M423.901,66.404c-0.119-0.35-0.22-0.649-0.31-0.979h-0.02
			c-0.08,0.32-0.181,0.63-0.29,0.97l-0.87,2.398h2.35L423.901,66.404z"/>
		<path fill="#010101" d="M430.482,71.381c-2.039,0-3.089-1.259-3.089-3.298c0-2.069,1.08-3.618,3.288-3.618
			c0.55,0,1.1,0.08,1.609,0.2v1.648h-0.649c-0.07-0.34-0.1-0.629-0.13-0.909c-0.35-0.09-0.67-0.13-0.989-0.13
			c-1.439,0-2.139,1.159-2.139,2.658c0,1.609,0.729,2.629,2.298,2.629c0.55,0,1.149-0.14,1.569-0.34l0.16,0.77
			C431.861,71.211,431.172,71.381,430.482,71.381z"/>
		<path fill="#010101" d="M433.753,73.38l-0.649-0.32c0.819-1.389,1.239-2.978,1.239-4.597c0-1.709-0.409-3.238-1.249-4.658
			l0.68-0.319c1.169,1.859,1.449,3.448,1.449,4.917C435.223,69.862,434.893,71.582,433.753,73.38z"/>
	</g>
</g>
<line fill="none" stroke="#CDCCCC" stroke-width="0.5" x1="327.38" y1="5.089" x2="327.38" y2="31.636"/>
<line fill="none" stroke="#CDCCCC" stroke-width="0.5" x1="327.38" y1="31.279" x2="327.38" y2="57.826"/>
<g>
	<path fill="none" stroke="#010101" stroke-width="0.5" stroke-linecap="round" d="M327.38,31.458
		c15.145,26.279,23.251,26.279,26.19,26.279"/>
	<path fill="none" stroke="#010101" stroke-width="0.5" stroke-linecap="round" d="M353.481,57.648
		c1.96,0,10.957,0.623,26.457-26.369C395.083,5,403.189,5,406.129,5"/>
	<path fill="none" stroke="#010101" stroke-width="0.5" stroke-linecap="round" d="M511.426,5.089
		c-1.96,0-10.958-0.624-26.458,26.369c-15.145,26.279-23.251,26.279-26.19,26.279"/>
	<path fill="none" stroke="#010101" stroke-width="0.5" stroke-linecap="round" d="M458.777,57.648
		c-1.96,0-10.957,0.623-26.458-26.369C417.176,5,409.069,5.089,406.129,5.089"/>
</g>
<g>
	<g enable-background="new    ">
		<path d="M320.968,34.32c-1.093,0-2.115-0.656-2.115-2.684c0-1.766,1.022-2.719,2.229-2.719c1.084,0,2.115,0.647,2.115,2.667
			C323.197,33.367,322.175,34.32,320.968,34.32z M321.021,29.372c-0.813,0-1.574,0.717-1.574,2.204c0,1.539,0.604,2.282,1.583,2.282
			c0.822,0,1.574-0.708,1.574-2.194C322.604,30.132,322,29.372,321.021,29.372z"/>
	</g>
</g>
<g>
	<g enable-background="new    ">
		<path d="M38.391,42.484v0.666l-6.077,2.161v-0.667l4.168-1.422c0.369-0.126,0.855-0.297,1.314-0.433v-0.009
			c-0.441-0.117-0.9-0.288-1.359-0.45l-4.123-1.467v-0.612L38.391,42.484z"/>
		<path d="M38.472,37.471c0,1.197-0.738,2.043-2.305,2.043c-1.251,0-2.332-0.837-2.332-2.206c0-1.053,0.585-2.044,2.25-2.044
			C37.392,35.265,38.472,36.139,38.472,37.471z M34.304,37.381c0,0.774,0.567,1.54,1.819,1.54c1.188,0,1.873-0.594,1.873-1.548
			c0-0.774-0.567-1.521-1.882-1.521C34.988,35.851,34.304,36.409,34.304,37.381z"/>
		<path d="M32.27,32.188v1.693h-0.45v-2.26h6.113v-1.692h0.459v3.952h-0.459v-1.693H32.27z"/>
		<path d="M38.463,25.933c0,0.864-0.441,1.485-1.494,1.485h-2.593v1.503h-0.459v-1.503h-1.513l-0.153-0.567h1.666V24.79h0.459v2.062
			h2.395c0.882,0,1.197-0.45,1.197-1.071c0-0.306-0.036-0.702-0.117-0.981l0.477-0.063C38.418,25.087,38.463,25.582,38.463,25.933z"
			/>
		<path d="M38.472,21.416c0,0.603-0.072,1.161-0.234,1.575l-0.567-0.117c0.207-0.415,0.333-0.937,0.333-1.558
			c0-0.612-0.252-1.251-0.792-1.251c-1.243,0-0.468,2.818-2.116,2.818c-0.702,0-1.27-0.612-1.27-1.792
			c0-0.468,0.072-0.963,0.162-1.323l0.486,0.09c-0.144,0.432-0.207,0.855-0.207,1.296c0,0.765,0.333,1.134,0.747,1.134
			c1.179,0,0.45-2.827,2.116-2.827C38.049,19.462,38.472,20.434,38.472,21.416z"/>
	</g>
</g>
<g>
	<g enable-background="new    ">
		<path d="M46.141,34.32c-1.093,0-2.116-0.656-2.116-2.684c0-1.766,1.023-2.719,2.229-2.719c1.084,0,2.116,0.647,2.116,2.667
			C48.37,33.367,47.347,34.32,46.141,34.32z M46.193,29.372c-0.813,0-1.574,0.717-1.574,2.204c0,1.539,0.603,2.282,1.583,2.282
			c0.822,0,1.574-0.708,1.574-2.194C47.775,30.132,47.172,29.372,46.193,29.372z"/>
	</g>
</g>
</svg>
