<?xml version="1.0" encoding="utf-8"?>
<!-- Generator: Adobe Illustrator 18.0.0, SVG Export Plug-In . SVG Version: 6.00 Build 0)  -->
<!DOCTYPE svg PUBLIC "-//W3C//DTD SVG 1.1//EN" "http://www.w3.org/Graphics/SVG/1.1/DTD/svg11.dtd">
<svg version="1.1" id="Layer_1" xmlns="http://www.w3.org/2000/svg" xmlns:xlink="http://www.w3.org/1999/xlink" x="0px" y="0px"
	 viewBox="0 0 687 100" enable-background="new 0 0 687 100" xml:space="preserve">
<line fill="none" stroke="#020202" stroke-width="0.5" stroke-linecap="round" x1="79.2" y1="22.2" x2="315.5" y2="22.2"/>
<line fill="none" stroke="#CECCCC" stroke-width="0.5" x1="79.2" y1="10.5" x2="79.2" y2="40.3"/>
<path fill="none" stroke="#020202" stroke-width="0.1172" d="M315.4,69.9"/>
<path fill="none" stroke="#020202" stroke-width="0.1172" d="M315.4,10.5"/>
<line fill="none" stroke="#CECCCC" stroke-width="0.5" x1="79.3" y1="39.9" x2="315.4" y2="39.9"/>
<g>
	<text transform="matrix(1 0 0 1 289.7309 52.8428)" fill="#010101" font-family="'TheSansMono-W3Light'" font-size="9.8199">Time</text>
</g>
<g>
	<text transform="matrix(1 0 0 1 77.5365 84.8154)" fill="#020202" font-family="'TheSerif-HP5Plain'" font-size="11.4565">Direct Current (DC)</text>
</g>
<line fill="none" stroke="#CECCCC" stroke-width="0.5" x1="79.2" y1="10.5" x2="79.2" y2="40.3"/>
<line fill="none" stroke="#CECCCC" stroke-width="0.5" x1="79.2" y1="39.4" x2="79.2" y2="69.2"/>
<line fill="none" stroke="#CECCCC" stroke-width="0.5" x1="387.5" y1="10.5" x2="387.5" y2="40.3"/>
<path fill="none" stroke="#020202" stroke-width="0.1172" d="M623.7,69.9"/>
<path fill="none" stroke="#020202" stroke-width="0.1172" d="M623.7,10.5"/>
<line fill="none" stroke="#CECCCC" stroke-width="0.5" x1="387.5" y1="39.9" x2="623.7" y2="39.9"/>
<g>
	<path fill="none" stroke="#020202" stroke-width="0.5" d="M594.2,10.5c2.2,0,12.3-0.7,29.7,29.6"/>
</g>
<g>
	<text transform="matrix(1 0 0 1 597.9662 52.8428)" fill="#010101" font-family="'TheSansMono-W3Light'" font-size="9.8199">Time</text>
</g>
<g>
	<text transform="matrix(0 -1 1 0 371.5961 55.8535)" fill="#010101" font-family="'TheSansMono-W3Light'" font-size="9.8199">Volts</text>
</g>
<g>
	<text transform="matrix(1 0 0 1 385.7719 84.8154)" fill="#020202" font-family="'TheSerif-HP5Plain'" font-size="11.4565">Alternating Current (AC)</text>
</g>
<line fill="none" stroke="#CECCCC" stroke-width="0.5" x1="387.5" y1="10.5" x2="387.5" y2="40.3"/>
<line fill="none" stroke="#CECCCC" stroke-width="0.5" x1="387.5" y1="39.9" x2="387.5" y2="69.7"/>
<g>
	<path fill="none" stroke="#020202" stroke-width="0.5" stroke-linecap="round" d="M387.5,40.1c17,29.5,26.1,29.5,29.4,29.5"/>
	<path fill="none" stroke="#020202" stroke-width="0.5" stroke-linecap="round" d="M416.8,69.5c2.2,0,12.3,0.7,29.7-29.6
		c17-29.5,26.1-29.5,29.4-29.5"/>
	<path fill="none" stroke="#020202" stroke-width="0.5" stroke-linecap="round" d="M594.1,10.5c-2.2,0-12.3-0.7-29.7,29.6
		c-17,29.5-26.1,29.5-29.4,29.5"/>
	<path fill="none" stroke="#020202" stroke-width="0.5" stroke-linecap="round" d="M535,69.5c-2.2,0-12.3,0.7-29.7-29.6
		c-17-29.5-26.1-29.4-29.4-29.4"/>
</g>
<g>
	<text transform="matrix(1 0 0 1 377.4213 43.2256)" fill="#010101" font-family="'TheSansMono-W3Light'" font-size="9.8199">0</text>
</g>
<g>
	<text transform="matrix(0 -1 1 0 63.0902 55.8535)" fill="#010101" font-family="'TheSansMono-W3Light'" font-size="9.8199">Volts</text>
</g>
<g>
	<text transform="matrix(1 0 0 1 68.9135 43.2256)" fill="#010101" font-family="'TheSansMono-W3Light'" font-size="9.8199">0</text>
</g>
</svg>
