<?xml version="1.0" encoding="utf-8"?>
<!-- Generator: Adobe Illustrator 18.0.0, SVG Export Plug-In . SVG Version: 6.00 Build 0)  -->
<!DOCTYPE svg PUBLIC "-//W3C//DTD SVG 1.1//EN" "http://www.w3.org/Graphics/SVG/1.1/DTD/svg11.dtd">
<svg version="1.1" id="Layer_1" xmlns="http://www.w3.org/2000/svg" xmlns:xlink="http://www.w3.org/1999/xlink" x="0px" y="0px"
	 viewBox="0 0 687 100" enable-background="new 0 0 687 100" xml:space="preserve">
<line fill="none" stroke="#010101" stroke-width="0.5" stroke-linecap="round" x1="59.2" y1="21.2" x2="295.5" y2="21.2"/>
<line fill="none" stroke="#CDCCCC" stroke-width="0.5" x1="59.2" y1="9.5" x2="59.2" y2="39.3"/>
<path fill="none" stroke="#010101" stroke-width="0.1172" d="M295.4,68.9"/>
<path fill="none" stroke="#010101" stroke-width="0.1172" d="M295.4,9.5"/>
<line fill="none" stroke="#CDCCCC" stroke-width="0.5" x1="59.3" y1="38.9" x2="295.4" y2="38.9"/>
<g>
	<text transform="matrix(1 0 0 1 269.7366 51.8428)" font-family="'TheSansMono-W3Light'" font-size="9.8199">Time</text>
</g>
<g>
	<text transform="matrix(1 0 0 1 57.5423 83.8154)" fill="#010101" font-family="'TheSerif-HP5Plain'" font-size="11.4565">Direct Current (DC)</text>
</g>
<line fill="none" stroke="#CDCCCC" stroke-width="0.5" x1="59.2" y1="9.5" x2="59.2" y2="39.3"/>
<line fill="none" stroke="#CDCCCC" stroke-width="0.5" x1="59.2" y1="38.4" x2="59.2" y2="68.2"/>
<line fill="none" stroke="#CDCCCC" stroke-width="0.5" x1="367.5" y1="9.5" x2="367.5" y2="39.3"/>
<path fill="none" stroke="#010101" stroke-width="0.1172" d="M603.7,68.9"/>
<path fill="none" stroke="#010101" stroke-width="0.1172" d="M603.7,9.5"/>
<line fill="none" stroke="#CDCCCC" stroke-width="0.5" x1="367.5" y1="38.9" x2="603.7" y2="38.9"/>
<g>
	<path fill="none" stroke="#010101" stroke-width="0.5" d="M574.2,9.5c2.2,0,12.3-0.7,29.7,29.6"/>
</g>
<g>
	<text transform="matrix(1 0 0 1 577.9719 51.8428)" font-family="'TheSansMono-W3Light'" font-size="9.8199">Time</text>
</g>
<g>
	<text transform="matrix(0 -1 1 0 351.6018 54.8535)" font-family="'TheSansMono-W3Light'" font-size="9.8199">Volts</text>
</g>
<g>
	<text transform="matrix(1 0 0 1 365.7776 83.8154)" fill="#010101" font-family="'TheSerif-HP5Plain'" font-size="11.4565">Alternating Current (AC)</text>
</g>
<line fill="none" stroke="#CDCCCC" stroke-width="0.5" x1="367.5" y1="9.5" x2="367.5" y2="39.3"/>
<line fill="none" stroke="#CDCCCC" stroke-width="0.5" x1="367.5" y1="38.9" x2="367.5" y2="68.7"/>
<g>
	<path fill="none" stroke="#010101" stroke-width="0.5" stroke-linecap="round" d="M367.5,39.1c17,29.5,26.1,29.5,29.4,29.5"/>
	<path fill="none" stroke="#010101" stroke-width="0.5" stroke-linecap="round" d="M396.8,68.5c2.2,0,12.3,0.7,29.7-29.6
		c17-29.5,26.1-29.5,29.4-29.5"/>
	<path fill="none" stroke="#010101" stroke-width="0.5" stroke-linecap="round" d="M574.1,9.5c-2.2,0-12.3-0.7-29.7,29.6
		c-17,29.5-26.1,29.5-29.4,29.5"/>
	<path fill="none" stroke="#010101" stroke-width="0.5" stroke-linecap="round" d="M515,68.5c-2.2,0-12.3,0.7-29.7-29.6
		c-17-29.5-26.1-29.4-29.4-29.4"/>
</g>
<g>
	<text transform="matrix(1 0 0 1 357.427 42.2256)" font-family="'TheSansMono-W3Light'" font-size="9.8199">0</text>
</g>
<g>
	<text transform="matrix(0 -1 1 0 43.096 54.8535)" font-family="'TheSansMono-W3Light'" font-size="9.8199">Volts</text>
</g>
<g>
	<text transform="matrix(1 0 0 1 48.9192 42.2256)" font-family="'TheSansMono-W3Light'" font-size="9.8199">0</text>
</g>
</svg>
