<?xml version="1.0" encoding="utf-8"?>
<!-- Generator: Adobe Illustrator 18.0.0, SVG Export Plug-In . SVG Version: 6.00 Build 0)  -->
<!DOCTYPE svg PUBLIC "-//W3C//DTD SVG 1.1//EN" "http://www.w3.org/Graphics/SVG/1.1/DTD/svg11.dtd">
<svg version="1.1" id="Layer_1" xmlns="http://www.w3.org/2000/svg" xmlns:xlink="http://www.w3.org/1999/xlink" x="0px" y="0px"
	 viewBox="0 0 687 220" enable-background="new 0 0 687 220" xml:space="preserve">
<g>
	<g>
		<rect x="311.6" y="97.9" fill="none" stroke="#CCCCCC" stroke-width="0.5" width="2.7" height="2.7"/>
		<rect x="311.6" y="105.1" fill="none" stroke="#CCCCCC" stroke-width="0.5" width="2.7" height="2.7"/>
		<rect x="311.6" y="112.3" fill="none" stroke="#CCCCCC" stroke-width="0.5" width="2.7" height="2.7"/>
		<rect x="311.6" y="119.5" fill="none" stroke="#CCCCCC" stroke-width="0.5" width="2.7" height="2.7"/>
		<rect x="311.6" y="126.7" fill="none" stroke="#CCCCCC" stroke-width="0.5" width="2.7" height="2.7"/>
	</g>
	<g>
		<rect x="318.9" y="97.9" fill="none" stroke="#CCCCCC" stroke-width="0.5" width="2.7" height="2.7"/>
		<rect x="318.9" y="105.1" fill="none" stroke="#CCCCCC" stroke-width="0.5" width="2.7" height="2.7"/>
		<rect x="318.9" y="112.3" fill="none" stroke="#CCCCCC" stroke-width="0.5" width="2.7" height="2.7"/>
		<rect x="318.9" y="119.5" fill="none" stroke="#CCCCCC" stroke-width="0.5" width="2.7" height="2.7"/>
		<rect x="318.9" y="126.7" fill="none" stroke="#CCCCCC" stroke-width="0.5" width="2.7" height="2.7"/>
	</g>
	<g>
		<rect x="326.3" y="97.9" fill="none" stroke="#CCCCCC" stroke-width="0.5" width="2.7" height="2.7"/>
		<rect x="326.3" y="105.1" fill="none" stroke="#CCCCCC" stroke-width="0.5" width="2.7" height="2.7"/>
		<rect x="326.3" y="112.3" fill="none" stroke="#CCCCCC" stroke-width="0.5" width="2.7" height="2.7"/>
		<rect x="326.3" y="119.5" fill="none" stroke="#CCCCCC" stroke-width="0.5" width="2.7" height="2.7"/>
		<rect x="326.3" y="126.7" fill="none" stroke="#CCCCCC" stroke-width="0.5" width="2.7" height="2.7"/>
	</g>
	<g>
		<rect x="333.6" y="97.9" fill="none" stroke="#CCCCCC" stroke-width="0.5" width="2.7" height="2.7"/>
		<rect x="333.6" y="105.1" fill="none" stroke="#CCCCCC" stroke-width="0.5" width="2.7" height="2.7"/>
		<rect x="333.6" y="112.3" fill="none" stroke="#CCCCCC" stroke-width="0.5" width="2.7" height="2.7"/>
		<rect x="333.6" y="119.5" fill="none" stroke="#CCCCCC" stroke-width="0.5" width="2.7" height="2.7"/>
		<rect x="333.6" y="126.7" fill="none" stroke="#CCCCCC" stroke-width="0.5" width="2.7" height="2.7"/>
	</g>
	<g>
		<rect x="341" y="97.9" fill="none" stroke="#CCCCCC" stroke-width="0.5" width="2.7" height="2.7"/>
		<rect x="341" y="105.1" fill="none" stroke="#CCCCCC" stroke-width="0.5" width="2.7" height="2.7"/>
		<rect x="341" y="112.3" fill="none" stroke="#CCCCCC" stroke-width="0.5" width="2.7" height="2.7"/>
		<rect x="341" y="119.5" fill="none" stroke="#CCCCCC" stroke-width="0.5" width="2.7" height="2.7"/>
		<rect x="341" y="126.7" fill="none" stroke="#CCCCCC" stroke-width="0.5" width="2.7" height="2.7"/>
	</g>
	<g>
		<rect x="348.3" y="97.9" fill="none" stroke="#CCCCCC" stroke-width="0.5" width="2.7" height="2.7"/>
		<rect x="348.3" y="105.1" fill="none" stroke="#CCCCCC" stroke-width="0.5" width="2.7" height="2.7"/>
		<rect x="348.3" y="112.3" fill="none" stroke="#CCCCCC" stroke-width="0.5" width="2.7" height="2.7"/>
		<rect x="348.3" y="119.5" fill="none" stroke="#CCCCCC" stroke-width="0.5" width="2.7" height="2.7"/>
		<rect x="348.3" y="126.7" fill="none" stroke="#CCCCCC" stroke-width="0.5" width="2.7" height="2.7"/>
	</g>
	<g>
		<rect x="355.7" y="97.9" fill="none" stroke="#CCCCCC" stroke-width="0.5" width="2.7" height="2.7"/>
		<rect x="355.7" y="105.1" fill="none" stroke="#CCCCCC" stroke-width="0.5" width="2.7" height="2.7"/>
		<rect x="355.7" y="112.3" fill="none" stroke="#CCCCCC" stroke-width="0.5" width="2.7" height="2.7"/>
		<rect x="355.7" y="119.5" fill="none" stroke="#CCCCCC" stroke-width="0.5" width="2.7" height="2.7"/>
		<rect x="355.7" y="126.7" fill="none" stroke="#CCCCCC" stroke-width="0.5" width="2.7" height="2.7"/>
	</g>
	<g>
		<rect x="363" y="97.9" fill="none" stroke="#CCCCCC" stroke-width="0.5" width="2.7" height="2.7"/>
		<rect x="363" y="105.1" fill="none" stroke="#CCCCCC" stroke-width="0.5" width="2.7" height="2.7"/>
		<rect x="363" y="112.3" fill="none" stroke="#CCCCCC" stroke-width="0.5" width="2.7" height="2.7"/>
		<rect x="363" y="119.5" fill="none" stroke="#CCCCCC" stroke-width="0.5" width="2.7" height="2.7"/>
		<rect x="363" y="126.7" fill="none" stroke="#CCCCCC" stroke-width="0.5" width="2.7" height="2.7"/>
	</g>
	<g>
		<rect x="370.4" y="97.9" fill="none" stroke="#CCCCCC" stroke-width="0.5" width="2.7" height="2.7"/>
		<rect x="370.4" y="105.1" fill="none" stroke="#CCCCCC" stroke-width="0.5" width="2.7" height="2.7"/>
		<rect x="370.4" y="112.3" fill="none" stroke="#CCCCCC" stroke-width="0.5" width="2.7" height="2.7"/>
		<rect x="370.4" y="119.5" fill="none" stroke="#CCCCCC" stroke-width="0.5" width="2.7" height="2.7"/>
		<rect x="370.4" y="126.7" fill="none" stroke="#CCCCCC" stroke-width="0.5" width="2.7" height="2.7"/>
	</g>
	<g>
		<rect x="377.7" y="97.9" fill="none" stroke="#CCCCCC" stroke-width="0.5" width="2.7" height="2.7"/>
		<rect x="377.7" y="105.1" fill="none" stroke="#CCCCCC" stroke-width="0.5" width="2.7" height="2.7"/>
		<rect x="377.7" y="112.3" fill="none" stroke="#CCCCCC" stroke-width="0.5" width="2.7" height="2.7"/>
		<rect x="377.7" y="119.5" fill="none" stroke="#CCCCCC" stroke-width="0.5" width="2.7" height="2.7"/>
		<rect x="377.7" y="126.7" fill="none" stroke="#CCCCCC" stroke-width="0.5" width="2.7" height="2.7"/>
	</g>
	<g>
		<rect x="385.1" y="97.9" fill="none" stroke="#CCCCCC" stroke-width="0.5" width="2.7" height="2.7"/>
		<rect x="385.1" y="105.1" fill="none" stroke="#CCCCCC" stroke-width="0.5" width="2.7" height="2.7"/>
		<rect x="385.1" y="112.3" fill="none" stroke="#CCCCCC" stroke-width="0.5" width="2.7" height="2.7"/>
		<rect x="385.1" y="119.5" fill="none" stroke="#CCCCCC" stroke-width="0.5" width="2.7" height="2.7"/>
		<rect x="385.1" y="126.7" fill="none" stroke="#CCCCCC" stroke-width="0.5" width="2.7" height="2.7"/>
	</g>
	<g>
		<rect x="392.4" y="97.9" fill="none" stroke="#CCCCCC" stroke-width="0.5" width="2.7" height="2.7"/>
		<rect x="392.4" y="105.1" fill="none" stroke="#CCCCCC" stroke-width="0.5" width="2.7" height="2.7"/>
		<rect x="392.4" y="112.3" fill="none" stroke="#CCCCCC" stroke-width="0.5" width="2.7" height="2.7"/>
		<rect x="392.4" y="119.5" fill="none" stroke="#CCCCCC" stroke-width="0.5" width="2.7" height="2.7"/>
		<rect x="392.4" y="126.7" fill="none" stroke="#CCCCCC" stroke-width="0.5" width="2.7" height="2.7"/>
	</g>
	<g>
		<rect x="399.8" y="97.9" fill="none" stroke="#CCCCCC" stroke-width="0.5" width="2.7" height="2.7"/>
		<rect x="399.8" y="105.1" fill="none" stroke="#CCCCCC" stroke-width="0.5" width="2.7" height="2.7"/>
		<rect x="399.8" y="112.3" fill="none" stroke="#CCCCCC" stroke-width="0.5" width="2.7" height="2.7"/>
		<rect x="399.8" y="119.5" fill="none" stroke="#CCCCCC" stroke-width="0.5" width="2.7" height="2.7"/>
		<rect x="399.8" y="126.7" fill="none" stroke="#CCCCCC" stroke-width="0.5" width="2.7" height="2.7"/>
	</g>
	<g>
		<rect x="407.2" y="97.9" fill="none" stroke="#CCCCCC" stroke-width="0.5" width="2.7" height="2.7"/>
		<rect x="407.2" y="105.1" fill="none" stroke="#CCCCCC" stroke-width="0.5" width="2.7" height="2.7"/>
		<rect x="407.2" y="112.3" fill="none" stroke="#CCCCCC" stroke-width="0.5" width="2.7" height="2.7"/>
		<rect x="407.2" y="119.5" fill="none" stroke="#CCCCCC" stroke-width="0.5" width="2.7" height="2.7"/>
		<rect x="407.2" y="126.7" fill="none" stroke="#CCCCCC" stroke-width="0.5" width="2.7" height="2.7"/>
	</g>
	<g>
		<rect x="414.5" y="97.9" fill="none" stroke="#CCCCCC" stroke-width="0.5" width="2.7" height="2.7"/>
		<rect x="414.5" y="105.1" fill="none" stroke="#CCCCCC" stroke-width="0.5" width="2.7" height="2.7"/>
		<rect x="414.5" y="112.3" fill="none" stroke="#CCCCCC" stroke-width="0.5" width="2.7" height="2.7"/>
		<rect x="414.5" y="119.5" fill="none" stroke="#CCCCCC" stroke-width="0.5" width="2.7" height="2.7"/>
		<rect x="414.5" y="126.7" fill="none" stroke="#CCCCCC" stroke-width="0.5" width="2.7" height="2.7"/>
	</g>
	<g>
		<rect x="421.9" y="97.9" fill="none" stroke="#CCCCCC" stroke-width="0.5" width="2.7" height="2.7"/>
		<rect x="421.9" y="105.1" fill="none" stroke="#CCCCCC" stroke-width="0.5" width="2.7" height="2.7"/>
		<rect x="421.9" y="112.3" fill="none" stroke="#CCCCCC" stroke-width="0.5" width="2.7" height="2.7"/>
		<rect x="421.9" y="119.5" fill="none" stroke="#CCCCCC" stroke-width="0.5" width="2.7" height="2.7"/>
		<rect x="421.9" y="126.7" fill="none" stroke="#CCCCCC" stroke-width="0.5" width="2.7" height="2.7"/>
	</g>
	<g>
		<rect x="429.2" y="97.9" fill="none" stroke="#CCCCCC" stroke-width="0.5" width="2.7" height="2.7"/>
		<rect x="429.2" y="105.1" fill="none" stroke="#CCCCCC" stroke-width="0.5" width="2.7" height="2.7"/>
		<rect x="429.2" y="112.3" fill="none" stroke="#CCCCCC" stroke-width="0.5" width="2.7" height="2.7"/>
		<rect x="429.2" y="119.5" fill="none" stroke="#CCCCCC" stroke-width="0.5" width="2.7" height="2.7"/>
		<rect x="429.2" y="126.7" fill="none" stroke="#CCCCCC" stroke-width="0.5" width="2.7" height="2.7"/>
	</g>
	<g>
		<rect x="436.6" y="97.9" fill="none" stroke="#CCCCCC" stroke-width="0.5" width="2.7" height="2.7"/>
		<rect x="436.6" y="105.1" fill="none" stroke="#CCCCCC" stroke-width="0.5" width="2.7" height="2.7"/>
		<rect x="436.6" y="112.3" fill="none" stroke="#CCCCCC" stroke-width="0.5" width="2.7" height="2.7"/>
		<rect x="436.6" y="119.5" fill="none" stroke="#CCCCCC" stroke-width="0.5" width="2.7" height="2.7"/>
		<rect x="436.6" y="126.7" fill="none" stroke="#CCCCCC" stroke-width="0.5" width="2.7" height="2.7"/>
	</g>
	<g>
		<rect x="443.9" y="97.9" fill="none" stroke="#CCCCCC" stroke-width="0.5" width="2.7" height="2.7"/>
		<rect x="443.9" y="105.1" fill="none" stroke="#CCCCCC" stroke-width="0.5" width="2.7" height="2.7"/>
		<rect x="443.9" y="112.3" fill="none" stroke="#CCCCCC" stroke-width="0.5" width="2.7" height="2.7"/>
		<rect x="443.9" y="119.5" fill="none" stroke="#CCCCCC" stroke-width="0.5" width="2.7" height="2.7"/>
		<rect x="443.9" y="126.7" fill="none" stroke="#CCCCCC" stroke-width="0.5" width="2.7" height="2.7"/>
	</g>
	<g>
		<rect x="451.3" y="97.9" fill="none" stroke="#CCCCCC" stroke-width="0.5" width="2.7" height="2.7"/>
		<rect x="451.3" y="105.1" fill="none" stroke="#CCCCCC" stroke-width="0.5" width="2.7" height="2.7"/>
		<rect x="451.3" y="112.3" fill="none" stroke="#CCCCCC" stroke-width="0.5" width="2.7" height="2.7"/>
		<rect x="451.3" y="119.5" fill="none" stroke="#CCCCCC" stroke-width="0.5" width="2.7" height="2.7"/>
		<rect x="451.3" y="126.7" fill="none" stroke="#CCCCCC" stroke-width="0.5" width="2.7" height="2.7"/>
	</g>
	<g>
		<rect x="458.6" y="97.9" fill="none" stroke="#CCCCCC" stroke-width="0.5" width="2.7" height="2.7"/>
		<rect x="458.6" y="105.1" fill="none" stroke="#CCCCCC" stroke-width="0.5" width="2.7" height="2.7"/>
		<rect x="458.6" y="112.3" fill="none" stroke="#CCCCCC" stroke-width="0.5" width="2.7" height="2.7"/>
		<rect x="458.6" y="119.5" fill="none" stroke="#CCCCCC" stroke-width="0.5" width="2.7" height="2.7"/>
		<rect x="458.6" y="126.7" fill="none" stroke="#CCCCCC" stroke-width="0.5" width="2.7" height="2.7"/>
	</g>
	<g>
		<rect x="466" y="97.9" fill="none" stroke="#CCCCCC" stroke-width="0.5" width="2.7" height="2.7"/>
		<rect x="466" y="105.1" fill="none" stroke="#CCCCCC" stroke-width="0.5" width="2.7" height="2.7"/>
		<rect x="466" y="112.3" fill="none" stroke="#CCCCCC" stroke-width="0.5" width="2.7" height="2.7"/>
		<rect x="466" y="119.5" fill="none" stroke="#CCCCCC" stroke-width="0.5" width="2.7" height="2.7"/>
		<rect x="466" y="126.7" fill="none" stroke="#CCCCCC" stroke-width="0.5" width="2.7" height="2.7"/>
	</g>
	<g>
		<rect x="473.3" y="97.9" fill="none" stroke="#CCCCCC" stroke-width="0.5" width="2.7" height="2.7"/>
		<rect x="473.3" y="105.1" fill="none" stroke="#CCCCCC" stroke-width="0.5" width="2.7" height="2.7"/>
		<rect x="473.3" y="112.3" fill="none" stroke="#CCCCCC" stroke-width="0.5" width="2.7" height="2.7"/>
		<rect x="473.3" y="119.5" fill="none" stroke="#CCCCCC" stroke-width="0.5" width="2.7" height="2.7"/>
		<rect x="473.3" y="126.7" fill="none" stroke="#CCCCCC" stroke-width="0.5" width="2.7" height="2.7"/>
	</g>
	<g>
		<rect x="282.2" y="97.9" fill="none" stroke="#CCCCCC" stroke-width="0.5" width="2.7" height="2.7"/>
		<rect x="282.2" y="105.1" fill="none" stroke="#CCCCCC" stroke-width="0.5" width="2.7" height="2.7"/>
		<rect x="282.2" y="112.3" fill="none" stroke="#CCCCCC" stroke-width="0.5" width="2.7" height="2.7"/>
		<rect x="282.2" y="119.5" fill="none" stroke="#CCCCCC" stroke-width="0.5" width="2.7" height="2.7"/>
		<rect x="282.2" y="126.7" fill="none" stroke="#CCCCCC" stroke-width="0.5" width="2.7" height="2.7"/>
	</g>
	<g>
		<rect x="289.5" y="97.9" fill="none" stroke="#CCCCCC" stroke-width="0.5" width="2.7" height="2.7"/>
		<rect x="289.5" y="105.1" fill="none" stroke="#CCCCCC" stroke-width="0.5" width="2.7" height="2.7"/>
		<rect x="289.5" y="112.3" fill="none" stroke="#CCCCCC" stroke-width="0.5" width="2.7" height="2.7"/>
		<rect x="289.5" y="119.5" fill="none" stroke="#CCCCCC" stroke-width="0.5" width="2.7" height="2.7"/>
		<rect x="289.5" y="126.7" fill="none" stroke="#CCCCCC" stroke-width="0.5" width="2.7" height="2.7"/>
	</g>
	<g>
		<rect x="296.9" y="97.9" fill="none" stroke="#CCCCCC" stroke-width="0.5" width="2.7" height="2.7"/>
		<rect x="296.9" y="105.1" fill="none" stroke="#CCCCCC" stroke-width="0.5" width="2.7" height="2.7"/>
		<rect x="296.9" y="112.3" fill="none" stroke="#CCCCCC" stroke-width="0.5" width="2.7" height="2.7"/>
		<rect x="296.9" y="119.5" fill="none" stroke="#CCCCCC" stroke-width="0.5" width="2.7" height="2.7"/>
		<rect x="296.9" y="126.7" fill="none" stroke="#CCCCCC" stroke-width="0.5" width="2.7" height="2.7"/>
	</g>
	<g>
		<rect x="304.2" y="97.9" fill="none" stroke="#CCCCCC" stroke-width="0.5" width="2.7" height="2.7"/>
		<rect x="304.2" y="105.1" fill="none" stroke="#CCCCCC" stroke-width="0.5" width="2.7" height="2.7"/>
		<rect x="304.2" y="112.3" fill="none" stroke="#CCCCCC" stroke-width="0.5" width="2.7" height="2.7"/>
		<rect x="304.2" y="119.5" fill="none" stroke="#CCCCCC" stroke-width="0.5" width="2.7" height="2.7"/>
		<rect x="304.2" y="126.7" fill="none" stroke="#CCCCCC" stroke-width="0.5" width="2.7" height="2.7"/>
	</g>
	<g>
		<rect x="260.1" y="97.9" fill="none" stroke="#CCCCCC" stroke-width="0.5" width="2.7" height="2.7"/>
		<rect x="260.1" y="105.1" fill="none" stroke="#CCCCCC" stroke-width="0.5" width="2.7" height="2.7"/>
		<rect x="260.1" y="112.3" fill="none" stroke="#CCCCCC" stroke-width="0.5" width="2.7" height="2.7"/>
		<rect x="260.1" y="119.5" fill="none" stroke="#CCCCCC" stroke-width="0.5" width="2.7" height="2.7"/>
		<rect x="260.1" y="126.7" fill="none" stroke="#CCCCCC" stroke-width="0.5" width="2.7" height="2.7"/>
	</g>
	<g>
		<rect x="267.5" y="97.9" fill="none" stroke="#CCCCCC" stroke-width="0.5" width="2.7" height="2.7"/>
		<rect x="267.5" y="105.1" fill="none" stroke="#CCCCCC" stroke-width="0.5" width="2.7" height="2.7"/>
		<rect x="267.5" y="112.3" fill="none" stroke="#CCCCCC" stroke-width="0.5" width="2.7" height="2.7"/>
		<rect x="267.5" y="119.5" fill="none" stroke="#CCCCCC" stroke-width="0.5" width="2.7" height="2.7"/>
		<rect x="267.5" y="126.7" fill="none" stroke="#CCCCCC" stroke-width="0.5" width="2.7" height="2.7"/>
	</g>
	<g>
		<rect x="274.8" y="97.9" fill="none" stroke="#CCCCCC" stroke-width="0.5" width="2.7" height="2.7"/>
		<rect x="274.8" y="105.1" fill="none" stroke="#CCCCCC" stroke-width="0.5" width="2.7" height="2.7"/>
		<rect x="274.8" y="112.3" fill="none" stroke="#CCCCCC" stroke-width="0.5" width="2.7" height="2.7"/>
		<rect x="274.8" y="119.5" fill="none" stroke="#CCCCCC" stroke-width="0.5" width="2.7" height="2.7"/>
		<rect x="274.8" y="126.7" fill="none" stroke="#CCCCCC" stroke-width="0.5" width="2.7" height="2.7"/>
	</g>
</g>
<g>
	<g>
		<rect x="311.6" y="147.9" fill="none" stroke="#CCCCCC" stroke-width="0.5" width="2.7" height="2.7"/>
		<rect x="311.6" y="155.1" fill="none" stroke="#CCCCCC" stroke-width="0.5" width="2.7" height="2.7"/>
		<rect x="311.6" y="162.3" fill="none" stroke="#CCCCCC" stroke-width="0.5" width="2.7" height="2.7"/>
		<rect x="311.6" y="169.5" fill="none" stroke="#CCCCCC" stroke-width="0.5" width="2.7" height="2.7"/>
		<rect x="311.6" y="176.8" fill="none" stroke="#CCCCCC" stroke-width="0.5" width="2.7" height="2.7"/>
	</g>
	<g>
		<rect x="318.9" y="147.9" fill="none" stroke="#CCCCCC" stroke-width="0.5" width="2.7" height="2.7"/>
		<rect x="318.9" y="155.1" fill="none" stroke="#CCCCCC" stroke-width="0.5" width="2.7" height="2.7"/>
		<rect x="318.9" y="162.3" fill="none" stroke="#CCCCCC" stroke-width="0.5" width="2.7" height="2.7"/>
		<rect x="318.9" y="169.5" fill="none" stroke="#CCCCCC" stroke-width="0.5" width="2.7" height="2.7"/>
		<rect x="318.9" y="176.8" fill="none" stroke="#CCCCCC" stroke-width="0.5" width="2.7" height="2.7"/>
	</g>
	<g>
		<rect x="326.3" y="147.9" fill="none" stroke="#CCCCCC" stroke-width="0.5" width="2.7" height="2.7"/>
		<rect x="326.3" y="155.1" fill="none" stroke="#CCCCCC" stroke-width="0.5" width="2.7" height="2.7"/>
		<rect x="326.3" y="162.3" fill="none" stroke="#CCCCCC" stroke-width="0.5" width="2.7" height="2.7"/>
		<rect x="326.3" y="169.5" fill="none" stroke="#CCCCCC" stroke-width="0.5" width="2.7" height="2.7"/>
		<rect x="326.3" y="176.8" fill="none" stroke="#CCCCCC" stroke-width="0.5" width="2.7" height="2.7"/>
	</g>
	<g>
		<rect x="333.6" y="147.9" fill="none" stroke="#CCCCCC" stroke-width="0.5" width="2.7" height="2.7"/>
		<rect x="333.6" y="155.1" fill="none" stroke="#CCCCCC" stroke-width="0.5" width="2.7" height="2.7"/>
		<rect x="333.6" y="162.3" fill="none" stroke="#CCCCCC" stroke-width="0.5" width="2.7" height="2.7"/>
		<rect x="333.6" y="169.5" fill="none" stroke="#CCCCCC" stroke-width="0.5" width="2.7" height="2.7"/>
		<rect x="333.6" y="176.8" fill="none" stroke="#CCCCCC" stroke-width="0.5" width="2.7" height="2.7"/>
	</g>
	<g>
		<rect x="341" y="147.9" fill="none" stroke="#CCCCCC" stroke-width="0.5" width="2.7" height="2.7"/>
		<rect x="341" y="155.1" fill="none" stroke="#CCCCCC" stroke-width="0.5" width="2.7" height="2.7"/>
		<rect x="341" y="162.3" fill="none" stroke="#CCCCCC" stroke-width="0.5" width="2.7" height="2.7"/>
		<rect x="341" y="169.5" fill="none" stroke="#CCCCCC" stroke-width="0.5" width="2.7" height="2.7"/>
		<rect x="341" y="176.8" fill="none" stroke="#CCCCCC" stroke-width="0.5" width="2.7" height="2.7"/>
	</g>
	<g>
		<rect x="348.3" y="147.9" fill="none" stroke="#CCCCCC" stroke-width="0.5" width="2.7" height="2.7"/>
		<rect x="348.3" y="155.1" fill="none" stroke="#CCCCCC" stroke-width="0.5" width="2.7" height="2.7"/>
		<rect x="348.3" y="162.3" fill="none" stroke="#CCCCCC" stroke-width="0.5" width="2.7" height="2.7"/>
		<rect x="348.3" y="169.5" fill="none" stroke="#CCCCCC" stroke-width="0.5" width="2.7" height="2.7"/>
		<rect x="348.3" y="176.8" fill="none" stroke="#CCCCCC" stroke-width="0.5" width="2.7" height="2.7"/>
	</g>
	<g>
		<rect x="355.7" y="147.9" fill="none" stroke="#CCCCCC" stroke-width="0.5" width="2.7" height="2.7"/>
		<rect x="355.7" y="155.1" fill="none" stroke="#CCCCCC" stroke-width="0.5" width="2.7" height="2.7"/>
		<rect x="355.7" y="162.3" fill="none" stroke="#CCCCCC" stroke-width="0.5" width="2.7" height="2.7"/>
		<rect x="355.7" y="169.5" fill="none" stroke="#CCCCCC" stroke-width="0.5" width="2.7" height="2.7"/>
		<rect x="355.7" y="176.8" fill="none" stroke="#CCCCCC" stroke-width="0.5" width="2.7" height="2.7"/>
	</g>
	<g>
		<rect x="363" y="147.9" fill="none" stroke="#CCCCCC" stroke-width="0.5" width="2.7" height="2.7"/>
		<rect x="363" y="155.1" fill="none" stroke="#CCCCCC" stroke-width="0.5" width="2.7" height="2.7"/>
		<rect x="363" y="162.3" fill="none" stroke="#CCCCCC" stroke-width="0.5" width="2.7" height="2.7"/>
		<rect x="363" y="169.5" fill="none" stroke="#CCCCCC" stroke-width="0.5" width="2.7" height="2.7"/>
		<rect x="363" y="176.8" fill="none" stroke="#CCCCCC" stroke-width="0.5" width="2.7" height="2.7"/>
	</g>
	<g>
		<rect x="370.4" y="147.9" fill="none" stroke="#CCCCCC" stroke-width="0.5" width="2.7" height="2.7"/>
		<rect x="370.4" y="155.1" fill="none" stroke="#CCCCCC" stroke-width="0.5" width="2.7" height="2.7"/>
		<rect x="370.4" y="162.3" fill="none" stroke="#CCCCCC" stroke-width="0.5" width="2.7" height="2.7"/>
		<rect x="370.4" y="169.5" fill="none" stroke="#CCCCCC" stroke-width="0.5" width="2.7" height="2.7"/>
		<rect x="370.4" y="176.8" fill="none" stroke="#CCCCCC" stroke-width="0.5" width="2.7" height="2.7"/>
	</g>
	<g>
		<rect x="377.7" y="147.9" fill="none" stroke="#CCCCCC" stroke-width="0.5" width="2.7" height="2.7"/>
		<rect x="377.7" y="155.1" fill="none" stroke="#CCCCCC" stroke-width="0.5" width="2.7" height="2.7"/>
		<rect x="377.7" y="162.3" fill="none" stroke="#CCCCCC" stroke-width="0.5" width="2.7" height="2.7"/>
		<rect x="377.7" y="169.5" fill="none" stroke="#CCCCCC" stroke-width="0.5" width="2.7" height="2.7"/>
		<rect x="377.7" y="176.8" fill="none" stroke="#CCCCCC" stroke-width="0.5" width="2.7" height="2.7"/>
	</g>
	<g>
		<rect x="385.1" y="147.9" fill="none" stroke="#CCCCCC" stroke-width="0.5" width="2.7" height="2.7"/>
		<rect x="385.1" y="155.1" fill="none" stroke="#CCCCCC" stroke-width="0.5" width="2.7" height="2.7"/>
		<rect x="385.1" y="162.3" fill="none" stroke="#CCCCCC" stroke-width="0.5" width="2.7" height="2.7"/>
		<rect x="385.1" y="169.5" fill="none" stroke="#CCCCCC" stroke-width="0.5" width="2.7" height="2.7"/>
		<rect x="385.1" y="176.8" fill="none" stroke="#CCCCCC" stroke-width="0.5" width="2.7" height="2.7"/>
	</g>
	<g>
		<rect x="392.4" y="147.9" fill="none" stroke="#CCCCCC" stroke-width="0.5" width="2.7" height="2.7"/>
		<rect x="392.4" y="155.1" fill="none" stroke="#CCCCCC" stroke-width="0.5" width="2.7" height="2.7"/>
		<rect x="392.4" y="162.3" fill="none" stroke="#CCCCCC" stroke-width="0.5" width="2.7" height="2.7"/>
		<rect x="392.4" y="169.5" fill="none" stroke="#CCCCCC" stroke-width="0.5" width="2.7" height="2.7"/>
		<rect x="392.4" y="176.8" fill="none" stroke="#CCCCCC" stroke-width="0.5" width="2.7" height="2.7"/>
	</g>
	<g>
		<rect x="399.8" y="147.9" fill="none" stroke="#CCCCCC" stroke-width="0.5" width="2.7" height="2.7"/>
		<rect x="399.8" y="155.1" fill="none" stroke="#CCCCCC" stroke-width="0.5" width="2.7" height="2.7"/>
		<rect x="399.8" y="162.3" fill="none" stroke="#CCCCCC" stroke-width="0.5" width="2.7" height="2.7"/>
		<rect x="399.8" y="169.5" fill="none" stroke="#CCCCCC" stroke-width="0.5" width="2.7" height="2.7"/>
		<rect x="399.8" y="176.8" fill="none" stroke="#CCCCCC" stroke-width="0.5" width="2.7" height="2.7"/>
	</g>
	<g>
		<rect x="407.2" y="147.9" fill="none" stroke="#CCCCCC" stroke-width="0.5" width="2.7" height="2.7"/>
		<rect x="407.2" y="155.1" fill="none" stroke="#CCCCCC" stroke-width="0.5" width="2.7" height="2.7"/>
		<rect x="407.2" y="162.3" fill="none" stroke="#CCCCCC" stroke-width="0.5" width="2.7" height="2.7"/>
		<rect x="407.2" y="169.5" fill="none" stroke="#CCCCCC" stroke-width="0.5" width="2.7" height="2.7"/>
		<rect x="407.2" y="176.8" fill="none" stroke="#CCCCCC" stroke-width="0.5" width="2.7" height="2.7"/>
	</g>
	<g>
		<rect x="414.5" y="147.9" fill="none" stroke="#CCCCCC" stroke-width="0.5" width="2.7" height="2.7"/>
		<rect x="414.5" y="155.1" fill="none" stroke="#CCCCCC" stroke-width="0.5" width="2.7" height="2.7"/>
		<rect x="414.5" y="162.3" fill="none" stroke="#CCCCCC" stroke-width="0.5" width="2.7" height="2.7"/>
		<rect x="414.5" y="169.5" fill="none" stroke="#CCCCCC" stroke-width="0.5" width="2.7" height="2.7"/>
		<rect x="414.5" y="176.8" fill="none" stroke="#CCCCCC" stroke-width="0.5" width="2.7" height="2.7"/>
	</g>
	<g>
		<rect x="421.9" y="147.9" fill="none" stroke="#CCCCCC" stroke-width="0.5" width="2.7" height="2.7"/>
		<rect x="421.9" y="155.1" fill="none" stroke="#CCCCCC" stroke-width="0.5" width="2.7" height="2.7"/>
		<rect x="421.9" y="162.3" fill="none" stroke="#CCCCCC" stroke-width="0.5" width="2.7" height="2.7"/>
		<rect x="421.9" y="169.5" fill="none" stroke="#CCCCCC" stroke-width="0.5" width="2.7" height="2.7"/>
		<rect x="421.9" y="176.8" fill="none" stroke="#CCCCCC" stroke-width="0.5" width="2.7" height="2.7"/>
	</g>
	<rect x="429.2" y="147.9" fill="none" stroke="#CCCCCC" stroke-width="0.5" width="2.7" height="2.7"/>
	<rect x="429.2" y="155.1" fill="none" stroke="#CCCCCC" stroke-width="0.5" width="2.7" height="2.7"/>
	<rect x="429.2" y="162.3" fill="none" stroke="#CCCCCC" stroke-width="0.5" width="2.7" height="2.7"/>
	<rect x="429.2" y="169.5" fill="none" stroke="#CCCCCC" stroke-width="0.5" width="2.7" height="2.7"/>
	<rect x="429.2" y="176.8" fill="none" stroke="#CCCCCC" stroke-width="0.5" width="2.7" height="2.7"/>
	<rect x="436.6" y="147.9" fill="none" stroke="#CCCCCC" stroke-width="0.5" width="2.7" height="2.7"/>
	<rect x="436.6" y="155.1" fill="none" stroke="#CCCCCC" stroke-width="0.5" width="2.7" height="2.7"/>
	<rect x="436.6" y="162.3" fill="none" stroke="#CCCCCC" stroke-width="0.5" width="2.7" height="2.7"/>
	<rect x="436.6" y="169.5" fill="none" stroke="#CCCCCC" stroke-width="0.5" width="2.7" height="2.7"/>
	<rect x="436.6" y="176.8" fill="none" stroke="#CCCCCC" stroke-width="0.5" width="2.7" height="2.7"/>
	<rect x="443.9" y="147.9" fill="none" stroke="#CCCCCC" stroke-width="0.5" width="2.7" height="2.7"/>
	<rect x="443.9" y="155.1" fill="none" stroke="#CCCCCC" stroke-width="0.5" width="2.7" height="2.7"/>
	<rect x="443.9" y="162.3" fill="none" stroke="#CCCCCC" stroke-width="0.5" width="2.7" height="2.7"/>
	<rect x="443.9" y="169.5" fill="none" stroke="#CCCCCC" stroke-width="0.5" width="2.7" height="2.7"/>
	<rect x="443.9" y="176.8" fill="none" stroke="#CCCCCC" stroke-width="0.5" width="2.7" height="2.7"/>
	<rect x="451.3" y="147.9" fill="none" stroke="#CCCCCC" stroke-width="0.5" width="2.7" height="2.7"/>
	<rect x="451.3" y="155.1" fill="none" stroke="#CCCCCC" stroke-width="0.5" width="2.7" height="2.7"/>
	<rect x="451.3" y="162.3" fill="none" stroke="#CCCCCC" stroke-width="0.5" width="2.7" height="2.7"/>
	<rect x="451.3" y="169.5" fill="none" stroke="#CCCCCC" stroke-width="0.5" width="2.7" height="2.7"/>
	<rect x="451.3" y="176.8" fill="none" stroke="#CCCCCC" stroke-width="0.5" width="2.7" height="2.7"/>
	<rect x="458.6" y="147.9" fill="none" stroke="#CCCCCC" stroke-width="0.5" width="2.7" height="2.7"/>
	<rect x="458.6" y="155.1" fill="none" stroke="#CCCCCC" stroke-width="0.5" width="2.7" height="2.7"/>
	<rect x="458.6" y="162.3" fill="none" stroke="#CCCCCC" stroke-width="0.5" width="2.7" height="2.7"/>
	<rect x="458.6" y="169.5" fill="none" stroke="#CCCCCC" stroke-width="0.5" width="2.7" height="2.7"/>
	<rect x="458.6" y="176.8" fill="none" stroke="#CCCCCC" stroke-width="0.5" width="2.7" height="2.7"/>
	<rect x="466" y="147.9" fill="none" stroke="#CCCCCC" stroke-width="0.5" width="2.7" height="2.7"/>
	<rect x="466" y="155.1" fill="none" stroke="#CCCCCC" stroke-width="0.5" width="2.7" height="2.7"/>
	<rect x="466" y="162.3" fill="none" stroke="#CCCCCC" stroke-width="0.5" width="2.7" height="2.7"/>
	<rect x="466" y="169.5" fill="none" stroke="#CCCCCC" stroke-width="0.5" width="2.7" height="2.7"/>
	<rect x="466" y="176.8" fill="none" stroke="#CCCCCC" stroke-width="0.5" width="2.7" height="2.7"/>
	<rect x="473.3" y="147.9" fill="none" stroke="#CCCCCC" stroke-width="0.5" width="2.7" height="2.7"/>
	<rect x="473.3" y="155.1" fill="none" stroke="#CCCCCC" stroke-width="0.5" width="2.7" height="2.7"/>
	<rect x="473.3" y="162.3" fill="none" stroke="#CCCCCC" stroke-width="0.5" width="2.7" height="2.7"/>
	<rect x="473.3" y="169.5" fill="none" stroke="#CCCCCC" stroke-width="0.5" width="2.7" height="2.7"/>
	<rect x="473.3" y="176.8" fill="none" stroke="#CCCCCC" stroke-width="0.5" width="2.7" height="2.7"/>
	<g>
		<rect x="282.2" y="147.9" fill="none" stroke="#CCCCCC" stroke-width="0.5" width="2.7" height="2.7"/>
		<rect x="282.2" y="155.1" fill="none" stroke="#CCCCCC" stroke-width="0.5" width="2.7" height="2.7"/>
		<rect x="282.2" y="162.3" fill="none" stroke="#CCCCCC" stroke-width="0.5" width="2.7" height="2.7"/>
		<rect x="282.2" y="169.5" fill="none" stroke="#CCCCCC" stroke-width="0.5" width="2.7" height="2.7"/>
		<rect x="282.2" y="176.8" fill="none" stroke="#CCCCCC" stroke-width="0.5" width="2.7" height="2.7"/>
	</g>
	<g>
		<rect x="289.5" y="147.9" fill="none" stroke="#CCCCCC" stroke-width="0.5" width="2.7" height="2.7"/>
		<rect x="289.5" y="155.1" fill="none" stroke="#CCCCCC" stroke-width="0.5" width="2.7" height="2.7"/>
		<rect x="289.5" y="162.3" fill="none" stroke="#CCCCCC" stroke-width="0.5" width="2.7" height="2.7"/>
		<rect x="289.5" y="169.5" fill="none" stroke="#CCCCCC" stroke-width="0.5" width="2.7" height="2.7"/>
		<rect x="289.5" y="176.8" fill="none" stroke="#CCCCCC" stroke-width="0.5" width="2.7" height="2.7"/>
	</g>
	<g>
		<rect x="296.9" y="147.9" fill="none" stroke="#CCCCCC" stroke-width="0.5" width="2.7" height="2.7"/>
		<rect x="296.9" y="155.1" fill="none" stroke="#CCCCCC" stroke-width="0.5" width="2.7" height="2.7"/>
		<rect x="296.9" y="162.3" fill="none" stroke="#CCCCCC" stroke-width="0.5" width="2.7" height="2.7"/>
		<rect x="296.9" y="169.5" fill="none" stroke="#CCCCCC" stroke-width="0.5" width="2.7" height="2.7"/>
		<rect x="296.9" y="176.8" fill="none" stroke="#CCCCCC" stroke-width="0.5" width="2.7" height="2.7"/>
	</g>
	<g>
		<rect x="304.2" y="147.9" fill="none" stroke="#CCCCCC" stroke-width="0.5" width="2.7" height="2.7"/>
		<rect x="304.2" y="155.1" fill="none" stroke="#CCCCCC" stroke-width="0.5" width="2.7" height="2.7"/>
		<rect x="304.2" y="162.3" fill="none" stroke="#CCCCCC" stroke-width="0.5" width="2.7" height="2.7"/>
		<rect x="304.2" y="169.5" fill="none" stroke="#CCCCCC" stroke-width="0.5" width="2.7" height="2.7"/>
		<rect x="304.2" y="176.8" fill="none" stroke="#CCCCCC" stroke-width="0.5" width="2.7" height="2.7"/>
	</g>
	<g>
		<rect x="260.1" y="147.9" fill="none" stroke="#CCCCCC" stroke-width="0.5" width="2.7" height="2.7"/>
		<rect x="260.1" y="155.1" fill="none" stroke="#CCCCCC" stroke-width="0.5" width="2.7" height="2.7"/>
		<rect x="260.1" y="162.3" fill="none" stroke="#CCCCCC" stroke-width="0.5" width="2.7" height="2.7"/>
		<rect x="260.1" y="169.5" fill="none" stroke="#CCCCCC" stroke-width="0.5" width="2.7" height="2.7"/>
		<rect x="260.1" y="176.8" fill="none" stroke="#CCCCCC" stroke-width="0.5" width="2.7" height="2.7"/>
	</g>
	<g>
		<rect x="267.5" y="147.9" fill="none" stroke="#CCCCCC" stroke-width="0.5" width="2.7" height="2.7"/>
		<rect x="267.5" y="155.1" fill="none" stroke="#CCCCCC" stroke-width="0.5" width="2.7" height="2.7"/>
		<rect x="267.5" y="162.3" fill="none" stroke="#CCCCCC" stroke-width="0.5" width="2.7" height="2.7"/>
		<rect x="267.5" y="169.5" fill="none" stroke="#CCCCCC" stroke-width="0.5" width="2.7" height="2.7"/>
		<rect x="267.5" y="176.8" fill="none" stroke="#CCCCCC" stroke-width="0.5" width="2.7" height="2.7"/>
	</g>
	<g>
		<rect x="274.8" y="147.9" fill="none" stroke="#CCCCCC" stroke-width="0.5" width="2.7" height="2.7"/>
		<rect x="274.8" y="155.1" fill="none" stroke="#CCCCCC" stroke-width="0.5" width="2.7" height="2.7"/>
		<rect x="274.8" y="162.3" fill="none" stroke="#CCCCCC" stroke-width="0.5" width="2.7" height="2.7"/>
		<rect x="274.8" y="169.5" fill="none" stroke="#CCCCCC" stroke-width="0.5" width="2.7" height="2.7"/>
		<rect x="274.8" y="176.8" fill="none" stroke="#CCCCCC" stroke-width="0.5" width="2.7" height="2.7"/>
	</g>
</g>
<g>
	<g>
		<g>
			<rect x="289" y="68.6" fill="none" stroke="#CCCCCC" stroke-width="0.5" width="2.7" height="2.7"/>
			<rect x="281.8" y="68.6" fill="none" stroke="#CCCCCC" stroke-width="0.5" width="2.7" height="2.7"/>
			<rect x="274.5" y="68.6" fill="none" stroke="#CCCCCC" stroke-width="0.5" width="2.7" height="2.7"/>
			<rect x="267.3" y="68.6" fill="none" stroke="#CCCCCC" stroke-width="0.5" width="2.7" height="2.7"/>
			<rect x="260.1" y="68.6" fill="none" stroke="#CCCCCC" stroke-width="0.5" width="2.7" height="2.7"/>
		</g>
		<g>
			<rect x="260.1" y="75.8" fill="none" stroke="#CCCCCC" stroke-width="0.5" width="2.7" height="2.7"/>
			<rect x="267.3" y="75.8" fill="none" stroke="#CCCCCC" stroke-width="0.5" width="2.7" height="2.7"/>
			<rect x="274.5" y="75.8" fill="none" stroke="#CCCCCC" stroke-width="0.5" width="2.7" height="2.7"/>
			<rect x="281.8" y="75.8" fill="none" stroke="#CCCCCC" stroke-width="0.5" width="2.7" height="2.7"/>
			<rect x="289" y="75.8" fill="none" stroke="#CCCCCC" stroke-width="0.5" width="2.7" height="2.7"/>
		</g>
	</g>
	<g>
		<g>
			<rect x="333.1" y="68.6" fill="none" stroke="#CCCCCC" stroke-width="0.5" width="2.7" height="2.7"/>
			<rect x="325.9" y="68.6" fill="none" stroke="#CCCCCC" stroke-width="0.5" width="2.7" height="2.7"/>
			<rect x="318.6" y="68.6" fill="none" stroke="#CCCCCC" stroke-width="0.5" width="2.7" height="2.7"/>
			<rect x="311.4" y="68.6" fill="none" stroke="#CCCCCC" stroke-width="0.5" width="2.7" height="2.7"/>
			<rect x="304.2" y="68.6" fill="none" stroke="#CCCCCC" stroke-width="0.5" width="2.7" height="2.7"/>
		</g>
		<g>
			<rect x="304.2" y="75.8" fill="none" stroke="#CCCCCC" stroke-width="0.5" width="2.7" height="2.7"/>
			<rect x="311.4" y="75.8" fill="none" stroke="#CCCCCC" stroke-width="0.5" width="2.7" height="2.7"/>
			<rect x="318.7" y="75.8" fill="none" stroke="#CCCCCC" stroke-width="0.5" width="2.7" height="2.7"/>
			<rect x="325.9" y="75.8" fill="none" stroke="#CCCCCC" stroke-width="0.5" width="2.7" height="2.7"/>
			<rect x="333.1" y="75.8" fill="none" stroke="#CCCCCC" stroke-width="0.5" width="2.7" height="2.7"/>
		</g>
	</g>
	<g>
		<g>
			<rect x="377.2" y="68.6" fill="none" stroke="#CCCCCC" stroke-width="0.5" width="2.7" height="2.7"/>
			<rect x="370" y="68.6" fill="none" stroke="#CCCCCC" stroke-width="0.5" width="2.7" height="2.7"/>
			<rect x="362.8" y="68.6" fill="none" stroke="#CCCCCC" stroke-width="0.5" width="2.7" height="2.7"/>
			<rect x="355.6" y="68.6" fill="none" stroke="#CCCCCC" stroke-width="0.5" width="2.7" height="2.7"/>
			<rect x="348.3" y="68.6" fill="none" stroke="#CCCCCC" stroke-width="0.5" width="2.7" height="2.7"/>
		</g>
		<g>
			<rect x="348.3" y="75.8" fill="none" stroke="#CCCCCC" stroke-width="0.5" width="2.7" height="2.7"/>
			<rect x="355.6" y="75.8" fill="none" stroke="#CCCCCC" stroke-width="0.5" width="2.7" height="2.7"/>
			<rect x="362.8" y="75.8" fill="none" stroke="#CCCCCC" stroke-width="0.5" width="2.7" height="2.7"/>
			<rect x="370" y="75.8" fill="none" stroke="#CCCCCC" stroke-width="0.5" width="2.7" height="2.7"/>
			<rect x="377.2" y="75.8" fill="none" stroke="#CCCCCC" stroke-width="0.5" width="2.7" height="2.7"/>
		</g>
	</g>
	<g>
		<g>
			<rect x="421.3" y="68.6" fill="none" stroke="#CCCCCC" stroke-width="0.5" width="2.7" height="2.7"/>
			<rect x="414.1" y="68.6" fill="none" stroke="#CCCCCC" stroke-width="0.5" width="2.7" height="2.7"/>
			<rect x="406.9" y="68.6" fill="none" stroke="#CCCCCC" stroke-width="0.5" width="2.7" height="2.7"/>
			<rect x="399.7" y="68.6" fill="none" stroke="#CCCCCC" stroke-width="0.5" width="2.7" height="2.7"/>
			<rect x="392.4" y="68.6" fill="none" stroke="#CCCCCC" stroke-width="0.5" width="2.7" height="2.7"/>
		</g>
		<g>
			<rect x="392.4" y="75.8" fill="none" stroke="#CCCCCC" stroke-width="0.5" width="2.7" height="2.7"/>
			<rect x="399.7" y="75.8" fill="none" stroke="#CCCCCC" stroke-width="0.5" width="2.7" height="2.7"/>
			<rect x="406.9" y="75.8" fill="none" stroke="#CCCCCC" stroke-width="0.5" width="2.7" height="2.7"/>
			<rect x="414.1" y="75.8" fill="none" stroke="#CCCCCC" stroke-width="0.5" width="2.7" height="2.7"/>
			<rect x="421.3" y="75.8" fill="none" stroke="#CCCCCC" stroke-width="0.5" width="2.7" height="2.7"/>
		</g>
	</g>
	<g>
		<g>
			<rect x="465.4" y="68.6" fill="none" stroke="#CCCCCC" stroke-width="0.5" width="2.7" height="2.7"/>
			<rect x="458.2" y="68.6" fill="none" stroke="#CCCCCC" stroke-width="0.5" width="2.7" height="2.7"/>
			<rect x="451" y="68.6" fill="none" stroke="#CCCCCC" stroke-width="0.5" width="2.7" height="2.7"/>
			<rect x="443.8" y="68.6" fill="none" stroke="#CCCCCC" stroke-width="0.5" width="2.7" height="2.7"/>
			<rect x="436.6" y="68.6" fill="none" stroke="#CCCCCC" stroke-width="0.5" width="2.7" height="2.7"/>
		</g>
		<g>
			<rect x="436.6" y="75.8" fill="none" stroke="#CCCCCC" stroke-width="0.5" width="2.7" height="2.7"/>
			<rect x="443.8" y="75.8" fill="none" stroke="#CCCCCC" stroke-width="0.5" width="2.7" height="2.7"/>
			<rect x="451" y="75.8" fill="none" stroke="#CCCCCC" stroke-width="0.5" width="2.7" height="2.7"/>
			<rect x="458.2" y="75.8" fill="none" stroke="#CCCCCC" stroke-width="0.5" width="2.7" height="2.7"/>
			<rect x="465.4" y="75.8" fill="none" stroke="#CCCCCC" stroke-width="0.5" width="2.7" height="2.7"/>
		</g>
	</g>
</g>
<g>
	<g>
		<g>
			<rect x="289" y="200.1" fill="none" stroke="#CCCCCC" stroke-width="0.5" width="2.7" height="2.7"/>
			<rect x="281.8" y="200.1" fill="none" stroke="#CCCCCC" stroke-width="0.5" width="2.7" height="2.7"/>
			<rect x="274.5" y="200.1" fill="none" stroke="#CCCCCC" stroke-width="0.5" width="2.7" height="2.7"/>
			<rect x="267.3" y="200.1" fill="none" stroke="#CCCCCC" stroke-width="0.5" width="2.7" height="2.7"/>
			<rect x="260.1" y="200.1" fill="none" stroke="#CCCCCC" stroke-width="0.5" width="2.7" height="2.7"/>
		</g>
		<g>
			<rect x="260.1" y="207.3" fill="none" stroke="#CCCCCC" stroke-width="0.5" width="2.7" height="2.7"/>
			<rect x="267.3" y="207.3" fill="none" stroke="#CCCCCC" stroke-width="0.5" width="2.7" height="2.7"/>
			<rect x="274.5" y="207.3" fill="none" stroke="#CCCCCC" stroke-width="0.5" width="2.7" height="2.7"/>
			<rect x="281.8" y="207.3" fill="none" stroke="#CCCCCC" stroke-width="0.5" width="2.7" height="2.7"/>
			<rect x="289" y="207.3" fill="none" stroke="#CCCCCC" stroke-width="0.5" width="2.7" height="2.7"/>
		</g>
	</g>
	<g>
		<g>
			<rect x="333.1" y="200.1" fill="none" stroke="#CCCCCC" stroke-width="0.5" width="2.7" height="2.7"/>
			<rect x="325.9" y="200.1" fill="none" stroke="#CCCCCC" stroke-width="0.5" width="2.7" height="2.7"/>
			<rect x="318.6" y="200.1" fill="none" stroke="#CCCCCC" stroke-width="0.5" width="2.7" height="2.7"/>
			<rect x="311.4" y="200.1" fill="none" stroke="#CCCCCC" stroke-width="0.5" width="2.7" height="2.7"/>
			<rect x="304.2" y="200.1" fill="none" stroke="#CCCCCC" stroke-width="0.5" width="2.7" height="2.7"/>
		</g>
		<g>
			<rect x="304.2" y="207.3" fill="none" stroke="#CCCCCC" stroke-width="0.5" width="2.7" height="2.7"/>
			<rect x="311.4" y="207.3" fill="none" stroke="#CCCCCC" stroke-width="0.5" width="2.7" height="2.7"/>
			<rect x="318.7" y="207.3" fill="none" stroke="#CCCCCC" stroke-width="0.5" width="2.7" height="2.7"/>
			<rect x="325.9" y="207.3" fill="none" stroke="#CCCCCC" stroke-width="0.5" width="2.7" height="2.7"/>
			<rect x="333.1" y="207.3" fill="none" stroke="#CCCCCC" stroke-width="0.5" width="2.7" height="2.7"/>
		</g>
	</g>
	<g>
		<g>
			<rect x="377.2" y="200.1" fill="none" stroke="#CCCCCC" stroke-width="0.5" width="2.7" height="2.7"/>
			<rect x="370" y="200.1" fill="none" stroke="#CCCCCC" stroke-width="0.5" width="2.7" height="2.7"/>
			<rect x="362.8" y="200.1" fill="none" stroke="#CCCCCC" stroke-width="0.5" width="2.7" height="2.7"/>
			<rect x="355.6" y="200.1" fill="none" stroke="#CCCCCC" stroke-width="0.5" width="2.7" height="2.7"/>
			<rect x="348.3" y="200.1" fill="none" stroke="#CCCCCC" stroke-width="0.5" width="2.7" height="2.7"/>
		</g>
		<g>
			<rect x="348.3" y="207.3" fill="none" stroke="#CCCCCC" stroke-width="0.5" width="2.7" height="2.7"/>
			<rect x="355.6" y="207.3" fill="none" stroke="#CCCCCC" stroke-width="0.5" width="2.7" height="2.7"/>
			<rect x="362.8" y="207.3" fill="none" stroke="#CCCCCC" stroke-width="0.5" width="2.7" height="2.7"/>
			<rect x="370" y="207.3" fill="none" stroke="#CCCCCC" stroke-width="0.5" width="2.7" height="2.7"/>
			<rect x="377.2" y="207.3" fill="none" stroke="#CCCCCC" stroke-width="0.5" width="2.7" height="2.7"/>
		</g>
	</g>
	<g>
		<g>
			<rect x="421.3" y="200.1" fill="none" stroke="#CCCCCC" stroke-width="0.5" width="2.7" height="2.7"/>
			<rect x="414.1" y="200.1" fill="none" stroke="#CCCCCC" stroke-width="0.5" width="2.7" height="2.7"/>
			<rect x="406.9" y="200.1" fill="none" stroke="#CCCCCC" stroke-width="0.5" width="2.7" height="2.7"/>
			<rect x="399.7" y="200.1" fill="none" stroke="#CCCCCC" stroke-width="0.5" width="2.7" height="2.7"/>
			<rect x="392.4" y="200.1" fill="none" stroke="#CCCCCC" stroke-width="0.5" width="2.7" height="2.7"/>
		</g>
		<g>
			<rect x="392.4" y="207.3" fill="none" stroke="#CCCCCC" stroke-width="0.5" width="2.7" height="2.7"/>
			<rect x="399.7" y="207.3" fill="none" stroke="#CCCCCC" stroke-width="0.5" width="2.7" height="2.7"/>
			<rect x="406.9" y="207.3" fill="none" stroke="#CCCCCC" stroke-width="0.5" width="2.7" height="2.7"/>
			<rect x="414.1" y="207.3" fill="none" stroke="#CCCCCC" stroke-width="0.5" width="2.7" height="2.7"/>
			<rect x="421.3" y="207.3" fill="none" stroke="#CCCCCC" stroke-width="0.5" width="2.7" height="2.7"/>
		</g>
	</g>
	<g>
		<g>
			<rect x="465.4" y="200.1" fill="none" stroke="#CCCCCC" stroke-width="0.5" width="2.7" height="2.7"/>
			<rect x="458.2" y="200.1" fill="none" stroke="#CCCCCC" stroke-width="0.5" width="2.7" height="2.7"/>
			<rect x="451" y="200.1" fill="none" stroke="#CCCCCC" stroke-width="0.5" width="2.7" height="2.7"/>
			<rect x="443.8" y="200.1" fill="none" stroke="#CCCCCC" stroke-width="0.5" width="2.7" height="2.7"/>
			<rect x="436.6" y="200.1" fill="none" stroke="#CCCCCC" stroke-width="0.5" width="2.7" height="2.7"/>
		</g>
		<g>
			<rect x="436.6" y="207.3" fill="none" stroke="#CCCCCC" stroke-width="0.5" width="2.7" height="2.7"/>
			<rect x="443.8" y="207.3" fill="none" stroke="#CCCCCC" stroke-width="0.5" width="2.7" height="2.7"/>
			<rect x="451" y="207.3" fill="none" stroke="#CCCCCC" stroke-width="0.5" width="2.7" height="2.7"/>
			<rect x="458.2" y="207.3" fill="none" stroke="#CCCCCC" stroke-width="0.5" width="2.7" height="2.7"/>
			<rect x="465.4" y="207.3" fill="none" stroke="#CCCCCC" stroke-width="0.5" width="2.7" height="2.7"/>
		</g>
	</g>
</g>
<rect x="244.2" y="61.2" fill="none" stroke="#CCCCCC" stroke-width="0.5" width="247.3" height="154.3"/>
<text transform="matrix(1 0 0 1 320.2505 35.915)" font-family="'TheSerif-HP5Plain'" font-size="9.6162">+5V</text>
<text transform="matrix(1 0 0 1 410.7456 35.915)" font-family="'TheSerif-HP5Plain'" font-size="9.6162">Ground</text>
<g>
	<text transform="matrix(1 0 0 1 225.23 35.915)" font-family="'TheSerif-HP5Plain'" font-size="9.6162">Digital I/O Pin 4</text>
</g>
<line fill="none" stroke="#606869" stroke-width="0.9841" x1="438.8" y1="156.5" x2="415.9" y2="156.5"/>
<line fill="none" stroke="#000000" stroke-linecap="round" x1="372" y1="156.5" x2="393.4" y2="156.5"/>
<rect x="393.2" y="153.5" fill="#CCCCCC" width="22.9" height="6.2"/>
<rect x="395.3" y="153.4" fill="#808080" width="3.1" height="6.4"/>
<rect x="399.8" y="153.4" width="3.1" height="6.4"/>
<rect x="404.2" y="153.4" fill="#9A9A9A" width="3.1" height="6.4"/>
<rect x="410.3" y="153.4" fill="#B3B3B3" width="3.1" height="6.4"/>
<path fill="none" stroke="#221F1F" stroke-width="1.5073" d="M438,149.1"/>
<rect x="363.5" y="126.4" fill="#AAAAAA" stroke="#221F1F" stroke-width="0.492" width="2.7" height="2.8"/>
<rect x="370" y="126.4" fill="#AAAAAA" stroke="#221F1F" stroke-width="0.492" width="2.7" height="2.8"/>
<rect x="363.5" y="148.2" fill="#AAAAAA" stroke="#221F1F" stroke-width="0.492" width="2.7" height="2.8"/>
<rect x="370" y="148.2" fill="#AAAAAA" stroke="#221F1F" stroke-width="0.492" width="2.7" height="2.8"/>
<rect x="358.7" y="129.3" fill="#CCCCCC" stroke="#221F1F" stroke-width="0.492" width="19.4" height="19"/>
<circle fill="#FFFFFF" stroke="#221F1F" stroke-width="0.492" cx="368.4" cy="138.8" r="6.5"/>
<circle cx="368.4" cy="138.8" r="5"/>
<text transform="matrix(1 0 0 1 1 11.1885)" font-family="'TheSerif-HP5PlainIT'" font-size="12.3637">Example 1</text>
<text transform="matrix(1 0 0 1 2.374 105.5273)" font-family="'TheSerif-HP5Plain'" font-size="9.6162">Digital I/O Pin 4</text>
<circle fill="none" stroke="#000000" stroke-width="0.5" cx="122.2" cy="76.3" r="3.1"/>
<circle fill="none" stroke="#000000" stroke-width="0.5" cx="122.2" cy="94.2" r="3.1"/>
<line fill="none" stroke="#000000" stroke-width="0.5" x1="122.5" y1="45.1" x2="122.5" y2="73.2"/>
<polyline fill="none" stroke="#000000" stroke-width="0.5" points="36.5,124.8 122.1,124.8 122.1,97.3 "/>
<polyline fill="none" stroke="#000000" stroke-width="0.5" points="132.8,71.1 132.8,84.3 132.8,98.7 "/>
<path fill="none" stroke="#000000" stroke-width="0.5" d="M149.3,83.5"/>
<line fill="none" stroke="#000000" stroke-width="0.5" x1="149.3" y1="84.7" x2="132.8" y2="84.7"/>
<polyline fill="none" stroke="#000000" stroke-width="0.5" points="121.9,180.6 121.9,159.5 129.4,157.4 116.2,152 129,148.3 
	115.8,142.6 129.4,138 122,136 122,125.3 "/>
<polygon fill="none" stroke="#000000" stroke-width="0.5" points="29.3,117.5 36.1,124.9 29.3,132.4 11.7,132.4 11.7,117.5 "/>
<text transform="matrix(1 0 0 1 112.2969 40.9717)" font-family="'TheSerif-HP5Plain'" font-size="9.6162">+5V</text>
<text transform="matrix(1 0 0 1 136.418 196.6436)" font-family="'TheSerif-HP5Plain'" font-size="9.6162">Ground</text>
<g>
	<g>
		<polyline fill="none" stroke="#D3453E" stroke-width="0.45" points="110.8,180.4 132.5,180.4 114.7,180.4 		"/>
		<line fill="none" stroke="#D3453E" stroke-width="0.45" x1="114.9" y1="186.2" x2="128.4" y2="186.2"/>
		<line fill="none" stroke="#D3453E" stroke-width="0.45" x1="119.2" y1="191.6" x2="124.1" y2="191.6"/>
	</g>
	<g>
		<polyline fill="none" stroke="#000000" stroke-width="0.45" points="110.8,180.4 132.5,180.4 114.7,180.4 		"/>
		<line fill="none" stroke="#000000" stroke-width="0.45" x1="114.9" y1="186.2" x2="128.4" y2="186.2"/>
		<line fill="none" stroke="#000000" stroke-width="0.45" x1="119.2" y1="191.6" x2="124.1" y2="191.6"/>
	</g>
</g>
<text transform="matrix(1 0 0 1 159.4058 81.7573)"><tspan x="0" y="0" font-family="'TheSerif-HP5Plain'" font-size="9.6162">Pulse  </tspan><tspan x="0" y="12.4" font-family="'TheSerif-HP5Plain'" font-size="9.6162">switch</tspan></text>
<path fill="none" stroke="#808080" stroke-linecap="round" d="M371.9,163.6c0,0-42.4,16.2-70.4-6.8c-28.1-23-39.4-98.2-42.5-115.4"
	/>
<path fill="none" stroke="#404040" stroke-linecap="round" d="M364.5,156.3c0,0-34.1,8.6-47.6-6.8c-30.6-34.8,12.1-87,11.2-106.8"/>
<path fill="none" stroke="#221F1F" stroke-linecap="round" d="M437.1,150c0,0,15.2,3.7,19.6-26.7c4.9-33.5-15.1-71.6-30-81.5"/>
<text transform="matrix(1 0 0 1 136.5073 152.124)" font-family="'TheSerif-HP5Plain'" font-size="9.6162">10K</text>
</svg>
