<?xml version="1.0" encoding="utf-8"?>
<!-- Generator: Adobe Illustrator 18.0.0, SVG Export Plug-In . SVG Version: 6.00 Build 0)  -->
<!DOCTYPE svg PUBLIC "-//W3C//DTD SVG 1.1//EN" "http://www.w3.org/Graphics/SVG/1.1/DTD/svg11.dtd">
<svg version="1.1" id="Layer_1" xmlns="http://www.w3.org/2000/svg" xmlns:xlink="http://www.w3.org/1999/xlink" x="0px" y="0px"
	 viewBox="0 0 687 100" enable-background="new 0 0 687 100" xml:space="preserve">
<line fill="none" stroke="#CDCCCC" stroke-width="0.5" x1="385.3" y1="7.5" x2="385.3" y2="68.2"/>
<path fill="none" stroke="#020202" stroke-width="0.1172" d="M623.2,101"/>
<line fill="none" stroke="#CDCCCC" stroke-width="0.5" x1="385.5" y1="67.9" x2="622.5" y2="67.9"/>
<g>
	<text transform="matrix(1 0 0 1 598.7822 79.2314)" fill="#010101" font-family="'TheSansMono-W3Light'" font-size="9.928">Time</text>
</g>
<g>
	<text transform="matrix(0 -1 1 0 379.8145 37.6709)" fill="#010101" font-family="'TheSansMono-W3Light'" font-size="9.928">Volts</text>
</g>
<g>
	<text transform="matrix(1 0 0 1 385.3291 90.2637)" fill="#020202" font-family="'TheSerif-HP5Plain'" font-size="11.5827">Digital signal</text>
</g>
<line fill="none" stroke="#CDCCCC" stroke-width="0.5" x1="385.3" y1="7.5" x2="385.3" y2="68.2"/>
<g>
	<path fill="none" stroke="#020202" stroke-width="0.5" stroke-linecap="round" d="M74.7,34.4c17.2,14.9,26.4,14.9,29.7,14.9"/>
	<path fill="none" stroke="#020202" stroke-width="0.5" stroke-linecap="round" d="M104.4,49.3c2.1,0,12.5,0.3,30-15
		c17.2-14.9,26.4-14.9,29.7-14.9"/>
	<path fill="none" stroke="#020202" stroke-width="0.5" stroke-linecap="round" d="M283.5,19.5c-2.1,0-12.5-0.3-30,15
		c-17.2,14.9-26.4,14.9-29.7,14.9"/>
	<path fill="none" stroke="#020202" stroke-width="0.5" stroke-linecap="round" d="M223.8,49.3c-2.1,0-12.5,0.3-30-15
		c-17.2-14.9-26.4-14.9-29.7-14.9"/>
</g>
<line fill="none" stroke="#CDCCCC" stroke-width="0.5" x1="74.7" y1="7.5" x2="74.7" y2="68.2"/>
<path fill="#020202" d="M312.6,101"/>
<line fill="none" stroke="#CDCCCC" stroke-width="0.5" x1="74.8" y1="67.9" x2="313.4" y2="67.9"/>
<g>
	<text transform="matrix(1 0 0 1 289.7549 79.2314)" fill="#010101" font-family="'TheSansMono-W3Light'" font-size="9.928">Time</text>
</g>
<g>
	<text transform="matrix(0 -1 1 0 69.1328 37.6709)" fill="#010101" font-family="'TheSansMono-W3Light'" font-size="9.928">Volts</text>
</g>
<g>
	<text transform="matrix(1 0 0 1 74.6475 90.2637)" fill="#020202" font-family="'TheSerif-HP5Plain'" font-size="11.5827">Analog signal</text>
</g>
<line fill="none" stroke="#CDCCCC" stroke-width="0.5" x1="74.7" y1="7.5" x2="74.7" y2="68.2"/>
<g>
	<path fill="none" stroke="#020202" stroke-width="0.5" d="M283.6,19.5c2.1,0,12.5-0.3,30,15"/>
</g>
<polyline fill="none" stroke="#020202" stroke-width="0.5" points="385.3,35.4 390.8,35.4 390.9,39 396.3,39 396.3,42.7 401.9,42.7 
	401.9,46 407.4,46 407.4,48.1 412.9,48.1 412.9,49.3 418.4,49.3 418.4,49.1 424,49.1 424,47.7 429.5,47.7 429.5,45.2 435,45.2 
	435,42 440.5,42 440.5,37.9 446,37.9 446,33.5 451.5,33.5 451.5,29 457,29 457,25.3 462.5,25.3 462.5,22.4 468.1,22.4 468.1,20.3 
	473.6,20.3 473.6,19.5 479.1,19.5 479.1,19.8 484.6,19.8 484.6,21.4 490.1,21.4 490.1,24 495.6,24 495.6,27.4 501.1,27.4 
	501.1,31.4 506.7,31.4 506.7,35.4 "/>
<polyline fill="none" stroke="#020202" stroke-width="0.5" points="506.7,35.4 512.2,35.4 512.2,39 517.7,39 517.7,42.7 523.2,42.7 
	523.2,46 528.8,46 528.8,48.1 534.3,48.1 534.3,49.3 539.8,49.3 539.7,49.1 545.2,49.1 545.2,47.7 550.8,47.7 550.8,45.2 
	556.3,45.2 556.3,42 561.8,42 561.8,37.9 567.3,37.9 567.3,33.5 572.9,33.5 572.9,29 578.4,29 578.4,25.3 583.9,25.3 583.9,22.4 
	589.4,22.4 589.4,20.3 594.9,20.3 594.9,19.5 600.4,19.5 600.4,19.8 605.9,19.8 605.9,21.4 611.5,21.4 611.5,24 617,24 617,27.4 
	622.5,27.4 622.5,31.4 "/>
</svg>
