<?xml version="1.0" encoding="utf-8"?>
<!-- Generator: Adobe Illustrator 18.0.0, SVG Export Plug-In . SVG Version: 6.00 Build 0)  -->
<!DOCTYPE svg PUBLIC "-//W3C//DTD SVG 1.1//EN" "http://www.w3.org/Graphics/SVG/1.1/DTD/svg11.dtd">
<svg version="1.1" id="Layer_1" xmlns="http://www.w3.org/2000/svg" xmlns:xlink="http://www.w3.org/1999/xlink" x="0px" y="0px"
	 viewBox="0 0 687 296.3" enable-background="new 0 0 687 296.3" xml:space="preserve">
<g>
	<g>
		<g>
			<rect x="345.1" y="84" fill="none" stroke="#CCCCCC" stroke-width="0.5" width="3" height="3"/>
			<rect x="345.1" y="91.9" fill="none" stroke="#CCCCCC" stroke-width="0.5" width="3" height="3"/>
			<rect x="345.1" y="99.8" fill="none" stroke="#CCCCCC" stroke-width="0.5" width="3" height="3"/>
			<rect x="345.1" y="107.7" fill="none" stroke="#CCCCCC" stroke-width="0.5" width="3" height="3"/>
			<rect x="345.1" y="115.5" fill="none" stroke="#CCCCCC" stroke-width="0.5" width="3" height="3"/>
		</g>
		<g>
			<rect x="353.1" y="84" fill="none" stroke="#CCCCCC" stroke-width="0.5" width="3" height="3"/>
			<rect x="353.1" y="91.9" fill="none" stroke="#CCCCCC" stroke-width="0.5" width="3" height="3"/>
			<rect x="353.1" y="99.8" fill="none" stroke="#CCCCCC" stroke-width="0.5" width="3" height="3"/>
			<rect x="353.1" y="107.7" fill="none" stroke="#CCCCCC" stroke-width="0.5" width="3" height="3"/>
			<rect x="353.1" y="115.5" fill="none" stroke="#CCCCCC" stroke-width="0.5" width="3" height="3"/>
		</g>
		<g>
			<rect x="361.1" y="84" fill="none" stroke="#CCCCCC" stroke-width="0.5" width="3" height="3"/>
			<rect x="361.1" y="91.9" fill="none" stroke="#CCCCCC" stroke-width="0.5" width="3" height="3"/>
			<rect x="361.1" y="99.8" fill="none" stroke="#CCCCCC" stroke-width="0.5" width="3" height="3"/>
			<rect x="361.1" y="107.7" fill="none" stroke="#CCCCCC" stroke-width="0.5" width="3" height="3"/>
			<rect x="361.1" y="115.5" fill="none" stroke="#CCCCCC" stroke-width="0.5" width="3" height="3"/>
		</g>
		<g>
			<rect x="369.2" y="84" fill="none" stroke="#CCCCCC" stroke-width="0.5" width="3" height="3"/>
			<rect x="369.2" y="91.9" fill="none" stroke="#CCCCCC" stroke-width="0.5" width="3" height="3"/>
			<rect x="369.2" y="99.8" fill="none" stroke="#CCCCCC" stroke-width="0.5" width="3" height="3"/>
			<rect x="369.2" y="107.7" fill="none" stroke="#CCCCCC" stroke-width="0.5" width="3" height="3"/>
			<rect x="369.2" y="115.5" fill="none" stroke="#CCCCCC" stroke-width="0.5" width="3" height="3"/>
		</g>
		<g>
			<rect x="377.2" y="84" fill="none" stroke="#CCCCCC" stroke-width="0.5" width="3" height="3"/>
			<rect x="377.2" y="91.9" fill="none" stroke="#CCCCCC" stroke-width="0.5" width="3" height="3"/>
			<rect x="377.2" y="99.8" fill="none" stroke="#CCCCCC" stroke-width="0.5" width="3" height="3"/>
			<rect x="377.2" y="107.7" fill="none" stroke="#CCCCCC" stroke-width="0.5" width="3" height="3"/>
			<rect x="377.2" y="115.5" fill="none" stroke="#CCCCCC" stroke-width="0.5" width="3" height="3"/>
		</g>
		<g>
			<rect x="385.2" y="84" fill="none" stroke="#CCCCCC" stroke-width="0.5" width="3" height="3"/>
			<rect x="385.2" y="91.9" fill="none" stroke="#CCCCCC" stroke-width="0.5" width="3" height="3"/>
			<rect x="385.2" y="99.8" fill="none" stroke="#CCCCCC" stroke-width="0.5" width="3" height="3"/>
			<rect x="385.2" y="107.7" fill="none" stroke="#CCCCCC" stroke-width="0.5" width="3" height="3"/>
			<rect x="385.2" y="115.5" fill="none" stroke="#CCCCCC" stroke-width="0.5" width="3" height="3"/>
		</g>
		<g>
			<rect x="393.3" y="84" fill="none" stroke="#CCCCCC" stroke-width="0.5" width="3" height="3"/>
			<rect x="393.3" y="91.9" fill="none" stroke="#CCCCCC" stroke-width="0.5" width="3" height="3"/>
			<rect x="393.3" y="99.8" fill="none" stroke="#CCCCCC" stroke-width="0.5" width="3" height="3"/>
			<rect x="393.3" y="107.7" fill="none" stroke="#CCCCCC" stroke-width="0.5" width="3" height="3"/>
			<rect x="393.3" y="115.5" fill="none" stroke="#CCCCCC" stroke-width="0.5" width="3" height="3"/>
		</g>
		<g>
			<rect x="401.3" y="84" fill="none" stroke="#CCCCCC" stroke-width="0.5" width="3" height="3"/>
			<rect x="401.3" y="91.9" fill="none" stroke="#CCCCCC" stroke-width="0.5" width="3" height="3"/>
			<rect x="401.3" y="99.8" fill="none" stroke="#CCCCCC" stroke-width="0.5" width="3" height="3"/>
			<rect x="401.3" y="107.7" fill="none" stroke="#CCCCCC" stroke-width="0.5" width="3" height="3"/>
			<rect x="401.3" y="115.5" fill="none" stroke="#CCCCCC" stroke-width="0.5" width="3" height="3"/>
		</g>
		<g>
			<rect x="409.3" y="84" fill="none" stroke="#CCCCCC" stroke-width="0.5" width="3" height="3"/>
			<rect x="409.3" y="91.9" fill="none" stroke="#CCCCCC" stroke-width="0.5" width="3" height="3"/>
			<rect x="409.3" y="99.8" fill="none" stroke="#CCCCCC" stroke-width="0.5" width="3" height="3"/>
			<rect x="409.3" y="107.7" fill="none" stroke="#CCCCCC" stroke-width="0.5" width="3" height="3"/>
			<rect x="409.3" y="115.5" fill="none" stroke="#CCCCCC" stroke-width="0.5" width="3" height="3"/>
		</g>
		<g>
			<rect x="417.4" y="84" fill="none" stroke="#CCCCCC" stroke-width="0.5" width="3" height="3"/>
			<rect x="417.4" y="91.9" fill="none" stroke="#CCCCCC" stroke-width="0.5" width="3" height="3"/>
			<rect x="417.4" y="99.8" fill="none" stroke="#CCCCCC" stroke-width="0.5" width="3" height="3"/>
			<rect x="417.4" y="107.7" fill="none" stroke="#CCCCCC" stroke-width="0.5" width="3" height="3"/>
			<rect x="417.4" y="115.5" fill="none" stroke="#CCCCCC" stroke-width="0.5" width="3" height="3"/>
		</g>
		<g>
			<rect x="425.4" y="84" fill="none" stroke="#CCCCCC" stroke-width="0.5" width="3" height="3"/>
			<rect x="425.4" y="91.9" fill="none" stroke="#CCCCCC" stroke-width="0.5" width="3" height="3"/>
			<rect x="425.4" y="99.8" fill="none" stroke="#CCCCCC" stroke-width="0.5" width="3" height="3"/>
			<rect x="425.4" y="107.7" fill="none" stroke="#CCCCCC" stroke-width="0.5" width="3" height="3"/>
			<rect x="425.4" y="115.5" fill="none" stroke="#CCCCCC" stroke-width="0.5" width="3" height="3"/>
		</g>
		<g>
			<rect x="433.4" y="84" fill="none" stroke="#CCCCCC" stroke-width="0.5" width="3" height="3"/>
			<rect x="433.4" y="91.9" fill="none" stroke="#CCCCCC" stroke-width="0.5" width="3" height="3"/>
			<rect x="433.4" y="99.8" fill="none" stroke="#CCCCCC" stroke-width="0.5" width="3" height="3"/>
			<rect x="433.4" y="107.7" fill="none" stroke="#CCCCCC" stroke-width="0.5" width="3" height="3"/>
			<rect x="433.4" y="115.5" fill="none" stroke="#CCCCCC" stroke-width="0.5" width="3" height="3"/>
		</g>
		<g>
			<rect x="441.5" y="84" fill="none" stroke="#CCCCCC" stroke-width="0.5" width="3" height="3"/>
			<rect x="441.5" y="91.9" fill="none" stroke="#CCCCCC" stroke-width="0.5" width="3" height="3"/>
			<rect x="441.5" y="99.8" fill="none" stroke="#CCCCCC" stroke-width="0.5" width="3" height="3"/>
			<rect x="441.5" y="107.7" fill="none" stroke="#CCCCCC" stroke-width="0.5" width="3" height="3"/>
			<rect x="441.5" y="115.5" fill="none" stroke="#CCCCCC" stroke-width="0.5" width="3" height="3"/>
		</g>
		<g>
			<rect x="449.5" y="84" fill="none" stroke="#CCCCCC" stroke-width="0.5" width="3" height="3"/>
			<rect x="449.5" y="91.9" fill="none" stroke="#CCCCCC" stroke-width="0.5" width="3" height="3"/>
			<rect x="449.5" y="99.8" fill="none" stroke="#CCCCCC" stroke-width="0.5" width="3" height="3"/>
			<rect x="449.5" y="107.7" fill="none" stroke="#CCCCCC" stroke-width="0.5" width="3" height="3"/>
			<rect x="449.5" y="115.5" fill="none" stroke="#CCCCCC" stroke-width="0.5" width="3" height="3"/>
		</g>
		<g>
			<rect x="457.6" y="84" fill="none" stroke="#CCCCCC" stroke-width="0.5" width="3" height="3"/>
			<rect x="457.6" y="91.9" fill="none" stroke="#CCCCCC" stroke-width="0.5" width="3" height="3"/>
			<rect x="457.6" y="99.8" fill="none" stroke="#CCCCCC" stroke-width="0.5" width="3" height="3"/>
			<rect x="457.6" y="107.7" fill="none" stroke="#CCCCCC" stroke-width="0.5" width="3" height="3"/>
			<rect x="457.6" y="115.5" fill="none" stroke="#CCCCCC" stroke-width="0.5" width="3" height="3"/>
		</g>
		<g>
			<rect x="465.6" y="84" fill="none" stroke="#CCCCCC" stroke-width="0.5" width="3" height="3"/>
			<rect x="465.6" y="91.9" fill="none" stroke="#CCCCCC" stroke-width="0.5" width="3" height="3"/>
			<rect x="465.6" y="99.8" fill="none" stroke="#CCCCCC" stroke-width="0.5" width="3" height="3"/>
			<rect x="465.6" y="107.7" fill="none" stroke="#CCCCCC" stroke-width="0.5" width="3" height="3"/>
			<rect x="465.6" y="115.5" fill="none" stroke="#CCCCCC" stroke-width="0.5" width="3" height="3"/>
		</g>
		<g>
			<rect x="473.6" y="84" fill="none" stroke="#CCCCCC" stroke-width="0.5" width="3" height="3"/>
			<rect x="473.6" y="91.9" fill="none" stroke="#CCCCCC" stroke-width="0.5" width="3" height="3"/>
			<rect x="473.6" y="99.8" fill="none" stroke="#CCCCCC" stroke-width="0.5" width="3" height="3"/>
			<rect x="473.6" y="107.7" fill="none" stroke="#CCCCCC" stroke-width="0.5" width="3" height="3"/>
			<rect x="473.6" y="115.5" fill="none" stroke="#CCCCCC" stroke-width="0.5" width="3" height="3"/>
		</g>
		<g>
			<rect x="481.7" y="84" fill="none" stroke="#CCCCCC" stroke-width="0.5" width="3" height="3"/>
			<rect x="481.7" y="91.9" fill="none" stroke="#CCCCCC" stroke-width="0.5" width="3" height="3"/>
			<rect x="481.7" y="99.8" fill="none" stroke="#CCCCCC" stroke-width="0.5" width="3" height="3"/>
			<rect x="481.7" y="107.7" fill="none" stroke="#CCCCCC" stroke-width="0.5" width="3" height="3"/>
			<rect x="481.7" y="115.5" fill="none" stroke="#CCCCCC" stroke-width="0.5" width="3" height="3"/>
		</g>
		<g>
			<rect x="489.7" y="84" fill="none" stroke="#CCCCCC" stroke-width="0.5" width="3" height="3"/>
			<rect x="489.7" y="91.9" fill="none" stroke="#CCCCCC" stroke-width="0.5" width="3" height="3"/>
			<rect x="489.7" y="99.8" fill="none" stroke="#CCCCCC" stroke-width="0.5" width="3" height="3"/>
			<rect x="489.7" y="107.7" fill="none" stroke="#CCCCCC" stroke-width="0.5" width="3" height="3"/>
			<rect x="489.7" y="115.5" fill="none" stroke="#CCCCCC" stroke-width="0.5" width="3" height="3"/>
		</g>
		<g>
			<rect x="497.7" y="84" fill="none" stroke="#CCCCCC" stroke-width="0.5" width="3" height="3"/>
			<rect x="497.7" y="91.9" fill="none" stroke="#CCCCCC" stroke-width="0.5" width="3" height="3"/>
			<rect x="497.7" y="99.8" fill="none" stroke="#CCCCCC" stroke-width="0.5" width="3" height="3"/>
			<rect x="497.7" y="107.7" fill="none" stroke="#CCCCCC" stroke-width="0.5" width="3" height="3"/>
			<rect x="497.7" y="115.5" fill="none" stroke="#CCCCCC" stroke-width="0.5" width="3" height="3"/>
		</g>
		<g>
			<rect x="505.8" y="84" fill="none" stroke="#CCCCCC" stroke-width="0.5" width="3" height="3"/>
			<rect x="505.8" y="91.9" fill="none" stroke="#CCCCCC" stroke-width="0.5" width="3" height="3"/>
			<rect x="505.8" y="99.8" fill="none" stroke="#CCCCCC" stroke-width="0.5" width="3" height="3"/>
			<rect x="505.8" y="107.7" fill="none" stroke="#CCCCCC" stroke-width="0.5" width="3" height="3"/>
			<rect x="505.8" y="115.5" fill="none" stroke="#CCCCCC" stroke-width="0.5" width="3" height="3"/>
		</g>
		<g>
			<rect x="513.8" y="84" fill="none" stroke="#CCCCCC" stroke-width="0.5" width="3" height="3"/>
			<rect x="513.8" y="91.9" fill="none" stroke="#CCCCCC" stroke-width="0.5" width="3" height="3"/>
			<rect x="513.8" y="99.8" fill="none" stroke="#CCCCCC" stroke-width="0.5" width="3" height="3"/>
			<rect x="513.8" y="107.7" fill="none" stroke="#CCCCCC" stroke-width="0.5" width="3" height="3"/>
			<rect x="513.8" y="115.5" fill="none" stroke="#CCCCCC" stroke-width="0.5" width="3" height="3"/>
		</g>
		<g>
			<rect x="521.8" y="84" fill="none" stroke="#CCCCCC" stroke-width="0.5" width="3" height="3"/>
			<rect x="521.8" y="91.9" fill="none" stroke="#CCCCCC" stroke-width="0.5" width="3" height="3"/>
			<rect x="521.8" y="99.8" fill="none" stroke="#CCCCCC" stroke-width="0.5" width="3" height="3"/>
			<rect x="521.8" y="107.7" fill="none" stroke="#CCCCCC" stroke-width="0.5" width="3" height="3"/>
			<rect x="521.8" y="115.5" fill="none" stroke="#CCCCCC" stroke-width="0.5" width="3" height="3"/>
		</g>
		<g>
			<rect x="312.9" y="84" fill="none" stroke="#CCCCCC" stroke-width="0.5" width="3" height="3"/>
			<rect x="312.9" y="91.9" fill="none" stroke="#CCCCCC" stroke-width="0.5" width="3" height="3"/>
			<rect x="312.9" y="99.8" fill="none" stroke="#CCCCCC" stroke-width="0.5" width="3" height="3"/>
			<rect x="312.9" y="107.7" fill="none" stroke="#CCCCCC" stroke-width="0.5" width="3" height="3"/>
			<rect x="312.9" y="115.5" fill="none" stroke="#CCCCCC" stroke-width="0.5" width="3" height="3"/>
		</g>
		<g>
			<rect x="321" y="84" fill="none" stroke="#CCCCCC" stroke-width="0.5" width="3" height="3"/>
			<rect x="321" y="91.9" fill="none" stroke="#CCCCCC" stroke-width="0.5" width="3" height="3"/>
			<rect x="321" y="99.8" fill="none" stroke="#CCCCCC" stroke-width="0.5" width="3" height="3"/>
			<rect x="321" y="107.7" fill="none" stroke="#CCCCCC" stroke-width="0.5" width="3" height="3"/>
			<rect x="321" y="115.5" fill="none" stroke="#CCCCCC" stroke-width="0.5" width="3" height="3"/>
		</g>
		<g>
			<rect x="329" y="84" fill="none" stroke="#CCCCCC" stroke-width="0.5" width="3" height="3"/>
			<rect x="329" y="91.9" fill="none" stroke="#CCCCCC" stroke-width="0.5" width="3" height="3"/>
			<rect x="329" y="99.8" fill="none" stroke="#CCCCCC" stroke-width="0.5" width="3" height="3"/>
			<rect x="329" y="107.7" fill="none" stroke="#CCCCCC" stroke-width="0.5" width="3" height="3"/>
			<rect x="329" y="115.5" fill="none" stroke="#CCCCCC" stroke-width="0.5" width="3" height="3"/>
		</g>
		<g>
			<rect x="337" y="84" fill="none" stroke="#CCCCCC" stroke-width="0.5" width="3" height="3"/>
			<rect x="337" y="91.9" fill="none" stroke="#CCCCCC" stroke-width="0.5" width="3" height="3"/>
			<rect x="337" y="99.8" fill="none" stroke="#CCCCCC" stroke-width="0.5" width="3" height="3"/>
			<rect x="337" y="107.7" fill="none" stroke="#CCCCCC" stroke-width="0.5" width="3" height="3"/>
			<rect x="337" y="115.5" fill="none" stroke="#CCCCCC" stroke-width="0.5" width="3" height="3"/>
		</g>
		<g>
			<rect x="288.8" y="84" fill="none" stroke="#CCCCCC" stroke-width="0.5" width="3" height="3"/>
			<rect x="288.8" y="91.9" fill="none" stroke="#CCCCCC" stroke-width="0.5" width="3" height="3"/>
			<rect x="288.8" y="99.8" fill="none" stroke="#CCCCCC" stroke-width="0.5" width="3" height="3"/>
			<rect x="288.8" y="107.7" fill="none" stroke="#CCCCCC" stroke-width="0.5" width="3" height="3"/>
			<rect x="288.8" y="115.5" fill="none" stroke="#CCCCCC" stroke-width="0.5" width="3" height="3"/>
		</g>
		<g>
			<rect x="296.9" y="84" fill="none" stroke="#CCCCCC" stroke-width="0.5" width="3" height="3"/>
			<rect x="296.9" y="91.9" fill="none" stroke="#CCCCCC" stroke-width="0.5" width="3" height="3"/>
			<rect x="296.9" y="99.8" fill="none" stroke="#CCCCCC" stroke-width="0.5" width="3" height="3"/>
			<rect x="296.9" y="107.7" fill="none" stroke="#CCCCCC" stroke-width="0.5" width="3" height="3"/>
			<rect x="296.9" y="115.5" fill="none" stroke="#CCCCCC" stroke-width="0.5" width="3" height="3"/>
		</g>
		<g>
			<rect x="304.9" y="84" fill="none" stroke="#CCCCCC" stroke-width="0.5" width="3" height="3"/>
			<rect x="304.9" y="91.9" fill="none" stroke="#CCCCCC" stroke-width="0.5" width="3" height="3"/>
			<rect x="304.9" y="99.8" fill="none" stroke="#CCCCCC" stroke-width="0.5" width="3" height="3"/>
			<rect x="304.9" y="107.7" fill="none" stroke="#CCCCCC" stroke-width="0.5" width="3" height="3"/>
			<rect x="304.9" y="115.5" fill="none" stroke="#CCCCCC" stroke-width="0.5" width="3" height="3"/>
		</g>
	</g>
	<g>
		<g>
			<rect x="345.1" y="138.7" fill="none" stroke="#CCCCCC" stroke-width="0.5" width="3" height="3"/>
			<rect x="345.1" y="146.6" fill="none" stroke="#CCCCCC" stroke-width="0.5" width="3" height="3"/>
			<rect x="345.1" y="154.4" fill="none" stroke="#CCCCCC" stroke-width="0.5" width="3" height="3"/>
			<rect x="345.1" y="162.3" fill="none" stroke="#CCCCCC" stroke-width="0.5" width="3" height="3"/>
			<rect x="345.1" y="170.2" fill="none" stroke="#CCCCCC" stroke-width="0.5" width="3" height="3"/>
		</g>
		<g>
			<rect x="353.1" y="138.7" fill="none" stroke="#CCCCCC" stroke-width="0.5" width="3" height="3"/>
			<rect x="353.1" y="146.6" fill="none" stroke="#CCCCCC" stroke-width="0.5" width="3" height="3"/>
			<rect x="353.1" y="154.4" fill="none" stroke="#CCCCCC" stroke-width="0.5" width="3" height="3"/>
			<rect x="353.1" y="162.3" fill="none" stroke="#CCCCCC" stroke-width="0.5" width="3" height="3"/>
			<rect x="353.1" y="170.2" fill="none" stroke="#CCCCCC" stroke-width="0.5" width="3" height="3"/>
		</g>
		<g>
			<rect x="361.1" y="138.7" fill="none" stroke="#CCCCCC" stroke-width="0.5" width="3" height="3"/>
			<rect x="361.1" y="146.6" fill="none" stroke="#CCCCCC" stroke-width="0.5" width="3" height="3"/>
			<rect x="361.1" y="154.4" fill="none" stroke="#CCCCCC" stroke-width="0.5" width="3" height="3"/>
			<rect x="361.1" y="162.3" fill="none" stroke="#CCCCCC" stroke-width="0.5" width="3" height="3"/>
			<rect x="361.1" y="170.2" fill="none" stroke="#CCCCCC" stroke-width="0.5" width="3" height="3"/>
		</g>
		<g>
			<rect x="369.2" y="138.7" fill="none" stroke="#CCCCCC" stroke-width="0.5" width="3" height="3"/>
			<rect x="369.2" y="146.6" fill="none" stroke="#CCCCCC" stroke-width="0.5" width="3" height="3"/>
			<rect x="369.2" y="154.4" fill="none" stroke="#CCCCCC" stroke-width="0.5" width="3" height="3"/>
			<rect x="369.2" y="162.3" fill="none" stroke="#CCCCCC" stroke-width="0.5" width="3" height="3"/>
			<rect x="369.2" y="170.2" fill="none" stroke="#CCCCCC" stroke-width="0.5" width="3" height="3"/>
		</g>
		<g>
			<rect x="377.2" y="138.7" fill="none" stroke="#CCCCCC" stroke-width="0.5" width="3" height="3"/>
			<rect x="377.2" y="146.6" fill="none" stroke="#CCCCCC" stroke-width="0.5" width="3" height="3"/>
			<rect x="377.2" y="154.4" fill="none" stroke="#CCCCCC" stroke-width="0.5" width="3" height="3"/>
			<rect x="377.2" y="162.3" fill="none" stroke="#CCCCCC" stroke-width="0.5" width="3" height="3"/>
			<rect x="377.2" y="170.2" fill="none" stroke="#CCCCCC" stroke-width="0.5" width="3" height="3"/>
		</g>
		<g>
			<rect x="385.2" y="138.7" fill="none" stroke="#CCCCCC" stroke-width="0.5" width="3" height="3"/>
			<rect x="385.2" y="146.6" fill="none" stroke="#CCCCCC" stroke-width="0.5" width="3" height="3"/>
			<rect x="385.2" y="154.4" fill="none" stroke="#CCCCCC" stroke-width="0.5" width="3" height="3"/>
			<rect x="385.2" y="162.3" fill="none" stroke="#CCCCCC" stroke-width="0.5" width="3" height="3"/>
			<rect x="385.2" y="170.2" fill="none" stroke="#CCCCCC" stroke-width="0.5" width="3" height="3"/>
		</g>
		<g>
			<rect x="393.3" y="138.7" fill="none" stroke="#CCCCCC" stroke-width="0.5" width="3" height="3"/>
			<rect x="393.3" y="146.6" fill="none" stroke="#CCCCCC" stroke-width="0.5" width="3" height="3"/>
			<rect x="393.3" y="154.4" fill="none" stroke="#CCCCCC" stroke-width="0.5" width="3" height="3"/>
			<rect x="393.3" y="162.3" fill="none" stroke="#CCCCCC" stroke-width="0.5" width="3" height="3"/>
			<rect x="393.3" y="170.2" fill="none" stroke="#CCCCCC" stroke-width="0.5" width="3" height="3"/>
		</g>
		<g>
			<rect x="401.3" y="138.7" fill="none" stroke="#CCCCCC" stroke-width="0.5" width="3" height="3"/>
			<rect x="401.3" y="146.6" fill="none" stroke="#CCCCCC" stroke-width="0.5" width="3" height="3"/>
			<rect x="401.3" y="154.4" fill="none" stroke="#CCCCCC" stroke-width="0.5" width="3" height="3"/>
			<rect x="401.3" y="162.3" fill="none" stroke="#CCCCCC" stroke-width="0.5" width="3" height="3"/>
			<rect x="401.3" y="170.2" fill="none" stroke="#CCCCCC" stroke-width="0.5" width="3" height="3"/>
		</g>
		<g>
			<rect x="409.3" y="138.7" fill="none" stroke="#CCCCCC" stroke-width="0.5" width="3" height="3"/>
			<rect x="409.3" y="146.6" fill="none" stroke="#CCCCCC" stroke-width="0.5" width="3" height="3"/>
			<rect x="409.3" y="154.4" fill="none" stroke="#CCCCCC" stroke-width="0.5" width="3" height="3"/>
			<rect x="409.3" y="162.3" fill="none" stroke="#CCCCCC" stroke-width="0.5" width="3" height="3"/>
			<rect x="409.3" y="170.2" fill="none" stroke="#CCCCCC" stroke-width="0.5" width="3" height="3"/>
		</g>
		<g>
			<rect x="417.4" y="138.7" fill="none" stroke="#CCCCCC" stroke-width="0.5" width="3" height="3"/>
			<rect x="417.4" y="146.6" fill="none" stroke="#CCCCCC" stroke-width="0.5" width="3" height="3"/>
			<rect x="417.4" y="154.4" fill="none" stroke="#CCCCCC" stroke-width="0.5" width="3" height="3"/>
			<rect x="417.4" y="162.3" fill="none" stroke="#CCCCCC" stroke-width="0.5" width="3" height="3"/>
			<rect x="417.4" y="170.2" fill="none" stroke="#CCCCCC" stroke-width="0.5" width="3" height="3"/>
		</g>
		<g>
			<rect x="425.4" y="138.7" fill="none" stroke="#CCCCCC" stroke-width="0.5" width="3" height="3"/>
			<rect x="425.4" y="146.6" fill="none" stroke="#CCCCCC" stroke-width="0.5" width="3" height="3"/>
			<rect x="425.4" y="154.4" fill="none" stroke="#CCCCCC" stroke-width="0.5" width="3" height="3"/>
			<rect x="425.4" y="162.3" fill="none" stroke="#CCCCCC" stroke-width="0.5" width="3" height="3"/>
			<rect x="425.4" y="170.2" fill="none" stroke="#CCCCCC" stroke-width="0.5" width="3" height="3"/>
		</g>
		<g>
			<rect x="433.4" y="138.7" fill="none" stroke="#CCCCCC" stroke-width="0.5" width="3" height="3"/>
			<rect x="433.4" y="146.6" fill="none" stroke="#CCCCCC" stroke-width="0.5" width="3" height="3"/>
			<rect x="433.4" y="154.4" fill="none" stroke="#CCCCCC" stroke-width="0.5" width="3" height="3"/>
			<rect x="433.4" y="162.3" fill="none" stroke="#CCCCCC" stroke-width="0.5" width="3" height="3"/>
			<rect x="433.4" y="170.2" fill="none" stroke="#CCCCCC" stroke-width="0.5" width="3" height="3"/>
		</g>
		<g>
			<rect x="441.5" y="138.7" fill="none" stroke="#CCCCCC" stroke-width="0.5" width="3" height="3"/>
			<rect x="441.5" y="146.6" fill="none" stroke="#CCCCCC" stroke-width="0.5" width="3" height="3"/>
			<rect x="441.5" y="154.4" fill="none" stroke="#CCCCCC" stroke-width="0.5" width="3" height="3"/>
			<rect x="441.5" y="162.3" fill="none" stroke="#CCCCCC" stroke-width="0.5" width="3" height="3"/>
			<rect x="441.5" y="170.2" fill="none" stroke="#CCCCCC" stroke-width="0.5" width="3" height="3"/>
		</g>
		<g>
			<rect x="449.5" y="138.7" fill="none" stroke="#CCCCCC" stroke-width="0.5" width="3" height="3"/>
			<rect x="449.5" y="146.6" fill="none" stroke="#CCCCCC" stroke-width="0.5" width="3" height="3"/>
			<rect x="449.5" y="154.4" fill="none" stroke="#CCCCCC" stroke-width="0.5" width="3" height="3"/>
			<rect x="449.5" y="162.3" fill="none" stroke="#CCCCCC" stroke-width="0.5" width="3" height="3"/>
			<rect x="449.5" y="170.2" fill="none" stroke="#CCCCCC" stroke-width="0.5" width="3" height="3"/>
		</g>
		<g>
			<rect x="457.6" y="138.7" fill="none" stroke="#CCCCCC" stroke-width="0.5" width="3" height="3"/>
			<rect x="457.6" y="146.6" fill="none" stroke="#CCCCCC" stroke-width="0.5" width="3" height="3"/>
			<rect x="457.6" y="154.4" fill="none" stroke="#CCCCCC" stroke-width="0.5" width="3" height="3"/>
			<rect x="457.6" y="162.3" fill="none" stroke="#CCCCCC" stroke-width="0.5" width="3" height="3"/>
			<rect x="457.6" y="170.2" fill="none" stroke="#CCCCCC" stroke-width="0.5" width="3" height="3"/>
		</g>
		<g>
			<rect x="465.6" y="138.7" fill="none" stroke="#CCCCCC" stroke-width="0.5" width="3" height="3"/>
			<rect x="465.6" y="146.6" fill="none" stroke="#CCCCCC" stroke-width="0.5" width="3" height="3"/>
			<rect x="465.6" y="154.4" fill="none" stroke="#CCCCCC" stroke-width="0.5" width="3" height="3"/>
			<rect x="465.6" y="162.3" fill="none" stroke="#CCCCCC" stroke-width="0.5" width="3" height="3"/>
			<rect x="465.6" y="170.2" fill="none" stroke="#CCCCCC" stroke-width="0.5" width="3" height="3"/>
		</g>
		<rect x="473.6" y="138.7" fill="none" stroke="#CCCCCC" stroke-width="0.5" width="3" height="3"/>
		<rect x="473.6" y="146.6" fill="none" stroke="#CCCCCC" stroke-width="0.5" width="3" height="3"/>
		<rect x="473.6" y="154.4" fill="none" stroke="#CCCCCC" stroke-width="0.5" width="3" height="3"/>
		<rect x="473.6" y="162.3" fill="none" stroke="#CCCCCC" stroke-width="0.5" width="3" height="3"/>
		<rect x="473.6" y="170.2" fill="none" stroke="#CCCCCC" stroke-width="0.5" width="3" height="3"/>
		<rect x="481.7" y="138.7" fill="none" stroke="#CCCCCC" stroke-width="0.5" width="3" height="3"/>
		<rect x="481.7" y="146.6" fill="none" stroke="#CCCCCC" stroke-width="0.5" width="3" height="3"/>
		<rect x="481.7" y="154.4" fill="none" stroke="#CCCCCC" stroke-width="0.5" width="3" height="3"/>
		<rect x="481.7" y="162.3" fill="none" stroke="#CCCCCC" stroke-width="0.5" width="3" height="3"/>
		<rect x="481.7" y="170.2" fill="none" stroke="#CCCCCC" stroke-width="0.5" width="3" height="3"/>
		<rect x="489.7" y="138.7" fill="none" stroke="#CCCCCC" stroke-width="0.5" width="3" height="3"/>
		<rect x="489.7" y="146.6" fill="none" stroke="#CCCCCC" stroke-width="0.5" width="3" height="3"/>
		<rect x="489.7" y="154.4" fill="none" stroke="#CCCCCC" stroke-width="0.5" width="3" height="3"/>
		<rect x="489.7" y="162.3" fill="none" stroke="#CCCCCC" stroke-width="0.5" width="3" height="3"/>
		<rect x="489.7" y="170.2" fill="none" stroke="#CCCCCC" stroke-width="0.5" width="3" height="3"/>
		<rect x="497.7" y="138.7" fill="none" stroke="#CCCCCC" stroke-width="0.5" width="3" height="3"/>
		<rect x="497.7" y="146.6" fill="none" stroke="#CCCCCC" stroke-width="0.5" width="3" height="3"/>
		<rect x="497.7" y="154.4" fill="none" stroke="#CCCCCC" stroke-width="0.5" width="3" height="3"/>
		<rect x="497.7" y="162.3" fill="none" stroke="#CCCCCC" stroke-width="0.5" width="3" height="3"/>
		<rect x="497.7" y="170.2" fill="none" stroke="#CCCCCC" stroke-width="0.5" width="3" height="3"/>
		<rect x="505.8" y="138.7" fill="none" stroke="#CCCCCC" stroke-width="0.5" width="3" height="3"/>
		<rect x="505.8" y="146.6" fill="none" stroke="#CCCCCC" stroke-width="0.5" width="3" height="3"/>
		<rect x="505.8" y="154.4" fill="none" stroke="#CCCCCC" stroke-width="0.5" width="3" height="3"/>
		<rect x="505.8" y="162.3" fill="none" stroke="#CCCCCC" stroke-width="0.5" width="3" height="3"/>
		<rect x="505.8" y="170.2" fill="none" stroke="#CCCCCC" stroke-width="0.5" width="3" height="3"/>
		<rect x="513.8" y="138.7" fill="none" stroke="#CCCCCC" stroke-width="0.5" width="3" height="3"/>
		<rect x="513.8" y="146.6" fill="none" stroke="#CCCCCC" stroke-width="0.5" width="3" height="3"/>
		<rect x="513.8" y="154.4" fill="none" stroke="#CCCCCC" stroke-width="0.5" width="3" height="3"/>
		<rect x="513.8" y="162.3" fill="none" stroke="#CCCCCC" stroke-width="0.5" width="3" height="3"/>
		<rect x="513.8" y="170.2" fill="none" stroke="#CCCCCC" stroke-width="0.5" width="3" height="3"/>
		<rect x="521.8" y="138.7" fill="none" stroke="#CCCCCC" stroke-width="0.5" width="3" height="3"/>
		<rect x="521.8" y="146.6" fill="none" stroke="#CCCCCC" stroke-width="0.5" width="3" height="3"/>
		<rect x="521.8" y="154.4" fill="none" stroke="#CCCCCC" stroke-width="0.5" width="3" height="3"/>
		<rect x="521.8" y="162.3" fill="none" stroke="#CCCCCC" stroke-width="0.5" width="3" height="3"/>
		<rect x="521.8" y="170.2" fill="none" stroke="#CCCCCC" stroke-width="0.5" width="3" height="3"/>
		<g>
			<rect x="312.9" y="138.7" fill="none" stroke="#CCCCCC" stroke-width="0.5" width="3" height="3"/>
			<rect x="312.9" y="146.6" fill="none" stroke="#CCCCCC" stroke-width="0.5" width="3" height="3"/>
			<rect x="312.9" y="154.4" fill="none" stroke="#CCCCCC" stroke-width="0.5" width="3" height="3"/>
			<rect x="312.9" y="162.3" fill="none" stroke="#CCCCCC" stroke-width="0.5" width="3" height="3"/>
			<rect x="312.9" y="170.2" fill="none" stroke="#CCCCCC" stroke-width="0.5" width="3" height="3"/>
		</g>
		<g>
			<rect x="321" y="138.7" fill="none" stroke="#CCCCCC" stroke-width="0.5" width="3" height="3"/>
			<rect x="321" y="146.6" fill="none" stroke="#CCCCCC" stroke-width="0.5" width="3" height="3"/>
			<rect x="321" y="154.4" fill="none" stroke="#CCCCCC" stroke-width="0.5" width="3" height="3"/>
			<rect x="321" y="162.3" fill="none" stroke="#CCCCCC" stroke-width="0.5" width="3" height="3"/>
			<rect x="321" y="170.2" fill="none" stroke="#CCCCCC" stroke-width="0.5" width="3" height="3"/>
		</g>
		<g>
			<rect x="329" y="138.7" fill="none" stroke="#CCCCCC" stroke-width="0.5" width="3" height="3"/>
			<rect x="329" y="146.6" fill="none" stroke="#CCCCCC" stroke-width="0.5" width="3" height="3"/>
			<rect x="329" y="154.4" fill="none" stroke="#CCCCCC" stroke-width="0.5" width="3" height="3"/>
			<rect x="329" y="162.3" fill="none" stroke="#CCCCCC" stroke-width="0.5" width="3" height="3"/>
			<rect x="329" y="170.2" fill="none" stroke="#CCCCCC" stroke-width="0.5" width="3" height="3"/>
		</g>
		<g>
			<rect x="337" y="138.7" fill="none" stroke="#CCCCCC" stroke-width="0.5" width="3" height="3"/>
			<rect x="337" y="146.6" fill="none" stroke="#CCCCCC" stroke-width="0.5" width="3" height="3"/>
			<rect x="337" y="154.4" fill="none" stroke="#CCCCCC" stroke-width="0.5" width="3" height="3"/>
			<rect x="337" y="162.3" fill="none" stroke="#CCCCCC" stroke-width="0.5" width="3" height="3"/>
			<rect x="337" y="170.2" fill="none" stroke="#CCCCCC" stroke-width="0.5" width="3" height="3"/>
		</g>
		<g>
			<rect x="288.8" y="138.7" fill="none" stroke="#CCCCCC" stroke-width="0.5" width="3" height="3"/>
			<rect x="288.8" y="146.6" fill="none" stroke="#CCCCCC" stroke-width="0.5" width="3" height="3"/>
			<rect x="288.8" y="154.4" fill="none" stroke="#CCCCCC" stroke-width="0.5" width="3" height="3"/>
			<rect x="288.8" y="162.3" fill="none" stroke="#CCCCCC" stroke-width="0.5" width="3" height="3"/>
			<rect x="288.8" y="170.2" fill="none" stroke="#CCCCCC" stroke-width="0.5" width="3" height="3"/>
		</g>
		<g>
			<rect x="296.9" y="138.7" fill="none" stroke="#CCCCCC" stroke-width="0.5" width="3" height="3"/>
			<rect x="296.9" y="146.6" fill="none" stroke="#CCCCCC" stroke-width="0.5" width="3" height="3"/>
			<rect x="296.9" y="154.4" fill="none" stroke="#CCCCCC" stroke-width="0.5" width="3" height="3"/>
			<rect x="296.9" y="162.3" fill="none" stroke="#CCCCCC" stroke-width="0.5" width="3" height="3"/>
			<rect x="296.9" y="170.2" fill="none" stroke="#CCCCCC" stroke-width="0.5" width="3" height="3"/>
		</g>
		<g>
			<rect x="304.9" y="138.7" fill="none" stroke="#CCCCCC" stroke-width="0.5" width="3" height="3"/>
			<rect x="304.9" y="146.6" fill="none" stroke="#CCCCCC" stroke-width="0.5" width="3" height="3"/>
			<rect x="304.9" y="154.4" fill="none" stroke="#CCCCCC" stroke-width="0.5" width="3" height="3"/>
			<rect x="304.9" y="162.3" fill="none" stroke="#CCCCCC" stroke-width="0.5" width="3" height="3"/>
			<rect x="304.9" y="170.2" fill="none" stroke="#CCCCCC" stroke-width="0.5" width="3" height="3"/>
		</g>
	</g>
	<g>
		<g>
			<g>
				<rect x="320.3" y="52" fill="none" stroke="#CCCCCC" stroke-width="0.5" width="3" height="3"/>
				<rect x="312.5" y="52" fill="none" stroke="#CCCCCC" stroke-width="0.5" width="3" height="3"/>
				<rect x="304.6" y="52" fill="none" stroke="#CCCCCC" stroke-width="0.5" width="3" height="3"/>
				<rect x="296.7" y="52" fill="none" stroke="#CCCCCC" stroke-width="0.5" width="3" height="3"/>
				<rect x="288.8" y="52" fill="none" stroke="#CCCCCC" stroke-width="0.5" width="3" height="3"/>
			</g>
			<g>
				<rect x="288.8" y="59.9" fill="none" stroke="#CCCCCC" stroke-width="0.5" width="3" height="3"/>
				<rect x="296.7" y="59.9" fill="none" stroke="#CCCCCC" stroke-width="0.5" width="3" height="3"/>
				<rect x="304.6" y="59.9" fill="none" stroke="#CCCCCC" stroke-width="0.5" width="3" height="3"/>
				<rect x="312.5" y="59.9" fill="none" stroke="#CCCCCC" stroke-width="0.5" width="3" height="3"/>
				<rect x="320.3" y="59.9" fill="none" stroke="#CCCCCC" stroke-width="0.5" width="3" height="3"/>
			</g>
		</g>
		<g>
			<g>
				<rect x="368.6" y="52" fill="none" stroke="#CCCCCC" stroke-width="0.5" width="3" height="3"/>
				<rect x="360.7" y="52" fill="none" stroke="#CCCCCC" stroke-width="0.5" width="3" height="3"/>
				<rect x="352.8" y="52" fill="none" stroke="#CCCCCC" stroke-width="0.5" width="3" height="3"/>
				<rect x="344.9" y="52" fill="none" stroke="#CCCCCC" stroke-width="0.5" width="3" height="3"/>
				<rect x="337" y="52" fill="none" stroke="#CCCCCC" stroke-width="0.5" width="3" height="3"/>
			</g>
			<g>
				<rect x="337" y="59.9" fill="none" stroke="#CCCCCC" stroke-width="0.5" width="3" height="3"/>
				<rect x="344.9" y="59.9" fill="none" stroke="#CCCCCC" stroke-width="0.5" width="3" height="3"/>
				<rect x="352.8" y="59.9" fill="none" stroke="#CCCCCC" stroke-width="0.5" width="3" height="3"/>
				<rect x="360.7" y="59.9" fill="none" stroke="#CCCCCC" stroke-width="0.5" width="3" height="3"/>
				<rect x="368.6" y="59.9" fill="none" stroke="#CCCCCC" stroke-width="0.5" width="3" height="3"/>
			</g>
		</g>
		<g>
			<g>
				<rect x="416.8" y="52" fill="none" stroke="#CCCCCC" stroke-width="0.5" width="3" height="3"/>
				<rect x="408.9" y="52" fill="none" stroke="#CCCCCC" stroke-width="0.5" width="3" height="3"/>
				<rect x="401" y="52" fill="none" stroke="#CCCCCC" stroke-width="0.5" width="3" height="3"/>
				<rect x="393.1" y="52" fill="none" stroke="#CCCCCC" stroke-width="0.5" width="3" height="3"/>
				<rect x="385.2" y="52" fill="none" stroke="#CCCCCC" stroke-width="0.5" width="3" height="3"/>
			</g>
			<g>
				<rect x="385.2" y="59.9" fill="none" stroke="#CCCCCC" stroke-width="0.5" width="3" height="3"/>
				<rect x="393.1" y="59.9" fill="none" stroke="#CCCCCC" stroke-width="0.5" width="3" height="3"/>
				<rect x="401" y="59.9" fill="none" stroke="#CCCCCC" stroke-width="0.5" width="3" height="3"/>
				<rect x="408.9" y="59.9" fill="none" stroke="#CCCCCC" stroke-width="0.5" width="3" height="3"/>
				<rect x="416.8" y="59.9" fill="none" stroke="#CCCCCC" stroke-width="0.5" width="3" height="3"/>
			</g>
		</g>
		<g>
			<g>
				<rect x="465" y="52" fill="none" stroke="#CCCCCC" stroke-width="0.5" width="3" height="3"/>
				<rect x="457.1" y="52" fill="none" stroke="#CCCCCC" stroke-width="0.5" width="3" height="3"/>
				<rect x="449.2" y="52" fill="none" stroke="#CCCCCC" stroke-width="0.5" width="3" height="3"/>
				<rect x="441.3" y="52" fill="none" stroke="#CCCCCC" stroke-width="0.5" width="3" height="3"/>
				<rect x="433.4" y="52" fill="none" stroke="#CCCCCC" stroke-width="0.5" width="3" height="3"/>
			</g>
			<g>
				<rect x="433.4" y="59.9" fill="none" stroke="#CCCCCC" stroke-width="0.5" width="3" height="3"/>
				<rect x="441.3" y="59.9" fill="none" stroke="#CCCCCC" stroke-width="0.5" width="3" height="3"/>
				<rect x="449.2" y="59.9" fill="none" stroke="#CCCCCC" stroke-width="0.5" width="3" height="3"/>
				<rect x="457.1" y="59.9" fill="none" stroke="#CCCCCC" stroke-width="0.5" width="3" height="3"/>
				<rect x="465" y="59.9" fill="none" stroke="#CCCCCC" stroke-width="0.5" width="3" height="3"/>
			</g>
		</g>
		<g>
			<g>
				<rect x="513.2" y="52" fill="none" stroke="#CCCCCC" stroke-width="0.5" width="3" height="3"/>
				<rect x="505.3" y="52" fill="none" stroke="#CCCCCC" stroke-width="0.5" width="3" height="3"/>
				<rect x="497.4" y="52" fill="none" stroke="#CCCCCC" stroke-width="0.5" width="3" height="3"/>
				<rect x="489.5" y="52" fill="none" stroke="#CCCCCC" stroke-width="0.5" width="3" height="3"/>
				<rect x="481.7" y="52" fill="none" stroke="#CCCCCC" stroke-width="0.5" width="3" height="3"/>
			</g>
			<g>
				<rect x="481.7" y="59.9" fill="none" stroke="#CCCCCC" stroke-width="0.5" width="3" height="3"/>
				<rect x="489.5" y="59.9" fill="none" stroke="#CCCCCC" stroke-width="0.5" width="3" height="3"/>
				<rect x="497.4" y="59.9" fill="none" stroke="#CCCCCC" stroke-width="0.5" width="3" height="3"/>
				<rect x="505.3" y="59.9" fill="none" stroke="#CCCCCC" stroke-width="0.5" width="3" height="3"/>
				<rect x="513.2" y="59.9" fill="none" stroke="#CCCCCC" stroke-width="0.5" width="3" height="3"/>
			</g>
		</g>
	</g>
	<g>
		<g>
			<g>
				<rect x="320.3" y="195.7" fill="none" stroke="#CCCCCC" stroke-width="0.5" width="3" height="3"/>
				<rect x="312.5" y="195.7" fill="none" stroke="#CCCCCC" stroke-width="0.5" width="3" height="3"/>
				<rect x="304.6" y="195.7" fill="none" stroke="#CCCCCC" stroke-width="0.5" width="3" height="3"/>
				<rect x="296.7" y="195.7" fill="none" stroke="#CCCCCC" stroke-width="0.5" width="3" height="3"/>
				<rect x="288.8" y="195.7" fill="none" stroke="#CCCCCC" stroke-width="0.5" width="3" height="3"/>
			</g>
			<g>
				<rect x="288.8" y="203.6" fill="none" stroke="#CCCCCC" stroke-width="0.5" width="3" height="3"/>
				<rect x="296.7" y="203.6" fill="none" stroke="#CCCCCC" stroke-width="0.5" width="3" height="3"/>
				<rect x="304.6" y="203.6" fill="none" stroke="#CCCCCC" stroke-width="0.5" width="3" height="3"/>
				<rect x="312.5" y="203.6" fill="none" stroke="#CCCCCC" stroke-width="0.5" width="3" height="3"/>
				<rect x="320.3" y="203.6" fill="none" stroke="#CCCCCC" stroke-width="0.5" width="3" height="3"/>
			</g>
		</g>
		<g>
			<g>
				<rect x="368.6" y="195.7" fill="none" stroke="#CCCCCC" stroke-width="0.5" width="3" height="3"/>
				<rect x="360.7" y="195.7" fill="none" stroke="#CCCCCC" stroke-width="0.5" width="3" height="3"/>
				<rect x="352.8" y="195.7" fill="none" stroke="#CCCCCC" stroke-width="0.5" width="3" height="3"/>
				<rect x="344.9" y="195.7" fill="none" stroke="#CCCCCC" stroke-width="0.5" width="3" height="3"/>
				<rect x="337" y="195.7" fill="none" stroke="#CCCCCC" stroke-width="0.5" width="3" height="3"/>
			</g>
			<g>
				<rect x="337" y="203.6" fill="none" stroke="#CCCCCC" stroke-width="0.5" width="3" height="3"/>
				<rect x="344.9" y="203.6" fill="none" stroke="#CCCCCC" stroke-width="0.5" width="3" height="3"/>
				<rect x="352.8" y="203.6" fill="none" stroke="#CCCCCC" stroke-width="0.5" width="3" height="3"/>
				<rect x="360.7" y="203.6" fill="none" stroke="#CCCCCC" stroke-width="0.5" width="3" height="3"/>
				<rect x="368.6" y="203.6" fill="none" stroke="#CCCCCC" stroke-width="0.5" width="3" height="3"/>
			</g>
		</g>
		<g>
			<g>
				<rect x="416.8" y="195.7" fill="none" stroke="#CCCCCC" stroke-width="0.5" width="3" height="3"/>
				<rect x="408.9" y="195.7" fill="none" stroke="#CCCCCC" stroke-width="0.5" width="3" height="3"/>
				<rect x="401" y="195.7" fill="none" stroke="#CCCCCC" stroke-width="0.5" width="3" height="3"/>
				<rect x="393.1" y="195.7" fill="none" stroke="#CCCCCC" stroke-width="0.5" width="3" height="3"/>
				<rect x="385.2" y="195.7" fill="none" stroke="#CCCCCC" stroke-width="0.5" width="3" height="3"/>
			</g>
			<g>
				<rect x="385.2" y="203.6" fill="none" stroke="#CCCCCC" stroke-width="0.5" width="3" height="3"/>
				<rect x="393.1" y="203.6" fill="none" stroke="#CCCCCC" stroke-width="0.5" width="3" height="3"/>
				<rect x="401" y="203.6" fill="none" stroke="#CCCCCC" stroke-width="0.5" width="3" height="3"/>
				<rect x="408.9" y="203.6" fill="none" stroke="#CCCCCC" stroke-width="0.5" width="3" height="3"/>
				<rect x="416.8" y="203.6" fill="none" stroke="#CCCCCC" stroke-width="0.5" width="3" height="3"/>
			</g>
		</g>
		<g>
			<g>
				<rect x="465" y="195.7" fill="none" stroke="#CCCCCC" stroke-width="0.5" width="3" height="3"/>
				<rect x="457.1" y="195.7" fill="none" stroke="#CCCCCC" stroke-width="0.5" width="3" height="3"/>
				<rect x="449.2" y="195.7" fill="none" stroke="#CCCCCC" stroke-width="0.5" width="3" height="3"/>
				<rect x="441.3" y="195.7" fill="none" stroke="#CCCCCC" stroke-width="0.5" width="3" height="3"/>
				<rect x="433.4" y="195.7" fill="none" stroke="#CCCCCC" stroke-width="0.5" width="3" height="3"/>
			</g>
			<g>
				<rect x="433.4" y="203.6" fill="none" stroke="#CCCCCC" stroke-width="0.5" width="3" height="3"/>
				<rect x="441.3" y="203.6" fill="none" stroke="#CCCCCC" stroke-width="0.5" width="3" height="3"/>
				<rect x="449.2" y="203.6" fill="none" stroke="#CCCCCC" stroke-width="0.5" width="3" height="3"/>
				<rect x="457.1" y="203.6" fill="none" stroke="#CCCCCC" stroke-width="0.5" width="3" height="3"/>
				<rect x="465" y="203.6" fill="none" stroke="#CCCCCC" stroke-width="0.5" width="3" height="3"/>
			</g>
		</g>
		<g>
			<g>
				<rect x="513.2" y="195.7" fill="none" stroke="#CCCCCC" stroke-width="0.5" width="3" height="3"/>
				<rect x="505.3" y="195.7" fill="none" stroke="#CCCCCC" stroke-width="0.5" width="3" height="3"/>
				<rect x="497.4" y="195.7" fill="none" stroke="#CCCCCC" stroke-width="0.5" width="3" height="3"/>
				<rect x="489.5" y="195.7" fill="none" stroke="#CCCCCC" stroke-width="0.5" width="3" height="3"/>
				<rect x="481.7" y="195.7" fill="none" stroke="#CCCCCC" stroke-width="0.5" width="3" height="3"/>
			</g>
			<g>
				<rect x="481.7" y="203.6" fill="none" stroke="#CCCCCC" stroke-width="0.5" width="3" height="3"/>
				<rect x="489.5" y="203.6" fill="none" stroke="#CCCCCC" stroke-width="0.5" width="3" height="3"/>
				<rect x="497.4" y="203.6" fill="none" stroke="#CCCCCC" stroke-width="0.5" width="3" height="3"/>
				<rect x="505.3" y="203.6" fill="none" stroke="#CCCCCC" stroke-width="0.5" width="3" height="3"/>
				<rect x="513.2" y="203.6" fill="none" stroke="#CCCCCC" stroke-width="0.5" width="3" height="3"/>
			</g>
		</g>
	</g>
	<rect x="271.4" y="43.9" fill="none" stroke="#CCCCCC" stroke-width="0.5" width="270.3" height="168.6"/>
</g>
<g>
	<text transform="matrix(1 0 0 1 3.69 12.8401)" fill="#010101" font-family="'TheSerif-HP5PlainIT'" font-size="13.5126">Example 4</text>
</g>
<line fill="none" stroke="#000000" stroke-width="0.5" x1="137.7" y1="56.4" x2="137.7" y2="116.6"/>
<line fill="none" stroke="#000000" stroke-width="0.5" x1="137.7" y1="147.4" x2="137.7" y2="212.1"/>
<line fill="none" stroke="#000000" stroke-width="0.5" x1="31.3" y1="133.2" x2="113.3" y2="133.2"/>
<rect x="112.9" y="117" fill="none" stroke="#000000" stroke-width="0.5" width="48.8" height="30.4"/>
<g>
	<text transform="matrix(1 0 0 1 123.5548 134.6911)" font-family="'TheSerif-HP5Plain'" font-size="10.5098">Servo</text>
</g>
<g>
	<text transform="matrix(1 0 0 1 128.2296 47.8235)" font-family="'TheSerif-HP5Plain'" font-size="10.5098">+5V</text>
</g>
<polygon fill="none" stroke="#000000" stroke-width="0.5" points="24.3,125.6 31.8,133.7 24.3,141.8 5.1,141.8 5.1,125.6 "/>
<g>
	<g>
		<polyline fill="none" stroke="#000000" stroke-width="0.5" points="125.9,212.4 149.6,212.4 130.2,212.4 		"/>
		<line fill="none" stroke="#000000" stroke-width="0.5" x1="130.4" y1="218.8" x2="145.1" y2="218.8"/>
		<line fill="none" stroke="#000000" stroke-width="0.5" x1="135.1" y1="224.7" x2="140.5" y2="224.7"/>
	</g>
	<g>
		<polyline fill="none" stroke="#010101" stroke-width="0.45" points="125.9,212.4 149.6,212.4 130.2,212.4 		"/>
		<line fill="none" stroke="#010101" stroke-width="0.45" x1="130.4" y1="218.8" x2="145.1" y2="218.8"/>
		<line fill="none" stroke="#010101" stroke-width="0.45" x1="135.1" y1="224.7" x2="140.5" y2="224.7"/>
	</g>
</g>
<g>
	<text transform="matrix(1 0 0 1 145.9537 92.8259)" fill="#ABABAB" font-family="'TheSerif-HP5Plain'" font-size="10.5098">Red wire</text>
</g>
<g>
	<text transform="matrix(1 0 0 1 304.6017 259.9831)" fill="#ABABAB" font-family="'TheSerif-HP5Plain'" font-size="10.5098">Red wire</text>
</g>
<g>
	<text transform="matrix(1 0 0 1 144.9571 182.6101)" fill="#ABABAB" font-family="'TheSerif-HP5Plain'" font-size="10.5098">Black wire</text>
</g>
<g>
	<text transform="matrix(1 0 0 1 342.6432 77.0124)" fill="#ABABAB" font-family="'TheSerif-HP5Plain'" font-size="10.5098">Black wire</text>
</g>
<g>
	<text transform="matrix(1 0 0 1 39.3273 148.7527)" fill="#ABABAB" font-family="'TheSerif-HP5Plain'" font-size="10.5098">Yellow wire</text>
</g>
<g>
	<text transform="matrix(1 0 0 1 390.6529 227.3298)" fill="#ABABAB" font-family="'TheSerif-HP5Plain'" font-size="10.5098">Yellow wire</text>
</g>
<g>
	<text transform="matrix(1 0 0 1 156.318 220.7126)" font-family="'TheSerif-HP5Plain'" font-size="10.5098">Ground</text>
</g>
<path fill="none" stroke="#231F20" stroke-width="1.5073" d="M434.9,52.8"/>
<path fill="none" stroke="#231F20" stroke-width="1.5073" d="M498,172.5"/>
<path fill="none" stroke="#7D8287" stroke-width="0.492" d="M426.6,145.5"/>
<path fill="none" stroke="#808080" stroke-linecap="round" d="M427.3,109c0,0,18.9-11.5,25.8-35.1c4.4-15,3.2-45.6,3.2-45.6"/>
<g>
	<g>
		<g>
			<path fill="#010101" d="M524.5,281.3c-3.7,0-6.7-2.9-6.7-6.4c0-3.6,3-6.4,6.7-6.4c1.4,0,2.6,0.4,3.7,1.1v-9.9
				c-1.1,0.7-2.3,1.1-3.7,1.1c-3.7,0-6.7-2.9-6.7-6.4c0-3.6,3-6.4,6.7-6.4c1.4,0,2.6,0.4,3.7,1.1v-5.5h-13.9v-6.9h-83.8v6.9h-14.1
				v5.5h14.1v31.3h-14.3v5.8h14v7.3h84.1v-7.3h13.9v-5.6C527.1,281,525.8,281.3,524.5,281.3z"/>
		</g>
	</g>
	<ellipse fill="#FFFFFF" stroke="#CACDD3" stroke-width="0.492" cx="437.4" cy="264.6" rx="24.7" ry="24.9"/>
	<ellipse fill="#FFFFFF" stroke="#CACDD3" stroke-width="0.492" cx="437.5" cy="264.5" rx="9.7" ry="9.7"/>
	<ellipse fill="#FFFFFF" stroke="#CACDD3" stroke-width="0.492" cx="454.8" cy="264.7" rx="4" ry="4"/>
	<ellipse fill="#FFFFFF" stroke="#CACDD3" stroke-width="0.492" cx="449.7" cy="252.4" rx="4" ry="4"/>
	<ellipse fill="#FFFFFF" stroke="#CACDD3" stroke-width="0.492" cx="437.3" cy="247.3" rx="4" ry="4"/>
	<ellipse fill="#FFFFFF" stroke="#CACDD3" stroke-width="0.492" cx="425.3" cy="252.4" rx="4" ry="4"/>
	<path fill="#FFFFFF" stroke="#CACDD3" stroke-width="0.492" d="M420.4,268.6c-2.2,0-4-1.8-4-4c0-2.2,1.8-4,4-4c2.2,0,4,1.8,4,4
		C424.4,266.8,422.6,268.6,420.4,268.6z"/>
	<ellipse fill="#FFFFFF" stroke="#CACDD3" stroke-width="0.492" cx="425.2" cy="276.7" rx="4" ry="4"/>
	<ellipse fill="#FFFFFF" stroke="#CACDD3" stroke-width="0.492" cx="437.5" cy="282" rx="4" ry="4"/>
	<ellipse fill="#FFFFFF" stroke="#CACDD3" stroke-width="0.492" cx="449.7" cy="277" rx="4" ry="4"/>
</g>
<path fill="none" stroke="#ABABAB" stroke-linecap="round" d="M412.2,258.9c0,0-42.2-13.4-36.7-58s51.7-84.2,51.7-84.2"/>
<path fill="none" stroke="#000000" stroke-linecap="round" d="M411.7,262.3c0,0-72.3,6.9-60.7-80.9c11.2-84.7-28.8-128.1-28.8-128.1
	"/>
<path fill="none" stroke="#404040" stroke-linecap="round" d="M411.7,267.2c0,0-69.7,18.6-92.7-81.5c-11-47.7,13.6-100.3-5.1-123.9"
	/>
<path fill="none" stroke="#404040" stroke-linecap="round" d="M266.1,27.2c0,0-7.5,18.8,24.2,33.6"/>
<path fill="none" stroke="#000000" stroke-linecap="round" d="M285.5,27.4c0,0-7.1,5.4,4.8,26.7"/>
<g>
	<text transform="matrix(1 0 0 1 251.4581 18.2185)" font-family="'TheSerif-HP5Plain'" font-size="10.5098">+5V</text>
</g>
<g>
	<text transform="matrix(1 0 0 1 282.7989 18.2185)" font-family="'TheSerif-HP5Plain'" font-size="10.5098">Ground</text>
</g>
<g>
	<text transform="matrix(1 0 0 1 415.7789 18.2185)" font-family="'TheSerif-HP5Plain'" font-size="10.5098">Digital I/O Pin 0</text>
</g>
<g>
	<text transform="matrix(1 0 0 1 3.5904 115.6926)" font-family="'TheSerif-HP5Plain'" font-size="10.5098">Digital I/O Pin 0</text>
</g>
</svg>
