<?xml version="1.0" encoding="utf-8"?>
<!-- Generator: Adobe Illustrator 18.0.0, SVG Export Plug-In . SVG Version: 6.00 Build 0)  -->
<!DOCTYPE svg PUBLIC "-//W3C//DTD SVG 1.1//EN" "http://www.w3.org/Graphics/SVG/1.1/DTD/svg11.dtd">
<svg version="1.1" id="Layer_1" xmlns="http://www.w3.org/2000/svg" xmlns:xlink="http://www.w3.org/1999/xlink" x="0px" y="0px"
	 viewBox="0 0 687 297" enable-background="new 0 0 687 297" xml:space="preserve">
<g>
	<g>
		<g>
			<rect x="305.7" y="90.7" fill="none" stroke="#CDCCCC" stroke-width="0.5" width="2.6" height="2.6"/>
			<rect x="305.7" y="97.6" fill="none" stroke="#CDCCCC" stroke-width="0.5" width="2.6" height="2.6"/>
			<rect x="305.7" y="104.5" fill="none" stroke="#CDCCCC" stroke-width="0.5" width="2.6" height="2.6"/>
			<rect x="305.7" y="111.2" fill="none" stroke="#CDCCCC" stroke-width="0.5" width="2.6" height="2.6"/>
			<rect x="305.7" y="118" fill="none" stroke="#CDCCCC" stroke-width="0.5" width="2.6" height="2.6"/>
		</g>
		<g>
			<rect x="312.6" y="90.7" fill="none" stroke="#CDCCCC" stroke-width="0.5" width="2.6" height="2.6"/>
			<rect x="312.6" y="97.6" fill="none" stroke="#CDCCCC" stroke-width="0.5" width="2.6" height="2.6"/>
			<rect x="312.6" y="104.5" fill="none" stroke="#CDCCCC" stroke-width="0.5" width="2.6" height="2.6"/>
			<rect x="312.6" y="111.2" fill="none" stroke="#CDCCCC" stroke-width="0.5" width="2.6" height="2.6"/>
			<rect x="312.6" y="118" fill="none" stroke="#CDCCCC" stroke-width="0.5" width="2.6" height="2.6"/>
		</g>
		<g>
			<rect x="319.5" y="90.7" fill="none" stroke="#CDCCCC" stroke-width="0.5" width="2.6" height="2.6"/>
			<rect x="319.5" y="97.6" fill="none" stroke="#CDCCCC" stroke-width="0.5" width="2.6" height="2.6"/>
			<rect x="319.5" y="104.5" fill="none" stroke="#CDCCCC" stroke-width="0.5" width="2.6" height="2.6"/>
			<rect x="319.5" y="111.2" fill="none" stroke="#CDCCCC" stroke-width="0.5" width="2.6" height="2.6"/>
			<rect x="319.5" y="118" fill="none" stroke="#CDCCCC" stroke-width="0.5" width="2.6" height="2.6"/>
		</g>
		<g>
			<rect x="326.6" y="90.7" fill="none" stroke="#CDCCCC" stroke-width="0.5" width="2.6" height="2.6"/>
			<rect x="326.6" y="97.6" fill="none" stroke="#CDCCCC" stroke-width="0.5" width="2.6" height="2.6"/>
			<rect x="326.6" y="104.5" fill="none" stroke="#CDCCCC" stroke-width="0.5" width="2.6" height="2.6"/>
			<rect x="326.6" y="111.2" fill="none" stroke="#CDCCCC" stroke-width="0.5" width="2.6" height="2.6"/>
			<rect x="326.6" y="118" fill="none" stroke="#CDCCCC" stroke-width="0.5" width="2.6" height="2.6"/>
		</g>
		<g>
			<rect x="333.5" y="90.7" fill="none" stroke="#CDCCCC" stroke-width="0.5" width="2.6" height="2.6"/>
			<rect x="333.5" y="97.6" fill="none" stroke="#CDCCCC" stroke-width="0.5" width="2.6" height="2.6"/>
			<rect x="333.5" y="104.5" fill="none" stroke="#CDCCCC" stroke-width="0.5" width="2.6" height="2.6"/>
			<rect x="333.5" y="111.2" fill="none" stroke="#CDCCCC" stroke-width="0.5" width="2.6" height="2.6"/>
			<rect x="333.5" y="118" fill="none" stroke="#CDCCCC" stroke-width="0.5" width="2.6" height="2.6"/>
		</g>
		<g>
			<rect x="340.4" y="90.7" fill="none" stroke="#CDCCCC" stroke-width="0.5" width="2.6" height="2.6"/>
			<rect x="340.4" y="97.6" fill="none" stroke="#CDCCCC" stroke-width="0.5" width="2.6" height="2.6"/>
			<rect x="340.4" y="104.5" fill="none" stroke="#CDCCCC" stroke-width="0.5" width="2.6" height="2.6"/>
			<rect x="340.4" y="111.2" fill="none" stroke="#CDCCCC" stroke-width="0.5" width="2.6" height="2.6"/>
			<rect x="340.4" y="118" fill="none" stroke="#CDCCCC" stroke-width="0.5" width="2.6" height="2.6"/>
		</g>
		<g>
			<rect x="347.3" y="90.7" fill="none" stroke="#CDCCCC" stroke-width="0.5" width="2.6" height="2.6"/>
			<rect x="347.3" y="97.6" fill="none" stroke="#CDCCCC" stroke-width="0.5" width="2.6" height="2.6"/>
			<rect x="347.3" y="104.5" fill="none" stroke="#CDCCCC" stroke-width="0.5" width="2.6" height="2.6"/>
			<rect x="347.3" y="111.2" fill="none" stroke="#CDCCCC" stroke-width="0.5" width="2.6" height="2.6"/>
			<rect x="347.3" y="118" fill="none" stroke="#CDCCCC" stroke-width="0.5" width="2.6" height="2.6"/>
		</g>
		<g>
			<rect x="354.2" y="90.7" fill="none" stroke="#CDCCCC" stroke-width="0.5" width="2.6" height="2.6"/>
			<rect x="354.2" y="97.6" fill="none" stroke="#CDCCCC" stroke-width="0.5" width="2.6" height="2.6"/>
			<rect x="354.2" y="104.5" fill="none" stroke="#CDCCCC" stroke-width="0.5" width="2.6" height="2.6"/>
			<rect x="354.2" y="111.2" fill="none" stroke="#CDCCCC" stroke-width="0.5" width="2.6" height="2.6"/>
			<rect x="354.2" y="118" fill="none" stroke="#CDCCCC" stroke-width="0.5" width="2.6" height="2.6"/>
		</g>
		<g>
			<rect x="361.1" y="90.7" fill="none" stroke="#CDCCCC" stroke-width="0.5" width="2.6" height="2.6"/>
			<rect x="361.1" y="97.6" fill="none" stroke="#CDCCCC" stroke-width="0.5" width="2.6" height="2.6"/>
			<rect x="361.1" y="104.5" fill="none" stroke="#CDCCCC" stroke-width="0.5" width="2.6" height="2.6"/>
			<rect x="361.1" y="111.2" fill="none" stroke="#CDCCCC" stroke-width="0.5" width="2.6" height="2.6"/>
			<rect x="361.1" y="118" fill="none" stroke="#CDCCCC" stroke-width="0.5" width="2.6" height="2.6"/>
		</g>
		<g>
			<rect x="368" y="90.7" fill="none" stroke="#CDCCCC" stroke-width="0.5" width="2.6" height="2.6"/>
			<rect x="368" y="97.6" fill="none" stroke="#CDCCCC" stroke-width="0.5" width="2.6" height="2.6"/>
			<rect x="368" y="104.5" fill="none" stroke="#CDCCCC" stroke-width="0.5" width="2.6" height="2.6"/>
			<rect x="368" y="111.2" fill="none" stroke="#CDCCCC" stroke-width="0.5" width="2.6" height="2.6"/>
			<rect x="368" y="118" fill="none" stroke="#CDCCCC" stroke-width="0.5" width="2.6" height="2.6"/>
		</g>
		<g>
			<rect x="374.9" y="90.7" fill="none" stroke="#CDCCCC" stroke-width="0.5" width="2.6" height="2.6"/>
			<rect x="374.9" y="97.6" fill="none" stroke="#CDCCCC" stroke-width="0.5" width="2.6" height="2.6"/>
			<rect x="374.9" y="104.5" fill="none" stroke="#CDCCCC" stroke-width="0.5" width="2.6" height="2.6"/>
			<rect x="374.9" y="111.2" fill="none" stroke="#CDCCCC" stroke-width="0.5" width="2.6" height="2.6"/>
			<rect x="374.9" y="118" fill="none" stroke="#CDCCCC" stroke-width="0.5" width="2.6" height="2.6"/>
		</g>
		<g>
			<rect x="381.8" y="90.7" fill="none" stroke="#CDCCCC" stroke-width="0.5" width="2.6" height="2.6"/>
			<rect x="381.8" y="97.6" fill="none" stroke="#CDCCCC" stroke-width="0.5" width="2.6" height="2.6"/>
			<rect x="381.8" y="104.5" fill="none" stroke="#CDCCCC" stroke-width="0.5" width="2.6" height="2.6"/>
			<rect x="381.8" y="111.2" fill="none" stroke="#CDCCCC" stroke-width="0.5" width="2.6" height="2.6"/>
			<rect x="381.8" y="118" fill="none" stroke="#CDCCCC" stroke-width="0.5" width="2.6" height="2.6"/>
		</g>
		<g>
			<rect x="388.9" y="90.7" fill="none" stroke="#CDCCCC" stroke-width="0.5" width="2.6" height="2.6"/>
			<rect x="388.9" y="97.6" fill="none" stroke="#CDCCCC" stroke-width="0.5" width="2.6" height="2.6"/>
			<rect x="388.9" y="104.5" fill="none" stroke="#CDCCCC" stroke-width="0.5" width="2.6" height="2.6"/>
			<rect x="388.9" y="111.2" fill="none" stroke="#CDCCCC" stroke-width="0.5" width="2.6" height="2.6"/>
			<rect x="388.9" y="118" fill="none" stroke="#CDCCCC" stroke-width="0.5" width="2.6" height="2.6"/>
		</g>
		<g>
			<rect x="395.8" y="90.7" fill="none" stroke="#CDCCCC" stroke-width="0.5" width="2.6" height="2.6"/>
			<rect x="395.8" y="97.6" fill="none" stroke="#CDCCCC" stroke-width="0.5" width="2.6" height="2.6"/>
			<rect x="395.8" y="104.5" fill="none" stroke="#CDCCCC" stroke-width="0.5" width="2.6" height="2.6"/>
			<rect x="395.8" y="111.2" fill="none" stroke="#CDCCCC" stroke-width="0.5" width="2.6" height="2.6"/>
			<rect x="395.8" y="118" fill="none" stroke="#CDCCCC" stroke-width="0.5" width="2.6" height="2.6"/>
		</g>
		<g>
			<rect x="402.7" y="90.7" fill="none" stroke="#CDCCCC" stroke-width="0.5" width="2.6" height="2.6"/>
			<rect x="402.7" y="97.6" fill="none" stroke="#CDCCCC" stroke-width="0.5" width="2.6" height="2.6"/>
			<rect x="402.7" y="104.5" fill="none" stroke="#CDCCCC" stroke-width="0.5" width="2.6" height="2.6"/>
			<rect x="402.7" y="111.2" fill="none" stroke="#CDCCCC" stroke-width="0.5" width="2.6" height="2.6"/>
			<rect x="402.7" y="118" fill="none" stroke="#CDCCCC" stroke-width="0.5" width="2.6" height="2.6"/>
		</g>
		<g>
			<rect x="409.6" y="90.7" fill="none" stroke="#CDCCCC" stroke-width="0.5" width="2.6" height="2.6"/>
			<rect x="409.6" y="97.6" fill="none" stroke="#CDCCCC" stroke-width="0.5" width="2.6" height="2.6"/>
			<rect x="409.6" y="104.5" fill="none" stroke="#CDCCCC" stroke-width="0.5" width="2.6" height="2.6"/>
			<rect x="409.6" y="111.2" fill="none" stroke="#CDCCCC" stroke-width="0.5" width="2.6" height="2.6"/>
			<rect x="409.6" y="118" fill="none" stroke="#CDCCCC" stroke-width="0.5" width="2.6" height="2.6"/>
		</g>
		<g>
			<rect x="416.5" y="90.7" fill="none" stroke="#CDCCCC" stroke-width="0.5" width="2.6" height="2.6"/>
			<rect x="416.5" y="97.6" fill="none" stroke="#CDCCCC" stroke-width="0.5" width="2.6" height="2.6"/>
			<rect x="416.5" y="104.5" fill="none" stroke="#CDCCCC" stroke-width="0.5" width="2.6" height="2.6"/>
			<rect x="416.5" y="111.2" fill="none" stroke="#CDCCCC" stroke-width="0.5" width="2.6" height="2.6"/>
			<rect x="416.5" y="118" fill="none" stroke="#CDCCCC" stroke-width="0.5" width="2.6" height="2.6"/>
		</g>
		<g>
			<rect x="423.4" y="90.7" fill="none" stroke="#CDCCCC" stroke-width="0.5" width="2.6" height="2.6"/>
			<rect x="423.4" y="97.6" fill="none" stroke="#CDCCCC" stroke-width="0.5" width="2.6" height="2.6"/>
			<rect x="423.4" y="104.5" fill="none" stroke="#CDCCCC" stroke-width="0.5" width="2.6" height="2.6"/>
			<rect x="423.4" y="111.2" fill="none" stroke="#CDCCCC" stroke-width="0.5" width="2.6" height="2.6"/>
			<rect x="423.4" y="118" fill="none" stroke="#CDCCCC" stroke-width="0.5" width="2.6" height="2.6"/>
		</g>
		<g>
			<rect x="430.3" y="90.7" fill="none" stroke="#CDCCCC" stroke-width="0.5" width="2.6" height="2.6"/>
			<rect x="430.3" y="97.6" fill="none" stroke="#CDCCCC" stroke-width="0.5" width="2.6" height="2.6"/>
			<rect x="430.3" y="104.5" fill="none" stroke="#CDCCCC" stroke-width="0.5" width="2.6" height="2.6"/>
			<rect x="430.3" y="111.2" fill="none" stroke="#CDCCCC" stroke-width="0.5" width="2.6" height="2.6"/>
			<rect x="430.3" y="118" fill="none" stroke="#CDCCCC" stroke-width="0.5" width="2.6" height="2.6"/>
		</g>
		<g>
			<rect x="437.2" y="90.7" fill="none" stroke="#CDCCCC" stroke-width="0.5" width="2.6" height="2.6"/>
			<rect x="437.2" y="97.6" fill="none" stroke="#CDCCCC" stroke-width="0.5" width="2.6" height="2.6"/>
			<rect x="437.2" y="104.5" fill="none" stroke="#CDCCCC" stroke-width="0.5" width="2.6" height="2.6"/>
			<rect x="437.2" y="111.2" fill="none" stroke="#CDCCCC" stroke-width="0.5" width="2.6" height="2.6"/>
			<rect x="437.2" y="118" fill="none" stroke="#CDCCCC" stroke-width="0.5" width="2.6" height="2.6"/>
		</g>
		<g>
			<rect x="444.3" y="90.7" fill="none" stroke="#CDCCCC" stroke-width="0.5" width="2.6" height="2.6"/>
			<rect x="444.3" y="97.6" fill="none" stroke="#CDCCCC" stroke-width="0.5" width="2.6" height="2.6"/>
			<rect x="444.3" y="104.5" fill="none" stroke="#CDCCCC" stroke-width="0.5" width="2.6" height="2.6"/>
			<rect x="444.3" y="111.2" fill="none" stroke="#CDCCCC" stroke-width="0.5" width="2.6" height="2.6"/>
			<rect x="444.3" y="118" fill="none" stroke="#CDCCCC" stroke-width="0.5" width="2.6" height="2.6"/>
		</g>
		<g>
			<rect x="451.2" y="90.7" fill="none" stroke="#CDCCCC" stroke-width="0.5" width="2.6" height="2.6"/>
			<rect x="451.2" y="97.6" fill="none" stroke="#CDCCCC" stroke-width="0.5" width="2.6" height="2.6"/>
			<rect x="451.2" y="104.5" fill="none" stroke="#CDCCCC" stroke-width="0.5" width="2.6" height="2.6"/>
			<rect x="451.2" y="111.2" fill="none" stroke="#CDCCCC" stroke-width="0.5" width="2.6" height="2.6"/>
			<rect x="451.2" y="118" fill="none" stroke="#CDCCCC" stroke-width="0.5" width="2.6" height="2.6"/>
		</g>
		<g>
			<rect x="458.1" y="90.7" fill="none" stroke="#CDCCCC" stroke-width="0.5" width="2.6" height="2.6"/>
			<rect x="458.1" y="97.6" fill="none" stroke="#CDCCCC" stroke-width="0.5" width="2.6" height="2.6"/>
			<rect x="458.1" y="104.5" fill="none" stroke="#CDCCCC" stroke-width="0.5" width="2.6" height="2.6"/>
			<rect x="458.1" y="111.2" fill="none" stroke="#CDCCCC" stroke-width="0.5" width="2.6" height="2.6"/>
			<rect x="458.1" y="118" fill="none" stroke="#CDCCCC" stroke-width="0.5" width="2.6" height="2.6"/>
		</g>
		<g>
			<rect x="278.1" y="90.7" fill="none" stroke="#CDCCCC" stroke-width="0.5" width="2.6" height="2.6"/>
			<rect x="278.1" y="97.6" fill="none" stroke="#CDCCCC" stroke-width="0.5" width="2.6" height="2.6"/>
			<rect x="278.1" y="104.5" fill="none" stroke="#CDCCCC" stroke-width="0.5" width="2.6" height="2.6"/>
			<rect x="278.1" y="111.2" fill="none" stroke="#CDCCCC" stroke-width="0.5" width="2.6" height="2.6"/>
			<rect x="278.1" y="118" fill="none" stroke="#CDCCCC" stroke-width="0.5" width="2.6" height="2.6"/>
		</g>
		<g>
			<rect x="285" y="90.7" fill="none" stroke="#CDCCCC" stroke-width="0.5" width="2.6" height="2.6"/>
			<rect x="285" y="97.6" fill="none" stroke="#CDCCCC" stroke-width="0.5" width="2.6" height="2.6"/>
			<rect x="285" y="104.5" fill="none" stroke="#CDCCCC" stroke-width="0.5" width="2.6" height="2.6"/>
			<rect x="285" y="111.2" fill="none" stroke="#CDCCCC" stroke-width="0.5" width="2.6" height="2.6"/>
			<rect x="285" y="118" fill="none" stroke="#CDCCCC" stroke-width="0.5" width="2.6" height="2.6"/>
		</g>
		<g>
			<rect x="291.9" y="90.7" fill="none" stroke="#CDCCCC" stroke-width="0.5" width="2.6" height="2.6"/>
			<rect x="291.9" y="97.6" fill="none" stroke="#CDCCCC" stroke-width="0.5" width="2.6" height="2.6"/>
			<rect x="291.9" y="104.5" fill="none" stroke="#CDCCCC" stroke-width="0.5" width="2.6" height="2.6"/>
			<rect x="291.9" y="111.2" fill="none" stroke="#CDCCCC" stroke-width="0.5" width="2.6" height="2.6"/>
			<rect x="291.9" y="118" fill="none" stroke="#CDCCCC" stroke-width="0.5" width="2.6" height="2.6"/>
		</g>
		<g>
			<rect x="298.8" y="90.7" fill="none" stroke="#CDCCCC" stroke-width="0.5" width="2.6" height="2.6"/>
			<rect x="298.8" y="97.6" fill="none" stroke="#CDCCCC" stroke-width="0.5" width="2.6" height="2.6"/>
			<rect x="298.8" y="104.5" fill="none" stroke="#CDCCCC" stroke-width="0.5" width="2.6" height="2.6"/>
			<rect x="298.8" y="111.2" fill="none" stroke="#CDCCCC" stroke-width="0.5" width="2.6" height="2.6"/>
			<rect x="298.8" y="118" fill="none" stroke="#CDCCCC" stroke-width="0.5" width="2.6" height="2.6"/>
		</g>
		<g>
			<rect x="257.2" y="90.7" fill="none" stroke="#CDCCCC" stroke-width="0.5" width="2.6" height="2.6"/>
			<rect x="257.2" y="97.6" fill="none" stroke="#CDCCCC" stroke-width="0.5" width="2.6" height="2.6"/>
			<rect x="257.2" y="104.5" fill="none" stroke="#CDCCCC" stroke-width="0.5" width="2.6" height="2.6"/>
			<rect x="257.2" y="111.2" fill="none" stroke="#CDCCCC" stroke-width="0.5" width="2.6" height="2.6"/>
			<rect x="257.2" y="118" fill="none" stroke="#CDCCCC" stroke-width="0.5" width="2.6" height="2.6"/>
		</g>
		<g>
			<rect x="264.4" y="90.7" fill="none" stroke="#CDCCCC" stroke-width="0.5" width="2.6" height="2.6"/>
			<rect x="264.4" y="97.6" fill="none" stroke="#CDCCCC" stroke-width="0.5" width="2.6" height="2.6"/>
			<rect x="264.4" y="104.5" fill="none" stroke="#CDCCCC" stroke-width="0.5" width="2.6" height="2.6"/>
			<rect x="264.4" y="111.2" fill="none" stroke="#CDCCCC" stroke-width="0.5" width="2.6" height="2.6"/>
			<rect x="264.4" y="118" fill="none" stroke="#CDCCCC" stroke-width="0.5" width="2.6" height="2.6"/>
		</g>
		<g>
			<rect x="271.3" y="90.7" fill="none" stroke="#CDCCCC" stroke-width="0.5" width="2.6" height="2.6"/>
			<rect x="271.3" y="97.6" fill="none" stroke="#CDCCCC" stroke-width="0.5" width="2.6" height="2.6"/>
			<rect x="271.3" y="104.5" fill="none" stroke="#CDCCCC" stroke-width="0.5" width="2.6" height="2.6"/>
			<rect x="271.3" y="111.2" fill="none" stroke="#CDCCCC" stroke-width="0.5" width="2.6" height="2.6"/>
			<rect x="271.3" y="118" fill="none" stroke="#CDCCCC" stroke-width="0.5" width="2.6" height="2.6"/>
		</g>
	</g>
	<g>
		<g>
			<rect x="305.7" y="138" fill="none" stroke="#CDCCCC" stroke-width="0.5" width="2.6" height="2.6"/>
			<rect x="305.7" y="144.9" fill="none" stroke="#CDCCCC" stroke-width="0.5" width="2.6" height="2.6"/>
			<rect x="305.7" y="151.5" fill="none" stroke="#CDCCCC" stroke-width="0.5" width="2.6" height="2.6"/>
			<rect x="305.7" y="158.4" fill="none" stroke="#CDCCCC" stroke-width="0.5" width="2.6" height="2.6"/>
			<rect x="305.7" y="165" fill="none" stroke="#CDCCCC" stroke-width="0.5" width="2.6" height="2.6"/>
		</g>
		<g>
			<rect x="312.6" y="138" fill="none" stroke="#CDCCCC" stroke-width="0.5" width="2.6" height="2.6"/>
			<rect x="312.6" y="144.9" fill="none" stroke="#CDCCCC" stroke-width="0.5" width="2.6" height="2.6"/>
			<rect x="312.6" y="151.5" fill="none" stroke="#CDCCCC" stroke-width="0.5" width="2.6" height="2.6"/>
			<rect x="312.6" y="158.4" fill="none" stroke="#CDCCCC" stroke-width="0.5" width="2.6" height="2.6"/>
			<rect x="312.6" y="165" fill="none" stroke="#CDCCCC" stroke-width="0.5" width="2.6" height="2.6"/>
		</g>
		<g>
			<rect x="319.5" y="138" fill="none" stroke="#CDCCCC" stroke-width="0.5" width="2.6" height="2.6"/>
			<rect x="319.5" y="144.9" fill="none" stroke="#CDCCCC" stroke-width="0.5" width="2.6" height="2.6"/>
			<rect x="319.5" y="151.5" fill="none" stroke="#CDCCCC" stroke-width="0.5" width="2.6" height="2.6"/>
			<rect x="319.5" y="158.4" fill="none" stroke="#CDCCCC" stroke-width="0.5" width="2.6" height="2.6"/>
			<rect x="319.5" y="165" fill="none" stroke="#CDCCCC" stroke-width="0.5" width="2.6" height="2.6"/>
		</g>
		<g>
			<rect x="326.6" y="138" fill="none" stroke="#CDCCCC" stroke-width="0.5" width="2.6" height="2.6"/>
			<rect x="326.6" y="144.9" fill="none" stroke="#CDCCCC" stroke-width="0.5" width="2.6" height="2.6"/>
			<rect x="326.6" y="151.5" fill="none" stroke="#CDCCCC" stroke-width="0.5" width="2.6" height="2.6"/>
			<rect x="326.6" y="158.4" fill="none" stroke="#CDCCCC" stroke-width="0.5" width="2.6" height="2.6"/>
			<rect x="326.6" y="165" fill="none" stroke="#CDCCCC" stroke-width="0.5" width="2.6" height="2.6"/>
		</g>
		<g>
			<rect x="333.5" y="138" fill="none" stroke="#CDCCCC" stroke-width="0.5" width="2.6" height="2.6"/>
			<rect x="333.5" y="144.9" fill="none" stroke="#CDCCCC" stroke-width="0.5" width="2.6" height="2.6"/>
			<rect x="333.5" y="151.5" fill="none" stroke="#CDCCCC" stroke-width="0.5" width="2.6" height="2.6"/>
			<rect x="333.5" y="158.4" fill="none" stroke="#CDCCCC" stroke-width="0.5" width="2.6" height="2.6"/>
			<rect x="333.5" y="165" fill="none" stroke="#CDCCCC" stroke-width="0.5" width="2.6" height="2.6"/>
		</g>
		<g>
			<rect x="340.4" y="138" fill="none" stroke="#CDCCCC" stroke-width="0.5" width="2.6" height="2.6"/>
			<rect x="340.4" y="144.9" fill="none" stroke="#CDCCCC" stroke-width="0.5" width="2.6" height="2.6"/>
			<rect x="340.4" y="151.5" fill="none" stroke="#CDCCCC" stroke-width="0.5" width="2.6" height="2.6"/>
			<rect x="340.4" y="158.4" fill="none" stroke="#CDCCCC" stroke-width="0.5" width="2.6" height="2.6"/>
			<rect x="340.4" y="165" fill="none" stroke="#CDCCCC" stroke-width="0.5" width="2.6" height="2.6"/>
		</g>
		<g>
			<rect x="347.3" y="138" fill="none" stroke="#CDCCCC" stroke-width="0.5" width="2.6" height="2.6"/>
			<rect x="347.3" y="144.9" fill="none" stroke="#CDCCCC" stroke-width="0.5" width="2.6" height="2.6"/>
			<rect x="347.3" y="151.5" fill="none" stroke="#CDCCCC" stroke-width="0.5" width="2.6" height="2.6"/>
			<rect x="347.3" y="158.4" fill="none" stroke="#CDCCCC" stroke-width="0.5" width="2.6" height="2.6"/>
			<rect x="347.3" y="165" fill="none" stroke="#CDCCCC" stroke-width="0.5" width="2.6" height="2.6"/>
		</g>
		<g>
			<rect x="354.2" y="138" fill="none" stroke="#CDCCCC" stroke-width="0.5" width="2.6" height="2.6"/>
			<rect x="354.2" y="144.9" fill="none" stroke="#CDCCCC" stroke-width="0.5" width="2.6" height="2.6"/>
			<rect x="354.2" y="151.5" fill="none" stroke="#CDCCCC" stroke-width="0.5" width="2.6" height="2.6"/>
			<rect x="354.2" y="158.4" fill="none" stroke="#CDCCCC" stroke-width="0.5" width="2.6" height="2.6"/>
			<rect x="354.2" y="165" fill="none" stroke="#CDCCCC" stroke-width="0.5" width="2.6" height="2.6"/>
		</g>
		<g>
			<rect x="361.1" y="138" fill="none" stroke="#CDCCCC" stroke-width="0.5" width="2.6" height="2.6"/>
			<rect x="361.1" y="144.9" fill="none" stroke="#CDCCCC" stroke-width="0.5" width="2.6" height="2.6"/>
			<rect x="361.1" y="151.5" fill="none" stroke="#CDCCCC" stroke-width="0.5" width="2.6" height="2.6"/>
			<rect x="361.1" y="158.4" fill="none" stroke="#CDCCCC" stroke-width="0.5" width="2.6" height="2.6"/>
			<rect x="361.1" y="165" fill="none" stroke="#CDCCCC" stroke-width="0.5" width="2.6" height="2.6"/>
		</g>
		<g>
			<rect x="368" y="138" fill="none" stroke="#CDCCCC" stroke-width="0.5" width="2.6" height="2.6"/>
			<rect x="368" y="144.9" fill="none" stroke="#CDCCCC" stroke-width="0.5" width="2.6" height="2.6"/>
			<rect x="368" y="151.5" fill="none" stroke="#CDCCCC" stroke-width="0.5" width="2.6" height="2.6"/>
			<rect x="368" y="158.4" fill="none" stroke="#CDCCCC" stroke-width="0.5" width="2.6" height="2.6"/>
			<rect x="368" y="165" fill="none" stroke="#CDCCCC" stroke-width="0.5" width="2.6" height="2.6"/>
		</g>
		<g>
			<rect x="374.9" y="138" fill="none" stroke="#CDCCCC" stroke-width="0.5" width="2.6" height="2.6"/>
			<rect x="374.9" y="144.9" fill="none" stroke="#CDCCCC" stroke-width="0.5" width="2.6" height="2.6"/>
			<rect x="374.9" y="151.5" fill="none" stroke="#CDCCCC" stroke-width="0.5" width="2.6" height="2.6"/>
			<rect x="374.9" y="158.4" fill="none" stroke="#CDCCCC" stroke-width="0.5" width="2.6" height="2.6"/>
			<rect x="374.9" y="165" fill="none" stroke="#CDCCCC" stroke-width="0.5" width="2.6" height="2.6"/>
		</g>
		<g>
			<rect x="381.8" y="138" fill="none" stroke="#CDCCCC" stroke-width="0.5" width="2.6" height="2.6"/>
			<rect x="381.8" y="144.9" fill="none" stroke="#CDCCCC" stroke-width="0.5" width="2.6" height="2.6"/>
			<rect x="381.8" y="151.5" fill="none" stroke="#CDCCCC" stroke-width="0.5" width="2.6" height="2.6"/>
			<rect x="381.8" y="158.4" fill="none" stroke="#CDCCCC" stroke-width="0.5" width="2.6" height="2.6"/>
			<rect x="381.8" y="165" fill="none" stroke="#CDCCCC" stroke-width="0.5" width="2.6" height="2.6"/>
		</g>
		<g>
			<rect x="388.9" y="138" fill="none" stroke="#CDCCCC" stroke-width="0.5" width="2.6" height="2.6"/>
			<rect x="388.9" y="144.9" fill="none" stroke="#CDCCCC" stroke-width="0.5" width="2.6" height="2.6"/>
			<rect x="388.9" y="151.5" fill="none" stroke="#CDCCCC" stroke-width="0.5" width="2.6" height="2.6"/>
			<rect x="388.9" y="158.4" fill="none" stroke="#CDCCCC" stroke-width="0.5" width="2.6" height="2.6"/>
			<rect x="388.9" y="165" fill="none" stroke="#CDCCCC" stroke-width="0.5" width="2.6" height="2.6"/>
		</g>
		<g>
			<rect x="395.8" y="138" fill="none" stroke="#CDCCCC" stroke-width="0.5" width="2.6" height="2.6"/>
			<rect x="395.8" y="144.9" fill="none" stroke="#CDCCCC" stroke-width="0.5" width="2.6" height="2.6"/>
			<rect x="395.8" y="151.5" fill="none" stroke="#CDCCCC" stroke-width="0.5" width="2.6" height="2.6"/>
			<rect x="395.8" y="158.4" fill="none" stroke="#CDCCCC" stroke-width="0.5" width="2.6" height="2.6"/>
			<rect x="395.8" y="165" fill="none" stroke="#CDCCCC" stroke-width="0.5" width="2.6" height="2.6"/>
		</g>
		<g>
			<rect x="402.7" y="138" fill="none" stroke="#CDCCCC" stroke-width="0.5" width="2.6" height="2.6"/>
			<rect x="402.7" y="144.9" fill="none" stroke="#CDCCCC" stroke-width="0.5" width="2.6" height="2.6"/>
			<rect x="402.7" y="151.5" fill="none" stroke="#CDCCCC" stroke-width="0.5" width="2.6" height="2.6"/>
			<rect x="402.7" y="158.4" fill="none" stroke="#CDCCCC" stroke-width="0.5" width="2.6" height="2.6"/>
			<rect x="402.7" y="165" fill="none" stroke="#CDCCCC" stroke-width="0.5" width="2.6" height="2.6"/>
		</g>
		<g>
			<rect x="409.6" y="138" fill="none" stroke="#CDCCCC" stroke-width="0.5" width="2.6" height="2.6"/>
			<rect x="409.6" y="144.9" fill="none" stroke="#CDCCCC" stroke-width="0.5" width="2.6" height="2.6"/>
			<rect x="409.6" y="151.5" fill="none" stroke="#CDCCCC" stroke-width="0.5" width="2.6" height="2.6"/>
			<rect x="409.6" y="158.4" fill="none" stroke="#CDCCCC" stroke-width="0.5" width="2.6" height="2.6"/>
			<rect x="409.6" y="165" fill="none" stroke="#CDCCCC" stroke-width="0.5" width="2.6" height="2.6"/>
		</g>
		<rect x="416.5" y="138" fill="none" stroke="#CDCCCC" stroke-width="0.5" width="2.6" height="2.6"/>
		<rect x="416.5" y="144.9" fill="none" stroke="#CDCCCC" stroke-width="0.5" width="2.6" height="2.6"/>
		<rect x="416.5" y="151.5" fill="none" stroke="#CDCCCC" stroke-width="0.5" width="2.6" height="2.6"/>
		<rect x="416.5" y="158.4" fill="none" stroke="#CDCCCC" stroke-width="0.5" width="2.6" height="2.6"/>
		<rect x="416.5" y="165" fill="none" stroke="#CDCCCC" stroke-width="0.5" width="2.6" height="2.6"/>
		<rect x="423.4" y="138" fill="none" stroke="#CDCCCC" stroke-width="0.5" width="2.6" height="2.6"/>
		<rect x="423.4" y="144.9" fill="none" stroke="#CDCCCC" stroke-width="0.5" width="2.6" height="2.6"/>
		<rect x="423.4" y="151.5" fill="none" stroke="#CDCCCC" stroke-width="0.5" width="2.6" height="2.6"/>
		<rect x="423.4" y="158.4" fill="none" stroke="#CDCCCC" stroke-width="0.5" width="2.6" height="2.6"/>
		<rect x="423.4" y="165" fill="none" stroke="#CDCCCC" stroke-width="0.5" width="2.6" height="2.6"/>
		<rect x="430.3" y="138" fill="none" stroke="#CDCCCC" stroke-width="0.5" width="2.6" height="2.6"/>
		<rect x="430.3" y="144.9" fill="none" stroke="#CDCCCC" stroke-width="0.5" width="2.6" height="2.6"/>
		<rect x="430.3" y="151.5" fill="none" stroke="#CDCCCC" stroke-width="0.5" width="2.6" height="2.6"/>
		<rect x="430.3" y="158.4" fill="none" stroke="#CDCCCC" stroke-width="0.5" width="2.6" height="2.6"/>
		<rect x="430.3" y="165" fill="none" stroke="#CDCCCC" stroke-width="0.5" width="2.6" height="2.6"/>
		<rect x="437.2" y="138" fill="none" stroke="#CDCCCC" stroke-width="0.5" width="2.6" height="2.6"/>
		<rect x="437.2" y="144.9" fill="none" stroke="#CDCCCC" stroke-width="0.5" width="2.6" height="2.6"/>
		<rect x="437.2" y="151.5" fill="none" stroke="#CDCCCC" stroke-width="0.5" width="2.6" height="2.6"/>
		<rect x="437.2" y="158.4" fill="none" stroke="#CDCCCC" stroke-width="0.5" width="2.6" height="2.6"/>
		<rect x="437.2" y="165" fill="none" stroke="#CDCCCC" stroke-width="0.5" width="2.6" height="2.6"/>
		<rect x="444.3" y="138" fill="none" stroke="#CDCCCC" stroke-width="0.5" width="2.6" height="2.6"/>
		<rect x="444.3" y="144.9" fill="none" stroke="#CDCCCC" stroke-width="0.5" width="2.6" height="2.6"/>
		<rect x="444.3" y="151.5" fill="none" stroke="#CDCCCC" stroke-width="0.5" width="2.6" height="2.6"/>
		<rect x="444.3" y="158.4" fill="none" stroke="#CDCCCC" stroke-width="0.5" width="2.6" height="2.6"/>
		<rect x="444.3" y="165" fill="none" stroke="#CDCCCC" stroke-width="0.5" width="2.6" height="2.6"/>
		<rect x="451.2" y="138" fill="none" stroke="#CDCCCC" stroke-width="0.5" width="2.6" height="2.6"/>
		<rect x="451.2" y="144.9" fill="none" stroke="#CDCCCC" stroke-width="0.5" width="2.6" height="2.6"/>
		<rect x="451.2" y="151.5" fill="none" stroke="#CDCCCC" stroke-width="0.5" width="2.6" height="2.6"/>
		<rect x="451.2" y="158.4" fill="none" stroke="#CDCCCC" stroke-width="0.5" width="2.6" height="2.6"/>
		<rect x="451.2" y="165" fill="none" stroke="#CDCCCC" stroke-width="0.5" width="2.6" height="2.6"/>
		<rect x="458.1" y="138" fill="none" stroke="#CDCCCC" stroke-width="0.5" width="2.6" height="2.6"/>
		<rect x="458.1" y="144.9" fill="none" stroke="#CDCCCC" stroke-width="0.5" width="2.6" height="2.6"/>
		<rect x="458.1" y="151.5" fill="none" stroke="#CDCCCC" stroke-width="0.5" width="2.6" height="2.6"/>
		<rect x="458.1" y="158.4" fill="none" stroke="#CDCCCC" stroke-width="0.5" width="2.6" height="2.6"/>
		<rect x="458.1" y="165" fill="none" stroke="#CDCCCC" stroke-width="0.5" width="2.6" height="2.6"/>
		<g>
			<rect x="278.1" y="138" fill="none" stroke="#CDCCCC" stroke-width="0.5" width="2.6" height="2.6"/>
			<rect x="278.1" y="144.9" fill="none" stroke="#CDCCCC" stroke-width="0.5" width="2.6" height="2.6"/>
			<rect x="278.1" y="151.5" fill="none" stroke="#CDCCCC" stroke-width="0.5" width="2.6" height="2.6"/>
			<rect x="278.1" y="158.4" fill="none" stroke="#CDCCCC" stroke-width="0.5" width="2.6" height="2.6"/>
			<rect x="278.1" y="165" fill="none" stroke="#CDCCCC" stroke-width="0.5" width="2.6" height="2.6"/>
		</g>
		<g>
			<rect x="285" y="138" fill="none" stroke="#CDCCCC" stroke-width="0.5" width="2.6" height="2.6"/>
			<rect x="285" y="144.9" fill="none" stroke="#CDCCCC" stroke-width="0.5" width="2.6" height="2.6"/>
			<rect x="285" y="151.5" fill="none" stroke="#CDCCCC" stroke-width="0.5" width="2.6" height="2.6"/>
			<rect x="285" y="158.4" fill="none" stroke="#CDCCCC" stroke-width="0.5" width="2.6" height="2.6"/>
			<rect x="285" y="165" fill="none" stroke="#CDCCCC" stroke-width="0.5" width="2.6" height="2.6"/>
		</g>
		<g>
			<rect x="291.9" y="138" fill="none" stroke="#CDCCCC" stroke-width="0.5" width="2.6" height="2.6"/>
			<rect x="291.9" y="144.9" fill="none" stroke="#CDCCCC" stroke-width="0.5" width="2.6" height="2.6"/>
			<rect x="291.9" y="151.5" fill="none" stroke="#CDCCCC" stroke-width="0.5" width="2.6" height="2.6"/>
			<rect x="291.9" y="158.4" fill="none" stroke="#CDCCCC" stroke-width="0.5" width="2.6" height="2.6"/>
			<rect x="291.9" y="165" fill="none" stroke="#CDCCCC" stroke-width="0.5" width="2.6" height="2.6"/>
		</g>
		<g>
			<rect x="298.8" y="138" fill="none" stroke="#CDCCCC" stroke-width="0.5" width="2.6" height="2.6"/>
			<rect x="298.8" y="144.9" fill="none" stroke="#CDCCCC" stroke-width="0.5" width="2.6" height="2.6"/>
			<rect x="298.8" y="151.5" fill="none" stroke="#CDCCCC" stroke-width="0.5" width="2.6" height="2.6"/>
			<rect x="298.8" y="158.4" fill="none" stroke="#CDCCCC" stroke-width="0.5" width="2.6" height="2.6"/>
			<rect x="298.8" y="165" fill="none" stroke="#CDCCCC" stroke-width="0.5" width="2.6" height="2.6"/>
		</g>
		<g>
			<rect x="257.2" y="138" fill="none" stroke="#CDCCCC" stroke-width="0.5" width="2.6" height="2.6"/>
			<rect x="257.2" y="144.9" fill="none" stroke="#CDCCCC" stroke-width="0.5" width="2.6" height="2.6"/>
			<rect x="257.2" y="151.5" fill="none" stroke="#CDCCCC" stroke-width="0.5" width="2.6" height="2.6"/>
			<rect x="257.2" y="158.4" fill="none" stroke="#CDCCCC" stroke-width="0.5" width="2.6" height="2.6"/>
			<rect x="257.2" y="165" fill="none" stroke="#CDCCCC" stroke-width="0.5" width="2.6" height="2.6"/>
		</g>
		<g>
			<rect x="264.4" y="138" fill="none" stroke="#CDCCCC" stroke-width="0.5" width="2.6" height="2.6"/>
			<rect x="264.4" y="144.9" fill="none" stroke="#CDCCCC" stroke-width="0.5" width="2.6" height="2.6"/>
			<rect x="264.4" y="151.5" fill="none" stroke="#CDCCCC" stroke-width="0.5" width="2.6" height="2.6"/>
			<rect x="264.4" y="158.4" fill="none" stroke="#CDCCCC" stroke-width="0.5" width="2.6" height="2.6"/>
			<rect x="264.4" y="165" fill="none" stroke="#CDCCCC" stroke-width="0.5" width="2.6" height="2.6"/>
		</g>
		<g>
			<rect x="271.3" y="138" fill="none" stroke="#CDCCCC" stroke-width="0.5" width="2.6" height="2.6"/>
			<rect x="271.3" y="144.9" fill="none" stroke="#CDCCCC" stroke-width="0.5" width="2.6" height="2.6"/>
			<rect x="271.3" y="151.5" fill="none" stroke="#CDCCCC" stroke-width="0.5" width="2.6" height="2.6"/>
			<rect x="271.3" y="158.4" fill="none" stroke="#CDCCCC" stroke-width="0.5" width="2.6" height="2.6"/>
			<rect x="271.3" y="165" fill="none" stroke="#CDCCCC" stroke-width="0.5" width="2.6" height="2.6"/>
		</g>
	</g>
	<g>
		<g>
			<g>
				<rect x="284.5" y="63.2" fill="none" stroke="#CDCCCC" stroke-width="0.5" width="2.6" height="2.6"/>
				<rect x="277.6" y="63.2" fill="none" stroke="#CDCCCC" stroke-width="0.5" width="2.6" height="2.6"/>
				<rect x="271" y="63.2" fill="none" stroke="#CDCCCC" stroke-width="0.5" width="2.6" height="2.6"/>
				<rect x="264.1" y="63.2" fill="none" stroke="#CDCCCC" stroke-width="0.5" width="2.6" height="2.6"/>
				<rect x="257.2" y="63.2" fill="none" stroke="#CDCCCC" stroke-width="0.5" width="2.6" height="2.6"/>
			</g>
			<g>
				<rect x="257.2" y="70.1" fill="none" stroke="#CDCCCC" stroke-width="0.5" width="2.6" height="2.6"/>
				<rect x="264.1" y="70.1" fill="none" stroke="#CDCCCC" stroke-width="0.5" width="2.6" height="2.6"/>
				<rect x="271" y="70.1" fill="none" stroke="#CDCCCC" stroke-width="0.5" width="2.6" height="2.6"/>
				<rect x="277.6" y="70.1" fill="none" stroke="#CDCCCC" stroke-width="0.5" width="2.6" height="2.6"/>
				<rect x="284.5" y="70.1" fill="none" stroke="#CDCCCC" stroke-width="0.5" width="2.6" height="2.6"/>
			</g>
		</g>
		<g>
			<g>
				<rect x="326.1" y="63.2" fill="none" stroke="#CDCCCC" stroke-width="0.5" width="2.6" height="2.6"/>
				<rect x="319.2" y="63.2" fill="none" stroke="#CDCCCC" stroke-width="0.5" width="2.6" height="2.6"/>
				<rect x="312.4" y="63.2" fill="none" stroke="#CDCCCC" stroke-width="0.5" width="2.6" height="2.6"/>
				<rect x="305.7" y="63.2" fill="none" stroke="#CDCCCC" stroke-width="0.5" width="2.6" height="2.6"/>
				<rect x="298.8" y="63.2" fill="none" stroke="#CDCCCC" stroke-width="0.5" width="2.6" height="2.6"/>
			</g>
			<g>
				<rect x="298.8" y="70.1" fill="none" stroke="#CDCCCC" stroke-width="0.5" width="2.6" height="2.6"/>
				<rect x="305.7" y="70.1" fill="none" stroke="#CDCCCC" stroke-width="0.5" width="2.6" height="2.6"/>
				<rect x="312.4" y="70.1" fill="none" stroke="#CDCCCC" stroke-width="0.5" width="2.6" height="2.6"/>
				<rect x="319.2" y="70.1" fill="none" stroke="#CDCCCC" stroke-width="0.5" width="2.6" height="2.6"/>
				<rect x="326.1" y="70.1" fill="none" stroke="#CDCCCC" stroke-width="0.5" width="2.6" height="2.6"/>
			</g>
		</g>
		<g>
			<g>
				<rect x="367.5" y="63.2" fill="none" stroke="#CDCCCC" stroke-width="0.5" width="2.6" height="2.6"/>
				<rect x="360.9" y="63.2" fill="none" stroke="#CDCCCC" stroke-width="0.5" width="2.6" height="2.6"/>
				<rect x="354" y="63.2" fill="none" stroke="#CDCCCC" stroke-width="0.5" width="2.6" height="2.6"/>
				<rect x="347.1" y="63.2" fill="none" stroke="#CDCCCC" stroke-width="0.5" width="2.6" height="2.6"/>
				<rect x="340.4" y="63.2" fill="none" stroke="#CDCCCC" stroke-width="0.5" width="2.6" height="2.6"/>
			</g>
			<g>
				<rect x="340.4" y="70.1" fill="none" stroke="#CDCCCC" stroke-width="0.5" width="2.6" height="2.6"/>
				<rect x="347.1" y="70.1" fill="none" stroke="#CDCCCC" stroke-width="0.5" width="2.6" height="2.6"/>
				<rect x="354" y="70.1" fill="none" stroke="#CDCCCC" stroke-width="0.5" width="2.6" height="2.6"/>
				<rect x="360.9" y="70.1" fill="none" stroke="#CDCCCC" stroke-width="0.5" width="2.6" height="2.6"/>
				<rect x="367.5" y="70.1" fill="none" stroke="#CDCCCC" stroke-width="0.5" width="2.6" height="2.6"/>
			</g>
		</g>
		<g>
			<g>
				<rect x="409.1" y="63.2" fill="none" stroke="#CDCCCC" stroke-width="0.5" width="2.6" height="2.6"/>
				<rect x="402.2" y="63.2" fill="none" stroke="#CDCCCC" stroke-width="0.5" width="2.6" height="2.6"/>
				<rect x="395.6" y="63.2" fill="none" stroke="#CDCCCC" stroke-width="0.5" width="2.6" height="2.6"/>
				<rect x="388.7" y="63.2" fill="none" stroke="#CDCCCC" stroke-width="0.5" width="2.6" height="2.6"/>
				<rect x="381.8" y="63.2" fill="none" stroke="#CDCCCC" stroke-width="0.5" width="2.6" height="2.6"/>
			</g>
			<g>
				<rect x="381.8" y="70.1" fill="none" stroke="#CDCCCC" stroke-width="0.5" width="2.6" height="2.6"/>
				<rect x="388.7" y="70.1" fill="none" stroke="#CDCCCC" stroke-width="0.5" width="2.6" height="2.6"/>
				<rect x="395.6" y="70.1" fill="none" stroke="#CDCCCC" stroke-width="0.5" width="2.6" height="2.6"/>
				<rect x="402.2" y="70.1" fill="none" stroke="#CDCCCC" stroke-width="0.5" width="2.6" height="2.6"/>
				<rect x="409.1" y="70.1" fill="none" stroke="#CDCCCC" stroke-width="0.5" width="2.6" height="2.6"/>
			</g>
		</g>
		<g>
			<g>
				<rect x="450.7" y="63.2" fill="none" stroke="#CDCCCC" stroke-width="0.5" width="2.6" height="2.6"/>
				<rect x="443.8" y="63.2" fill="none" stroke="#CDCCCC" stroke-width="0.5" width="2.6" height="2.6"/>
				<rect x="436.9" y="63.2" fill="none" stroke="#CDCCCC" stroke-width="0.5" width="2.6" height="2.6"/>
				<rect x="430.3" y="63.2" fill="none" stroke="#CDCCCC" stroke-width="0.5" width="2.6" height="2.6"/>
				<rect x="423.4" y="63.2" fill="none" stroke="#CDCCCC" stroke-width="0.5" width="2.6" height="2.6"/>
			</g>
			<g>
				<rect x="423.4" y="70.1" fill="none" stroke="#CDCCCC" stroke-width="0.5" width="2.6" height="2.6"/>
				<rect x="430.3" y="70.1" fill="none" stroke="#CDCCCC" stroke-width="0.5" width="2.6" height="2.6"/>
				<rect x="436.9" y="70.1" fill="none" stroke="#CDCCCC" stroke-width="0.5" width="2.6" height="2.6"/>
				<rect x="443.8" y="70.1" fill="none" stroke="#CDCCCC" stroke-width="0.5" width="2.6" height="2.6"/>
				<rect x="450.7" y="70.1" fill="none" stroke="#CDCCCC" stroke-width="0.5" width="2.6" height="2.6"/>
			</g>
		</g>
	</g>
	<g>
		<g>
			<g>
				<rect x="284.5" y="187" fill="none" stroke="#CDCCCC" stroke-width="0.5" width="2.6" height="2.6"/>
				<rect x="277.6" y="187" fill="none" stroke="#CDCCCC" stroke-width="0.5" width="2.6" height="2.6"/>
				<rect x="271" y="187" fill="none" stroke="#CDCCCC" stroke-width="0.5" width="2.6" height="2.6"/>
				<rect x="264.1" y="187" fill="none" stroke="#CDCCCC" stroke-width="0.5" width="2.6" height="2.6"/>
				<rect x="257.2" y="187" fill="none" stroke="#CDCCCC" stroke-width="0.5" width="2.6" height="2.6"/>
			</g>
			<g>
				<rect x="257.2" y="193.9" fill="none" stroke="#CDCCCC" stroke-width="0.5" width="2.6" height="2.6"/>
				<rect x="264.1" y="193.9" fill="none" stroke="#CDCCCC" stroke-width="0.5" width="2.6" height="2.6"/>
				<rect x="271" y="193.9" fill="none" stroke="#CDCCCC" stroke-width="0.5" width="2.6" height="2.6"/>
				<rect x="277.6" y="193.9" fill="none" stroke="#CDCCCC" stroke-width="0.5" width="2.6" height="2.6"/>
				<rect x="284.5" y="193.9" fill="none" stroke="#CDCCCC" stroke-width="0.5" width="2.6" height="2.6"/>
			</g>
		</g>
		<g>
			<g>
				<rect x="326.1" y="187" fill="none" stroke="#CDCCCC" stroke-width="0.5" width="2.6" height="2.6"/>
				<rect x="319.2" y="187" fill="none" stroke="#CDCCCC" stroke-width="0.5" width="2.6" height="2.6"/>
				<rect x="312.4" y="187" fill="none" stroke="#CDCCCC" stroke-width="0.5" width="2.6" height="2.6"/>
				<rect x="305.7" y="187" fill="none" stroke="#CDCCCC" stroke-width="0.5" width="2.6" height="2.6"/>
				<rect x="298.8" y="187" fill="none" stroke="#CDCCCC" stroke-width="0.5" width="2.6" height="2.6"/>
			</g>
			<g>
				<rect x="298.8" y="193.9" fill="none" stroke="#CDCCCC" stroke-width="0.5" width="2.6" height="2.6"/>
				<rect x="305.7" y="193.9" fill="none" stroke="#CDCCCC" stroke-width="0.5" width="2.6" height="2.6"/>
				<rect x="312.4" y="193.9" fill="none" stroke="#CDCCCC" stroke-width="0.5" width="2.6" height="2.6"/>
				<rect x="319.2" y="193.9" fill="none" stroke="#CDCCCC" stroke-width="0.5" width="2.6" height="2.6"/>
				<rect x="326.1" y="193.9" fill="none" stroke="#CDCCCC" stroke-width="0.5" width="2.6" height="2.6"/>
			</g>
		</g>
		<g>
			<g>
				<rect x="367.5" y="187" fill="none" stroke="#CDCCCC" stroke-width="0.5" width="2.6" height="2.6"/>
				<rect x="360.9" y="187" fill="none" stroke="#CDCCCC" stroke-width="0.5" width="2.6" height="2.6"/>
				<rect x="354" y="187" fill="none" stroke="#CDCCCC" stroke-width="0.5" width="2.6" height="2.6"/>
				<rect x="347.1" y="187" fill="none" stroke="#CDCCCC" stroke-width="0.5" width="2.6" height="2.6"/>
				<rect x="340.4" y="187" fill="none" stroke="#CDCCCC" stroke-width="0.5" width="2.6" height="2.6"/>
			</g>
			<g>
				<rect x="340.4" y="193.9" fill="none" stroke="#CDCCCC" stroke-width="0.5" width="2.6" height="2.6"/>
				<rect x="347.1" y="193.9" fill="none" stroke="#CDCCCC" stroke-width="0.5" width="2.6" height="2.6"/>
				<rect x="354" y="193.9" fill="none" stroke="#CDCCCC" stroke-width="0.5" width="2.6" height="2.6"/>
				<rect x="360.9" y="193.9" fill="none" stroke="#CDCCCC" stroke-width="0.5" width="2.6" height="2.6"/>
				<rect x="367.5" y="193.9" fill="none" stroke="#CDCCCC" stroke-width="0.5" width="2.6" height="2.6"/>
			</g>
		</g>
		<g>
			<g>
				<rect x="409.1" y="187" fill="none" stroke="#CDCCCC" stroke-width="0.5" width="2.6" height="2.6"/>
				<rect x="402.2" y="187" fill="none" stroke="#CDCCCC" stroke-width="0.5" width="2.6" height="2.6"/>
				<rect x="395.6" y="187" fill="none" stroke="#CDCCCC" stroke-width="0.5" width="2.6" height="2.6"/>
				<rect x="388.7" y="187" fill="none" stroke="#CDCCCC" stroke-width="0.5" width="2.6" height="2.6"/>
				<rect x="381.8" y="187" fill="none" stroke="#CDCCCC" stroke-width="0.5" width="2.6" height="2.6"/>
			</g>
			<g>
				<rect x="381.8" y="193.9" fill="none" stroke="#CDCCCC" stroke-width="0.5" width="2.6" height="2.6"/>
				<rect x="388.7" y="193.9" fill="none" stroke="#CDCCCC" stroke-width="0.5" width="2.6" height="2.6"/>
				<rect x="395.6" y="193.9" fill="none" stroke="#CDCCCC" stroke-width="0.5" width="2.6" height="2.6"/>
				<rect x="402.2" y="193.9" fill="none" stroke="#CDCCCC" stroke-width="0.5" width="2.6" height="2.6"/>
				<rect x="409.1" y="193.9" fill="none" stroke="#CDCCCC" stroke-width="0.5" width="2.6" height="2.6"/>
			</g>
		</g>
		<g>
			<g>
				<rect x="450.7" y="187" fill="none" stroke="#CDCCCC" stroke-width="0.5" width="2.6" height="2.6"/>
				<rect x="443.8" y="187" fill="none" stroke="#CDCCCC" stroke-width="0.5" width="2.6" height="2.6"/>
				<rect x="436.9" y="187" fill="none" stroke="#CDCCCC" stroke-width="0.5" width="2.6" height="2.6"/>
				<rect x="430.3" y="187" fill="none" stroke="#CDCCCC" stroke-width="0.5" width="2.6" height="2.6"/>
				<rect x="423.4" y="187" fill="none" stroke="#CDCCCC" stroke-width="0.5" width="2.6" height="2.6"/>
			</g>
			<g>
				<rect x="423.4" y="193.9" fill="none" stroke="#CDCCCC" stroke-width="0.5" width="2.6" height="2.6"/>
				<rect x="430.3" y="193.9" fill="none" stroke="#CDCCCC" stroke-width="0.5" width="2.6" height="2.6"/>
				<rect x="436.9" y="193.9" fill="none" stroke="#CDCCCC" stroke-width="0.5" width="2.6" height="2.6"/>
				<rect x="443.8" y="193.9" fill="none" stroke="#CDCCCC" stroke-width="0.5" width="2.6" height="2.6"/>
				<rect x="450.7" y="193.9" fill="none" stroke="#CDCCCC" stroke-width="0.5" width="2.6" height="2.6"/>
			</g>
		</g>
	</g>
	<rect x="242.4" y="56.3" fill="none" stroke="#CDCCCC" stroke-width="0.5" width="232.8" height="145.2"/>
</g>
<line fill="none" stroke="#010101" stroke-width="0.5" x1="127" y1="67" x2="127" y2="119.1"/>
<line fill="none" stroke="#010101" stroke-width="0.5" x1="127" y1="145.4" x2="127" y2="201.3"/>
<line fill="none" stroke="#010101" stroke-width="0.5" x1="35.4" y1="133.4" x2="106.1" y2="133.4"/>
<rect x="105.8" y="119.3" fill="none" stroke="#010101" stroke-width="0.5" width="42.1" height="26.3"/>
<g>
	<text transform="matrix(1 0 0 1 114.952 134.5356)" fill="#010101" font-family="'TheSerif-HP5Plain'" font-size="9.0545">Servo</text>
</g>
<g>
	<text transform="matrix(1 0 0 1 118.9794 59.6967)" fill="#010101" font-family="'TheSerif-HP5Plain'" font-size="9.0545">+5V</text>
</g>
<polygon fill="none" stroke="#010101" stroke-width="0.5" points="29.5,126.7 35.9,133.6 29.5,140.8 12.9,140.8 12.9,126.7 "/>
<g>
	<g>
		<polyline fill="none" stroke="#010101" stroke-width="0.5" points="117.1,201.5 137.5,201.5 120.6,201.5 		"/>
		<line fill="none" stroke="#010101" stroke-width="0.5" x1="120.9" y1="206.9" x2="133.4" y2="206.9"/>
		<line fill="none" stroke="#010101" stroke-width="0.5" x1="125" y1="212" x2="129.6" y2="212"/>
	</g>
	<g>
		<polyline fill="none" stroke="#020202" stroke-width="0.45" points="117.1,201.5 137.5,201.5 120.6,201.5 		"/>
		<line fill="none" stroke="#020202" stroke-width="0.45" x1="120.9" y1="206.9" x2="133.4" y2="206.9"/>
		<line fill="none" stroke="#020202" stroke-width="0.45" x1="125" y1="212" x2="129.6" y2="212"/>
	</g>
</g>
<g>
	<text transform="matrix(1 0 0 1 134.2479 98.4653)" fill="#ACACAC" font-family="'TheSerif-HP5Plain'" font-size="9.0545">Red wire</text>
</g>
<g>
	<text transform="matrix(1 0 0 1 270.9291 242.4775)" fill="#ACACAC" font-family="'TheSerif-HP5Plain'" font-size="9.0545">Red wire</text>
</g>
<g>
	<text transform="matrix(1 0 0 1 133.3905 175.8164)" fill="#ACACAC" font-family="'TheSerif-HP5Plain'" font-size="9.0545">Black wire</text>
</g>
<g>
	<text transform="matrix(1 0 0 1 303.7006 84.8422)" fill="#ACACAC" font-family="'TheSerif-HP5Plain'" font-size="9.0545">Black wire</text>
</g>
<g>
	<text transform="matrix(1 0 0 1 42.3866 146.6479)" fill="#ACACAC" font-family="'TheSerif-HP5Plain'" font-size="9.0545">Yellow wire</text>
</g>
<g>
	<text transform="matrix(1 0 0 1 345.0638 214.3427)" fill="#ACACAC" font-family="'TheSerif-HP5Plain'" font-size="9.0545">Yellow wire</text>
</g>
<g>
	<text transform="matrix(1 0 0 1 143.1776 208.6425)" fill="#010101" font-family="'TheSerif-HP5Plain'" font-size="9.0545">Ground</text>
</g>
<path fill="none" stroke="#231F20" stroke-width="1.5073" d="M383.1,63.9"/>
<path fill="none" stroke="#231F20" stroke-width="1.5073" d="M437.4,167.1"/>
<path fill="none" stroke="#7E8387" stroke-width="0.492" d="M375.9,143.8"/>
<path fill="none" stroke="#818181" stroke-linecap="round" d="M376.7,112.4c0,0,16.3-10,22.2-30.1c3.8-13,2.8-39.3,2.8-39.3"/>
<g>
	<g>
		<g>
			<path fill="#020202" d="M460.4,260.7c-3.1,0-5.9-2.6-5.9-5.6c0-3.1,2.6-5.6,5.9-5.6c1.3,0,2.3,0.3,3.1,1v-8.4c-1,0.5-2,1-3.1,1
				c-3.1,0-5.9-2.6-5.9-5.6s2.6-5.6,5.9-5.6c1.3,0,2.3,0.3,3.1,1v-4.9h-12v-5.9h-72.2v5.9H367v4.9h12.3V260H367v5.1h12v6.4h72.5
				v-6.4h12v-4.9C462.7,260.5,461.4,260.7,460.4,260.7z"/>
		</g>
	</g>
	<ellipse fill="#FFFFFF" stroke="#CACDD3" stroke-width="0.492" cx="385.4" cy="246.5" rx="21.2" ry="21.4"/>
	<ellipse fill="#FFFFFF" stroke="#CACDD3" stroke-width="0.492" cx="385.4" cy="246.5" rx="8.4" ry="8.4"/>
	<ellipse fill="#FFFFFF" stroke="#CACDD3" stroke-width="0.492" cx="400.4" cy="246.5" rx="3.3" ry="3.3"/>
	<ellipse fill="#FFFFFF" stroke="#CACDD3" stroke-width="0.492" cx="395.8" cy="236" rx="3.3" ry="3.3"/>
	<ellipse fill="#FFFFFF" stroke="#CACDD3" stroke-width="0.492" cx="385.4" cy="231.6" rx="3.3" ry="3.3"/>
	<ellipse fill="#FFFFFF" stroke="#CACDD3" stroke-width="0.492" cx="374.9" cy="236" rx="3.3" ry="3.3"/>
	<path fill="#FFFFFF" stroke="#CACDD3" stroke-width="0.492" d="M370.8,250c-1.8,0-3.3-1.5-3.3-3.3s1.5-3.3,3.3-3.3
		c1.8,0,3.3,1.5,3.3,3.3C374.1,248.2,372.6,250,370.8,250z"/>
	<ellipse fill="#FFFFFF" stroke="#CACDD3" stroke-width="0.492" cx="374.9" cy="256.9" rx="3.3" ry="3.3"/>
	<ellipse fill="#FFFFFF" stroke="#CACDD3" stroke-width="0.492" cx="385.4" cy="261.5" rx="3.3" ry="3.3"/>
	<ellipse fill="#FFFFFF" stroke="#CACDD3" stroke-width="0.492" cx="395.8" cy="257.2" rx="3.3" ry="3.3"/>
</g>
<path fill="none" stroke="#ACACAC" stroke-linecap="round" d="M363.7,241.6c0,0-36.2-11.5-31.7-50s44.4-72.5,44.4-72.5"/>
<path fill="none" stroke="#010101" stroke-linecap="round" d="M363.2,244.4c0,0-62.3,5.9-52.3-69.7c9.7-73-24.8-110.3-24.8-110.3"/>
<path fill="none" stroke="#414141" stroke-linecap="round" d="M363.2,248.7c0,0-60,16.1-79.9-70.2c-9.4-41.1,11.7-86.5-4.3-106.7"/>
<path fill="none" stroke="#414141" stroke-linecap="round" d="M237.8,42c0,0-6.4,16.1,20.9,28.8"/>
<path fill="none" stroke="#010101" stroke-linecap="round" d="M254.4,42c0,0-6.1,4.6,4.1,23"/>
<g>
	<text transform="matrix(1 0 0 1 225.1434 34.1889)" fill="#010101" font-family="'TheSerif-HP5Plain'" font-size="9.0545">+5V</text>
</g>
<g>
	<text transform="matrix(1 0 0 1 252.1444 34.1889)" fill="#010101" font-family="'TheSerif-HP5Plain'" font-size="9.0545">Ground</text>
</g>
<g>
	<text transform="matrix(1 0 0 1 366.7084 34.1889)" fill="#010101" font-family="'TheSerif-HP5Plain'" font-size="9.0545">Digital I/O Pin 0</text>
</g>
<g>
	<text transform="matrix(1 0 0 1 11.5985 118.1674)" fill="#010101" font-family="'TheSerif-HP5Plain'" font-size="9.0545">Digital I/O Pin 0</text>
</g>
</svg>
