<?xml version="1.0" encoding="utf-8"?>
<!-- Generator: Adobe Illustrator 18.0.0, SVG Export Plug-In . SVG Version: 6.00 Build 0)  -->
<!DOCTYPE svg PUBLIC "-//W3C//DTD SVG 1.1//EN" "http://www.w3.org/Graphics/SVG/1.1/DTD/svg11.dtd">
<svg version="1.1" id="Layer_1" xmlns="http://www.w3.org/2000/svg" xmlns:xlink="http://www.w3.org/1999/xlink" x="0px" y="0px"
	 viewBox="0 0 687 220" enable-background="new 0 0 687 220" xml:space="preserve">
<text transform="matrix(1 0 0 1 335.3275 21.7918)" font-family="'TheSerif-HP5Plain'" font-size="10.3774">Analog In Pin 0</text>
<text transform="matrix(1 0 0 1 273.3107 21.7918)" font-family="'TheSerif-HP5Plain'" font-size="10.3774">+5V</text>
<text transform="matrix(1 0 0 1 469.0916 21.7918)" font-family="'TheSerif-HP5Plain'" font-size="10.3774">Ground</text>
<text transform="matrix(1 0 0 1 1.0868 10.415)" font-family="'TheSerif-HP5PlainIT'" font-size="13.3424">Example 2</text>
<polyline fill="none" stroke="#000000" stroke-width="0.5" points="133,36.3 133,70 127.9,72.5 139.9,77 127,81 138.6,86.1 127,89 
	133.7,91.7 133.7,126.5 127.4,128.7 139.9,133.2 127.4,138.1 140.3,142.1 127.4,147 133.2,149.2 133.2,174.1 "/>
<line fill="none" stroke="#000000" stroke-width="0.5" x1="42.5" y1="115.4" x2="133.7" y2="115.4"/>
<circle fill="none" stroke="#000000" stroke-width="0.5" cx="132.5" cy="81.2" r="17.2"/>
<text transform="matrix(1 0 0 1 121.1246 31.2335)" font-family="'TheSerif-HP5Plain'" font-size="10.3774">+5V</text>
<text transform="matrix(1 0 0 1 2.5691 97.8809)" font-family="'TheSerif-HP5Plain'" font-size="10.3774">Analog In Pin 0</text>
<polygon fill="none" stroke="#000000" stroke-width="0.5" points="36.2,107.7 43.5,115.7 36.2,123.7 17.2,123.7 17.2,107.7 "/>
<g>
	<polyline fill="none" stroke="#000000" stroke-width="0.5" points="121.2,174.1 144.6,174.1 125.4,174.1 	"/>
	<line fill="none" stroke="#000000" stroke-width="0.5" x1="125.6" y1="180.4" x2="140.2" y2="180.4"/>
	<line fill="none" stroke="#000000" stroke-width="0.5" x1="130.2" y1="186.3" x2="135.6" y2="186.3"/>
</g>
<text transform="matrix(1 0 0 1 149.6932 192.7598)" font-family="'TheSerif-HP5Plain'" font-size="10.3774">Ground</text>
<text transform="matrix(1 0 0 1 151.4115 140.0772)" font-family="'TheSerif-HP5Plain'" font-size="10.3774">1K</text>
<g>
	<g>
		<polygon points="145.4,63.8 149.2,56.2 153,60 		"/>
		<line fill="none" stroke="#000000" stroke-width="0.5" x1="149.2" y1="60" x2="158.7" y2="50.5"/>
	</g>
	<g>
		<polygon points="150.6,68.9 154.4,61.4 158.2,65.2 		"/>
		<line fill="none" stroke="#000000" stroke-width="0.5" x1="154.4" y1="65.2" x2="163.8" y2="55.7"/>
	</g>
</g>
<g>
	<g>
		<g>
			<rect x="336.3" y="90.7" fill="none" stroke="#CCCCCC" stroke-width="0.5" width="2.9" height="2.9"/>
			<rect x="336.3" y="98.4" fill="none" stroke="#CCCCCC" stroke-width="0.5" width="2.9" height="2.9"/>
			<rect x="336.3" y="106.2" fill="none" stroke="#CCCCCC" stroke-width="0.5" width="2.9" height="2.9"/>
			<rect x="336.3" y="114" fill="none" stroke="#CCCCCC" stroke-width="0.5" width="2.9" height="2.9"/>
			<rect x="336.3" y="121.8" fill="none" stroke="#CCCCCC" stroke-width="0.5" width="2.9" height="2.9"/>
		</g>
		<g>
			<rect x="344.2" y="90.7" fill="none" stroke="#CCCCCC" stroke-width="0.5" width="2.9" height="2.9"/>
			<rect x="344.2" y="98.4" fill="none" stroke="#CCCCCC" stroke-width="0.5" width="2.9" height="2.9"/>
			<rect x="344.2" y="106.2" fill="none" stroke="#CCCCCC" stroke-width="0.5" width="2.9" height="2.9"/>
			<rect x="344.2" y="114" fill="none" stroke="#CCCCCC" stroke-width="0.5" width="2.9" height="2.9"/>
			<rect x="344.2" y="121.8" fill="none" stroke="#CCCCCC" stroke-width="0.5" width="2.9" height="2.9"/>
		</g>
		<g>
			<rect x="352.1" y="90.7" fill="none" stroke="#CCCCCC" stroke-width="0.5" width="2.9" height="2.9"/>
			<rect x="352.1" y="98.4" fill="none" stroke="#CCCCCC" stroke-width="0.5" width="2.9" height="2.9"/>
			<rect x="352.1" y="106.2" fill="none" stroke="#CCCCCC" stroke-width="0.5" width="2.9" height="2.9"/>
			<rect x="352.1" y="114" fill="none" stroke="#CCCCCC" stroke-width="0.5" width="2.9" height="2.9"/>
			<rect x="352.1" y="121.8" fill="none" stroke="#CCCCCC" stroke-width="0.5" width="2.9" height="2.9"/>
		</g>
		<g>
			<rect x="360.1" y="90.7" fill="none" stroke="#CCCCCC" stroke-width="0.5" width="2.9" height="2.9"/>
			<rect x="360.1" y="98.4" fill="none" stroke="#CCCCCC" stroke-width="0.5" width="2.9" height="2.9"/>
			<rect x="360.1" y="106.2" fill="none" stroke="#CCCCCC" stroke-width="0.5" width="2.9" height="2.9"/>
			<rect x="360.1" y="114" fill="none" stroke="#CCCCCC" stroke-width="0.5" width="2.9" height="2.9"/>
			<rect x="360.1" y="121.8" fill="none" stroke="#CCCCCC" stroke-width="0.5" width="2.9" height="2.9"/>
		</g>
		<g>
			<rect x="368" y="90.7" fill="none" stroke="#CCCCCC" stroke-width="0.5" width="2.9" height="2.9"/>
			<rect x="368" y="98.4" fill="none" stroke="#CCCCCC" stroke-width="0.5" width="2.9" height="2.9"/>
			<rect x="368" y="106.2" fill="none" stroke="#CCCCCC" stroke-width="0.5" width="2.9" height="2.9"/>
			<rect x="368" y="114" fill="none" stroke="#CCCCCC" stroke-width="0.5" width="2.9" height="2.9"/>
			<rect x="368" y="121.8" fill="none" stroke="#CCCCCC" stroke-width="0.5" width="2.9" height="2.9"/>
		</g>
		<g>
			<rect x="375.9" y="90.7" fill="none" stroke="#CCCCCC" stroke-width="0.5" width="2.9" height="2.9"/>
			<rect x="375.9" y="98.4" fill="none" stroke="#CCCCCC" stroke-width="0.5" width="2.9" height="2.9"/>
			<rect x="375.9" y="106.2" fill="none" stroke="#CCCCCC" stroke-width="0.5" width="2.9" height="2.9"/>
			<rect x="375.9" y="114" fill="none" stroke="#CCCCCC" stroke-width="0.5" width="2.9" height="2.9"/>
			<rect x="375.9" y="121.8" fill="none" stroke="#CCCCCC" stroke-width="0.5" width="2.9" height="2.9"/>
		</g>
		<g>
			<rect x="383.9" y="90.7" fill="none" stroke="#CCCCCC" stroke-width="0.5" width="2.9" height="2.9"/>
			<rect x="383.9" y="98.4" fill="none" stroke="#CCCCCC" stroke-width="0.5" width="2.9" height="2.9"/>
			<rect x="383.9" y="106.2" fill="none" stroke="#CCCCCC" stroke-width="0.5" width="2.9" height="2.9"/>
			<rect x="383.9" y="114" fill="none" stroke="#CCCCCC" stroke-width="0.5" width="2.9" height="2.9"/>
			<rect x="383.9" y="121.8" fill="none" stroke="#CCCCCC" stroke-width="0.5" width="2.9" height="2.9"/>
		</g>
		<g>
			<rect x="391.8" y="90.7" fill="none" stroke="#CCCCCC" stroke-width="0.5" width="2.9" height="2.9"/>
			<rect x="391.8" y="98.4" fill="none" stroke="#CCCCCC" stroke-width="0.5" width="2.9" height="2.9"/>
			<rect x="391.8" y="106.2" fill="none" stroke="#CCCCCC" stroke-width="0.5" width="2.9" height="2.9"/>
			<rect x="391.8" y="114" fill="none" stroke="#CCCCCC" stroke-width="0.5" width="2.9" height="2.9"/>
			<rect x="391.8" y="121.8" fill="none" stroke="#CCCCCC" stroke-width="0.5" width="2.9" height="2.9"/>
		</g>
		<g>
			<rect x="399.7" y="90.7" fill="none" stroke="#CCCCCC" stroke-width="0.5" width="2.9" height="2.9"/>
			<rect x="399.7" y="98.4" fill="none" stroke="#CCCCCC" stroke-width="0.5" width="2.9" height="2.9"/>
			<rect x="399.7" y="106.2" fill="none" stroke="#CCCCCC" stroke-width="0.5" width="2.9" height="2.9"/>
			<rect x="399.7" y="114" fill="none" stroke="#CCCCCC" stroke-width="0.5" width="2.9" height="2.9"/>
			<rect x="399.7" y="121.8" fill="none" stroke="#CCCCCC" stroke-width="0.5" width="2.9" height="2.9"/>
		</g>
		<g>
			<rect x="407.7" y="90.7" fill="none" stroke="#CCCCCC" stroke-width="0.5" width="2.9" height="2.9"/>
			<rect x="407.7" y="98.4" fill="none" stroke="#CCCCCC" stroke-width="0.5" width="2.9" height="2.9"/>
			<rect x="407.7" y="106.2" fill="none" stroke="#CCCCCC" stroke-width="0.5" width="2.9" height="2.9"/>
			<rect x="407.7" y="114" fill="none" stroke="#CCCCCC" stroke-width="0.5" width="2.9" height="2.9"/>
			<rect x="407.7" y="121.8" fill="none" stroke="#CCCCCC" stroke-width="0.5" width="2.9" height="2.9"/>
		</g>
		<g>
			<rect x="415.6" y="90.7" fill="none" stroke="#CCCCCC" stroke-width="0.5" width="2.9" height="2.9"/>
			<rect x="415.6" y="98.4" fill="none" stroke="#CCCCCC" stroke-width="0.5" width="2.9" height="2.9"/>
			<rect x="415.6" y="106.2" fill="none" stroke="#CCCCCC" stroke-width="0.5" width="2.9" height="2.9"/>
			<rect x="415.6" y="114" fill="none" stroke="#CCCCCC" stroke-width="0.5" width="2.9" height="2.9"/>
			<rect x="415.6" y="121.8" fill="none" stroke="#CCCCCC" stroke-width="0.5" width="2.9" height="2.9"/>
		</g>
		<g>
			<rect x="423.5" y="90.7" fill="none" stroke="#CCCCCC" stroke-width="0.5" width="2.9" height="2.9"/>
			<rect x="423.5" y="98.4" fill="none" stroke="#CCCCCC" stroke-width="0.5" width="2.9" height="2.9"/>
			<rect x="423.5" y="106.2" fill="none" stroke="#CCCCCC" stroke-width="0.5" width="2.9" height="2.9"/>
			<rect x="423.5" y="114" fill="none" stroke="#CCCCCC" stroke-width="0.5" width="2.9" height="2.9"/>
			<rect x="423.5" y="121.8" fill="none" stroke="#CCCCCC" stroke-width="0.5" width="2.9" height="2.9"/>
		</g>
		<g>
			<rect x="431.5" y="90.7" fill="none" stroke="#CCCCCC" stroke-width="0.5" width="2.9" height="2.9"/>
			<rect x="431.5" y="98.4" fill="none" stroke="#CCCCCC" stroke-width="0.5" width="2.9" height="2.9"/>
			<rect x="431.5" y="106.2" fill="none" stroke="#CCCCCC" stroke-width="0.5" width="2.9" height="2.9"/>
			<rect x="431.5" y="114" fill="none" stroke="#CCCCCC" stroke-width="0.5" width="2.9" height="2.9"/>
			<rect x="431.5" y="121.8" fill="none" stroke="#CCCCCC" stroke-width="0.5" width="2.9" height="2.9"/>
		</g>
		<g>
			<rect x="439.4" y="90.7" fill="none" stroke="#CCCCCC" stroke-width="0.5" width="2.9" height="2.9"/>
			<rect x="439.4" y="98.4" fill="none" stroke="#CCCCCC" stroke-width="0.5" width="2.9" height="2.9"/>
			<rect x="439.4" y="106.2" fill="none" stroke="#CCCCCC" stroke-width="0.5" width="2.9" height="2.9"/>
			<rect x="439.4" y="114" fill="none" stroke="#CCCCCC" stroke-width="0.5" width="2.9" height="2.9"/>
			<rect x="439.4" y="121.8" fill="none" stroke="#CCCCCC" stroke-width="0.5" width="2.9" height="2.9"/>
		</g>
		<g>
			<rect x="447.3" y="90.7" fill="none" stroke="#CCCCCC" stroke-width="0.5" width="2.9" height="2.9"/>
			<rect x="447.3" y="98.4" fill="none" stroke="#CCCCCC" stroke-width="0.5" width="2.9" height="2.9"/>
			<rect x="447.3" y="106.2" fill="none" stroke="#CCCCCC" stroke-width="0.5" width="2.9" height="2.9"/>
			<rect x="447.3" y="114" fill="none" stroke="#CCCCCC" stroke-width="0.5" width="2.9" height="2.9"/>
			<rect x="447.3" y="121.8" fill="none" stroke="#CCCCCC" stroke-width="0.5" width="2.9" height="2.9"/>
		</g>
		<g>
			<rect x="455.3" y="90.7" fill="none" stroke="#CCCCCC" stroke-width="0.5" width="2.9" height="2.9"/>
			<rect x="455.3" y="98.4" fill="none" stroke="#CCCCCC" stroke-width="0.5" width="2.9" height="2.9"/>
			<rect x="455.3" y="106.2" fill="none" stroke="#CCCCCC" stroke-width="0.5" width="2.9" height="2.9"/>
			<rect x="455.3" y="114" fill="none" stroke="#CCCCCC" stroke-width="0.5" width="2.9" height="2.9"/>
			<rect x="455.3" y="121.8" fill="none" stroke="#CCCCCC" stroke-width="0.5" width="2.9" height="2.9"/>
		</g>
		<g>
			<rect x="463.2" y="90.7" fill="none" stroke="#CCCCCC" stroke-width="0.5" width="2.9" height="2.9"/>
			<rect x="463.2" y="98.4" fill="none" stroke="#CCCCCC" stroke-width="0.5" width="2.9" height="2.9"/>
			<rect x="463.2" y="106.2" fill="none" stroke="#CCCCCC" stroke-width="0.5" width="2.9" height="2.9"/>
			<rect x="463.2" y="114" fill="none" stroke="#CCCCCC" stroke-width="0.5" width="2.9" height="2.9"/>
			<rect x="463.2" y="121.8" fill="none" stroke="#CCCCCC" stroke-width="0.5" width="2.9" height="2.9"/>
		</g>
		<g>
			<rect x="471.1" y="90.7" fill="none" stroke="#CCCCCC" stroke-width="0.5" width="2.9" height="2.9"/>
			<rect x="471.1" y="98.4" fill="none" stroke="#CCCCCC" stroke-width="0.5" width="2.9" height="2.9"/>
			<rect x="471.1" y="106.2" fill="none" stroke="#CCCCCC" stroke-width="0.5" width="2.9" height="2.9"/>
			<rect x="471.1" y="114" fill="none" stroke="#CCCCCC" stroke-width="0.5" width="2.9" height="2.9"/>
			<rect x="471.1" y="121.8" fill="none" stroke="#CCCCCC" stroke-width="0.5" width="2.9" height="2.9"/>
		</g>
		<g>
			<rect x="479.1" y="90.7" fill="none" stroke="#CCCCCC" stroke-width="0.5" width="2.9" height="2.9"/>
			<rect x="479.1" y="98.4" fill="none" stroke="#CCCCCC" stroke-width="0.5" width="2.9" height="2.9"/>
			<rect x="479.1" y="106.2" fill="none" stroke="#CCCCCC" stroke-width="0.5" width="2.9" height="2.9"/>
			<rect x="479.1" y="114" fill="none" stroke="#CCCCCC" stroke-width="0.5" width="2.9" height="2.9"/>
			<rect x="479.1" y="121.8" fill="none" stroke="#CCCCCC" stroke-width="0.5" width="2.9" height="2.9"/>
		</g>
		<g>
			<rect x="487" y="90.7" fill="none" stroke="#CCCCCC" stroke-width="0.5" width="2.9" height="2.9"/>
			<rect x="487" y="98.4" fill="none" stroke="#CCCCCC" stroke-width="0.5" width="2.9" height="2.9"/>
			<rect x="487" y="106.2" fill="none" stroke="#CCCCCC" stroke-width="0.5" width="2.9" height="2.9"/>
			<rect x="487" y="114" fill="none" stroke="#CCCCCC" stroke-width="0.5" width="2.9" height="2.9"/>
			<rect x="487" y="121.8" fill="none" stroke="#CCCCCC" stroke-width="0.5" width="2.9" height="2.9"/>
		</g>
		<g>
			<rect x="494.9" y="90.7" fill="none" stroke="#CCCCCC" stroke-width="0.5" width="2.9" height="2.9"/>
			<rect x="494.9" y="98.4" fill="none" stroke="#CCCCCC" stroke-width="0.5" width="2.9" height="2.9"/>
			<rect x="494.9" y="106.2" fill="none" stroke="#CCCCCC" stroke-width="0.5" width="2.9" height="2.9"/>
			<rect x="494.9" y="114" fill="none" stroke="#CCCCCC" stroke-width="0.5" width="2.9" height="2.9"/>
			<rect x="494.9" y="121.8" fill="none" stroke="#CCCCCC" stroke-width="0.5" width="2.9" height="2.9"/>
		</g>
		<g>
			<rect x="502.9" y="90.7" fill="none" stroke="#CCCCCC" stroke-width="0.5" width="2.9" height="2.9"/>
			<rect x="502.9" y="98.4" fill="none" stroke="#CCCCCC" stroke-width="0.5" width="2.9" height="2.9"/>
			<rect x="502.9" y="106.2" fill="none" stroke="#CCCCCC" stroke-width="0.5" width="2.9" height="2.9"/>
			<rect x="502.9" y="114" fill="none" stroke="#CCCCCC" stroke-width="0.5" width="2.9" height="2.9"/>
			<rect x="502.9" y="121.8" fill="none" stroke="#CCCCCC" stroke-width="0.5" width="2.9" height="2.9"/>
		</g>
		<g>
			<rect x="510.8" y="90.7" fill="none" stroke="#CCCCCC" stroke-width="0.5" width="2.9" height="2.9"/>
			<rect x="510.8" y="98.4" fill="none" stroke="#CCCCCC" stroke-width="0.5" width="2.9" height="2.9"/>
			<rect x="510.8" y="106.2" fill="none" stroke="#CCCCCC" stroke-width="0.5" width="2.9" height="2.9"/>
			<rect x="510.8" y="114" fill="none" stroke="#CCCCCC" stroke-width="0.5" width="2.9" height="2.9"/>
			<rect x="510.8" y="121.8" fill="none" stroke="#CCCCCC" stroke-width="0.5" width="2.9" height="2.9"/>
		</g>
		<g>
			<rect x="304.5" y="90.7" fill="none" stroke="#CCCCCC" stroke-width="0.5" width="2.9" height="2.9"/>
			<rect x="304.5" y="98.4" fill="none" stroke="#CCCCCC" stroke-width="0.5" width="2.9" height="2.9"/>
			<rect x="304.5" y="106.2" fill="none" stroke="#CCCCCC" stroke-width="0.5" width="2.9" height="2.9"/>
			<rect x="304.5" y="114" fill="none" stroke="#CCCCCC" stroke-width="0.5" width="2.9" height="2.9"/>
			<rect x="304.5" y="121.8" fill="none" stroke="#CCCCCC" stroke-width="0.5" width="2.9" height="2.9"/>
		</g>
		<g>
			<rect x="312.5" y="90.7" fill="none" stroke="#CCCCCC" stroke-width="0.5" width="2.9" height="2.9"/>
			<rect x="312.5" y="98.4" fill="none" stroke="#CCCCCC" stroke-width="0.5" width="2.9" height="2.9"/>
			<rect x="312.5" y="106.2" fill="none" stroke="#CCCCCC" stroke-width="0.5" width="2.9" height="2.9"/>
			<rect x="312.5" y="114" fill="none" stroke="#CCCCCC" stroke-width="0.5" width="2.9" height="2.9"/>
			<rect x="312.5" y="121.8" fill="none" stroke="#CCCCCC" stroke-width="0.5" width="2.9" height="2.9"/>
		</g>
		<g>
			<rect x="320.4" y="90.7" fill="none" stroke="#CCCCCC" stroke-width="0.5" width="2.9" height="2.9"/>
			<rect x="320.4" y="98.4" fill="none" stroke="#CCCCCC" stroke-width="0.5" width="2.9" height="2.9"/>
			<rect x="320.4" y="106.2" fill="none" stroke="#CCCCCC" stroke-width="0.5" width="2.9" height="2.9"/>
			<rect x="320.4" y="114" fill="none" stroke="#CCCCCC" stroke-width="0.5" width="2.9" height="2.9"/>
			<rect x="320.4" y="121.8" fill="none" stroke="#CCCCCC" stroke-width="0.5" width="2.9" height="2.9"/>
		</g>
		<g>
			<rect x="328.3" y="90.7" fill="none" stroke="#CCCCCC" stroke-width="0.5" width="2.9" height="2.9"/>
			<rect x="328.3" y="98.4" fill="none" stroke="#CCCCCC" stroke-width="0.5" width="2.9" height="2.9"/>
			<rect x="328.3" y="106.2" fill="none" stroke="#CCCCCC" stroke-width="0.5" width="2.9" height="2.9"/>
			<rect x="328.3" y="114" fill="none" stroke="#CCCCCC" stroke-width="0.5" width="2.9" height="2.9"/>
			<rect x="328.3" y="121.8" fill="none" stroke="#CCCCCC" stroke-width="0.5" width="2.9" height="2.9"/>
		</g>
		<g>
			<rect x="280.7" y="90.7" fill="none" stroke="#CCCCCC" stroke-width="0.5" width="2.9" height="2.9"/>
			<rect x="280.7" y="98.4" fill="none" stroke="#CCCCCC" stroke-width="0.5" width="2.9" height="2.9"/>
			<rect x="280.7" y="106.2" fill="none" stroke="#CCCCCC" stroke-width="0.5" width="2.9" height="2.9"/>
			<rect x="280.7" y="114" fill="none" stroke="#CCCCCC" stroke-width="0.5" width="2.9" height="2.9"/>
			<rect x="280.7" y="121.8" fill="none" stroke="#CCCCCC" stroke-width="0.5" width="2.9" height="2.9"/>
		</g>
		<g>
			<rect x="288.7" y="90.7" fill="none" stroke="#CCCCCC" stroke-width="0.5" width="2.9" height="2.9"/>
			<rect x="288.7" y="98.4" fill="none" stroke="#CCCCCC" stroke-width="0.5" width="2.9" height="2.9"/>
			<rect x="288.7" y="106.2" fill="none" stroke="#CCCCCC" stroke-width="0.5" width="2.9" height="2.9"/>
			<rect x="288.7" y="114" fill="none" stroke="#CCCCCC" stroke-width="0.5" width="2.9" height="2.9"/>
			<rect x="288.7" y="121.8" fill="none" stroke="#CCCCCC" stroke-width="0.5" width="2.9" height="2.9"/>
		</g>
		<g>
			<rect x="296.6" y="90.7" fill="none" stroke="#CCCCCC" stroke-width="0.5" width="2.9" height="2.9"/>
			<rect x="296.6" y="98.4" fill="none" stroke="#CCCCCC" stroke-width="0.5" width="2.9" height="2.9"/>
			<rect x="296.6" y="106.2" fill="none" stroke="#CCCCCC" stroke-width="0.5" width="2.9" height="2.9"/>
			<rect x="296.6" y="114" fill="none" stroke="#CCCCCC" stroke-width="0.5" width="2.9" height="2.9"/>
			<rect x="296.6" y="121.8" fill="none" stroke="#CCCCCC" stroke-width="0.5" width="2.9" height="2.9"/>
		</g>
	</g>
	<g>
		<g>
			<rect x="336.3" y="144.6" fill="none" stroke="#CCCCCC" stroke-width="0.5" width="2.9" height="2.9"/>
			<rect x="336.3" y="152.4" fill="none" stroke="#CCCCCC" stroke-width="0.5" width="2.9" height="2.9"/>
			<rect x="336.3" y="160.2" fill="none" stroke="#CCCCCC" stroke-width="0.5" width="2.9" height="2.9"/>
			<rect x="336.3" y="168" fill="none" stroke="#CCCCCC" stroke-width="0.5" width="2.9" height="2.9"/>
			<rect x="336.3" y="175.8" fill="none" stroke="#CCCCCC" stroke-width="0.5" width="2.9" height="2.9"/>
		</g>
		<g>
			<rect x="344.2" y="144.6" fill="none" stroke="#CCCCCC" stroke-width="0.5" width="2.9" height="2.9"/>
			<rect x="344.2" y="152.4" fill="none" stroke="#CCCCCC" stroke-width="0.5" width="2.9" height="2.9"/>
			<rect x="344.2" y="160.2" fill="none" stroke="#CCCCCC" stroke-width="0.5" width="2.9" height="2.9"/>
			<rect x="344.2" y="168" fill="none" stroke="#CCCCCC" stroke-width="0.5" width="2.9" height="2.9"/>
			<rect x="344.2" y="175.8" fill="none" stroke="#CCCCCC" stroke-width="0.5" width="2.9" height="2.9"/>
		</g>
		<g>
			<rect x="352.1" y="144.6" fill="none" stroke="#CCCCCC" stroke-width="0.5" width="2.9" height="2.9"/>
			<rect x="352.1" y="152.4" fill="none" stroke="#CCCCCC" stroke-width="0.5" width="2.9" height="2.9"/>
			<rect x="352.1" y="160.2" fill="none" stroke="#CCCCCC" stroke-width="0.5" width="2.9" height="2.9"/>
			<rect x="352.1" y="168" fill="none" stroke="#CCCCCC" stroke-width="0.5" width="2.9" height="2.9"/>
			<rect x="352.1" y="175.8" fill="none" stroke="#CCCCCC" stroke-width="0.5" width="2.9" height="2.9"/>
		</g>
		<g>
			<rect x="360.1" y="144.6" fill="none" stroke="#CCCCCC" stroke-width="0.5" width="2.9" height="2.9"/>
			<rect x="360.1" y="152.4" fill="none" stroke="#CCCCCC" stroke-width="0.5" width="2.9" height="2.9"/>
			<rect x="360.1" y="160.2" fill="none" stroke="#CCCCCC" stroke-width="0.5" width="2.9" height="2.9"/>
			<rect x="360.1" y="168" fill="none" stroke="#CCCCCC" stroke-width="0.5" width="2.9" height="2.9"/>
			<rect x="360.1" y="175.8" fill="none" stroke="#CCCCCC" stroke-width="0.5" width="2.9" height="2.9"/>
		</g>
		<g>
			<rect x="368" y="144.6" fill="none" stroke="#CCCCCC" stroke-width="0.5" width="2.9" height="2.9"/>
			<rect x="368" y="152.4" fill="none" stroke="#CCCCCC" stroke-width="0.5" width="2.9" height="2.9"/>
			<rect x="368" y="160.2" fill="none" stroke="#CCCCCC" stroke-width="0.5" width="2.9" height="2.9"/>
			<rect x="368" y="168" fill="none" stroke="#CCCCCC" stroke-width="0.5" width="2.9" height="2.9"/>
			<rect x="368" y="175.8" fill="none" stroke="#CCCCCC" stroke-width="0.5" width="2.9" height="2.9"/>
		</g>
		<g>
			<rect x="375.9" y="144.6" fill="none" stroke="#CCCCCC" stroke-width="0.5" width="2.9" height="2.9"/>
			<rect x="375.9" y="152.4" fill="none" stroke="#CCCCCC" stroke-width="0.5" width="2.9" height="2.9"/>
			<rect x="375.9" y="160.2" fill="none" stroke="#CCCCCC" stroke-width="0.5" width="2.9" height="2.9"/>
			<rect x="375.9" y="168" fill="none" stroke="#CCCCCC" stroke-width="0.5" width="2.9" height="2.9"/>
			<rect x="375.9" y="175.8" fill="none" stroke="#CCCCCC" stroke-width="0.5" width="2.9" height="2.9"/>
		</g>
		<g>
			<rect x="383.9" y="144.6" fill="none" stroke="#CCCCCC" stroke-width="0.5" width="2.9" height="2.9"/>
			<rect x="383.9" y="152.4" fill="none" stroke="#CCCCCC" stroke-width="0.5" width="2.9" height="2.9"/>
			<rect x="383.9" y="160.2" fill="none" stroke="#CCCCCC" stroke-width="0.5" width="2.9" height="2.9"/>
			<rect x="383.9" y="168" fill="none" stroke="#CCCCCC" stroke-width="0.5" width="2.9" height="2.9"/>
			<rect x="383.9" y="175.8" fill="none" stroke="#CCCCCC" stroke-width="0.5" width="2.9" height="2.9"/>
		</g>
		<g>
			<rect x="391.8" y="144.6" fill="none" stroke="#CCCCCC" stroke-width="0.5" width="2.9" height="2.9"/>
			<rect x="391.8" y="152.4" fill="none" stroke="#CCCCCC" stroke-width="0.5" width="2.9" height="2.9"/>
			<rect x="391.8" y="160.2" fill="none" stroke="#CCCCCC" stroke-width="0.5" width="2.9" height="2.9"/>
			<rect x="391.8" y="168" fill="none" stroke="#CCCCCC" stroke-width="0.5" width="2.9" height="2.9"/>
			<rect x="391.8" y="175.8" fill="none" stroke="#CCCCCC" stroke-width="0.5" width="2.9" height="2.9"/>
		</g>
		<g>
			<rect x="399.7" y="144.6" fill="none" stroke="#CCCCCC" stroke-width="0.5" width="2.9" height="2.9"/>
			<rect x="399.7" y="152.4" fill="none" stroke="#CCCCCC" stroke-width="0.5" width="2.9" height="2.9"/>
			<rect x="399.7" y="160.2" fill="none" stroke="#CCCCCC" stroke-width="0.5" width="2.9" height="2.9"/>
			<rect x="399.7" y="168" fill="none" stroke="#CCCCCC" stroke-width="0.5" width="2.9" height="2.9"/>
			<rect x="399.7" y="175.8" fill="none" stroke="#CCCCCC" stroke-width="0.5" width="2.9" height="2.9"/>
		</g>
		<g>
			<rect x="407.7" y="144.6" fill="none" stroke="#CCCCCC" stroke-width="0.5" width="2.9" height="2.9"/>
			<rect x="407.7" y="152.4" fill="none" stroke="#CCCCCC" stroke-width="0.5" width="2.9" height="2.9"/>
			<rect x="407.7" y="160.2" fill="none" stroke="#CCCCCC" stroke-width="0.5" width="2.9" height="2.9"/>
			<rect x="407.7" y="168" fill="none" stroke="#CCCCCC" stroke-width="0.5" width="2.9" height="2.9"/>
			<rect x="407.7" y="175.8" fill="none" stroke="#CCCCCC" stroke-width="0.5" width="2.9" height="2.9"/>
		</g>
		<g>
			<rect x="415.6" y="144.6" fill="none" stroke="#CCCCCC" stroke-width="0.5" width="2.9" height="2.9"/>
			<rect x="415.6" y="152.4" fill="none" stroke="#CCCCCC" stroke-width="0.5" width="2.9" height="2.9"/>
			<rect x="415.6" y="160.2" fill="none" stroke="#CCCCCC" stroke-width="0.5" width="2.9" height="2.9"/>
			<rect x="415.6" y="168" fill="none" stroke="#CCCCCC" stroke-width="0.5" width="2.9" height="2.9"/>
			<rect x="415.6" y="175.8" fill="none" stroke="#CCCCCC" stroke-width="0.5" width="2.9" height="2.9"/>
		</g>
		<g>
			<rect x="423.5" y="144.6" fill="none" stroke="#CCCCCC" stroke-width="0.5" width="2.9" height="2.9"/>
			<rect x="423.5" y="152.4" fill="none" stroke="#CCCCCC" stroke-width="0.5" width="2.9" height="2.9"/>
			<rect x="423.5" y="160.2" fill="none" stroke="#CCCCCC" stroke-width="0.5" width="2.9" height="2.9"/>
			<rect x="423.5" y="168" fill="none" stroke="#CCCCCC" stroke-width="0.5" width="2.9" height="2.9"/>
			<rect x="423.5" y="175.8" fill="none" stroke="#CCCCCC" stroke-width="0.5" width="2.9" height="2.9"/>
		</g>
		<g>
			<rect x="431.5" y="144.6" fill="none" stroke="#CCCCCC" stroke-width="0.5" width="2.9" height="2.9"/>
			<rect x="431.5" y="152.4" fill="none" stroke="#CCCCCC" stroke-width="0.5" width="2.9" height="2.9"/>
			<rect x="431.5" y="160.2" fill="none" stroke="#CCCCCC" stroke-width="0.5" width="2.9" height="2.9"/>
			<rect x="431.5" y="168" fill="none" stroke="#CCCCCC" stroke-width="0.5" width="2.9" height="2.9"/>
			<rect x="431.5" y="175.8" fill="none" stroke="#CCCCCC" stroke-width="0.5" width="2.9" height="2.9"/>
		</g>
		<g>
			<rect x="439.4" y="144.6" fill="none" stroke="#CCCCCC" stroke-width="0.5" width="2.9" height="2.9"/>
			<rect x="439.4" y="152.4" fill="none" stroke="#CCCCCC" stroke-width="0.5" width="2.9" height="2.9"/>
			<rect x="439.4" y="160.2" fill="none" stroke="#CCCCCC" stroke-width="0.5" width="2.9" height="2.9"/>
			<rect x="439.4" y="168" fill="none" stroke="#CCCCCC" stroke-width="0.5" width="2.9" height="2.9"/>
			<rect x="439.4" y="175.8" fill="none" stroke="#CCCCCC" stroke-width="0.5" width="2.9" height="2.9"/>
		</g>
		<g>
			<rect x="447.3" y="144.6" fill="none" stroke="#CCCCCC" stroke-width="0.5" width="2.9" height="2.9"/>
			<rect x="447.3" y="152.4" fill="none" stroke="#CCCCCC" stroke-width="0.5" width="2.9" height="2.9"/>
			<rect x="447.3" y="160.2" fill="none" stroke="#CCCCCC" stroke-width="0.5" width="2.9" height="2.9"/>
			<rect x="447.3" y="168" fill="none" stroke="#CCCCCC" stroke-width="0.5" width="2.9" height="2.9"/>
			<rect x="447.3" y="175.8" fill="none" stroke="#CCCCCC" stroke-width="0.5" width="2.9" height="2.9"/>
		</g>
		<g>
			<rect x="455.3" y="144.6" fill="none" stroke="#CCCCCC" stroke-width="0.5" width="2.9" height="2.9"/>
			<rect x="455.3" y="152.4" fill="none" stroke="#CCCCCC" stroke-width="0.5" width="2.9" height="2.9"/>
			<rect x="455.3" y="160.2" fill="none" stroke="#CCCCCC" stroke-width="0.5" width="2.9" height="2.9"/>
			<rect x="455.3" y="168" fill="none" stroke="#CCCCCC" stroke-width="0.5" width="2.9" height="2.9"/>
			<rect x="455.3" y="175.8" fill="none" stroke="#CCCCCC" stroke-width="0.5" width="2.9" height="2.9"/>
		</g>
		<rect x="463.2" y="144.6" fill="none" stroke="#CCCCCC" stroke-width="0.5" width="2.9" height="2.9"/>
		<rect x="463.2" y="152.4" fill="none" stroke="#CCCCCC" stroke-width="0.5" width="2.9" height="2.9"/>
		<rect x="463.2" y="160.2" fill="none" stroke="#CCCCCC" stroke-width="0.5" width="2.9" height="2.9"/>
		<rect x="463.2" y="168" fill="none" stroke="#CCCCCC" stroke-width="0.5" width="2.9" height="2.9"/>
		<rect x="463.2" y="175.8" fill="none" stroke="#CCCCCC" stroke-width="0.5" width="2.9" height="2.9"/>
		<rect x="471.1" y="144.6" fill="none" stroke="#CCCCCC" stroke-width="0.5" width="2.9" height="2.9"/>
		<rect x="471.1" y="152.4" fill="none" stroke="#CCCCCC" stroke-width="0.5" width="2.9" height="2.9"/>
		<rect x="471.1" y="160.2" fill="none" stroke="#CCCCCC" stroke-width="0.5" width="2.9" height="2.9"/>
		<rect x="471.1" y="168" fill="none" stroke="#CCCCCC" stroke-width="0.5" width="2.9" height="2.9"/>
		<rect x="471.1" y="175.8" fill="none" stroke="#CCCCCC" stroke-width="0.5" width="2.9" height="2.9"/>
		<rect x="479.1" y="144.6" fill="none" stroke="#CCCCCC" stroke-width="0.5" width="2.9" height="2.9"/>
		<rect x="479.1" y="152.4" fill="none" stroke="#CCCCCC" stroke-width="0.5" width="2.9" height="2.9"/>
		<rect x="479.1" y="160.2" fill="none" stroke="#CCCCCC" stroke-width="0.5" width="2.9" height="2.9"/>
		<rect x="479.1" y="168" fill="none" stroke="#CCCCCC" stroke-width="0.5" width="2.9" height="2.9"/>
		<rect x="479.1" y="175.8" fill="none" stroke="#CCCCCC" stroke-width="0.5" width="2.9" height="2.9"/>
		<rect x="487" y="144.6" fill="none" stroke="#CCCCCC" stroke-width="0.5" width="2.9" height="2.9"/>
		<rect x="487" y="152.4" fill="none" stroke="#CCCCCC" stroke-width="0.5" width="2.9" height="2.9"/>
		<rect x="487" y="160.2" fill="none" stroke="#CCCCCC" stroke-width="0.5" width="2.9" height="2.9"/>
		<rect x="487" y="168" fill="none" stroke="#CCCCCC" stroke-width="0.5" width="2.9" height="2.9"/>
		<rect x="487" y="175.8" fill="none" stroke="#CCCCCC" stroke-width="0.5" width="2.9" height="2.9"/>
		<rect x="494.9" y="144.6" fill="none" stroke="#CCCCCC" stroke-width="0.5" width="2.9" height="2.9"/>
		<rect x="494.9" y="152.4" fill="none" stroke="#CCCCCC" stroke-width="0.5" width="2.9" height="2.9"/>
		<rect x="494.9" y="160.2" fill="none" stroke="#CCCCCC" stroke-width="0.5" width="2.9" height="2.9"/>
		<rect x="494.9" y="168" fill="none" stroke="#CCCCCC" stroke-width="0.5" width="2.9" height="2.9"/>
		<rect x="494.9" y="175.8" fill="none" stroke="#CCCCCC" stroke-width="0.5" width="2.9" height="2.9"/>
		<rect x="502.9" y="144.6" fill="none" stroke="#CCCCCC" stroke-width="0.5" width="2.9" height="2.9"/>
		<rect x="502.9" y="152.4" fill="none" stroke="#CCCCCC" stroke-width="0.5" width="2.9" height="2.9"/>
		<rect x="502.9" y="160.2" fill="none" stroke="#CCCCCC" stroke-width="0.5" width="2.9" height="2.9"/>
		<rect x="502.9" y="168" fill="none" stroke="#CCCCCC" stroke-width="0.5" width="2.9" height="2.9"/>
		<rect x="502.9" y="175.8" fill="none" stroke="#CCCCCC" stroke-width="0.5" width="2.9" height="2.9"/>
		<rect x="510.8" y="144.6" fill="none" stroke="#CCCCCC" stroke-width="0.5" width="2.9" height="2.9"/>
		<rect x="510.8" y="152.4" fill="none" stroke="#CCCCCC" stroke-width="0.5" width="2.9" height="2.9"/>
		<rect x="510.8" y="160.2" fill="none" stroke="#CCCCCC" stroke-width="0.5" width="2.9" height="2.9"/>
		<rect x="510.8" y="168" fill="none" stroke="#CCCCCC" stroke-width="0.5" width="2.9" height="2.9"/>
		<rect x="510.8" y="175.8" fill="none" stroke="#CCCCCC" stroke-width="0.5" width="2.9" height="2.9"/>
		<g>
			<rect x="304.5" y="144.6" fill="none" stroke="#CCCCCC" stroke-width="0.5" width="2.9" height="2.9"/>
			<rect x="304.5" y="152.4" fill="none" stroke="#CCCCCC" stroke-width="0.5" width="2.9" height="2.9"/>
			<rect x="304.5" y="160.2" fill="none" stroke="#CCCCCC" stroke-width="0.5" width="2.9" height="2.9"/>
			<rect x="304.5" y="168" fill="none" stroke="#CCCCCC" stroke-width="0.5" width="2.9" height="2.9"/>
			<rect x="304.5" y="175.8" fill="none" stroke="#CCCCCC" stroke-width="0.5" width="2.9" height="2.9"/>
		</g>
		<g>
			<rect x="312.5" y="144.6" fill="none" stroke="#CCCCCC" stroke-width="0.5" width="2.9" height="2.9"/>
			<rect x="312.5" y="152.4" fill="none" stroke="#CCCCCC" stroke-width="0.5" width="2.9" height="2.9"/>
			<rect x="312.5" y="160.2" fill="none" stroke="#CCCCCC" stroke-width="0.5" width="2.9" height="2.9"/>
			<rect x="312.5" y="168" fill="none" stroke="#CCCCCC" stroke-width="0.5" width="2.9" height="2.9"/>
			<rect x="312.5" y="175.8" fill="none" stroke="#CCCCCC" stroke-width="0.5" width="2.9" height="2.9"/>
		</g>
		<g>
			<rect x="320.4" y="144.6" fill="none" stroke="#CCCCCC" stroke-width="0.5" width="2.9" height="2.9"/>
			<rect x="320.4" y="152.4" fill="none" stroke="#CCCCCC" stroke-width="0.5" width="2.9" height="2.9"/>
			<rect x="320.4" y="160.2" fill="none" stroke="#CCCCCC" stroke-width="0.5" width="2.9" height="2.9"/>
			<rect x="320.4" y="168" fill="none" stroke="#CCCCCC" stroke-width="0.5" width="2.9" height="2.9"/>
			<rect x="320.4" y="175.8" fill="none" stroke="#CCCCCC" stroke-width="0.5" width="2.9" height="2.9"/>
		</g>
		<g>
			<rect x="328.3" y="144.6" fill="none" stroke="#CCCCCC" stroke-width="0.5" width="2.9" height="2.9"/>
			<rect x="328.3" y="152.4" fill="none" stroke="#CCCCCC" stroke-width="0.5" width="2.9" height="2.9"/>
			<rect x="328.3" y="160.2" fill="none" stroke="#CCCCCC" stroke-width="0.5" width="2.9" height="2.9"/>
			<rect x="328.3" y="168" fill="none" stroke="#CCCCCC" stroke-width="0.5" width="2.9" height="2.9"/>
			<rect x="328.3" y="175.8" fill="none" stroke="#CCCCCC" stroke-width="0.5" width="2.9" height="2.9"/>
		</g>
		<g>
			<rect x="280.7" y="144.6" fill="none" stroke="#CCCCCC" stroke-width="0.5" width="2.9" height="2.9"/>
			<rect x="280.7" y="152.4" fill="none" stroke="#CCCCCC" stroke-width="0.5" width="2.9" height="2.9"/>
			<rect x="280.7" y="160.2" fill="none" stroke="#CCCCCC" stroke-width="0.5" width="2.9" height="2.9"/>
			<rect x="280.7" y="168" fill="none" stroke="#CCCCCC" stroke-width="0.5" width="2.9" height="2.9"/>
			<rect x="280.7" y="175.8" fill="none" stroke="#CCCCCC" stroke-width="0.5" width="2.9" height="2.9"/>
		</g>
		<g>
			<rect x="288.7" y="144.6" fill="none" stroke="#CCCCCC" stroke-width="0.5" width="2.9" height="2.9"/>
			<rect x="288.7" y="152.4" fill="none" stroke="#CCCCCC" stroke-width="0.5" width="2.9" height="2.9"/>
			<rect x="288.7" y="160.2" fill="none" stroke="#CCCCCC" stroke-width="0.5" width="2.9" height="2.9"/>
			<rect x="288.7" y="168" fill="none" stroke="#CCCCCC" stroke-width="0.5" width="2.9" height="2.9"/>
			<rect x="288.7" y="175.8" fill="none" stroke="#CCCCCC" stroke-width="0.5" width="2.9" height="2.9"/>
		</g>
		<g>
			<rect x="296.6" y="144.6" fill="none" stroke="#CCCCCC" stroke-width="0.5" width="2.9" height="2.9"/>
			<rect x="296.6" y="152.4" fill="none" stroke="#CCCCCC" stroke-width="0.5" width="2.9" height="2.9"/>
			<rect x="296.6" y="160.2" fill="none" stroke="#CCCCCC" stroke-width="0.5" width="2.9" height="2.9"/>
			<rect x="296.6" y="168" fill="none" stroke="#CCCCCC" stroke-width="0.5" width="2.9" height="2.9"/>
			<rect x="296.6" y="175.8" fill="none" stroke="#CCCCCC" stroke-width="0.5" width="2.9" height="2.9"/>
		</g>
	</g>
	<g>
		<g>
			<g>
				<rect x="311.8" y="59.1" fill="none" stroke="#CCCCCC" stroke-width="0.5" width="2.9" height="2.9"/>
				<rect x="304.1" y="59.1" fill="none" stroke="#CCCCCC" stroke-width="0.5" width="2.9" height="2.9"/>
				<rect x="296.3" y="59.1" fill="none" stroke="#CCCCCC" stroke-width="0.5" width="2.9" height="2.9"/>
				<rect x="288.5" y="59.1" fill="none" stroke="#CCCCCC" stroke-width="0.5" width="2.9" height="2.9"/>
				<rect x="280.7" y="59.1" fill="none" stroke="#CCCCCC" stroke-width="0.5" width="2.9" height="2.9"/>
			</g>
			<g>
				<rect x="280.7" y="66.8" fill="none" stroke="#CCCCCC" stroke-width="0.5" width="2.9" height="2.9"/>
				<rect x="288.5" y="66.8" fill="none" stroke="#CCCCCC" stroke-width="0.5" width="2.9" height="2.9"/>
				<rect x="296.3" y="66.8" fill="none" stroke="#CCCCCC" stroke-width="0.5" width="2.9" height="2.9"/>
				<rect x="304.1" y="66.8" fill="none" stroke="#CCCCCC" stroke-width="0.5" width="2.9" height="2.9"/>
				<rect x="311.8" y="66.8" fill="none" stroke="#CCCCCC" stroke-width="0.5" width="2.9" height="2.9"/>
			</g>
		</g>
		<g>
			<g>
				<rect x="359.4" y="59.1" fill="none" stroke="#CCCCCC" stroke-width="0.5" width="2.9" height="2.9"/>
				<rect x="351.7" y="59.1" fill="none" stroke="#CCCCCC" stroke-width="0.5" width="2.9" height="2.9"/>
				<rect x="343.9" y="59.1" fill="none" stroke="#CCCCCC" stroke-width="0.5" width="2.9" height="2.9"/>
				<rect x="336.1" y="59.1" fill="none" stroke="#CCCCCC" stroke-width="0.5" width="2.9" height="2.9"/>
				<rect x="328.3" y="59.1" fill="none" stroke="#CCCCCC" stroke-width="0.5" width="2.9" height="2.9"/>
			</g>
			<g>
				<rect x="328.3" y="66.8" fill="none" stroke="#CCCCCC" stroke-width="0.5" width="2.9" height="2.9"/>
				<rect x="336.1" y="66.8" fill="none" stroke="#CCCCCC" stroke-width="0.5" width="2.9" height="2.9"/>
				<rect x="343.9" y="66.8" fill="none" stroke="#CCCCCC" stroke-width="0.5" width="2.9" height="2.9"/>
				<rect x="351.7" y="66.8" fill="none" stroke="#CCCCCC" stroke-width="0.5" width="2.9" height="2.9"/>
				<rect x="359.4" y="66.8" fill="none" stroke="#CCCCCC" stroke-width="0.5" width="2.9" height="2.9"/>
			</g>
		</g>
		<g>
			<g>
				<rect x="407" y="59.1" fill="none" stroke="#CCCCCC" stroke-width="0.5" width="2.9" height="2.9"/>
				<rect x="399.3" y="59.1" fill="none" stroke="#CCCCCC" stroke-width="0.5" width="2.9" height="2.9"/>
				<rect x="391.5" y="59.1" fill="none" stroke="#CCCCCC" stroke-width="0.5" width="2.9" height="2.9"/>
				<rect x="383.7" y="59.1" fill="none" stroke="#CCCCCC" stroke-width="0.5" width="2.9" height="2.9"/>
				<rect x="375.9" y="59.1" fill="none" stroke="#CCCCCC" stroke-width="0.5" width="2.9" height="2.9"/>
			</g>
			<g>
				<rect x="375.9" y="66.8" fill="none" stroke="#CCCCCC" stroke-width="0.5" width="2.9" height="2.9"/>
				<rect x="383.7" y="66.8" fill="none" stroke="#CCCCCC" stroke-width="0.5" width="2.9" height="2.9"/>
				<rect x="391.5" y="66.8" fill="none" stroke="#CCCCCC" stroke-width="0.5" width="2.9" height="2.9"/>
				<rect x="399.3" y="66.8" fill="none" stroke="#CCCCCC" stroke-width="0.5" width="2.9" height="2.9"/>
				<rect x="407" y="66.8" fill="none" stroke="#CCCCCC" stroke-width="0.5" width="2.9" height="2.9"/>
			</g>
		</g>
		<g>
			<g>
				<rect x="454.6" y="59.1" fill="none" stroke="#CCCCCC" stroke-width="0.5" width="2.9" height="2.9"/>
				<rect x="446.9" y="59.1" fill="none" stroke="#CCCCCC" stroke-width="0.5" width="2.9" height="2.9"/>
				<rect x="439.1" y="59.1" fill="none" stroke="#CCCCCC" stroke-width="0.5" width="2.9" height="2.9"/>
				<rect x="431.3" y="59.1" fill="none" stroke="#CCCCCC" stroke-width="0.5" width="2.9" height="2.9"/>
				<rect x="423.5" y="59.1" fill="none" stroke="#CCCCCC" stroke-width="0.5" width="2.9" height="2.9"/>
			</g>
			<g>
				<rect x="423.5" y="66.8" fill="none" stroke="#CCCCCC" stroke-width="0.5" width="2.9" height="2.9"/>
				<rect x="431.3" y="66.8" fill="none" stroke="#CCCCCC" stroke-width="0.5" width="2.9" height="2.9"/>
				<rect x="439.1" y="66.8" fill="none" stroke="#CCCCCC" stroke-width="0.5" width="2.9" height="2.9"/>
				<rect x="446.9" y="66.8" fill="none" stroke="#CCCCCC" stroke-width="0.5" width="2.9" height="2.9"/>
				<rect x="454.6" y="66.8" fill="none" stroke="#CCCCCC" stroke-width="0.5" width="2.9" height="2.9"/>
			</g>
		</g>
		<g>
			<g>
				<rect x="502.2" y="59.1" fill="none" stroke="#CCCCCC" stroke-width="0.5" width="2.9" height="2.9"/>
				<rect x="494.5" y="59.1" fill="none" stroke="#CCCCCC" stroke-width="0.5" width="2.9" height="2.9"/>
				<rect x="486.7" y="59.1" fill="none" stroke="#CCCCCC" stroke-width="0.5" width="2.9" height="2.9"/>
				<rect x="478.9" y="59.1" fill="none" stroke="#CCCCCC" stroke-width="0.5" width="2.9" height="2.9"/>
				<rect x="471.1" y="59.1" fill="none" stroke="#CCCCCC" stroke-width="0.5" width="2.9" height="2.9"/>
			</g>
			<g>
				<rect x="471.1" y="66.8" fill="none" stroke="#CCCCCC" stroke-width="0.5" width="2.9" height="2.9"/>
				<rect x="478.9" y="66.8" fill="none" stroke="#CCCCCC" stroke-width="0.5" width="2.9" height="2.9"/>
				<rect x="486.7" y="66.8" fill="none" stroke="#CCCCCC" stroke-width="0.5" width="2.9" height="2.9"/>
				<rect x="494.5" y="66.8" fill="none" stroke="#CCCCCC" stroke-width="0.5" width="2.9" height="2.9"/>
				<rect x="502.2" y="66.8" fill="none" stroke="#CCCCCC" stroke-width="0.5" width="2.9" height="2.9"/>
			</g>
		</g>
	</g>
	<g>
		<g>
			<g>
				<rect x="311.8" y="200.9" fill="none" stroke="#CCCCCC" stroke-width="0.5" width="2.9" height="2.9"/>
				<rect x="304.1" y="200.9" fill="none" stroke="#CCCCCC" stroke-width="0.5" width="2.9" height="2.9"/>
				<rect x="296.3" y="200.9" fill="none" stroke="#CCCCCC" stroke-width="0.5" width="2.9" height="2.9"/>
				<rect x="288.5" y="200.9" fill="none" stroke="#CCCCCC" stroke-width="0.5" width="2.9" height="2.9"/>
				<rect x="280.7" y="200.9" fill="none" stroke="#CCCCCC" stroke-width="0.5" width="2.9" height="2.9"/>
			</g>
			<g>
				<rect x="280.7" y="208.7" fill="none" stroke="#CCCCCC" stroke-width="0.5" width="2.9" height="2.9"/>
				<rect x="288.5" y="208.7" fill="none" stroke="#CCCCCC" stroke-width="0.5" width="2.9" height="2.9"/>
				<rect x="296.3" y="208.7" fill="none" stroke="#CCCCCC" stroke-width="0.5" width="2.9" height="2.9"/>
				<rect x="304.1" y="208.7" fill="none" stroke="#CCCCCC" stroke-width="0.5" width="2.9" height="2.9"/>
				<rect x="311.8" y="208.7" fill="none" stroke="#CCCCCC" stroke-width="0.5" width="2.9" height="2.9"/>
			</g>
		</g>
		<g>
			<g>
				<rect x="359.4" y="200.9" fill="none" stroke="#CCCCCC" stroke-width="0.5" width="2.9" height="2.9"/>
				<rect x="351.7" y="200.9" fill="none" stroke="#CCCCCC" stroke-width="0.5" width="2.9" height="2.9"/>
				<rect x="343.9" y="200.9" fill="none" stroke="#CCCCCC" stroke-width="0.5" width="2.9" height="2.9"/>
				<rect x="336.1" y="200.9" fill="none" stroke="#CCCCCC" stroke-width="0.5" width="2.9" height="2.9"/>
				<rect x="328.3" y="200.9" fill="none" stroke="#CCCCCC" stroke-width="0.5" width="2.9" height="2.9"/>
			</g>
			<g>
				<rect x="328.3" y="208.7" fill="none" stroke="#CCCCCC" stroke-width="0.5" width="2.9" height="2.9"/>
				<rect x="336.1" y="208.7" fill="none" stroke="#CCCCCC" stroke-width="0.5" width="2.9" height="2.9"/>
				<rect x="343.9" y="208.7" fill="none" stroke="#CCCCCC" stroke-width="0.5" width="2.9" height="2.9"/>
				<rect x="351.7" y="208.7" fill="none" stroke="#CCCCCC" stroke-width="0.5" width="2.9" height="2.9"/>
				<rect x="359.4" y="208.7" fill="none" stroke="#CCCCCC" stroke-width="0.5" width="2.9" height="2.9"/>
			</g>
		</g>
		<g>
			<g>
				<rect x="407" y="200.9" fill="none" stroke="#CCCCCC" stroke-width="0.5" width="2.9" height="2.9"/>
				<rect x="399.3" y="200.9" fill="none" stroke="#CCCCCC" stroke-width="0.5" width="2.9" height="2.9"/>
				<rect x="391.5" y="200.9" fill="none" stroke="#CCCCCC" stroke-width="0.5" width="2.9" height="2.9"/>
				<rect x="383.7" y="200.9" fill="none" stroke="#CCCCCC" stroke-width="0.5" width="2.9" height="2.9"/>
				<rect x="375.9" y="200.9" fill="none" stroke="#CCCCCC" stroke-width="0.5" width="2.9" height="2.9"/>
			</g>
			<g>
				<rect x="375.9" y="208.7" fill="none" stroke="#CCCCCC" stroke-width="0.5" width="2.9" height="2.9"/>
				<rect x="383.7" y="208.7" fill="none" stroke="#CCCCCC" stroke-width="0.5" width="2.9" height="2.9"/>
				<rect x="391.5" y="208.7" fill="none" stroke="#CCCCCC" stroke-width="0.5" width="2.9" height="2.9"/>
				<rect x="399.3" y="208.7" fill="none" stroke="#CCCCCC" stroke-width="0.5" width="2.9" height="2.9"/>
				<rect x="407" y="208.7" fill="none" stroke="#CCCCCC" stroke-width="0.5" width="2.9" height="2.9"/>
			</g>
		</g>
		<g>
			<g>
				<rect x="454.6" y="200.9" fill="none" stroke="#CCCCCC" stroke-width="0.5" width="2.9" height="2.9"/>
				<rect x="446.9" y="200.9" fill="none" stroke="#CCCCCC" stroke-width="0.5" width="2.9" height="2.9"/>
				<rect x="439.1" y="200.9" fill="none" stroke="#CCCCCC" stroke-width="0.5" width="2.9" height="2.9"/>
				<rect x="431.3" y="200.9" fill="none" stroke="#CCCCCC" stroke-width="0.5" width="2.9" height="2.9"/>
				<rect x="423.5" y="200.9" fill="none" stroke="#CCCCCC" stroke-width="0.5" width="2.9" height="2.9"/>
			</g>
			<g>
				<rect x="423.5" y="208.7" fill="none" stroke="#CCCCCC" stroke-width="0.5" width="2.9" height="2.9"/>
				<rect x="431.3" y="208.7" fill="none" stroke="#CCCCCC" stroke-width="0.5" width="2.9" height="2.9"/>
				<rect x="439.1" y="208.7" fill="none" stroke="#CCCCCC" stroke-width="0.5" width="2.9" height="2.9"/>
				<rect x="446.9" y="208.7" fill="none" stroke="#CCCCCC" stroke-width="0.5" width="2.9" height="2.9"/>
				<rect x="454.6" y="208.7" fill="none" stroke="#CCCCCC" stroke-width="0.5" width="2.9" height="2.9"/>
			</g>
		</g>
		<g>
			<g>
				<rect x="502.2" y="200.9" fill="none" stroke="#CCCCCC" stroke-width="0.5" width="2.9" height="2.9"/>
				<rect x="494.5" y="200.9" fill="none" stroke="#CCCCCC" stroke-width="0.5" width="2.9" height="2.9"/>
				<rect x="486.7" y="200.9" fill="none" stroke="#CCCCCC" stroke-width="0.5" width="2.9" height="2.9"/>
				<rect x="478.9" y="200.9" fill="none" stroke="#CCCCCC" stroke-width="0.5" width="2.9" height="2.9"/>
				<rect x="471.1" y="200.9" fill="none" stroke="#CCCCCC" stroke-width="0.5" width="2.9" height="2.9"/>
			</g>
			<g>
				<rect x="471.1" y="208.7" fill="none" stroke="#CCCCCC" stroke-width="0.5" width="2.9" height="2.9"/>
				<rect x="478.9" y="208.7" fill="none" stroke="#CCCCCC" stroke-width="0.5" width="2.9" height="2.9"/>
				<rect x="486.7" y="208.7" fill="none" stroke="#CCCCCC" stroke-width="0.5" width="2.9" height="2.9"/>
				<rect x="494.5" y="208.7" fill="none" stroke="#CCCCCC" stroke-width="0.5" width="2.9" height="2.9"/>
				<rect x="502.2" y="208.7" fill="none" stroke="#CCCCCC" stroke-width="0.5" width="2.9" height="2.9"/>
			</g>
		</g>
	</g>
	<rect x="263.5" y="51" fill="none" stroke="#CCCCCC" stroke-width="0.5" width="266.8" height="166.5"/>
</g>
<g>
	<line fill="none" stroke="#000000" x1="362.1" y1="115.1" x2="314.2" y2="141.6"/>
	<line fill="none" stroke="#000000" x1="385.8" y1="115.1" x2="337.9" y2="141.6"/>
	<path fill="#CCCCCC" d="M316.8,128.5h19.1c0,0,3.9,4.1,3.7,12.4c-0.2,8.3-3.5,12.2-3.5,12.2H317c0,0-4.1-1.8-4.1-12.8
		C312.9,129.3,316.8,128.5,316.8,128.5z"/>
	<path fill="none" stroke="#7D8286" stroke-width="0.75" d="M334.2,141.3"/>
	<polyline fill="none" stroke="#000000" stroke-width="0.75" points="317.5,131.4 335.3,131.4 335.3,133.6 317.5,133.6 317.5,135.7 
		335.3,135.7 335.3,137.9 317.5,137.9 317.5,140.5 335.3,140.5 335.3,142.6 317.5,142.6 317.5,145 335.3,145 335.3,147.3 
		317.5,147.3 317.5,149.5 335.3,149.5 	"/>
	<path fill="#899196" d="M315.1,141c0,0.4-0.4,0.8-0.8,0.8c-0.4,0-0.8-0.4-0.8-0.8c0-0.4,0.4-0.8,0.8-0.8
		C314.8,140.2,315.1,140.5,315.1,141z"/>
	<circle fill="#899196" cx="338" cy="141" r="0.8"/>
</g>
<g>
	<line fill="none" stroke="#000000" stroke-width="0.9768" x1="456.8" y1="108.2" x2="432.2" y2="108.2"/>
	<line fill="none" stroke="#000000" stroke-width="0.9768" x1="385.2" y1="108.2" x2="408.1" y2="108.2"/>
	<rect x="407.9" y="104.9" fill="#CCCCCC" width="24.5" height="6.7"/>
	<rect x="410.2" y="104.8" fill="#808080" width="3.3" height="6.9"/>
	<rect x="415" y="104.8" width="3.3" height="6.9"/>
	<rect x="419.7" y="104.8" fill="#4D4D4D" width="3.3" height="6.9"/>
	<rect x="426.3" y="104.8" fill="#B3B3B3" width="3.3" height="6.9"/>
</g>
<path fill="none" stroke="#000000" stroke-linecap="round" d="M456.6,92.4c0,0,15.2-2.9,22-26.1c4.3-14.7,5.3-35.9,5.3-35.9"/>
<path fill="none" stroke="#808080" stroke-linecap="round" d="M361.5,107.7c0,0-48.7-8.5-67.8-28.1c-19.1-19.7-8.2-49.1-8.2-49.1"/>
<path fill="none" stroke="#404040" stroke-linecap="round" d="M385.2,100c0,0-15.6-4.5-22.3-27.7c-4.3-14.7,8-41.8,8-41.8"/>
</svg>
