<?xml version="1.0" encoding="utf-8"?>
<!-- Generator: Adobe Illustrator 18.0.0, SVG Export Plug-In . SVG Version: 6.00 Build 0)  -->
<!DOCTYPE svg PUBLIC "-//W3C//DTD SVG 1.1//EN" "http://www.w3.org/Graphics/SVG/1.1/DTD/svg11.dtd">
<svg version="1.1" id="Layer_1" xmlns="http://www.w3.org/2000/svg" xmlns:xlink="http://www.w3.org/1999/xlink" x="0px" y="0px"
	 viewBox="0 0 687 100" enable-background="new 0 0 687 100" xml:space="preserve">
<g>
	<g>
		<g>
			<rect x="344" y="26.3" fill="none" stroke="#CCCCCC" stroke-width="0.5" width="1" height="1"/>
			<rect x="344" y="29" fill="none" stroke="#CCCCCC" stroke-width="0.5" width="1" height="1"/>
			<rect x="344" y="31.7" fill="none" stroke="#CCCCCC" stroke-width="0.5" width="1" height="1"/>
			<rect x="344" y="34.3" fill="none" stroke="#CCCCCC" stroke-width="0.5" width="1" height="1"/>
			<rect x="344" y="37" fill="none" stroke="#CCCCCC" stroke-width="0.5" width="1" height="1"/>
		</g>
		<g>
			<rect x="346.7" y="26.3" fill="none" stroke="#CCCCCC" stroke-width="0.5" width="1" height="1"/>
			<rect x="346.7" y="29" fill="none" stroke="#CCCCCC" stroke-width="0.5" width="1" height="1"/>
			<rect x="346.7" y="31.7" fill="none" stroke="#CCCCCC" stroke-width="0.5" width="1" height="1"/>
			<rect x="346.7" y="34.3" fill="none" stroke="#CCCCCC" stroke-width="0.5" width="1" height="1"/>
			<rect x="346.7" y="37" fill="none" stroke="#CCCCCC" stroke-width="0.5" width="1" height="1"/>
		</g>
		<g>
			<rect x="349.4" y="26.3" fill="none" stroke="#CCCCCC" stroke-width="0.5" width="1" height="1"/>
			<rect x="349.4" y="29" fill="none" stroke="#CCCCCC" stroke-width="0.5" width="1" height="1"/>
			<rect x="349.4" y="31.7" fill="none" stroke="#CCCCCC" stroke-width="0.5" width="1" height="1"/>
			<rect x="349.4" y="34.3" fill="none" stroke="#CCCCCC" stroke-width="0.5" width="1" height="1"/>
			<rect x="349.4" y="37" fill="none" stroke="#CCCCCC" stroke-width="0.5" width="1" height="1"/>
		</g>
		<g>
			<rect x="352.2" y="26.3" fill="none" stroke="#CCCCCC" stroke-width="0.5" width="1" height="1"/>
			<rect x="352.2" y="29" fill="none" stroke="#CCCCCC" stroke-width="0.5" width="1" height="1"/>
			<rect x="352.2" y="31.7" fill="none" stroke="#CCCCCC" stroke-width="0.5" width="1" height="1"/>
			<rect x="352.2" y="34.3" fill="none" stroke="#CCCCCC" stroke-width="0.5" width="1" height="1"/>
			<rect x="352.2" y="37" fill="none" stroke="#CCCCCC" stroke-width="0.5" width="1" height="1"/>
		</g>
		<g>
			<rect x="354.9" y="26.3" fill="none" stroke="#CCCCCC" stroke-width="0.5" width="1" height="1"/>
			<rect x="354.9" y="29" fill="none" stroke="#CCCCCC" stroke-width="0.5" width="1" height="1"/>
			<rect x="354.9" y="31.7" fill="none" stroke="#CCCCCC" stroke-width="0.5" width="1" height="1"/>
			<rect x="354.9" y="34.3" fill="none" stroke="#CCCCCC" stroke-width="0.5" width="1" height="1"/>
			<rect x="354.9" y="37" fill="none" stroke="#CCCCCC" stroke-width="0.5" width="1" height="1"/>
		</g>
		<g>
			<rect x="357.6" y="26.3" fill="none" stroke="#CCCCCC" stroke-width="0.5" width="1" height="1"/>
			<rect x="357.6" y="29" fill="none" stroke="#CCCCCC" stroke-width="0.5" width="1" height="1"/>
			<rect x="357.6" y="31.7" fill="none" stroke="#CCCCCC" stroke-width="0.5" width="1" height="1"/>
			<rect x="357.6" y="34.3" fill="none" stroke="#CCCCCC" stroke-width="0.5" width="1" height="1"/>
			<rect x="357.6" y="37" fill="none" stroke="#CCCCCC" stroke-width="0.5" width="1" height="1"/>
		</g>
		<g>
			<rect x="360.3" y="26.3" fill="none" stroke="#CCCCCC" stroke-width="0.5" width="1" height="1"/>
			<rect x="360.3" y="29" fill="none" stroke="#CCCCCC" stroke-width="0.5" width="1" height="1"/>
			<rect x="360.3" y="31.7" fill="none" stroke="#CCCCCC" stroke-width="0.5" width="1" height="1"/>
			<rect x="360.3" y="34.3" fill="none" stroke="#CCCCCC" stroke-width="0.5" width="1" height="1"/>
			<rect x="360.3" y="37" fill="none" stroke="#CCCCCC" stroke-width="0.5" width="1" height="1"/>
		</g>
		<g>
			<rect x="363" y="26.3" fill="none" stroke="#CCCCCC" stroke-width="0.5" width="1" height="1"/>
			<rect x="363" y="29" fill="none" stroke="#CCCCCC" stroke-width="0.5" width="1" height="1"/>
			<rect x="363" y="31.7" fill="none" stroke="#CCCCCC" stroke-width="0.5" width="1" height="1"/>
			<rect x="363" y="34.3" fill="none" stroke="#CCCCCC" stroke-width="0.5" width="1" height="1"/>
			<rect x="363" y="37" fill="none" stroke="#CCCCCC" stroke-width="0.5" width="1" height="1"/>
		</g>
		<g>
			<rect x="365.7" y="26.3" fill="none" stroke="#CCCCCC" stroke-width="0.5" width="1" height="1"/>
			<rect x="365.7" y="29" fill="none" stroke="#CCCCCC" stroke-width="0.5" width="1" height="1"/>
			<rect x="365.7" y="31.7" fill="none" stroke="#CCCCCC" stroke-width="0.5" width="1" height="1"/>
			<rect x="365.7" y="34.3" fill="none" stroke="#CCCCCC" stroke-width="0.5" width="1" height="1"/>
			<rect x="365.7" y="37" fill="none" stroke="#CCCCCC" stroke-width="0.5" width="1" height="1"/>
		</g>
		<g>
			<rect x="368.4" y="26.3" fill="none" stroke="#CCCCCC" stroke-width="0.5" width="1" height="1"/>
			<rect x="368.4" y="29" fill="none" stroke="#CCCCCC" stroke-width="0.5" width="1" height="1"/>
			<rect x="368.4" y="31.7" fill="none" stroke="#CCCCCC" stroke-width="0.5" width="1" height="1"/>
			<rect x="368.4" y="34.3" fill="none" stroke="#CCCCCC" stroke-width="0.5" width="1" height="1"/>
			<rect x="368.4" y="37" fill="none" stroke="#CCCCCC" stroke-width="0.5" width="1" height="1"/>
		</g>
		<g>
			<rect x="371.1" y="26.3" fill="none" stroke="#CCCCCC" stroke-width="0.5" width="1" height="1"/>
			<rect x="371.1" y="29" fill="none" stroke="#CCCCCC" stroke-width="0.5" width="1" height="1"/>
			<rect x="371.1" y="31.7" fill="none" stroke="#CCCCCC" stroke-width="0.5" width="1" height="1"/>
			<rect x="371.1" y="34.3" fill="none" stroke="#CCCCCC" stroke-width="0.5" width="1" height="1"/>
			<rect x="371.1" y="37" fill="none" stroke="#CCCCCC" stroke-width="0.5" width="1" height="1"/>
		</g>
		<g>
			<rect x="373.8" y="26.3" fill="none" stroke="#CCCCCC" stroke-width="0.5" width="1" height="1"/>
			<rect x="373.8" y="29" fill="none" stroke="#CCCCCC" stroke-width="0.5" width="1" height="1"/>
			<rect x="373.8" y="31.7" fill="none" stroke="#CCCCCC" stroke-width="0.5" width="1" height="1"/>
			<rect x="373.8" y="34.3" fill="none" stroke="#CCCCCC" stroke-width="0.5" width="1" height="1"/>
			<rect x="373.8" y="37" fill="none" stroke="#CCCCCC" stroke-width="0.5" width="1" height="1"/>
		</g>
		<g>
			<rect x="376.6" y="26.3" fill="none" stroke="#CCCCCC" stroke-width="0.5" width="1" height="1"/>
			<rect x="376.6" y="29" fill="none" stroke="#CCCCCC" stroke-width="0.5" width="1" height="1"/>
			<rect x="376.6" y="31.7" fill="none" stroke="#CCCCCC" stroke-width="0.5" width="1" height="1"/>
			<rect x="376.6" y="34.3" fill="none" stroke="#CCCCCC" stroke-width="0.5" width="1" height="1"/>
			<rect x="376.6" y="37" fill="none" stroke="#CCCCCC" stroke-width="0.5" width="1" height="1"/>
		</g>
		<g>
			<rect x="379.3" y="26.3" fill="none" stroke="#CCCCCC" stroke-width="0.5" width="1" height="1"/>
			<rect x="379.3" y="29" fill="none" stroke="#CCCCCC" stroke-width="0.5" width="1" height="1"/>
			<rect x="379.3" y="31.7" fill="none" stroke="#CCCCCC" stroke-width="0.5" width="1" height="1"/>
			<rect x="379.3" y="34.3" fill="none" stroke="#CCCCCC" stroke-width="0.5" width="1" height="1"/>
			<rect x="379.3" y="37" fill="none" stroke="#CCCCCC" stroke-width="0.5" width="1" height="1"/>
		</g>
		<g>
			<rect x="382" y="26.3" fill="none" stroke="#CCCCCC" stroke-width="0.5" width="1" height="1"/>
			<rect x="382" y="29" fill="none" stroke="#CCCCCC" stroke-width="0.5" width="1" height="1"/>
			<rect x="382" y="31.7" fill="none" stroke="#CCCCCC" stroke-width="0.5" width="1" height="1"/>
			<rect x="382" y="34.3" fill="none" stroke="#CCCCCC" stroke-width="0.5" width="1" height="1"/>
			<rect x="382" y="37" fill="none" stroke="#CCCCCC" stroke-width="0.5" width="1" height="1"/>
		</g>
		<g>
			<rect x="384.7" y="26.3" fill="none" stroke="#CCCCCC" stroke-width="0.5" width="1" height="1"/>
			<rect x="384.7" y="29" fill="none" stroke="#CCCCCC" stroke-width="0.5" width="1" height="1"/>
			<rect x="384.7" y="31.7" fill="none" stroke="#CCCCCC" stroke-width="0.5" width="1" height="1"/>
			<rect x="384.7" y="34.3" fill="none" stroke="#CCCCCC" stroke-width="0.5" width="1" height="1"/>
			<rect x="384.7" y="37" fill="none" stroke="#CCCCCC" stroke-width="0.5" width="1" height="1"/>
		</g>
		<g>
			<rect x="387.4" y="26.3" fill="none" stroke="#CCCCCC" stroke-width="0.5" width="1" height="1"/>
			<rect x="387.4" y="29" fill="none" stroke="#CCCCCC" stroke-width="0.5" width="1" height="1"/>
			<rect x="387.4" y="31.7" fill="none" stroke="#CCCCCC" stroke-width="0.5" width="1" height="1"/>
			<rect x="387.4" y="34.3" fill="none" stroke="#CCCCCC" stroke-width="0.5" width="1" height="1"/>
			<rect x="387.4" y="37" fill="none" stroke="#CCCCCC" stroke-width="0.5" width="1" height="1"/>
		</g>
		<g>
			<rect x="390.1" y="26.3" fill="none" stroke="#CCCCCC" stroke-width="0.5" width="1" height="1"/>
			<rect x="390.1" y="29" fill="none" stroke="#CCCCCC" stroke-width="0.5" width="1" height="1"/>
			<rect x="390.1" y="31.7" fill="none" stroke="#CCCCCC" stroke-width="0.5" width="1" height="1"/>
			<rect x="390.1" y="34.3" fill="none" stroke="#CCCCCC" stroke-width="0.5" width="1" height="1"/>
			<rect x="390.1" y="37" fill="none" stroke="#CCCCCC" stroke-width="0.5" width="1" height="1"/>
		</g>
		<g>
			<rect x="392.8" y="26.3" fill="none" stroke="#CCCCCC" stroke-width="0.5" width="1" height="1"/>
			<rect x="392.8" y="29" fill="none" stroke="#CCCCCC" stroke-width="0.5" width="1" height="1"/>
			<rect x="392.8" y="31.7" fill="none" stroke="#CCCCCC" stroke-width="0.5" width="1" height="1"/>
			<rect x="392.8" y="34.3" fill="none" stroke="#CCCCCC" stroke-width="0.5" width="1" height="1"/>
			<rect x="392.8" y="37" fill="none" stroke="#CCCCCC" stroke-width="0.5" width="1" height="1"/>
		</g>
		<g>
			<rect x="395.5" y="26.3" fill="none" stroke="#CCCCCC" stroke-width="0.5" width="1" height="1"/>
			<rect x="395.5" y="29" fill="none" stroke="#CCCCCC" stroke-width="0.5" width="1" height="1"/>
			<rect x="395.5" y="31.7" fill="none" stroke="#CCCCCC" stroke-width="0.5" width="1" height="1"/>
			<rect x="395.5" y="34.3" fill="none" stroke="#CCCCCC" stroke-width="0.5" width="1" height="1"/>
			<rect x="395.5" y="37" fill="none" stroke="#CCCCCC" stroke-width="0.5" width="1" height="1"/>
		</g>
		<g>
			<rect x="398.3" y="26.3" fill="none" stroke="#CCCCCC" stroke-width="0.5" width="1" height="1"/>
			<rect x="398.3" y="29" fill="none" stroke="#CCCCCC" stroke-width="0.5" width="1" height="1"/>
			<rect x="398.3" y="31.7" fill="none" stroke="#CCCCCC" stroke-width="0.5" width="1" height="1"/>
			<rect x="398.3" y="34.3" fill="none" stroke="#CCCCCC" stroke-width="0.5" width="1" height="1"/>
			<rect x="398.3" y="37" fill="none" stroke="#CCCCCC" stroke-width="0.5" width="1" height="1"/>
		</g>
		<g>
			<rect x="401" y="26.3" fill="none" stroke="#CCCCCC" stroke-width="0.5" width="1" height="1"/>
			<rect x="401" y="29" fill="none" stroke="#CCCCCC" stroke-width="0.5" width="1" height="1"/>
			<rect x="401" y="31.7" fill="none" stroke="#CCCCCC" stroke-width="0.5" width="1" height="1"/>
			<rect x="401" y="34.3" fill="none" stroke="#CCCCCC" stroke-width="0.5" width="1" height="1"/>
			<rect x="401" y="37" fill="none" stroke="#CCCCCC" stroke-width="0.5" width="1" height="1"/>
		</g>
		<g>
			<rect x="403.7" y="26.3" fill="none" stroke="#CCCCCC" stroke-width="0.5" width="1" height="1"/>
			<rect x="403.7" y="29" fill="none" stroke="#CCCCCC" stroke-width="0.5" width="1" height="1"/>
			<rect x="403.7" y="31.7" fill="none" stroke="#CCCCCC" stroke-width="0.5" width="1" height="1"/>
			<rect x="403.7" y="34.3" fill="none" stroke="#CCCCCC" stroke-width="0.5" width="1" height="1"/>
			<rect x="403.7" y="37" fill="none" stroke="#CCCCCC" stroke-width="0.5" width="1" height="1"/>
		</g>
		<g>
			<rect x="333.2" y="26.3" fill="none" stroke="#CCCCCC" stroke-width="0.5" width="1" height="1"/>
			<rect x="333.2" y="29" fill="none" stroke="#CCCCCC" stroke-width="0.5" width="1" height="1"/>
			<rect x="333.2" y="31.7" fill="none" stroke="#CCCCCC" stroke-width="0.5" width="1" height="1"/>
			<rect x="333.2" y="34.3" fill="none" stroke="#CCCCCC" stroke-width="0.5" width="1" height="1"/>
			<rect x="333.2" y="37" fill="none" stroke="#CCCCCC" stroke-width="0.5" width="1" height="1"/>
		</g>
		<g>
			<rect x="335.9" y="26.3" fill="none" stroke="#CCCCCC" stroke-width="0.5" width="1" height="1"/>
			<rect x="335.9" y="29" fill="none" stroke="#CCCCCC" stroke-width="0.5" width="1" height="1"/>
			<rect x="335.9" y="31.7" fill="none" stroke="#CCCCCC" stroke-width="0.5" width="1" height="1"/>
			<rect x="335.9" y="34.3" fill="none" stroke="#CCCCCC" stroke-width="0.5" width="1" height="1"/>
			<rect x="335.9" y="37" fill="none" stroke="#CCCCCC" stroke-width="0.5" width="1" height="1"/>
		</g>
		<g>
			<rect x="338.6" y="26.3" fill="none" stroke="#CCCCCC" stroke-width="0.5" width="1" height="1"/>
			<rect x="338.6" y="29" fill="none" stroke="#CCCCCC" stroke-width="0.5" width="1" height="1"/>
			<rect x="338.6" y="31.7" fill="none" stroke="#CCCCCC" stroke-width="0.5" width="1" height="1"/>
			<rect x="338.6" y="34.3" fill="none" stroke="#CCCCCC" stroke-width="0.5" width="1" height="1"/>
			<rect x="338.6" y="37" fill="none" stroke="#CCCCCC" stroke-width="0.5" width="1" height="1"/>
		</g>
		<g>
			<rect x="341.3" y="26.3" fill="none" stroke="#CCCCCC" stroke-width="0.5" width="1" height="1"/>
			<rect x="341.3" y="29" fill="none" stroke="#CCCCCC" stroke-width="0.5" width="1" height="1"/>
			<rect x="341.3" y="31.7" fill="none" stroke="#CCCCCC" stroke-width="0.5" width="1" height="1"/>
			<rect x="341.3" y="34.3" fill="none" stroke="#CCCCCC" stroke-width="0.5" width="1" height="1"/>
			<rect x="341.3" y="37" fill="none" stroke="#CCCCCC" stroke-width="0.5" width="1" height="1"/>
		</g>
		<g>
			<rect x="325" y="26.3" fill="none" stroke="#CCCCCC" stroke-width="0.5" width="1" height="1"/>
			<rect x="325" y="29" fill="none" stroke="#CCCCCC" stroke-width="0.5" width="1" height="1"/>
			<rect x="325" y="31.7" fill="none" stroke="#CCCCCC" stroke-width="0.5" width="1" height="1"/>
			<rect x="325" y="34.3" fill="none" stroke="#CCCCCC" stroke-width="0.5" width="1" height="1"/>
			<rect x="325" y="37" fill="none" stroke="#CCCCCC" stroke-width="0.5" width="1" height="1"/>
		</g>
		<g>
			<rect x="327.8" y="26.3" fill="none" stroke="#CCCCCC" stroke-width="0.5" width="1" height="1"/>
			<rect x="327.8" y="29" fill="none" stroke="#CCCCCC" stroke-width="0.5" width="1" height="1"/>
			<rect x="327.8" y="31.7" fill="none" stroke="#CCCCCC" stroke-width="0.5" width="1" height="1"/>
			<rect x="327.8" y="34.3" fill="none" stroke="#CCCCCC" stroke-width="0.5" width="1" height="1"/>
			<rect x="327.8" y="37" fill="none" stroke="#CCCCCC" stroke-width="0.5" width="1" height="1"/>
		</g>
		<g>
			<rect x="330.5" y="26.3" fill="none" stroke="#CCCCCC" stroke-width="0.5" width="1" height="1"/>
			<rect x="330.5" y="29" fill="none" stroke="#CCCCCC" stroke-width="0.5" width="1" height="1"/>
			<rect x="330.5" y="31.7" fill="none" stroke="#CCCCCC" stroke-width="0.5" width="1" height="1"/>
			<rect x="330.5" y="34.3" fill="none" stroke="#CCCCCC" stroke-width="0.5" width="1" height="1"/>
			<rect x="330.5" y="37" fill="none" stroke="#CCCCCC" stroke-width="0.5" width="1" height="1"/>
		</g>
	</g>
	<g>
		<g>
			<rect x="344" y="44.8" fill="none" stroke="#CCCCCC" stroke-width="0.5" width="1" height="1"/>
			<rect x="344" y="47.5" fill="none" stroke="#CCCCCC" stroke-width="0.5" width="1" height="1"/>
			<rect x="344" y="50.1" fill="none" stroke="#CCCCCC" stroke-width="0.5" width="1" height="1"/>
			<rect x="344" y="52.8" fill="none" stroke="#CCCCCC" stroke-width="0.5" width="1" height="1"/>
			<rect x="344" y="55.4" fill="none" stroke="#CCCCCC" stroke-width="0.5" width="1" height="1"/>
		</g>
		<g>
			<rect x="346.7" y="44.8" fill="none" stroke="#CCCCCC" stroke-width="0.5" width="1" height="1"/>
			<rect x="346.7" y="47.5" fill="none" stroke="#CCCCCC" stroke-width="0.5" width="1" height="1"/>
			<rect x="346.7" y="50.1" fill="none" stroke="#CCCCCC" stroke-width="0.5" width="1" height="1"/>
			<rect x="346.7" y="52.8" fill="none" stroke="#CCCCCC" stroke-width="0.5" width="1" height="1"/>
			<rect x="346.7" y="55.4" fill="none" stroke="#CCCCCC" stroke-width="0.5" width="1" height="1"/>
		</g>
		<g>
			<rect x="349.4" y="44.8" fill="none" stroke="#CCCCCC" stroke-width="0.5" width="1" height="1"/>
			<rect x="349.4" y="47.5" fill="none" stroke="#CCCCCC" stroke-width="0.5" width="1" height="1"/>
			<rect x="349.4" y="50.1" fill="none" stroke="#CCCCCC" stroke-width="0.5" width="1" height="1"/>
			<rect x="349.4" y="52.8" fill="none" stroke="#CCCCCC" stroke-width="0.5" width="1" height="1"/>
			<rect x="349.4" y="55.4" fill="none" stroke="#CCCCCC" stroke-width="0.5" width="1" height="1"/>
		</g>
		<g>
			<rect x="352.2" y="44.8" fill="none" stroke="#CCCCCC" stroke-width="0.5" width="1" height="1"/>
			<rect x="352.2" y="47.5" fill="none" stroke="#CCCCCC" stroke-width="0.5" width="1" height="1"/>
			<rect x="352.2" y="50.1" fill="none" stroke="#CCCCCC" stroke-width="0.5" width="1" height="1"/>
			<rect x="352.2" y="52.8" fill="none" stroke="#CCCCCC" stroke-width="0.5" width="1" height="1"/>
			<rect x="352.2" y="55.4" fill="none" stroke="#CCCCCC" stroke-width="0.5" width="1" height="1"/>
		</g>
		<g>
			<rect x="354.9" y="44.8" fill="none" stroke="#CCCCCC" stroke-width="0.5" width="1" height="1"/>
			<rect x="354.9" y="47.5" fill="none" stroke="#CCCCCC" stroke-width="0.5" width="1" height="1"/>
			<rect x="354.9" y="50.1" fill="none" stroke="#CCCCCC" stroke-width="0.5" width="1" height="1"/>
			<rect x="354.9" y="52.8" fill="none" stroke="#CCCCCC" stroke-width="0.5" width="1" height="1"/>
			<rect x="354.9" y="55.4" fill="none" stroke="#CCCCCC" stroke-width="0.5" width="1" height="1"/>
		</g>
		<g>
			<rect x="357.6" y="44.8" fill="none" stroke="#CCCCCC" stroke-width="0.5" width="1" height="1"/>
			<rect x="357.6" y="47.5" fill="none" stroke="#CCCCCC" stroke-width="0.5" width="1" height="1"/>
			<rect x="357.6" y="50.1" fill="none" stroke="#CCCCCC" stroke-width="0.5" width="1" height="1"/>
			<rect x="357.6" y="52.8" fill="none" stroke="#CCCCCC" stroke-width="0.5" width="1" height="1"/>
			<rect x="357.6" y="55.4" fill="none" stroke="#CCCCCC" stroke-width="0.5" width="1" height="1"/>
		</g>
		<g>
			<rect x="360.3" y="44.8" fill="none" stroke="#CCCCCC" stroke-width="0.5" width="1" height="1"/>
			<rect x="360.3" y="47.5" fill="none" stroke="#CCCCCC" stroke-width="0.5" width="1" height="1"/>
			<rect x="360.3" y="50.1" fill="none" stroke="#CCCCCC" stroke-width="0.5" width="1" height="1"/>
			<rect x="360.3" y="52.8" fill="none" stroke="#CCCCCC" stroke-width="0.5" width="1" height="1"/>
			<rect x="360.3" y="55.4" fill="none" stroke="#CCCCCC" stroke-width="0.5" width="1" height="1"/>
		</g>
		<g>
			<rect x="363" y="44.8" fill="none" stroke="#CCCCCC" stroke-width="0.5" width="1" height="1"/>
			<rect x="363" y="47.5" fill="none" stroke="#CCCCCC" stroke-width="0.5" width="1" height="1"/>
			<rect x="363" y="50.1" fill="none" stroke="#CCCCCC" stroke-width="0.5" width="1" height="1"/>
			<rect x="363" y="52.8" fill="none" stroke="#CCCCCC" stroke-width="0.5" width="1" height="1"/>
			<rect x="363" y="55.4" fill="none" stroke="#CCCCCC" stroke-width="0.5" width="1" height="1"/>
		</g>
		<g>
			<rect x="365.7" y="44.8" fill="none" stroke="#CCCCCC" stroke-width="0.5" width="1" height="1"/>
			<rect x="365.7" y="47.5" fill="none" stroke="#CCCCCC" stroke-width="0.5" width="1" height="1"/>
			<rect x="365.7" y="50.1" fill="none" stroke="#CCCCCC" stroke-width="0.5" width="1" height="1"/>
			<rect x="365.7" y="52.8" fill="none" stroke="#CCCCCC" stroke-width="0.5" width="1" height="1"/>
			<rect x="365.7" y="55.4" fill="none" stroke="#CCCCCC" stroke-width="0.5" width="1" height="1"/>
		</g>
		<g>
			<rect x="368.4" y="44.8" fill="none" stroke="#CCCCCC" stroke-width="0.5" width="1" height="1"/>
			<rect x="368.4" y="47.5" fill="none" stroke="#CCCCCC" stroke-width="0.5" width="1" height="1"/>
			<rect x="368.4" y="50.1" fill="none" stroke="#CCCCCC" stroke-width="0.5" width="1" height="1"/>
			<rect x="368.4" y="52.8" fill="none" stroke="#CCCCCC" stroke-width="0.5" width="1" height="1"/>
			<rect x="368.4" y="55.4" fill="none" stroke="#CCCCCC" stroke-width="0.5" width="1" height="1"/>
		</g>
		<g>
			<rect x="371.1" y="44.8" fill="none" stroke="#CCCCCC" stroke-width="0.5" width="1" height="1"/>
			<rect x="371.1" y="47.5" fill="none" stroke="#CCCCCC" stroke-width="0.5" width="1" height="1"/>
			<rect x="371.1" y="50.1" fill="none" stroke="#CCCCCC" stroke-width="0.5" width="1" height="1"/>
			<rect x="371.1" y="52.8" fill="none" stroke="#CCCCCC" stroke-width="0.5" width="1" height="1"/>
			<rect x="371.1" y="55.4" fill="none" stroke="#CCCCCC" stroke-width="0.5" width="1" height="1"/>
		</g>
		<g>
			<rect x="373.8" y="44.8" fill="none" stroke="#CCCCCC" stroke-width="0.5" width="1" height="1"/>
			<rect x="373.8" y="47.5" fill="none" stroke="#CCCCCC" stroke-width="0.5" width="1" height="1"/>
			<rect x="373.8" y="50.1" fill="none" stroke="#CCCCCC" stroke-width="0.5" width="1" height="1"/>
			<rect x="373.8" y="52.8" fill="none" stroke="#CCCCCC" stroke-width="0.5" width="1" height="1"/>
			<rect x="373.8" y="55.4" fill="none" stroke="#CCCCCC" stroke-width="0.5" width="1" height="1"/>
		</g>
		<g>
			<rect x="376.6" y="44.8" fill="none" stroke="#CCCCCC" stroke-width="0.5" width="1" height="1"/>
			<rect x="376.6" y="47.5" fill="none" stroke="#CCCCCC" stroke-width="0.5" width="1" height="1"/>
			<rect x="376.6" y="50.1" fill="none" stroke="#CCCCCC" stroke-width="0.5" width="1" height="1"/>
			<rect x="376.6" y="52.8" fill="none" stroke="#CCCCCC" stroke-width="0.5" width="1" height="1"/>
			<rect x="376.6" y="55.4" fill="none" stroke="#CCCCCC" stroke-width="0.5" width="1" height="1"/>
		</g>
		<g>
			<rect x="379.3" y="44.8" fill="none" stroke="#CCCCCC" stroke-width="0.5" width="1" height="1"/>
			<rect x="379.3" y="47.5" fill="none" stroke="#CCCCCC" stroke-width="0.5" width="1" height="1"/>
			<rect x="379.3" y="50.1" fill="none" stroke="#CCCCCC" stroke-width="0.5" width="1" height="1"/>
			<rect x="379.3" y="52.8" fill="none" stroke="#CCCCCC" stroke-width="0.5" width="1" height="1"/>
			<rect x="379.3" y="55.4" fill="none" stroke="#CCCCCC" stroke-width="0.5" width="1" height="1"/>
		</g>
		<g>
			<rect x="382" y="44.8" fill="none" stroke="#CCCCCC" stroke-width="0.5" width="1" height="1"/>
			<rect x="382" y="47.5" fill="none" stroke="#CCCCCC" stroke-width="0.5" width="1" height="1"/>
			<rect x="382" y="50.1" fill="none" stroke="#CCCCCC" stroke-width="0.5" width="1" height="1"/>
			<rect x="382" y="52.8" fill="none" stroke="#CCCCCC" stroke-width="0.5" width="1" height="1"/>
			<rect x="382" y="55.4" fill="none" stroke="#CCCCCC" stroke-width="0.5" width="1" height="1"/>
		</g>
		<g>
			<rect x="384.7" y="44.8" fill="none" stroke="#CCCCCC" stroke-width="0.5" width="1" height="1"/>
			<rect x="384.7" y="47.5" fill="none" stroke="#CCCCCC" stroke-width="0.5" width="1" height="1"/>
			<rect x="384.7" y="50.1" fill="none" stroke="#CCCCCC" stroke-width="0.5" width="1" height="1"/>
			<rect x="384.7" y="52.8" fill="none" stroke="#CCCCCC" stroke-width="0.5" width="1" height="1"/>
			<rect x="384.7" y="55.4" fill="none" stroke="#CCCCCC" stroke-width="0.5" width="1" height="1"/>
		</g>
		<rect x="387.4" y="44.8" fill="none" stroke="#CCCCCC" stroke-width="0.5" width="1" height="1"/>
		<rect x="387.4" y="47.5" fill="none" stroke="#CCCCCC" stroke-width="0.5" width="1" height="1"/>
		<rect x="387.4" y="50.1" fill="none" stroke="#CCCCCC" stroke-width="0.5" width="1" height="1"/>
		<rect x="387.4" y="52.8" fill="none" stroke="#CCCCCC" stroke-width="0.5" width="1" height="1"/>
		<rect x="387.4" y="55.4" fill="none" stroke="#CCCCCC" stroke-width="0.5" width="1" height="1"/>
		<rect x="390.1" y="44.8" fill="none" stroke="#CCCCCC" stroke-width="0.5" width="1" height="1"/>
		<rect x="390.1" y="47.5" fill="none" stroke="#CCCCCC" stroke-width="0.5" width="1" height="1"/>
		<rect x="390.1" y="50.1" fill="none" stroke="#CCCCCC" stroke-width="0.5" width="1" height="1"/>
		<rect x="390.1" y="52.8" fill="none" stroke="#CCCCCC" stroke-width="0.5" width="1" height="1"/>
		<rect x="390.1" y="55.4" fill="none" stroke="#CCCCCC" stroke-width="0.5" width="1" height="1"/>
		<rect x="392.8" y="44.8" fill="none" stroke="#CCCCCC" stroke-width="0.5" width="1" height="1"/>
		<rect x="392.8" y="47.5" fill="none" stroke="#CCCCCC" stroke-width="0.5" width="1" height="1"/>
		<rect x="392.8" y="50.1" fill="none" stroke="#CCCCCC" stroke-width="0.5" width="1" height="1"/>
		<rect x="392.8" y="52.8" fill="none" stroke="#CCCCCC" stroke-width="0.5" width="1" height="1"/>
		<rect x="392.8" y="55.4" fill="none" stroke="#CCCCCC" stroke-width="0.5" width="1" height="1"/>
		<rect x="395.5" y="44.8" fill="none" stroke="#CCCCCC" stroke-width="0.5" width="1" height="1"/>
		<rect x="395.5" y="47.5" fill="none" stroke="#CCCCCC" stroke-width="0.5" width="1" height="1"/>
		<rect x="395.5" y="50.1" fill="none" stroke="#CCCCCC" stroke-width="0.5" width="1" height="1"/>
		<rect x="395.5" y="52.8" fill="none" stroke="#CCCCCC" stroke-width="0.5" width="1" height="1"/>
		<rect x="395.5" y="55.4" fill="none" stroke="#CCCCCC" stroke-width="0.5" width="1" height="1"/>
		<rect x="398.3" y="44.8" fill="none" stroke="#CCCCCC" stroke-width="0.5" width="1" height="1"/>
		<rect x="398.3" y="47.5" fill="none" stroke="#CCCCCC" stroke-width="0.5" width="1" height="1"/>
		<rect x="398.3" y="50.1" fill="none" stroke="#CCCCCC" stroke-width="0.5" width="1" height="1"/>
		<rect x="398.3" y="52.8" fill="none" stroke="#CCCCCC" stroke-width="0.5" width="1" height="1"/>
		<rect x="398.3" y="55.4" fill="none" stroke="#CCCCCC" stroke-width="0.5" width="1" height="1"/>
		<rect x="401" y="44.8" fill="none" stroke="#CCCCCC" stroke-width="0.5" width="1" height="1"/>
		<rect x="401" y="47.5" fill="none" stroke="#CCCCCC" stroke-width="0.5" width="1" height="1"/>
		<rect x="401" y="50.1" fill="none" stroke="#CCCCCC" stroke-width="0.5" width="1" height="1"/>
		<rect x="401" y="52.8" fill="none" stroke="#CCCCCC" stroke-width="0.5" width="1" height="1"/>
		<rect x="401" y="55.4" fill="none" stroke="#CCCCCC" stroke-width="0.5" width="1" height="1"/>
		<rect x="403.7" y="44.8" fill="none" stroke="#CCCCCC" stroke-width="0.5" width="1" height="1"/>
		<rect x="403.7" y="47.5" fill="none" stroke="#CCCCCC" stroke-width="0.5" width="1" height="1"/>
		<rect x="403.7" y="50.1" fill="none" stroke="#CCCCCC" stroke-width="0.5" width="1" height="1"/>
		<rect x="403.7" y="52.8" fill="none" stroke="#CCCCCC" stroke-width="0.5" width="1" height="1"/>
		<rect x="403.7" y="55.4" fill="none" stroke="#CCCCCC" stroke-width="0.5" width="1" height="1"/>
		<g>
			<rect x="333.2" y="44.8" fill="none" stroke="#CCCCCC" stroke-width="0.5" width="1" height="1"/>
			<rect x="333.2" y="47.5" fill="none" stroke="#CCCCCC" stroke-width="0.5" width="1" height="1"/>
			<rect x="333.2" y="50.1" fill="none" stroke="#CCCCCC" stroke-width="0.5" width="1" height="1"/>
			<rect x="333.2" y="52.8" fill="none" stroke="#CCCCCC" stroke-width="0.5" width="1" height="1"/>
			<rect x="333.2" y="55.4" fill="none" stroke="#CCCCCC" stroke-width="0.5" width="1" height="1"/>
		</g>
		<g>
			<rect x="335.9" y="44.8" fill="none" stroke="#CCCCCC" stroke-width="0.5" width="1" height="1"/>
			<rect x="335.9" y="47.5" fill="none" stroke="#CCCCCC" stroke-width="0.5" width="1" height="1"/>
			<rect x="335.9" y="50.1" fill="none" stroke="#CCCCCC" stroke-width="0.5" width="1" height="1"/>
			<rect x="335.9" y="52.8" fill="none" stroke="#CCCCCC" stroke-width="0.5" width="1" height="1"/>
			<rect x="335.9" y="55.4" fill="none" stroke="#CCCCCC" stroke-width="0.5" width="1" height="1"/>
		</g>
		<g>
			<rect x="338.6" y="44.8" fill="none" stroke="#CCCCCC" stroke-width="0.5" width="1" height="1"/>
			<rect x="338.6" y="47.5" fill="none" stroke="#CCCCCC" stroke-width="0.5" width="1" height="1"/>
			<rect x="338.6" y="50.1" fill="none" stroke="#CCCCCC" stroke-width="0.5" width="1" height="1"/>
			<rect x="338.6" y="52.8" fill="none" stroke="#CCCCCC" stroke-width="0.5" width="1" height="1"/>
			<rect x="338.6" y="55.4" fill="none" stroke="#CCCCCC" stroke-width="0.5" width="1" height="1"/>
		</g>
		<g>
			<rect x="341.3" y="44.8" fill="none" stroke="#CCCCCC" stroke-width="0.5" width="1" height="1"/>
			<rect x="341.3" y="47.5" fill="none" stroke="#CCCCCC" stroke-width="0.5" width="1" height="1"/>
			<rect x="341.3" y="50.1" fill="none" stroke="#CCCCCC" stroke-width="0.5" width="1" height="1"/>
			<rect x="341.3" y="52.8" fill="none" stroke="#CCCCCC" stroke-width="0.5" width="1" height="1"/>
			<rect x="341.3" y="55.4" fill="none" stroke="#CCCCCC" stroke-width="0.5" width="1" height="1"/>
		</g>
		<g>
			<rect x="325" y="44.8" fill="none" stroke="#CCCCCC" stroke-width="0.5" width="1" height="1"/>
			<rect x="325" y="47.5" fill="none" stroke="#CCCCCC" stroke-width="0.5" width="1" height="1"/>
			<rect x="325" y="50.1" fill="none" stroke="#CCCCCC" stroke-width="0.5" width="1" height="1"/>
			<rect x="325" y="52.8" fill="none" stroke="#CCCCCC" stroke-width="0.5" width="1" height="1"/>
			<rect x="325" y="55.4" fill="none" stroke="#CCCCCC" stroke-width="0.5" width="1" height="1"/>
		</g>
		<g>
			<rect x="327.8" y="44.8" fill="none" stroke="#CCCCCC" stroke-width="0.5" width="1" height="1"/>
			<rect x="327.8" y="47.5" fill="none" stroke="#CCCCCC" stroke-width="0.5" width="1" height="1"/>
			<rect x="327.8" y="50.1" fill="none" stroke="#CCCCCC" stroke-width="0.5" width="1" height="1"/>
			<rect x="327.8" y="52.8" fill="none" stroke="#CCCCCC" stroke-width="0.5" width="1" height="1"/>
			<rect x="327.8" y="55.4" fill="none" stroke="#CCCCCC" stroke-width="0.5" width="1" height="1"/>
		</g>
		<g>
			<rect x="330.5" y="44.8" fill="none" stroke="#CCCCCC" stroke-width="0.5" width="1" height="1"/>
			<rect x="330.5" y="47.5" fill="none" stroke="#CCCCCC" stroke-width="0.5" width="1" height="1"/>
			<rect x="330.5" y="50.1" fill="none" stroke="#CCCCCC" stroke-width="0.5" width="1" height="1"/>
			<rect x="330.5" y="52.8" fill="none" stroke="#CCCCCC" stroke-width="0.5" width="1" height="1"/>
			<rect x="330.5" y="55.4" fill="none" stroke="#CCCCCC" stroke-width="0.5" width="1" height="1"/>
		</g>
	</g>
	<g>
		<g>
			<g>
				<rect x="335.7" y="15.5" fill="none" stroke="#CCCCCC" stroke-width="0.5" width="1" height="1"/>
				<rect x="333" y="15.5" fill="none" stroke="#CCCCCC" stroke-width="0.5" width="1" height="1"/>
				<rect x="330.4" y="15.5" fill="none" stroke="#CCCCCC" stroke-width="0.5" width="1" height="1"/>
				<rect x="327.7" y="15.5" fill="none" stroke="#CCCCCC" stroke-width="0.5" width="1" height="1"/>
				<rect x="325" y="15.5" fill="none" stroke="#CCCCCC" stroke-width="0.5" width="1" height="1"/>
			</g>
			<g>
				<rect x="325" y="18.2" fill="none" stroke="#CCCCCC" stroke-width="0.5" width="1" height="1"/>
				<rect x="327.7" y="18.2" fill="none" stroke="#CCCCCC" stroke-width="0.5" width="1" height="1"/>
				<rect x="330.4" y="18.2" fill="none" stroke="#CCCCCC" stroke-width="0.5" width="1" height="1"/>
				<rect x="333" y="18.2" fill="none" stroke="#CCCCCC" stroke-width="0.5" width="1" height="1"/>
				<rect x="335.7" y="18.2" fill="none" stroke="#CCCCCC" stroke-width="0.5" width="1" height="1"/>
			</g>
		</g>
		<g>
			<g>
				<rect x="352" y="15.5" fill="none" stroke="#CCCCCC" stroke-width="0.5" width="1" height="1"/>
				<rect x="349.3" y="15.5" fill="none" stroke="#CCCCCC" stroke-width="0.5" width="1" height="1"/>
				<rect x="346.6" y="15.5" fill="none" stroke="#CCCCCC" stroke-width="0.5" width="1" height="1"/>
				<rect x="344" y="15.5" fill="none" stroke="#CCCCCC" stroke-width="0.5" width="1" height="1"/>
				<rect x="341.3" y="15.5" fill="none" stroke="#CCCCCC" stroke-width="0.5" width="1" height="1"/>
			</g>
			<g>
				<rect x="341.3" y="18.2" fill="none" stroke="#CCCCCC" stroke-width="0.5" width="1" height="1"/>
				<rect x="344" y="18.2" fill="none" stroke="#CCCCCC" stroke-width="0.5" width="1" height="1"/>
				<rect x="346.6" y="18.2" fill="none" stroke="#CCCCCC" stroke-width="0.5" width="1" height="1"/>
				<rect x="349.3" y="18.2" fill="none" stroke="#CCCCCC" stroke-width="0.5" width="1" height="1"/>
				<rect x="352" y="18.2" fill="none" stroke="#CCCCCC" stroke-width="0.5" width="1" height="1"/>
			</g>
		</g>
		<g>
			<g>
				<rect x="368.2" y="15.5" fill="none" stroke="#CCCCCC" stroke-width="0.5" width="1" height="1"/>
				<rect x="365.6" y="15.5" fill="none" stroke="#CCCCCC" stroke-width="0.5" width="1" height="1"/>
				<rect x="362.9" y="15.5" fill="none" stroke="#CCCCCC" stroke-width="0.5" width="1" height="1"/>
				<rect x="360.2" y="15.5" fill="none" stroke="#CCCCCC" stroke-width="0.5" width="1" height="1"/>
				<rect x="357.6" y="15.5" fill="none" stroke="#CCCCCC" stroke-width="0.5" width="1" height="1"/>
			</g>
			<g>
				<rect x="357.6" y="18.2" fill="none" stroke="#CCCCCC" stroke-width="0.5" width="1" height="1"/>
				<rect x="360.2" y="18.2" fill="none" stroke="#CCCCCC" stroke-width="0.5" width="1" height="1"/>
				<rect x="362.9" y="18.2" fill="none" stroke="#CCCCCC" stroke-width="0.5" width="1" height="1"/>
				<rect x="365.6" y="18.2" fill="none" stroke="#CCCCCC" stroke-width="0.5" width="1" height="1"/>
				<rect x="368.2" y="18.2" fill="none" stroke="#CCCCCC" stroke-width="0.5" width="1" height="1"/>
			</g>
		</g>
		<g>
			<g>
				<rect x="384.5" y="15.5" fill="none" stroke="#CCCCCC" stroke-width="0.5" width="1" height="1"/>
				<rect x="381.8" y="15.5" fill="none" stroke="#CCCCCC" stroke-width="0.5" width="1" height="1"/>
				<rect x="379.2" y="15.5" fill="none" stroke="#CCCCCC" stroke-width="0.5" width="1" height="1"/>
				<rect x="376.5" y="15.5" fill="none" stroke="#CCCCCC" stroke-width="0.5" width="1" height="1"/>
				<rect x="373.8" y="15.5" fill="none" stroke="#CCCCCC" stroke-width="0.5" width="1" height="1"/>
			</g>
			<g>
				<rect x="373.8" y="18.2" fill="none" stroke="#CCCCCC" stroke-width="0.5" width="1" height="1"/>
				<rect x="376.5" y="18.2" fill="none" stroke="#CCCCCC" stroke-width="0.5" width="1" height="1"/>
				<rect x="379.2" y="18.2" fill="none" stroke="#CCCCCC" stroke-width="0.5" width="1" height="1"/>
				<rect x="381.8" y="18.2" fill="none" stroke="#CCCCCC" stroke-width="0.5" width="1" height="1"/>
				<rect x="384.5" y="18.2" fill="none" stroke="#CCCCCC" stroke-width="0.5" width="1" height="1"/>
			</g>
		</g>
		<g>
			<g>
				<rect x="400.8" y="15.5" fill="none" stroke="#CCCCCC" stroke-width="0.5" width="1" height="1"/>
				<rect x="398.1" y="15.5" fill="none" stroke="#CCCCCC" stroke-width="0.5" width="1" height="1"/>
				<rect x="395.4" y="15.5" fill="none" stroke="#CCCCCC" stroke-width="0.5" width="1" height="1"/>
				<rect x="392.8" y="15.5" fill="none" stroke="#CCCCCC" stroke-width="0.5" width="1" height="1"/>
				<rect x="390.1" y="15.5" fill="none" stroke="#CCCCCC" stroke-width="0.5" width="1" height="1"/>
			</g>
			<g>
				<rect x="390.1" y="18.2" fill="none" stroke="#CCCCCC" stroke-width="0.5" width="1" height="1"/>
				<rect x="392.8" y="18.2" fill="none" stroke="#CCCCCC" stroke-width="0.5" width="1" height="1"/>
				<rect x="395.4" y="18.2" fill="none" stroke="#CCCCCC" stroke-width="0.5" width="1" height="1"/>
				<rect x="398.1" y="18.2" fill="none" stroke="#CCCCCC" stroke-width="0.5" width="1" height="1"/>
				<rect x="400.8" y="18.2" fill="none" stroke="#CCCCCC" stroke-width="0.5" width="1" height="1"/>
			</g>
		</g>
	</g>
	<g>
		<g>
			<g>
				<rect x="335.7" y="64" fill="none" stroke="#CCCCCC" stroke-width="0.5" width="1" height="1"/>
				<rect x="333" y="64" fill="none" stroke="#CCCCCC" stroke-width="0.5" width="1" height="1"/>
				<rect x="330.4" y="64" fill="none" stroke="#CCCCCC" stroke-width="0.5" width="1" height="1"/>
				<rect x="327.7" y="64" fill="none" stroke="#CCCCCC" stroke-width="0.5" width="1" height="1"/>
				<rect x="325" y="64" fill="none" stroke="#CCCCCC" stroke-width="0.5" width="1" height="1"/>
			</g>
			<g>
				<rect x="325" y="66.7" fill="none" stroke="#CCCCCC" stroke-width="0.5" width="1" height="1"/>
				<rect x="327.7" y="66.7" fill="none" stroke="#CCCCCC" stroke-width="0.5" width="1" height="1"/>
				<rect x="330.4" y="66.7" fill="none" stroke="#CCCCCC" stroke-width="0.5" width="1" height="1"/>
				<rect x="333" y="66.7" fill="none" stroke="#CCCCCC" stroke-width="0.5" width="1" height="1"/>
				<rect x="335.7" y="66.7" fill="none" stroke="#CCCCCC" stroke-width="0.5" width="1" height="1"/>
			</g>
		</g>
		<g>
			<g>
				<rect x="352" y="64" fill="none" stroke="#CCCCCC" stroke-width="0.5" width="1" height="1"/>
				<rect x="349.3" y="64" fill="none" stroke="#CCCCCC" stroke-width="0.5" width="1" height="1"/>
				<rect x="346.6" y="64" fill="none" stroke="#CCCCCC" stroke-width="0.5" width="1" height="1"/>
				<rect x="344" y="64" fill="none" stroke="#CCCCCC" stroke-width="0.5" width="1" height="1"/>
				<rect x="341.3" y="64" fill="none" stroke="#CCCCCC" stroke-width="0.5" width="1" height="1"/>
			</g>
			<g>
				<rect x="341.3" y="66.7" fill="none" stroke="#CCCCCC" stroke-width="0.5" width="1" height="1"/>
				<rect x="344" y="66.7" fill="none" stroke="#CCCCCC" stroke-width="0.5" width="1" height="1"/>
				<rect x="346.6" y="66.7" fill="none" stroke="#CCCCCC" stroke-width="0.5" width="1" height="1"/>
				<rect x="349.3" y="66.7" fill="none" stroke="#CCCCCC" stroke-width="0.5" width="1" height="1"/>
				<rect x="352" y="66.7" fill="none" stroke="#CCCCCC" stroke-width="0.5" width="1" height="1"/>
			</g>
		</g>
		<g>
			<g>
				<rect x="368.2" y="64" fill="none" stroke="#CCCCCC" stroke-width="0.5" width="1" height="1"/>
				<rect x="365.6" y="64" fill="none" stroke="#CCCCCC" stroke-width="0.5" width="1" height="1"/>
				<rect x="362.9" y="64" fill="none" stroke="#CCCCCC" stroke-width="0.5" width="1" height="1"/>
				<rect x="360.2" y="64" fill="none" stroke="#CCCCCC" stroke-width="0.5" width="1" height="1"/>
				<rect x="357.6" y="64" fill="none" stroke="#CCCCCC" stroke-width="0.5" width="1" height="1"/>
			</g>
			<g>
				<rect x="357.6" y="66.7" fill="none" stroke="#CCCCCC" stroke-width="0.5" width="1" height="1"/>
				<rect x="360.2" y="66.7" fill="none" stroke="#CCCCCC" stroke-width="0.5" width="1" height="1"/>
				<rect x="362.9" y="66.7" fill="none" stroke="#CCCCCC" stroke-width="0.5" width="1" height="1"/>
				<rect x="365.6" y="66.7" fill="none" stroke="#CCCCCC" stroke-width="0.5" width="1" height="1"/>
				<rect x="368.2" y="66.7" fill="none" stroke="#CCCCCC" stroke-width="0.5" width="1" height="1"/>
			</g>
		</g>
		<g>
			<g>
				<rect x="384.5" y="64" fill="none" stroke="#CCCCCC" stroke-width="0.5" width="1" height="1"/>
				<rect x="381.8" y="64" fill="none" stroke="#CCCCCC" stroke-width="0.5" width="1" height="1"/>
				<rect x="379.2" y="64" fill="none" stroke="#CCCCCC" stroke-width="0.5" width="1" height="1"/>
				<rect x="376.5" y="64" fill="none" stroke="#CCCCCC" stroke-width="0.5" width="1" height="1"/>
				<rect x="373.8" y="64" fill="none" stroke="#CCCCCC" stroke-width="0.5" width="1" height="1"/>
			</g>
			<g>
				<rect x="373.8" y="66.7" fill="none" stroke="#CCCCCC" stroke-width="0.5" width="1" height="1"/>
				<rect x="376.5" y="66.7" fill="none" stroke="#CCCCCC" stroke-width="0.5" width="1" height="1"/>
				<rect x="379.2" y="66.7" fill="none" stroke="#CCCCCC" stroke-width="0.5" width="1" height="1"/>
				<rect x="381.8" y="66.7" fill="none" stroke="#CCCCCC" stroke-width="0.5" width="1" height="1"/>
				<rect x="384.5" y="66.7" fill="none" stroke="#CCCCCC" stroke-width="0.5" width="1" height="1"/>
			</g>
		</g>
		<g>
			<g>
				<rect x="400.8" y="64" fill="none" stroke="#CCCCCC" stroke-width="0.5" width="1" height="1"/>
				<rect x="398.1" y="64" fill="none" stroke="#CCCCCC" stroke-width="0.5" width="1" height="1"/>
				<rect x="395.4" y="64" fill="none" stroke="#CCCCCC" stroke-width="0.5" width="1" height="1"/>
				<rect x="392.8" y="64" fill="none" stroke="#CCCCCC" stroke-width="0.5" width="1" height="1"/>
				<rect x="390.1" y="64" fill="none" stroke="#CCCCCC" stroke-width="0.5" width="1" height="1"/>
			</g>
			<g>
				<rect x="390.1" y="66.7" fill="none" stroke="#CCCCCC" stroke-width="0.5" width="1" height="1"/>
				<rect x="392.8" y="66.7" fill="none" stroke="#CCCCCC" stroke-width="0.5" width="1" height="1"/>
				<rect x="395.4" y="66.7" fill="none" stroke="#CCCCCC" stroke-width="0.5" width="1" height="1"/>
				<rect x="398.1" y="66.7" fill="none" stroke="#CCCCCC" stroke-width="0.5" width="1" height="1"/>
				<rect x="400.8" y="66.7" fill="none" stroke="#CCCCCC" stroke-width="0.5" width="1" height="1"/>
			</g>
		</g>
	</g>
	<rect x="319.2" y="12.8" fill="none" stroke="#CCCCCC" stroke-width="0.5" width="91.2" height="56.9"/>
</g>
<line fill="none" stroke="#000000" stroke-width="0.5" x1="274" y1="17" x2="274" y2="37.4"/>
<line fill="none" stroke="#000000" stroke-width="0.5" x1="274" y1="47.7" x2="274" y2="69.6"/>
<line fill="none" stroke="#000000" stroke-width="0.5" x1="238.1" y1="43" x2="265.8" y2="43"/>
<rect x="265.7" y="37.5" fill="none" stroke="#000000" stroke-width="0.5" width="16.5" height="10.3"/>
<g>
	<text transform="matrix(1 0 0 1 269.2697 43.4581)" font-family="'TheSerif-HP5Plain'" font-size="3.547">Servo</text>
</g>
<g>
	<text transform="matrix(1 0 0 1 270.8472 14.1407)" font-family="'TheSerif-HP5Plain'" font-size="3.547">+5V</text>
</g>
<polygon fill="none" stroke="#000000" stroke-width="0.5" points="235.8,40.4 238.3,43.1 235.8,45.9 229.3,45.9 229.3,40.4 "/>
<g>
	<g>
		<polyline fill="none" stroke="#000000" stroke-width="0.5" points="270.1,69.7 278.1,69.7 271.5,69.7 		"/>
		<line fill="none" stroke="#000000" stroke-width="0.5" x1="271.6" y1="71.8" x2="276.5" y2="71.8"/>
		<line fill="none" stroke="#000000" stroke-width="0.5" x1="273.2" y1="73.8" x2="275" y2="73.8"/>
	</g>
	<g>
		<polyline fill="none" stroke="#010101" stroke-width="0.45" points="270.1,69.7 278.1,69.7 271.5,69.7 		"/>
		<line fill="none" stroke="#010101" stroke-width="0.45" x1="271.6" y1="71.8" x2="276.5" y2="71.8"/>
		<line fill="none" stroke="#010101" stroke-width="0.45" x1="273.2" y1="73.8" x2="275" y2="73.8"/>
	</g>
</g>
<g>
	<text transform="matrix(1 0 0 1 276.8291 29.3282)" fill="#ABABAB" font-family="'TheSerif-HP5Plain'" font-size="3.547">Red wire</text>
</g>
<g>
	<text transform="matrix(1 0 0 1 330.3719 85.7431)" fill="#ABABAB" font-family="'TheSerif-HP5Plain'" font-size="3.547">Red wire</text>
</g>
<g>
	<text transform="matrix(1 0 0 1 276.4928 59.6299)" fill="#ABABAB" font-family="'TheSerif-HP5Plain'" font-size="3.547">Black wire</text>
</g>
<g>
	<text transform="matrix(1 0 0 1 343.2109 23.9913)" fill="#ABABAB" font-family="'TheSerif-HP5Plain'" font-size="3.547">Black wire</text>
</g>
<g>
	<text transform="matrix(1 0 0 1 240.8429 48.2031)" fill="#ABABAB" font-family="'TheSerif-HP5Plain'" font-size="3.547">Yellow wire</text>
</g>
<g>
	<text transform="matrix(1 0 0 1 359.4141 74.7227)" fill="#ABABAB" font-family="'TheSerif-HP5Plain'" font-size="3.547">Yellow wire</text>
</g>
<g>
	<text transform="matrix(1 0 0 1 280.3267 72.4892)" font-family="'TheSerif-HP5Plain'" font-size="3.547">Ground</text>
</g>
<path fill="none" stroke="#231F20" stroke-width="1.5073" d="M374.3,15.8"/>
<path fill="none" stroke="#231F20" stroke-width="1.5073" d="M395.6,56.2"/>
<path fill="none" stroke="#7D8287" stroke-width="0.492" d="M371.5,47.1"/>
<path fill="none" stroke="#808080" stroke-linecap="round" d="M371.8,34.8c0,0,6.4-3.9,8.7-11.8c1.5-5.1,1.1-15.4,1.1-15.4"/>
<g>
	<g>
		<g>
			<path fill="#010101" d="M404.6,92.9c-1.2,0-2.3-1-2.3-2.2c0-1.2,1-2.2,2.3-2.2c0.5,0,0.9,0.1,1.2,0.4v-3.3
				c-0.4,0.2-0.8,0.4-1.2,0.4c-1.2,0-2.3-1-2.3-2.2c0-1.2,1-2.2,2.3-2.2c0.5,0,0.9,0.1,1.2,0.4v-1.9h-4.7v-2.3h-28.3v2.3h-4.8v1.9
				h4.8v10.6H368v2h4.7v2.5h28.4v-2.5h4.7v-1.9C405.5,92.8,405,92.9,404.6,92.9z"/>
		</g>
	</g>
	<ellipse fill="#FFFFFF" stroke="#CACDD3" stroke-width="0.492" cx="375.2" cy="87.3" rx="8.3" ry="8.4"/>
	<ellipse fill="#FFFFFF" stroke="#CACDD3" stroke-width="0.492" cx="375.2" cy="87.3" rx="3.3" ry="3.3"/>
	<ellipse fill="#FFFFFF" stroke="#CACDD3" stroke-width="0.492" cx="381.1" cy="87.3" rx="1.3" ry="1.3"/>
	<ellipse fill="#FFFFFF" stroke="#CACDD3" stroke-width="0.492" cx="379.3" cy="83.2" rx="1.3" ry="1.3"/>
	<ellipse fill="#FFFFFF" stroke="#CACDD3" stroke-width="0.492" cx="375.2" cy="81.5" rx="1.3" ry="1.3"/>
	<ellipse fill="#FFFFFF" stroke="#CACDD3" stroke-width="0.492" cx="371.1" cy="83.2" rx="1.3" ry="1.3"/>
	<path fill="#FFFFFF" stroke="#CACDD3" stroke-width="0.492" d="M369.5,88.7c-0.7,0-1.3-0.6-1.3-1.3s0.6-1.3,1.3-1.3
		s1.3,0.6,1.3,1.3C370.8,88,370.2,88.7,369.5,88.7z"/>
	<ellipse fill="#FFFFFF" stroke="#CACDD3" stroke-width="0.492" cx="371.1" cy="91.4" rx="1.3" ry="1.3"/>
	<ellipse fill="#FFFFFF" stroke="#CACDD3" stroke-width="0.492" cx="375.2" cy="93.2" rx="1.3" ry="1.3"/>
	<ellipse fill="#FFFFFF" stroke="#CACDD3" stroke-width="0.492" cx="379.3" cy="91.5" rx="1.3" ry="1.3"/>
</g>
<path fill="none" stroke="#ABABAB" stroke-linecap="round" d="M366.7,85.4c0,0-14.2-4.5-12.4-19.6s17.4-28.4,17.4-28.4"/>
<path fill="none" stroke="#000000" stroke-linecap="round" d="M366.5,86.5c0,0-24.4,2.3-20.5-27.3c3.8-28.6-9.7-43.2-9.7-43.2"/>
<path fill="none" stroke="#404040" stroke-linecap="round" d="M366.5,88.2c0,0-23.5,6.3-31.3-27.5c-3.7-16.1,4.6-33.9-1.7-41.8"/>
<path fill="none" stroke="#404040" stroke-linecap="round" d="M317.4,7.2c0,0-2.5,6.3,8.2,11.3"/>
<path fill="none" stroke="#000000" stroke-linecap="round" d="M323.9,7.2c0,0-2.4,1.8,1.6,9"/>
<g>
	<text transform="matrix(1 0 0 1 312.4362 4.1485)" font-family="'TheSerif-HP5Plain'" font-size="3.547">+5V</text>
</g>
<g>
	<text transform="matrix(1 0 0 1 323.0137 4.1485)" font-family="'TheSerif-HP5Plain'" font-size="3.547">Ground</text>
</g>
<g>
	<text transform="matrix(1 0 0 1 367.8935 4.1485)" font-family="'TheSerif-HP5Plain'" font-size="3.547">Digital I/O Pin 0</text>
</g>
<g>
	<text transform="matrix(1 0 0 1 228.7817 37.046)" font-family="'TheSerif-HP5Plain'" font-size="3.547">Digital I/O Pin 0</text>
</g>
</svg>
