<?xml version="1.0" encoding="utf-8"?>
<!-- Generator: Adobe Illustrator 18.0.0, SVG Export Plug-In . SVG Version: 6.00 Build 0)  -->
<!DOCTYPE svg PUBLIC "-//W3C//DTD SVG 1.1//EN" "http://www.w3.org/Graphics/SVG/1.1/DTD/svg11.dtd">
<svg version="1.1" id="Layer_1" xmlns="http://www.w3.org/2000/svg" xmlns:xlink="http://www.w3.org/1999/xlink" x="0px" y="0px"
	 viewBox="0 0 687 220" enable-background="new 0 0 687 220" xml:space="preserve">
<circle fill="#FFFFFF" stroke="#010101" stroke-width="0.5" cx="563.8" cy="128.9" r="33.7"/>
<line fill="none" stroke="#010101" stroke-width="0.5" x1="276.5" y1="42" x2="373.1" y2="16"/>
<g>
	<text transform="matrix(1 0 0 1 591.2227 181.3136)" fill="#010101" font-family="'TheSerif-HP5Plain'" font-size="21.8828">Light</text>
</g>
<g>
	<text transform="matrix(1 0 0 1 215.8785 21.0479)" fill="#010101" font-family="'TheSerif-HP5Plain'" font-size="21.8828">Switch</text>
</g>
<g>
	<text transform="matrix(1 0 0 1 47.4844 96.4884)" fill="#010101" font-family="'TheSerif-HP5Plain'" font-size="21.8828">Battery</text>
</g>
<path fill="none" stroke="#010101" stroke-width="0.5" d="M376.4,41.1h95c16.5,0,30.1,13.4,30.1,30.6v44.4h50.1
	c7,0,12.5,5.7,12.5,12.5c0,7-5.7,12.5-12.5,12.5h-50.1v45.1c0,16.5-13.4,30.1-30.1,30.1H181.5c-16.5,0-30.1-13.4-30.1-30.1V71
	c0-16.5,13.4-30.1,30.1-30.1h95"/>
<circle fill="#FFFFFF" stroke="#010101" stroke-width="0.5" cx="276.5" cy="41.1" r="6.2"/>
<circle fill="#FFFFFF" stroke="#010101" stroke-width="0.5" cx="376.4" cy="41.1" r="6.2"/>
<rect x="147.3" y="103.6" fill="#FFFFFF" width="9.9" height="37.4"/>
<line fill="none" stroke="#010101" stroke-width="0.5" x1="126.4" y1="103.6" x2="176.4" y2="103.6"/>
<line fill="none" stroke="#010101" stroke-width="0.5" x1="126.4" y1="128.6" x2="176.4" y2="128.6"/>
<line fill="none" stroke="#010101" stroke-width="0.5" x1="139" y1="116.1" x2="163.9" y2="116.1"/>
<line fill="none" stroke="#010101" stroke-width="0.5" x1="139" y1="141" x2="163.9" y2="141"/>
<text transform="matrix(1 0 0 1 133.9277 96.711)" fill="#010101" font-family="'TheSansMono-W3Light'" font-size="25.009">+</text>
</svg>
