<?xml version="1.0" encoding="utf-8"?>
<!-- Generator: Adobe Illustrator 18.0.0, SVG Export Plug-In . SVG Version: 6.00 Build 0)  -->
<!DOCTYPE svg PUBLIC "-//W3C//DTD SVG 1.1//EN" "http://www.w3.org/Graphics/SVG/1.1/DTD/svg11.dtd">
<svg version="1.1" id="Layer_1" xmlns="http://www.w3.org/2000/svg" xmlns:xlink="http://www.w3.org/1999/xlink" x="0px" y="0px"
	 viewBox="0 0 687 220" enable-background="new 0 0 687 220" xml:space="preserve">
<text transform="matrix(1 0 0 1 296.3292 31.3938)" fill="#010101" font-family="'TheSerif-HP5Plain'" font-size="8.8983">Analog In Pin 0</text>
<text transform="matrix(1 0 0 1 243.1535 31.3938)" fill="#010101" font-family="'TheSerif-HP5Plain'" font-size="8.8983">+5V</text>
<text transform="matrix(1 0 0 1 411.0304 31.3938)" fill="#010101" font-family="'TheSerif-HP5Plain'" font-size="8.8983">Ground</text>
<polyline fill="none" stroke="#010101" stroke-width="0.5" points="122.8,43.8 122.8,72.7 118.5,75 128.8,78.7 117.7,82.1 
	127.7,86.5 117.7,89.1 123.4,91.4 123.4,121.2 118.1,123.1 128.8,126.8 118.1,131.2 129,134.6 118.1,138.7 123,140.6 123,161.9 "/>
<line fill="none" stroke="#010101" stroke-width="0.5" x1="45.3" y1="111.7" x2="123.4" y2="111.7"/>
<circle fill="none" stroke="#010101" stroke-width="0.5" cx="122.4" cy="82.3" r="14.7"/>
<text transform="matrix(1 0 0 1 112.6583 39.4895)" fill="#010101" font-family="'TheSerif-HP5Plain'" font-size="8.8983">+5V</text>
<text transform="matrix(1 0 0 1 11.0001 96.6379)" fill="#010101" font-family="'TheSerif-HP5Plain'" font-size="8.8983">Analog In Pin 0</text>
<polygon fill="none" stroke="#010101" stroke-width="0.5" points="39.8,105.1 46,111.9 39.8,118.7 23.6,118.7 23.6,105.1 "/>
<g>
	<polyline fill="none" stroke="#010101" stroke-width="0.5" points="112.8,161.9 132.8,161.9 116.4,161.9 	"/>
	<line fill="none" stroke="#010101" stroke-width="0.5" x1="116.6" y1="167.4" x2="129" y2="167.4"/>
	<line fill="none" stroke="#010101" stroke-width="0.5" x1="120.4" y1="172.5" x2="125.1" y2="172.5"/>
</g>
<text transform="matrix(1 0 0 1 137.1535 177.9944)" fill="#010101" font-family="'TheSerif-HP5Plain'" font-size="8.8983">Ground</text>
<text transform="matrix(1 0 0 1 138.6271 132.8215)" fill="#010101" font-family="'TheSerif-HP5Plain'" font-size="8.8983">1K</text>
<g>
	<g>
		<polygon fill="#010101" points="133.6,67.4 136.8,60.8 140,64.2 		"/>
		<line fill="none" stroke="#010101" stroke-width="0.5" x1="136.8" y1="64.2" x2="144.9" y2="56.1"/>
	</g>
	<g>
		<polygon fill="#010101" points="137.9,71.8 141.1,65.3 144.5,68.5 		"/>
		<line fill="none" stroke="#010101" stroke-width="0.5" x1="141.1" y1="68.5" x2="149.2" y2="60.4"/>
	</g>
</g>
<g>
	<g>
		<g>
			<rect x="297.1" y="90.4" fill="none" stroke="#CDCCCC" stroke-width="0.5" width="2.5" height="2.5"/>
			<rect x="297.1" y="97" fill="none" stroke="#CDCCCC" stroke-width="0.5" width="2.5" height="2.5"/>
			<rect x="297.1" y="103.8" fill="none" stroke="#CDCCCC" stroke-width="0.5" width="2.5" height="2.5"/>
			<rect x="297.1" y="110.4" fill="none" stroke="#CDCCCC" stroke-width="0.5" width="2.5" height="2.5"/>
			<rect x="297.1" y="117.2" fill="none" stroke="#CDCCCC" stroke-width="0.5" width="2.5" height="2.5"/>
		</g>
		<g>
			<rect x="303.9" y="90.4" fill="none" stroke="#CDCCCC" stroke-width="0.5" width="2.5" height="2.5"/>
			<rect x="303.9" y="97" fill="none" stroke="#CDCCCC" stroke-width="0.5" width="2.5" height="2.5"/>
			<rect x="303.9" y="103.8" fill="none" stroke="#CDCCCC" stroke-width="0.5" width="2.5" height="2.5"/>
			<rect x="303.9" y="110.4" fill="none" stroke="#CDCCCC" stroke-width="0.5" width="2.5" height="2.5"/>
			<rect x="303.9" y="117.2" fill="none" stroke="#CDCCCC" stroke-width="0.5" width="2.5" height="2.5"/>
		</g>
		<g>
			<rect x="310.7" y="90.4" fill="none" stroke="#CDCCCC" stroke-width="0.5" width="2.5" height="2.5"/>
			<rect x="310.7" y="97" fill="none" stroke="#CDCCCC" stroke-width="0.5" width="2.5" height="2.5"/>
			<rect x="310.7" y="103.8" fill="none" stroke="#CDCCCC" stroke-width="0.5" width="2.5" height="2.5"/>
			<rect x="310.7" y="110.4" fill="none" stroke="#CDCCCC" stroke-width="0.5" width="2.5" height="2.5"/>
			<rect x="310.7" y="117.2" fill="none" stroke="#CDCCCC" stroke-width="0.5" width="2.5" height="2.5"/>
		</g>
		<g>
			<rect x="317.5" y="90.4" fill="none" stroke="#CDCCCC" stroke-width="0.5" width="2.5" height="2.5"/>
			<rect x="317.5" y="97" fill="none" stroke="#CDCCCC" stroke-width="0.5" width="2.5" height="2.5"/>
			<rect x="317.5" y="103.8" fill="none" stroke="#CDCCCC" stroke-width="0.5" width="2.5" height="2.5"/>
			<rect x="317.5" y="110.4" fill="none" stroke="#CDCCCC" stroke-width="0.5" width="2.5" height="2.5"/>
			<rect x="317.5" y="117.2" fill="none" stroke="#CDCCCC" stroke-width="0.5" width="2.5" height="2.5"/>
		</g>
		<g>
			<rect x="324.3" y="90.4" fill="none" stroke="#CDCCCC" stroke-width="0.5" width="2.5" height="2.5"/>
			<rect x="324.3" y="97" fill="none" stroke="#CDCCCC" stroke-width="0.5" width="2.5" height="2.5"/>
			<rect x="324.3" y="103.8" fill="none" stroke="#CDCCCC" stroke-width="0.5" width="2.5" height="2.5"/>
			<rect x="324.3" y="110.4" fill="none" stroke="#CDCCCC" stroke-width="0.5" width="2.5" height="2.5"/>
			<rect x="324.3" y="117.2" fill="none" stroke="#CDCCCC" stroke-width="0.5" width="2.5" height="2.5"/>
		</g>
		<g>
			<rect x="331.1" y="90.4" fill="none" stroke="#CDCCCC" stroke-width="0.5" width="2.5" height="2.5"/>
			<rect x="331.1" y="97" fill="none" stroke="#CDCCCC" stroke-width="0.5" width="2.5" height="2.5"/>
			<rect x="331.1" y="103.8" fill="none" stroke="#CDCCCC" stroke-width="0.5" width="2.5" height="2.5"/>
			<rect x="331.1" y="110.4" fill="none" stroke="#CDCCCC" stroke-width="0.5" width="2.5" height="2.5"/>
			<rect x="331.1" y="117.2" fill="none" stroke="#CDCCCC" stroke-width="0.5" width="2.5" height="2.5"/>
		</g>
		<g>
			<rect x="338" y="90.4" fill="none" stroke="#CDCCCC" stroke-width="0.5" width="2.5" height="2.5"/>
			<rect x="338" y="97" fill="none" stroke="#CDCCCC" stroke-width="0.5" width="2.5" height="2.5"/>
			<rect x="338" y="103.8" fill="none" stroke="#CDCCCC" stroke-width="0.5" width="2.5" height="2.5"/>
			<rect x="338" y="110.4" fill="none" stroke="#CDCCCC" stroke-width="0.5" width="2.5" height="2.5"/>
			<rect x="338" y="117.2" fill="none" stroke="#CDCCCC" stroke-width="0.5" width="2.5" height="2.5"/>
		</g>
		<g>
			<rect x="344.8" y="90.4" fill="none" stroke="#CDCCCC" stroke-width="0.5" width="2.5" height="2.5"/>
			<rect x="344.8" y="97" fill="none" stroke="#CDCCCC" stroke-width="0.5" width="2.5" height="2.5"/>
			<rect x="344.8" y="103.8" fill="none" stroke="#CDCCCC" stroke-width="0.5" width="2.5" height="2.5"/>
			<rect x="344.8" y="110.4" fill="none" stroke="#CDCCCC" stroke-width="0.5" width="2.5" height="2.5"/>
			<rect x="344.8" y="117.2" fill="none" stroke="#CDCCCC" stroke-width="0.5" width="2.5" height="2.5"/>
		</g>
		<g>
			<rect x="351.4" y="90.4" fill="none" stroke="#CDCCCC" stroke-width="0.5" width="2.5" height="2.5"/>
			<rect x="351.4" y="97" fill="none" stroke="#CDCCCC" stroke-width="0.5" width="2.5" height="2.5"/>
			<rect x="351.4" y="103.8" fill="none" stroke="#CDCCCC" stroke-width="0.5" width="2.5" height="2.5"/>
			<rect x="351.4" y="110.4" fill="none" stroke="#CDCCCC" stroke-width="0.5" width="2.5" height="2.5"/>
			<rect x="351.4" y="117.2" fill="none" stroke="#CDCCCC" stroke-width="0.5" width="2.5" height="2.5"/>
		</g>
		<g>
			<rect x="358.4" y="90.4" fill="none" stroke="#CDCCCC" stroke-width="0.5" width="2.5" height="2.5"/>
			<rect x="358.4" y="97" fill="none" stroke="#CDCCCC" stroke-width="0.5" width="2.5" height="2.5"/>
			<rect x="358.4" y="103.8" fill="none" stroke="#CDCCCC" stroke-width="0.5" width="2.5" height="2.5"/>
			<rect x="358.4" y="110.4" fill="none" stroke="#CDCCCC" stroke-width="0.5" width="2.5" height="2.5"/>
			<rect x="358.4" y="117.2" fill="none" stroke="#CDCCCC" stroke-width="0.5" width="2.5" height="2.5"/>
		</g>
		<g>
			<rect x="365.2" y="90.4" fill="none" stroke="#CDCCCC" stroke-width="0.5" width="2.5" height="2.5"/>
			<rect x="365.2" y="97" fill="none" stroke="#CDCCCC" stroke-width="0.5" width="2.5" height="2.5"/>
			<rect x="365.2" y="103.8" fill="none" stroke="#CDCCCC" stroke-width="0.5" width="2.5" height="2.5"/>
			<rect x="365.2" y="110.4" fill="none" stroke="#CDCCCC" stroke-width="0.5" width="2.5" height="2.5"/>
			<rect x="365.2" y="117.2" fill="none" stroke="#CDCCCC" stroke-width="0.5" width="2.5" height="2.5"/>
		</g>
		<g>
			<rect x="372" y="90.4" fill="none" stroke="#CDCCCC" stroke-width="0.5" width="2.5" height="2.5"/>
			<rect x="372" y="97" fill="none" stroke="#CDCCCC" stroke-width="0.5" width="2.5" height="2.5"/>
			<rect x="372" y="103.8" fill="none" stroke="#CDCCCC" stroke-width="0.5" width="2.5" height="2.5"/>
			<rect x="372" y="110.4" fill="none" stroke="#CDCCCC" stroke-width="0.5" width="2.5" height="2.5"/>
			<rect x="372" y="117.2" fill="none" stroke="#CDCCCC" stroke-width="0.5" width="2.5" height="2.5"/>
		</g>
		<g>
			<rect x="378.8" y="90.4" fill="none" stroke="#CDCCCC" stroke-width="0.5" width="2.5" height="2.5"/>
			<rect x="378.8" y="97" fill="none" stroke="#CDCCCC" stroke-width="0.5" width="2.5" height="2.5"/>
			<rect x="378.8" y="103.8" fill="none" stroke="#CDCCCC" stroke-width="0.5" width="2.5" height="2.5"/>
			<rect x="378.8" y="110.4" fill="none" stroke="#CDCCCC" stroke-width="0.5" width="2.5" height="2.5"/>
			<rect x="378.8" y="117.2" fill="none" stroke="#CDCCCC" stroke-width="0.5" width="2.5" height="2.5"/>
		</g>
		<g>
			<rect x="385.6" y="90.4" fill="none" stroke="#CDCCCC" stroke-width="0.5" width="2.5" height="2.5"/>
			<rect x="385.6" y="97" fill="none" stroke="#CDCCCC" stroke-width="0.5" width="2.5" height="2.5"/>
			<rect x="385.6" y="103.8" fill="none" stroke="#CDCCCC" stroke-width="0.5" width="2.5" height="2.5"/>
			<rect x="385.6" y="110.4" fill="none" stroke="#CDCCCC" stroke-width="0.5" width="2.5" height="2.5"/>
			<rect x="385.6" y="117.2" fill="none" stroke="#CDCCCC" stroke-width="0.5" width="2.5" height="2.5"/>
		</g>
		<g>
			<rect x="392.4" y="90.4" fill="none" stroke="#CDCCCC" stroke-width="0.5" width="2.5" height="2.5"/>
			<rect x="392.4" y="97" fill="none" stroke="#CDCCCC" stroke-width="0.5" width="2.5" height="2.5"/>
			<rect x="392.4" y="103.8" fill="none" stroke="#CDCCCC" stroke-width="0.5" width="2.5" height="2.5"/>
			<rect x="392.4" y="110.4" fill="none" stroke="#CDCCCC" stroke-width="0.5" width="2.5" height="2.5"/>
			<rect x="392.4" y="117.2" fill="none" stroke="#CDCCCC" stroke-width="0.5" width="2.5" height="2.5"/>
		</g>
		<g>
			<rect x="399.2" y="90.4" fill="none" stroke="#CDCCCC" stroke-width="0.5" width="2.5" height="2.5"/>
			<rect x="399.2" y="97" fill="none" stroke="#CDCCCC" stroke-width="0.5" width="2.5" height="2.5"/>
			<rect x="399.2" y="103.8" fill="none" stroke="#CDCCCC" stroke-width="0.5" width="2.5" height="2.5"/>
			<rect x="399.2" y="110.4" fill="none" stroke="#CDCCCC" stroke-width="0.5" width="2.5" height="2.5"/>
			<rect x="399.2" y="117.2" fill="none" stroke="#CDCCCC" stroke-width="0.5" width="2.5" height="2.5"/>
		</g>
		<g>
			<rect x="406" y="90.4" fill="none" stroke="#CDCCCC" stroke-width="0.5" width="2.5" height="2.5"/>
			<rect x="406" y="97" fill="none" stroke="#CDCCCC" stroke-width="0.5" width="2.5" height="2.5"/>
			<rect x="406" y="103.8" fill="none" stroke="#CDCCCC" stroke-width="0.5" width="2.5" height="2.5"/>
			<rect x="406" y="110.4" fill="none" stroke="#CDCCCC" stroke-width="0.5" width="2.5" height="2.5"/>
			<rect x="406" y="117.2" fill="none" stroke="#CDCCCC" stroke-width="0.5" width="2.5" height="2.5"/>
		</g>
		<g>
			<rect x="412.8" y="90.4" fill="none" stroke="#CDCCCC" stroke-width="0.5" width="2.5" height="2.5"/>
			<rect x="412.8" y="97" fill="none" stroke="#CDCCCC" stroke-width="0.5" width="2.5" height="2.5"/>
			<rect x="412.8" y="103.8" fill="none" stroke="#CDCCCC" stroke-width="0.5" width="2.5" height="2.5"/>
			<rect x="412.8" y="110.4" fill="none" stroke="#CDCCCC" stroke-width="0.5" width="2.5" height="2.5"/>
			<rect x="412.8" y="117.2" fill="none" stroke="#CDCCCC" stroke-width="0.5" width="2.5" height="2.5"/>
		</g>
		<g>
			<rect x="419.5" y="90.4" fill="none" stroke="#CDCCCC" stroke-width="0.5" width="2.5" height="2.5"/>
			<rect x="419.5" y="97" fill="none" stroke="#CDCCCC" stroke-width="0.5" width="2.5" height="2.5"/>
			<rect x="419.5" y="103.8" fill="none" stroke="#CDCCCC" stroke-width="0.5" width="2.5" height="2.5"/>
			<rect x="419.5" y="110.4" fill="none" stroke="#CDCCCC" stroke-width="0.5" width="2.5" height="2.5"/>
			<rect x="419.5" y="117.2" fill="none" stroke="#CDCCCC" stroke-width="0.5" width="2.5" height="2.5"/>
		</g>
		<g>
			<rect x="426.3" y="90.4" fill="none" stroke="#CDCCCC" stroke-width="0.5" width="2.5" height="2.5"/>
			<rect x="426.3" y="97" fill="none" stroke="#CDCCCC" stroke-width="0.5" width="2.5" height="2.5"/>
			<rect x="426.3" y="103.8" fill="none" stroke="#CDCCCC" stroke-width="0.5" width="2.5" height="2.5"/>
			<rect x="426.3" y="110.4" fill="none" stroke="#CDCCCC" stroke-width="0.5" width="2.5" height="2.5"/>
			<rect x="426.3" y="117.2" fill="none" stroke="#CDCCCC" stroke-width="0.5" width="2.5" height="2.5"/>
		</g>
		<g>
			<rect x="433.1" y="90.4" fill="none" stroke="#CDCCCC" stroke-width="0.5" width="2.5" height="2.5"/>
			<rect x="433.1" y="97" fill="none" stroke="#CDCCCC" stroke-width="0.5" width="2.5" height="2.5"/>
			<rect x="433.1" y="103.8" fill="none" stroke="#CDCCCC" stroke-width="0.5" width="2.5" height="2.5"/>
			<rect x="433.1" y="110.4" fill="none" stroke="#CDCCCC" stroke-width="0.5" width="2.5" height="2.5"/>
			<rect x="433.1" y="117.2" fill="none" stroke="#CDCCCC" stroke-width="0.5" width="2.5" height="2.5"/>
		</g>
		<g>
			<rect x="440.1" y="90.4" fill="none" stroke="#CDCCCC" stroke-width="0.5" width="2.5" height="2.5"/>
			<rect x="440.1" y="97" fill="none" stroke="#CDCCCC" stroke-width="0.5" width="2.5" height="2.5"/>
			<rect x="440.1" y="103.8" fill="none" stroke="#CDCCCC" stroke-width="0.5" width="2.5" height="2.5"/>
			<rect x="440.1" y="110.4" fill="none" stroke="#CDCCCC" stroke-width="0.5" width="2.5" height="2.5"/>
			<rect x="440.1" y="117.2" fill="none" stroke="#CDCCCC" stroke-width="0.5" width="2.5" height="2.5"/>
		</g>
		<g>
			<rect x="446.7" y="90.4" fill="none" stroke="#CDCCCC" stroke-width="0.5" width="2.5" height="2.5"/>
			<rect x="446.7" y="97" fill="none" stroke="#CDCCCC" stroke-width="0.5" width="2.5" height="2.5"/>
			<rect x="446.7" y="103.8" fill="none" stroke="#CDCCCC" stroke-width="0.5" width="2.5" height="2.5"/>
			<rect x="446.7" y="110.4" fill="none" stroke="#CDCCCC" stroke-width="0.5" width="2.5" height="2.5"/>
			<rect x="446.7" y="117.2" fill="none" stroke="#CDCCCC" stroke-width="0.5" width="2.5" height="2.5"/>
		</g>
		<g>
			<rect x="269.9" y="90.4" fill="none" stroke="#CDCCCC" stroke-width="0.5" width="2.5" height="2.5"/>
			<rect x="269.9" y="97" fill="none" stroke="#CDCCCC" stroke-width="0.5" width="2.5" height="2.5"/>
			<rect x="269.9" y="103.8" fill="none" stroke="#CDCCCC" stroke-width="0.5" width="2.5" height="2.5"/>
			<rect x="269.9" y="110.4" fill="none" stroke="#CDCCCC" stroke-width="0.5" width="2.5" height="2.5"/>
			<rect x="269.9" y="117.2" fill="none" stroke="#CDCCCC" stroke-width="0.5" width="2.5" height="2.5"/>
		</g>
		<g>
			<rect x="276.7" y="90.4" fill="none" stroke="#CDCCCC" stroke-width="0.5" width="2.5" height="2.5"/>
			<rect x="276.7" y="97" fill="none" stroke="#CDCCCC" stroke-width="0.5" width="2.5" height="2.5"/>
			<rect x="276.7" y="103.8" fill="none" stroke="#CDCCCC" stroke-width="0.5" width="2.5" height="2.5"/>
			<rect x="276.7" y="110.4" fill="none" stroke="#CDCCCC" stroke-width="0.5" width="2.5" height="2.5"/>
			<rect x="276.7" y="117.2" fill="none" stroke="#CDCCCC" stroke-width="0.5" width="2.5" height="2.5"/>
		</g>
		<g>
			<rect x="283.5" y="90.4" fill="none" stroke="#CDCCCC" stroke-width="0.5" width="2.5" height="2.5"/>
			<rect x="283.5" y="97" fill="none" stroke="#CDCCCC" stroke-width="0.5" width="2.5" height="2.5"/>
			<rect x="283.5" y="103.8" fill="none" stroke="#CDCCCC" stroke-width="0.5" width="2.5" height="2.5"/>
			<rect x="283.5" y="110.4" fill="none" stroke="#CDCCCC" stroke-width="0.5" width="2.5" height="2.5"/>
			<rect x="283.5" y="117.2" fill="none" stroke="#CDCCCC" stroke-width="0.5" width="2.5" height="2.5"/>
		</g>
		<g>
			<rect x="290.3" y="90.4" fill="none" stroke="#CDCCCC" stroke-width="0.5" width="2.5" height="2.5"/>
			<rect x="290.3" y="97" fill="none" stroke="#CDCCCC" stroke-width="0.5" width="2.5" height="2.5"/>
			<rect x="290.3" y="103.8" fill="none" stroke="#CDCCCC" stroke-width="0.5" width="2.5" height="2.5"/>
			<rect x="290.3" y="110.4" fill="none" stroke="#CDCCCC" stroke-width="0.5" width="2.5" height="2.5"/>
			<rect x="290.3" y="117.2" fill="none" stroke="#CDCCCC" stroke-width="0.5" width="2.5" height="2.5"/>
		</g>
		<g>
			<rect x="249.6" y="90.4" fill="none" stroke="#CDCCCC" stroke-width="0.5" width="2.5" height="2.5"/>
			<rect x="249.6" y="97" fill="none" stroke="#CDCCCC" stroke-width="0.5" width="2.5" height="2.5"/>
			<rect x="249.6" y="103.8" fill="none" stroke="#CDCCCC" stroke-width="0.5" width="2.5" height="2.5"/>
			<rect x="249.6" y="110.4" fill="none" stroke="#CDCCCC" stroke-width="0.5" width="2.5" height="2.5"/>
			<rect x="249.6" y="117.2" fill="none" stroke="#CDCCCC" stroke-width="0.5" width="2.5" height="2.5"/>
		</g>
		<g>
			<rect x="256.4" y="90.4" fill="none" stroke="#CDCCCC" stroke-width="0.5" width="2.5" height="2.5"/>
			<rect x="256.4" y="97" fill="none" stroke="#CDCCCC" stroke-width="0.5" width="2.5" height="2.5"/>
			<rect x="256.4" y="103.8" fill="none" stroke="#CDCCCC" stroke-width="0.5" width="2.5" height="2.5"/>
			<rect x="256.4" y="110.4" fill="none" stroke="#CDCCCC" stroke-width="0.5" width="2.5" height="2.5"/>
			<rect x="256.4" y="117.2" fill="none" stroke="#CDCCCC" stroke-width="0.5" width="2.5" height="2.5"/>
		</g>
		<g>
			<rect x="263.2" y="90.4" fill="none" stroke="#CDCCCC" stroke-width="0.5" width="2.5" height="2.5"/>
			<rect x="263.2" y="97" fill="none" stroke="#CDCCCC" stroke-width="0.5" width="2.5" height="2.5"/>
			<rect x="263.2" y="103.8" fill="none" stroke="#CDCCCC" stroke-width="0.5" width="2.5" height="2.5"/>
			<rect x="263.2" y="110.4" fill="none" stroke="#CDCCCC" stroke-width="0.5" width="2.5" height="2.5"/>
			<rect x="263.2" y="117.2" fill="none" stroke="#CDCCCC" stroke-width="0.5" width="2.5" height="2.5"/>
		</g>
	</g>
	<g>
		<g>
			<rect x="297.1" y="136.6" fill="none" stroke="#CDCCCC" stroke-width="0.5" width="2.5" height="2.5"/>
			<rect x="297.1" y="143.4" fill="none" stroke="#CDCCCC" stroke-width="0.5" width="2.5" height="2.5"/>
			<rect x="297.1" y="150" fill="none" stroke="#CDCCCC" stroke-width="0.5" width="2.5" height="2.5"/>
			<rect x="297.1" y="156.8" fill="none" stroke="#CDCCCC" stroke-width="0.5" width="2.5" height="2.5"/>
			<rect x="297.1" y="163.4" fill="none" stroke="#CDCCCC" stroke-width="0.5" width="2.5" height="2.5"/>
		</g>
		<g>
			<rect x="303.9" y="136.6" fill="none" stroke="#CDCCCC" stroke-width="0.5" width="2.5" height="2.5"/>
			<rect x="303.9" y="143.4" fill="none" stroke="#CDCCCC" stroke-width="0.5" width="2.5" height="2.5"/>
			<rect x="303.9" y="150" fill="none" stroke="#CDCCCC" stroke-width="0.5" width="2.5" height="2.5"/>
			<rect x="303.9" y="156.8" fill="none" stroke="#CDCCCC" stroke-width="0.5" width="2.5" height="2.5"/>
			<rect x="303.9" y="163.4" fill="none" stroke="#CDCCCC" stroke-width="0.5" width="2.5" height="2.5"/>
		</g>
		<g>
			<rect x="310.7" y="136.6" fill="none" stroke="#CDCCCC" stroke-width="0.5" width="2.5" height="2.5"/>
			<rect x="310.7" y="143.4" fill="none" stroke="#CDCCCC" stroke-width="0.5" width="2.5" height="2.5"/>
			<rect x="310.7" y="150" fill="none" stroke="#CDCCCC" stroke-width="0.5" width="2.5" height="2.5"/>
			<rect x="310.7" y="156.8" fill="none" stroke="#CDCCCC" stroke-width="0.5" width="2.5" height="2.5"/>
			<rect x="310.7" y="163.4" fill="none" stroke="#CDCCCC" stroke-width="0.5" width="2.5" height="2.5"/>
		</g>
		<g>
			<rect x="317.5" y="136.6" fill="none" stroke="#CDCCCC" stroke-width="0.5" width="2.5" height="2.5"/>
			<rect x="317.5" y="143.4" fill="none" stroke="#CDCCCC" stroke-width="0.5" width="2.5" height="2.5"/>
			<rect x="317.5" y="150" fill="none" stroke="#CDCCCC" stroke-width="0.5" width="2.5" height="2.5"/>
			<rect x="317.5" y="156.8" fill="none" stroke="#CDCCCC" stroke-width="0.5" width="2.5" height="2.5"/>
			<rect x="317.5" y="163.4" fill="none" stroke="#CDCCCC" stroke-width="0.5" width="2.5" height="2.5"/>
		</g>
		<g>
			<rect x="324.3" y="136.6" fill="none" stroke="#CDCCCC" stroke-width="0.5" width="2.5" height="2.5"/>
			<rect x="324.3" y="143.4" fill="none" stroke="#CDCCCC" stroke-width="0.5" width="2.5" height="2.5"/>
			<rect x="324.3" y="150" fill="none" stroke="#CDCCCC" stroke-width="0.5" width="2.5" height="2.5"/>
			<rect x="324.3" y="156.8" fill="none" stroke="#CDCCCC" stroke-width="0.5" width="2.5" height="2.5"/>
			<rect x="324.3" y="163.4" fill="none" stroke="#CDCCCC" stroke-width="0.5" width="2.5" height="2.5"/>
		</g>
		<g>
			<rect x="331.1" y="136.6" fill="none" stroke="#CDCCCC" stroke-width="0.5" width="2.5" height="2.5"/>
			<rect x="331.1" y="143.4" fill="none" stroke="#CDCCCC" stroke-width="0.5" width="2.5" height="2.5"/>
			<rect x="331.1" y="150" fill="none" stroke="#CDCCCC" stroke-width="0.5" width="2.5" height="2.5"/>
			<rect x="331.1" y="156.8" fill="none" stroke="#CDCCCC" stroke-width="0.5" width="2.5" height="2.5"/>
			<rect x="331.1" y="163.4" fill="none" stroke="#CDCCCC" stroke-width="0.5" width="2.5" height="2.5"/>
		</g>
		<g>
			<rect x="338" y="136.6" fill="none" stroke="#CDCCCC" stroke-width="0.5" width="2.5" height="2.5"/>
			<rect x="338" y="143.4" fill="none" stroke="#CDCCCC" stroke-width="0.5" width="2.5" height="2.5"/>
			<rect x="338" y="150" fill="none" stroke="#CDCCCC" stroke-width="0.5" width="2.5" height="2.5"/>
			<rect x="338" y="156.8" fill="none" stroke="#CDCCCC" stroke-width="0.5" width="2.5" height="2.5"/>
			<rect x="338" y="163.4" fill="none" stroke="#CDCCCC" stroke-width="0.5" width="2.5" height="2.5"/>
		</g>
		<g>
			<rect x="344.8" y="136.6" fill="none" stroke="#CDCCCC" stroke-width="0.5" width="2.5" height="2.5"/>
			<rect x="344.8" y="143.4" fill="none" stroke="#CDCCCC" stroke-width="0.5" width="2.5" height="2.5"/>
			<rect x="344.8" y="150" fill="none" stroke="#CDCCCC" stroke-width="0.5" width="2.5" height="2.5"/>
			<rect x="344.8" y="156.8" fill="none" stroke="#CDCCCC" stroke-width="0.5" width="2.5" height="2.5"/>
			<rect x="344.8" y="163.4" fill="none" stroke="#CDCCCC" stroke-width="0.5" width="2.5" height="2.5"/>
		</g>
		<g>
			<rect x="351.4" y="136.6" fill="none" stroke="#CDCCCC" stroke-width="0.5" width="2.5" height="2.5"/>
			<rect x="351.4" y="143.4" fill="none" stroke="#CDCCCC" stroke-width="0.5" width="2.5" height="2.5"/>
			<rect x="351.4" y="150" fill="none" stroke="#CDCCCC" stroke-width="0.5" width="2.5" height="2.5"/>
			<rect x="351.4" y="156.8" fill="none" stroke="#CDCCCC" stroke-width="0.5" width="2.5" height="2.5"/>
			<rect x="351.4" y="163.4" fill="none" stroke="#CDCCCC" stroke-width="0.5" width="2.5" height="2.5"/>
		</g>
		<g>
			<rect x="358.4" y="136.6" fill="none" stroke="#CDCCCC" stroke-width="0.5" width="2.5" height="2.5"/>
			<rect x="358.4" y="143.4" fill="none" stroke="#CDCCCC" stroke-width="0.5" width="2.5" height="2.5"/>
			<rect x="358.4" y="150" fill="none" stroke="#CDCCCC" stroke-width="0.5" width="2.5" height="2.5"/>
			<rect x="358.4" y="156.8" fill="none" stroke="#CDCCCC" stroke-width="0.5" width="2.5" height="2.5"/>
			<rect x="358.4" y="163.4" fill="none" stroke="#CDCCCC" stroke-width="0.5" width="2.5" height="2.5"/>
		</g>
		<g>
			<rect x="365.2" y="136.6" fill="none" stroke="#CDCCCC" stroke-width="0.5" width="2.5" height="2.5"/>
			<rect x="365.2" y="143.4" fill="none" stroke="#CDCCCC" stroke-width="0.5" width="2.5" height="2.5"/>
			<rect x="365.2" y="150" fill="none" stroke="#CDCCCC" stroke-width="0.5" width="2.5" height="2.5"/>
			<rect x="365.2" y="156.8" fill="none" stroke="#CDCCCC" stroke-width="0.5" width="2.5" height="2.5"/>
			<rect x="365.2" y="163.4" fill="none" stroke="#CDCCCC" stroke-width="0.5" width="2.5" height="2.5"/>
		</g>
		<g>
			<rect x="372" y="136.6" fill="none" stroke="#CDCCCC" stroke-width="0.5" width="2.5" height="2.5"/>
			<rect x="372" y="143.4" fill="none" stroke="#CDCCCC" stroke-width="0.5" width="2.5" height="2.5"/>
			<rect x="372" y="150" fill="none" stroke="#CDCCCC" stroke-width="0.5" width="2.5" height="2.5"/>
			<rect x="372" y="156.8" fill="none" stroke="#CDCCCC" stroke-width="0.5" width="2.5" height="2.5"/>
			<rect x="372" y="163.4" fill="none" stroke="#CDCCCC" stroke-width="0.5" width="2.5" height="2.5"/>
		</g>
		<g>
			<rect x="378.8" y="136.6" fill="none" stroke="#CDCCCC" stroke-width="0.5" width="2.5" height="2.5"/>
			<rect x="378.8" y="143.4" fill="none" stroke="#CDCCCC" stroke-width="0.5" width="2.5" height="2.5"/>
			<rect x="378.8" y="150" fill="none" stroke="#CDCCCC" stroke-width="0.5" width="2.5" height="2.5"/>
			<rect x="378.8" y="156.8" fill="none" stroke="#CDCCCC" stroke-width="0.5" width="2.5" height="2.5"/>
			<rect x="378.8" y="163.4" fill="none" stroke="#CDCCCC" stroke-width="0.5" width="2.5" height="2.5"/>
		</g>
		<g>
			<rect x="385.6" y="136.6" fill="none" stroke="#CDCCCC" stroke-width="0.5" width="2.5" height="2.5"/>
			<rect x="385.6" y="143.4" fill="none" stroke="#CDCCCC" stroke-width="0.5" width="2.5" height="2.5"/>
			<rect x="385.6" y="150" fill="none" stroke="#CDCCCC" stroke-width="0.5" width="2.5" height="2.5"/>
			<rect x="385.6" y="156.8" fill="none" stroke="#CDCCCC" stroke-width="0.5" width="2.5" height="2.5"/>
			<rect x="385.6" y="163.4" fill="none" stroke="#CDCCCC" stroke-width="0.5" width="2.5" height="2.5"/>
		</g>
		<g>
			<rect x="392.4" y="136.6" fill="none" stroke="#CDCCCC" stroke-width="0.5" width="2.5" height="2.5"/>
			<rect x="392.4" y="143.4" fill="none" stroke="#CDCCCC" stroke-width="0.5" width="2.5" height="2.5"/>
			<rect x="392.4" y="150" fill="none" stroke="#CDCCCC" stroke-width="0.5" width="2.5" height="2.5"/>
			<rect x="392.4" y="156.8" fill="none" stroke="#CDCCCC" stroke-width="0.5" width="2.5" height="2.5"/>
			<rect x="392.4" y="163.4" fill="none" stroke="#CDCCCC" stroke-width="0.5" width="2.5" height="2.5"/>
		</g>
		<g>
			<rect x="399.2" y="136.6" fill="none" stroke="#CDCCCC" stroke-width="0.5" width="2.5" height="2.5"/>
			<rect x="399.2" y="143.4" fill="none" stroke="#CDCCCC" stroke-width="0.5" width="2.5" height="2.5"/>
			<rect x="399.2" y="150" fill="none" stroke="#CDCCCC" stroke-width="0.5" width="2.5" height="2.5"/>
			<rect x="399.2" y="156.8" fill="none" stroke="#CDCCCC" stroke-width="0.5" width="2.5" height="2.5"/>
			<rect x="399.2" y="163.4" fill="none" stroke="#CDCCCC" stroke-width="0.5" width="2.5" height="2.5"/>
		</g>
		<rect x="406" y="136.6" fill="none" stroke="#CDCCCC" stroke-width="0.5" width="2.5" height="2.5"/>
		<rect x="406" y="143.4" fill="none" stroke="#CDCCCC" stroke-width="0.5" width="2.5" height="2.5"/>
		<rect x="406" y="150" fill="none" stroke="#CDCCCC" stroke-width="0.5" width="2.5" height="2.5"/>
		<rect x="406" y="156.8" fill="none" stroke="#CDCCCC" stroke-width="0.5" width="2.5" height="2.5"/>
		<rect x="406" y="163.4" fill="none" stroke="#CDCCCC" stroke-width="0.5" width="2.5" height="2.5"/>
		<rect x="412.8" y="136.6" fill="none" stroke="#CDCCCC" stroke-width="0.5" width="2.5" height="2.5"/>
		<rect x="412.8" y="143.4" fill="none" stroke="#CDCCCC" stroke-width="0.5" width="2.5" height="2.5"/>
		<rect x="412.8" y="150" fill="none" stroke="#CDCCCC" stroke-width="0.5" width="2.5" height="2.5"/>
		<rect x="412.8" y="156.8" fill="none" stroke="#CDCCCC" stroke-width="0.5" width="2.5" height="2.5"/>
		<rect x="412.8" y="163.4" fill="none" stroke="#CDCCCC" stroke-width="0.5" width="2.5" height="2.5"/>
		<rect x="419.5" y="136.6" fill="none" stroke="#CDCCCC" stroke-width="0.5" width="2.5" height="2.5"/>
		<rect x="419.5" y="143.4" fill="none" stroke="#CDCCCC" stroke-width="0.5" width="2.5" height="2.5"/>
		<rect x="419.5" y="150" fill="none" stroke="#CDCCCC" stroke-width="0.5" width="2.5" height="2.5"/>
		<rect x="419.5" y="156.8" fill="none" stroke="#CDCCCC" stroke-width="0.5" width="2.5" height="2.5"/>
		<rect x="419.5" y="163.4" fill="none" stroke="#CDCCCC" stroke-width="0.5" width="2.5" height="2.5"/>
		<rect x="426.3" y="136.6" fill="none" stroke="#CDCCCC" stroke-width="0.5" width="2.5" height="2.5"/>
		<rect x="426.3" y="143.4" fill="none" stroke="#CDCCCC" stroke-width="0.5" width="2.5" height="2.5"/>
		<rect x="426.3" y="150" fill="none" stroke="#CDCCCC" stroke-width="0.5" width="2.5" height="2.5"/>
		<rect x="426.3" y="156.8" fill="none" stroke="#CDCCCC" stroke-width="0.5" width="2.5" height="2.5"/>
		<rect x="426.3" y="163.4" fill="none" stroke="#CDCCCC" stroke-width="0.5" width="2.5" height="2.5"/>
		<rect x="433.1" y="136.6" fill="none" stroke="#CDCCCC" stroke-width="0.5" width="2.5" height="2.5"/>
		<rect x="433.1" y="143.4" fill="none" stroke="#CDCCCC" stroke-width="0.5" width="2.5" height="2.5"/>
		<rect x="433.1" y="150" fill="none" stroke="#CDCCCC" stroke-width="0.5" width="2.5" height="2.5"/>
		<rect x="433.1" y="156.8" fill="none" stroke="#CDCCCC" stroke-width="0.5" width="2.5" height="2.5"/>
		<rect x="433.1" y="163.4" fill="none" stroke="#CDCCCC" stroke-width="0.5" width="2.5" height="2.5"/>
		<rect x="440.1" y="136.6" fill="none" stroke="#CDCCCC" stroke-width="0.5" width="2.5" height="2.5"/>
		<rect x="440.1" y="143.4" fill="none" stroke="#CDCCCC" stroke-width="0.5" width="2.5" height="2.5"/>
		<rect x="440.1" y="150" fill="none" stroke="#CDCCCC" stroke-width="0.5" width="2.5" height="2.5"/>
		<rect x="440.1" y="156.8" fill="none" stroke="#CDCCCC" stroke-width="0.5" width="2.5" height="2.5"/>
		<rect x="440.1" y="163.4" fill="none" stroke="#CDCCCC" stroke-width="0.5" width="2.5" height="2.5"/>
		<rect x="446.7" y="136.6" fill="none" stroke="#CDCCCC" stroke-width="0.5" width="2.5" height="2.5"/>
		<rect x="446.7" y="143.4" fill="none" stroke="#CDCCCC" stroke-width="0.5" width="2.5" height="2.5"/>
		<rect x="446.7" y="150" fill="none" stroke="#CDCCCC" stroke-width="0.5" width="2.5" height="2.5"/>
		<rect x="446.7" y="156.8" fill="none" stroke="#CDCCCC" stroke-width="0.5" width="2.5" height="2.5"/>
		<rect x="446.7" y="163.4" fill="none" stroke="#CDCCCC" stroke-width="0.5" width="2.5" height="2.5"/>
		<g>
			<rect x="269.9" y="136.6" fill="none" stroke="#CDCCCC" stroke-width="0.5" width="2.5" height="2.5"/>
			<rect x="269.9" y="143.4" fill="none" stroke="#CDCCCC" stroke-width="0.5" width="2.5" height="2.5"/>
			<rect x="269.9" y="150" fill="none" stroke="#CDCCCC" stroke-width="0.5" width="2.5" height="2.5"/>
			<rect x="269.9" y="156.8" fill="none" stroke="#CDCCCC" stroke-width="0.5" width="2.5" height="2.5"/>
			<rect x="269.9" y="163.4" fill="none" stroke="#CDCCCC" stroke-width="0.5" width="2.5" height="2.5"/>
		</g>
		<g>
			<rect x="276.7" y="136.6" fill="none" stroke="#CDCCCC" stroke-width="0.5" width="2.5" height="2.5"/>
			<rect x="276.7" y="143.4" fill="none" stroke="#CDCCCC" stroke-width="0.5" width="2.5" height="2.5"/>
			<rect x="276.7" y="150" fill="none" stroke="#CDCCCC" stroke-width="0.5" width="2.5" height="2.5"/>
			<rect x="276.7" y="156.8" fill="none" stroke="#CDCCCC" stroke-width="0.5" width="2.5" height="2.5"/>
			<rect x="276.7" y="163.4" fill="none" stroke="#CDCCCC" stroke-width="0.5" width="2.5" height="2.5"/>
		</g>
		<g>
			<rect x="283.5" y="136.6" fill="none" stroke="#CDCCCC" stroke-width="0.5" width="2.5" height="2.5"/>
			<rect x="283.5" y="143.4" fill="none" stroke="#CDCCCC" stroke-width="0.5" width="2.5" height="2.5"/>
			<rect x="283.5" y="150" fill="none" stroke="#CDCCCC" stroke-width="0.5" width="2.5" height="2.5"/>
			<rect x="283.5" y="156.8" fill="none" stroke="#CDCCCC" stroke-width="0.5" width="2.5" height="2.5"/>
			<rect x="283.5" y="163.4" fill="none" stroke="#CDCCCC" stroke-width="0.5" width="2.5" height="2.5"/>
		</g>
		<g>
			<rect x="290.3" y="136.6" fill="none" stroke="#CDCCCC" stroke-width="0.5" width="2.5" height="2.5"/>
			<rect x="290.3" y="143.4" fill="none" stroke="#CDCCCC" stroke-width="0.5" width="2.5" height="2.5"/>
			<rect x="290.3" y="150" fill="none" stroke="#CDCCCC" stroke-width="0.5" width="2.5" height="2.5"/>
			<rect x="290.3" y="156.8" fill="none" stroke="#CDCCCC" stroke-width="0.5" width="2.5" height="2.5"/>
			<rect x="290.3" y="163.4" fill="none" stroke="#CDCCCC" stroke-width="0.5" width="2.5" height="2.5"/>
		</g>
		<g>
			<rect x="249.6" y="136.6" fill="none" stroke="#CDCCCC" stroke-width="0.5" width="2.5" height="2.5"/>
			<rect x="249.6" y="143.4" fill="none" stroke="#CDCCCC" stroke-width="0.5" width="2.5" height="2.5"/>
			<rect x="249.6" y="150" fill="none" stroke="#CDCCCC" stroke-width="0.5" width="2.5" height="2.5"/>
			<rect x="249.6" y="156.8" fill="none" stroke="#CDCCCC" stroke-width="0.5" width="2.5" height="2.5"/>
			<rect x="249.6" y="163.4" fill="none" stroke="#CDCCCC" stroke-width="0.5" width="2.5" height="2.5"/>
		</g>
		<g>
			<rect x="256.4" y="136.6" fill="none" stroke="#CDCCCC" stroke-width="0.5" width="2.5" height="2.5"/>
			<rect x="256.4" y="143.4" fill="none" stroke="#CDCCCC" stroke-width="0.5" width="2.5" height="2.5"/>
			<rect x="256.4" y="150" fill="none" stroke="#CDCCCC" stroke-width="0.5" width="2.5" height="2.5"/>
			<rect x="256.4" y="156.8" fill="none" stroke="#CDCCCC" stroke-width="0.5" width="2.5" height="2.5"/>
			<rect x="256.4" y="163.4" fill="none" stroke="#CDCCCC" stroke-width="0.5" width="2.5" height="2.5"/>
		</g>
		<g>
			<rect x="263.2" y="136.6" fill="none" stroke="#CDCCCC" stroke-width="0.5" width="2.5" height="2.5"/>
			<rect x="263.2" y="143.4" fill="none" stroke="#CDCCCC" stroke-width="0.5" width="2.5" height="2.5"/>
			<rect x="263.2" y="150" fill="none" stroke="#CDCCCC" stroke-width="0.5" width="2.5" height="2.5"/>
			<rect x="263.2" y="156.8" fill="none" stroke="#CDCCCC" stroke-width="0.5" width="2.5" height="2.5"/>
			<rect x="263.2" y="163.4" fill="none" stroke="#CDCCCC" stroke-width="0.5" width="2.5" height="2.5"/>
		</g>
	</g>
	<g>
		<g>
			<g>
				<rect x="276.2" y="63.5" fill="none" stroke="#CDCCCC" stroke-width="0.5" width="2.5" height="2.5"/>
				<rect x="269.6" y="63.5" fill="none" stroke="#CDCCCC" stroke-width="0.5" width="2.5" height="2.5"/>
				<rect x="262.8" y="63.5" fill="none" stroke="#CDCCCC" stroke-width="0.5" width="2.5" height="2.5"/>
				<rect x="256.2" y="63.5" fill="none" stroke="#CDCCCC" stroke-width="0.5" width="2.5" height="2.5"/>
				<rect x="249.6" y="63.5" fill="none" stroke="#CDCCCC" stroke-width="0.5" width="2.5" height="2.5"/>
			</g>
			<g>
				<rect x="249.6" y="70.1" fill="none" stroke="#CDCCCC" stroke-width="0.5" width="2.5" height="2.5"/>
				<rect x="256.2" y="70.1" fill="none" stroke="#CDCCCC" stroke-width="0.5" width="2.5" height="2.5"/>
				<rect x="262.8" y="70.1" fill="none" stroke="#CDCCCC" stroke-width="0.5" width="2.5" height="2.5"/>
				<rect x="269.6" y="70.1" fill="none" stroke="#CDCCCC" stroke-width="0.5" width="2.5" height="2.5"/>
				<rect x="276.2" y="70.1" fill="none" stroke="#CDCCCC" stroke-width="0.5" width="2.5" height="2.5"/>
			</g>
		</g>
		<g>
			<g>
				<rect x="316.9" y="63.5" fill="none" stroke="#CDCCCC" stroke-width="0.5" width="2.5" height="2.5"/>
				<rect x="310.3" y="63.5" fill="none" stroke="#CDCCCC" stroke-width="0.5" width="2.5" height="2.5"/>
				<rect x="303.7" y="63.5" fill="none" stroke="#CDCCCC" stroke-width="0.5" width="2.5" height="2.5"/>
				<rect x="296.9" y="63.5" fill="none" stroke="#CDCCCC" stroke-width="0.5" width="2.5" height="2.5"/>
				<rect x="290.3" y="63.5" fill="none" stroke="#CDCCCC" stroke-width="0.5" width="2.5" height="2.5"/>
			</g>
			<g>
				<rect x="290.3" y="70.1" fill="none" stroke="#CDCCCC" stroke-width="0.5" width="2.5" height="2.5"/>
				<rect x="296.9" y="70.1" fill="none" stroke="#CDCCCC" stroke-width="0.5" width="2.5" height="2.5"/>
				<rect x="303.7" y="70.1" fill="none" stroke="#CDCCCC" stroke-width="0.5" width="2.5" height="2.5"/>
				<rect x="310.3" y="70.1" fill="none" stroke="#CDCCCC" stroke-width="0.5" width="2.5" height="2.5"/>
				<rect x="316.9" y="70.1" fill="none" stroke="#CDCCCC" stroke-width="0.5" width="2.5" height="2.5"/>
			</g>
		</g>
		<g>
			<g>
				<rect x="357.9" y="63.5" fill="none" stroke="#CDCCCC" stroke-width="0.5" width="2.5" height="2.5"/>
				<rect x="351.3" y="63.5" fill="none" stroke="#CDCCCC" stroke-width="0.5" width="2.5" height="2.5"/>
				<rect x="344.5" y="63.5" fill="none" stroke="#CDCCCC" stroke-width="0.5" width="2.5" height="2.5"/>
				<rect x="337.9" y="63.5" fill="none" stroke="#CDCCCC" stroke-width="0.5" width="2.5" height="2.5"/>
				<rect x="331.1" y="63.5" fill="none" stroke="#CDCCCC" stroke-width="0.5" width="2.5" height="2.5"/>
			</g>
			<g>
				<rect x="331.1" y="70.1" fill="none" stroke="#CDCCCC" stroke-width="0.5" width="2.5" height="2.5"/>
				<rect x="337.9" y="70.1" fill="none" stroke="#CDCCCC" stroke-width="0.5" width="2.5" height="2.5"/>
				<rect x="344.5" y="70.1" fill="none" stroke="#CDCCCC" stroke-width="0.5" width="2.5" height="2.5"/>
				<rect x="351.3" y="70.1" fill="none" stroke="#CDCCCC" stroke-width="0.5" width="2.5" height="2.5"/>
				<rect x="357.9" y="70.1" fill="none" stroke="#CDCCCC" stroke-width="0.5" width="2.5" height="2.5"/>
			</g>
		</g>
		<g>
			<g>
				<rect x="398.6" y="63.5" fill="none" stroke="#CDCCCC" stroke-width="0.5" width="2.5" height="2.5"/>
				<rect x="392" y="63.5" fill="none" stroke="#CDCCCC" stroke-width="0.5" width="2.5" height="2.5"/>
				<rect x="385.4" y="63.5" fill="none" stroke="#CDCCCC" stroke-width="0.5" width="2.5" height="2.5"/>
				<rect x="378.6" y="63.5" fill="none" stroke="#CDCCCC" stroke-width="0.5" width="2.5" height="2.5"/>
				<rect x="372" y="63.5" fill="none" stroke="#CDCCCC" stroke-width="0.5" width="2.5" height="2.5"/>
			</g>
			<g>
				<rect x="372" y="70.1" fill="none" stroke="#CDCCCC" stroke-width="0.5" width="2.5" height="2.5"/>
				<rect x="378.6" y="70.1" fill="none" stroke="#CDCCCC" stroke-width="0.5" width="2.5" height="2.5"/>
				<rect x="385.4" y="70.1" fill="none" stroke="#CDCCCC" stroke-width="0.5" width="2.5" height="2.5"/>
				<rect x="392" y="70.1" fill="none" stroke="#CDCCCC" stroke-width="0.5" width="2.5" height="2.5"/>
				<rect x="398.6" y="70.1" fill="none" stroke="#CDCCCC" stroke-width="0.5" width="2.5" height="2.5"/>
			</g>
		</g>
		<g>
			<g>
				<rect x="439.4" y="63.5" fill="none" stroke="#CDCCCC" stroke-width="0.5" width="2.5" height="2.5"/>
				<rect x="432.7" y="63.5" fill="none" stroke="#CDCCCC" stroke-width="0.5" width="2.5" height="2.5"/>
				<rect x="426.1" y="63.5" fill="none" stroke="#CDCCCC" stroke-width="0.5" width="2.5" height="2.5"/>
				<rect x="419.4" y="63.5" fill="none" stroke="#CDCCCC" stroke-width="0.5" width="2.5" height="2.5"/>
				<rect x="412.8" y="63.5" fill="none" stroke="#CDCCCC" stroke-width="0.5" width="2.5" height="2.5"/>
			</g>
			<g>
				<rect x="412.8" y="70.1" fill="none" stroke="#CDCCCC" stroke-width="0.5" width="2.5" height="2.5"/>
				<rect x="419.4" y="70.1" fill="none" stroke="#CDCCCC" stroke-width="0.5" width="2.5" height="2.5"/>
				<rect x="426.1" y="70.1" fill="none" stroke="#CDCCCC" stroke-width="0.5" width="2.5" height="2.5"/>
				<rect x="432.7" y="70.1" fill="none" stroke="#CDCCCC" stroke-width="0.5" width="2.5" height="2.5"/>
				<rect x="439.4" y="70.1" fill="none" stroke="#CDCCCC" stroke-width="0.5" width="2.5" height="2.5"/>
			</g>
		</g>
	</g>
	<g>
		<g>
			<g>
				<rect x="276.2" y="184.9" fill="none" stroke="#CDCCCC" stroke-width="0.5" width="2.5" height="2.5"/>
				<rect x="269.6" y="184.9" fill="none" stroke="#CDCCCC" stroke-width="0.5" width="2.5" height="2.5"/>
				<rect x="262.8" y="184.9" fill="none" stroke="#CDCCCC" stroke-width="0.5" width="2.5" height="2.5"/>
				<rect x="256.2" y="184.9" fill="none" stroke="#CDCCCC" stroke-width="0.5" width="2.5" height="2.5"/>
				<rect x="249.6" y="184.9" fill="none" stroke="#CDCCCC" stroke-width="0.5" width="2.5" height="2.5"/>
			</g>
			<g>
				<rect x="249.6" y="191.7" fill="none" stroke="#CDCCCC" stroke-width="0.5" width="2.5" height="2.5"/>
				<rect x="256.2" y="191.7" fill="none" stroke="#CDCCCC" stroke-width="0.5" width="2.5" height="2.5"/>
				<rect x="262.8" y="191.7" fill="none" stroke="#CDCCCC" stroke-width="0.5" width="2.5" height="2.5"/>
				<rect x="269.6" y="191.7" fill="none" stroke="#CDCCCC" stroke-width="0.5" width="2.5" height="2.5"/>
				<rect x="276.2" y="191.7" fill="none" stroke="#CDCCCC" stroke-width="0.5" width="2.5" height="2.5"/>
			</g>
		</g>
		<g>
			<g>
				<rect x="316.9" y="184.9" fill="none" stroke="#CDCCCC" stroke-width="0.5" width="2.5" height="2.5"/>
				<rect x="310.3" y="184.9" fill="none" stroke="#CDCCCC" stroke-width="0.5" width="2.5" height="2.5"/>
				<rect x="303.7" y="184.9" fill="none" stroke="#CDCCCC" stroke-width="0.5" width="2.5" height="2.5"/>
				<rect x="296.9" y="184.9" fill="none" stroke="#CDCCCC" stroke-width="0.5" width="2.5" height="2.5"/>
				<rect x="290.3" y="184.9" fill="none" stroke="#CDCCCC" stroke-width="0.5" width="2.5" height="2.5"/>
			</g>
			<g>
				<rect x="290.3" y="191.7" fill="none" stroke="#CDCCCC" stroke-width="0.5" width="2.5" height="2.5"/>
				<rect x="296.9" y="191.7" fill="none" stroke="#CDCCCC" stroke-width="0.5" width="2.5" height="2.5"/>
				<rect x="303.7" y="191.7" fill="none" stroke="#CDCCCC" stroke-width="0.5" width="2.5" height="2.5"/>
				<rect x="310.3" y="191.7" fill="none" stroke="#CDCCCC" stroke-width="0.5" width="2.5" height="2.5"/>
				<rect x="316.9" y="191.7" fill="none" stroke="#CDCCCC" stroke-width="0.5" width="2.5" height="2.5"/>
			</g>
		</g>
		<g>
			<g>
				<rect x="357.9" y="184.9" fill="none" stroke="#CDCCCC" stroke-width="0.5" width="2.5" height="2.5"/>
				<rect x="351.3" y="184.9" fill="none" stroke="#CDCCCC" stroke-width="0.5" width="2.5" height="2.5"/>
				<rect x="344.5" y="184.9" fill="none" stroke="#CDCCCC" stroke-width="0.5" width="2.5" height="2.5"/>
				<rect x="337.9" y="184.9" fill="none" stroke="#CDCCCC" stroke-width="0.5" width="2.5" height="2.5"/>
				<rect x="331.1" y="184.9" fill="none" stroke="#CDCCCC" stroke-width="0.5" width="2.5" height="2.5"/>
			</g>
			<g>
				<rect x="331.1" y="191.7" fill="none" stroke="#CDCCCC" stroke-width="0.5" width="2.5" height="2.5"/>
				<rect x="337.9" y="191.7" fill="none" stroke="#CDCCCC" stroke-width="0.5" width="2.5" height="2.5"/>
				<rect x="344.5" y="191.7" fill="none" stroke="#CDCCCC" stroke-width="0.5" width="2.5" height="2.5"/>
				<rect x="351.3" y="191.7" fill="none" stroke="#CDCCCC" stroke-width="0.5" width="2.5" height="2.5"/>
				<rect x="357.9" y="191.7" fill="none" stroke="#CDCCCC" stroke-width="0.5" width="2.5" height="2.5"/>
			</g>
		</g>
		<g>
			<g>
				<rect x="398.6" y="184.9" fill="none" stroke="#CDCCCC" stroke-width="0.5" width="2.5" height="2.5"/>
				<rect x="392" y="184.9" fill="none" stroke="#CDCCCC" stroke-width="0.5" width="2.5" height="2.5"/>
				<rect x="385.4" y="184.9" fill="none" stroke="#CDCCCC" stroke-width="0.5" width="2.5" height="2.5"/>
				<rect x="378.6" y="184.9" fill="none" stroke="#CDCCCC" stroke-width="0.5" width="2.5" height="2.5"/>
				<rect x="372" y="184.9" fill="none" stroke="#CDCCCC" stroke-width="0.5" width="2.5" height="2.5"/>
			</g>
			<g>
				<rect x="372" y="191.7" fill="none" stroke="#CDCCCC" stroke-width="0.5" width="2.5" height="2.5"/>
				<rect x="378.6" y="191.7" fill="none" stroke="#CDCCCC" stroke-width="0.5" width="2.5" height="2.5"/>
				<rect x="385.4" y="191.7" fill="none" stroke="#CDCCCC" stroke-width="0.5" width="2.5" height="2.5"/>
				<rect x="392" y="191.7" fill="none" stroke="#CDCCCC" stroke-width="0.5" width="2.5" height="2.5"/>
				<rect x="398.6" y="191.7" fill="none" stroke="#CDCCCC" stroke-width="0.5" width="2.5" height="2.5"/>
			</g>
		</g>
		<g>
			<g>
				<rect x="439.4" y="184.9" fill="none" stroke="#CDCCCC" stroke-width="0.5" width="2.5" height="2.5"/>
				<rect x="432.7" y="184.9" fill="none" stroke="#CDCCCC" stroke-width="0.5" width="2.5" height="2.5"/>
				<rect x="426.1" y="184.9" fill="none" stroke="#CDCCCC" stroke-width="0.5" width="2.5" height="2.5"/>
				<rect x="419.4" y="184.9" fill="none" stroke="#CDCCCC" stroke-width="0.5" width="2.5" height="2.5"/>
				<rect x="412.8" y="184.9" fill="none" stroke="#CDCCCC" stroke-width="0.5" width="2.5" height="2.5"/>
			</g>
			<g>
				<rect x="412.8" y="191.7" fill="none" stroke="#CDCCCC" stroke-width="0.5" width="2.5" height="2.5"/>
				<rect x="419.4" y="191.7" fill="none" stroke="#CDCCCC" stroke-width="0.5" width="2.5" height="2.5"/>
				<rect x="426.1" y="191.7" fill="none" stroke="#CDCCCC" stroke-width="0.5" width="2.5" height="2.5"/>
				<rect x="432.7" y="191.7" fill="none" stroke="#CDCCCC" stroke-width="0.5" width="2.5" height="2.5"/>
				<rect x="439.4" y="191.7" fill="none" stroke="#CDCCCC" stroke-width="0.5" width="2.5" height="2.5"/>
			</g>
		</g>
	</g>
	<rect x="234.7" y="56.5" fill="none" stroke="#CDCCCC" stroke-width="0.5" width="228.8" height="142.8"/>
</g>
<g>
	<line fill="none" stroke="#010101" x1="319.4" y1="111.4" x2="278.2" y2="134.2"/>
	<line fill="none" stroke="#010101" x1="339.6" y1="111.4" x2="298.6" y2="134.2"/>
	<path fill="#CDCCCC" d="M280.5,122.9h16.4c0,0,3.4,3.6,3.2,10.6c-0.2,7.2-3,10.4-3,10.4h-16.4c0,0-3.6-1.5-3.6-10.9
		S280.5,122.9,280.5,122.9z"/>
	<path fill="none" stroke="#7D8287" stroke-width="0.75" d="M295.4,133.8"/>
	<polyline fill="none" stroke="#010101" stroke-width="0.75" points="281.1,125.3 296.4,125.3 296.4,127.2 281.1,127.2 281.1,129.1 
		296.4,129.1 296.4,131 281.1,131 281.1,133.3 296.4,133.3 296.4,134.9 281.1,134.9 281.1,137 296.4,137 296.4,139.1 281.1,139.1 
		281.1,141 296.4,141 	"/>
	<path fill="#899196" d="M279,133.6c0,0.4-0.4,0.8-0.8,0.8c-0.4,0-0.8-0.4-0.8-0.8s0.4-0.8,0.8-0.8C278.8,132.9,279,133.3,279,133.6
		z"/>
	<circle fill="#899196" cx="298.6" cy="133.6" r="0.8"/>
</g>
<g>
	<line fill="none" stroke="#010101" stroke-width="0.9768" x1="400.5" y1="105.5" x2="379.4" y2="105.5"/>
	<line fill="none" stroke="#010101" stroke-width="0.9768" x1="339.2" y1="105.5" x2="358.8" y2="105.5"/>
	<rect x="358.6" y="102.7" fill="#CDCCCC" width="20.9" height="5.7"/>
	<rect x="360.5" y="102.5" fill="#818181" width="2.8" height="5.8"/>
	<rect x="364.6" y="102.5" fill="#010101" width="2.8" height="5.8"/>
	<rect x="368.6" y="102.5" fill="#4E4E4E" width="2.8" height="5.8"/>
	<rect x="374.3" y="102.5" fill="#B4B4B4" width="2.8" height="5.8"/>
</g>
<path fill="none" stroke="#010101" stroke-linecap="round" d="M400.3,91.9c0,0,13-2.5,18.9-22.4c3.8-12.6,4.5-30.7,4.5-30.7"/>
<path fill="none" stroke="#818181" stroke-linecap="round" d="M318.8,105.1c0,0-41.7-7.4-58.1-24.1c-16.4-17-7-42.1-7-42.1"/>
<path fill="none" stroke="#414141" stroke-linecap="round" d="M339.2,98.5c0,0-13.4-3.8-19.1-23.8c-3.8-12.6,6.8-35.8,6.8-35.8"/>
</svg>
