<?xml version="1.0" encoding="utf-8"?>
<!-- Generator: Adobe Illustrator 18.0.0, SVG Export Plug-In . SVG Version: 6.00 Build 0)  -->
<!DOCTYPE svg PUBLIC "-//W3C//DTD SVG 1.1//EN" "http://www.w3.org/Graphics/SVG/1.1/DTD/svg11.dtd">
<svg version="1.1" id="Layer_1" xmlns="http://www.w3.org/2000/svg" xmlns:xlink="http://www.w3.org/1999/xlink" x="0px" y="0px"
	 viewBox="0 0 687 220" enable-background="new 0 0 687 220" xml:space="preserve">
<g>
	<text transform="matrix(1 0 0 1 294.7222 24.419)" font-family="'TheSerif-HP5Plain'" font-size="10.312">Digital I/O Pin 4</text>
</g>
<g>
	<text transform="matrix(1 0 0 1 424.2707 24.419)" font-family="'TheSerif-HP5Plain'" font-size="10.312">Ground</text>
</g>
<g>
	<g>
		<g>
			<rect x="334.3" y="89.4" fill="none" stroke="#CCCCCC" stroke-width="0.5" width="2.9" height="2.9"/>
			<rect x="334.3" y="97.1" fill="none" stroke="#CCCCCC" stroke-width="0.5" width="2.9" height="2.9"/>
			<rect x="334.3" y="104.8" fill="none" stroke="#CCCCCC" stroke-width="0.5" width="2.9" height="2.9"/>
			<rect x="334.3" y="112.6" fill="none" stroke="#CCCCCC" stroke-width="0.5" width="2.9" height="2.9"/>
			<rect x="334.3" y="120.3" fill="none" stroke="#CCCCCC" stroke-width="0.5" width="2.9" height="2.9"/>
		</g>
		<g>
			<rect x="342.2" y="89.4" fill="none" stroke="#CCCCCC" stroke-width="0.5" width="2.9" height="2.9"/>
			<rect x="342.2" y="97.1" fill="none" stroke="#CCCCCC" stroke-width="0.5" width="2.9" height="2.9"/>
			<rect x="342.2" y="104.8" fill="none" stroke="#CCCCCC" stroke-width="0.5" width="2.9" height="2.9"/>
			<rect x="342.2" y="112.6" fill="none" stroke="#CCCCCC" stroke-width="0.5" width="2.9" height="2.9"/>
			<rect x="342.2" y="120.3" fill="none" stroke="#CCCCCC" stroke-width="0.5" width="2.9" height="2.9"/>
		</g>
		<g>
			<rect x="350.1" y="89.4" fill="none" stroke="#CCCCCC" stroke-width="0.5" width="2.9" height="2.9"/>
			<rect x="350.1" y="97.1" fill="none" stroke="#CCCCCC" stroke-width="0.5" width="2.9" height="2.9"/>
			<rect x="350.1" y="104.8" fill="none" stroke="#CCCCCC" stroke-width="0.5" width="2.9" height="2.9"/>
			<rect x="350.1" y="112.6" fill="none" stroke="#CCCCCC" stroke-width="0.5" width="2.9" height="2.9"/>
			<rect x="350.1" y="120.3" fill="none" stroke="#CCCCCC" stroke-width="0.5" width="2.9" height="2.9"/>
		</g>
		<g>
			<rect x="357.9" y="89.4" fill="none" stroke="#CCCCCC" stroke-width="0.5" width="2.9" height="2.9"/>
			<rect x="357.9" y="97.1" fill="none" stroke="#CCCCCC" stroke-width="0.5" width="2.9" height="2.9"/>
			<rect x="357.9" y="104.8" fill="none" stroke="#CCCCCC" stroke-width="0.5" width="2.9" height="2.9"/>
			<rect x="357.9" y="112.6" fill="none" stroke="#CCCCCC" stroke-width="0.5" width="2.9" height="2.9"/>
			<rect x="357.9" y="120.3" fill="none" stroke="#CCCCCC" stroke-width="0.5" width="2.9" height="2.9"/>
		</g>
		<g>
			<rect x="365.8" y="89.4" fill="none" stroke="#CCCCCC" stroke-width="0.5" width="2.9" height="2.9"/>
			<rect x="365.8" y="97.1" fill="none" stroke="#CCCCCC" stroke-width="0.5" width="2.9" height="2.9"/>
			<rect x="365.8" y="104.8" fill="none" stroke="#CCCCCC" stroke-width="0.5" width="2.9" height="2.9"/>
			<rect x="365.8" y="112.6" fill="none" stroke="#CCCCCC" stroke-width="0.5" width="2.9" height="2.9"/>
			<rect x="365.8" y="120.3" fill="none" stroke="#CCCCCC" stroke-width="0.5" width="2.9" height="2.9"/>
		</g>
		<g>
			<rect x="373.7" y="89.4" fill="none" stroke="#CCCCCC" stroke-width="0.5" width="2.9" height="2.9"/>
			<rect x="373.7" y="97.1" fill="none" stroke="#CCCCCC" stroke-width="0.5" width="2.9" height="2.9"/>
			<rect x="373.7" y="104.8" fill="none" stroke="#CCCCCC" stroke-width="0.5" width="2.9" height="2.9"/>
			<rect x="373.7" y="112.6" fill="none" stroke="#CCCCCC" stroke-width="0.5" width="2.9" height="2.9"/>
			<rect x="373.7" y="120.3" fill="none" stroke="#CCCCCC" stroke-width="0.5" width="2.9" height="2.9"/>
		</g>
		<g>
			<rect x="381.6" y="89.4" fill="none" stroke="#CCCCCC" stroke-width="0.5" width="2.9" height="2.9"/>
			<rect x="381.6" y="97.1" fill="none" stroke="#CCCCCC" stroke-width="0.5" width="2.9" height="2.9"/>
			<rect x="381.6" y="104.8" fill="none" stroke="#CCCCCC" stroke-width="0.5" width="2.9" height="2.9"/>
			<rect x="381.6" y="112.6" fill="none" stroke="#CCCCCC" stroke-width="0.5" width="2.9" height="2.9"/>
			<rect x="381.6" y="120.3" fill="none" stroke="#CCCCCC" stroke-width="0.5" width="2.9" height="2.9"/>
		</g>
		<g>
			<rect x="389.5" y="89.4" fill="none" stroke="#CCCCCC" stroke-width="0.5" width="2.9" height="2.9"/>
			<rect x="389.5" y="97.1" fill="none" stroke="#CCCCCC" stroke-width="0.5" width="2.9" height="2.9"/>
			<rect x="389.5" y="104.8" fill="none" stroke="#CCCCCC" stroke-width="0.5" width="2.9" height="2.9"/>
			<rect x="389.5" y="112.6" fill="none" stroke="#CCCCCC" stroke-width="0.5" width="2.9" height="2.9"/>
			<rect x="389.5" y="120.3" fill="none" stroke="#CCCCCC" stroke-width="0.5" width="2.9" height="2.9"/>
		</g>
		<g>
			<rect x="397.4" y="89.4" fill="none" stroke="#CCCCCC" stroke-width="0.5" width="2.9" height="2.9"/>
			<rect x="397.4" y="97.1" fill="none" stroke="#CCCCCC" stroke-width="0.5" width="2.9" height="2.9"/>
			<rect x="397.4" y="104.8" fill="none" stroke="#CCCCCC" stroke-width="0.5" width="2.9" height="2.9"/>
			<rect x="397.4" y="112.6" fill="none" stroke="#CCCCCC" stroke-width="0.5" width="2.9" height="2.9"/>
			<rect x="397.4" y="120.3" fill="none" stroke="#CCCCCC" stroke-width="0.5" width="2.9" height="2.9"/>
		</g>
		<g>
			<rect x="405.2" y="89.4" fill="none" stroke="#CCCCCC" stroke-width="0.5" width="2.9" height="2.9"/>
			<rect x="405.2" y="97.1" fill="none" stroke="#CCCCCC" stroke-width="0.5" width="2.9" height="2.9"/>
			<rect x="405.2" y="104.8" fill="none" stroke="#CCCCCC" stroke-width="0.5" width="2.9" height="2.9"/>
			<rect x="405.2" y="112.6" fill="none" stroke="#CCCCCC" stroke-width="0.5" width="2.9" height="2.9"/>
			<rect x="405.2" y="120.3" fill="none" stroke="#CCCCCC" stroke-width="0.5" width="2.9" height="2.9"/>
		</g>
		<g>
			<rect x="413.1" y="89.4" fill="none" stroke="#CCCCCC" stroke-width="0.5" width="2.9" height="2.9"/>
			<rect x="413.1" y="97.1" fill="none" stroke="#CCCCCC" stroke-width="0.5" width="2.9" height="2.9"/>
			<rect x="413.1" y="104.8" fill="none" stroke="#CCCCCC" stroke-width="0.5" width="2.9" height="2.9"/>
			<rect x="413.1" y="112.6" fill="none" stroke="#CCCCCC" stroke-width="0.5" width="2.9" height="2.9"/>
			<rect x="413.1" y="120.3" fill="none" stroke="#CCCCCC" stroke-width="0.5" width="2.9" height="2.9"/>
		</g>
		<g>
			<rect x="421" y="89.4" fill="none" stroke="#CCCCCC" stroke-width="0.5" width="2.9" height="2.9"/>
			<rect x="421" y="97.1" fill="none" stroke="#CCCCCC" stroke-width="0.5" width="2.9" height="2.9"/>
			<rect x="421" y="104.8" fill="none" stroke="#CCCCCC" stroke-width="0.5" width="2.9" height="2.9"/>
			<rect x="421" y="112.6" fill="none" stroke="#CCCCCC" stroke-width="0.5" width="2.9" height="2.9"/>
			<rect x="421" y="120.3" fill="none" stroke="#CCCCCC" stroke-width="0.5" width="2.9" height="2.9"/>
		</g>
		<g>
			<rect x="428.9" y="89.4" fill="none" stroke="#CCCCCC" stroke-width="0.5" width="2.9" height="2.9"/>
			<rect x="428.9" y="97.1" fill="none" stroke="#CCCCCC" stroke-width="0.5" width="2.9" height="2.9"/>
			<rect x="428.9" y="104.8" fill="none" stroke="#CCCCCC" stroke-width="0.5" width="2.9" height="2.9"/>
			<rect x="428.9" y="112.6" fill="none" stroke="#CCCCCC" stroke-width="0.5" width="2.9" height="2.9"/>
			<rect x="428.9" y="120.3" fill="none" stroke="#CCCCCC" stroke-width="0.5" width="2.9" height="2.9"/>
		</g>
		<g>
			<rect x="436.8" y="89.4" fill="none" stroke="#CCCCCC" stroke-width="0.5" width="2.9" height="2.9"/>
			<rect x="436.8" y="97.1" fill="none" stroke="#CCCCCC" stroke-width="0.5" width="2.9" height="2.9"/>
			<rect x="436.8" y="104.8" fill="none" stroke="#CCCCCC" stroke-width="0.5" width="2.9" height="2.9"/>
			<rect x="436.8" y="112.6" fill="none" stroke="#CCCCCC" stroke-width="0.5" width="2.9" height="2.9"/>
			<rect x="436.8" y="120.3" fill="none" stroke="#CCCCCC" stroke-width="0.5" width="2.9" height="2.9"/>
		</g>
		<g>
			<rect x="444.7" y="89.4" fill="none" stroke="#CCCCCC" stroke-width="0.5" width="2.9" height="2.9"/>
			<rect x="444.7" y="97.1" fill="none" stroke="#CCCCCC" stroke-width="0.5" width="2.9" height="2.9"/>
			<rect x="444.7" y="104.8" fill="none" stroke="#CCCCCC" stroke-width="0.5" width="2.9" height="2.9"/>
			<rect x="444.7" y="112.6" fill="none" stroke="#CCCCCC" stroke-width="0.5" width="2.9" height="2.9"/>
			<rect x="444.7" y="120.3" fill="none" stroke="#CCCCCC" stroke-width="0.5" width="2.9" height="2.9"/>
		</g>
		<g>
			<rect x="452.5" y="89.4" fill="none" stroke="#CCCCCC" stroke-width="0.5" width="2.9" height="2.9"/>
			<rect x="452.5" y="97.1" fill="none" stroke="#CCCCCC" stroke-width="0.5" width="2.9" height="2.9"/>
			<rect x="452.5" y="104.8" fill="none" stroke="#CCCCCC" stroke-width="0.5" width="2.9" height="2.9"/>
			<rect x="452.5" y="112.6" fill="none" stroke="#CCCCCC" stroke-width="0.5" width="2.9" height="2.9"/>
			<rect x="452.5" y="120.3" fill="none" stroke="#CCCCCC" stroke-width="0.5" width="2.9" height="2.9"/>
		</g>
		<g>
			<rect x="460.4" y="89.4" fill="none" stroke="#CCCCCC" stroke-width="0.5" width="2.9" height="2.9"/>
			<rect x="460.4" y="97.1" fill="none" stroke="#CCCCCC" stroke-width="0.5" width="2.9" height="2.9"/>
			<rect x="460.4" y="104.8" fill="none" stroke="#CCCCCC" stroke-width="0.5" width="2.9" height="2.9"/>
			<rect x="460.4" y="112.6" fill="none" stroke="#CCCCCC" stroke-width="0.5" width="2.9" height="2.9"/>
			<rect x="460.4" y="120.3" fill="none" stroke="#CCCCCC" stroke-width="0.5" width="2.9" height="2.9"/>
		</g>
		<g>
			<rect x="468.3" y="89.4" fill="none" stroke="#CCCCCC" stroke-width="0.5" width="2.9" height="2.9"/>
			<rect x="468.3" y="97.1" fill="none" stroke="#CCCCCC" stroke-width="0.5" width="2.9" height="2.9"/>
			<rect x="468.3" y="104.8" fill="none" stroke="#CCCCCC" stroke-width="0.5" width="2.9" height="2.9"/>
			<rect x="468.3" y="112.6" fill="none" stroke="#CCCCCC" stroke-width="0.5" width="2.9" height="2.9"/>
			<rect x="468.3" y="120.3" fill="none" stroke="#CCCCCC" stroke-width="0.5" width="2.9" height="2.9"/>
		</g>
		<g>
			<rect x="476.2" y="89.4" fill="none" stroke="#CCCCCC" stroke-width="0.5" width="2.9" height="2.9"/>
			<rect x="476.2" y="97.1" fill="none" stroke="#CCCCCC" stroke-width="0.5" width="2.9" height="2.9"/>
			<rect x="476.2" y="104.8" fill="none" stroke="#CCCCCC" stroke-width="0.5" width="2.9" height="2.9"/>
			<rect x="476.2" y="112.6" fill="none" stroke="#CCCCCC" stroke-width="0.5" width="2.9" height="2.9"/>
			<rect x="476.2" y="120.3" fill="none" stroke="#CCCCCC" stroke-width="0.5" width="2.9" height="2.9"/>
		</g>
		<g>
			<rect x="484.1" y="89.4" fill="none" stroke="#CCCCCC" stroke-width="0.5" width="2.9" height="2.9"/>
			<rect x="484.1" y="97.1" fill="none" stroke="#CCCCCC" stroke-width="0.5" width="2.9" height="2.9"/>
			<rect x="484.1" y="104.8" fill="none" stroke="#CCCCCC" stroke-width="0.5" width="2.9" height="2.9"/>
			<rect x="484.1" y="112.6" fill="none" stroke="#CCCCCC" stroke-width="0.5" width="2.9" height="2.9"/>
			<rect x="484.1" y="120.3" fill="none" stroke="#CCCCCC" stroke-width="0.5" width="2.9" height="2.9"/>
		</g>
		<g>
			<rect x="492" y="89.4" fill="none" stroke="#CCCCCC" stroke-width="0.5" width="2.9" height="2.9"/>
			<rect x="492" y="97.1" fill="none" stroke="#CCCCCC" stroke-width="0.5" width="2.9" height="2.9"/>
			<rect x="492" y="104.8" fill="none" stroke="#CCCCCC" stroke-width="0.5" width="2.9" height="2.9"/>
			<rect x="492" y="112.6" fill="none" stroke="#CCCCCC" stroke-width="0.5" width="2.9" height="2.9"/>
			<rect x="492" y="120.3" fill="none" stroke="#CCCCCC" stroke-width="0.5" width="2.9" height="2.9"/>
		</g>
		<g>
			<rect x="499.8" y="89.4" fill="none" stroke="#CCCCCC" stroke-width="0.5" width="2.9" height="2.9"/>
			<rect x="499.8" y="97.1" fill="none" stroke="#CCCCCC" stroke-width="0.5" width="2.9" height="2.9"/>
			<rect x="499.8" y="104.8" fill="none" stroke="#CCCCCC" stroke-width="0.5" width="2.9" height="2.9"/>
			<rect x="499.8" y="112.6" fill="none" stroke="#CCCCCC" stroke-width="0.5" width="2.9" height="2.9"/>
			<rect x="499.8" y="120.3" fill="none" stroke="#CCCCCC" stroke-width="0.5" width="2.9" height="2.9"/>
		</g>
		<g>
			<rect x="507.7" y="89.4" fill="none" stroke="#CCCCCC" stroke-width="0.5" width="2.9" height="2.9"/>
			<rect x="507.7" y="97.1" fill="none" stroke="#CCCCCC" stroke-width="0.5" width="2.9" height="2.9"/>
			<rect x="507.7" y="104.8" fill="none" stroke="#CCCCCC" stroke-width="0.5" width="2.9" height="2.9"/>
			<rect x="507.7" y="112.6" fill="none" stroke="#CCCCCC" stroke-width="0.5" width="2.9" height="2.9"/>
			<rect x="507.7" y="120.3" fill="none" stroke="#CCCCCC" stroke-width="0.5" width="2.9" height="2.9"/>
		</g>
		<g>
			<rect x="302.8" y="89.4" fill="none" stroke="#CCCCCC" stroke-width="0.5" width="2.9" height="2.9"/>
			<rect x="302.8" y="97.1" fill="none" stroke="#CCCCCC" stroke-width="0.5" width="2.9" height="2.9"/>
			<rect x="302.8" y="104.8" fill="none" stroke="#CCCCCC" stroke-width="0.5" width="2.9" height="2.9"/>
			<rect x="302.8" y="112.6" fill="none" stroke="#CCCCCC" stroke-width="0.5" width="2.9" height="2.9"/>
			<rect x="302.8" y="120.3" fill="none" stroke="#CCCCCC" stroke-width="0.5" width="2.9" height="2.9"/>
		</g>
		<g>
			<rect x="310.6" y="89.4" fill="none" stroke="#CCCCCC" stroke-width="0.5" width="2.9" height="2.9"/>
			<rect x="310.6" y="97.1" fill="none" stroke="#CCCCCC" stroke-width="0.5" width="2.9" height="2.9"/>
			<rect x="310.6" y="104.8" fill="none" stroke="#CCCCCC" stroke-width="0.5" width="2.9" height="2.9"/>
			<rect x="310.6" y="112.6" fill="none" stroke="#CCCCCC" stroke-width="0.5" width="2.9" height="2.9"/>
			<rect x="310.6" y="120.3" fill="none" stroke="#CCCCCC" stroke-width="0.5" width="2.9" height="2.9"/>
		</g>
		<g>
			<rect x="318.5" y="89.4" fill="none" stroke="#CCCCCC" stroke-width="0.5" width="2.9" height="2.9"/>
			<rect x="318.5" y="97.1" fill="none" stroke="#CCCCCC" stroke-width="0.5" width="2.9" height="2.9"/>
			<rect x="318.5" y="104.8" fill="none" stroke="#CCCCCC" stroke-width="0.5" width="2.9" height="2.9"/>
			<rect x="318.5" y="112.6" fill="none" stroke="#CCCCCC" stroke-width="0.5" width="2.9" height="2.9"/>
			<rect x="318.5" y="120.3" fill="none" stroke="#CCCCCC" stroke-width="0.5" width="2.9" height="2.9"/>
		</g>
		<g>
			<rect x="326.4" y="89.4" fill="none" stroke="#CCCCCC" stroke-width="0.5" width="2.9" height="2.9"/>
			<rect x="326.4" y="97.1" fill="none" stroke="#CCCCCC" stroke-width="0.5" width="2.9" height="2.9"/>
			<rect x="326.4" y="104.8" fill="none" stroke="#CCCCCC" stroke-width="0.5" width="2.9" height="2.9"/>
			<rect x="326.4" y="112.6" fill="none" stroke="#CCCCCC" stroke-width="0.5" width="2.9" height="2.9"/>
			<rect x="326.4" y="120.3" fill="none" stroke="#CCCCCC" stroke-width="0.5" width="2.9" height="2.9"/>
		</g>
		<g>
			<rect x="279.1" y="89.4" fill="none" stroke="#CCCCCC" stroke-width="0.5" width="2.9" height="2.9"/>
			<rect x="279.1" y="97.1" fill="none" stroke="#CCCCCC" stroke-width="0.5" width="2.9" height="2.9"/>
			<rect x="279.1" y="104.8" fill="none" stroke="#CCCCCC" stroke-width="0.5" width="2.9" height="2.9"/>
			<rect x="279.1" y="112.6" fill="none" stroke="#CCCCCC" stroke-width="0.5" width="2.9" height="2.9"/>
			<rect x="279.1" y="120.3" fill="none" stroke="#CCCCCC" stroke-width="0.5" width="2.9" height="2.9"/>
		</g>
		<g>
			<rect x="287" y="89.4" fill="none" stroke="#CCCCCC" stroke-width="0.5" width="2.9" height="2.9"/>
			<rect x="287" y="97.1" fill="none" stroke="#CCCCCC" stroke-width="0.5" width="2.9" height="2.9"/>
			<rect x="287" y="104.8" fill="none" stroke="#CCCCCC" stroke-width="0.5" width="2.9" height="2.9"/>
			<rect x="287" y="112.6" fill="none" stroke="#CCCCCC" stroke-width="0.5" width="2.9" height="2.9"/>
			<rect x="287" y="120.3" fill="none" stroke="#CCCCCC" stroke-width="0.5" width="2.9" height="2.9"/>
		</g>
		<g>
			<rect x="294.9" y="89.4" fill="none" stroke="#CCCCCC" stroke-width="0.5" width="2.9" height="2.9"/>
			<rect x="294.9" y="97.1" fill="none" stroke="#CCCCCC" stroke-width="0.5" width="2.9" height="2.9"/>
			<rect x="294.9" y="104.8" fill="none" stroke="#CCCCCC" stroke-width="0.5" width="2.9" height="2.9"/>
			<rect x="294.9" y="112.6" fill="none" stroke="#CCCCCC" stroke-width="0.5" width="2.9" height="2.9"/>
			<rect x="294.9" y="120.3" fill="none" stroke="#CCCCCC" stroke-width="0.5" width="2.9" height="2.9"/>
		</g>
	</g>
	<g>
		<g>
			<rect x="334.3" y="143" fill="none" stroke="#CCCCCC" stroke-width="0.5" width="2.9" height="2.9"/>
			<rect x="334.3" y="150.7" fill="none" stroke="#CCCCCC" stroke-width="0.5" width="2.9" height="2.9"/>
			<rect x="334.3" y="158.5" fill="none" stroke="#CCCCCC" stroke-width="0.5" width="2.9" height="2.9"/>
			<rect x="334.3" y="166.2" fill="none" stroke="#CCCCCC" stroke-width="0.5" width="2.9" height="2.9"/>
			<rect x="334.3" y="173.9" fill="none" stroke="#CCCCCC" stroke-width="0.5" width="2.9" height="2.9"/>
		</g>
		<g>
			<rect x="342.2" y="143" fill="none" stroke="#CCCCCC" stroke-width="0.5" width="2.9" height="2.9"/>
			<rect x="342.2" y="150.7" fill="none" stroke="#CCCCCC" stroke-width="0.5" width="2.9" height="2.9"/>
			<rect x="342.2" y="158.5" fill="none" stroke="#CCCCCC" stroke-width="0.5" width="2.9" height="2.9"/>
			<rect x="342.2" y="166.2" fill="none" stroke="#CCCCCC" stroke-width="0.5" width="2.9" height="2.9"/>
			<rect x="342.2" y="173.9" fill="none" stroke="#CCCCCC" stroke-width="0.5" width="2.9" height="2.9"/>
		</g>
		<g>
			<rect x="350.1" y="143" fill="none" stroke="#CCCCCC" stroke-width="0.5" width="2.9" height="2.9"/>
			<rect x="350.1" y="150.7" fill="none" stroke="#CCCCCC" stroke-width="0.5" width="2.9" height="2.9"/>
			<rect x="350.1" y="158.5" fill="none" stroke="#CCCCCC" stroke-width="0.5" width="2.9" height="2.9"/>
			<rect x="350.1" y="166.2" fill="none" stroke="#CCCCCC" stroke-width="0.5" width="2.9" height="2.9"/>
			<rect x="350.1" y="173.9" fill="none" stroke="#CCCCCC" stroke-width="0.5" width="2.9" height="2.9"/>
		</g>
		<g>
			<rect x="357.9" y="143" fill="none" stroke="#CCCCCC" stroke-width="0.5" width="2.9" height="2.9"/>
			<rect x="357.9" y="150.7" fill="none" stroke="#CCCCCC" stroke-width="0.5" width="2.9" height="2.9"/>
			<rect x="357.9" y="158.5" fill="none" stroke="#CCCCCC" stroke-width="0.5" width="2.9" height="2.9"/>
			<rect x="357.9" y="166.2" fill="none" stroke="#CCCCCC" stroke-width="0.5" width="2.9" height="2.9"/>
			<rect x="357.9" y="173.9" fill="none" stroke="#CCCCCC" stroke-width="0.5" width="2.9" height="2.9"/>
		</g>
		<g>
			<rect x="365.8" y="143" fill="none" stroke="#CCCCCC" stroke-width="0.5" width="2.9" height="2.9"/>
			<rect x="365.8" y="150.7" fill="none" stroke="#CCCCCC" stroke-width="0.5" width="2.9" height="2.9"/>
			<rect x="365.8" y="158.5" fill="none" stroke="#CCCCCC" stroke-width="0.5" width="2.9" height="2.9"/>
			<rect x="365.8" y="166.2" fill="none" stroke="#CCCCCC" stroke-width="0.5" width="2.9" height="2.9"/>
			<rect x="365.8" y="173.9" fill="none" stroke="#CCCCCC" stroke-width="0.5" width="2.9" height="2.9"/>
		</g>
		<g>
			<rect x="373.7" y="143" fill="none" stroke="#CCCCCC" stroke-width="0.5" width="2.9" height="2.9"/>
			<rect x="373.7" y="150.7" fill="none" stroke="#CCCCCC" stroke-width="0.5" width="2.9" height="2.9"/>
			<rect x="373.7" y="158.5" fill="none" stroke="#CCCCCC" stroke-width="0.5" width="2.9" height="2.9"/>
			<rect x="373.7" y="166.2" fill="none" stroke="#CCCCCC" stroke-width="0.5" width="2.9" height="2.9"/>
			<rect x="373.7" y="173.9" fill="none" stroke="#CCCCCC" stroke-width="0.5" width="2.9" height="2.9"/>
		</g>
		<g>
			<rect x="381.6" y="143" fill="none" stroke="#CCCCCC" stroke-width="0.5" width="2.9" height="2.9"/>
			<rect x="381.6" y="150.7" fill="none" stroke="#CCCCCC" stroke-width="0.5" width="2.9" height="2.9"/>
			<rect x="381.6" y="158.5" fill="none" stroke="#CCCCCC" stroke-width="0.5" width="2.9" height="2.9"/>
			<rect x="381.6" y="166.2" fill="none" stroke="#CCCCCC" stroke-width="0.5" width="2.9" height="2.9"/>
			<rect x="381.6" y="173.9" fill="none" stroke="#CCCCCC" stroke-width="0.5" width="2.9" height="2.9"/>
		</g>
		<g>
			<rect x="389.5" y="143" fill="none" stroke="#CCCCCC" stroke-width="0.5" width="2.9" height="2.9"/>
			<rect x="389.5" y="150.7" fill="none" stroke="#CCCCCC" stroke-width="0.5" width="2.9" height="2.9"/>
			<rect x="389.5" y="158.5" fill="none" stroke="#CCCCCC" stroke-width="0.5" width="2.9" height="2.9"/>
			<rect x="389.5" y="166.2" fill="none" stroke="#CCCCCC" stroke-width="0.5" width="2.9" height="2.9"/>
			<rect x="389.5" y="173.9" fill="none" stroke="#CCCCCC" stroke-width="0.5" width="2.9" height="2.9"/>
		</g>
		<g>
			<rect x="397.4" y="143" fill="none" stroke="#CCCCCC" stroke-width="0.5" width="2.9" height="2.9"/>
			<rect x="397.4" y="150.7" fill="none" stroke="#CCCCCC" stroke-width="0.5" width="2.9" height="2.9"/>
			<rect x="397.4" y="158.5" fill="none" stroke="#CCCCCC" stroke-width="0.5" width="2.9" height="2.9"/>
			<rect x="397.4" y="166.2" fill="none" stroke="#CCCCCC" stroke-width="0.5" width="2.9" height="2.9"/>
			<rect x="397.4" y="173.9" fill="none" stroke="#CCCCCC" stroke-width="0.5" width="2.9" height="2.9"/>
		</g>
		<g>
			<rect x="405.2" y="143" fill="none" stroke="#CCCCCC" stroke-width="0.5" width="2.9" height="2.9"/>
			<rect x="405.2" y="150.7" fill="none" stroke="#CCCCCC" stroke-width="0.5" width="2.9" height="2.9"/>
			<rect x="405.2" y="158.5" fill="none" stroke="#CCCCCC" stroke-width="0.5" width="2.9" height="2.9"/>
			<rect x="405.2" y="166.2" fill="none" stroke="#CCCCCC" stroke-width="0.5" width="2.9" height="2.9"/>
			<rect x="405.2" y="173.9" fill="none" stroke="#CCCCCC" stroke-width="0.5" width="2.9" height="2.9"/>
		</g>
		<g>
			<rect x="413.1" y="143" fill="none" stroke="#CCCCCC" stroke-width="0.5" width="2.9" height="2.9"/>
			<rect x="413.1" y="150.7" fill="none" stroke="#CCCCCC" stroke-width="0.5" width="2.9" height="2.9"/>
			<rect x="413.1" y="158.5" fill="none" stroke="#CCCCCC" stroke-width="0.5" width="2.9" height="2.9"/>
			<rect x="413.1" y="166.2" fill="none" stroke="#CCCCCC" stroke-width="0.5" width="2.9" height="2.9"/>
			<rect x="413.1" y="173.9" fill="none" stroke="#CCCCCC" stroke-width="0.5" width="2.9" height="2.9"/>
		</g>
		<g>
			<rect x="421" y="143" fill="none" stroke="#CCCCCC" stroke-width="0.5" width="2.9" height="2.9"/>
			<rect x="421" y="150.7" fill="none" stroke="#CCCCCC" stroke-width="0.5" width="2.9" height="2.9"/>
			<rect x="421" y="158.5" fill="none" stroke="#CCCCCC" stroke-width="0.5" width="2.9" height="2.9"/>
			<rect x="421" y="166.2" fill="none" stroke="#CCCCCC" stroke-width="0.5" width="2.9" height="2.9"/>
			<rect x="421" y="173.9" fill="none" stroke="#CCCCCC" stroke-width="0.5" width="2.9" height="2.9"/>
		</g>
		<g>
			<rect x="428.9" y="143" fill="none" stroke="#CCCCCC" stroke-width="0.5" width="2.9" height="2.9"/>
			<rect x="428.9" y="150.7" fill="none" stroke="#CCCCCC" stroke-width="0.5" width="2.9" height="2.9"/>
			<rect x="428.9" y="158.5" fill="none" stroke="#CCCCCC" stroke-width="0.5" width="2.9" height="2.9"/>
			<rect x="428.9" y="166.2" fill="none" stroke="#CCCCCC" stroke-width="0.5" width="2.9" height="2.9"/>
			<rect x="428.9" y="173.9" fill="none" stroke="#CCCCCC" stroke-width="0.5" width="2.9" height="2.9"/>
		</g>
		<g>
			<rect x="436.8" y="143" fill="none" stroke="#CCCCCC" stroke-width="0.5" width="2.9" height="2.9"/>
			<rect x="436.8" y="150.7" fill="none" stroke="#CCCCCC" stroke-width="0.5" width="2.9" height="2.9"/>
			<rect x="436.8" y="158.5" fill="none" stroke="#CCCCCC" stroke-width="0.5" width="2.9" height="2.9"/>
			<rect x="436.8" y="166.2" fill="none" stroke="#CCCCCC" stroke-width="0.5" width="2.9" height="2.9"/>
			<rect x="436.8" y="173.9" fill="none" stroke="#CCCCCC" stroke-width="0.5" width="2.9" height="2.9"/>
		</g>
		<g>
			<rect x="444.7" y="143" fill="none" stroke="#CCCCCC" stroke-width="0.5" width="2.9" height="2.9"/>
			<rect x="444.7" y="150.7" fill="none" stroke="#CCCCCC" stroke-width="0.5" width="2.9" height="2.9"/>
			<rect x="444.7" y="158.5" fill="none" stroke="#CCCCCC" stroke-width="0.5" width="2.9" height="2.9"/>
			<rect x="444.7" y="166.2" fill="none" stroke="#CCCCCC" stroke-width="0.5" width="2.9" height="2.9"/>
			<rect x="444.7" y="173.9" fill="none" stroke="#CCCCCC" stroke-width="0.5" width="2.9" height="2.9"/>
		</g>
		<g>
			<rect x="452.5" y="143" fill="none" stroke="#CCCCCC" stroke-width="0.5" width="2.9" height="2.9"/>
			<rect x="452.5" y="150.7" fill="none" stroke="#CCCCCC" stroke-width="0.5" width="2.9" height="2.9"/>
			<rect x="452.5" y="158.5" fill="none" stroke="#CCCCCC" stroke-width="0.5" width="2.9" height="2.9"/>
			<rect x="452.5" y="166.2" fill="none" stroke="#CCCCCC" stroke-width="0.5" width="2.9" height="2.9"/>
			<rect x="452.5" y="173.9" fill="none" stroke="#CCCCCC" stroke-width="0.5" width="2.9" height="2.9"/>
		</g>
		<rect x="460.4" y="143" fill="none" stroke="#CCCCCC" stroke-width="0.5" width="2.9" height="2.9"/>
		<rect x="460.4" y="150.7" fill="none" stroke="#CCCCCC" stroke-width="0.5" width="2.9" height="2.9"/>
		<rect x="460.4" y="158.5" fill="none" stroke="#CCCCCC" stroke-width="0.5" width="2.9" height="2.9"/>
		<rect x="460.4" y="166.2" fill="none" stroke="#CCCCCC" stroke-width="0.5" width="2.9" height="2.9"/>
		<rect x="460.4" y="173.9" fill="none" stroke="#CCCCCC" stroke-width="0.5" width="2.9" height="2.9"/>
		<rect x="468.3" y="143" fill="none" stroke="#CCCCCC" stroke-width="0.5" width="2.9" height="2.9"/>
		<rect x="468.3" y="150.7" fill="none" stroke="#CCCCCC" stroke-width="0.5" width="2.9" height="2.9"/>
		<rect x="468.3" y="158.5" fill="none" stroke="#CCCCCC" stroke-width="0.5" width="2.9" height="2.9"/>
		<rect x="468.3" y="166.2" fill="none" stroke="#CCCCCC" stroke-width="0.5" width="2.9" height="2.9"/>
		<rect x="468.3" y="173.9" fill="none" stroke="#CCCCCC" stroke-width="0.5" width="2.9" height="2.9"/>
		<rect x="476.2" y="143" fill="none" stroke="#CCCCCC" stroke-width="0.5" width="2.9" height="2.9"/>
		<rect x="476.2" y="150.7" fill="none" stroke="#CCCCCC" stroke-width="0.5" width="2.9" height="2.9"/>
		<rect x="476.2" y="158.5" fill="none" stroke="#CCCCCC" stroke-width="0.5" width="2.9" height="2.9"/>
		<rect x="476.2" y="166.2" fill="none" stroke="#CCCCCC" stroke-width="0.5" width="2.9" height="2.9"/>
		<rect x="476.2" y="173.9" fill="none" stroke="#CCCCCC" stroke-width="0.5" width="2.9" height="2.9"/>
		<rect x="484.1" y="143" fill="none" stroke="#CCCCCC" stroke-width="0.5" width="2.9" height="2.9"/>
		<rect x="484.1" y="150.7" fill="none" stroke="#CCCCCC" stroke-width="0.5" width="2.9" height="2.9"/>
		<rect x="484.1" y="158.5" fill="none" stroke="#CCCCCC" stroke-width="0.5" width="2.9" height="2.9"/>
		<rect x="484.1" y="166.2" fill="none" stroke="#CCCCCC" stroke-width="0.5" width="2.9" height="2.9"/>
		<rect x="484.1" y="173.9" fill="none" stroke="#CCCCCC" stroke-width="0.5" width="2.9" height="2.9"/>
		<rect x="492" y="143" fill="none" stroke="#CCCCCC" stroke-width="0.5" width="2.9" height="2.9"/>
		<rect x="492" y="150.7" fill="none" stroke="#CCCCCC" stroke-width="0.5" width="2.9" height="2.9"/>
		<rect x="492" y="158.5" fill="none" stroke="#CCCCCC" stroke-width="0.5" width="2.9" height="2.9"/>
		<rect x="492" y="166.2" fill="none" stroke="#CCCCCC" stroke-width="0.5" width="2.9" height="2.9"/>
		<rect x="492" y="173.9" fill="none" stroke="#CCCCCC" stroke-width="0.5" width="2.9" height="2.9"/>
		<rect x="499.8" y="143" fill="none" stroke="#CCCCCC" stroke-width="0.5" width="2.9" height="2.9"/>
		<rect x="499.8" y="150.7" fill="none" stroke="#CCCCCC" stroke-width="0.5" width="2.9" height="2.9"/>
		<rect x="499.8" y="158.5" fill="none" stroke="#CCCCCC" stroke-width="0.5" width="2.9" height="2.9"/>
		<rect x="499.8" y="166.2" fill="none" stroke="#CCCCCC" stroke-width="0.5" width="2.9" height="2.9"/>
		<rect x="499.8" y="173.9" fill="none" stroke="#CCCCCC" stroke-width="0.5" width="2.9" height="2.9"/>
		<rect x="507.7" y="143" fill="none" stroke="#CCCCCC" stroke-width="0.5" width="2.9" height="2.9"/>
		<rect x="507.7" y="150.7" fill="none" stroke="#CCCCCC" stroke-width="0.5" width="2.9" height="2.9"/>
		<rect x="507.7" y="158.5" fill="none" stroke="#CCCCCC" stroke-width="0.5" width="2.9" height="2.9"/>
		<rect x="507.7" y="166.2" fill="none" stroke="#CCCCCC" stroke-width="0.5" width="2.9" height="2.9"/>
		<rect x="507.7" y="173.9" fill="none" stroke="#CCCCCC" stroke-width="0.5" width="2.9" height="2.9"/>
		<g>
			<rect x="302.8" y="143" fill="none" stroke="#CCCCCC" stroke-width="0.5" width="2.9" height="2.9"/>
			<rect x="302.8" y="150.7" fill="none" stroke="#CCCCCC" stroke-width="0.5" width="2.9" height="2.9"/>
			<rect x="302.8" y="158.5" fill="none" stroke="#CCCCCC" stroke-width="0.5" width="2.9" height="2.9"/>
			<rect x="302.8" y="166.2" fill="none" stroke="#CCCCCC" stroke-width="0.5" width="2.9" height="2.9"/>
			<rect x="302.8" y="173.9" fill="none" stroke="#CCCCCC" stroke-width="0.5" width="2.9" height="2.9"/>
		</g>
		<g>
			<rect x="310.6" y="143" fill="none" stroke="#CCCCCC" stroke-width="0.5" width="2.9" height="2.9"/>
			<rect x="310.6" y="150.7" fill="none" stroke="#CCCCCC" stroke-width="0.5" width="2.9" height="2.9"/>
			<rect x="310.6" y="158.5" fill="none" stroke="#CCCCCC" stroke-width="0.5" width="2.9" height="2.9"/>
			<rect x="310.6" y="166.2" fill="none" stroke="#CCCCCC" stroke-width="0.5" width="2.9" height="2.9"/>
			<rect x="310.6" y="173.9" fill="none" stroke="#CCCCCC" stroke-width="0.5" width="2.9" height="2.9"/>
		</g>
		<g>
			<rect x="318.5" y="143" fill="none" stroke="#CCCCCC" stroke-width="0.5" width="2.9" height="2.9"/>
			<rect x="318.5" y="150.7" fill="none" stroke="#CCCCCC" stroke-width="0.5" width="2.9" height="2.9"/>
			<rect x="318.5" y="158.5" fill="none" stroke="#CCCCCC" stroke-width="0.5" width="2.9" height="2.9"/>
			<rect x="318.5" y="166.2" fill="none" stroke="#CCCCCC" stroke-width="0.5" width="2.9" height="2.9"/>
			<rect x="318.5" y="173.9" fill="none" stroke="#CCCCCC" stroke-width="0.5" width="2.9" height="2.9"/>
		</g>
		<g>
			<rect x="326.4" y="143" fill="none" stroke="#CCCCCC" stroke-width="0.5" width="2.9" height="2.9"/>
			<rect x="326.4" y="150.7" fill="none" stroke="#CCCCCC" stroke-width="0.5" width="2.9" height="2.9"/>
			<rect x="326.4" y="158.5" fill="none" stroke="#CCCCCC" stroke-width="0.5" width="2.9" height="2.9"/>
			<rect x="326.4" y="166.2" fill="none" stroke="#CCCCCC" stroke-width="0.5" width="2.9" height="2.9"/>
			<rect x="326.4" y="173.9" fill="none" stroke="#CCCCCC" stroke-width="0.5" width="2.9" height="2.9"/>
		</g>
		<g>
			<rect x="279.1" y="143" fill="none" stroke="#CCCCCC" stroke-width="0.5" width="2.9" height="2.9"/>
			<rect x="279.1" y="150.7" fill="none" stroke="#CCCCCC" stroke-width="0.5" width="2.9" height="2.9"/>
			<rect x="279.1" y="158.5" fill="none" stroke="#CCCCCC" stroke-width="0.5" width="2.9" height="2.9"/>
			<rect x="279.1" y="166.2" fill="none" stroke="#CCCCCC" stroke-width="0.5" width="2.9" height="2.9"/>
			<rect x="279.1" y="173.9" fill="none" stroke="#CCCCCC" stroke-width="0.5" width="2.9" height="2.9"/>
		</g>
		<g>
			<rect x="287" y="143" fill="none" stroke="#CCCCCC" stroke-width="0.5" width="2.9" height="2.9"/>
			<rect x="287" y="150.7" fill="none" stroke="#CCCCCC" stroke-width="0.5" width="2.9" height="2.9"/>
			<rect x="287" y="158.5" fill="none" stroke="#CCCCCC" stroke-width="0.5" width="2.9" height="2.9"/>
			<rect x="287" y="166.2" fill="none" stroke="#CCCCCC" stroke-width="0.5" width="2.9" height="2.9"/>
			<rect x="287" y="173.9" fill="none" stroke="#CCCCCC" stroke-width="0.5" width="2.9" height="2.9"/>
		</g>
		<g>
			<rect x="294.9" y="143" fill="none" stroke="#CCCCCC" stroke-width="0.5" width="2.9" height="2.9"/>
			<rect x="294.9" y="150.7" fill="none" stroke="#CCCCCC" stroke-width="0.5" width="2.9" height="2.9"/>
			<rect x="294.9" y="158.5" fill="none" stroke="#CCCCCC" stroke-width="0.5" width="2.9" height="2.9"/>
			<rect x="294.9" y="166.2" fill="none" stroke="#CCCCCC" stroke-width="0.5" width="2.9" height="2.9"/>
			<rect x="294.9" y="173.9" fill="none" stroke="#CCCCCC" stroke-width="0.5" width="2.9" height="2.9"/>
		</g>
	</g>
	<g>
		<g>
			<g>
				<rect x="310" y="58" fill="none" stroke="#CCCCCC" stroke-width="0.5" width="2.9" height="2.9"/>
				<rect x="302.3" y="58" fill="none" stroke="#CCCCCC" stroke-width="0.5" width="2.9" height="2.9"/>
				<rect x="294.6" y="58" fill="none" stroke="#CCCCCC" stroke-width="0.5" width="2.9" height="2.9"/>
				<rect x="286.8" y="58" fill="none" stroke="#CCCCCC" stroke-width="0.5" width="2.9" height="2.9"/>
				<rect x="279.1" y="58" fill="none" stroke="#CCCCCC" stroke-width="0.5" width="2.9" height="2.9"/>
			</g>
			<g>
				<rect x="279.1" y="65.7" fill="none" stroke="#CCCCCC" stroke-width="0.5" width="2.9" height="2.9"/>
				<rect x="286.8" y="65.7" fill="none" stroke="#CCCCCC" stroke-width="0.5" width="2.9" height="2.9"/>
				<rect x="294.6" y="65.7" fill="none" stroke="#CCCCCC" stroke-width="0.5" width="2.9" height="2.9"/>
				<rect x="302.3" y="65.7" fill="none" stroke="#CCCCCC" stroke-width="0.5" width="2.9" height="2.9"/>
				<rect x="310" y="65.7" fill="none" stroke="#CCCCCC" stroke-width="0.5" width="2.9" height="2.9"/>
			</g>
		</g>
		<g>
			<g>
				<rect x="357.3" y="58" fill="none" stroke="#CCCCCC" stroke-width="0.5" width="2.9" height="2.9"/>
				<rect x="349.6" y="58" fill="none" stroke="#CCCCCC" stroke-width="0.5" width="2.9" height="2.9"/>
				<rect x="341.9" y="58" fill="none" stroke="#CCCCCC" stroke-width="0.5" width="2.9" height="2.9"/>
				<rect x="334.1" y="58" fill="none" stroke="#CCCCCC" stroke-width="0.5" width="2.9" height="2.9"/>
				<rect x="326.4" y="58" fill="none" stroke="#CCCCCC" stroke-width="0.5" width="2.9" height="2.9"/>
			</g>
			<g>
				<rect x="326.4" y="65.7" fill="none" stroke="#CCCCCC" stroke-width="0.5" width="2.9" height="2.9"/>
				<rect x="334.1" y="65.7" fill="none" stroke="#CCCCCC" stroke-width="0.5" width="2.9" height="2.9"/>
				<rect x="341.9" y="65.7" fill="none" stroke="#CCCCCC" stroke-width="0.5" width="2.9" height="2.9"/>
				<rect x="349.6" y="65.7" fill="none" stroke="#CCCCCC" stroke-width="0.5" width="2.9" height="2.9"/>
				<rect x="357.3" y="65.7" fill="none" stroke="#CCCCCC" stroke-width="0.5" width="2.9" height="2.9"/>
			</g>
		</g>
		<g>
			<g>
				<rect x="404.6" y="58" fill="none" stroke="#CCCCCC" stroke-width="0.5" width="2.9" height="2.9"/>
				<rect x="396.9" y="58" fill="none" stroke="#CCCCCC" stroke-width="0.5" width="2.9" height="2.9"/>
				<rect x="389.2" y="58" fill="none" stroke="#CCCCCC" stroke-width="0.5" width="2.9" height="2.9"/>
				<rect x="381.4" y="58" fill="none" stroke="#CCCCCC" stroke-width="0.5" width="2.9" height="2.9"/>
				<rect x="373.7" y="58" fill="none" stroke="#CCCCCC" stroke-width="0.5" width="2.9" height="2.9"/>
			</g>
			<g>
				<rect x="373.7" y="65.7" fill="none" stroke="#CCCCCC" stroke-width="0.5" width="2.9" height="2.9"/>
				<rect x="381.4" y="65.7" fill="none" stroke="#CCCCCC" stroke-width="0.5" width="2.9" height="2.9"/>
				<rect x="389.2" y="65.7" fill="none" stroke="#CCCCCC" stroke-width="0.5" width="2.9" height="2.9"/>
				<rect x="396.9" y="65.7" fill="none" stroke="#CCCCCC" stroke-width="0.5" width="2.9" height="2.9"/>
				<rect x="404.6" y="65.7" fill="none" stroke="#CCCCCC" stroke-width="0.5" width="2.9" height="2.9"/>
			</g>
		</g>
		<g>
			<g>
				<rect x="451.9" y="58" fill="none" stroke="#CCCCCC" stroke-width="0.5" width="2.9" height="2.9"/>
				<rect x="444.2" y="58" fill="none" stroke="#CCCCCC" stroke-width="0.5" width="2.9" height="2.9"/>
				<rect x="436.5" y="58" fill="none" stroke="#CCCCCC" stroke-width="0.5" width="2.9" height="2.9"/>
				<rect x="428.7" y="58" fill="none" stroke="#CCCCCC" stroke-width="0.5" width="2.9" height="2.9"/>
				<rect x="421" y="58" fill="none" stroke="#CCCCCC" stroke-width="0.5" width="2.9" height="2.9"/>
			</g>
			<g>
				<rect x="421" y="65.7" fill="none" stroke="#CCCCCC" stroke-width="0.5" width="2.9" height="2.9"/>
				<rect x="428.7" y="65.7" fill="none" stroke="#CCCCCC" stroke-width="0.5" width="2.9" height="2.9"/>
				<rect x="436.5" y="65.7" fill="none" stroke="#CCCCCC" stroke-width="0.5" width="2.9" height="2.9"/>
				<rect x="444.2" y="65.7" fill="none" stroke="#CCCCCC" stroke-width="0.5" width="2.9" height="2.9"/>
				<rect x="451.9" y="65.7" fill="none" stroke="#CCCCCC" stroke-width="0.5" width="2.9" height="2.9"/>
			</g>
		</g>
		<g>
			<g>
				<rect x="499.2" y="58" fill="none" stroke="#CCCCCC" stroke-width="0.5" width="2.9" height="2.9"/>
				<rect x="491.5" y="58" fill="none" stroke="#CCCCCC" stroke-width="0.5" width="2.9" height="2.9"/>
				<rect x="483.8" y="58" fill="none" stroke="#CCCCCC" stroke-width="0.5" width="2.9" height="2.9"/>
				<rect x="476" y="58" fill="none" stroke="#CCCCCC" stroke-width="0.5" width="2.9" height="2.9"/>
				<rect x="468.3" y="58" fill="none" stroke="#CCCCCC" stroke-width="0.5" width="2.9" height="2.9"/>
			</g>
			<g>
				<rect x="468.3" y="65.7" fill="none" stroke="#CCCCCC" stroke-width="0.5" width="2.9" height="2.9"/>
				<rect x="476" y="65.7" fill="none" stroke="#CCCCCC" stroke-width="0.5" width="2.9" height="2.9"/>
				<rect x="483.8" y="65.7" fill="none" stroke="#CCCCCC" stroke-width="0.5" width="2.9" height="2.9"/>
				<rect x="491.5" y="65.7" fill="none" stroke="#CCCCCC" stroke-width="0.5" width="2.9" height="2.9"/>
				<rect x="499.2" y="65.7" fill="none" stroke="#CCCCCC" stroke-width="0.5" width="2.9" height="2.9"/>
			</g>
		</g>
	</g>
	<g>
		<g>
			<g>
				<rect x="310" y="198.9" fill="none" stroke="#CCCCCC" stroke-width="0.5" width="2.9" height="2.9"/>
				<rect x="302.3" y="198.9" fill="none" stroke="#CCCCCC" stroke-width="0.5" width="2.9" height="2.9"/>
				<rect x="294.6" y="198.9" fill="none" stroke="#CCCCCC" stroke-width="0.5" width="2.9" height="2.9"/>
				<rect x="286.8" y="198.9" fill="none" stroke="#CCCCCC" stroke-width="0.5" width="2.9" height="2.9"/>
				<rect x="279.1" y="198.9" fill="none" stroke="#CCCCCC" stroke-width="0.5" width="2.9" height="2.9"/>
			</g>
			<g>
				<rect x="279.1" y="206.7" fill="none" stroke="#CCCCCC" stroke-width="0.5" width="2.9" height="2.9"/>
				<rect x="286.8" y="206.7" fill="none" stroke="#CCCCCC" stroke-width="0.5" width="2.9" height="2.9"/>
				<rect x="294.6" y="206.7" fill="none" stroke="#CCCCCC" stroke-width="0.5" width="2.9" height="2.9"/>
				<rect x="302.3" y="206.7" fill="none" stroke="#CCCCCC" stroke-width="0.5" width="2.9" height="2.9"/>
				<rect x="310" y="206.7" fill="none" stroke="#CCCCCC" stroke-width="0.5" width="2.9" height="2.9"/>
			</g>
		</g>
		<g>
			<g>
				<rect x="357.3" y="198.9" fill="none" stroke="#CCCCCC" stroke-width="0.5" width="2.9" height="2.9"/>
				<rect x="349.6" y="198.9" fill="none" stroke="#CCCCCC" stroke-width="0.5" width="2.9" height="2.9"/>
				<rect x="341.9" y="198.9" fill="none" stroke="#CCCCCC" stroke-width="0.5" width="2.9" height="2.9"/>
				<rect x="334.1" y="198.9" fill="none" stroke="#CCCCCC" stroke-width="0.5" width="2.9" height="2.9"/>
				<rect x="326.4" y="198.9" fill="none" stroke="#CCCCCC" stroke-width="0.5" width="2.9" height="2.9"/>
			</g>
			<g>
				<rect x="326.4" y="206.7" fill="none" stroke="#CCCCCC" stroke-width="0.5" width="2.9" height="2.9"/>
				<rect x="334.1" y="206.7" fill="none" stroke="#CCCCCC" stroke-width="0.5" width="2.9" height="2.9"/>
				<rect x="341.9" y="206.7" fill="none" stroke="#CCCCCC" stroke-width="0.5" width="2.9" height="2.9"/>
				<rect x="349.6" y="206.7" fill="none" stroke="#CCCCCC" stroke-width="0.5" width="2.9" height="2.9"/>
				<rect x="357.3" y="206.7" fill="none" stroke="#CCCCCC" stroke-width="0.5" width="2.9" height="2.9"/>
			</g>
		</g>
		<g>
			<g>
				<rect x="404.6" y="198.9" fill="none" stroke="#CCCCCC" stroke-width="0.5" width="2.9" height="2.9"/>
				<rect x="396.9" y="198.9" fill="none" stroke="#CCCCCC" stroke-width="0.5" width="2.9" height="2.9"/>
				<rect x="389.2" y="198.9" fill="none" stroke="#CCCCCC" stroke-width="0.5" width="2.9" height="2.9"/>
				<rect x="381.4" y="198.9" fill="none" stroke="#CCCCCC" stroke-width="0.5" width="2.9" height="2.9"/>
				<rect x="373.7" y="198.9" fill="none" stroke="#CCCCCC" stroke-width="0.5" width="2.9" height="2.9"/>
			</g>
			<g>
				<rect x="373.7" y="206.7" fill="none" stroke="#CCCCCC" stroke-width="0.5" width="2.9" height="2.9"/>
				<rect x="381.4" y="206.7" fill="none" stroke="#CCCCCC" stroke-width="0.5" width="2.9" height="2.9"/>
				<rect x="389.2" y="206.7" fill="none" stroke="#CCCCCC" stroke-width="0.5" width="2.9" height="2.9"/>
				<rect x="396.9" y="206.7" fill="none" stroke="#CCCCCC" stroke-width="0.5" width="2.9" height="2.9"/>
				<rect x="404.6" y="206.7" fill="none" stroke="#CCCCCC" stroke-width="0.5" width="2.9" height="2.9"/>
			</g>
		</g>
		<g>
			<g>
				<rect x="451.9" y="198.9" fill="none" stroke="#CCCCCC" stroke-width="0.5" width="2.9" height="2.9"/>
				<rect x="444.2" y="198.9" fill="none" stroke="#CCCCCC" stroke-width="0.5" width="2.9" height="2.9"/>
				<rect x="436.5" y="198.9" fill="none" stroke="#CCCCCC" stroke-width="0.5" width="2.9" height="2.9"/>
				<rect x="428.7" y="198.9" fill="none" stroke="#CCCCCC" stroke-width="0.5" width="2.9" height="2.9"/>
				<rect x="421" y="198.9" fill="none" stroke="#CCCCCC" stroke-width="0.5" width="2.9" height="2.9"/>
			</g>
			<g>
				<rect x="421" y="206.7" fill="none" stroke="#CCCCCC" stroke-width="0.5" width="2.9" height="2.9"/>
				<rect x="428.7" y="206.7" fill="none" stroke="#CCCCCC" stroke-width="0.5" width="2.9" height="2.9"/>
				<rect x="436.5" y="206.7" fill="none" stroke="#CCCCCC" stroke-width="0.5" width="2.9" height="2.9"/>
				<rect x="444.2" y="206.7" fill="none" stroke="#CCCCCC" stroke-width="0.5" width="2.9" height="2.9"/>
				<rect x="451.9" y="206.7" fill="none" stroke="#CCCCCC" stroke-width="0.5" width="2.9" height="2.9"/>
			</g>
		</g>
		<g>
			<g>
				<rect x="499.2" y="198.9" fill="none" stroke="#CCCCCC" stroke-width="0.5" width="2.9" height="2.9"/>
				<rect x="491.5" y="198.9" fill="none" stroke="#CCCCCC" stroke-width="0.5" width="2.9" height="2.9"/>
				<rect x="483.8" y="198.9" fill="none" stroke="#CCCCCC" stroke-width="0.5" width="2.9" height="2.9"/>
				<rect x="476" y="198.9" fill="none" stroke="#CCCCCC" stroke-width="0.5" width="2.9" height="2.9"/>
				<rect x="468.3" y="198.9" fill="none" stroke="#CCCCCC" stroke-width="0.5" width="2.9" height="2.9"/>
			</g>
			<g>
				<rect x="468.3" y="206.7" fill="none" stroke="#CCCCCC" stroke-width="0.5" width="2.9" height="2.9"/>
				<rect x="476" y="206.7" fill="none" stroke="#CCCCCC" stroke-width="0.5" width="2.9" height="2.9"/>
				<rect x="483.8" y="206.7" fill="none" stroke="#CCCCCC" stroke-width="0.5" width="2.9" height="2.9"/>
				<rect x="491.5" y="206.7" fill="none" stroke="#CCCCCC" stroke-width="0.5" width="2.9" height="2.9"/>
				<rect x="499.2" y="206.7" fill="none" stroke="#CCCCCC" stroke-width="0.5" width="2.9" height="2.9"/>
			</g>
		</g>
	</g>
	<rect x="262" y="50" fill="none" stroke="#CCCCCC" stroke-width="0.5" width="265.2" height="165.4"/>
</g>
<text transform="matrix(1 0 0 1 1.2359 10.6557)" font-family="'TheSerif-HP5PlainIT'" font-size="13.2583">Example 3</text>
<g>
	<polyline fill="none" stroke="#000000" stroke-width="0.5" points="119.1,179.4 142.3,179.4 123.3,179.4 	"/>
	<line fill="none" stroke="#000000" stroke-width="0.5" x1="123.5" y1="185.7" x2="138" y2="185.7"/>
	<line fill="none" stroke="#000000" stroke-width="0.5" x1="128.1" y1="191.5" x2="133.4" y2="191.5"/>
</g>
<text transform="matrix(1 0 0 1 147.4325 197.9668)" font-family="'TheSerif-HP5Plain'" font-size="10.312">Ground</text>
<polyline fill="none" stroke="#000000" stroke-width="0.5" stroke-linecap="round" stroke-linejoin="round" points="130.9,136.1 
	130.9,50.3 130.9,50.4 40.9,50.4 "/>
<polyline fill="none" stroke="#000000" stroke-width="0.5" points="136.8,99.1 130.7,99.1 124.9,99.1 "/>
<polygon stroke="#000000" stroke-width="0.5" points="131.2,98.5 136.2,90.3 125.6,90.3 "/>
<polygon fill="none" stroke="#000000" stroke-width="0.5" points="34.6,42.2 41.9,50.2 34.6,58.1 15.7,58.1 15.7,42.2 "/>
<polyline fill="none" stroke="#000000" stroke-width="0.5" points="130.8,136.1 125.9,138.3 136.5,141.6 125.6,145.3 137.1,148.1 
	125.4,151.6 131.3,153.1 131.3,179 "/>
<text transform="matrix(1 0 0 1 147.4325 103.378)" font-family="'TheSerif-HP5Plain'" font-size="10.312">LED</text>
<text transform="matrix(1 0 0 1 1 75.7323)" font-family="'TheSerif-HP5Plain'" font-size="10.312">Digital I/O Pin 4</text>
<path fill="none" stroke="#808080" stroke-linecap="round" d="M359.4,90.7c0,0-15.6-2.9-22.1-22.8c-4.1-12.6-5.1-32-5.1-32"/>
<path fill="none" stroke="#221F1F" stroke-linecap="round" d="M445.8,114.1c0,0,17.6-21.8-2-81.4"/>
<g>
	<line fill="none" stroke="#000000" stroke-linecap="round" x1="446.4" y1="121.8" x2="421.8" y2="121.8"/>
	<line fill="none" stroke="#000000" stroke-linecap="round" x1="374.7" y1="121.8" x2="397.6" y2="121.8"/>
	<rect x="397.4" y="118.5" fill="#CCCCCC" width="24.6" height="6.7"/>
	<rect x="399.7" y="118.4" fill="#666666" width="3.3" height="6.9"/>
	<rect x="404.5" y="118.4" width="3.3" height="6.9"/>
	<rect x="409.2" y="118.4" fill="#808080" width="3.4" height="6.9"/>
	<rect x="415.8" y="118.4" fill="#B3B3B3" width="3.3" height="6.9"/>
</g>
<text transform="matrix(1 0 0 1 147.432 148.5616)" font-family="'TheSerif-HP5Plain'" font-size="10.312">330 ohm</text>
<g>
	<g>
		<polygon points="153.8,78.6 150,86.1 146.3,82.4 		"/>
		<line fill="none" stroke="#000000" stroke-width="0.5" x1="150" y1="82.4" x2="140.6" y2="91.7"/>
	</g>
	<g>
		<polygon points="148.6,73.5 144.9,81 141.1,77.2 		"/>
		<line fill="none" stroke="#000000" stroke-width="0.5" x1="144.9" y1="77.2" x2="135.5" y2="86.6"/>
	</g>
</g>
<g>
	<line fill="none" stroke="#000000" stroke-linecap="round" x1="375.2" y1="114" x2="330.9" y2="137.4"/>
	<line fill="none" stroke="#000000" stroke-linecap="round" x1="325.4" y1="127.4" x2="359.5" y2="98.2"/>
	<path fill="#808080" d="M334.3,140l-14.1,9.2c0,0-7.2,3.8-12.2-4.4c-5-8.1,2-12.2,2-12.2l14.1-9.2L334.3,140z"/>
</g>
</svg>
