<?xml version="1.0" encoding="utf-8"?>
<!-- Generator: Adobe Illustrator 18.0.0, SVG Export Plug-In . SVG Version: 6.00 Build 0)  -->
<!DOCTYPE svg PUBLIC "-//W3C//DTD SVG 1.1//EN" "http://www.w3.org/Graphics/SVG/1.1/DTD/svg11.dtd">
<svg version="1.1" id="Layer_1" xmlns="http://www.w3.org/2000/svg" xmlns:xlink="http://www.w3.org/1999/xlink" x="0px" y="0px"
	 viewBox="0 0 687 220" enable-background="new 0 0 687 220" xml:space="preserve">
<g>
	<g>
		<rect x="321.9" y="84" fill="none" stroke="#CDCCCC" stroke-width="0.5" width="2.8" height="2.8"/>
		<rect x="321.9" y="91.4" fill="none" stroke="#CDCCCC" stroke-width="0.5" width="2.8" height="2.8"/>
		<rect x="321.9" y="98.8" fill="none" stroke="#CDCCCC" stroke-width="0.5" width="2.8" height="2.8"/>
		<rect x="321.9" y="106.2" fill="none" stroke="#CDCCCC" stroke-width="0.5" width="2.8" height="2.8"/>
		<rect x="321.9" y="113.6" fill="none" stroke="#CDCCCC" stroke-width="0.5" width="2.8" height="2.8"/>
	</g>
	<g>
		<rect x="329.4" y="84" fill="none" stroke="#CDCCCC" stroke-width="0.5" width="2.8" height="2.8"/>
		<rect x="329.4" y="91.4" fill="none" stroke="#CDCCCC" stroke-width="0.5" width="2.8" height="2.8"/>
		<rect x="329.4" y="98.8" fill="none" stroke="#CDCCCC" stroke-width="0.5" width="2.8" height="2.8"/>
		<rect x="329.4" y="106.2" fill="none" stroke="#CDCCCC" stroke-width="0.5" width="2.8" height="2.8"/>
		<rect x="329.4" y="113.6" fill="none" stroke="#CDCCCC" stroke-width="0.5" width="2.8" height="2.8"/>
	</g>
	<g>
		<rect x="337" y="84" fill="none" stroke="#CDCCCC" stroke-width="0.5" width="2.8" height="2.8"/>
		<rect x="337" y="91.4" fill="none" stroke="#CDCCCC" stroke-width="0.5" width="2.8" height="2.8"/>
		<rect x="337" y="98.8" fill="none" stroke="#CDCCCC" stroke-width="0.5" width="2.8" height="2.8"/>
		<rect x="337" y="106.2" fill="none" stroke="#CDCCCC" stroke-width="0.5" width="2.8" height="2.8"/>
		<rect x="337" y="113.6" fill="none" stroke="#CDCCCC" stroke-width="0.5" width="2.8" height="2.8"/>
	</g>
	<g>
		<rect x="344.5" y="84" fill="none" stroke="#CDCCCC" stroke-width="0.5" width="2.8" height="2.8"/>
		<rect x="344.5" y="91.4" fill="none" stroke="#CDCCCC" stroke-width="0.5" width="2.8" height="2.8"/>
		<rect x="344.5" y="98.8" fill="none" stroke="#CDCCCC" stroke-width="0.5" width="2.8" height="2.8"/>
		<rect x="344.5" y="106.2" fill="none" stroke="#CDCCCC" stroke-width="0.5" width="2.8" height="2.8"/>
		<rect x="344.5" y="113.6" fill="none" stroke="#CDCCCC" stroke-width="0.5" width="2.8" height="2.8"/>
	</g>
	<g>
		<rect x="352.1" y="84" fill="none" stroke="#CDCCCC" stroke-width="0.5" width="2.8" height="2.8"/>
		<rect x="352.1" y="91.4" fill="none" stroke="#CDCCCC" stroke-width="0.5" width="2.8" height="2.8"/>
		<rect x="352.1" y="98.8" fill="none" stroke="#CDCCCC" stroke-width="0.5" width="2.8" height="2.8"/>
		<rect x="352.1" y="106.2" fill="none" stroke="#CDCCCC" stroke-width="0.5" width="2.8" height="2.8"/>
		<rect x="352.1" y="113.6" fill="none" stroke="#CDCCCC" stroke-width="0.5" width="2.8" height="2.8"/>
	</g>
	<g>
		<rect x="359.6" y="84" fill="none" stroke="#CDCCCC" stroke-width="0.5" width="2.8" height="2.8"/>
		<rect x="359.6" y="91.4" fill="none" stroke="#CDCCCC" stroke-width="0.5" width="2.8" height="2.8"/>
		<rect x="359.6" y="98.8" fill="none" stroke="#CDCCCC" stroke-width="0.5" width="2.8" height="2.8"/>
		<rect x="359.6" y="106.2" fill="none" stroke="#CDCCCC" stroke-width="0.5" width="2.8" height="2.8"/>
		<rect x="359.6" y="113.6" fill="none" stroke="#CDCCCC" stroke-width="0.5" width="2.8" height="2.8"/>
	</g>
	<g>
		<rect x="367.2" y="84" fill="none" stroke="#CDCCCC" stroke-width="0.5" width="2.8" height="2.8"/>
		<rect x="367.2" y="91.4" fill="none" stroke="#CDCCCC" stroke-width="0.5" width="2.8" height="2.8"/>
		<rect x="367.2" y="98.8" fill="none" stroke="#CDCCCC" stroke-width="0.5" width="2.8" height="2.8"/>
		<rect x="367.2" y="106.2" fill="none" stroke="#CDCCCC" stroke-width="0.5" width="2.8" height="2.8"/>
		<rect x="367.2" y="113.6" fill="none" stroke="#CDCCCC" stroke-width="0.5" width="2.8" height="2.8"/>
	</g>
	<g>
		<rect x="374.8" y="84" fill="none" stroke="#CDCCCC" stroke-width="0.5" width="2.8" height="2.8"/>
		<rect x="374.8" y="91.4" fill="none" stroke="#CDCCCC" stroke-width="0.5" width="2.8" height="2.8"/>
		<rect x="374.8" y="98.8" fill="none" stroke="#CDCCCC" stroke-width="0.5" width="2.8" height="2.8"/>
		<rect x="374.8" y="106.2" fill="none" stroke="#CDCCCC" stroke-width="0.5" width="2.8" height="2.8"/>
		<rect x="374.8" y="113.6" fill="none" stroke="#CDCCCC" stroke-width="0.5" width="2.8" height="2.8"/>
	</g>
	<g>
		<rect x="382.4" y="84" fill="none" stroke="#CDCCCC" stroke-width="0.5" width="2.8" height="2.8"/>
		<rect x="382.4" y="91.4" fill="none" stroke="#CDCCCC" stroke-width="0.5" width="2.8" height="2.8"/>
		<rect x="382.4" y="98.8" fill="none" stroke="#CDCCCC" stroke-width="0.5" width="2.8" height="2.8"/>
		<rect x="382.4" y="106.2" fill="none" stroke="#CDCCCC" stroke-width="0.5" width="2.8" height="2.8"/>
		<rect x="382.4" y="113.6" fill="none" stroke="#CDCCCC" stroke-width="0.5" width="2.8" height="2.8"/>
	</g>
	<g>
		<rect x="389.9" y="84" fill="none" stroke="#CDCCCC" stroke-width="0.5" width="2.8" height="2.8"/>
		<rect x="389.9" y="91.4" fill="none" stroke="#CDCCCC" stroke-width="0.5" width="2.8" height="2.8"/>
		<rect x="389.9" y="98.8" fill="none" stroke="#CDCCCC" stroke-width="0.5" width="2.8" height="2.8"/>
		<rect x="389.9" y="106.2" fill="none" stroke="#CDCCCC" stroke-width="0.5" width="2.8" height="2.8"/>
		<rect x="389.9" y="113.6" fill="none" stroke="#CDCCCC" stroke-width="0.5" width="2.8" height="2.8"/>
	</g>
	<g>
		<rect x="397.5" y="84" fill="none" stroke="#CDCCCC" stroke-width="0.5" width="2.8" height="2.8"/>
		<rect x="397.5" y="91.4" fill="none" stroke="#CDCCCC" stroke-width="0.5" width="2.8" height="2.8"/>
		<rect x="397.5" y="98.8" fill="none" stroke="#CDCCCC" stroke-width="0.5" width="2.8" height="2.8"/>
		<rect x="397.5" y="106.2" fill="none" stroke="#CDCCCC" stroke-width="0.5" width="2.8" height="2.8"/>
		<rect x="397.5" y="113.6" fill="none" stroke="#CDCCCC" stroke-width="0.5" width="2.8" height="2.8"/>
	</g>
	<g>
		<rect x="405" y="84" fill="none" stroke="#CDCCCC" stroke-width="0.5" width="2.8" height="2.8"/>
		<rect x="405" y="91.4" fill="none" stroke="#CDCCCC" stroke-width="0.5" width="2.8" height="2.8"/>
		<rect x="405" y="98.8" fill="none" stroke="#CDCCCC" stroke-width="0.5" width="2.8" height="2.8"/>
		<rect x="405" y="106.2" fill="none" stroke="#CDCCCC" stroke-width="0.5" width="2.8" height="2.8"/>
		<rect x="405" y="113.6" fill="none" stroke="#CDCCCC" stroke-width="0.5" width="2.8" height="2.8"/>
	</g>
	<g>
		<rect x="412.6" y="84" fill="none" stroke="#CDCCCC" stroke-width="0.5" width="2.8" height="2.8"/>
		<rect x="412.6" y="91.4" fill="none" stroke="#CDCCCC" stroke-width="0.5" width="2.8" height="2.8"/>
		<rect x="412.6" y="98.8" fill="none" stroke="#CDCCCC" stroke-width="0.5" width="2.8" height="2.8"/>
		<rect x="412.6" y="106.2" fill="none" stroke="#CDCCCC" stroke-width="0.5" width="2.8" height="2.8"/>
		<rect x="412.6" y="113.6" fill="none" stroke="#CDCCCC" stroke-width="0.5" width="2.8" height="2.8"/>
	</g>
	<g>
		<rect x="420.3" y="84" fill="none" stroke="#CDCCCC" stroke-width="0.5" width="2.8" height="2.8"/>
		<rect x="420.3" y="91.4" fill="none" stroke="#CDCCCC" stroke-width="0.5" width="2.8" height="2.8"/>
		<rect x="420.3" y="98.8" fill="none" stroke="#CDCCCC" stroke-width="0.5" width="2.8" height="2.8"/>
		<rect x="420.3" y="106.2" fill="none" stroke="#CDCCCC" stroke-width="0.5" width="2.8" height="2.8"/>
		<rect x="420.3" y="113.6" fill="none" stroke="#CDCCCC" stroke-width="0.5" width="2.8" height="2.8"/>
	</g>
	<g>
		<rect x="427.8" y="84" fill="none" stroke="#CDCCCC" stroke-width="0.5" width="2.8" height="2.8"/>
		<rect x="427.8" y="91.4" fill="none" stroke="#CDCCCC" stroke-width="0.5" width="2.8" height="2.8"/>
		<rect x="427.8" y="98.8" fill="none" stroke="#CDCCCC" stroke-width="0.5" width="2.8" height="2.8"/>
		<rect x="427.8" y="106.2" fill="none" stroke="#CDCCCC" stroke-width="0.5" width="2.8" height="2.8"/>
		<rect x="427.8" y="113.6" fill="none" stroke="#CDCCCC" stroke-width="0.5" width="2.8" height="2.8"/>
	</g>
	<g>
		<rect x="435.4" y="84" fill="none" stroke="#CDCCCC" stroke-width="0.5" width="2.8" height="2.8"/>
		<rect x="435.4" y="91.4" fill="none" stroke="#CDCCCC" stroke-width="0.5" width="2.8" height="2.8"/>
		<rect x="435.4" y="98.8" fill="none" stroke="#CDCCCC" stroke-width="0.5" width="2.8" height="2.8"/>
		<rect x="435.4" y="106.2" fill="none" stroke="#CDCCCC" stroke-width="0.5" width="2.8" height="2.8"/>
		<rect x="435.4" y="113.6" fill="none" stroke="#CDCCCC" stroke-width="0.5" width="2.8" height="2.8"/>
	</g>
	<g>
		<rect x="442.9" y="84" fill="none" stroke="#CDCCCC" stroke-width="0.5" width="2.8" height="2.8"/>
		<rect x="442.9" y="91.4" fill="none" stroke="#CDCCCC" stroke-width="0.5" width="2.8" height="2.8"/>
		<rect x="442.9" y="98.8" fill="none" stroke="#CDCCCC" stroke-width="0.5" width="2.8" height="2.8"/>
		<rect x="442.9" y="106.2" fill="none" stroke="#CDCCCC" stroke-width="0.5" width="2.8" height="2.8"/>
		<rect x="442.9" y="113.6" fill="none" stroke="#CDCCCC" stroke-width="0.5" width="2.8" height="2.8"/>
	</g>
	<g>
		<rect x="450.5" y="84" fill="none" stroke="#CDCCCC" stroke-width="0.5" width="2.8" height="2.8"/>
		<rect x="450.5" y="91.4" fill="none" stroke="#CDCCCC" stroke-width="0.5" width="2.8" height="2.8"/>
		<rect x="450.5" y="98.8" fill="none" stroke="#CDCCCC" stroke-width="0.5" width="2.8" height="2.8"/>
		<rect x="450.5" y="106.2" fill="none" stroke="#CDCCCC" stroke-width="0.5" width="2.8" height="2.8"/>
		<rect x="450.5" y="113.6" fill="none" stroke="#CDCCCC" stroke-width="0.5" width="2.8" height="2.8"/>
	</g>
	<g>
		<rect x="458" y="84" fill="none" stroke="#CDCCCC" stroke-width="0.5" width="2.8" height="2.8"/>
		<rect x="458" y="91.4" fill="none" stroke="#CDCCCC" stroke-width="0.5" width="2.8" height="2.8"/>
		<rect x="458" y="98.8" fill="none" stroke="#CDCCCC" stroke-width="0.5" width="2.8" height="2.8"/>
		<rect x="458" y="106.2" fill="none" stroke="#CDCCCC" stroke-width="0.5" width="2.8" height="2.8"/>
		<rect x="458" y="113.6" fill="none" stroke="#CDCCCC" stroke-width="0.5" width="2.8" height="2.8"/>
	</g>
	<g>
		<rect x="465.6" y="84" fill="none" stroke="#CDCCCC" stroke-width="0.5" width="2.8" height="2.8"/>
		<rect x="465.6" y="91.4" fill="none" stroke="#CDCCCC" stroke-width="0.5" width="2.8" height="2.8"/>
		<rect x="465.6" y="98.8" fill="none" stroke="#CDCCCC" stroke-width="0.5" width="2.8" height="2.8"/>
		<rect x="465.6" y="106.2" fill="none" stroke="#CDCCCC" stroke-width="0.5" width="2.8" height="2.8"/>
		<rect x="465.6" y="113.6" fill="none" stroke="#CDCCCC" stroke-width="0.5" width="2.8" height="2.8"/>
	</g>
	<g>
		<rect x="473.2" y="84" fill="none" stroke="#CDCCCC" stroke-width="0.5" width="2.8" height="2.8"/>
		<rect x="473.2" y="91.4" fill="none" stroke="#CDCCCC" stroke-width="0.5" width="2.8" height="2.8"/>
		<rect x="473.2" y="98.8" fill="none" stroke="#CDCCCC" stroke-width="0.5" width="2.8" height="2.8"/>
		<rect x="473.2" y="106.2" fill="none" stroke="#CDCCCC" stroke-width="0.5" width="2.8" height="2.8"/>
		<rect x="473.2" y="113.6" fill="none" stroke="#CDCCCC" stroke-width="0.5" width="2.8" height="2.8"/>
	</g>
	<g>
		<rect x="480.8" y="84" fill="none" stroke="#CDCCCC" stroke-width="0.5" width="2.8" height="2.8"/>
		<rect x="480.8" y="91.4" fill="none" stroke="#CDCCCC" stroke-width="0.5" width="2.8" height="2.8"/>
		<rect x="480.8" y="98.8" fill="none" stroke="#CDCCCC" stroke-width="0.5" width="2.8" height="2.8"/>
		<rect x="480.8" y="106.2" fill="none" stroke="#CDCCCC" stroke-width="0.5" width="2.8" height="2.8"/>
		<rect x="480.8" y="113.6" fill="none" stroke="#CDCCCC" stroke-width="0.5" width="2.8" height="2.8"/>
	</g>
	<g>
		<rect x="488.3" y="84" fill="none" stroke="#CDCCCC" stroke-width="0.5" width="2.8" height="2.8"/>
		<rect x="488.3" y="91.4" fill="none" stroke="#CDCCCC" stroke-width="0.5" width="2.8" height="2.8"/>
		<rect x="488.3" y="98.8" fill="none" stroke="#CDCCCC" stroke-width="0.5" width="2.8" height="2.8"/>
		<rect x="488.3" y="106.2" fill="none" stroke="#CDCCCC" stroke-width="0.5" width="2.8" height="2.8"/>
		<rect x="488.3" y="113.6" fill="none" stroke="#CDCCCC" stroke-width="0.5" width="2.8" height="2.8"/>
	</g>
	<g>
		<rect x="291.6" y="84" fill="none" stroke="#CDCCCC" stroke-width="0.5" width="2.8" height="2.8"/>
		<rect x="291.6" y="91.4" fill="none" stroke="#CDCCCC" stroke-width="0.5" width="2.8" height="2.8"/>
		<rect x="291.6" y="98.8" fill="none" stroke="#CDCCCC" stroke-width="0.5" width="2.8" height="2.8"/>
		<rect x="291.6" y="106.2" fill="none" stroke="#CDCCCC" stroke-width="0.5" width="2.8" height="2.8"/>
		<rect x="291.6" y="113.6" fill="none" stroke="#CDCCCC" stroke-width="0.5" width="2.8" height="2.8"/>
	</g>
	<g>
		<rect x="299.1" y="84" fill="none" stroke="#CDCCCC" stroke-width="0.5" width="2.8" height="2.8"/>
		<rect x="299.1" y="91.4" fill="none" stroke="#CDCCCC" stroke-width="0.5" width="2.8" height="2.8"/>
		<rect x="299.1" y="98.8" fill="none" stroke="#CDCCCC" stroke-width="0.5" width="2.8" height="2.8"/>
		<rect x="299.1" y="106.2" fill="none" stroke="#CDCCCC" stroke-width="0.5" width="2.8" height="2.8"/>
		<rect x="299.1" y="113.6" fill="none" stroke="#CDCCCC" stroke-width="0.5" width="2.8" height="2.8"/>
	</g>
	<g>
		<rect x="306.7" y="84" fill="none" stroke="#CDCCCC" stroke-width="0.5" width="2.8" height="2.8"/>
		<rect x="306.7" y="91.4" fill="none" stroke="#CDCCCC" stroke-width="0.5" width="2.8" height="2.8"/>
		<rect x="306.7" y="98.8" fill="none" stroke="#CDCCCC" stroke-width="0.5" width="2.8" height="2.8"/>
		<rect x="306.7" y="106.2" fill="none" stroke="#CDCCCC" stroke-width="0.5" width="2.8" height="2.8"/>
		<rect x="306.7" y="113.6" fill="none" stroke="#CDCCCC" stroke-width="0.5" width="2.8" height="2.8"/>
	</g>
	<g>
		<rect x="314.2" y="84" fill="none" stroke="#CDCCCC" stroke-width="0.5" width="2.8" height="2.8"/>
		<rect x="314.2" y="91.4" fill="none" stroke="#CDCCCC" stroke-width="0.5" width="2.8" height="2.8"/>
		<rect x="314.2" y="98.8" fill="none" stroke="#CDCCCC" stroke-width="0.5" width="2.8" height="2.8"/>
		<rect x="314.2" y="106.2" fill="none" stroke="#CDCCCC" stroke-width="0.5" width="2.8" height="2.8"/>
		<rect x="314.2" y="113.6" fill="none" stroke="#CDCCCC" stroke-width="0.5" width="2.8" height="2.8"/>
	</g>
	<g>
		<rect x="268.8" y="84" fill="none" stroke="#CDCCCC" stroke-width="0.5" width="2.8" height="2.8"/>
		<rect x="268.8" y="91.4" fill="none" stroke="#CDCCCC" stroke-width="0.5" width="2.8" height="2.8"/>
		<rect x="268.8" y="98.8" fill="none" stroke="#CDCCCC" stroke-width="0.5" width="2.8" height="2.8"/>
		<rect x="268.8" y="106.2" fill="none" stroke="#CDCCCC" stroke-width="0.5" width="2.8" height="2.8"/>
		<rect x="268.8" y="113.6" fill="none" stroke="#CDCCCC" stroke-width="0.5" width="2.8" height="2.8"/>
	</g>
	<g>
		<rect x="276.5" y="84" fill="none" stroke="#CDCCCC" stroke-width="0.5" width="2.8" height="2.8"/>
		<rect x="276.5" y="91.4" fill="none" stroke="#CDCCCC" stroke-width="0.5" width="2.8" height="2.8"/>
		<rect x="276.5" y="98.8" fill="none" stroke="#CDCCCC" stroke-width="0.5" width="2.8" height="2.8"/>
		<rect x="276.5" y="106.2" fill="none" stroke="#CDCCCC" stroke-width="0.5" width="2.8" height="2.8"/>
		<rect x="276.5" y="113.6" fill="none" stroke="#CDCCCC" stroke-width="0.5" width="2.8" height="2.8"/>
	</g>
	<g>
		<rect x="284" y="84" fill="none" stroke="#CDCCCC" stroke-width="0.5" width="2.8" height="2.8"/>
		<rect x="284" y="91.4" fill="none" stroke="#CDCCCC" stroke-width="0.5" width="2.8" height="2.8"/>
		<rect x="284" y="98.8" fill="none" stroke="#CDCCCC" stroke-width="0.5" width="2.8" height="2.8"/>
		<rect x="284" y="106.2" fill="none" stroke="#CDCCCC" stroke-width="0.5" width="2.8" height="2.8"/>
		<rect x="284" y="113.6" fill="none" stroke="#CDCCCC" stroke-width="0.5" width="2.8" height="2.8"/>
	</g>
</g>
<g>
	<g>
		<rect x="321.9" y="135.4" fill="none" stroke="#CDCCCC" stroke-width="0.5" width="2.8" height="2.8"/>
		<rect x="321.9" y="142.8" fill="none" stroke="#CDCCCC" stroke-width="0.5" width="2.8" height="2.8"/>
		<rect x="321.9" y="150.2" fill="none" stroke="#CDCCCC" stroke-width="0.5" width="2.8" height="2.8"/>
		<rect x="321.9" y="157.7" fill="none" stroke="#CDCCCC" stroke-width="0.5" width="2.8" height="2.8"/>
		<rect x="321.9" y="165.2" fill="none" stroke="#CDCCCC" stroke-width="0.5" width="2.8" height="2.8"/>
	</g>
	<g>
		<rect x="329.4" y="135.4" fill="none" stroke="#CDCCCC" stroke-width="0.5" width="2.8" height="2.8"/>
		<rect x="329.4" y="142.8" fill="none" stroke="#CDCCCC" stroke-width="0.5" width="2.8" height="2.8"/>
		<rect x="329.4" y="150.2" fill="none" stroke="#CDCCCC" stroke-width="0.5" width="2.8" height="2.8"/>
		<rect x="329.4" y="157.7" fill="none" stroke="#CDCCCC" stroke-width="0.5" width="2.8" height="2.8"/>
		<rect x="329.4" y="165.2" fill="none" stroke="#CDCCCC" stroke-width="0.5" width="2.8" height="2.8"/>
	</g>
	<g>
		<rect x="337" y="135.4" fill="none" stroke="#CDCCCC" stroke-width="0.5" width="2.8" height="2.8"/>
		<rect x="337" y="142.8" fill="none" stroke="#CDCCCC" stroke-width="0.5" width="2.8" height="2.8"/>
		<rect x="337" y="150.2" fill="none" stroke="#CDCCCC" stroke-width="0.5" width="2.8" height="2.8"/>
		<rect x="337" y="157.7" fill="none" stroke="#CDCCCC" stroke-width="0.5" width="2.8" height="2.8"/>
		<rect x="337" y="165.2" fill="none" stroke="#CDCCCC" stroke-width="0.5" width="2.8" height="2.8"/>
	</g>
	<g>
		<rect x="344.5" y="135.4" fill="none" stroke="#CDCCCC" stroke-width="0.5" width="2.8" height="2.8"/>
		<rect x="344.5" y="142.8" fill="none" stroke="#CDCCCC" stroke-width="0.5" width="2.8" height="2.8"/>
		<rect x="344.5" y="150.2" fill="none" stroke="#CDCCCC" stroke-width="0.5" width="2.8" height="2.8"/>
		<rect x="344.5" y="157.7" fill="none" stroke="#CDCCCC" stroke-width="0.5" width="2.8" height="2.8"/>
		<rect x="344.5" y="165.2" fill="none" stroke="#CDCCCC" stroke-width="0.5" width="2.8" height="2.8"/>
	</g>
	<g>
		<rect x="352.1" y="135.4" fill="none" stroke="#CDCCCC" stroke-width="0.5" width="2.8" height="2.8"/>
		<rect x="352.1" y="142.8" fill="none" stroke="#CDCCCC" stroke-width="0.5" width="2.8" height="2.8"/>
		<rect x="352.1" y="150.2" fill="none" stroke="#CDCCCC" stroke-width="0.5" width="2.8" height="2.8"/>
		<rect x="352.1" y="157.7" fill="none" stroke="#CDCCCC" stroke-width="0.5" width="2.8" height="2.8"/>
		<rect x="352.1" y="165.2" fill="none" stroke="#CDCCCC" stroke-width="0.5" width="2.8" height="2.8"/>
	</g>
	<g>
		<rect x="359.6" y="135.4" fill="none" stroke="#CDCCCC" stroke-width="0.5" width="2.8" height="2.8"/>
		<rect x="359.6" y="142.8" fill="none" stroke="#CDCCCC" stroke-width="0.5" width="2.8" height="2.8"/>
		<rect x="359.6" y="150.2" fill="none" stroke="#CDCCCC" stroke-width="0.5" width="2.8" height="2.8"/>
		<rect x="359.6" y="157.7" fill="none" stroke="#CDCCCC" stroke-width="0.5" width="2.8" height="2.8"/>
		<rect x="359.6" y="165.2" fill="none" stroke="#CDCCCC" stroke-width="0.5" width="2.8" height="2.8"/>
	</g>
	<g>
		<rect x="367.2" y="135.4" fill="none" stroke="#CDCCCC" stroke-width="0.5" width="2.8" height="2.8"/>
		<rect x="367.2" y="142.8" fill="none" stroke="#CDCCCC" stroke-width="0.5" width="2.8" height="2.8"/>
		<rect x="367.2" y="150.2" fill="none" stroke="#CDCCCC" stroke-width="0.5" width="2.8" height="2.8"/>
		<rect x="367.2" y="157.7" fill="none" stroke="#CDCCCC" stroke-width="0.5" width="2.8" height="2.8"/>
		<rect x="367.2" y="165.2" fill="none" stroke="#CDCCCC" stroke-width="0.5" width="2.8" height="2.8"/>
	</g>
	<g>
		<rect x="374.8" y="135.4" fill="none" stroke="#CDCCCC" stroke-width="0.5" width="2.8" height="2.8"/>
		<rect x="374.8" y="142.8" fill="none" stroke="#CDCCCC" stroke-width="0.5" width="2.8" height="2.8"/>
		<rect x="374.8" y="150.2" fill="none" stroke="#CDCCCC" stroke-width="0.5" width="2.8" height="2.8"/>
		<rect x="374.8" y="157.7" fill="none" stroke="#CDCCCC" stroke-width="0.5" width="2.8" height="2.8"/>
		<rect x="374.8" y="165.2" fill="none" stroke="#CDCCCC" stroke-width="0.5" width="2.8" height="2.8"/>
	</g>
	<g>
		<rect x="382.4" y="135.4" fill="none" stroke="#CDCCCC" stroke-width="0.5" width="2.8" height="2.8"/>
		<rect x="382.4" y="142.8" fill="none" stroke="#CDCCCC" stroke-width="0.5" width="2.8" height="2.8"/>
		<rect x="382.4" y="150.2" fill="none" stroke="#CDCCCC" stroke-width="0.5" width="2.8" height="2.8"/>
		<rect x="382.4" y="157.7" fill="none" stroke="#CDCCCC" stroke-width="0.5" width="2.8" height="2.8"/>
		<rect x="382.4" y="165.2" fill="none" stroke="#CDCCCC" stroke-width="0.5" width="2.8" height="2.8"/>
	</g>
	<g>
		<rect x="389.9" y="135.4" fill="none" stroke="#CDCCCC" stroke-width="0.5" width="2.8" height="2.8"/>
		<rect x="389.9" y="142.8" fill="none" stroke="#CDCCCC" stroke-width="0.5" width="2.8" height="2.8"/>
		<rect x="389.9" y="150.2" fill="none" stroke="#CDCCCC" stroke-width="0.5" width="2.8" height="2.8"/>
		<rect x="389.9" y="157.7" fill="none" stroke="#CDCCCC" stroke-width="0.5" width="2.8" height="2.8"/>
		<rect x="389.9" y="165.2" fill="none" stroke="#CDCCCC" stroke-width="0.5" width="2.8" height="2.8"/>
	</g>
	<g>
		<rect x="397.5" y="135.4" fill="none" stroke="#CDCCCC" stroke-width="0.5" width="2.8" height="2.8"/>
		<rect x="397.5" y="142.8" fill="none" stroke="#CDCCCC" stroke-width="0.5" width="2.8" height="2.8"/>
		<rect x="397.5" y="150.2" fill="none" stroke="#CDCCCC" stroke-width="0.5" width="2.8" height="2.8"/>
		<rect x="397.5" y="157.7" fill="none" stroke="#CDCCCC" stroke-width="0.5" width="2.8" height="2.8"/>
		<rect x="397.5" y="165.2" fill="none" stroke="#CDCCCC" stroke-width="0.5" width="2.8" height="2.8"/>
	</g>
	<g>
		<rect x="405" y="135.4" fill="none" stroke="#CDCCCC" stroke-width="0.5" width="2.8" height="2.8"/>
		<rect x="405" y="142.8" fill="none" stroke="#CDCCCC" stroke-width="0.5" width="2.8" height="2.8"/>
		<rect x="405" y="150.2" fill="none" stroke="#CDCCCC" stroke-width="0.5" width="2.8" height="2.8"/>
		<rect x="405" y="157.7" fill="none" stroke="#CDCCCC" stroke-width="0.5" width="2.8" height="2.8"/>
		<rect x="405" y="165.2" fill="none" stroke="#CDCCCC" stroke-width="0.5" width="2.8" height="2.8"/>
	</g>
	<g>
		<rect x="412.6" y="135.4" fill="none" stroke="#CDCCCC" stroke-width="0.5" width="2.8" height="2.8"/>
		<rect x="412.6" y="142.8" fill="none" stroke="#CDCCCC" stroke-width="0.5" width="2.8" height="2.8"/>
		<rect x="412.6" y="150.2" fill="none" stroke="#CDCCCC" stroke-width="0.5" width="2.8" height="2.8"/>
		<rect x="412.6" y="157.7" fill="none" stroke="#CDCCCC" stroke-width="0.5" width="2.8" height="2.8"/>
		<rect x="412.6" y="165.2" fill="none" stroke="#CDCCCC" stroke-width="0.5" width="2.8" height="2.8"/>
	</g>
	<g>
		<rect x="420.3" y="135.4" fill="none" stroke="#CDCCCC" stroke-width="0.5" width="2.8" height="2.8"/>
		<rect x="420.3" y="142.8" fill="none" stroke="#CDCCCC" stroke-width="0.5" width="2.8" height="2.8"/>
		<rect x="420.3" y="150.2" fill="none" stroke="#CDCCCC" stroke-width="0.5" width="2.8" height="2.8"/>
		<rect x="420.3" y="157.7" fill="none" stroke="#CDCCCC" stroke-width="0.5" width="2.8" height="2.8"/>
		<rect x="420.3" y="165.2" fill="none" stroke="#CDCCCC" stroke-width="0.5" width="2.8" height="2.8"/>
	</g>
	<g>
		<rect x="427.8" y="135.4" fill="none" stroke="#CDCCCC" stroke-width="0.5" width="2.8" height="2.8"/>
		<rect x="427.8" y="142.8" fill="none" stroke="#CDCCCC" stroke-width="0.5" width="2.8" height="2.8"/>
		<rect x="427.8" y="150.2" fill="none" stroke="#CDCCCC" stroke-width="0.5" width="2.8" height="2.8"/>
		<rect x="427.8" y="157.7" fill="none" stroke="#CDCCCC" stroke-width="0.5" width="2.8" height="2.8"/>
		<rect x="427.8" y="165.2" fill="none" stroke="#CDCCCC" stroke-width="0.5" width="2.8" height="2.8"/>
	</g>
	<g>
		<rect x="435.4" y="135.4" fill="none" stroke="#CDCCCC" stroke-width="0.5" width="2.8" height="2.8"/>
		<rect x="435.4" y="142.8" fill="none" stroke="#CDCCCC" stroke-width="0.5" width="2.8" height="2.8"/>
		<rect x="435.4" y="150.2" fill="none" stroke="#CDCCCC" stroke-width="0.5" width="2.8" height="2.8"/>
		<rect x="435.4" y="157.7" fill="none" stroke="#CDCCCC" stroke-width="0.5" width="2.8" height="2.8"/>
		<rect x="435.4" y="165.2" fill="none" stroke="#CDCCCC" stroke-width="0.5" width="2.8" height="2.8"/>
	</g>
	<rect x="442.9" y="135.4" fill="none" stroke="#CDCCCC" stroke-width="0.5" width="2.8" height="2.8"/>
	<rect x="442.9" y="142.8" fill="none" stroke="#CDCCCC" stroke-width="0.5" width="2.8" height="2.8"/>
	<rect x="442.9" y="150.2" fill="none" stroke="#CDCCCC" stroke-width="0.5" width="2.8" height="2.8"/>
	<rect x="442.9" y="157.7" fill="none" stroke="#CDCCCC" stroke-width="0.5" width="2.8" height="2.8"/>
	<rect x="442.9" y="165.2" fill="none" stroke="#CDCCCC" stroke-width="0.5" width="2.8" height="2.8"/>
	<rect x="450.5" y="135.4" fill="none" stroke="#CDCCCC" stroke-width="0.5" width="2.8" height="2.8"/>
	<rect x="450.5" y="142.8" fill="none" stroke="#CDCCCC" stroke-width="0.5" width="2.8" height="2.8"/>
	<rect x="450.5" y="150.2" fill="none" stroke="#CDCCCC" stroke-width="0.5" width="2.8" height="2.8"/>
	<rect x="450.5" y="157.7" fill="none" stroke="#CDCCCC" stroke-width="0.5" width="2.8" height="2.8"/>
	<rect x="450.5" y="165.2" fill="none" stroke="#CDCCCC" stroke-width="0.5" width="2.8" height="2.8"/>
	<rect x="458" y="135.4" fill="none" stroke="#CDCCCC" stroke-width="0.5" width="2.8" height="2.8"/>
	<rect x="458" y="142.8" fill="none" stroke="#CDCCCC" stroke-width="0.5" width="2.8" height="2.8"/>
	<rect x="458" y="150.2" fill="none" stroke="#CDCCCC" stroke-width="0.5" width="2.8" height="2.8"/>
	<rect x="458" y="157.7" fill="none" stroke="#CDCCCC" stroke-width="0.5" width="2.8" height="2.8"/>
	<rect x="458" y="165.2" fill="none" stroke="#CDCCCC" stroke-width="0.5" width="2.8" height="2.8"/>
	<rect x="465.6" y="135.4" fill="none" stroke="#CDCCCC" stroke-width="0.5" width="2.8" height="2.8"/>
	<rect x="465.6" y="142.8" fill="none" stroke="#CDCCCC" stroke-width="0.5" width="2.8" height="2.8"/>
	<rect x="465.6" y="150.2" fill="none" stroke="#CDCCCC" stroke-width="0.5" width="2.8" height="2.8"/>
	<rect x="465.6" y="157.7" fill="none" stroke="#CDCCCC" stroke-width="0.5" width="2.8" height="2.8"/>
	<rect x="465.6" y="165.2" fill="none" stroke="#CDCCCC" stroke-width="0.5" width="2.8" height="2.8"/>
	<rect x="473.2" y="135.4" fill="none" stroke="#CDCCCC" stroke-width="0.5" width="2.8" height="2.8"/>
	<rect x="473.2" y="142.8" fill="none" stroke="#CDCCCC" stroke-width="0.5" width="2.8" height="2.8"/>
	<rect x="473.2" y="150.2" fill="none" stroke="#CDCCCC" stroke-width="0.5" width="2.8" height="2.8"/>
	<rect x="473.2" y="157.7" fill="none" stroke="#CDCCCC" stroke-width="0.5" width="2.8" height="2.8"/>
	<rect x="473.2" y="165.2" fill="none" stroke="#CDCCCC" stroke-width="0.5" width="2.8" height="2.8"/>
	<rect x="480.8" y="135.4" fill="none" stroke="#CDCCCC" stroke-width="0.5" width="2.8" height="2.8"/>
	<rect x="480.8" y="142.8" fill="none" stroke="#CDCCCC" stroke-width="0.5" width="2.8" height="2.8"/>
	<rect x="480.8" y="150.2" fill="none" stroke="#CDCCCC" stroke-width="0.5" width="2.8" height="2.8"/>
	<rect x="480.8" y="157.7" fill="none" stroke="#CDCCCC" stroke-width="0.5" width="2.8" height="2.8"/>
	<rect x="480.8" y="165.2" fill="none" stroke="#CDCCCC" stroke-width="0.5" width="2.8" height="2.8"/>
	<rect x="488.3" y="135.4" fill="none" stroke="#CDCCCC" stroke-width="0.5" width="2.8" height="2.8"/>
	<rect x="488.3" y="142.8" fill="none" stroke="#CDCCCC" stroke-width="0.5" width="2.8" height="2.8"/>
	<rect x="488.3" y="150.2" fill="none" stroke="#CDCCCC" stroke-width="0.5" width="2.8" height="2.8"/>
	<rect x="488.3" y="157.7" fill="none" stroke="#CDCCCC" stroke-width="0.5" width="2.8" height="2.8"/>
	<rect x="488.3" y="165.2" fill="none" stroke="#CDCCCC" stroke-width="0.5" width="2.8" height="2.8"/>
	<g>
		<rect x="291.6" y="135.4" fill="none" stroke="#CDCCCC" stroke-width="0.5" width="2.8" height="2.8"/>
		<rect x="291.6" y="142.8" fill="none" stroke="#CDCCCC" stroke-width="0.5" width="2.8" height="2.8"/>
		<rect x="291.6" y="150.2" fill="none" stroke="#CDCCCC" stroke-width="0.5" width="2.8" height="2.8"/>
		<rect x="291.6" y="157.7" fill="none" stroke="#CDCCCC" stroke-width="0.5" width="2.8" height="2.8"/>
		<rect x="291.6" y="165.2" fill="none" stroke="#CDCCCC" stroke-width="0.5" width="2.8" height="2.8"/>
	</g>
	<g>
		<rect x="299.1" y="135.4" fill="none" stroke="#CDCCCC" stroke-width="0.5" width="2.8" height="2.8"/>
		<rect x="299.1" y="142.8" fill="none" stroke="#CDCCCC" stroke-width="0.5" width="2.8" height="2.8"/>
		<rect x="299.1" y="150.2" fill="none" stroke="#CDCCCC" stroke-width="0.5" width="2.8" height="2.8"/>
		<rect x="299.1" y="157.7" fill="none" stroke="#CDCCCC" stroke-width="0.5" width="2.8" height="2.8"/>
		<rect x="299.1" y="165.2" fill="none" stroke="#CDCCCC" stroke-width="0.5" width="2.8" height="2.8"/>
	</g>
	<g>
		<rect x="306.7" y="135.4" fill="none" stroke="#CDCCCC" stroke-width="0.5" width="2.8" height="2.8"/>
		<rect x="306.7" y="142.8" fill="none" stroke="#CDCCCC" stroke-width="0.5" width="2.8" height="2.8"/>
		<rect x="306.7" y="150.2" fill="none" stroke="#CDCCCC" stroke-width="0.5" width="2.8" height="2.8"/>
		<rect x="306.7" y="157.7" fill="none" stroke="#CDCCCC" stroke-width="0.5" width="2.8" height="2.8"/>
		<rect x="306.7" y="165.2" fill="none" stroke="#CDCCCC" stroke-width="0.5" width="2.8" height="2.8"/>
	</g>
	<g>
		<rect x="314.2" y="135.4" fill="none" stroke="#CDCCCC" stroke-width="0.5" width="2.8" height="2.8"/>
		<rect x="314.2" y="142.8" fill="none" stroke="#CDCCCC" stroke-width="0.5" width="2.8" height="2.8"/>
		<rect x="314.2" y="150.2" fill="none" stroke="#CDCCCC" stroke-width="0.5" width="2.8" height="2.8"/>
		<rect x="314.2" y="157.7" fill="none" stroke="#CDCCCC" stroke-width="0.5" width="2.8" height="2.8"/>
		<rect x="314.2" y="165.2" fill="none" stroke="#CDCCCC" stroke-width="0.5" width="2.8" height="2.8"/>
	</g>
	<g>
		<rect x="268.8" y="135.4" fill="none" stroke="#CDCCCC" stroke-width="0.5" width="2.8" height="2.8"/>
		<rect x="268.8" y="142.8" fill="none" stroke="#CDCCCC" stroke-width="0.5" width="2.8" height="2.8"/>
		<rect x="268.8" y="150.2" fill="none" stroke="#CDCCCC" stroke-width="0.5" width="2.8" height="2.8"/>
		<rect x="268.8" y="157.7" fill="none" stroke="#CDCCCC" stroke-width="0.5" width="2.8" height="2.8"/>
		<rect x="268.8" y="165.2" fill="none" stroke="#CDCCCC" stroke-width="0.5" width="2.8" height="2.8"/>
	</g>
	<g>
		<rect x="276.5" y="135.4" fill="none" stroke="#CDCCCC" stroke-width="0.5" width="2.8" height="2.8"/>
		<rect x="276.5" y="142.8" fill="none" stroke="#CDCCCC" stroke-width="0.5" width="2.8" height="2.8"/>
		<rect x="276.5" y="150.2" fill="none" stroke="#CDCCCC" stroke-width="0.5" width="2.8" height="2.8"/>
		<rect x="276.5" y="157.7" fill="none" stroke="#CDCCCC" stroke-width="0.5" width="2.8" height="2.8"/>
		<rect x="276.5" y="165.2" fill="none" stroke="#CDCCCC" stroke-width="0.5" width="2.8" height="2.8"/>
	</g>
	<g>
		<rect x="284" y="135.4" fill="none" stroke="#CDCCCC" stroke-width="0.5" width="2.8" height="2.8"/>
		<rect x="284" y="142.8" fill="none" stroke="#CDCCCC" stroke-width="0.5" width="2.8" height="2.8"/>
		<rect x="284" y="150.2" fill="none" stroke="#CDCCCC" stroke-width="0.5" width="2.8" height="2.8"/>
		<rect x="284" y="157.7" fill="none" stroke="#CDCCCC" stroke-width="0.5" width="2.8" height="2.8"/>
		<rect x="284" y="165.2" fill="none" stroke="#CDCCCC" stroke-width="0.5" width="2.8" height="2.8"/>
	</g>
</g>
<g>
	<g>
		<g>
			<rect x="298.6" y="53.8" fill="none" stroke="#CDCCCC" stroke-width="0.5" width="2.8" height="2.8"/>
			<rect x="291.2" y="53.8" fill="none" stroke="#CDCCCC" stroke-width="0.5" width="2.8" height="2.8"/>
			<rect x="283.7" y="53.8" fill="none" stroke="#CDCCCC" stroke-width="0.5" width="2.8" height="2.8"/>
			<rect x="276.3" y="53.8" fill="none" stroke="#CDCCCC" stroke-width="0.5" width="2.8" height="2.8"/>
			<rect x="268.8" y="53.8" fill="none" stroke="#CDCCCC" stroke-width="0.5" width="2.8" height="2.8"/>
		</g>
		<g>
			<rect x="268.8" y="61.2" fill="none" stroke="#CDCCCC" stroke-width="0.5" width="2.8" height="2.8"/>
			<rect x="276.3" y="61.2" fill="none" stroke="#CDCCCC" stroke-width="0.5" width="2.8" height="2.8"/>
			<rect x="283.7" y="61.2" fill="none" stroke="#CDCCCC" stroke-width="0.5" width="2.8" height="2.8"/>
			<rect x="291.2" y="61.2" fill="none" stroke="#CDCCCC" stroke-width="0.5" width="2.8" height="2.8"/>
			<rect x="298.6" y="61.2" fill="none" stroke="#CDCCCC" stroke-width="0.5" width="2.8" height="2.8"/>
		</g>
	</g>
	<g>
		<g>
			<rect x="344" y="53.8" fill="none" stroke="#CDCCCC" stroke-width="0.5" width="2.8" height="2.8"/>
			<rect x="336.6" y="53.8" fill="none" stroke="#CDCCCC" stroke-width="0.5" width="2.8" height="2.8"/>
			<rect x="329.1" y="53.8" fill="none" stroke="#CDCCCC" stroke-width="0.5" width="2.8" height="2.8"/>
			<rect x="321.6" y="53.8" fill="none" stroke="#CDCCCC" stroke-width="0.5" width="2.8" height="2.8"/>
			<rect x="314.2" y="53.8" fill="none" stroke="#CDCCCC" stroke-width="0.5" width="2.8" height="2.8"/>
		</g>
		<g>
			<rect x="314.2" y="61.2" fill="none" stroke="#CDCCCC" stroke-width="0.5" width="2.8" height="2.8"/>
			<rect x="321.6" y="61.2" fill="none" stroke="#CDCCCC" stroke-width="0.5" width="2.8" height="2.8"/>
			<rect x="329.2" y="61.2" fill="none" stroke="#CDCCCC" stroke-width="0.5" width="2.8" height="2.8"/>
			<rect x="336.6" y="61.2" fill="none" stroke="#CDCCCC" stroke-width="0.5" width="2.8" height="2.8"/>
			<rect x="344" y="61.2" fill="none" stroke="#CDCCCC" stroke-width="0.5" width="2.8" height="2.8"/>
		</g>
	</g>
	<g>
		<g>
			<rect x="389.4" y="53.8" fill="none" stroke="#CDCCCC" stroke-width="0.5" width="2.8" height="2.8"/>
			<rect x="382" y="53.8" fill="none" stroke="#CDCCCC" stroke-width="0.5" width="2.8" height="2.8"/>
			<rect x="374.6" y="53.8" fill="none" stroke="#CDCCCC" stroke-width="0.5" width="2.8" height="2.8"/>
			<rect x="367.1" y="53.8" fill="none" stroke="#CDCCCC" stroke-width="0.5" width="2.8" height="2.8"/>
			<rect x="359.6" y="53.8" fill="none" stroke="#CDCCCC" stroke-width="0.5" width="2.8" height="2.8"/>
		</g>
		<g>
			<rect x="359.6" y="61.2" fill="none" stroke="#CDCCCC" stroke-width="0.5" width="2.8" height="2.8"/>
			<rect x="367.1" y="61.2" fill="none" stroke="#CDCCCC" stroke-width="0.5" width="2.8" height="2.8"/>
			<rect x="374.6" y="61.2" fill="none" stroke="#CDCCCC" stroke-width="0.5" width="2.8" height="2.8"/>
			<rect x="382" y="61.2" fill="none" stroke="#CDCCCC" stroke-width="0.5" width="2.8" height="2.8"/>
			<rect x="389.4" y="61.2" fill="none" stroke="#CDCCCC" stroke-width="0.5" width="2.8" height="2.8"/>
		</g>
	</g>
	<g>
		<g>
			<rect x="434.8" y="53.8" fill="none" stroke="#CDCCCC" stroke-width="0.5" width="2.8" height="2.8"/>
			<rect x="427.4" y="53.8" fill="none" stroke="#CDCCCC" stroke-width="0.5" width="2.8" height="2.8"/>
			<rect x="419.9" y="53.8" fill="none" stroke="#CDCCCC" stroke-width="0.5" width="2.8" height="2.8"/>
			<rect x="412.5" y="53.8" fill="none" stroke="#CDCCCC" stroke-width="0.5" width="2.8" height="2.8"/>
			<rect x="405" y="53.8" fill="none" stroke="#CDCCCC" stroke-width="0.5" width="2.8" height="2.8"/>
		</g>
		<g>
			<rect x="405" y="61.2" fill="none" stroke="#CDCCCC" stroke-width="0.5" width="2.8" height="2.8"/>
			<rect x="412.5" y="61.2" fill="none" stroke="#CDCCCC" stroke-width="0.5" width="2.8" height="2.8"/>
			<rect x="419.9" y="61.2" fill="none" stroke="#CDCCCC" stroke-width="0.5" width="2.8" height="2.8"/>
			<rect x="427.4" y="61.2" fill="none" stroke="#CDCCCC" stroke-width="0.5" width="2.8" height="2.8"/>
			<rect x="434.8" y="61.2" fill="none" stroke="#CDCCCC" stroke-width="0.5" width="2.8" height="2.8"/>
		</g>
	</g>
	<g>
		<g>
			<rect x="480.2" y="53.8" fill="none" stroke="#CDCCCC" stroke-width="0.5" width="2.8" height="2.8"/>
			<rect x="472.7" y="53.8" fill="none" stroke="#CDCCCC" stroke-width="0.5" width="2.8" height="2.8"/>
			<rect x="465.3" y="53.8" fill="none" stroke="#CDCCCC" stroke-width="0.5" width="2.8" height="2.8"/>
			<rect x="457.9" y="53.8" fill="none" stroke="#CDCCCC" stroke-width="0.5" width="2.8" height="2.8"/>
			<rect x="450.5" y="53.8" fill="none" stroke="#CDCCCC" stroke-width="0.5" width="2.8" height="2.8"/>
		</g>
		<g>
			<rect x="450.5" y="61.2" fill="none" stroke="#CDCCCC" stroke-width="0.5" width="2.8" height="2.8"/>
			<rect x="457.9" y="61.2" fill="none" stroke="#CDCCCC" stroke-width="0.5" width="2.8" height="2.8"/>
			<rect x="465.3" y="61.2" fill="none" stroke="#CDCCCC" stroke-width="0.5" width="2.8" height="2.8"/>
			<rect x="472.7" y="61.2" fill="none" stroke="#CDCCCC" stroke-width="0.5" width="2.8" height="2.8"/>
			<rect x="480.2" y="61.2" fill="none" stroke="#CDCCCC" stroke-width="0.5" width="2.8" height="2.8"/>
		</g>
	</g>
</g>
<g>
	<g>
		<g>
			<rect x="298.6" y="189.1" fill="none" stroke="#CDCCCC" stroke-width="0.5" width="2.8" height="2.8"/>
			<rect x="291.2" y="189.1" fill="none" stroke="#CDCCCC" stroke-width="0.5" width="2.8" height="2.8"/>
			<rect x="283.7" y="189.1" fill="none" stroke="#CDCCCC" stroke-width="0.5" width="2.8" height="2.8"/>
			<rect x="276.3" y="189.1" fill="none" stroke="#CDCCCC" stroke-width="0.5" width="2.8" height="2.8"/>
			<rect x="268.8" y="189.1" fill="none" stroke="#CDCCCC" stroke-width="0.5" width="2.8" height="2.8"/>
		</g>
		<g>
			<rect x="268.8" y="196.6" fill="none" stroke="#CDCCCC" stroke-width="0.5" width="2.8" height="2.8"/>
			<rect x="276.3" y="196.6" fill="none" stroke="#CDCCCC" stroke-width="0.5" width="2.8" height="2.8"/>
			<rect x="283.7" y="196.6" fill="none" stroke="#CDCCCC" stroke-width="0.5" width="2.8" height="2.8"/>
			<rect x="291.2" y="196.6" fill="none" stroke="#CDCCCC" stroke-width="0.5" width="2.8" height="2.8"/>
			<rect x="298.6" y="196.6" fill="none" stroke="#CDCCCC" stroke-width="0.5" width="2.8" height="2.8"/>
		</g>
	</g>
	<g>
		<g>
			<rect x="344" y="189.1" fill="none" stroke="#CDCCCC" stroke-width="0.5" width="2.8" height="2.8"/>
			<rect x="336.6" y="189.1" fill="none" stroke="#CDCCCC" stroke-width="0.5" width="2.8" height="2.8"/>
			<rect x="329.1" y="189.1" fill="none" stroke="#CDCCCC" stroke-width="0.5" width="2.8" height="2.8"/>
			<rect x="321.6" y="189.1" fill="none" stroke="#CDCCCC" stroke-width="0.5" width="2.8" height="2.8"/>
			<rect x="314.2" y="189.1" fill="none" stroke="#CDCCCC" stroke-width="0.5" width="2.8" height="2.8"/>
		</g>
		<g>
			<rect x="314.2" y="196.6" fill="none" stroke="#CDCCCC" stroke-width="0.5" width="2.8" height="2.8"/>
			<rect x="321.6" y="196.6" fill="none" stroke="#CDCCCC" stroke-width="0.5" width="2.8" height="2.8"/>
			<rect x="329.2" y="196.6" fill="none" stroke="#CDCCCC" stroke-width="0.5" width="2.8" height="2.8"/>
			<rect x="336.6" y="196.6" fill="none" stroke="#CDCCCC" stroke-width="0.5" width="2.8" height="2.8"/>
			<rect x="344" y="196.6" fill="none" stroke="#CDCCCC" stroke-width="0.5" width="2.8" height="2.8"/>
		</g>
	</g>
	<g>
		<g>
			<rect x="389.4" y="189.1" fill="none" stroke="#CDCCCC" stroke-width="0.5" width="2.8" height="2.8"/>
			<rect x="382" y="189.1" fill="none" stroke="#CDCCCC" stroke-width="0.5" width="2.8" height="2.8"/>
			<rect x="374.6" y="189.1" fill="none" stroke="#CDCCCC" stroke-width="0.5" width="2.8" height="2.8"/>
			<rect x="367.1" y="189.1" fill="none" stroke="#CDCCCC" stroke-width="0.5" width="2.8" height="2.8"/>
			<rect x="359.6" y="189.1" fill="none" stroke="#CDCCCC" stroke-width="0.5" width="2.8" height="2.8"/>
		</g>
		<g>
			<rect x="359.6" y="196.6" fill="none" stroke="#CDCCCC" stroke-width="0.5" width="2.8" height="2.8"/>
			<rect x="367.1" y="196.6" fill="none" stroke="#CDCCCC" stroke-width="0.5" width="2.8" height="2.8"/>
			<rect x="374.6" y="196.6" fill="none" stroke="#CDCCCC" stroke-width="0.5" width="2.8" height="2.8"/>
			<rect x="382" y="196.6" fill="none" stroke="#CDCCCC" stroke-width="0.5" width="2.8" height="2.8"/>
			<rect x="389.4" y="196.6" fill="none" stroke="#CDCCCC" stroke-width="0.5" width="2.8" height="2.8"/>
		</g>
	</g>
	<g>
		<g>
			<rect x="434.8" y="189.1" fill="none" stroke="#CDCCCC" stroke-width="0.5" width="2.8" height="2.8"/>
			<rect x="427.4" y="189.1" fill="none" stroke="#CDCCCC" stroke-width="0.5" width="2.8" height="2.8"/>
			<rect x="419.9" y="189.1" fill="none" stroke="#CDCCCC" stroke-width="0.5" width="2.8" height="2.8"/>
			<rect x="412.5" y="189.1" fill="none" stroke="#CDCCCC" stroke-width="0.5" width="2.8" height="2.8"/>
			<rect x="405" y="189.1" fill="none" stroke="#CDCCCC" stroke-width="0.5" width="2.8" height="2.8"/>
		</g>
		<g>
			<rect x="405" y="196.6" fill="none" stroke="#CDCCCC" stroke-width="0.5" width="2.8" height="2.8"/>
			<rect x="412.5" y="196.6" fill="none" stroke="#CDCCCC" stroke-width="0.5" width="2.8" height="2.8"/>
			<rect x="419.9" y="196.6" fill="none" stroke="#CDCCCC" stroke-width="0.5" width="2.8" height="2.8"/>
			<rect x="427.4" y="196.6" fill="none" stroke="#CDCCCC" stroke-width="0.5" width="2.8" height="2.8"/>
			<rect x="434.8" y="196.6" fill="none" stroke="#CDCCCC" stroke-width="0.5" width="2.8" height="2.8"/>
		</g>
	</g>
	<g>
		<g>
			<rect x="480.2" y="189.1" fill="none" stroke="#CDCCCC" stroke-width="0.5" width="2.8" height="2.8"/>
			<rect x="472.7" y="189.1" fill="none" stroke="#CDCCCC" stroke-width="0.5" width="2.8" height="2.8"/>
			<rect x="465.3" y="189.1" fill="none" stroke="#CDCCCC" stroke-width="0.5" width="2.8" height="2.8"/>
			<rect x="457.9" y="189.1" fill="none" stroke="#CDCCCC" stroke-width="0.5" width="2.8" height="2.8"/>
			<rect x="450.5" y="189.1" fill="none" stroke="#CDCCCC" stroke-width="0.5" width="2.8" height="2.8"/>
		</g>
		<g>
			<rect x="450.5" y="196.6" fill="none" stroke="#CDCCCC" stroke-width="0.5" width="2.8" height="2.8"/>
			<rect x="457.9" y="196.6" fill="none" stroke="#CDCCCC" stroke-width="0.5" width="2.8" height="2.8"/>
			<rect x="465.3" y="196.6" fill="none" stroke="#CDCCCC" stroke-width="0.5" width="2.8" height="2.8"/>
			<rect x="472.7" y="196.6" fill="none" stroke="#CDCCCC" stroke-width="0.5" width="2.8" height="2.8"/>
			<rect x="480.2" y="196.6" fill="none" stroke="#CDCCCC" stroke-width="0.5" width="2.8" height="2.8"/>
		</g>
	</g>
</g>
<rect x="252.5" y="46.2" fill="none" stroke="#CDCCCC" stroke-width="0.5" width="254.5" height="158.8"/>
<text transform="matrix(1 0 0 1 330.7573 20.1562)" fill="#010101" font-family="'TheSerif-HP5Plain'" font-size="9.8978">+5V</text>
<text transform="matrix(1 0 0 1 423.9023 20.1562)" fill="#010101" font-family="'TheSerif-HP5Plain'" font-size="9.8978">Ground</text>
<g>
	<text transform="matrix(1 0 0 1 232.9541 20.1562)" fill="#010101" font-family="'TheSerif-HP5Plain'" font-size="9.8978">Digital I/O Pin 4</text>
</g>
<line fill="none" stroke="#61696A" stroke-width="0.9841" x1="452.8" y1="144.3" x2="429.2" y2="144.3"/>
<line fill="none" stroke="#010101" stroke-linecap="round" x1="384" y1="144.3" x2="406" y2="144.3"/>
<rect x="405.8" y="141.2" fill="#CDCCCC" width="23.6" height="6.4"/>
<rect x="408" y="141.1" fill="#818181" width="3.2" height="6.6"/>
<rect x="412.6" y="141.1" fill="#010101" width="3.2" height="6.6"/>
<rect x="417.2" y="141.1" fill="#9A9A9A" width="3.2" height="6.6"/>
<rect x="423.4" y="141.1" fill="#B4B4B4" width="3.2" height="6.6"/>
<path fill="none" stroke="#221F1F" stroke-width="1.5073" d="M452,136.7"/>
<rect x="375.3" y="113.3" fill="#ABABAB" stroke="#221F1F" stroke-width="0.492" width="2.8" height="2.9"/>
<rect x="382" y="113.3" fill="#ABABAB" stroke="#221F1F" stroke-width="0.492" width="2.8" height="2.9"/>
<rect x="375.3" y="135.7" fill="#ABABAB" stroke="#221F1F" stroke-width="0.492" width="2.8" height="2.9"/>
<rect x="382" y="135.7" fill="#ABABAB" stroke="#221F1F" stroke-width="0.492" width="2.8" height="2.9"/>
<rect x="370.3" y="116.3" fill="#CDCCCC" stroke="#221F1F" stroke-width="0.492" width="20" height="19.6"/>
<circle fill="#FFFFFF" stroke="#221F1F" stroke-width="0.492" cx="380.3" cy="126.1" r="6.7"/>
<circle fill="#010101" cx="380.3" cy="126.1" r="5.1"/>
<text transform="matrix(1 0 0 1 3.5713 91.8071)" fill="#010101" font-family="'TheSerif-HP5Plain'" font-size="9.8978">Digital I/O Pin 4</text>
<circle fill="none" stroke="#010101" stroke-width="0.5" cx="126.9" cy="61.7" r="3.2"/>
<circle fill="none" stroke="#010101" stroke-width="0.5" cx="126.9" cy="80.1" r="3.2"/>
<line fill="none" stroke="#010101" stroke-width="0.5" x1="127.2" y1="29.6" x2="127.2" y2="58.5"/>
<polyline fill="none" stroke="#010101" stroke-width="0.5" points="38.7,111.6 126.8,111.6 126.8,83.3 "/>
<polyline fill="none" stroke="#010101" stroke-width="0.5" points="137.8,56.4 137.8,70 137.8,84.8 "/>
<path fill="none" stroke="#010101" stroke-width="0.5" d="M154.8,69.1"/>
<line fill="none" stroke="#010101" stroke-width="0.5" x1="154.8" y1="70.4" x2="137.8" y2="70.4"/>
<polyline fill="none" stroke="#010101" stroke-width="0.5" points="126.6,169.1 126.6,147.4 134.3,145.2 120.7,139.6 133.9,135.8 
	120.3,130 134.3,125.2 126.7,123.2 126.7,112.2 "/>
<polygon fill="none" stroke="#010101" stroke-width="0.5" points="31.3,104.1 38.3,111.7 31.3,119.5 13.2,119.5 13.2,104.1 "/>
<text transform="matrix(1 0 0 1 116.7134 25.3608)" fill="#010101" font-family="'TheSerif-HP5Plain'" font-size="9.8978">+5V</text>
<text transform="matrix(1 0 0 1 141.541 185.5918)" fill="#010101" font-family="'TheSerif-HP5Plain'" font-size="9.8978">Ground</text>
<g>
	<g>
		<polyline fill="none" stroke="#D3463E" stroke-width="0.45" points="115.2,168.9 137.5,168.9 119.2,168.9 		"/>
		<line fill="none" stroke="#D3463E" stroke-width="0.45" x1="119.4" y1="174.8" x2="133.3" y2="174.8"/>
		<line fill="none" stroke="#D3463E" stroke-width="0.45" x1="123.8" y1="180.4" x2="128.9" y2="180.4"/>
	</g>
	<g>
		<polyline fill="none" stroke="#010101" stroke-width="0.45" points="115.2,168.9 137.5,168.9 119.2,168.9 		"/>
		<line fill="none" stroke="#010101" stroke-width="0.45" x1="119.4" y1="174.8" x2="133.3" y2="174.8"/>
		<line fill="none" stroke="#010101" stroke-width="0.45" x1="123.8" y1="180.4" x2="128.9" y2="180.4"/>
	</g>
</g>
<text transform="matrix(1 0 0 1 165.2021 67.3408)" fill="#010101" font-family="'TheSerif-HP5Plain'" font-size="9.8978">Pulse  </text>
<text transform="matrix(1 0 0 1 165.2021 80.104)" fill="#010101" font-family="'TheSerif-HP5Plain'" font-size="9.8978">switch</text>
<path fill="none" stroke="#818181" stroke-linecap="round" d="M383.9,151.6c0,0-43.6,16.7-72.5-7c-28.9-23.7-40.6-101.1-43.7-118.8"
	/>
<path fill="none" stroke="#414141" stroke-linecap="round" d="M376.3,144.1c0,0-35.1,8.9-49-7c-31.5-35.8,12.5-89.5,11.5-109.9"/>
<path fill="none" stroke="#221F1F" stroke-linecap="round" d="M451,137.6c0,0,15.6,3.8,20.2-27.5c5-34.5-15.5-73.7-30.9-83.9"/>
<text transform="matrix(1 0 0 1 141.6328 139.7685)" fill="#010101" font-family="'TheSerif-HP5Plain'" font-size="9.8978">10K</text>
</svg>
