<?xml version="1.0" encoding="utf-8"?>
<!-- Generator: Adobe Illustrator 18.0.0, SVG Export Plug-In . SVG Version: 6.00 Build 0)  -->
<!DOCTYPE svg PUBLIC "-//W3C//DTD SVG 1.1//EN" "http://www.w3.org/Graphics/SVG/1.1/DTD/svg11.dtd">
<svg version="1.1" id="Layer_1" xmlns="http://www.w3.org/2000/svg" xmlns:xlink="http://www.w3.org/1999/xlink" x="0px" y="0px"
	 viewBox="0 0 687 100" enable-background="new 0 0 687 100" xml:space="preserve">
<g>
	<text transform="matrix(1 0 0 1 321.3284 8.0997)" font-family="'TheSerif-HP5Plain'" font-size="4.6873">Digital I/O Pin 4</text>
</g>
<g>
	<text transform="matrix(1 0 0 1 380.2141 8.0997)" font-family="'TheSerif-HP5Plain'" font-size="4.6873">Ground</text>
</g>
<g>
	<g>
		<g>
			<rect x="339.3" y="37.6" fill="none" stroke="#CCCCCC" stroke-width="0.5" width="1.3" height="1.3"/>
			<rect x="339.3" y="41.1" fill="none" stroke="#CCCCCC" stroke-width="0.5" width="1.3" height="1.3"/>
			<rect x="339.3" y="44.6" fill="none" stroke="#CCCCCC" stroke-width="0.5" width="1.3" height="1.3"/>
			<rect x="339.3" y="48.2" fill="none" stroke="#CCCCCC" stroke-width="0.5" width="1.3" height="1.3"/>
			<rect x="339.3" y="51.7" fill="none" stroke="#CCCCCC" stroke-width="0.5" width="1.3" height="1.3"/>
		</g>
		<g>
			<rect x="342.9" y="37.6" fill="none" stroke="#CCCCCC" stroke-width="0.5" width="1.3" height="1.3"/>
			<rect x="342.9" y="41.1" fill="none" stroke="#CCCCCC" stroke-width="0.5" width="1.3" height="1.3"/>
			<rect x="342.9" y="44.6" fill="none" stroke="#CCCCCC" stroke-width="0.5" width="1.3" height="1.3"/>
			<rect x="342.9" y="48.2" fill="none" stroke="#CCCCCC" stroke-width="0.5" width="1.3" height="1.3"/>
			<rect x="342.9" y="51.7" fill="none" stroke="#CCCCCC" stroke-width="0.5" width="1.3" height="1.3"/>
		</g>
		<g>
			<rect x="346.5" y="37.6" fill="none" stroke="#CCCCCC" stroke-width="0.5" width="1.3" height="1.3"/>
			<rect x="346.5" y="41.1" fill="none" stroke="#CCCCCC" stroke-width="0.5" width="1.3" height="1.3"/>
			<rect x="346.5" y="44.6" fill="none" stroke="#CCCCCC" stroke-width="0.5" width="1.3" height="1.3"/>
			<rect x="346.5" y="48.2" fill="none" stroke="#CCCCCC" stroke-width="0.5" width="1.3" height="1.3"/>
			<rect x="346.5" y="51.7" fill="none" stroke="#CCCCCC" stroke-width="0.5" width="1.3" height="1.3"/>
		</g>
		<g>
			<rect x="350" y="37.6" fill="none" stroke="#CCCCCC" stroke-width="0.5" width="1.3" height="1.3"/>
			<rect x="350" y="41.1" fill="none" stroke="#CCCCCC" stroke-width="0.5" width="1.3" height="1.3"/>
			<rect x="350" y="44.6" fill="none" stroke="#CCCCCC" stroke-width="0.5" width="1.3" height="1.3"/>
			<rect x="350" y="48.2" fill="none" stroke="#CCCCCC" stroke-width="0.5" width="1.3" height="1.3"/>
			<rect x="350" y="51.7" fill="none" stroke="#CCCCCC" stroke-width="0.5" width="1.3" height="1.3"/>
		</g>
		<g>
			<rect x="353.6" y="37.6" fill="none" stroke="#CCCCCC" stroke-width="0.5" width="1.3" height="1.3"/>
			<rect x="353.6" y="41.1" fill="none" stroke="#CCCCCC" stroke-width="0.5" width="1.3" height="1.3"/>
			<rect x="353.6" y="44.6" fill="none" stroke="#CCCCCC" stroke-width="0.5" width="1.3" height="1.3"/>
			<rect x="353.6" y="48.2" fill="none" stroke="#CCCCCC" stroke-width="0.5" width="1.3" height="1.3"/>
			<rect x="353.6" y="51.7" fill="none" stroke="#CCCCCC" stroke-width="0.5" width="1.3" height="1.3"/>
		</g>
		<g>
			<rect x="357.2" y="37.6" fill="none" stroke="#CCCCCC" stroke-width="0.5" width="1.3" height="1.3"/>
			<rect x="357.2" y="41.1" fill="none" stroke="#CCCCCC" stroke-width="0.5" width="1.3" height="1.3"/>
			<rect x="357.2" y="44.6" fill="none" stroke="#CCCCCC" stroke-width="0.5" width="1.3" height="1.3"/>
			<rect x="357.2" y="48.2" fill="none" stroke="#CCCCCC" stroke-width="0.5" width="1.3" height="1.3"/>
			<rect x="357.2" y="51.7" fill="none" stroke="#CCCCCC" stroke-width="0.5" width="1.3" height="1.3"/>
		</g>
		<g>
			<rect x="360.8" y="37.6" fill="none" stroke="#CCCCCC" stroke-width="0.5" width="1.3" height="1.3"/>
			<rect x="360.8" y="41.1" fill="none" stroke="#CCCCCC" stroke-width="0.5" width="1.3" height="1.3"/>
			<rect x="360.8" y="44.6" fill="none" stroke="#CCCCCC" stroke-width="0.5" width="1.3" height="1.3"/>
			<rect x="360.8" y="48.2" fill="none" stroke="#CCCCCC" stroke-width="0.5" width="1.3" height="1.3"/>
			<rect x="360.8" y="51.7" fill="none" stroke="#CCCCCC" stroke-width="0.5" width="1.3" height="1.3"/>
		</g>
		<g>
			<rect x="364.4" y="37.6" fill="none" stroke="#CCCCCC" stroke-width="0.5" width="1.3" height="1.3"/>
			<rect x="364.4" y="41.1" fill="none" stroke="#CCCCCC" stroke-width="0.5" width="1.3" height="1.3"/>
			<rect x="364.4" y="44.6" fill="none" stroke="#CCCCCC" stroke-width="0.5" width="1.3" height="1.3"/>
			<rect x="364.4" y="48.2" fill="none" stroke="#CCCCCC" stroke-width="0.5" width="1.3" height="1.3"/>
			<rect x="364.4" y="51.7" fill="none" stroke="#CCCCCC" stroke-width="0.5" width="1.3" height="1.3"/>
		</g>
		<g>
			<rect x="368" y="37.6" fill="none" stroke="#CCCCCC" stroke-width="0.5" width="1.3" height="1.3"/>
			<rect x="368" y="41.1" fill="none" stroke="#CCCCCC" stroke-width="0.5" width="1.3" height="1.3"/>
			<rect x="368" y="44.6" fill="none" stroke="#CCCCCC" stroke-width="0.5" width="1.3" height="1.3"/>
			<rect x="368" y="48.2" fill="none" stroke="#CCCCCC" stroke-width="0.5" width="1.3" height="1.3"/>
			<rect x="368" y="51.7" fill="none" stroke="#CCCCCC" stroke-width="0.5" width="1.3" height="1.3"/>
		</g>
		<g>
			<rect x="371.5" y="37.6" fill="none" stroke="#CCCCCC" stroke-width="0.5" width="1.3" height="1.3"/>
			<rect x="371.5" y="41.1" fill="none" stroke="#CCCCCC" stroke-width="0.5" width="1.3" height="1.3"/>
			<rect x="371.5" y="44.6" fill="none" stroke="#CCCCCC" stroke-width="0.5" width="1.3" height="1.3"/>
			<rect x="371.5" y="48.2" fill="none" stroke="#CCCCCC" stroke-width="0.5" width="1.3" height="1.3"/>
			<rect x="371.5" y="51.7" fill="none" stroke="#CCCCCC" stroke-width="0.5" width="1.3" height="1.3"/>
		</g>
		<g>
			<rect x="375.1" y="37.6" fill="none" stroke="#CCCCCC" stroke-width="0.5" width="1.3" height="1.3"/>
			<rect x="375.1" y="41.1" fill="none" stroke="#CCCCCC" stroke-width="0.5" width="1.3" height="1.3"/>
			<rect x="375.1" y="44.6" fill="none" stroke="#CCCCCC" stroke-width="0.5" width="1.3" height="1.3"/>
			<rect x="375.1" y="48.2" fill="none" stroke="#CCCCCC" stroke-width="0.5" width="1.3" height="1.3"/>
			<rect x="375.1" y="51.7" fill="none" stroke="#CCCCCC" stroke-width="0.5" width="1.3" height="1.3"/>
		</g>
		<g>
			<rect x="378.7" y="37.6" fill="none" stroke="#CCCCCC" stroke-width="0.5" width="1.3" height="1.3"/>
			<rect x="378.7" y="41.1" fill="none" stroke="#CCCCCC" stroke-width="0.5" width="1.3" height="1.3"/>
			<rect x="378.7" y="44.6" fill="none" stroke="#CCCCCC" stroke-width="0.5" width="1.3" height="1.3"/>
			<rect x="378.7" y="48.2" fill="none" stroke="#CCCCCC" stroke-width="0.5" width="1.3" height="1.3"/>
			<rect x="378.7" y="51.7" fill="none" stroke="#CCCCCC" stroke-width="0.5" width="1.3" height="1.3"/>
		</g>
		<g>
			<rect x="382.3" y="37.6" fill="none" stroke="#CCCCCC" stroke-width="0.5" width="1.3" height="1.3"/>
			<rect x="382.3" y="41.1" fill="none" stroke="#CCCCCC" stroke-width="0.5" width="1.3" height="1.3"/>
			<rect x="382.3" y="44.6" fill="none" stroke="#CCCCCC" stroke-width="0.5" width="1.3" height="1.3"/>
			<rect x="382.3" y="48.2" fill="none" stroke="#CCCCCC" stroke-width="0.5" width="1.3" height="1.3"/>
			<rect x="382.3" y="51.7" fill="none" stroke="#CCCCCC" stroke-width="0.5" width="1.3" height="1.3"/>
		</g>
		<g>
			<rect x="385.9" y="37.6" fill="none" stroke="#CCCCCC" stroke-width="0.5" width="1.3" height="1.3"/>
			<rect x="385.9" y="41.1" fill="none" stroke="#CCCCCC" stroke-width="0.5" width="1.3" height="1.3"/>
			<rect x="385.9" y="44.6" fill="none" stroke="#CCCCCC" stroke-width="0.5" width="1.3" height="1.3"/>
			<rect x="385.9" y="48.2" fill="none" stroke="#CCCCCC" stroke-width="0.5" width="1.3" height="1.3"/>
			<rect x="385.9" y="51.7" fill="none" stroke="#CCCCCC" stroke-width="0.5" width="1.3" height="1.3"/>
		</g>
		<g>
			<rect x="389.5" y="37.6" fill="none" stroke="#CCCCCC" stroke-width="0.5" width="1.3" height="1.3"/>
			<rect x="389.5" y="41.1" fill="none" stroke="#CCCCCC" stroke-width="0.5" width="1.3" height="1.3"/>
			<rect x="389.5" y="44.6" fill="none" stroke="#CCCCCC" stroke-width="0.5" width="1.3" height="1.3"/>
			<rect x="389.5" y="48.2" fill="none" stroke="#CCCCCC" stroke-width="0.5" width="1.3" height="1.3"/>
			<rect x="389.5" y="51.7" fill="none" stroke="#CCCCCC" stroke-width="0.5" width="1.3" height="1.3"/>
		</g>
		<g>
			<rect x="393" y="37.6" fill="none" stroke="#CCCCCC" stroke-width="0.5" width="1.3" height="1.3"/>
			<rect x="393" y="41.1" fill="none" stroke="#CCCCCC" stroke-width="0.5" width="1.3" height="1.3"/>
			<rect x="393" y="44.6" fill="none" stroke="#CCCCCC" stroke-width="0.5" width="1.3" height="1.3"/>
			<rect x="393" y="48.2" fill="none" stroke="#CCCCCC" stroke-width="0.5" width="1.3" height="1.3"/>
			<rect x="393" y="51.7" fill="none" stroke="#CCCCCC" stroke-width="0.5" width="1.3" height="1.3"/>
		</g>
		<g>
			<rect x="396.6" y="37.6" fill="none" stroke="#CCCCCC" stroke-width="0.5" width="1.3" height="1.3"/>
			<rect x="396.6" y="41.1" fill="none" stroke="#CCCCCC" stroke-width="0.5" width="1.3" height="1.3"/>
			<rect x="396.6" y="44.6" fill="none" stroke="#CCCCCC" stroke-width="0.5" width="1.3" height="1.3"/>
			<rect x="396.6" y="48.2" fill="none" stroke="#CCCCCC" stroke-width="0.5" width="1.3" height="1.3"/>
			<rect x="396.6" y="51.7" fill="none" stroke="#CCCCCC" stroke-width="0.5" width="1.3" height="1.3"/>
		</g>
		<g>
			<rect x="400.2" y="37.6" fill="none" stroke="#CCCCCC" stroke-width="0.5" width="1.3" height="1.3"/>
			<rect x="400.2" y="41.1" fill="none" stroke="#CCCCCC" stroke-width="0.5" width="1.3" height="1.3"/>
			<rect x="400.2" y="44.6" fill="none" stroke="#CCCCCC" stroke-width="0.5" width="1.3" height="1.3"/>
			<rect x="400.2" y="48.2" fill="none" stroke="#CCCCCC" stroke-width="0.5" width="1.3" height="1.3"/>
			<rect x="400.2" y="51.7" fill="none" stroke="#CCCCCC" stroke-width="0.5" width="1.3" height="1.3"/>
		</g>
		<g>
			<rect x="403.8" y="37.6" fill="none" stroke="#CCCCCC" stroke-width="0.5" width="1.3" height="1.3"/>
			<rect x="403.8" y="41.1" fill="none" stroke="#CCCCCC" stroke-width="0.5" width="1.3" height="1.3"/>
			<rect x="403.8" y="44.6" fill="none" stroke="#CCCCCC" stroke-width="0.5" width="1.3" height="1.3"/>
			<rect x="403.8" y="48.2" fill="none" stroke="#CCCCCC" stroke-width="0.5" width="1.3" height="1.3"/>
			<rect x="403.8" y="51.7" fill="none" stroke="#CCCCCC" stroke-width="0.5" width="1.3" height="1.3"/>
		</g>
		<g>
			<rect x="407.4" y="37.6" fill="none" stroke="#CCCCCC" stroke-width="0.5" width="1.3" height="1.3"/>
			<rect x="407.4" y="41.1" fill="none" stroke="#CCCCCC" stroke-width="0.5" width="1.3" height="1.3"/>
			<rect x="407.4" y="44.6" fill="none" stroke="#CCCCCC" stroke-width="0.5" width="1.3" height="1.3"/>
			<rect x="407.4" y="48.2" fill="none" stroke="#CCCCCC" stroke-width="0.5" width="1.3" height="1.3"/>
			<rect x="407.4" y="51.7" fill="none" stroke="#CCCCCC" stroke-width="0.5" width="1.3" height="1.3"/>
		</g>
		<g>
			<rect x="411" y="37.6" fill="none" stroke="#CCCCCC" stroke-width="0.5" width="1.3" height="1.3"/>
			<rect x="411" y="41.1" fill="none" stroke="#CCCCCC" stroke-width="0.5" width="1.3" height="1.3"/>
			<rect x="411" y="44.6" fill="none" stroke="#CCCCCC" stroke-width="0.5" width="1.3" height="1.3"/>
			<rect x="411" y="48.2" fill="none" stroke="#CCCCCC" stroke-width="0.5" width="1.3" height="1.3"/>
			<rect x="411" y="51.7" fill="none" stroke="#CCCCCC" stroke-width="0.5" width="1.3" height="1.3"/>
		</g>
		<g>
			<rect x="414.5" y="37.6" fill="none" stroke="#CCCCCC" stroke-width="0.5" width="1.3" height="1.3"/>
			<rect x="414.5" y="41.1" fill="none" stroke="#CCCCCC" stroke-width="0.5" width="1.3" height="1.3"/>
			<rect x="414.5" y="44.6" fill="none" stroke="#CCCCCC" stroke-width="0.5" width="1.3" height="1.3"/>
			<rect x="414.5" y="48.2" fill="none" stroke="#CCCCCC" stroke-width="0.5" width="1.3" height="1.3"/>
			<rect x="414.5" y="51.7" fill="none" stroke="#CCCCCC" stroke-width="0.5" width="1.3" height="1.3"/>
		</g>
		<g>
			<rect x="418.1" y="37.6" fill="none" stroke="#CCCCCC" stroke-width="0.5" width="1.3" height="1.3"/>
			<rect x="418.1" y="41.1" fill="none" stroke="#CCCCCC" stroke-width="0.5" width="1.3" height="1.3"/>
			<rect x="418.1" y="44.6" fill="none" stroke="#CCCCCC" stroke-width="0.5" width="1.3" height="1.3"/>
			<rect x="418.1" y="48.2" fill="none" stroke="#CCCCCC" stroke-width="0.5" width="1.3" height="1.3"/>
			<rect x="418.1" y="51.7" fill="none" stroke="#CCCCCC" stroke-width="0.5" width="1.3" height="1.3"/>
		</g>
		<g>
			<rect x="325" y="37.6" fill="none" stroke="#CCCCCC" stroke-width="0.5" width="1.3" height="1.3"/>
			<rect x="325" y="41.1" fill="none" stroke="#CCCCCC" stroke-width="0.5" width="1.3" height="1.3"/>
			<rect x="325" y="44.6" fill="none" stroke="#CCCCCC" stroke-width="0.5" width="1.3" height="1.3"/>
			<rect x="325" y="48.2" fill="none" stroke="#CCCCCC" stroke-width="0.5" width="1.3" height="1.3"/>
			<rect x="325" y="51.7" fill="none" stroke="#CCCCCC" stroke-width="0.5" width="1.3" height="1.3"/>
		</g>
		<g>
			<rect x="328.5" y="37.6" fill="none" stroke="#CCCCCC" stroke-width="0.5" width="1.3" height="1.3"/>
			<rect x="328.5" y="41.1" fill="none" stroke="#CCCCCC" stroke-width="0.5" width="1.3" height="1.3"/>
			<rect x="328.5" y="44.6" fill="none" stroke="#CCCCCC" stroke-width="0.5" width="1.3" height="1.3"/>
			<rect x="328.5" y="48.2" fill="none" stroke="#CCCCCC" stroke-width="0.5" width="1.3" height="1.3"/>
			<rect x="328.5" y="51.7" fill="none" stroke="#CCCCCC" stroke-width="0.5" width="1.3" height="1.3"/>
		</g>
		<g>
			<rect x="332.1" y="37.6" fill="none" stroke="#CCCCCC" stroke-width="0.5" width="1.3" height="1.3"/>
			<rect x="332.1" y="41.1" fill="none" stroke="#CCCCCC" stroke-width="0.5" width="1.3" height="1.3"/>
			<rect x="332.1" y="44.6" fill="none" stroke="#CCCCCC" stroke-width="0.5" width="1.3" height="1.3"/>
			<rect x="332.1" y="48.2" fill="none" stroke="#CCCCCC" stroke-width="0.5" width="1.3" height="1.3"/>
			<rect x="332.1" y="51.7" fill="none" stroke="#CCCCCC" stroke-width="0.5" width="1.3" height="1.3"/>
		</g>
		<g>
			<rect x="335.7" y="37.6" fill="none" stroke="#CCCCCC" stroke-width="0.5" width="1.3" height="1.3"/>
			<rect x="335.7" y="41.1" fill="none" stroke="#CCCCCC" stroke-width="0.5" width="1.3" height="1.3"/>
			<rect x="335.7" y="44.6" fill="none" stroke="#CCCCCC" stroke-width="0.5" width="1.3" height="1.3"/>
			<rect x="335.7" y="48.2" fill="none" stroke="#CCCCCC" stroke-width="0.5" width="1.3" height="1.3"/>
			<rect x="335.7" y="51.7" fill="none" stroke="#CCCCCC" stroke-width="0.5" width="1.3" height="1.3"/>
		</g>
		<g>
			<rect x="314.2" y="37.6" fill="none" stroke="#CCCCCC" stroke-width="0.5" width="1.3" height="1.3"/>
			<rect x="314.2" y="41.1" fill="none" stroke="#CCCCCC" stroke-width="0.5" width="1.3" height="1.3"/>
			<rect x="314.2" y="44.6" fill="none" stroke="#CCCCCC" stroke-width="0.5" width="1.3" height="1.3"/>
			<rect x="314.2" y="48.2" fill="none" stroke="#CCCCCC" stroke-width="0.5" width="1.3" height="1.3"/>
			<rect x="314.2" y="51.7" fill="none" stroke="#CCCCCC" stroke-width="0.5" width="1.3" height="1.3"/>
		</g>
		<g>
			<rect x="317.8" y="37.6" fill="none" stroke="#CCCCCC" stroke-width="0.5" width="1.3" height="1.3"/>
			<rect x="317.8" y="41.1" fill="none" stroke="#CCCCCC" stroke-width="0.5" width="1.3" height="1.3"/>
			<rect x="317.8" y="44.6" fill="none" stroke="#CCCCCC" stroke-width="0.5" width="1.3" height="1.3"/>
			<rect x="317.8" y="48.2" fill="none" stroke="#CCCCCC" stroke-width="0.5" width="1.3" height="1.3"/>
			<rect x="317.8" y="51.7" fill="none" stroke="#CCCCCC" stroke-width="0.5" width="1.3" height="1.3"/>
		</g>
		<g>
			<rect x="321.4" y="37.6" fill="none" stroke="#CCCCCC" stroke-width="0.5" width="1.3" height="1.3"/>
			<rect x="321.4" y="41.1" fill="none" stroke="#CCCCCC" stroke-width="0.5" width="1.3" height="1.3"/>
			<rect x="321.4" y="44.6" fill="none" stroke="#CCCCCC" stroke-width="0.5" width="1.3" height="1.3"/>
			<rect x="321.4" y="48.2" fill="none" stroke="#CCCCCC" stroke-width="0.5" width="1.3" height="1.3"/>
			<rect x="321.4" y="51.7" fill="none" stroke="#CCCCCC" stroke-width="0.5" width="1.3" height="1.3"/>
		</g>
	</g>
	<g>
		<g>
			<rect x="339.3" y="62" fill="none" stroke="#CCCCCC" stroke-width="0.5" width="1.3" height="1.3"/>
			<rect x="339.3" y="65.5" fill="none" stroke="#CCCCCC" stroke-width="0.5" width="1.3" height="1.3"/>
			<rect x="339.3" y="69" fill="none" stroke="#CCCCCC" stroke-width="0.5" width="1.3" height="1.3"/>
			<rect x="339.3" y="72.5" fill="none" stroke="#CCCCCC" stroke-width="0.5" width="1.3" height="1.3"/>
			<rect x="339.3" y="76" fill="none" stroke="#CCCCCC" stroke-width="0.5" width="1.3" height="1.3"/>
		</g>
		<g>
			<rect x="342.9" y="62" fill="none" stroke="#CCCCCC" stroke-width="0.5" width="1.3" height="1.3"/>
			<rect x="342.9" y="65.5" fill="none" stroke="#CCCCCC" stroke-width="0.5" width="1.3" height="1.3"/>
			<rect x="342.9" y="69" fill="none" stroke="#CCCCCC" stroke-width="0.5" width="1.3" height="1.3"/>
			<rect x="342.9" y="72.5" fill="none" stroke="#CCCCCC" stroke-width="0.5" width="1.3" height="1.3"/>
			<rect x="342.9" y="76" fill="none" stroke="#CCCCCC" stroke-width="0.5" width="1.3" height="1.3"/>
		</g>
		<g>
			<rect x="346.5" y="62" fill="none" stroke="#CCCCCC" stroke-width="0.5" width="1.3" height="1.3"/>
			<rect x="346.5" y="65.5" fill="none" stroke="#CCCCCC" stroke-width="0.5" width="1.3" height="1.3"/>
			<rect x="346.5" y="69" fill="none" stroke="#CCCCCC" stroke-width="0.5" width="1.3" height="1.3"/>
			<rect x="346.5" y="72.5" fill="none" stroke="#CCCCCC" stroke-width="0.5" width="1.3" height="1.3"/>
			<rect x="346.5" y="76" fill="none" stroke="#CCCCCC" stroke-width="0.5" width="1.3" height="1.3"/>
		</g>
		<g>
			<rect x="350" y="62" fill="none" stroke="#CCCCCC" stroke-width="0.5" width="1.3" height="1.3"/>
			<rect x="350" y="65.5" fill="none" stroke="#CCCCCC" stroke-width="0.5" width="1.3" height="1.3"/>
			<rect x="350" y="69" fill="none" stroke="#CCCCCC" stroke-width="0.5" width="1.3" height="1.3"/>
			<rect x="350" y="72.5" fill="none" stroke="#CCCCCC" stroke-width="0.5" width="1.3" height="1.3"/>
			<rect x="350" y="76" fill="none" stroke="#CCCCCC" stroke-width="0.5" width="1.3" height="1.3"/>
		</g>
		<g>
			<rect x="353.6" y="62" fill="none" stroke="#CCCCCC" stroke-width="0.5" width="1.3" height="1.3"/>
			<rect x="353.6" y="65.5" fill="none" stroke="#CCCCCC" stroke-width="0.5" width="1.3" height="1.3"/>
			<rect x="353.6" y="69" fill="none" stroke="#CCCCCC" stroke-width="0.5" width="1.3" height="1.3"/>
			<rect x="353.6" y="72.5" fill="none" stroke="#CCCCCC" stroke-width="0.5" width="1.3" height="1.3"/>
			<rect x="353.6" y="76" fill="none" stroke="#CCCCCC" stroke-width="0.5" width="1.3" height="1.3"/>
		</g>
		<g>
			<rect x="357.2" y="62" fill="none" stroke="#CCCCCC" stroke-width="0.5" width="1.3" height="1.3"/>
			<rect x="357.2" y="65.5" fill="none" stroke="#CCCCCC" stroke-width="0.5" width="1.3" height="1.3"/>
			<rect x="357.2" y="69" fill="none" stroke="#CCCCCC" stroke-width="0.5" width="1.3" height="1.3"/>
			<rect x="357.2" y="72.5" fill="none" stroke="#CCCCCC" stroke-width="0.5" width="1.3" height="1.3"/>
			<rect x="357.2" y="76" fill="none" stroke="#CCCCCC" stroke-width="0.5" width="1.3" height="1.3"/>
		</g>
		<g>
			<rect x="360.8" y="62" fill="none" stroke="#CCCCCC" stroke-width="0.5" width="1.3" height="1.3"/>
			<rect x="360.8" y="65.5" fill="none" stroke="#CCCCCC" stroke-width="0.5" width="1.3" height="1.3"/>
			<rect x="360.8" y="69" fill="none" stroke="#CCCCCC" stroke-width="0.5" width="1.3" height="1.3"/>
			<rect x="360.8" y="72.5" fill="none" stroke="#CCCCCC" stroke-width="0.5" width="1.3" height="1.3"/>
			<rect x="360.8" y="76" fill="none" stroke="#CCCCCC" stroke-width="0.5" width="1.3" height="1.3"/>
		</g>
		<g>
			<rect x="364.4" y="62" fill="none" stroke="#CCCCCC" stroke-width="0.5" width="1.3" height="1.3"/>
			<rect x="364.4" y="65.5" fill="none" stroke="#CCCCCC" stroke-width="0.5" width="1.3" height="1.3"/>
			<rect x="364.4" y="69" fill="none" stroke="#CCCCCC" stroke-width="0.5" width="1.3" height="1.3"/>
			<rect x="364.4" y="72.5" fill="none" stroke="#CCCCCC" stroke-width="0.5" width="1.3" height="1.3"/>
			<rect x="364.4" y="76" fill="none" stroke="#CCCCCC" stroke-width="0.5" width="1.3" height="1.3"/>
		</g>
		<g>
			<rect x="368" y="62" fill="none" stroke="#CCCCCC" stroke-width="0.5" width="1.3" height="1.3"/>
			<rect x="368" y="65.5" fill="none" stroke="#CCCCCC" stroke-width="0.5" width="1.3" height="1.3"/>
			<rect x="368" y="69" fill="none" stroke="#CCCCCC" stroke-width="0.5" width="1.3" height="1.3"/>
			<rect x="368" y="72.5" fill="none" stroke="#CCCCCC" stroke-width="0.5" width="1.3" height="1.3"/>
			<rect x="368" y="76" fill="none" stroke="#CCCCCC" stroke-width="0.5" width="1.3" height="1.3"/>
		</g>
		<g>
			<rect x="371.5" y="62" fill="none" stroke="#CCCCCC" stroke-width="0.5" width="1.3" height="1.3"/>
			<rect x="371.5" y="65.5" fill="none" stroke="#CCCCCC" stroke-width="0.5" width="1.3" height="1.3"/>
			<rect x="371.5" y="69" fill="none" stroke="#CCCCCC" stroke-width="0.5" width="1.3" height="1.3"/>
			<rect x="371.5" y="72.5" fill="none" stroke="#CCCCCC" stroke-width="0.5" width="1.3" height="1.3"/>
			<rect x="371.5" y="76" fill="none" stroke="#CCCCCC" stroke-width="0.5" width="1.3" height="1.3"/>
		</g>
		<g>
			<rect x="375.1" y="62" fill="none" stroke="#CCCCCC" stroke-width="0.5" width="1.3" height="1.3"/>
			<rect x="375.1" y="65.5" fill="none" stroke="#CCCCCC" stroke-width="0.5" width="1.3" height="1.3"/>
			<rect x="375.1" y="69" fill="none" stroke="#CCCCCC" stroke-width="0.5" width="1.3" height="1.3"/>
			<rect x="375.1" y="72.5" fill="none" stroke="#CCCCCC" stroke-width="0.5" width="1.3" height="1.3"/>
			<rect x="375.1" y="76" fill="none" stroke="#CCCCCC" stroke-width="0.5" width="1.3" height="1.3"/>
		</g>
		<g>
			<rect x="378.7" y="62" fill="none" stroke="#CCCCCC" stroke-width="0.5" width="1.3" height="1.3"/>
			<rect x="378.7" y="65.5" fill="none" stroke="#CCCCCC" stroke-width="0.5" width="1.3" height="1.3"/>
			<rect x="378.7" y="69" fill="none" stroke="#CCCCCC" stroke-width="0.5" width="1.3" height="1.3"/>
			<rect x="378.7" y="72.5" fill="none" stroke="#CCCCCC" stroke-width="0.5" width="1.3" height="1.3"/>
			<rect x="378.7" y="76" fill="none" stroke="#CCCCCC" stroke-width="0.5" width="1.3" height="1.3"/>
		</g>
		<g>
			<rect x="382.3" y="62" fill="none" stroke="#CCCCCC" stroke-width="0.5" width="1.3" height="1.3"/>
			<rect x="382.3" y="65.5" fill="none" stroke="#CCCCCC" stroke-width="0.5" width="1.3" height="1.3"/>
			<rect x="382.3" y="69" fill="none" stroke="#CCCCCC" stroke-width="0.5" width="1.3" height="1.3"/>
			<rect x="382.3" y="72.5" fill="none" stroke="#CCCCCC" stroke-width="0.5" width="1.3" height="1.3"/>
			<rect x="382.3" y="76" fill="none" stroke="#CCCCCC" stroke-width="0.5" width="1.3" height="1.3"/>
		</g>
		<g>
			<rect x="385.9" y="62" fill="none" stroke="#CCCCCC" stroke-width="0.5" width="1.3" height="1.3"/>
			<rect x="385.9" y="65.5" fill="none" stroke="#CCCCCC" stroke-width="0.5" width="1.3" height="1.3"/>
			<rect x="385.9" y="69" fill="none" stroke="#CCCCCC" stroke-width="0.5" width="1.3" height="1.3"/>
			<rect x="385.9" y="72.5" fill="none" stroke="#CCCCCC" stroke-width="0.5" width="1.3" height="1.3"/>
			<rect x="385.9" y="76" fill="none" stroke="#CCCCCC" stroke-width="0.5" width="1.3" height="1.3"/>
		</g>
		<g>
			<rect x="389.5" y="62" fill="none" stroke="#CCCCCC" stroke-width="0.5" width="1.3" height="1.3"/>
			<rect x="389.5" y="65.5" fill="none" stroke="#CCCCCC" stroke-width="0.5" width="1.3" height="1.3"/>
			<rect x="389.5" y="69" fill="none" stroke="#CCCCCC" stroke-width="0.5" width="1.3" height="1.3"/>
			<rect x="389.5" y="72.5" fill="none" stroke="#CCCCCC" stroke-width="0.5" width="1.3" height="1.3"/>
			<rect x="389.5" y="76" fill="none" stroke="#CCCCCC" stroke-width="0.5" width="1.3" height="1.3"/>
		</g>
		<g>
			<rect x="393" y="62" fill="none" stroke="#CCCCCC" stroke-width="0.5" width="1.3" height="1.3"/>
			<rect x="393" y="65.5" fill="none" stroke="#CCCCCC" stroke-width="0.5" width="1.3" height="1.3"/>
			<rect x="393" y="69" fill="none" stroke="#CCCCCC" stroke-width="0.5" width="1.3" height="1.3"/>
			<rect x="393" y="72.5" fill="none" stroke="#CCCCCC" stroke-width="0.5" width="1.3" height="1.3"/>
			<rect x="393" y="76" fill="none" stroke="#CCCCCC" stroke-width="0.5" width="1.3" height="1.3"/>
		</g>
		<rect x="396.6" y="62" fill="none" stroke="#CCCCCC" stroke-width="0.5" width="1.3" height="1.3"/>
		<rect x="396.6" y="65.5" fill="none" stroke="#CCCCCC" stroke-width="0.5" width="1.3" height="1.3"/>
		<rect x="396.6" y="69" fill="none" stroke="#CCCCCC" stroke-width="0.5" width="1.3" height="1.3"/>
		<rect x="396.6" y="72.5" fill="none" stroke="#CCCCCC" stroke-width="0.5" width="1.3" height="1.3"/>
		<rect x="396.6" y="76" fill="none" stroke="#CCCCCC" stroke-width="0.5" width="1.3" height="1.3"/>
		<rect x="400.2" y="62" fill="none" stroke="#CCCCCC" stroke-width="0.5" width="1.3" height="1.3"/>
		<rect x="400.2" y="65.5" fill="none" stroke="#CCCCCC" stroke-width="0.5" width="1.3" height="1.3"/>
		<rect x="400.2" y="69" fill="none" stroke="#CCCCCC" stroke-width="0.5" width="1.3" height="1.3"/>
		<rect x="400.2" y="72.5" fill="none" stroke="#CCCCCC" stroke-width="0.5" width="1.3" height="1.3"/>
		<rect x="400.2" y="76" fill="none" stroke="#CCCCCC" stroke-width="0.5" width="1.3" height="1.3"/>
		<rect x="403.8" y="62" fill="none" stroke="#CCCCCC" stroke-width="0.5" width="1.3" height="1.3"/>
		<rect x="403.8" y="65.5" fill="none" stroke="#CCCCCC" stroke-width="0.5" width="1.3" height="1.3"/>
		<rect x="403.8" y="69" fill="none" stroke="#CCCCCC" stroke-width="0.5" width="1.3" height="1.3"/>
		<rect x="403.8" y="72.5" fill="none" stroke="#CCCCCC" stroke-width="0.5" width="1.3" height="1.3"/>
		<rect x="403.8" y="76" fill="none" stroke="#CCCCCC" stroke-width="0.5" width="1.3" height="1.3"/>
		<rect x="407.4" y="62" fill="none" stroke="#CCCCCC" stroke-width="0.5" width="1.3" height="1.3"/>
		<rect x="407.4" y="65.5" fill="none" stroke="#CCCCCC" stroke-width="0.5" width="1.3" height="1.3"/>
		<rect x="407.4" y="69" fill="none" stroke="#CCCCCC" stroke-width="0.5" width="1.3" height="1.3"/>
		<rect x="407.4" y="72.5" fill="none" stroke="#CCCCCC" stroke-width="0.5" width="1.3" height="1.3"/>
		<rect x="407.4" y="76" fill="none" stroke="#CCCCCC" stroke-width="0.5" width="1.3" height="1.3"/>
		<rect x="411" y="62" fill="none" stroke="#CCCCCC" stroke-width="0.5" width="1.3" height="1.3"/>
		<rect x="411" y="65.5" fill="none" stroke="#CCCCCC" stroke-width="0.5" width="1.3" height="1.3"/>
		<rect x="411" y="69" fill="none" stroke="#CCCCCC" stroke-width="0.5" width="1.3" height="1.3"/>
		<rect x="411" y="72.5" fill="none" stroke="#CCCCCC" stroke-width="0.5" width="1.3" height="1.3"/>
		<rect x="411" y="76" fill="none" stroke="#CCCCCC" stroke-width="0.5" width="1.3" height="1.3"/>
		<rect x="414.5" y="62" fill="none" stroke="#CCCCCC" stroke-width="0.5" width="1.3" height="1.3"/>
		<rect x="414.5" y="65.5" fill="none" stroke="#CCCCCC" stroke-width="0.5" width="1.3" height="1.3"/>
		<rect x="414.5" y="69" fill="none" stroke="#CCCCCC" stroke-width="0.5" width="1.3" height="1.3"/>
		<rect x="414.5" y="72.5" fill="none" stroke="#CCCCCC" stroke-width="0.5" width="1.3" height="1.3"/>
		<rect x="414.5" y="76" fill="none" stroke="#CCCCCC" stroke-width="0.5" width="1.3" height="1.3"/>
		<rect x="418.1" y="62" fill="none" stroke="#CCCCCC" stroke-width="0.5" width="1.3" height="1.3"/>
		<rect x="418.1" y="65.5" fill="none" stroke="#CCCCCC" stroke-width="0.5" width="1.3" height="1.3"/>
		<rect x="418.1" y="69" fill="none" stroke="#CCCCCC" stroke-width="0.5" width="1.3" height="1.3"/>
		<rect x="418.1" y="72.5" fill="none" stroke="#CCCCCC" stroke-width="0.5" width="1.3" height="1.3"/>
		<rect x="418.1" y="76" fill="none" stroke="#CCCCCC" stroke-width="0.5" width="1.3" height="1.3"/>
		<g>
			<rect x="325" y="62" fill="none" stroke="#CCCCCC" stroke-width="0.5" width="1.3" height="1.3"/>
			<rect x="325" y="65.5" fill="none" stroke="#CCCCCC" stroke-width="0.5" width="1.3" height="1.3"/>
			<rect x="325" y="69" fill="none" stroke="#CCCCCC" stroke-width="0.5" width="1.3" height="1.3"/>
			<rect x="325" y="72.5" fill="none" stroke="#CCCCCC" stroke-width="0.5" width="1.3" height="1.3"/>
			<rect x="325" y="76" fill="none" stroke="#CCCCCC" stroke-width="0.5" width="1.3" height="1.3"/>
		</g>
		<g>
			<rect x="328.5" y="62" fill="none" stroke="#CCCCCC" stroke-width="0.5" width="1.3" height="1.3"/>
			<rect x="328.5" y="65.5" fill="none" stroke="#CCCCCC" stroke-width="0.5" width="1.3" height="1.3"/>
			<rect x="328.5" y="69" fill="none" stroke="#CCCCCC" stroke-width="0.5" width="1.3" height="1.3"/>
			<rect x="328.5" y="72.5" fill="none" stroke="#CCCCCC" stroke-width="0.5" width="1.3" height="1.3"/>
			<rect x="328.5" y="76" fill="none" stroke="#CCCCCC" stroke-width="0.5" width="1.3" height="1.3"/>
		</g>
		<g>
			<rect x="332.1" y="62" fill="none" stroke="#CCCCCC" stroke-width="0.5" width="1.3" height="1.3"/>
			<rect x="332.1" y="65.5" fill="none" stroke="#CCCCCC" stroke-width="0.5" width="1.3" height="1.3"/>
			<rect x="332.1" y="69" fill="none" stroke="#CCCCCC" stroke-width="0.5" width="1.3" height="1.3"/>
			<rect x="332.1" y="72.5" fill="none" stroke="#CCCCCC" stroke-width="0.5" width="1.3" height="1.3"/>
			<rect x="332.1" y="76" fill="none" stroke="#CCCCCC" stroke-width="0.5" width="1.3" height="1.3"/>
		</g>
		<g>
			<rect x="335.7" y="62" fill="none" stroke="#CCCCCC" stroke-width="0.5" width="1.3" height="1.3"/>
			<rect x="335.7" y="65.5" fill="none" stroke="#CCCCCC" stroke-width="0.5" width="1.3" height="1.3"/>
			<rect x="335.7" y="69" fill="none" stroke="#CCCCCC" stroke-width="0.5" width="1.3" height="1.3"/>
			<rect x="335.7" y="72.5" fill="none" stroke="#CCCCCC" stroke-width="0.5" width="1.3" height="1.3"/>
			<rect x="335.7" y="76" fill="none" stroke="#CCCCCC" stroke-width="0.5" width="1.3" height="1.3"/>
		</g>
		<g>
			<rect x="314.2" y="62" fill="none" stroke="#CCCCCC" stroke-width="0.5" width="1.3" height="1.3"/>
			<rect x="314.2" y="65.5" fill="none" stroke="#CCCCCC" stroke-width="0.5" width="1.3" height="1.3"/>
			<rect x="314.2" y="69" fill="none" stroke="#CCCCCC" stroke-width="0.5" width="1.3" height="1.3"/>
			<rect x="314.2" y="72.5" fill="none" stroke="#CCCCCC" stroke-width="0.5" width="1.3" height="1.3"/>
			<rect x="314.2" y="76" fill="none" stroke="#CCCCCC" stroke-width="0.5" width="1.3" height="1.3"/>
		</g>
		<g>
			<rect x="317.8" y="62" fill="none" stroke="#CCCCCC" stroke-width="0.5" width="1.3" height="1.3"/>
			<rect x="317.8" y="65.5" fill="none" stroke="#CCCCCC" stroke-width="0.5" width="1.3" height="1.3"/>
			<rect x="317.8" y="69" fill="none" stroke="#CCCCCC" stroke-width="0.5" width="1.3" height="1.3"/>
			<rect x="317.8" y="72.5" fill="none" stroke="#CCCCCC" stroke-width="0.5" width="1.3" height="1.3"/>
			<rect x="317.8" y="76" fill="none" stroke="#CCCCCC" stroke-width="0.5" width="1.3" height="1.3"/>
		</g>
		<g>
			<rect x="321.4" y="62" fill="none" stroke="#CCCCCC" stroke-width="0.5" width="1.3" height="1.3"/>
			<rect x="321.4" y="65.5" fill="none" stroke="#CCCCCC" stroke-width="0.5" width="1.3" height="1.3"/>
			<rect x="321.4" y="69" fill="none" stroke="#CCCCCC" stroke-width="0.5" width="1.3" height="1.3"/>
			<rect x="321.4" y="72.5" fill="none" stroke="#CCCCCC" stroke-width="0.5" width="1.3" height="1.3"/>
			<rect x="321.4" y="76" fill="none" stroke="#CCCCCC" stroke-width="0.5" width="1.3" height="1.3"/>
		</g>
	</g>
	<g>
		<g>
			<g>
				<rect x="328.3" y="23.4" fill="none" stroke="#CCCCCC" stroke-width="0.5" width="1.3" height="1.3"/>
				<rect x="324.8" y="23.4" fill="none" stroke="#CCCCCC" stroke-width="0.5" width="1.3" height="1.3"/>
				<rect x="321.3" y="23.4" fill="none" stroke="#CCCCCC" stroke-width="0.5" width="1.3" height="1.3"/>
				<rect x="317.7" y="23.4" fill="none" stroke="#CCCCCC" stroke-width="0.5" width="1.3" height="1.3"/>
				<rect x="314.2" y="23.4" fill="none" stroke="#CCCCCC" stroke-width="0.5" width="1.3" height="1.3"/>
			</g>
			<g>
				<rect x="314.2" y="26.9" fill="none" stroke="#CCCCCC" stroke-width="0.5" width="1.3" height="1.3"/>
				<rect x="317.7" y="26.9" fill="none" stroke="#CCCCCC" stroke-width="0.5" width="1.3" height="1.3"/>
				<rect x="321.3" y="26.9" fill="none" stroke="#CCCCCC" stroke-width="0.5" width="1.3" height="1.3"/>
				<rect x="324.8" y="26.9" fill="none" stroke="#CCCCCC" stroke-width="0.5" width="1.3" height="1.3"/>
				<rect x="328.3" y="26.9" fill="none" stroke="#CCCCCC" stroke-width="0.5" width="1.3" height="1.3"/>
			</g>
		</g>
		<g>
			<g>
				<rect x="349.8" y="23.4" fill="none" stroke="#CCCCCC" stroke-width="0.5" width="1.3" height="1.3"/>
				<rect x="346.3" y="23.4" fill="none" stroke="#CCCCCC" stroke-width="0.5" width="1.3" height="1.3"/>
				<rect x="342.8" y="23.4" fill="none" stroke="#CCCCCC" stroke-width="0.5" width="1.3" height="1.3"/>
				<rect x="339.2" y="23.4" fill="none" stroke="#CCCCCC" stroke-width="0.5" width="1.3" height="1.3"/>
				<rect x="335.7" y="23.4" fill="none" stroke="#CCCCCC" stroke-width="0.5" width="1.3" height="1.3"/>
			</g>
			<g>
				<rect x="335.7" y="26.9" fill="none" stroke="#CCCCCC" stroke-width="0.5" width="1.3" height="1.3"/>
				<rect x="339.2" y="26.9" fill="none" stroke="#CCCCCC" stroke-width="0.5" width="1.3" height="1.3"/>
				<rect x="342.8" y="26.9" fill="none" stroke="#CCCCCC" stroke-width="0.5" width="1.3" height="1.3"/>
				<rect x="346.3" y="26.9" fill="none" stroke="#CCCCCC" stroke-width="0.5" width="1.3" height="1.3"/>
				<rect x="349.8" y="26.9" fill="none" stroke="#CCCCCC" stroke-width="0.5" width="1.3" height="1.3"/>
			</g>
		</g>
		<g>
			<g>
				<rect x="371.3" y="23.4" fill="none" stroke="#CCCCCC" stroke-width="0.5" width="1.3" height="1.3"/>
				<rect x="367.8" y="23.4" fill="none" stroke="#CCCCCC" stroke-width="0.5" width="1.3" height="1.3"/>
				<rect x="364.3" y="23.4" fill="none" stroke="#CCCCCC" stroke-width="0.5" width="1.3" height="1.3"/>
				<rect x="360.7" y="23.4" fill="none" stroke="#CCCCCC" stroke-width="0.5" width="1.3" height="1.3"/>
				<rect x="357.2" y="23.4" fill="none" stroke="#CCCCCC" stroke-width="0.5" width="1.3" height="1.3"/>
			</g>
			<g>
				<rect x="357.2" y="26.9" fill="none" stroke="#CCCCCC" stroke-width="0.5" width="1.3" height="1.3"/>
				<rect x="360.7" y="26.9" fill="none" stroke="#CCCCCC" stroke-width="0.5" width="1.3" height="1.3"/>
				<rect x="364.3" y="26.9" fill="none" stroke="#CCCCCC" stroke-width="0.5" width="1.3" height="1.3"/>
				<rect x="367.8" y="26.9" fill="none" stroke="#CCCCCC" stroke-width="0.5" width="1.3" height="1.3"/>
				<rect x="371.3" y="26.9" fill="none" stroke="#CCCCCC" stroke-width="0.5" width="1.3" height="1.3"/>
			</g>
		</g>
		<g>
			<g>
				<rect x="392.8" y="23.4" fill="none" stroke="#CCCCCC" stroke-width="0.5" width="1.3" height="1.3"/>
				<rect x="389.3" y="23.4" fill="none" stroke="#CCCCCC" stroke-width="0.5" width="1.3" height="1.3"/>
				<rect x="385.8" y="23.4" fill="none" stroke="#CCCCCC" stroke-width="0.5" width="1.3" height="1.3"/>
				<rect x="382.2" y="23.4" fill="none" stroke="#CCCCCC" stroke-width="0.5" width="1.3" height="1.3"/>
				<rect x="378.7" y="23.4" fill="none" stroke="#CCCCCC" stroke-width="0.5" width="1.3" height="1.3"/>
			</g>
			<g>
				<rect x="378.7" y="26.9" fill="none" stroke="#CCCCCC" stroke-width="0.5" width="1.3" height="1.3"/>
				<rect x="382.2" y="26.9" fill="none" stroke="#CCCCCC" stroke-width="0.5" width="1.3" height="1.3"/>
				<rect x="385.8" y="26.9" fill="none" stroke="#CCCCCC" stroke-width="0.5" width="1.3" height="1.3"/>
				<rect x="389.3" y="26.9" fill="none" stroke="#CCCCCC" stroke-width="0.5" width="1.3" height="1.3"/>
				<rect x="392.8" y="26.9" fill="none" stroke="#CCCCCC" stroke-width="0.5" width="1.3" height="1.3"/>
			</g>
		</g>
		<g>
			<g>
				<rect x="414.3" y="23.4" fill="none" stroke="#CCCCCC" stroke-width="0.5" width="1.3" height="1.3"/>
				<rect x="410.8" y="23.4" fill="none" stroke="#CCCCCC" stroke-width="0.5" width="1.3" height="1.3"/>
				<rect x="407.3" y="23.4" fill="none" stroke="#CCCCCC" stroke-width="0.5" width="1.3" height="1.3"/>
				<rect x="403.7" y="23.4" fill="none" stroke="#CCCCCC" stroke-width="0.5" width="1.3" height="1.3"/>
				<rect x="400.2" y="23.4" fill="none" stroke="#CCCCCC" stroke-width="0.5" width="1.3" height="1.3"/>
			</g>
			<g>
				<rect x="400.2" y="26.9" fill="none" stroke="#CCCCCC" stroke-width="0.5" width="1.3" height="1.3"/>
				<rect x="403.7" y="26.9" fill="none" stroke="#CCCCCC" stroke-width="0.5" width="1.3" height="1.3"/>
				<rect x="407.3" y="26.9" fill="none" stroke="#CCCCCC" stroke-width="0.5" width="1.3" height="1.3"/>
				<rect x="410.8" y="26.9" fill="none" stroke="#CCCCCC" stroke-width="0.5" width="1.3" height="1.3"/>
				<rect x="414.3" y="26.9" fill="none" stroke="#CCCCCC" stroke-width="0.5" width="1.3" height="1.3"/>
			</g>
		</g>
	</g>
	<g>
		<g>
			<g>
				<rect x="328.3" y="87.4" fill="none" stroke="#CCCCCC" stroke-width="0.5" width="1.3" height="1.3"/>
				<rect x="324.8" y="87.4" fill="none" stroke="#CCCCCC" stroke-width="0.5" width="1.3" height="1.3"/>
				<rect x="321.3" y="87.4" fill="none" stroke="#CCCCCC" stroke-width="0.5" width="1.3" height="1.3"/>
				<rect x="317.7" y="87.4" fill="none" stroke="#CCCCCC" stroke-width="0.5" width="1.3" height="1.3"/>
				<rect x="314.2" y="87.4" fill="none" stroke="#CCCCCC" stroke-width="0.5" width="1.3" height="1.3"/>
			</g>
			<g>
				<rect x="314.2" y="91" fill="none" stroke="#CCCCCC" stroke-width="0.5" width="1.3" height="1.3"/>
				<rect x="317.7" y="91" fill="none" stroke="#CCCCCC" stroke-width="0.5" width="1.3" height="1.3"/>
				<rect x="321.3" y="91" fill="none" stroke="#CCCCCC" stroke-width="0.5" width="1.3" height="1.3"/>
				<rect x="324.8" y="91" fill="none" stroke="#CCCCCC" stroke-width="0.5" width="1.3" height="1.3"/>
				<rect x="328.3" y="91" fill="none" stroke="#CCCCCC" stroke-width="0.5" width="1.3" height="1.3"/>
			</g>
		</g>
		<g>
			<g>
				<rect x="349.8" y="87.4" fill="none" stroke="#CCCCCC" stroke-width="0.5" width="1.3" height="1.3"/>
				<rect x="346.3" y="87.4" fill="none" stroke="#CCCCCC" stroke-width="0.5" width="1.3" height="1.3"/>
				<rect x="342.8" y="87.4" fill="none" stroke="#CCCCCC" stroke-width="0.5" width="1.3" height="1.3"/>
				<rect x="339.2" y="87.4" fill="none" stroke="#CCCCCC" stroke-width="0.5" width="1.3" height="1.3"/>
				<rect x="335.7" y="87.4" fill="none" stroke="#CCCCCC" stroke-width="0.5" width="1.3" height="1.3"/>
			</g>
			<g>
				<rect x="335.7" y="91" fill="none" stroke="#CCCCCC" stroke-width="0.5" width="1.3" height="1.3"/>
				<rect x="339.2" y="91" fill="none" stroke="#CCCCCC" stroke-width="0.5" width="1.3" height="1.3"/>
				<rect x="342.8" y="91" fill="none" stroke="#CCCCCC" stroke-width="0.5" width="1.3" height="1.3"/>
				<rect x="346.3" y="91" fill="none" stroke="#CCCCCC" stroke-width="0.5" width="1.3" height="1.3"/>
				<rect x="349.8" y="91" fill="none" stroke="#CCCCCC" stroke-width="0.5" width="1.3" height="1.3"/>
			</g>
		</g>
		<g>
			<g>
				<rect x="371.3" y="87.4" fill="none" stroke="#CCCCCC" stroke-width="0.5" width="1.3" height="1.3"/>
				<rect x="367.8" y="87.4" fill="none" stroke="#CCCCCC" stroke-width="0.5" width="1.3" height="1.3"/>
				<rect x="364.3" y="87.4" fill="none" stroke="#CCCCCC" stroke-width="0.5" width="1.3" height="1.3"/>
				<rect x="360.7" y="87.4" fill="none" stroke="#CCCCCC" stroke-width="0.5" width="1.3" height="1.3"/>
				<rect x="357.2" y="87.4" fill="none" stroke="#CCCCCC" stroke-width="0.5" width="1.3" height="1.3"/>
			</g>
			<g>
				<rect x="357.2" y="91" fill="none" stroke="#CCCCCC" stroke-width="0.5" width="1.3" height="1.3"/>
				<rect x="360.7" y="91" fill="none" stroke="#CCCCCC" stroke-width="0.5" width="1.3" height="1.3"/>
				<rect x="364.3" y="91" fill="none" stroke="#CCCCCC" stroke-width="0.5" width="1.3" height="1.3"/>
				<rect x="367.8" y="91" fill="none" stroke="#CCCCCC" stroke-width="0.5" width="1.3" height="1.3"/>
				<rect x="371.3" y="91" fill="none" stroke="#CCCCCC" stroke-width="0.5" width="1.3" height="1.3"/>
			</g>
		</g>
		<g>
			<g>
				<rect x="392.8" y="87.4" fill="none" stroke="#CCCCCC" stroke-width="0.5" width="1.3" height="1.3"/>
				<rect x="389.3" y="87.4" fill="none" stroke="#CCCCCC" stroke-width="0.5" width="1.3" height="1.3"/>
				<rect x="385.8" y="87.4" fill="none" stroke="#CCCCCC" stroke-width="0.5" width="1.3" height="1.3"/>
				<rect x="382.2" y="87.4" fill="none" stroke="#CCCCCC" stroke-width="0.5" width="1.3" height="1.3"/>
				<rect x="378.7" y="87.4" fill="none" stroke="#CCCCCC" stroke-width="0.5" width="1.3" height="1.3"/>
			</g>
			<g>
				<rect x="378.7" y="91" fill="none" stroke="#CCCCCC" stroke-width="0.5" width="1.3" height="1.3"/>
				<rect x="382.2" y="91" fill="none" stroke="#CCCCCC" stroke-width="0.5" width="1.3" height="1.3"/>
				<rect x="385.8" y="91" fill="none" stroke="#CCCCCC" stroke-width="0.5" width="1.3" height="1.3"/>
				<rect x="389.3" y="91" fill="none" stroke="#CCCCCC" stroke-width="0.5" width="1.3" height="1.3"/>
				<rect x="392.8" y="91" fill="none" stroke="#CCCCCC" stroke-width="0.5" width="1.3" height="1.3"/>
			</g>
		</g>
		<g>
			<g>
				<rect x="414.3" y="87.4" fill="none" stroke="#CCCCCC" stroke-width="0.5" width="1.3" height="1.3"/>
				<rect x="410.8" y="87.4" fill="none" stroke="#CCCCCC" stroke-width="0.5" width="1.3" height="1.3"/>
				<rect x="407.3" y="87.4" fill="none" stroke="#CCCCCC" stroke-width="0.5" width="1.3" height="1.3"/>
				<rect x="403.7" y="87.4" fill="none" stroke="#CCCCCC" stroke-width="0.5" width="1.3" height="1.3"/>
				<rect x="400.2" y="87.4" fill="none" stroke="#CCCCCC" stroke-width="0.5" width="1.3" height="1.3"/>
			</g>
			<g>
				<rect x="400.2" y="91" fill="none" stroke="#CCCCCC" stroke-width="0.5" width="1.3" height="1.3"/>
				<rect x="403.7" y="91" fill="none" stroke="#CCCCCC" stroke-width="0.5" width="1.3" height="1.3"/>
				<rect x="407.3" y="91" fill="none" stroke="#CCCCCC" stroke-width="0.5" width="1.3" height="1.3"/>
				<rect x="410.8" y="91" fill="none" stroke="#CCCCCC" stroke-width="0.5" width="1.3" height="1.3"/>
				<rect x="414.3" y="91" fill="none" stroke="#CCCCCC" stroke-width="0.5" width="1.3" height="1.3"/>
			</g>
		</g>
	</g>
	<rect x="306.5" y="19.7" fill="none" stroke="#CCCCCC" stroke-width="0.5" width="120.5" height="75.2"/>
</g>
<g>
	<polyline fill="none" stroke="#000000" stroke-width="0.5" points="241.5,78.5 252,78.5 243.4,78.5 	"/>
	<line fill="none" stroke="#000000" stroke-width="0.5" x1="243.5" y1="81.4" x2="250.1" y2="81.4"/>
	<line fill="none" stroke="#000000" stroke-width="0.5" x1="245.6" y1="84" x2="248" y2="84"/>
</g>
<text transform="matrix(1 0 0 1 254.3786 86.9843)" font-family="'TheSerif-HP5Plain'" font-size="4.6873">Ground</text>
<polyline fill="none" stroke="#000000" stroke-width="0.5" stroke-linecap="round" stroke-linejoin="round" points="246.9,58.9 
	246.9,19.9 246.9,19.9 206,19.9 "/>
<polyline fill="none" stroke="#000000" stroke-width="0.5" points="249.5,42 246.8,42 244.1,42 "/>
<polygon stroke="#000000" stroke-width="0.5" points="247,41.8 249.3,38 244.5,38 "/>
<polygon fill="none" stroke="#000000" stroke-width="0.5" points="203.1,16.2 206.4,19.8 203.1,23.4 194.5,23.4 194.5,16.2 "/>
<polyline fill="none" stroke="#000000" stroke-width="0.5" points="246.8,58.9 244.6,59.9 249.4,61.4 244.5,63 249.7,64.3 
	244.4,65.9 247,66.6 247,78.4 "/>
<text transform="matrix(1 0 0 1 254.3786 43.99)" font-family="'TheSerif-HP5Plain'" font-size="4.6873">LED</text>
<text transform="matrix(1 0 0 1 187.8183 31.4238)" font-family="'TheSerif-HP5Plain'" font-size="4.6873">Digital I/O Pin 4</text>
<path fill="none" stroke="#808080" stroke-linecap="round" d="M350.7,38.2c0,0-7.1-1.3-10-10.4c-1.9-5.7-2.3-14.5-2.3-14.5"/>
<path fill="none" stroke="#221F1F" stroke-linecap="round" d="M390,48.9c0,0,8-9.9-0.9-37"/>
<g>
	<line fill="none" stroke="#000000" stroke-linecap="round" x1="390.3" y1="52.4" x2="379.1" y2="52.4"/>
	<line fill="none" stroke="#000000" stroke-linecap="round" x1="357.7" y1="52.4" x2="368.1" y2="52.4"/>
	<rect x="368" y="50.9" fill="#CCCCCC" width="11.2" height="3"/>
	<rect x="369" y="50.8" fill="#666666" width="1.5" height="3.1"/>
	<rect x="371.2" y="50.8" width="1.5" height="3.1"/>
	<rect x="373.4" y="50.8" fill="#808080" width="1.5" height="3.1"/>
	<rect x="376.4" y="50.8" fill="#B3B3B3" width="1.5" height="3.1"/>
</g>
<text transform="matrix(1 0 0 1 254.3786 64.5277)" font-family="'TheSerif-HP5Plain'" font-size="4.6873">330 ohm</text>
<g>
	<g>
		<polygon points="257.3,32.7 255.5,36.1 253.9,34.5 		"/>
		<line fill="none" stroke="#000000" stroke-width="0.5" x1="255.5" y1="34.5" x2="251.3" y2="38.7"/>
	</g>
	<g>
		<polygon points="254.9,30.4 253.2,33.8 251.5,32.1 		"/>
		<line fill="none" stroke="#000000" stroke-width="0.5" x1="253.2" y1="32.1" x2="249" y2="36.4"/>
	</g>
</g>
<g>
	<line fill="none" stroke="#000000" stroke-linecap="round" x1="357.9" y1="48.8" x2="337.8" y2="59.5"/>
	<line fill="none" stroke="#000000" stroke-linecap="round" x1="335.3" y1="54.9" x2="350.8" y2="41.6"/>
	<path fill="#808080" d="M339.3,60.6l-6.4,4.2c0,0-3.3,1.7-5.5-2c-2.3-3.7,0.9-5.5,0.9-5.5l6.4-4.2L339.3,60.6z"/>
</g>
</svg>
