<?xml version="1.0" encoding="utf-8"?>
<!-- Generator: Adobe Illustrator 18.0.0, SVG Export Plug-In . SVG Version: 6.00 Build 0)  -->
<!DOCTYPE svg PUBLIC "-//W3C//DTD SVG 1.1//EN" "http://www.w3.org/Graphics/SVG/1.1/DTD/svg11.dtd">
<svg version="1.1" id="Layer_1" xmlns="http://www.w3.org/2000/svg" xmlns:xlink="http://www.w3.org/1999/xlink" x="0px" y="0px"
	 viewBox="0 0 687 100" enable-background="new 0 0 687 100" xml:space="preserve">
<line fill="none" stroke="#CECCCC" stroke-width="2" x1="367.6" y1="19.5" x2="602.9" y2="19.5"/>
<line fill="none" stroke="#CECCCC" stroke-width="0.5" x1="367.6" y1="8" x2="367.6" y2="68.1"/>
<line fill="none" stroke="#CECCCC" stroke-width="0.5" x1="367.6" y1="68.1" x2="602.9" y2="68.1"/>
<g>
	<text transform="matrix(1 0 0 1 579.4028 81.0697)" fill="#010101" font-family="'TheSansMono-W3Light'" font-size="9.8528">Time</text>
</g>
<g>
	<text transform="matrix(1 0 0 1 358.2632 11.263)" fill="#010101" font-family="'TheSansMono-W3Light'" font-size="9.8528">5</text>
</g>
<g>
	<text transform="matrix(1 0 0 1 358.2632 71.473)" fill="#010101" font-family="'TheSansMono-W3Light'" font-size="9.8528">0</text>
</g>
<g>
	<text transform="matrix(0 -1 1 0 351.1489 37.8919)" fill="#010101" font-family="'TheSansMono-W3Light'" font-size="9.8528">Volts</text>
</g>
<g>
	<text transform="matrix(1 0 0 1 367.5678 92.0169)" fill="#020202" font-family="'TheSerif-HP5Plain'" font-size="11.4949">80% duty cycle emulates 4 volts</text>
</g>
<line fill="none" stroke="#CECCCC" stroke-width="0.5" x1="367.6" y1="8" x2="367.6" y2="68.1"/>
<g>
	<text transform="matrix(1 0 0 1 60.8823 92.0169)" fill="#020202" font-family="'TheSerif-HP5Plain'" font-size="11.4949">10% duty cycle emulates 0.5 volts</text>
</g>
<polyline fill="none" stroke="#020202" stroke-width="0.5" points="367.6,8 414.6,8 414.6,68.1 426.4,68.1 426.4,8 473.5,8 
	473.5,68.1 485.2,68.1 485.2,8 532.4,8 532.4,68.1 544.1,68.1 544.1,8 591.2,8 591.2,68.1 603,68.1 "/>
<line fill="none" stroke="#CECCCC" stroke-width="0.5" x1="61" y1="8" x2="61" y2="68.1"/>
<line fill="none" stroke="#CECCCC" stroke-width="0.5" x1="61.1" y1="68.1" x2="296.4" y2="68.1"/>
<g>
	<text transform="matrix(1 0 0 1 272.8574 81.0697)" fill="#010101" font-family="'TheSansMono-W3Light'" font-size="9.8528">Time</text>
</g>
<g>
	<text transform="matrix(1 0 0 1 52.0068 11.263)" fill="#010101" font-family="'TheSansMono-W3Light'" font-size="9.8528">5</text>
</g>
<g>
	<text transform="matrix(1 0 0 1 52.0068 71.473)" fill="#010101" font-family="'TheSansMono-W3Light'" font-size="9.8528">0</text>
</g>
<g>
	<text transform="matrix(0 -1 1 0 44.8896 37.8919)" fill="#010101" font-family="'TheSansMono-W3Light'" font-size="9.8528">Volts</text>
</g>
<line fill="none" stroke="#CECCCC" stroke-width="0.5" x1="61" y1="8" x2="61" y2="68.1"/>
<line fill="none" stroke="#CECCCC" stroke-width="2" x1="61" y1="61.1" x2="296.4" y2="61.1"/>
<polyline fill="none" stroke="#020202" stroke-width="0.5" points="296.4,68.1 243.5,68.1 243.5,8 237.6,8 237.6,68.1 184.7,68.1 
	184.7,8 178.8,8 178.8,68.1 125.7,68.1 125.7,8 119.9,8 119.8,68.1 66.9,68.1 66.9,8 61,8 "/>
</svg>
