<?xml version="1.0" encoding="utf-8"?>
<!-- Generator: Adobe Illustrator 18.0.0, SVG Export Plug-In . SVG Version: 6.00 Build 0)  -->
<!DOCTYPE svg PUBLIC "-//W3C//DTD SVG 1.1//EN" "http://www.w3.org/Graphics/SVG/1.1/DTD/svg11.dtd">
<svg version="1.1" id="Layer_1" xmlns="http://www.w3.org/2000/svg" xmlns:xlink="http://www.w3.org/1999/xlink" x="0px" y="0px"
	 viewBox="0 0 687 220" enable-background="new 0 0 687 220" xml:space="preserve">
<g>
	<g>
		<rect x="321.9" y="96" fill="none" stroke="#CDCCCC" stroke-width="0.5" width="2.8" height="2.8"/>
		<rect x="321.9" y="103.4" fill="none" stroke="#CDCCCC" stroke-width="0.5" width="2.8" height="2.8"/>
		<rect x="321.9" y="110.8" fill="none" stroke="#CDCCCC" stroke-width="0.5" width="2.8" height="2.8"/>
		<rect x="321.9" y="118.2" fill="none" stroke="#CDCCCC" stroke-width="0.5" width="2.8" height="2.8"/>
		<rect x="321.9" y="125.6" fill="none" stroke="#CDCCCC" stroke-width="0.5" width="2.8" height="2.8"/>
	</g>
	<g>
		<rect x="329.4" y="96" fill="none" stroke="#CDCCCC" stroke-width="0.5" width="2.8" height="2.8"/>
		<rect x="329.4" y="103.4" fill="none" stroke="#CDCCCC" stroke-width="0.5" width="2.8" height="2.8"/>
		<rect x="329.4" y="110.8" fill="none" stroke="#CDCCCC" stroke-width="0.5" width="2.8" height="2.8"/>
		<rect x="329.4" y="118.2" fill="none" stroke="#CDCCCC" stroke-width="0.5" width="2.8" height="2.8"/>
		<rect x="329.4" y="125.6" fill="none" stroke="#CDCCCC" stroke-width="0.5" width="2.8" height="2.8"/>
	</g>
	<g>
		<rect x="337" y="96" fill="none" stroke="#CDCCCC" stroke-width="0.5" width="2.8" height="2.8"/>
		<rect x="337" y="103.4" fill="none" stroke="#CDCCCC" stroke-width="0.5" width="2.8" height="2.8"/>
		<rect x="337" y="110.8" fill="none" stroke="#CDCCCC" stroke-width="0.5" width="2.8" height="2.8"/>
		<rect x="337" y="118.2" fill="none" stroke="#CDCCCC" stroke-width="0.5" width="2.8" height="2.8"/>
		<rect x="337" y="125.6" fill="none" stroke="#CDCCCC" stroke-width="0.5" width="2.8" height="2.8"/>
	</g>
	<g>
		<rect x="344.5" y="96" fill="none" stroke="#CDCCCC" stroke-width="0.5" width="2.8" height="2.8"/>
		<rect x="344.5" y="103.4" fill="none" stroke="#CDCCCC" stroke-width="0.5" width="2.8" height="2.8"/>
		<rect x="344.5" y="110.8" fill="none" stroke="#CDCCCC" stroke-width="0.5" width="2.8" height="2.8"/>
		<rect x="344.5" y="118.2" fill="none" stroke="#CDCCCC" stroke-width="0.5" width="2.8" height="2.8"/>
		<rect x="344.5" y="125.6" fill="none" stroke="#CDCCCC" stroke-width="0.5" width="2.8" height="2.8"/>
	</g>
	<g>
		<rect x="352.1" y="96" fill="none" stroke="#CDCCCC" stroke-width="0.5" width="2.8" height="2.8"/>
		<rect x="352.1" y="103.4" fill="none" stroke="#CDCCCC" stroke-width="0.5" width="2.8" height="2.8"/>
		<rect x="352.1" y="110.8" fill="none" stroke="#CDCCCC" stroke-width="0.5" width="2.8" height="2.8"/>
		<rect x="352.1" y="118.2" fill="none" stroke="#CDCCCC" stroke-width="0.5" width="2.8" height="2.8"/>
		<rect x="352.1" y="125.6" fill="none" stroke="#CDCCCC" stroke-width="0.5" width="2.8" height="2.8"/>
	</g>
	<g>
		<rect x="359.6" y="96" fill="none" stroke="#CDCCCC" stroke-width="0.5" width="2.8" height="2.8"/>
		<rect x="359.6" y="103.4" fill="none" stroke="#CDCCCC" stroke-width="0.5" width="2.8" height="2.8"/>
		<rect x="359.6" y="110.8" fill="none" stroke="#CDCCCC" stroke-width="0.5" width="2.8" height="2.8"/>
		<rect x="359.6" y="118.2" fill="none" stroke="#CDCCCC" stroke-width="0.5" width="2.8" height="2.8"/>
		<rect x="359.6" y="125.6" fill="none" stroke="#CDCCCC" stroke-width="0.5" width="2.8" height="2.8"/>
	</g>
	<g>
		<rect x="367.2" y="96" fill="none" stroke="#CDCCCC" stroke-width="0.5" width="2.8" height="2.8"/>
		<rect x="367.2" y="103.4" fill="none" stroke="#CDCCCC" stroke-width="0.5" width="2.8" height="2.8"/>
		<rect x="367.2" y="110.8" fill="none" stroke="#CDCCCC" stroke-width="0.5" width="2.8" height="2.8"/>
		<rect x="367.2" y="118.2" fill="none" stroke="#CDCCCC" stroke-width="0.5" width="2.8" height="2.8"/>
		<rect x="367.2" y="125.6" fill="none" stroke="#CDCCCC" stroke-width="0.5" width="2.8" height="2.8"/>
	</g>
	<g>
		<rect x="374.8" y="96" fill="none" stroke="#CDCCCC" stroke-width="0.5" width="2.8" height="2.8"/>
		<rect x="374.8" y="103.4" fill="none" stroke="#CDCCCC" stroke-width="0.5" width="2.8" height="2.8"/>
		<rect x="374.8" y="110.8" fill="none" stroke="#CDCCCC" stroke-width="0.5" width="2.8" height="2.8"/>
		<rect x="374.8" y="118.2" fill="none" stroke="#CDCCCC" stroke-width="0.5" width="2.8" height="2.8"/>
		<rect x="374.8" y="125.6" fill="none" stroke="#CDCCCC" stroke-width="0.5" width="2.8" height="2.8"/>
	</g>
	<g>
		<rect x="382.4" y="96" fill="none" stroke="#CDCCCC" stroke-width="0.5" width="2.8" height="2.8"/>
		<rect x="382.4" y="103.4" fill="none" stroke="#CDCCCC" stroke-width="0.5" width="2.8" height="2.8"/>
		<rect x="382.4" y="110.8" fill="none" stroke="#CDCCCC" stroke-width="0.5" width="2.8" height="2.8"/>
		<rect x="382.4" y="118.2" fill="none" stroke="#CDCCCC" stroke-width="0.5" width="2.8" height="2.8"/>
		<rect x="382.4" y="125.6" fill="none" stroke="#CDCCCC" stroke-width="0.5" width="2.8" height="2.8"/>
	</g>
	<g>
		<rect x="389.9" y="96" fill="none" stroke="#CDCCCC" stroke-width="0.5" width="2.8" height="2.8"/>
		<rect x="389.9" y="103.4" fill="none" stroke="#CDCCCC" stroke-width="0.5" width="2.8" height="2.8"/>
		<rect x="389.9" y="110.8" fill="none" stroke="#CDCCCC" stroke-width="0.5" width="2.8" height="2.8"/>
		<rect x="389.9" y="118.2" fill="none" stroke="#CDCCCC" stroke-width="0.5" width="2.8" height="2.8"/>
		<rect x="389.9" y="125.6" fill="none" stroke="#CDCCCC" stroke-width="0.5" width="2.8" height="2.8"/>
	</g>
	<g>
		<rect x="397.5" y="96" fill="none" stroke="#CDCCCC" stroke-width="0.5" width="2.8" height="2.8"/>
		<rect x="397.5" y="103.4" fill="none" stroke="#CDCCCC" stroke-width="0.5" width="2.8" height="2.8"/>
		<rect x="397.5" y="110.8" fill="none" stroke="#CDCCCC" stroke-width="0.5" width="2.8" height="2.8"/>
		<rect x="397.5" y="118.2" fill="none" stroke="#CDCCCC" stroke-width="0.5" width="2.8" height="2.8"/>
		<rect x="397.5" y="125.6" fill="none" stroke="#CDCCCC" stroke-width="0.5" width="2.8" height="2.8"/>
	</g>
	<g>
		<rect x="405" y="96" fill="none" stroke="#CDCCCC" stroke-width="0.5" width="2.8" height="2.8"/>
		<rect x="405" y="103.4" fill="none" stroke="#CDCCCC" stroke-width="0.5" width="2.8" height="2.8"/>
		<rect x="405" y="110.8" fill="none" stroke="#CDCCCC" stroke-width="0.5" width="2.8" height="2.8"/>
		<rect x="405" y="118.2" fill="none" stroke="#CDCCCC" stroke-width="0.5" width="2.8" height="2.8"/>
		<rect x="405" y="125.6" fill="none" stroke="#CDCCCC" stroke-width="0.5" width="2.8" height="2.8"/>
	</g>
	<g>
		<rect x="412.6" y="96" fill="none" stroke="#CDCCCC" stroke-width="0.5" width="2.8" height="2.8"/>
		<rect x="412.6" y="103.4" fill="none" stroke="#CDCCCC" stroke-width="0.5" width="2.8" height="2.8"/>
		<rect x="412.6" y="110.8" fill="none" stroke="#CDCCCC" stroke-width="0.5" width="2.8" height="2.8"/>
		<rect x="412.6" y="118.2" fill="none" stroke="#CDCCCC" stroke-width="0.5" width="2.8" height="2.8"/>
		<rect x="412.6" y="125.6" fill="none" stroke="#CDCCCC" stroke-width="0.5" width="2.8" height="2.8"/>
	</g>
	<g>
		<rect x="420.3" y="96" fill="none" stroke="#CDCCCC" stroke-width="0.5" width="2.8" height="2.8"/>
		<rect x="420.3" y="103.4" fill="none" stroke="#CDCCCC" stroke-width="0.5" width="2.8" height="2.8"/>
		<rect x="420.3" y="110.8" fill="none" stroke="#CDCCCC" stroke-width="0.5" width="2.8" height="2.8"/>
		<rect x="420.3" y="118.2" fill="none" stroke="#CDCCCC" stroke-width="0.5" width="2.8" height="2.8"/>
		<rect x="420.3" y="125.6" fill="none" stroke="#CDCCCC" stroke-width="0.5" width="2.8" height="2.8"/>
	</g>
	<g>
		<rect x="427.8" y="96" fill="none" stroke="#CDCCCC" stroke-width="0.5" width="2.8" height="2.8"/>
		<rect x="427.8" y="103.4" fill="none" stroke="#CDCCCC" stroke-width="0.5" width="2.8" height="2.8"/>
		<rect x="427.8" y="110.8" fill="none" stroke="#CDCCCC" stroke-width="0.5" width="2.8" height="2.8"/>
		<rect x="427.8" y="118.2" fill="none" stroke="#CDCCCC" stroke-width="0.5" width="2.8" height="2.8"/>
		<rect x="427.8" y="125.6" fill="none" stroke="#CDCCCC" stroke-width="0.5" width="2.8" height="2.8"/>
	</g>
	<g>
		<rect x="435.4" y="96" fill="none" stroke="#CDCCCC" stroke-width="0.5" width="2.8" height="2.8"/>
		<rect x="435.4" y="103.4" fill="none" stroke="#CDCCCC" stroke-width="0.5" width="2.8" height="2.8"/>
		<rect x="435.4" y="110.8" fill="none" stroke="#CDCCCC" stroke-width="0.5" width="2.8" height="2.8"/>
		<rect x="435.4" y="118.2" fill="none" stroke="#CDCCCC" stroke-width="0.5" width="2.8" height="2.8"/>
		<rect x="435.4" y="125.6" fill="none" stroke="#CDCCCC" stroke-width="0.5" width="2.8" height="2.8"/>
	</g>
	<g>
		<rect x="442.9" y="96" fill="none" stroke="#CDCCCC" stroke-width="0.5" width="2.8" height="2.8"/>
		<rect x="442.9" y="103.4" fill="none" stroke="#CDCCCC" stroke-width="0.5" width="2.8" height="2.8"/>
		<rect x="442.9" y="110.8" fill="none" stroke="#CDCCCC" stroke-width="0.5" width="2.8" height="2.8"/>
		<rect x="442.9" y="118.2" fill="none" stroke="#CDCCCC" stroke-width="0.5" width="2.8" height="2.8"/>
		<rect x="442.9" y="125.6" fill="none" stroke="#CDCCCC" stroke-width="0.5" width="2.8" height="2.8"/>
	</g>
	<g>
		<rect x="450.5" y="96" fill="none" stroke="#CDCCCC" stroke-width="0.5" width="2.8" height="2.8"/>
		<rect x="450.5" y="103.4" fill="none" stroke="#CDCCCC" stroke-width="0.5" width="2.8" height="2.8"/>
		<rect x="450.5" y="110.8" fill="none" stroke="#CDCCCC" stroke-width="0.5" width="2.8" height="2.8"/>
		<rect x="450.5" y="118.2" fill="none" stroke="#CDCCCC" stroke-width="0.5" width="2.8" height="2.8"/>
		<rect x="450.5" y="125.6" fill="none" stroke="#CDCCCC" stroke-width="0.5" width="2.8" height="2.8"/>
	</g>
	<g>
		<rect x="458" y="96" fill="none" stroke="#CDCCCC" stroke-width="0.5" width="2.8" height="2.8"/>
		<rect x="458" y="103.4" fill="none" stroke="#CDCCCC" stroke-width="0.5" width="2.8" height="2.8"/>
		<rect x="458" y="110.8" fill="none" stroke="#CDCCCC" stroke-width="0.5" width="2.8" height="2.8"/>
		<rect x="458" y="118.2" fill="none" stroke="#CDCCCC" stroke-width="0.5" width="2.8" height="2.8"/>
		<rect x="458" y="125.6" fill="none" stroke="#CDCCCC" stroke-width="0.5" width="2.8" height="2.8"/>
	</g>
	<g>
		<rect x="465.6" y="96" fill="none" stroke="#CDCCCC" stroke-width="0.5" width="2.8" height="2.8"/>
		<rect x="465.6" y="103.4" fill="none" stroke="#CDCCCC" stroke-width="0.5" width="2.8" height="2.8"/>
		<rect x="465.6" y="110.8" fill="none" stroke="#CDCCCC" stroke-width="0.5" width="2.8" height="2.8"/>
		<rect x="465.6" y="118.2" fill="none" stroke="#CDCCCC" stroke-width="0.5" width="2.8" height="2.8"/>
		<rect x="465.6" y="125.6" fill="none" stroke="#CDCCCC" stroke-width="0.5" width="2.8" height="2.8"/>
	</g>
	<g>
		<rect x="473.2" y="96" fill="none" stroke="#CDCCCC" stroke-width="0.5" width="2.8" height="2.8"/>
		<rect x="473.2" y="103.4" fill="none" stroke="#CDCCCC" stroke-width="0.5" width="2.8" height="2.8"/>
		<rect x="473.2" y="110.8" fill="none" stroke="#CDCCCC" stroke-width="0.5" width="2.8" height="2.8"/>
		<rect x="473.2" y="118.2" fill="none" stroke="#CDCCCC" stroke-width="0.5" width="2.8" height="2.8"/>
		<rect x="473.2" y="125.6" fill="none" stroke="#CDCCCC" stroke-width="0.5" width="2.8" height="2.8"/>
	</g>
	<g>
		<rect x="480.8" y="96" fill="none" stroke="#CDCCCC" stroke-width="0.5" width="2.8" height="2.8"/>
		<rect x="480.8" y="103.4" fill="none" stroke="#CDCCCC" stroke-width="0.5" width="2.8" height="2.8"/>
		<rect x="480.8" y="110.8" fill="none" stroke="#CDCCCC" stroke-width="0.5" width="2.8" height="2.8"/>
		<rect x="480.8" y="118.2" fill="none" stroke="#CDCCCC" stroke-width="0.5" width="2.8" height="2.8"/>
		<rect x="480.8" y="125.6" fill="none" stroke="#CDCCCC" stroke-width="0.5" width="2.8" height="2.8"/>
	</g>
	<g>
		<rect x="488.3" y="96" fill="none" stroke="#CDCCCC" stroke-width="0.5" width="2.8" height="2.8"/>
		<rect x="488.3" y="103.4" fill="none" stroke="#CDCCCC" stroke-width="0.5" width="2.8" height="2.8"/>
		<rect x="488.3" y="110.8" fill="none" stroke="#CDCCCC" stroke-width="0.5" width="2.8" height="2.8"/>
		<rect x="488.3" y="118.2" fill="none" stroke="#CDCCCC" stroke-width="0.5" width="2.8" height="2.8"/>
		<rect x="488.3" y="125.6" fill="none" stroke="#CDCCCC" stroke-width="0.5" width="2.8" height="2.8"/>
	</g>
	<g>
		<rect x="291.6" y="96" fill="none" stroke="#CDCCCC" stroke-width="0.5" width="2.8" height="2.8"/>
		<rect x="291.6" y="103.4" fill="none" stroke="#CDCCCC" stroke-width="0.5" width="2.8" height="2.8"/>
		<rect x="291.6" y="110.8" fill="none" stroke="#CDCCCC" stroke-width="0.5" width="2.8" height="2.8"/>
		<rect x="291.6" y="118.2" fill="none" stroke="#CDCCCC" stroke-width="0.5" width="2.8" height="2.8"/>
		<rect x="291.6" y="125.6" fill="none" stroke="#CDCCCC" stroke-width="0.5" width="2.8" height="2.8"/>
	</g>
	<g>
		<rect x="299.1" y="96" fill="none" stroke="#CDCCCC" stroke-width="0.5" width="2.8" height="2.8"/>
		<rect x="299.1" y="103.4" fill="none" stroke="#CDCCCC" stroke-width="0.5" width="2.8" height="2.8"/>
		<rect x="299.1" y="110.8" fill="none" stroke="#CDCCCC" stroke-width="0.5" width="2.8" height="2.8"/>
		<rect x="299.1" y="118.2" fill="none" stroke="#CDCCCC" stroke-width="0.5" width="2.8" height="2.8"/>
		<rect x="299.1" y="125.6" fill="none" stroke="#CDCCCC" stroke-width="0.5" width="2.8" height="2.8"/>
	</g>
	<g>
		<rect x="306.7" y="96" fill="none" stroke="#CDCCCC" stroke-width="0.5" width="2.8" height="2.8"/>
		<rect x="306.7" y="103.4" fill="none" stroke="#CDCCCC" stroke-width="0.5" width="2.8" height="2.8"/>
		<rect x="306.7" y="110.8" fill="none" stroke="#CDCCCC" stroke-width="0.5" width="2.8" height="2.8"/>
		<rect x="306.7" y="118.2" fill="none" stroke="#CDCCCC" stroke-width="0.5" width="2.8" height="2.8"/>
		<rect x="306.7" y="125.6" fill="none" stroke="#CDCCCC" stroke-width="0.5" width="2.8" height="2.8"/>
	</g>
	<g>
		<rect x="314.2" y="96" fill="none" stroke="#CDCCCC" stroke-width="0.5" width="2.8" height="2.8"/>
		<rect x="314.2" y="103.4" fill="none" stroke="#CDCCCC" stroke-width="0.5" width="2.8" height="2.8"/>
		<rect x="314.2" y="110.8" fill="none" stroke="#CDCCCC" stroke-width="0.5" width="2.8" height="2.8"/>
		<rect x="314.2" y="118.2" fill="none" stroke="#CDCCCC" stroke-width="0.5" width="2.8" height="2.8"/>
		<rect x="314.2" y="125.6" fill="none" stroke="#CDCCCC" stroke-width="0.5" width="2.8" height="2.8"/>
	</g>
	<g>
		<rect x="268.8" y="96" fill="none" stroke="#CDCCCC" stroke-width="0.5" width="2.8" height="2.8"/>
		<rect x="268.8" y="103.4" fill="none" stroke="#CDCCCC" stroke-width="0.5" width="2.8" height="2.8"/>
		<rect x="268.8" y="110.8" fill="none" stroke="#CDCCCC" stroke-width="0.5" width="2.8" height="2.8"/>
		<rect x="268.8" y="118.2" fill="none" stroke="#CDCCCC" stroke-width="0.5" width="2.8" height="2.8"/>
		<rect x="268.8" y="125.6" fill="none" stroke="#CDCCCC" stroke-width="0.5" width="2.8" height="2.8"/>
	</g>
	<g>
		<rect x="276.5" y="96" fill="none" stroke="#CDCCCC" stroke-width="0.5" width="2.8" height="2.8"/>
		<rect x="276.5" y="103.4" fill="none" stroke="#CDCCCC" stroke-width="0.5" width="2.8" height="2.8"/>
		<rect x="276.5" y="110.8" fill="none" stroke="#CDCCCC" stroke-width="0.5" width="2.8" height="2.8"/>
		<rect x="276.5" y="118.2" fill="none" stroke="#CDCCCC" stroke-width="0.5" width="2.8" height="2.8"/>
		<rect x="276.5" y="125.6" fill="none" stroke="#CDCCCC" stroke-width="0.5" width="2.8" height="2.8"/>
	</g>
	<g>
		<rect x="284" y="96" fill="none" stroke="#CDCCCC" stroke-width="0.5" width="2.8" height="2.8"/>
		<rect x="284" y="103.4" fill="none" stroke="#CDCCCC" stroke-width="0.5" width="2.8" height="2.8"/>
		<rect x="284" y="110.8" fill="none" stroke="#CDCCCC" stroke-width="0.5" width="2.8" height="2.8"/>
		<rect x="284" y="118.2" fill="none" stroke="#CDCCCC" stroke-width="0.5" width="2.8" height="2.8"/>
		<rect x="284" y="125.6" fill="none" stroke="#CDCCCC" stroke-width="0.5" width="2.8" height="2.8"/>
	</g>
</g>
<g>
	<g>
		<rect x="321.9" y="147.4" fill="none" stroke="#CDCCCC" stroke-width="0.5" width="2.8" height="2.8"/>
		<rect x="321.9" y="154.8" fill="none" stroke="#CDCCCC" stroke-width="0.5" width="2.8" height="2.8"/>
		<rect x="321.9" y="162.2" fill="none" stroke="#CDCCCC" stroke-width="0.5" width="2.8" height="2.8"/>
		<rect x="321.9" y="169.7" fill="none" stroke="#CDCCCC" stroke-width="0.5" width="2.8" height="2.8"/>
		<rect x="321.9" y="177.2" fill="none" stroke="#CDCCCC" stroke-width="0.5" width="2.8" height="2.8"/>
	</g>
	<g>
		<rect x="329.4" y="147.4" fill="none" stroke="#CDCCCC" stroke-width="0.5" width="2.8" height="2.8"/>
		<rect x="329.4" y="154.8" fill="none" stroke="#CDCCCC" stroke-width="0.5" width="2.8" height="2.8"/>
		<rect x="329.4" y="162.2" fill="none" stroke="#CDCCCC" stroke-width="0.5" width="2.8" height="2.8"/>
		<rect x="329.4" y="169.7" fill="none" stroke="#CDCCCC" stroke-width="0.5" width="2.8" height="2.8"/>
		<rect x="329.4" y="177.2" fill="none" stroke="#CDCCCC" stroke-width="0.5" width="2.8" height="2.8"/>
	</g>
	<g>
		<rect x="337" y="147.4" fill="none" stroke="#CDCCCC" stroke-width="0.5" width="2.8" height="2.8"/>
		<rect x="337" y="154.8" fill="none" stroke="#CDCCCC" stroke-width="0.5" width="2.8" height="2.8"/>
		<rect x="337" y="162.2" fill="none" stroke="#CDCCCC" stroke-width="0.5" width="2.8" height="2.8"/>
		<rect x="337" y="169.7" fill="none" stroke="#CDCCCC" stroke-width="0.5" width="2.8" height="2.8"/>
		<rect x="337" y="177.2" fill="none" stroke="#CDCCCC" stroke-width="0.5" width="2.8" height="2.8"/>
	</g>
	<g>
		<rect x="344.5" y="147.4" fill="none" stroke="#CDCCCC" stroke-width="0.5" width="2.8" height="2.8"/>
		<rect x="344.5" y="154.8" fill="none" stroke="#CDCCCC" stroke-width="0.5" width="2.8" height="2.8"/>
		<rect x="344.5" y="162.2" fill="none" stroke="#CDCCCC" stroke-width="0.5" width="2.8" height="2.8"/>
		<rect x="344.5" y="169.7" fill="none" stroke="#CDCCCC" stroke-width="0.5" width="2.8" height="2.8"/>
		<rect x="344.5" y="177.2" fill="none" stroke="#CDCCCC" stroke-width="0.5" width="2.8" height="2.8"/>
	</g>
	<g>
		<rect x="352.1" y="147.4" fill="none" stroke="#CDCCCC" stroke-width="0.5" width="2.8" height="2.8"/>
		<rect x="352.1" y="154.8" fill="none" stroke="#CDCCCC" stroke-width="0.5" width="2.8" height="2.8"/>
		<rect x="352.1" y="162.2" fill="none" stroke="#CDCCCC" stroke-width="0.5" width="2.8" height="2.8"/>
		<rect x="352.1" y="169.7" fill="none" stroke="#CDCCCC" stroke-width="0.5" width="2.8" height="2.8"/>
		<rect x="352.1" y="177.2" fill="none" stroke="#CDCCCC" stroke-width="0.5" width="2.8" height="2.8"/>
	</g>
	<g>
		<rect x="359.6" y="147.4" fill="none" stroke="#CDCCCC" stroke-width="0.5" width="2.8" height="2.8"/>
		<rect x="359.6" y="154.8" fill="none" stroke="#CDCCCC" stroke-width="0.5" width="2.8" height="2.8"/>
		<rect x="359.6" y="162.2" fill="none" stroke="#CDCCCC" stroke-width="0.5" width="2.8" height="2.8"/>
		<rect x="359.6" y="169.7" fill="none" stroke="#CDCCCC" stroke-width="0.5" width="2.8" height="2.8"/>
		<rect x="359.6" y="177.2" fill="none" stroke="#CDCCCC" stroke-width="0.5" width="2.8" height="2.8"/>
	</g>
	<g>
		<rect x="367.2" y="147.4" fill="none" stroke="#CDCCCC" stroke-width="0.5" width="2.8" height="2.8"/>
		<rect x="367.2" y="154.8" fill="none" stroke="#CDCCCC" stroke-width="0.5" width="2.8" height="2.8"/>
		<rect x="367.2" y="162.2" fill="none" stroke="#CDCCCC" stroke-width="0.5" width="2.8" height="2.8"/>
		<rect x="367.2" y="169.7" fill="none" stroke="#CDCCCC" stroke-width="0.5" width="2.8" height="2.8"/>
		<rect x="367.2" y="177.2" fill="none" stroke="#CDCCCC" stroke-width="0.5" width="2.8" height="2.8"/>
	</g>
	<g>
		<rect x="374.8" y="147.4" fill="none" stroke="#CDCCCC" stroke-width="0.5" width="2.8" height="2.8"/>
		<rect x="374.8" y="154.8" fill="none" stroke="#CDCCCC" stroke-width="0.5" width="2.8" height="2.8"/>
		<rect x="374.8" y="162.2" fill="none" stroke="#CDCCCC" stroke-width="0.5" width="2.8" height="2.8"/>
		<rect x="374.8" y="169.7" fill="none" stroke="#CDCCCC" stroke-width="0.5" width="2.8" height="2.8"/>
		<rect x="374.8" y="177.2" fill="none" stroke="#CDCCCC" stroke-width="0.5" width="2.8" height="2.8"/>
	</g>
	<g>
		<rect x="382.4" y="147.4" fill="none" stroke="#CDCCCC" stroke-width="0.5" width="2.8" height="2.8"/>
		<rect x="382.4" y="154.8" fill="none" stroke="#CDCCCC" stroke-width="0.5" width="2.8" height="2.8"/>
		<rect x="382.4" y="162.2" fill="none" stroke="#CDCCCC" stroke-width="0.5" width="2.8" height="2.8"/>
		<rect x="382.4" y="169.7" fill="none" stroke="#CDCCCC" stroke-width="0.5" width="2.8" height="2.8"/>
		<rect x="382.4" y="177.2" fill="none" stroke="#CDCCCC" stroke-width="0.5" width="2.8" height="2.8"/>
	</g>
	<g>
		<rect x="389.9" y="147.4" fill="none" stroke="#CDCCCC" stroke-width="0.5" width="2.8" height="2.8"/>
		<rect x="389.9" y="154.8" fill="none" stroke="#CDCCCC" stroke-width="0.5" width="2.8" height="2.8"/>
		<rect x="389.9" y="162.2" fill="none" stroke="#CDCCCC" stroke-width="0.5" width="2.8" height="2.8"/>
		<rect x="389.9" y="169.7" fill="none" stroke="#CDCCCC" stroke-width="0.5" width="2.8" height="2.8"/>
		<rect x="389.9" y="177.2" fill="none" stroke="#CDCCCC" stroke-width="0.5" width="2.8" height="2.8"/>
	</g>
	<g>
		<rect x="397.5" y="147.4" fill="none" stroke="#CDCCCC" stroke-width="0.5" width="2.8" height="2.8"/>
		<rect x="397.5" y="154.8" fill="none" stroke="#CDCCCC" stroke-width="0.5" width="2.8" height="2.8"/>
		<rect x="397.5" y="162.2" fill="none" stroke="#CDCCCC" stroke-width="0.5" width="2.8" height="2.8"/>
		<rect x="397.5" y="169.7" fill="none" stroke="#CDCCCC" stroke-width="0.5" width="2.8" height="2.8"/>
		<rect x="397.5" y="177.2" fill="none" stroke="#CDCCCC" stroke-width="0.5" width="2.8" height="2.8"/>
	</g>
	<g>
		<rect x="405" y="147.4" fill="none" stroke="#CDCCCC" stroke-width="0.5" width="2.8" height="2.8"/>
		<rect x="405" y="154.8" fill="none" stroke="#CDCCCC" stroke-width="0.5" width="2.8" height="2.8"/>
		<rect x="405" y="162.2" fill="none" stroke="#CDCCCC" stroke-width="0.5" width="2.8" height="2.8"/>
		<rect x="405" y="169.7" fill="none" stroke="#CDCCCC" stroke-width="0.5" width="2.8" height="2.8"/>
		<rect x="405" y="177.2" fill="none" stroke="#CDCCCC" stroke-width="0.5" width="2.8" height="2.8"/>
	</g>
	<g>
		<rect x="412.6" y="147.4" fill="none" stroke="#CDCCCC" stroke-width="0.5" width="2.8" height="2.8"/>
		<rect x="412.6" y="154.8" fill="none" stroke="#CDCCCC" stroke-width="0.5" width="2.8" height="2.8"/>
		<rect x="412.6" y="162.2" fill="none" stroke="#CDCCCC" stroke-width="0.5" width="2.8" height="2.8"/>
		<rect x="412.6" y="169.7" fill="none" stroke="#CDCCCC" stroke-width="0.5" width="2.8" height="2.8"/>
		<rect x="412.6" y="177.2" fill="none" stroke="#CDCCCC" stroke-width="0.5" width="2.8" height="2.8"/>
	</g>
	<g>
		<rect x="420.3" y="147.4" fill="none" stroke="#CDCCCC" stroke-width="0.5" width="2.8" height="2.8"/>
		<rect x="420.3" y="154.8" fill="none" stroke="#CDCCCC" stroke-width="0.5" width="2.8" height="2.8"/>
		<rect x="420.3" y="162.2" fill="none" stroke="#CDCCCC" stroke-width="0.5" width="2.8" height="2.8"/>
		<rect x="420.3" y="169.7" fill="none" stroke="#CDCCCC" stroke-width="0.5" width="2.8" height="2.8"/>
		<rect x="420.3" y="177.2" fill="none" stroke="#CDCCCC" stroke-width="0.5" width="2.8" height="2.8"/>
	</g>
	<g>
		<rect x="427.8" y="147.4" fill="none" stroke="#CDCCCC" stroke-width="0.5" width="2.8" height="2.8"/>
		<rect x="427.8" y="154.8" fill="none" stroke="#CDCCCC" stroke-width="0.5" width="2.8" height="2.8"/>
		<rect x="427.8" y="162.2" fill="none" stroke="#CDCCCC" stroke-width="0.5" width="2.8" height="2.8"/>
		<rect x="427.8" y="169.7" fill="none" stroke="#CDCCCC" stroke-width="0.5" width="2.8" height="2.8"/>
		<rect x="427.8" y="177.2" fill="none" stroke="#CDCCCC" stroke-width="0.5" width="2.8" height="2.8"/>
	</g>
	<g>
		<rect x="435.4" y="147.4" fill="none" stroke="#CDCCCC" stroke-width="0.5" width="2.8" height="2.8"/>
		<rect x="435.4" y="154.8" fill="none" stroke="#CDCCCC" stroke-width="0.5" width="2.8" height="2.8"/>
		<rect x="435.4" y="162.2" fill="none" stroke="#CDCCCC" stroke-width="0.5" width="2.8" height="2.8"/>
		<rect x="435.4" y="169.7" fill="none" stroke="#CDCCCC" stroke-width="0.5" width="2.8" height="2.8"/>
		<rect x="435.4" y="177.2" fill="none" stroke="#CDCCCC" stroke-width="0.5" width="2.8" height="2.8"/>
	</g>
	<rect x="442.9" y="147.4" fill="none" stroke="#CDCCCC" stroke-width="0.5" width="2.8" height="2.8"/>
	<rect x="442.9" y="154.8" fill="none" stroke="#CDCCCC" stroke-width="0.5" width="2.8" height="2.8"/>
	<rect x="442.9" y="162.2" fill="none" stroke="#CDCCCC" stroke-width="0.5" width="2.8" height="2.8"/>
	<rect x="442.9" y="169.7" fill="none" stroke="#CDCCCC" stroke-width="0.5" width="2.8" height="2.8"/>
	<rect x="442.9" y="177.2" fill="none" stroke="#CDCCCC" stroke-width="0.5" width="2.8" height="2.8"/>
	<rect x="450.5" y="147.4" fill="none" stroke="#CDCCCC" stroke-width="0.5" width="2.8" height="2.8"/>
	<rect x="450.5" y="154.8" fill="none" stroke="#CDCCCC" stroke-width="0.5" width="2.8" height="2.8"/>
	<rect x="450.5" y="162.2" fill="none" stroke="#CDCCCC" stroke-width="0.5" width="2.8" height="2.8"/>
	<rect x="450.5" y="169.7" fill="none" stroke="#CDCCCC" stroke-width="0.5" width="2.8" height="2.8"/>
	<rect x="450.5" y="177.2" fill="none" stroke="#CDCCCC" stroke-width="0.5" width="2.8" height="2.8"/>
	<rect x="458" y="147.4" fill="none" stroke="#CDCCCC" stroke-width="0.5" width="2.8" height="2.8"/>
	<rect x="458" y="154.8" fill="none" stroke="#CDCCCC" stroke-width="0.5" width="2.8" height="2.8"/>
	<rect x="458" y="162.2" fill="none" stroke="#CDCCCC" stroke-width="0.5" width="2.8" height="2.8"/>
	<rect x="458" y="169.7" fill="none" stroke="#CDCCCC" stroke-width="0.5" width="2.8" height="2.8"/>
	<rect x="458" y="177.2" fill="none" stroke="#CDCCCC" stroke-width="0.5" width="2.8" height="2.8"/>
	<rect x="465.6" y="147.4" fill="none" stroke="#CDCCCC" stroke-width="0.5" width="2.8" height="2.8"/>
	<rect x="465.6" y="154.8" fill="none" stroke="#CDCCCC" stroke-width="0.5" width="2.8" height="2.8"/>
	<rect x="465.6" y="162.2" fill="none" stroke="#CDCCCC" stroke-width="0.5" width="2.8" height="2.8"/>
	<rect x="465.6" y="169.7" fill="none" stroke="#CDCCCC" stroke-width="0.5" width="2.8" height="2.8"/>
	<rect x="465.6" y="177.2" fill="none" stroke="#CDCCCC" stroke-width="0.5" width="2.8" height="2.8"/>
	<rect x="473.2" y="147.4" fill="none" stroke="#CDCCCC" stroke-width="0.5" width="2.8" height="2.8"/>
	<rect x="473.2" y="154.8" fill="none" stroke="#CDCCCC" stroke-width="0.5" width="2.8" height="2.8"/>
	<rect x="473.2" y="162.2" fill="none" stroke="#CDCCCC" stroke-width="0.5" width="2.8" height="2.8"/>
	<rect x="473.2" y="169.7" fill="none" stroke="#CDCCCC" stroke-width="0.5" width="2.8" height="2.8"/>
	<rect x="473.2" y="177.2" fill="none" stroke="#CDCCCC" stroke-width="0.5" width="2.8" height="2.8"/>
	<rect x="480.8" y="147.4" fill="none" stroke="#CDCCCC" stroke-width="0.5" width="2.8" height="2.8"/>
	<rect x="480.8" y="154.8" fill="none" stroke="#CDCCCC" stroke-width="0.5" width="2.8" height="2.8"/>
	<rect x="480.8" y="162.2" fill="none" stroke="#CDCCCC" stroke-width="0.5" width="2.8" height="2.8"/>
	<rect x="480.8" y="169.7" fill="none" stroke="#CDCCCC" stroke-width="0.5" width="2.8" height="2.8"/>
	<rect x="480.8" y="177.2" fill="none" stroke="#CDCCCC" stroke-width="0.5" width="2.8" height="2.8"/>
	<rect x="488.3" y="147.4" fill="none" stroke="#CDCCCC" stroke-width="0.5" width="2.8" height="2.8"/>
	<rect x="488.3" y="154.8" fill="none" stroke="#CDCCCC" stroke-width="0.5" width="2.8" height="2.8"/>
	<rect x="488.3" y="162.2" fill="none" stroke="#CDCCCC" stroke-width="0.5" width="2.8" height="2.8"/>
	<rect x="488.3" y="169.7" fill="none" stroke="#CDCCCC" stroke-width="0.5" width="2.8" height="2.8"/>
	<rect x="488.3" y="177.2" fill="none" stroke="#CDCCCC" stroke-width="0.5" width="2.8" height="2.8"/>
	<g>
		<rect x="291.6" y="147.4" fill="none" stroke="#CDCCCC" stroke-width="0.5" width="2.8" height="2.8"/>
		<rect x="291.6" y="154.8" fill="none" stroke="#CDCCCC" stroke-width="0.5" width="2.8" height="2.8"/>
		<rect x="291.6" y="162.2" fill="none" stroke="#CDCCCC" stroke-width="0.5" width="2.8" height="2.8"/>
		<rect x="291.6" y="169.7" fill="none" stroke="#CDCCCC" stroke-width="0.5" width="2.8" height="2.8"/>
		<rect x="291.6" y="177.2" fill="none" stroke="#CDCCCC" stroke-width="0.5" width="2.8" height="2.8"/>
	</g>
	<g>
		<rect x="299.1" y="147.4" fill="none" stroke="#CDCCCC" stroke-width="0.5" width="2.8" height="2.8"/>
		<rect x="299.1" y="154.8" fill="none" stroke="#CDCCCC" stroke-width="0.5" width="2.8" height="2.8"/>
		<rect x="299.1" y="162.2" fill="none" stroke="#CDCCCC" stroke-width="0.5" width="2.8" height="2.8"/>
		<rect x="299.1" y="169.7" fill="none" stroke="#CDCCCC" stroke-width="0.5" width="2.8" height="2.8"/>
		<rect x="299.1" y="177.2" fill="none" stroke="#CDCCCC" stroke-width="0.5" width="2.8" height="2.8"/>
	</g>
	<g>
		<rect x="306.7" y="147.4" fill="none" stroke="#CDCCCC" stroke-width="0.5" width="2.8" height="2.8"/>
		<rect x="306.7" y="154.8" fill="none" stroke="#CDCCCC" stroke-width="0.5" width="2.8" height="2.8"/>
		<rect x="306.7" y="162.2" fill="none" stroke="#CDCCCC" stroke-width="0.5" width="2.8" height="2.8"/>
		<rect x="306.7" y="169.7" fill="none" stroke="#CDCCCC" stroke-width="0.5" width="2.8" height="2.8"/>
		<rect x="306.7" y="177.2" fill="none" stroke="#CDCCCC" stroke-width="0.5" width="2.8" height="2.8"/>
	</g>
	<g>
		<rect x="314.2" y="147.4" fill="none" stroke="#CDCCCC" stroke-width="0.5" width="2.8" height="2.8"/>
		<rect x="314.2" y="154.8" fill="none" stroke="#CDCCCC" stroke-width="0.5" width="2.8" height="2.8"/>
		<rect x="314.2" y="162.2" fill="none" stroke="#CDCCCC" stroke-width="0.5" width="2.8" height="2.8"/>
		<rect x="314.2" y="169.7" fill="none" stroke="#CDCCCC" stroke-width="0.5" width="2.8" height="2.8"/>
		<rect x="314.2" y="177.2" fill="none" stroke="#CDCCCC" stroke-width="0.5" width="2.8" height="2.8"/>
	</g>
	<g>
		<rect x="268.8" y="147.4" fill="none" stroke="#CDCCCC" stroke-width="0.5" width="2.8" height="2.8"/>
		<rect x="268.8" y="154.8" fill="none" stroke="#CDCCCC" stroke-width="0.5" width="2.8" height="2.8"/>
		<rect x="268.8" y="162.2" fill="none" stroke="#CDCCCC" stroke-width="0.5" width="2.8" height="2.8"/>
		<rect x="268.8" y="169.7" fill="none" stroke="#CDCCCC" stroke-width="0.5" width="2.8" height="2.8"/>
		<rect x="268.8" y="177.2" fill="none" stroke="#CDCCCC" stroke-width="0.5" width="2.8" height="2.8"/>
	</g>
	<g>
		<rect x="276.5" y="147.4" fill="none" stroke="#CDCCCC" stroke-width="0.5" width="2.8" height="2.8"/>
		<rect x="276.5" y="154.8" fill="none" stroke="#CDCCCC" stroke-width="0.5" width="2.8" height="2.8"/>
		<rect x="276.5" y="162.2" fill="none" stroke="#CDCCCC" stroke-width="0.5" width="2.8" height="2.8"/>
		<rect x="276.5" y="169.7" fill="none" stroke="#CDCCCC" stroke-width="0.5" width="2.8" height="2.8"/>
		<rect x="276.5" y="177.2" fill="none" stroke="#CDCCCC" stroke-width="0.5" width="2.8" height="2.8"/>
	</g>
	<g>
		<rect x="284" y="147.4" fill="none" stroke="#CDCCCC" stroke-width="0.5" width="2.8" height="2.8"/>
		<rect x="284" y="154.8" fill="none" stroke="#CDCCCC" stroke-width="0.5" width="2.8" height="2.8"/>
		<rect x="284" y="162.2" fill="none" stroke="#CDCCCC" stroke-width="0.5" width="2.8" height="2.8"/>
		<rect x="284" y="169.7" fill="none" stroke="#CDCCCC" stroke-width="0.5" width="2.8" height="2.8"/>
		<rect x="284" y="177.2" fill="none" stroke="#CDCCCC" stroke-width="0.5" width="2.8" height="2.8"/>
	</g>
</g>
<g>
	<g>
		<g>
			<rect x="298.6" y="65.8" fill="none" stroke="#CDCCCC" stroke-width="0.5" width="2.8" height="2.8"/>
			<rect x="291.2" y="65.8" fill="none" stroke="#CDCCCC" stroke-width="0.5" width="2.8" height="2.8"/>
			<rect x="283.7" y="65.8" fill="none" stroke="#CDCCCC" stroke-width="0.5" width="2.8" height="2.8"/>
			<rect x="276.3" y="65.8" fill="none" stroke="#CDCCCC" stroke-width="0.5" width="2.8" height="2.8"/>
			<rect x="268.8" y="65.8" fill="none" stroke="#CDCCCC" stroke-width="0.5" width="2.8" height="2.8"/>
		</g>
		<g>
			<rect x="268.8" y="73.2" fill="none" stroke="#CDCCCC" stroke-width="0.5" width="2.8" height="2.8"/>
			<rect x="276.3" y="73.2" fill="none" stroke="#CDCCCC" stroke-width="0.5" width="2.8" height="2.8"/>
			<rect x="283.7" y="73.2" fill="none" stroke="#CDCCCC" stroke-width="0.5" width="2.8" height="2.8"/>
			<rect x="291.2" y="73.2" fill="none" stroke="#CDCCCC" stroke-width="0.5" width="2.8" height="2.8"/>
			<rect x="298.6" y="73.2" fill="none" stroke="#CDCCCC" stroke-width="0.5" width="2.8" height="2.8"/>
		</g>
	</g>
	<g>
		<g>
			<rect x="344" y="65.8" fill="none" stroke="#CDCCCC" stroke-width="0.5" width="2.8" height="2.8"/>
			<rect x="336.6" y="65.8" fill="none" stroke="#CDCCCC" stroke-width="0.5" width="2.8" height="2.8"/>
			<rect x="329.1" y="65.8" fill="none" stroke="#CDCCCC" stroke-width="0.5" width="2.8" height="2.8"/>
			<rect x="321.6" y="65.8" fill="none" stroke="#CDCCCC" stroke-width="0.5" width="2.8" height="2.8"/>
			<rect x="314.2" y="65.8" fill="none" stroke="#CDCCCC" stroke-width="0.5" width="2.8" height="2.8"/>
		</g>
		<g>
			<rect x="314.2" y="73.2" fill="none" stroke="#CDCCCC" stroke-width="0.5" width="2.8" height="2.8"/>
			<rect x="321.6" y="73.2" fill="none" stroke="#CDCCCC" stroke-width="0.5" width="2.8" height="2.8"/>
			<rect x="329.2" y="73.2" fill="none" stroke="#CDCCCC" stroke-width="0.5" width="2.8" height="2.8"/>
			<rect x="336.6" y="73.2" fill="none" stroke="#CDCCCC" stroke-width="0.5" width="2.8" height="2.8"/>
			<rect x="344" y="73.2" fill="none" stroke="#CDCCCC" stroke-width="0.5" width="2.8" height="2.8"/>
		</g>
	</g>
	<g>
		<g>
			<rect x="389.4" y="65.8" fill="none" stroke="#CDCCCC" stroke-width="0.5" width="2.8" height="2.8"/>
			<rect x="382" y="65.8" fill="none" stroke="#CDCCCC" stroke-width="0.5" width="2.8" height="2.8"/>
			<rect x="374.6" y="65.8" fill="none" stroke="#CDCCCC" stroke-width="0.5" width="2.8" height="2.8"/>
			<rect x="367.1" y="65.8" fill="none" stroke="#CDCCCC" stroke-width="0.5" width="2.8" height="2.8"/>
			<rect x="359.6" y="65.8" fill="none" stroke="#CDCCCC" stroke-width="0.5" width="2.8" height="2.8"/>
		</g>
		<g>
			<rect x="359.6" y="73.2" fill="none" stroke="#CDCCCC" stroke-width="0.5" width="2.8" height="2.8"/>
			<rect x="367.1" y="73.2" fill="none" stroke="#CDCCCC" stroke-width="0.5" width="2.8" height="2.8"/>
			<rect x="374.6" y="73.2" fill="none" stroke="#CDCCCC" stroke-width="0.5" width="2.8" height="2.8"/>
			<rect x="382" y="73.2" fill="none" stroke="#CDCCCC" stroke-width="0.5" width="2.8" height="2.8"/>
			<rect x="389.4" y="73.2" fill="none" stroke="#CDCCCC" stroke-width="0.5" width="2.8" height="2.8"/>
		</g>
	</g>
	<g>
		<g>
			<rect x="434.8" y="65.8" fill="none" stroke="#CDCCCC" stroke-width="0.5" width="2.8" height="2.8"/>
			<rect x="427.4" y="65.8" fill="none" stroke="#CDCCCC" stroke-width="0.5" width="2.8" height="2.8"/>
			<rect x="419.9" y="65.8" fill="none" stroke="#CDCCCC" stroke-width="0.5" width="2.8" height="2.8"/>
			<rect x="412.5" y="65.8" fill="none" stroke="#CDCCCC" stroke-width="0.5" width="2.8" height="2.8"/>
			<rect x="405" y="65.8" fill="none" stroke="#CDCCCC" stroke-width="0.5" width="2.8" height="2.8"/>
		</g>
		<g>
			<rect x="405" y="73.2" fill="none" stroke="#CDCCCC" stroke-width="0.5" width="2.8" height="2.8"/>
			<rect x="412.5" y="73.2" fill="none" stroke="#CDCCCC" stroke-width="0.5" width="2.8" height="2.8"/>
			<rect x="419.9" y="73.2" fill="none" stroke="#CDCCCC" stroke-width="0.5" width="2.8" height="2.8"/>
			<rect x="427.4" y="73.2" fill="none" stroke="#CDCCCC" stroke-width="0.5" width="2.8" height="2.8"/>
			<rect x="434.8" y="73.2" fill="none" stroke="#CDCCCC" stroke-width="0.5" width="2.8" height="2.8"/>
		</g>
	</g>
	<g>
		<g>
			<rect x="480.2" y="65.8" fill="none" stroke="#CDCCCC" stroke-width="0.5" width="2.8" height="2.8"/>
			<rect x="472.7" y="65.8" fill="none" stroke="#CDCCCC" stroke-width="0.5" width="2.8" height="2.8"/>
			<rect x="465.3" y="65.8" fill="none" stroke="#CDCCCC" stroke-width="0.5" width="2.8" height="2.8"/>
			<rect x="457.9" y="65.8" fill="none" stroke="#CDCCCC" stroke-width="0.5" width="2.8" height="2.8"/>
			<rect x="450.5" y="65.8" fill="none" stroke="#CDCCCC" stroke-width="0.5" width="2.8" height="2.8"/>
		</g>
		<g>
			<rect x="450.5" y="73.2" fill="none" stroke="#CDCCCC" stroke-width="0.5" width="2.8" height="2.8"/>
			<rect x="457.9" y="73.2" fill="none" stroke="#CDCCCC" stroke-width="0.5" width="2.8" height="2.8"/>
			<rect x="465.3" y="73.2" fill="none" stroke="#CDCCCC" stroke-width="0.5" width="2.8" height="2.8"/>
			<rect x="472.7" y="73.2" fill="none" stroke="#CDCCCC" stroke-width="0.5" width="2.8" height="2.8"/>
			<rect x="480.2" y="73.2" fill="none" stroke="#CDCCCC" stroke-width="0.5" width="2.8" height="2.8"/>
		</g>
	</g>
</g>
<g>
	<g>
		<g>
			<rect x="298.6" y="201.1" fill="none" stroke="#CDCCCC" stroke-width="0.5" width="2.8" height="2.8"/>
			<rect x="291.2" y="201.1" fill="none" stroke="#CDCCCC" stroke-width="0.5" width="2.8" height="2.8"/>
			<rect x="283.7" y="201.1" fill="none" stroke="#CDCCCC" stroke-width="0.5" width="2.8" height="2.8"/>
			<rect x="276.3" y="201.1" fill="none" stroke="#CDCCCC" stroke-width="0.5" width="2.8" height="2.8"/>
			<rect x="268.8" y="201.1" fill="none" stroke="#CDCCCC" stroke-width="0.5" width="2.8" height="2.8"/>
		</g>
		<g>
			<rect x="268.8" y="208.6" fill="none" stroke="#CDCCCC" stroke-width="0.5" width="2.8" height="2.8"/>
			<rect x="276.3" y="208.6" fill="none" stroke="#CDCCCC" stroke-width="0.5" width="2.8" height="2.8"/>
			<rect x="283.7" y="208.6" fill="none" stroke="#CDCCCC" stroke-width="0.5" width="2.8" height="2.8"/>
			<rect x="291.2" y="208.6" fill="none" stroke="#CDCCCC" stroke-width="0.5" width="2.8" height="2.8"/>
			<rect x="298.6" y="208.6" fill="none" stroke="#CDCCCC" stroke-width="0.5" width="2.8" height="2.8"/>
		</g>
	</g>
	<g>
		<g>
			<rect x="344" y="201.1" fill="none" stroke="#CDCCCC" stroke-width="0.5" width="2.8" height="2.8"/>
			<rect x="336.6" y="201.1" fill="none" stroke="#CDCCCC" stroke-width="0.5" width="2.8" height="2.8"/>
			<rect x="329.1" y="201.1" fill="none" stroke="#CDCCCC" stroke-width="0.5" width="2.8" height="2.8"/>
			<rect x="321.6" y="201.1" fill="none" stroke="#CDCCCC" stroke-width="0.5" width="2.8" height="2.8"/>
			<rect x="314.2" y="201.1" fill="none" stroke="#CDCCCC" stroke-width="0.5" width="2.8" height="2.8"/>
		</g>
		<g>
			<rect x="314.2" y="208.6" fill="none" stroke="#CDCCCC" stroke-width="0.5" width="2.8" height="2.8"/>
			<rect x="321.6" y="208.6" fill="none" stroke="#CDCCCC" stroke-width="0.5" width="2.8" height="2.8"/>
			<rect x="329.2" y="208.6" fill="none" stroke="#CDCCCC" stroke-width="0.5" width="2.8" height="2.8"/>
			<rect x="336.6" y="208.6" fill="none" stroke="#CDCCCC" stroke-width="0.5" width="2.8" height="2.8"/>
			<rect x="344" y="208.6" fill="none" stroke="#CDCCCC" stroke-width="0.5" width="2.8" height="2.8"/>
		</g>
	</g>
	<g>
		<g>
			<rect x="389.4" y="201.1" fill="none" stroke="#CDCCCC" stroke-width="0.5" width="2.8" height="2.8"/>
			<rect x="382" y="201.1" fill="none" stroke="#CDCCCC" stroke-width="0.5" width="2.8" height="2.8"/>
			<rect x="374.6" y="201.1" fill="none" stroke="#CDCCCC" stroke-width="0.5" width="2.8" height="2.8"/>
			<rect x="367.1" y="201.1" fill="none" stroke="#CDCCCC" stroke-width="0.5" width="2.8" height="2.8"/>
			<rect x="359.6" y="201.1" fill="none" stroke="#CDCCCC" stroke-width="0.5" width="2.8" height="2.8"/>
		</g>
		<g>
			<rect x="359.6" y="208.6" fill="none" stroke="#CDCCCC" stroke-width="0.5" width="2.8" height="2.8"/>
			<rect x="367.1" y="208.6" fill="none" stroke="#CDCCCC" stroke-width="0.5" width="2.8" height="2.8"/>
			<rect x="374.6" y="208.6" fill="none" stroke="#CDCCCC" stroke-width="0.5" width="2.8" height="2.8"/>
			<rect x="382" y="208.6" fill="none" stroke="#CDCCCC" stroke-width="0.5" width="2.8" height="2.8"/>
			<rect x="389.4" y="208.6" fill="none" stroke="#CDCCCC" stroke-width="0.5" width="2.8" height="2.8"/>
		</g>
	</g>
	<g>
		<g>
			<rect x="434.8" y="201.1" fill="none" stroke="#CDCCCC" stroke-width="0.5" width="2.8" height="2.8"/>
			<rect x="427.4" y="201.1" fill="none" stroke="#CDCCCC" stroke-width="0.5" width="2.8" height="2.8"/>
			<rect x="419.9" y="201.1" fill="none" stroke="#CDCCCC" stroke-width="0.5" width="2.8" height="2.8"/>
			<rect x="412.5" y="201.1" fill="none" stroke="#CDCCCC" stroke-width="0.5" width="2.8" height="2.8"/>
			<rect x="405" y="201.1" fill="none" stroke="#CDCCCC" stroke-width="0.5" width="2.8" height="2.8"/>
		</g>
		<g>
			<rect x="405" y="208.6" fill="none" stroke="#CDCCCC" stroke-width="0.5" width="2.8" height="2.8"/>
			<rect x="412.5" y="208.6" fill="none" stroke="#CDCCCC" stroke-width="0.5" width="2.8" height="2.8"/>
			<rect x="419.9" y="208.6" fill="none" stroke="#CDCCCC" stroke-width="0.5" width="2.8" height="2.8"/>
			<rect x="427.4" y="208.6" fill="none" stroke="#CDCCCC" stroke-width="0.5" width="2.8" height="2.8"/>
			<rect x="434.8" y="208.6" fill="none" stroke="#CDCCCC" stroke-width="0.5" width="2.8" height="2.8"/>
		</g>
	</g>
	<g>
		<g>
			<rect x="480.2" y="201.1" fill="none" stroke="#CDCCCC" stroke-width="0.5" width="2.8" height="2.8"/>
			<rect x="472.7" y="201.1" fill="none" stroke="#CDCCCC" stroke-width="0.5" width="2.8" height="2.8"/>
			<rect x="465.3" y="201.1" fill="none" stroke="#CDCCCC" stroke-width="0.5" width="2.8" height="2.8"/>
			<rect x="457.9" y="201.1" fill="none" stroke="#CDCCCC" stroke-width="0.5" width="2.8" height="2.8"/>
			<rect x="450.5" y="201.1" fill="none" stroke="#CDCCCC" stroke-width="0.5" width="2.8" height="2.8"/>
		</g>
		<g>
			<rect x="450.5" y="208.6" fill="none" stroke="#CDCCCC" stroke-width="0.5" width="2.8" height="2.8"/>
			<rect x="457.9" y="208.6" fill="none" stroke="#CDCCCC" stroke-width="0.5" width="2.8" height="2.8"/>
			<rect x="465.3" y="208.6" fill="none" stroke="#CDCCCC" stroke-width="0.5" width="2.8" height="2.8"/>
			<rect x="472.7" y="208.6" fill="none" stroke="#CDCCCC" stroke-width="0.5" width="2.8" height="2.8"/>
			<rect x="480.2" y="208.6" fill="none" stroke="#CDCCCC" stroke-width="0.5" width="2.8" height="2.8"/>
		</g>
	</g>
</g>
<rect x="252.5" y="58.2" fill="none" stroke="#CDCCCC" stroke-width="0.5" width="254.5" height="158.8"/>
<text transform="matrix(1 0 0 1 330.7573 32.1562)" fill="#010101" font-family="'TheSerif-HP5Plain'" font-size="9.8978">+5V</text>
<text transform="matrix(1 0 0 1 423.9023 32.1562)" fill="#010101" font-family="'TheSerif-HP5Plain'" font-size="9.8978">Ground</text>
<g>
	<text transform="matrix(1 0 0 1 232.9541 32.1562)" fill="#010101" font-family="'TheSerif-HP5Plain'" font-size="9.8978">Digital I/O Pin 4</text>
</g>
<line fill="none" stroke="#61696A" stroke-width="0.9841" x1="452.8" y1="156.3" x2="429.2" y2="156.3"/>
<line fill="none" stroke="#010101" stroke-linecap="round" x1="384" y1="156.3" x2="406" y2="156.3"/>
<rect x="405.8" y="153.2" fill="#CDCCCC" width="23.6" height="6.4"/>
<rect x="408" y="153.1" fill="#818181" width="3.2" height="6.6"/>
<rect x="412.6" y="153.1" fill="#010101" width="3.2" height="6.6"/>
<rect x="417.2" y="153.1" fill="#9A9A9A" width="3.2" height="6.6"/>
<rect x="423.4" y="153.1" fill="#B4B4B4" width="3.2" height="6.6"/>
<path fill="none" stroke="#221F1F" stroke-width="1.5073" d="M452,148.7"/>
<rect x="375.3" y="125.3" fill="#ABABAB" stroke="#221F1F" stroke-width="0.492" width="2.8" height="2.9"/>
<rect x="382" y="125.3" fill="#ABABAB" stroke="#221F1F" stroke-width="0.492" width="2.8" height="2.9"/>
<rect x="375.3" y="147.7" fill="#ABABAB" stroke="#221F1F" stroke-width="0.492" width="2.8" height="2.9"/>
<rect x="382" y="147.7" fill="#ABABAB" stroke="#221F1F" stroke-width="0.492" width="2.8" height="2.9"/>
<rect x="370.3" y="128.3" fill="#CDCCCC" stroke="#221F1F" stroke-width="0.492" width="20" height="19.6"/>
<circle fill="#FFFFFF" stroke="#221F1F" stroke-width="0.492" cx="380.3" cy="138.1" r="6.7"/>
<circle fill="#010101" cx="380.3" cy="138.1" r="5.1"/>
<text transform="matrix(1 0 0 1 2.1572 11.5088)" fill="#010101" font-family="'TheSerif-HP5PlainIT'" font-size="13.2">Example 1</text>
<text transform="matrix(1 0 0 1 3.5713 103.8071)" fill="#010101" font-family="'TheSerif-HP5Plain'" font-size="9.8978">Digital I/O Pin 4</text>
<circle fill="none" stroke="#010101" stroke-width="0.5" cx="126.9" cy="73.7" r="3.2"/>
<circle fill="none" stroke="#010101" stroke-width="0.5" cx="126.9" cy="92.1" r="3.2"/>
<line fill="none" stroke="#010101" stroke-width="0.5" x1="127.2" y1="41.6" x2="127.2" y2="70.5"/>
<polyline fill="none" stroke="#010101" stroke-width="0.5" points="38.7,123.6 126.8,123.6 126.8,95.3 "/>
<polyline fill="none" stroke="#010101" stroke-width="0.5" points="137.8,68.4 137.8,82 137.8,96.8 "/>
<path fill="none" stroke="#010101" stroke-width="0.5" d="M154.8,81.1"/>
<line fill="none" stroke="#010101" stroke-width="0.5" x1="154.8" y1="82.4" x2="137.8" y2="82.4"/>
<polyline fill="none" stroke="#010101" stroke-width="0.5" points="126.6,181.1 126.6,159.4 134.3,157.2 120.7,151.6 133.9,147.8 
	120.3,142 134.3,137.2 126.7,135.2 126.7,124.2 "/>
<polygon fill="none" stroke="#010101" stroke-width="0.5" points="31.3,116.1 38.3,123.7 31.3,131.5 13.2,131.5 13.2,116.1 "/>
<text transform="matrix(1 0 0 1 116.7134 37.3608)" fill="#010101" font-family="'TheSerif-HP5Plain'" font-size="9.8978">+5V</text>
<text transform="matrix(1 0 0 1 141.541 197.5918)" fill="#010101" font-family="'TheSerif-HP5Plain'" font-size="9.8978">Ground</text>
<g>
	<g>
		<polyline fill="none" stroke="#D3463E" stroke-width="0.45" points="115.2,180.9 137.5,180.9 119.2,180.9 		"/>
		<line fill="none" stroke="#D3463E" stroke-width="0.45" x1="119.4" y1="186.8" x2="133.3" y2="186.8"/>
		<line fill="none" stroke="#D3463E" stroke-width="0.45" x1="123.8" y1="192.4" x2="128.9" y2="192.4"/>
	</g>
	<g>
		<polyline fill="none" stroke="#010101" stroke-width="0.45" points="115.2,180.9 137.5,180.9 119.2,180.9 		"/>
		<line fill="none" stroke="#010101" stroke-width="0.45" x1="119.4" y1="186.8" x2="133.3" y2="186.8"/>
		<line fill="none" stroke="#010101" stroke-width="0.45" x1="123.8" y1="192.4" x2="128.9" y2="192.4"/>
	</g>
</g>
<text transform="matrix(1 0 0 1 165.2021 79.3408)" fill="#010101" font-family="'TheSerif-HP5Plain'" font-size="9.8978">Pulse  </text>
<text transform="matrix(1 0 0 1 165.2021 92.104)" fill="#010101" font-family="'TheSerif-HP5Plain'" font-size="9.8978">switch</text>
<path fill="none" stroke="#818181" stroke-linecap="round" d="M383.9,163.6c0,0-43.6,16.7-72.5-7c-28.9-23.7-40.6-101.1-43.7-118.8"
	/>
<path fill="none" stroke="#414141" stroke-linecap="round" d="M376.3,156.1c0,0-35.1,8.9-49-7c-31.5-35.8,12.5-89.5,11.5-109.9"/>
<path fill="none" stroke="#221F1F" stroke-linecap="round" d="M451,149.6c0,0,15.6,3.8,20.2-27.5c5-34.5-15.5-73.7-30.9-83.9"/>
<text transform="matrix(1 0 0 1 141.6328 151.7685)" fill="#010101" font-family="'TheSerif-HP5Plain'" font-size="9.8978">10K</text>
</svg>
