<?xml version="1.0" encoding="utf-8"?>
<!-- Generator: Adobe Illustrator 18.0.0, SVG Export Plug-In . SVG Version: 6.00 Build 0)  -->
<!DOCTYPE svg PUBLIC "-//W3C//DTD SVG 1.1//EN" "http://www.w3.org/Graphics/SVG/1.1/DTD/svg11.dtd">
<svg version="1.1" id="Layer_1" xmlns="http://www.w3.org/2000/svg" xmlns:xlink="http://www.w3.org/1999/xlink" x="0px" y="0px"
	 viewBox="0 0 687 100" enable-background="new 0 0 687 100" xml:space="preserve">
<line fill="none" stroke="#CCCCCC" stroke-width="0.5" x1="372.8" y1="5.5" x2="372.8" y2="66.8"/>
<path fill="none" stroke="#010101" stroke-width="0.1172" d="M613.2,100"/>
<line fill="none" stroke="#CCCCCC" stroke-width="0.5" x1="372.9" y1="66.5" x2="612.5" y2="66.5"/>
<g>
	<text transform="matrix(1 0 0 1 588.5214 77.9991)" font-family="'TheSansMono-W3Light'" font-size="10.0339">Time</text>
</g>
<g>
	<text transform="matrix(0 -1 1 0 367.2178 35.9948)" font-family="'TheSansMono-W3Light'" font-size="10.0339">Volts</text>
</g>
<g>
	<text transform="matrix(1 0 0 1 372.791 89.1485)" fill="#010101" font-family="'TheSerif-HP5Plain'" font-size="11.7062">Digital signal</text>
</g>
<line fill="none" stroke="#CCCCCC" stroke-width="0.5" x1="372.8" y1="5.5" x2="372.8" y2="66.8"/>
<g>
	<path fill="none" stroke="#010101" stroke-width="0.5" stroke-linecap="round" d="M58.8,32.7c17.3,15.1,26.7,15.1,30,15.1"/>
	<path fill="none" stroke="#010101" stroke-width="0.5" stroke-linecap="round" d="M88.8,47.8c2.2,0,12.6,0.3,30.3-15.2
		c17.3-15.1,26.7-15.1,30-15.1"/>
	<path fill="none" stroke="#010101" stroke-width="0.5" stroke-linecap="round" d="M269.9,17.6c-2.2,0-12.6-0.3-30.3,15.2
		c-17.3,15.1-26.7,15.1-30,15.1"/>
	<path fill="none" stroke="#010101" stroke-width="0.5" stroke-linecap="round" d="M209.6,47.8c-2.2,0-12.6,0.3-30.3-15.2
		c-17.3-15.1-26.7-15.1-30-15.1"/>
</g>
<line fill="none" stroke="#CCCCCC" stroke-width="0.5" x1="58.8" y1="5.5" x2="58.8" y2="66.8"/>
<path fill="#010101" d="M299.2,100"/>
<line fill="none" stroke="#CCCCCC" stroke-width="0.5" x1="58.9" y1="66.5" x2="300.1" y2="66.5"/>
<g>
	<text transform="matrix(1 0 0 1 276.1968 77.9991)" font-family="'TheSansMono-W3Light'" font-size="10.0339">Time</text>
</g>
<g>
	<text transform="matrix(0 -1 1 0 53.2212 35.9948)" font-family="'TheSansMono-W3Light'" font-size="10.0339">Volts</text>
</g>
<g>
	<text transform="matrix(1 0 0 1 58.7944 89.1485)" fill="#010101" font-family="'TheSerif-HP5Plain'" font-size="11.7062">Analog signal</text>
</g>
<line fill="none" stroke="#CCCCCC" stroke-width="0.5" x1="58.8" y1="5.5" x2="58.8" y2="66.8"/>
<g>
	<path fill="none" stroke="#010101" stroke-width="0.5" d="M270,17.6c2.2,0,12.6-0.3,30.3,15.2"/>
</g>
<polyline fill="none" stroke="#010101" stroke-width="0.5" points="372.8,33.7 378.3,33.7 378.4,37.3 383.9,37.3 383.9,41.1 
	389.5,41.1 389.5,44.4 395.1,44.4 395.1,46.5 400.7,46.5 400.7,47.8 406.2,47.8 406.2,47.5 411.8,47.5 411.8,46.1 417.4,46.1 
	417.4,43.6 423,43.6 423,40.4 428.6,40.4 428.5,36.2 434.1,36.2 434.1,31.7 439.7,31.7 439.7,27.2 445.2,27.2 445.2,23.5 
	450.8,23.5 450.8,20.6 456.4,20.6 456.4,18.4 462,18.4 462,17.6 467.6,17.6 467.6,17.9 473.2,17.9 473.2,19.6 478.7,19.6 
	478.7,22.2 484.2,22.2 484.2,25.6 489.8,25.6 489.8,29.7 495.4,29.7 495.4,33.7 "/>
<polyline fill="none" stroke="#010101" stroke-width="0.5" points="495.4,33.7 501,33.7 501,37.3 506.6,37.3 506.6,41.1 512.2,41.1 
	512.2,44.4 517.8,44.4 517.8,46.5 523.3,46.5 523.3,47.8 528.9,47.8 528.8,47.5 534.4,47.5 534.4,46.1 540,46.1 540,43.6 
	545.6,43.6 545.6,40.4 551.2,40.4 551.2,36.2 556.8,36.2 556.8,31.7 562.3,31.7 562.3,27.2 567.9,27.2 567.9,23.5 573.5,23.5 
	573.5,20.6 579.1,20.6 579.1,18.4 584.6,18.4 584.6,17.6 590.2,17.6 590.2,17.9 595.8,17.9 595.8,19.6 601.3,19.6 601.3,22.2 
	606.9,22.2 606.9,25.6 612.5,25.6 612.5,29.7 "/>
</svg>
