<?xml version="1.0" encoding="utf-8"?>
<!-- Generator: Adobe Illustrator 18.0.0, SVG Export Plug-In . SVG Version: 6.00 Build 0)  -->
<!DOCTYPE svg PUBLIC "-//W3C//DTD SVG 1.1//EN" "http://www.w3.org/Graphics/SVG/1.1/DTD/svg11.dtd">
<svg version="1.1" id="Layer_1" xmlns="http://www.w3.org/2000/svg" xmlns:xlink="http://www.w3.org/1999/xlink" x="0px" y="0px"
	 viewBox="0 0 687 220" enable-background="new 0 0 687 220" xml:space="preserve">
<g>
	<text transform="matrix(1 0 0 1 276.0151 24.2422)" fill="#010101" font-family="'TheSerif-HP5Plain'" font-size="9.3849">Digital I/O Pin 4</text>
</g>
<g>
	<text transform="matrix(1 0 0 1 393.915 24.2422)" fill="#010101" font-family="'TheSerif-HP5Plain'" font-size="9.3849">Ground</text>
</g>
<g>
	<g>
		<g>
			<rect x="312" y="83.3" fill="none" stroke="#CDCCCC" stroke-width="0.5" width="2.6" height="2.6"/>
			<rect x="312" y="90.3" fill="none" stroke="#CDCCCC" stroke-width="0.5" width="2.6" height="2.6"/>
			<rect x="312" y="97.3" fill="none" stroke="#CDCCCC" stroke-width="0.5" width="2.6" height="2.6"/>
			<rect x="312" y="104.5" fill="none" stroke="#CDCCCC" stroke-width="0.5" width="2.6" height="2.6"/>
			<rect x="312" y="111.5" fill="none" stroke="#CDCCCC" stroke-width="0.5" width="2.6" height="2.6"/>
		</g>
		<g>
			<rect x="319.2" y="83.3" fill="none" stroke="#CDCCCC" stroke-width="0.5" width="2.6" height="2.6"/>
			<rect x="319.2" y="90.3" fill="none" stroke="#CDCCCC" stroke-width="0.5" width="2.6" height="2.6"/>
			<rect x="319.2" y="97.3" fill="none" stroke="#CDCCCC" stroke-width="0.5" width="2.6" height="2.6"/>
			<rect x="319.2" y="104.5" fill="none" stroke="#CDCCCC" stroke-width="0.5" width="2.6" height="2.6"/>
			<rect x="319.2" y="111.5" fill="none" stroke="#CDCCCC" stroke-width="0.5" width="2.6" height="2.6"/>
		</g>
		<g>
			<rect x="326.4" y="83.3" fill="none" stroke="#CDCCCC" stroke-width="0.5" width="2.6" height="2.6"/>
			<rect x="326.4" y="90.3" fill="none" stroke="#CDCCCC" stroke-width="0.5" width="2.6" height="2.6"/>
			<rect x="326.4" y="97.3" fill="none" stroke="#CDCCCC" stroke-width="0.5" width="2.6" height="2.6"/>
			<rect x="326.4" y="104.5" fill="none" stroke="#CDCCCC" stroke-width="0.5" width="2.6" height="2.6"/>
			<rect x="326.4" y="111.5" fill="none" stroke="#CDCCCC" stroke-width="0.5" width="2.6" height="2.6"/>
		</g>
		<g>
			<rect x="333.4" y="83.3" fill="none" stroke="#CDCCCC" stroke-width="0.5" width="2.6" height="2.6"/>
			<rect x="333.4" y="90.3" fill="none" stroke="#CDCCCC" stroke-width="0.5" width="2.6" height="2.6"/>
			<rect x="333.4" y="97.3" fill="none" stroke="#CDCCCC" stroke-width="0.5" width="2.6" height="2.6"/>
			<rect x="333.4" y="104.5" fill="none" stroke="#CDCCCC" stroke-width="0.5" width="2.6" height="2.6"/>
			<rect x="333.4" y="111.5" fill="none" stroke="#CDCCCC" stroke-width="0.5" width="2.6" height="2.6"/>
		</g>
		<g>
			<rect x="340.6" y="83.3" fill="none" stroke="#CDCCCC" stroke-width="0.5" width="2.6" height="2.6"/>
			<rect x="340.6" y="90.3" fill="none" stroke="#CDCCCC" stroke-width="0.5" width="2.6" height="2.6"/>
			<rect x="340.6" y="97.3" fill="none" stroke="#CDCCCC" stroke-width="0.5" width="2.6" height="2.6"/>
			<rect x="340.6" y="104.5" fill="none" stroke="#CDCCCC" stroke-width="0.5" width="2.6" height="2.6"/>
			<rect x="340.6" y="111.5" fill="none" stroke="#CDCCCC" stroke-width="0.5" width="2.6" height="2.6"/>
		</g>
		<g>
			<rect x="347.8" y="83.3" fill="none" stroke="#CDCCCC" stroke-width="0.5" width="2.6" height="2.6"/>
			<rect x="347.8" y="90.3" fill="none" stroke="#CDCCCC" stroke-width="0.5" width="2.6" height="2.6"/>
			<rect x="347.8" y="97.3" fill="none" stroke="#CDCCCC" stroke-width="0.5" width="2.6" height="2.6"/>
			<rect x="347.8" y="104.5" fill="none" stroke="#CDCCCC" stroke-width="0.5" width="2.6" height="2.6"/>
			<rect x="347.8" y="111.5" fill="none" stroke="#CDCCCC" stroke-width="0.5" width="2.6" height="2.6"/>
		</g>
		<g>
			<rect x="355" y="83.3" fill="none" stroke="#CDCCCC" stroke-width="0.5" width="2.6" height="2.6"/>
			<rect x="355" y="90.3" fill="none" stroke="#CDCCCC" stroke-width="0.5" width="2.6" height="2.6"/>
			<rect x="355" y="97.3" fill="none" stroke="#CDCCCC" stroke-width="0.5" width="2.6" height="2.6"/>
			<rect x="355" y="104.5" fill="none" stroke="#CDCCCC" stroke-width="0.5" width="2.6" height="2.6"/>
			<rect x="355" y="111.5" fill="none" stroke="#CDCCCC" stroke-width="0.5" width="2.6" height="2.6"/>
		</g>
		<g>
			<rect x="362.3" y="83.3" fill="none" stroke="#CDCCCC" stroke-width="0.5" width="2.6" height="2.6"/>
			<rect x="362.3" y="90.3" fill="none" stroke="#CDCCCC" stroke-width="0.5" width="2.6" height="2.6"/>
			<rect x="362.3" y="97.3" fill="none" stroke="#CDCCCC" stroke-width="0.5" width="2.6" height="2.6"/>
			<rect x="362.3" y="104.5" fill="none" stroke="#CDCCCC" stroke-width="0.5" width="2.6" height="2.6"/>
			<rect x="362.3" y="111.5" fill="none" stroke="#CDCCCC" stroke-width="0.5" width="2.6" height="2.6"/>
		</g>
		<g>
			<rect x="369.5" y="83.3" fill="none" stroke="#CDCCCC" stroke-width="0.5" width="2.6" height="2.6"/>
			<rect x="369.5" y="90.3" fill="none" stroke="#CDCCCC" stroke-width="0.5" width="2.6" height="2.6"/>
			<rect x="369.5" y="97.3" fill="none" stroke="#CDCCCC" stroke-width="0.5" width="2.6" height="2.6"/>
			<rect x="369.5" y="104.5" fill="none" stroke="#CDCCCC" stroke-width="0.5" width="2.6" height="2.6"/>
			<rect x="369.5" y="111.5" fill="none" stroke="#CDCCCC" stroke-width="0.5" width="2.6" height="2.6"/>
		</g>
		<g>
			<rect x="376.5" y="83.3" fill="none" stroke="#CDCCCC" stroke-width="0.5" width="2.6" height="2.6"/>
			<rect x="376.5" y="90.3" fill="none" stroke="#CDCCCC" stroke-width="0.5" width="2.6" height="2.6"/>
			<rect x="376.5" y="97.3" fill="none" stroke="#CDCCCC" stroke-width="0.5" width="2.6" height="2.6"/>
			<rect x="376.5" y="104.5" fill="none" stroke="#CDCCCC" stroke-width="0.5" width="2.6" height="2.6"/>
			<rect x="376.5" y="111.5" fill="none" stroke="#CDCCCC" stroke-width="0.5" width="2.6" height="2.6"/>
		</g>
		<g>
			<rect x="383.7" y="83.3" fill="none" stroke="#CDCCCC" stroke-width="0.5" width="2.6" height="2.6"/>
			<rect x="383.7" y="90.3" fill="none" stroke="#CDCCCC" stroke-width="0.5" width="2.6" height="2.6"/>
			<rect x="383.7" y="97.3" fill="none" stroke="#CDCCCC" stroke-width="0.5" width="2.6" height="2.6"/>
			<rect x="383.7" y="104.5" fill="none" stroke="#CDCCCC" stroke-width="0.5" width="2.6" height="2.6"/>
			<rect x="383.7" y="111.5" fill="none" stroke="#CDCCCC" stroke-width="0.5" width="2.6" height="2.6"/>
		</g>
		<g>
			<rect x="390.9" y="83.3" fill="none" stroke="#CDCCCC" stroke-width="0.5" width="2.6" height="2.6"/>
			<rect x="390.9" y="90.3" fill="none" stroke="#CDCCCC" stroke-width="0.5" width="2.6" height="2.6"/>
			<rect x="390.9" y="97.3" fill="none" stroke="#CDCCCC" stroke-width="0.5" width="2.6" height="2.6"/>
			<rect x="390.9" y="104.5" fill="none" stroke="#CDCCCC" stroke-width="0.5" width="2.6" height="2.6"/>
			<rect x="390.9" y="111.5" fill="none" stroke="#CDCCCC" stroke-width="0.5" width="2.6" height="2.6"/>
		</g>
		<g>
			<rect x="398.1" y="83.3" fill="none" stroke="#CDCCCC" stroke-width="0.5" width="2.6" height="2.6"/>
			<rect x="398.1" y="90.3" fill="none" stroke="#CDCCCC" stroke-width="0.5" width="2.6" height="2.6"/>
			<rect x="398.1" y="97.3" fill="none" stroke="#CDCCCC" stroke-width="0.5" width="2.6" height="2.6"/>
			<rect x="398.1" y="104.5" fill="none" stroke="#CDCCCC" stroke-width="0.5" width="2.6" height="2.6"/>
			<rect x="398.1" y="111.5" fill="none" stroke="#CDCCCC" stroke-width="0.5" width="2.6" height="2.6"/>
		</g>
		<g>
			<rect x="405.3" y="83.3" fill="none" stroke="#CDCCCC" stroke-width="0.5" width="2.6" height="2.6"/>
			<rect x="405.3" y="90.3" fill="none" stroke="#CDCCCC" stroke-width="0.5" width="2.6" height="2.6"/>
			<rect x="405.3" y="97.3" fill="none" stroke="#CDCCCC" stroke-width="0.5" width="2.6" height="2.6"/>
			<rect x="405.3" y="104.5" fill="none" stroke="#CDCCCC" stroke-width="0.5" width="2.6" height="2.6"/>
			<rect x="405.3" y="111.5" fill="none" stroke="#CDCCCC" stroke-width="0.5" width="2.6" height="2.6"/>
		</g>
		<g>
			<rect x="412.5" y="83.3" fill="none" stroke="#CDCCCC" stroke-width="0.5" width="2.6" height="2.6"/>
			<rect x="412.5" y="90.3" fill="none" stroke="#CDCCCC" stroke-width="0.5" width="2.6" height="2.6"/>
			<rect x="412.5" y="97.3" fill="none" stroke="#CDCCCC" stroke-width="0.5" width="2.6" height="2.6"/>
			<rect x="412.5" y="104.5" fill="none" stroke="#CDCCCC" stroke-width="0.5" width="2.6" height="2.6"/>
			<rect x="412.5" y="111.5" fill="none" stroke="#CDCCCC" stroke-width="0.5" width="2.6" height="2.6"/>
		</g>
		<g>
			<rect x="419.5" y="83.3" fill="none" stroke="#CDCCCC" stroke-width="0.5" width="2.6" height="2.6"/>
			<rect x="419.5" y="90.3" fill="none" stroke="#CDCCCC" stroke-width="0.5" width="2.6" height="2.6"/>
			<rect x="419.5" y="97.3" fill="none" stroke="#CDCCCC" stroke-width="0.5" width="2.6" height="2.6"/>
			<rect x="419.5" y="104.5" fill="none" stroke="#CDCCCC" stroke-width="0.5" width="2.6" height="2.6"/>
			<rect x="419.5" y="111.5" fill="none" stroke="#CDCCCC" stroke-width="0.5" width="2.6" height="2.6"/>
		</g>
		<g>
			<rect x="426.7" y="83.3" fill="none" stroke="#CDCCCC" stroke-width="0.5" width="2.6" height="2.6"/>
			<rect x="426.7" y="90.3" fill="none" stroke="#CDCCCC" stroke-width="0.5" width="2.6" height="2.6"/>
			<rect x="426.7" y="97.3" fill="none" stroke="#CDCCCC" stroke-width="0.5" width="2.6" height="2.6"/>
			<rect x="426.7" y="104.5" fill="none" stroke="#CDCCCC" stroke-width="0.5" width="2.6" height="2.6"/>
			<rect x="426.7" y="111.5" fill="none" stroke="#CDCCCC" stroke-width="0.5" width="2.6" height="2.6"/>
		</g>
		<g>
			<rect x="433.9" y="83.3" fill="none" stroke="#CDCCCC" stroke-width="0.5" width="2.6" height="2.6"/>
			<rect x="433.9" y="90.3" fill="none" stroke="#CDCCCC" stroke-width="0.5" width="2.6" height="2.6"/>
			<rect x="433.9" y="97.3" fill="none" stroke="#CDCCCC" stroke-width="0.5" width="2.6" height="2.6"/>
			<rect x="433.9" y="104.5" fill="none" stroke="#CDCCCC" stroke-width="0.5" width="2.6" height="2.6"/>
			<rect x="433.9" y="111.5" fill="none" stroke="#CDCCCC" stroke-width="0.5" width="2.6" height="2.6"/>
		</g>
		<g>
			<rect x="441.1" y="83.3" fill="none" stroke="#CDCCCC" stroke-width="0.5" width="2.6" height="2.6"/>
			<rect x="441.1" y="90.3" fill="none" stroke="#CDCCCC" stroke-width="0.5" width="2.6" height="2.6"/>
			<rect x="441.1" y="97.3" fill="none" stroke="#CDCCCC" stroke-width="0.5" width="2.6" height="2.6"/>
			<rect x="441.1" y="104.5" fill="none" stroke="#CDCCCC" stroke-width="0.5" width="2.6" height="2.6"/>
			<rect x="441.1" y="111.5" fill="none" stroke="#CDCCCC" stroke-width="0.5" width="2.6" height="2.6"/>
		</g>
		<g>
			<rect x="448.3" y="83.3" fill="none" stroke="#CDCCCC" stroke-width="0.5" width="2.6" height="2.6"/>
			<rect x="448.3" y="90.3" fill="none" stroke="#CDCCCC" stroke-width="0.5" width="2.6" height="2.6"/>
			<rect x="448.3" y="97.3" fill="none" stroke="#CDCCCC" stroke-width="0.5" width="2.6" height="2.6"/>
			<rect x="448.3" y="104.5" fill="none" stroke="#CDCCCC" stroke-width="0.5" width="2.6" height="2.6"/>
			<rect x="448.3" y="111.5" fill="none" stroke="#CDCCCC" stroke-width="0.5" width="2.6" height="2.6"/>
		</g>
		<g>
			<rect x="455.6" y="83.3" fill="none" stroke="#CDCCCC" stroke-width="0.5" width="2.6" height="2.6"/>
			<rect x="455.6" y="90.3" fill="none" stroke="#CDCCCC" stroke-width="0.5" width="2.6" height="2.6"/>
			<rect x="455.6" y="97.3" fill="none" stroke="#CDCCCC" stroke-width="0.5" width="2.6" height="2.6"/>
			<rect x="455.6" y="104.5" fill="none" stroke="#CDCCCC" stroke-width="0.5" width="2.6" height="2.6"/>
			<rect x="455.6" y="111.5" fill="none" stroke="#CDCCCC" stroke-width="0.5" width="2.6" height="2.6"/>
		</g>
		<g>
			<rect x="462.6" y="83.3" fill="none" stroke="#CDCCCC" stroke-width="0.5" width="2.6" height="2.6"/>
			<rect x="462.6" y="90.3" fill="none" stroke="#CDCCCC" stroke-width="0.5" width="2.6" height="2.6"/>
			<rect x="462.6" y="97.3" fill="none" stroke="#CDCCCC" stroke-width="0.5" width="2.6" height="2.6"/>
			<rect x="462.6" y="104.5" fill="none" stroke="#CDCCCC" stroke-width="0.5" width="2.6" height="2.6"/>
			<rect x="462.6" y="111.5" fill="none" stroke="#CDCCCC" stroke-width="0.5" width="2.6" height="2.6"/>
		</g>
		<g>
			<rect x="469.8" y="83.3" fill="none" stroke="#CDCCCC" stroke-width="0.5" width="2.6" height="2.6"/>
			<rect x="469.8" y="90.3" fill="none" stroke="#CDCCCC" stroke-width="0.5" width="2.6" height="2.6"/>
			<rect x="469.8" y="97.3" fill="none" stroke="#CDCCCC" stroke-width="0.5" width="2.6" height="2.6"/>
			<rect x="469.8" y="104.5" fill="none" stroke="#CDCCCC" stroke-width="0.5" width="2.6" height="2.6"/>
			<rect x="469.8" y="111.5" fill="none" stroke="#CDCCCC" stroke-width="0.5" width="2.6" height="2.6"/>
		</g>
		<g>
			<rect x="283.4" y="83.3" fill="none" stroke="#CDCCCC" stroke-width="0.5" width="2.6" height="2.6"/>
			<rect x="283.4" y="90.3" fill="none" stroke="#CDCCCC" stroke-width="0.5" width="2.6" height="2.6"/>
			<rect x="283.4" y="97.3" fill="none" stroke="#CDCCCC" stroke-width="0.5" width="2.6" height="2.6"/>
			<rect x="283.4" y="104.5" fill="none" stroke="#CDCCCC" stroke-width="0.5" width="2.6" height="2.6"/>
			<rect x="283.4" y="111.5" fill="none" stroke="#CDCCCC" stroke-width="0.5" width="2.6" height="2.6"/>
		</g>
		<g>
			<rect x="290.4" y="83.3" fill="none" stroke="#CDCCCC" stroke-width="0.5" width="2.6" height="2.6"/>
			<rect x="290.4" y="90.3" fill="none" stroke="#CDCCCC" stroke-width="0.5" width="2.6" height="2.6"/>
			<rect x="290.4" y="97.3" fill="none" stroke="#CDCCCC" stroke-width="0.5" width="2.6" height="2.6"/>
			<rect x="290.4" y="104.5" fill="none" stroke="#CDCCCC" stroke-width="0.5" width="2.6" height="2.6"/>
			<rect x="290.4" y="111.5" fill="none" stroke="#CDCCCC" stroke-width="0.5" width="2.6" height="2.6"/>
		</g>
		<g>
			<rect x="297.6" y="83.3" fill="none" stroke="#CDCCCC" stroke-width="0.5" width="2.6" height="2.6"/>
			<rect x="297.6" y="90.3" fill="none" stroke="#CDCCCC" stroke-width="0.5" width="2.6" height="2.6"/>
			<rect x="297.6" y="97.3" fill="none" stroke="#CDCCCC" stroke-width="0.5" width="2.6" height="2.6"/>
			<rect x="297.6" y="104.5" fill="none" stroke="#CDCCCC" stroke-width="0.5" width="2.6" height="2.6"/>
			<rect x="297.6" y="111.5" fill="none" stroke="#CDCCCC" stroke-width="0.5" width="2.6" height="2.6"/>
		</g>
		<g>
			<rect x="304.8" y="83.3" fill="none" stroke="#CDCCCC" stroke-width="0.5" width="2.6" height="2.6"/>
			<rect x="304.8" y="90.3" fill="none" stroke="#CDCCCC" stroke-width="0.5" width="2.6" height="2.6"/>
			<rect x="304.8" y="97.3" fill="none" stroke="#CDCCCC" stroke-width="0.5" width="2.6" height="2.6"/>
			<rect x="304.8" y="104.5" fill="none" stroke="#CDCCCC" stroke-width="0.5" width="2.6" height="2.6"/>
			<rect x="304.8" y="111.5" fill="none" stroke="#CDCCCC" stroke-width="0.5" width="2.6" height="2.6"/>
		</g>
		<g>
			<rect x="261.7" y="83.3" fill="none" stroke="#CDCCCC" stroke-width="0.5" width="2.6" height="2.6"/>
			<rect x="261.7" y="90.3" fill="none" stroke="#CDCCCC" stroke-width="0.5" width="2.6" height="2.6"/>
			<rect x="261.7" y="97.3" fill="none" stroke="#CDCCCC" stroke-width="0.5" width="2.6" height="2.6"/>
			<rect x="261.7" y="104.5" fill="none" stroke="#CDCCCC" stroke-width="0.5" width="2.6" height="2.6"/>
			<rect x="261.7" y="111.5" fill="none" stroke="#CDCCCC" stroke-width="0.5" width="2.6" height="2.6"/>
		</g>
		<g>
			<rect x="269" y="83.3" fill="none" stroke="#CDCCCC" stroke-width="0.5" width="2.6" height="2.6"/>
			<rect x="269" y="90.3" fill="none" stroke="#CDCCCC" stroke-width="0.5" width="2.6" height="2.6"/>
			<rect x="269" y="97.3" fill="none" stroke="#CDCCCC" stroke-width="0.5" width="2.6" height="2.6"/>
			<rect x="269" y="104.5" fill="none" stroke="#CDCCCC" stroke-width="0.5" width="2.6" height="2.6"/>
			<rect x="269" y="111.5" fill="none" stroke="#CDCCCC" stroke-width="0.5" width="2.6" height="2.6"/>
		</g>
		<g>
			<rect x="276.2" y="83.3" fill="none" stroke="#CDCCCC" stroke-width="0.5" width="2.6" height="2.6"/>
			<rect x="276.2" y="90.3" fill="none" stroke="#CDCCCC" stroke-width="0.5" width="2.6" height="2.6"/>
			<rect x="276.2" y="97.3" fill="none" stroke="#CDCCCC" stroke-width="0.5" width="2.6" height="2.6"/>
			<rect x="276.2" y="104.5" fill="none" stroke="#CDCCCC" stroke-width="0.5" width="2.6" height="2.6"/>
			<rect x="276.2" y="111.5" fill="none" stroke="#CDCCCC" stroke-width="0.5" width="2.6" height="2.6"/>
		</g>
	</g>
	<g>
		<g>
			<rect x="312" y="132.2" fill="none" stroke="#CDCCCC" stroke-width="0.5" width="2.6" height="2.6"/>
			<rect x="312" y="139.2" fill="none" stroke="#CDCCCC" stroke-width="0.5" width="2.6" height="2.6"/>
			<rect x="312" y="146.2" fill="none" stroke="#CDCCCC" stroke-width="0.5" width="2.6" height="2.6"/>
			<rect x="312" y="153.2" fill="none" stroke="#CDCCCC" stroke-width="0.5" width="2.6" height="2.6"/>
			<rect x="312" y="160.2" fill="none" stroke="#CDCCCC" stroke-width="0.5" width="2.6" height="2.6"/>
		</g>
		<g>
			<rect x="319.2" y="132.2" fill="none" stroke="#CDCCCC" stroke-width="0.5" width="2.6" height="2.6"/>
			<rect x="319.2" y="139.2" fill="none" stroke="#CDCCCC" stroke-width="0.5" width="2.6" height="2.6"/>
			<rect x="319.2" y="146.2" fill="none" stroke="#CDCCCC" stroke-width="0.5" width="2.6" height="2.6"/>
			<rect x="319.2" y="153.2" fill="none" stroke="#CDCCCC" stroke-width="0.5" width="2.6" height="2.6"/>
			<rect x="319.2" y="160.2" fill="none" stroke="#CDCCCC" stroke-width="0.5" width="2.6" height="2.6"/>
		</g>
		<g>
			<rect x="326.4" y="132.2" fill="none" stroke="#CDCCCC" stroke-width="0.5" width="2.6" height="2.6"/>
			<rect x="326.4" y="139.2" fill="none" stroke="#CDCCCC" stroke-width="0.5" width="2.6" height="2.6"/>
			<rect x="326.4" y="146.2" fill="none" stroke="#CDCCCC" stroke-width="0.5" width="2.6" height="2.6"/>
			<rect x="326.4" y="153.2" fill="none" stroke="#CDCCCC" stroke-width="0.5" width="2.6" height="2.6"/>
			<rect x="326.4" y="160.2" fill="none" stroke="#CDCCCC" stroke-width="0.5" width="2.6" height="2.6"/>
		</g>
		<g>
			<rect x="333.4" y="132.2" fill="none" stroke="#CDCCCC" stroke-width="0.5" width="2.6" height="2.6"/>
			<rect x="333.4" y="139.2" fill="none" stroke="#CDCCCC" stroke-width="0.5" width="2.6" height="2.6"/>
			<rect x="333.4" y="146.2" fill="none" stroke="#CDCCCC" stroke-width="0.5" width="2.6" height="2.6"/>
			<rect x="333.4" y="153.2" fill="none" stroke="#CDCCCC" stroke-width="0.5" width="2.6" height="2.6"/>
			<rect x="333.4" y="160.2" fill="none" stroke="#CDCCCC" stroke-width="0.5" width="2.6" height="2.6"/>
		</g>
		<g>
			<rect x="340.6" y="132.2" fill="none" stroke="#CDCCCC" stroke-width="0.5" width="2.6" height="2.6"/>
			<rect x="340.6" y="139.2" fill="none" stroke="#CDCCCC" stroke-width="0.5" width="2.6" height="2.6"/>
			<rect x="340.6" y="146.2" fill="none" stroke="#CDCCCC" stroke-width="0.5" width="2.6" height="2.6"/>
			<rect x="340.6" y="153.2" fill="none" stroke="#CDCCCC" stroke-width="0.5" width="2.6" height="2.6"/>
			<rect x="340.6" y="160.2" fill="none" stroke="#CDCCCC" stroke-width="0.5" width="2.6" height="2.6"/>
		</g>
		<g>
			<rect x="347.8" y="132.2" fill="none" stroke="#CDCCCC" stroke-width="0.5" width="2.6" height="2.6"/>
			<rect x="347.8" y="139.2" fill="none" stroke="#CDCCCC" stroke-width="0.5" width="2.6" height="2.6"/>
			<rect x="347.8" y="146.2" fill="none" stroke="#CDCCCC" stroke-width="0.5" width="2.6" height="2.6"/>
			<rect x="347.8" y="153.2" fill="none" stroke="#CDCCCC" stroke-width="0.5" width="2.6" height="2.6"/>
			<rect x="347.8" y="160.2" fill="none" stroke="#CDCCCC" stroke-width="0.5" width="2.6" height="2.6"/>
		</g>
		<g>
			<rect x="355" y="132.2" fill="none" stroke="#CDCCCC" stroke-width="0.5" width="2.6" height="2.6"/>
			<rect x="355" y="139.2" fill="none" stroke="#CDCCCC" stroke-width="0.5" width="2.6" height="2.6"/>
			<rect x="355" y="146.2" fill="none" stroke="#CDCCCC" stroke-width="0.5" width="2.6" height="2.6"/>
			<rect x="355" y="153.2" fill="none" stroke="#CDCCCC" stroke-width="0.5" width="2.6" height="2.6"/>
			<rect x="355" y="160.2" fill="none" stroke="#CDCCCC" stroke-width="0.5" width="2.6" height="2.6"/>
		</g>
		<g>
			<rect x="362.3" y="132.2" fill="none" stroke="#CDCCCC" stroke-width="0.5" width="2.6" height="2.6"/>
			<rect x="362.3" y="139.2" fill="none" stroke="#CDCCCC" stroke-width="0.5" width="2.6" height="2.6"/>
			<rect x="362.3" y="146.2" fill="none" stroke="#CDCCCC" stroke-width="0.5" width="2.6" height="2.6"/>
			<rect x="362.3" y="153.2" fill="none" stroke="#CDCCCC" stroke-width="0.5" width="2.6" height="2.6"/>
			<rect x="362.3" y="160.2" fill="none" stroke="#CDCCCC" stroke-width="0.5" width="2.6" height="2.6"/>
		</g>
		<g>
			<rect x="369.5" y="132.2" fill="none" stroke="#CDCCCC" stroke-width="0.5" width="2.6" height="2.6"/>
			<rect x="369.5" y="139.2" fill="none" stroke="#CDCCCC" stroke-width="0.5" width="2.6" height="2.6"/>
			<rect x="369.5" y="146.2" fill="none" stroke="#CDCCCC" stroke-width="0.5" width="2.6" height="2.6"/>
			<rect x="369.5" y="153.2" fill="none" stroke="#CDCCCC" stroke-width="0.5" width="2.6" height="2.6"/>
			<rect x="369.5" y="160.2" fill="none" stroke="#CDCCCC" stroke-width="0.5" width="2.6" height="2.6"/>
		</g>
		<g>
			<rect x="376.5" y="132.2" fill="none" stroke="#CDCCCC" stroke-width="0.5" width="2.6" height="2.6"/>
			<rect x="376.5" y="139.2" fill="none" stroke="#CDCCCC" stroke-width="0.5" width="2.6" height="2.6"/>
			<rect x="376.5" y="146.2" fill="none" stroke="#CDCCCC" stroke-width="0.5" width="2.6" height="2.6"/>
			<rect x="376.5" y="153.2" fill="none" stroke="#CDCCCC" stroke-width="0.5" width="2.6" height="2.6"/>
			<rect x="376.5" y="160.2" fill="none" stroke="#CDCCCC" stroke-width="0.5" width="2.6" height="2.6"/>
		</g>
		<g>
			<rect x="383.7" y="132.2" fill="none" stroke="#CDCCCC" stroke-width="0.5" width="2.6" height="2.6"/>
			<rect x="383.7" y="139.2" fill="none" stroke="#CDCCCC" stroke-width="0.5" width="2.6" height="2.6"/>
			<rect x="383.7" y="146.2" fill="none" stroke="#CDCCCC" stroke-width="0.5" width="2.6" height="2.6"/>
			<rect x="383.7" y="153.2" fill="none" stroke="#CDCCCC" stroke-width="0.5" width="2.6" height="2.6"/>
			<rect x="383.7" y="160.2" fill="none" stroke="#CDCCCC" stroke-width="0.5" width="2.6" height="2.6"/>
		</g>
		<g>
			<rect x="390.9" y="132.2" fill="none" stroke="#CDCCCC" stroke-width="0.5" width="2.6" height="2.6"/>
			<rect x="390.9" y="139.2" fill="none" stroke="#CDCCCC" stroke-width="0.5" width="2.6" height="2.6"/>
			<rect x="390.9" y="146.2" fill="none" stroke="#CDCCCC" stroke-width="0.5" width="2.6" height="2.6"/>
			<rect x="390.9" y="153.2" fill="none" stroke="#CDCCCC" stroke-width="0.5" width="2.6" height="2.6"/>
			<rect x="390.9" y="160.2" fill="none" stroke="#CDCCCC" stroke-width="0.5" width="2.6" height="2.6"/>
		</g>
		<g>
			<rect x="398.1" y="132.2" fill="none" stroke="#CDCCCC" stroke-width="0.5" width="2.6" height="2.6"/>
			<rect x="398.1" y="139.2" fill="none" stroke="#CDCCCC" stroke-width="0.5" width="2.6" height="2.6"/>
			<rect x="398.1" y="146.2" fill="none" stroke="#CDCCCC" stroke-width="0.5" width="2.6" height="2.6"/>
			<rect x="398.1" y="153.2" fill="none" stroke="#CDCCCC" stroke-width="0.5" width="2.6" height="2.6"/>
			<rect x="398.1" y="160.2" fill="none" stroke="#CDCCCC" stroke-width="0.5" width="2.6" height="2.6"/>
		</g>
		<g>
			<rect x="405.3" y="132.2" fill="none" stroke="#CDCCCC" stroke-width="0.5" width="2.6" height="2.6"/>
			<rect x="405.3" y="139.2" fill="none" stroke="#CDCCCC" stroke-width="0.5" width="2.6" height="2.6"/>
			<rect x="405.3" y="146.2" fill="none" stroke="#CDCCCC" stroke-width="0.5" width="2.6" height="2.6"/>
			<rect x="405.3" y="153.2" fill="none" stroke="#CDCCCC" stroke-width="0.5" width="2.6" height="2.6"/>
			<rect x="405.3" y="160.2" fill="none" stroke="#CDCCCC" stroke-width="0.5" width="2.6" height="2.6"/>
		</g>
		<g>
			<rect x="412.5" y="132.2" fill="none" stroke="#CDCCCC" stroke-width="0.5" width="2.6" height="2.6"/>
			<rect x="412.5" y="139.2" fill="none" stroke="#CDCCCC" stroke-width="0.5" width="2.6" height="2.6"/>
			<rect x="412.5" y="146.2" fill="none" stroke="#CDCCCC" stroke-width="0.5" width="2.6" height="2.6"/>
			<rect x="412.5" y="153.2" fill="none" stroke="#CDCCCC" stroke-width="0.5" width="2.6" height="2.6"/>
			<rect x="412.5" y="160.2" fill="none" stroke="#CDCCCC" stroke-width="0.5" width="2.6" height="2.6"/>
		</g>
		<g>
			<rect x="419.5" y="132.2" fill="none" stroke="#CDCCCC" stroke-width="0.5" width="2.6" height="2.6"/>
			<rect x="419.5" y="139.2" fill="none" stroke="#CDCCCC" stroke-width="0.5" width="2.6" height="2.6"/>
			<rect x="419.5" y="146.2" fill="none" stroke="#CDCCCC" stroke-width="0.5" width="2.6" height="2.6"/>
			<rect x="419.5" y="153.2" fill="none" stroke="#CDCCCC" stroke-width="0.5" width="2.6" height="2.6"/>
			<rect x="419.5" y="160.2" fill="none" stroke="#CDCCCC" stroke-width="0.5" width="2.6" height="2.6"/>
		</g>
		<rect x="426.7" y="132.2" fill="none" stroke="#CDCCCC" stroke-width="0.5" width="2.6" height="2.6"/>
		<rect x="426.7" y="139.2" fill="none" stroke="#CDCCCC" stroke-width="0.5" width="2.6" height="2.6"/>
		<rect x="426.7" y="146.2" fill="none" stroke="#CDCCCC" stroke-width="0.5" width="2.6" height="2.6"/>
		<rect x="426.7" y="153.2" fill="none" stroke="#CDCCCC" stroke-width="0.5" width="2.6" height="2.6"/>
		<rect x="426.7" y="160.2" fill="none" stroke="#CDCCCC" stroke-width="0.5" width="2.6" height="2.6"/>
		<rect x="433.9" y="132.2" fill="none" stroke="#CDCCCC" stroke-width="0.5" width="2.6" height="2.6"/>
		<rect x="433.9" y="139.2" fill="none" stroke="#CDCCCC" stroke-width="0.5" width="2.6" height="2.6"/>
		<rect x="433.9" y="146.2" fill="none" stroke="#CDCCCC" stroke-width="0.5" width="2.6" height="2.6"/>
		<rect x="433.9" y="153.2" fill="none" stroke="#CDCCCC" stroke-width="0.5" width="2.6" height="2.6"/>
		<rect x="433.9" y="160.2" fill="none" stroke="#CDCCCC" stroke-width="0.5" width="2.6" height="2.6"/>
		<rect x="441.1" y="132.2" fill="none" stroke="#CDCCCC" stroke-width="0.5" width="2.6" height="2.6"/>
		<rect x="441.1" y="139.2" fill="none" stroke="#CDCCCC" stroke-width="0.5" width="2.6" height="2.6"/>
		<rect x="441.1" y="146.2" fill="none" stroke="#CDCCCC" stroke-width="0.5" width="2.6" height="2.6"/>
		<rect x="441.1" y="153.2" fill="none" stroke="#CDCCCC" stroke-width="0.5" width="2.6" height="2.6"/>
		<rect x="441.1" y="160.2" fill="none" stroke="#CDCCCC" stroke-width="0.5" width="2.6" height="2.6"/>
		<rect x="448.3" y="132.2" fill="none" stroke="#CDCCCC" stroke-width="0.5" width="2.6" height="2.6"/>
		<rect x="448.3" y="139.2" fill="none" stroke="#CDCCCC" stroke-width="0.5" width="2.6" height="2.6"/>
		<rect x="448.3" y="146.2" fill="none" stroke="#CDCCCC" stroke-width="0.5" width="2.6" height="2.6"/>
		<rect x="448.3" y="153.2" fill="none" stroke="#CDCCCC" stroke-width="0.5" width="2.6" height="2.6"/>
		<rect x="448.3" y="160.2" fill="none" stroke="#CDCCCC" stroke-width="0.5" width="2.6" height="2.6"/>
		<rect x="455.6" y="132.2" fill="none" stroke="#CDCCCC" stroke-width="0.5" width="2.6" height="2.6"/>
		<rect x="455.6" y="139.2" fill="none" stroke="#CDCCCC" stroke-width="0.5" width="2.6" height="2.6"/>
		<rect x="455.6" y="146.2" fill="none" stroke="#CDCCCC" stroke-width="0.5" width="2.6" height="2.6"/>
		<rect x="455.6" y="153.2" fill="none" stroke="#CDCCCC" stroke-width="0.5" width="2.6" height="2.6"/>
		<rect x="455.6" y="160.2" fill="none" stroke="#CDCCCC" stroke-width="0.5" width="2.6" height="2.6"/>
		<rect x="462.6" y="132.2" fill="none" stroke="#CDCCCC" stroke-width="0.5" width="2.6" height="2.6"/>
		<rect x="462.6" y="139.2" fill="none" stroke="#CDCCCC" stroke-width="0.5" width="2.6" height="2.6"/>
		<rect x="462.6" y="146.2" fill="none" stroke="#CDCCCC" stroke-width="0.5" width="2.6" height="2.6"/>
		<rect x="462.6" y="153.2" fill="none" stroke="#CDCCCC" stroke-width="0.5" width="2.6" height="2.6"/>
		<rect x="462.6" y="160.2" fill="none" stroke="#CDCCCC" stroke-width="0.5" width="2.6" height="2.6"/>
		<rect x="469.8" y="132.2" fill="none" stroke="#CDCCCC" stroke-width="0.5" width="2.6" height="2.6"/>
		<rect x="469.8" y="139.2" fill="none" stroke="#CDCCCC" stroke-width="0.5" width="2.6" height="2.6"/>
		<rect x="469.8" y="146.2" fill="none" stroke="#CDCCCC" stroke-width="0.5" width="2.6" height="2.6"/>
		<rect x="469.8" y="153.2" fill="none" stroke="#CDCCCC" stroke-width="0.5" width="2.6" height="2.6"/>
		<rect x="469.8" y="160.2" fill="none" stroke="#CDCCCC" stroke-width="0.5" width="2.6" height="2.6"/>
		<g>
			<rect x="283.4" y="132.2" fill="none" stroke="#CDCCCC" stroke-width="0.5" width="2.6" height="2.6"/>
			<rect x="283.4" y="139.2" fill="none" stroke="#CDCCCC" stroke-width="0.5" width="2.6" height="2.6"/>
			<rect x="283.4" y="146.2" fill="none" stroke="#CDCCCC" stroke-width="0.5" width="2.6" height="2.6"/>
			<rect x="283.4" y="153.2" fill="none" stroke="#CDCCCC" stroke-width="0.5" width="2.6" height="2.6"/>
			<rect x="283.4" y="160.2" fill="none" stroke="#CDCCCC" stroke-width="0.5" width="2.6" height="2.6"/>
		</g>
		<g>
			<rect x="290.4" y="132.2" fill="none" stroke="#CDCCCC" stroke-width="0.5" width="2.6" height="2.6"/>
			<rect x="290.4" y="139.2" fill="none" stroke="#CDCCCC" stroke-width="0.5" width="2.6" height="2.6"/>
			<rect x="290.4" y="146.2" fill="none" stroke="#CDCCCC" stroke-width="0.5" width="2.6" height="2.6"/>
			<rect x="290.4" y="153.2" fill="none" stroke="#CDCCCC" stroke-width="0.5" width="2.6" height="2.6"/>
			<rect x="290.4" y="160.2" fill="none" stroke="#CDCCCC" stroke-width="0.5" width="2.6" height="2.6"/>
		</g>
		<g>
			<rect x="297.6" y="132.2" fill="none" stroke="#CDCCCC" stroke-width="0.5" width="2.6" height="2.6"/>
			<rect x="297.6" y="139.2" fill="none" stroke="#CDCCCC" stroke-width="0.5" width="2.6" height="2.6"/>
			<rect x="297.6" y="146.2" fill="none" stroke="#CDCCCC" stroke-width="0.5" width="2.6" height="2.6"/>
			<rect x="297.6" y="153.2" fill="none" stroke="#CDCCCC" stroke-width="0.5" width="2.6" height="2.6"/>
			<rect x="297.6" y="160.2" fill="none" stroke="#CDCCCC" stroke-width="0.5" width="2.6" height="2.6"/>
		</g>
		<g>
			<rect x="304.8" y="132.2" fill="none" stroke="#CDCCCC" stroke-width="0.5" width="2.6" height="2.6"/>
			<rect x="304.8" y="139.2" fill="none" stroke="#CDCCCC" stroke-width="0.5" width="2.6" height="2.6"/>
			<rect x="304.8" y="146.2" fill="none" stroke="#CDCCCC" stroke-width="0.5" width="2.6" height="2.6"/>
			<rect x="304.8" y="153.2" fill="none" stroke="#CDCCCC" stroke-width="0.5" width="2.6" height="2.6"/>
			<rect x="304.8" y="160.2" fill="none" stroke="#CDCCCC" stroke-width="0.5" width="2.6" height="2.6"/>
		</g>
		<g>
			<rect x="261.7" y="132.2" fill="none" stroke="#CDCCCC" stroke-width="0.5" width="2.6" height="2.6"/>
			<rect x="261.7" y="139.2" fill="none" stroke="#CDCCCC" stroke-width="0.5" width="2.6" height="2.6"/>
			<rect x="261.7" y="146.2" fill="none" stroke="#CDCCCC" stroke-width="0.5" width="2.6" height="2.6"/>
			<rect x="261.7" y="153.2" fill="none" stroke="#CDCCCC" stroke-width="0.5" width="2.6" height="2.6"/>
			<rect x="261.7" y="160.2" fill="none" stroke="#CDCCCC" stroke-width="0.5" width="2.6" height="2.6"/>
		</g>
		<g>
			<rect x="269" y="132.2" fill="none" stroke="#CDCCCC" stroke-width="0.5" width="2.6" height="2.6"/>
			<rect x="269" y="139.2" fill="none" stroke="#CDCCCC" stroke-width="0.5" width="2.6" height="2.6"/>
			<rect x="269" y="146.2" fill="none" stroke="#CDCCCC" stroke-width="0.5" width="2.6" height="2.6"/>
			<rect x="269" y="153.2" fill="none" stroke="#CDCCCC" stroke-width="0.5" width="2.6" height="2.6"/>
			<rect x="269" y="160.2" fill="none" stroke="#CDCCCC" stroke-width="0.5" width="2.6" height="2.6"/>
		</g>
		<g>
			<rect x="276.2" y="132.2" fill="none" stroke="#CDCCCC" stroke-width="0.5" width="2.6" height="2.6"/>
			<rect x="276.2" y="139.2" fill="none" stroke="#CDCCCC" stroke-width="0.5" width="2.6" height="2.6"/>
			<rect x="276.2" y="146.2" fill="none" stroke="#CDCCCC" stroke-width="0.5" width="2.6" height="2.6"/>
			<rect x="276.2" y="153.2" fill="none" stroke="#CDCCCC" stroke-width="0.5" width="2.6" height="2.6"/>
			<rect x="276.2" y="160.2" fill="none" stroke="#CDCCCC" stroke-width="0.5" width="2.6" height="2.6"/>
		</g>
	</g>
	<g>
		<g>
			<g>
				<rect x="290" y="54.9" fill="none" stroke="#CDCCCC" stroke-width="0.5" width="2.6" height="2.6"/>
				<rect x="283" y="54.9" fill="none" stroke="#CDCCCC" stroke-width="0.5" width="2.6" height="2.6"/>
				<rect x="276" y="54.9" fill="none" stroke="#CDCCCC" stroke-width="0.5" width="2.6" height="2.6"/>
				<rect x="268.8" y="54.9" fill="none" stroke="#CDCCCC" stroke-width="0.5" width="2.6" height="2.6"/>
				<rect x="261.7" y="54.9" fill="none" stroke="#CDCCCC" stroke-width="0.5" width="2.6" height="2.6"/>
			</g>
			<g>
				<rect x="261.7" y="61.9" fill="none" stroke="#CDCCCC" stroke-width="0.5" width="2.6" height="2.6"/>
				<rect x="268.8" y="61.9" fill="none" stroke="#CDCCCC" stroke-width="0.5" width="2.6" height="2.6"/>
				<rect x="276" y="61.9" fill="none" stroke="#CDCCCC" stroke-width="0.5" width="2.6" height="2.6"/>
				<rect x="283" y="61.9" fill="none" stroke="#CDCCCC" stroke-width="0.5" width="2.6" height="2.6"/>
				<rect x="290" y="61.9" fill="none" stroke="#CDCCCC" stroke-width="0.5" width="2.6" height="2.6"/>
			</g>
		</g>
		<g>
			<g>
				<rect x="333" y="54.9" fill="none" stroke="#CDCCCC" stroke-width="0.5" width="2.6" height="2.6"/>
				<rect x="326" y="54.9" fill="none" stroke="#CDCCCC" stroke-width="0.5" width="2.6" height="2.6"/>
				<rect x="319" y="54.9" fill="none" stroke="#CDCCCC" stroke-width="0.5" width="2.6" height="2.6"/>
				<rect x="311.8" y="54.9" fill="none" stroke="#CDCCCC" stroke-width="0.5" width="2.6" height="2.6"/>
				<rect x="304.8" y="54.9" fill="none" stroke="#CDCCCC" stroke-width="0.5" width="2.6" height="2.6"/>
			</g>
			<g>
				<rect x="304.8" y="61.9" fill="none" stroke="#CDCCCC" stroke-width="0.5" width="2.6" height="2.6"/>
				<rect x="311.8" y="61.9" fill="none" stroke="#CDCCCC" stroke-width="0.5" width="2.6" height="2.6"/>
				<rect x="319" y="61.9" fill="none" stroke="#CDCCCC" stroke-width="0.5" width="2.6" height="2.6"/>
				<rect x="326" y="61.9" fill="none" stroke="#CDCCCC" stroke-width="0.5" width="2.6" height="2.6"/>
				<rect x="333" y="61.9" fill="none" stroke="#CDCCCC" stroke-width="0.5" width="2.6" height="2.6"/>
			</g>
		</g>
		<g>
			<g>
				<rect x="376.1" y="54.9" fill="none" stroke="#CDCCCC" stroke-width="0.5" width="2.6" height="2.6"/>
				<rect x="369.1" y="54.9" fill="none" stroke="#CDCCCC" stroke-width="0.5" width="2.6" height="2.6"/>
				<rect x="362.1" y="54.9" fill="none" stroke="#CDCCCC" stroke-width="0.5" width="2.6" height="2.6"/>
				<rect x="354.8" y="54.9" fill="none" stroke="#CDCCCC" stroke-width="0.5" width="2.6" height="2.6"/>
				<rect x="347.8" y="54.9" fill="none" stroke="#CDCCCC" stroke-width="0.5" width="2.6" height="2.6"/>
			</g>
			<g>
				<rect x="347.8" y="61.9" fill="none" stroke="#CDCCCC" stroke-width="0.5" width="2.6" height="2.6"/>
				<rect x="354.8" y="61.9" fill="none" stroke="#CDCCCC" stroke-width="0.5" width="2.6" height="2.6"/>
				<rect x="362.1" y="61.9" fill="none" stroke="#CDCCCC" stroke-width="0.5" width="2.6" height="2.6"/>
				<rect x="369.1" y="61.9" fill="none" stroke="#CDCCCC" stroke-width="0.5" width="2.6" height="2.6"/>
				<rect x="376.1" y="61.9" fill="none" stroke="#CDCCCC" stroke-width="0.5" width="2.6" height="2.6"/>
			</g>
		</g>
		<g>
			<g>
				<rect x="419.1" y="54.9" fill="none" stroke="#CDCCCC" stroke-width="0.5" width="2.6" height="2.6"/>
				<rect x="412.1" y="54.9" fill="none" stroke="#CDCCCC" stroke-width="0.5" width="2.6" height="2.6"/>
				<rect x="405.1" y="54.9" fill="none" stroke="#CDCCCC" stroke-width="0.5" width="2.6" height="2.6"/>
				<rect x="397.9" y="54.9" fill="none" stroke="#CDCCCC" stroke-width="0.5" width="2.6" height="2.6"/>
				<rect x="390.9" y="54.9" fill="none" stroke="#CDCCCC" stroke-width="0.5" width="2.6" height="2.6"/>
			</g>
			<g>
				<rect x="390.9" y="61.9" fill="none" stroke="#CDCCCC" stroke-width="0.5" width="2.6" height="2.6"/>
				<rect x="397.9" y="61.9" fill="none" stroke="#CDCCCC" stroke-width="0.5" width="2.6" height="2.6"/>
				<rect x="405.1" y="61.9" fill="none" stroke="#CDCCCC" stroke-width="0.5" width="2.6" height="2.6"/>
				<rect x="412.1" y="61.9" fill="none" stroke="#CDCCCC" stroke-width="0.5" width="2.6" height="2.6"/>
				<rect x="419.1" y="61.9" fill="none" stroke="#CDCCCC" stroke-width="0.5" width="2.6" height="2.6"/>
			</g>
		</g>
		<g>
			<g>
				<rect x="462.2" y="54.9" fill="none" stroke="#CDCCCC" stroke-width="0.5" width="2.6" height="2.6"/>
				<rect x="455.2" y="54.9" fill="none" stroke="#CDCCCC" stroke-width="0.5" width="2.6" height="2.6"/>
				<rect x="448.1" y="54.9" fill="none" stroke="#CDCCCC" stroke-width="0.5" width="2.6" height="2.6"/>
				<rect x="440.9" y="54.9" fill="none" stroke="#CDCCCC" stroke-width="0.5" width="2.6" height="2.6"/>
				<rect x="433.9" y="54.9" fill="none" stroke="#CDCCCC" stroke-width="0.5" width="2.6" height="2.6"/>
			</g>
			<g>
				<rect x="433.9" y="61.9" fill="none" stroke="#CDCCCC" stroke-width="0.5" width="2.6" height="2.6"/>
				<rect x="440.9" y="61.9" fill="none" stroke="#CDCCCC" stroke-width="0.5" width="2.6" height="2.6"/>
				<rect x="448.1" y="61.9" fill="none" stroke="#CDCCCC" stroke-width="0.5" width="2.6" height="2.6"/>
				<rect x="455.2" y="61.9" fill="none" stroke="#CDCCCC" stroke-width="0.5" width="2.6" height="2.6"/>
				<rect x="462.2" y="61.9" fill="none" stroke="#CDCCCC" stroke-width="0.5" width="2.6" height="2.6"/>
			</g>
		</g>
	</g>
	<g>
		<g>
			<g>
				<rect x="290" y="183" fill="none" stroke="#CDCCCC" stroke-width="0.5" width="2.6" height="2.6"/>
				<rect x="283" y="183" fill="none" stroke="#CDCCCC" stroke-width="0.5" width="2.6" height="2.6"/>
				<rect x="276" y="183" fill="none" stroke="#CDCCCC" stroke-width="0.5" width="2.6" height="2.6"/>
				<rect x="268.8" y="183" fill="none" stroke="#CDCCCC" stroke-width="0.5" width="2.6" height="2.6"/>
				<rect x="261.7" y="183" fill="none" stroke="#CDCCCC" stroke-width="0.5" width="2.6" height="2.6"/>
			</g>
			<g>
				<rect x="261.7" y="190.2" fill="none" stroke="#CDCCCC" stroke-width="0.5" width="2.6" height="2.6"/>
				<rect x="268.8" y="190.2" fill="none" stroke="#CDCCCC" stroke-width="0.5" width="2.6" height="2.6"/>
				<rect x="276" y="190.2" fill="none" stroke="#CDCCCC" stroke-width="0.5" width="2.6" height="2.6"/>
				<rect x="283" y="190.2" fill="none" stroke="#CDCCCC" stroke-width="0.5" width="2.6" height="2.6"/>
				<rect x="290" y="190.2" fill="none" stroke="#CDCCCC" stroke-width="0.5" width="2.6" height="2.6"/>
			</g>
		</g>
		<g>
			<g>
				<rect x="333" y="183" fill="none" stroke="#CDCCCC" stroke-width="0.5" width="2.6" height="2.6"/>
				<rect x="326" y="183" fill="none" stroke="#CDCCCC" stroke-width="0.5" width="2.6" height="2.6"/>
				<rect x="319" y="183" fill="none" stroke="#CDCCCC" stroke-width="0.5" width="2.6" height="2.6"/>
				<rect x="311.8" y="183" fill="none" stroke="#CDCCCC" stroke-width="0.5" width="2.6" height="2.6"/>
				<rect x="304.8" y="183" fill="none" stroke="#CDCCCC" stroke-width="0.5" width="2.6" height="2.6"/>
			</g>
			<g>
				<rect x="304.8" y="190.2" fill="none" stroke="#CDCCCC" stroke-width="0.5" width="2.6" height="2.6"/>
				<rect x="311.8" y="190.2" fill="none" stroke="#CDCCCC" stroke-width="0.5" width="2.6" height="2.6"/>
				<rect x="319" y="190.2" fill="none" stroke="#CDCCCC" stroke-width="0.5" width="2.6" height="2.6"/>
				<rect x="326" y="190.2" fill="none" stroke="#CDCCCC" stroke-width="0.5" width="2.6" height="2.6"/>
				<rect x="333" y="190.2" fill="none" stroke="#CDCCCC" stroke-width="0.5" width="2.6" height="2.6"/>
			</g>
		</g>
		<g>
			<g>
				<rect x="376.1" y="183" fill="none" stroke="#CDCCCC" stroke-width="0.5" width="2.6" height="2.6"/>
				<rect x="369.1" y="183" fill="none" stroke="#CDCCCC" stroke-width="0.5" width="2.6" height="2.6"/>
				<rect x="362.1" y="183" fill="none" stroke="#CDCCCC" stroke-width="0.5" width="2.6" height="2.6"/>
				<rect x="354.8" y="183" fill="none" stroke="#CDCCCC" stroke-width="0.5" width="2.6" height="2.6"/>
				<rect x="347.8" y="183" fill="none" stroke="#CDCCCC" stroke-width="0.5" width="2.6" height="2.6"/>
			</g>
			<g>
				<rect x="347.8" y="190.2" fill="none" stroke="#CDCCCC" stroke-width="0.5" width="2.6" height="2.6"/>
				<rect x="354.8" y="190.2" fill="none" stroke="#CDCCCC" stroke-width="0.5" width="2.6" height="2.6"/>
				<rect x="362.1" y="190.2" fill="none" stroke="#CDCCCC" stroke-width="0.5" width="2.6" height="2.6"/>
				<rect x="369.1" y="190.2" fill="none" stroke="#CDCCCC" stroke-width="0.5" width="2.6" height="2.6"/>
				<rect x="376.1" y="190.2" fill="none" stroke="#CDCCCC" stroke-width="0.5" width="2.6" height="2.6"/>
			</g>
		</g>
		<g>
			<g>
				<rect x="419.1" y="183" fill="none" stroke="#CDCCCC" stroke-width="0.5" width="2.6" height="2.6"/>
				<rect x="412.1" y="183" fill="none" stroke="#CDCCCC" stroke-width="0.5" width="2.6" height="2.6"/>
				<rect x="405.1" y="183" fill="none" stroke="#CDCCCC" stroke-width="0.5" width="2.6" height="2.6"/>
				<rect x="397.9" y="183" fill="none" stroke="#CDCCCC" stroke-width="0.5" width="2.6" height="2.6"/>
				<rect x="390.9" y="183" fill="none" stroke="#CDCCCC" stroke-width="0.5" width="2.6" height="2.6"/>
			</g>
			<g>
				<rect x="390.9" y="190.2" fill="none" stroke="#CDCCCC" stroke-width="0.5" width="2.6" height="2.6"/>
				<rect x="397.9" y="190.2" fill="none" stroke="#CDCCCC" stroke-width="0.5" width="2.6" height="2.6"/>
				<rect x="405.1" y="190.2" fill="none" stroke="#CDCCCC" stroke-width="0.5" width="2.6" height="2.6"/>
				<rect x="412.1" y="190.2" fill="none" stroke="#CDCCCC" stroke-width="0.5" width="2.6" height="2.6"/>
				<rect x="419.1" y="190.2" fill="none" stroke="#CDCCCC" stroke-width="0.5" width="2.6" height="2.6"/>
			</g>
		</g>
		<g>
			<g>
				<rect x="462.2" y="183" fill="none" stroke="#CDCCCC" stroke-width="0.5" width="2.6" height="2.6"/>
				<rect x="455.2" y="183" fill="none" stroke="#CDCCCC" stroke-width="0.5" width="2.6" height="2.6"/>
				<rect x="448.1" y="183" fill="none" stroke="#CDCCCC" stroke-width="0.5" width="2.6" height="2.6"/>
				<rect x="440.9" y="183" fill="none" stroke="#CDCCCC" stroke-width="0.5" width="2.6" height="2.6"/>
				<rect x="433.9" y="183" fill="none" stroke="#CDCCCC" stroke-width="0.5" width="2.6" height="2.6"/>
			</g>
			<g>
				<rect x="433.9" y="190.2" fill="none" stroke="#CDCCCC" stroke-width="0.5" width="2.6" height="2.6"/>
				<rect x="440.9" y="190.2" fill="none" stroke="#CDCCCC" stroke-width="0.5" width="2.6" height="2.6"/>
				<rect x="448.1" y="190.2" fill="none" stroke="#CDCCCC" stroke-width="0.5" width="2.6" height="2.6"/>
				<rect x="455.2" y="190.2" fill="none" stroke="#CDCCCC" stroke-width="0.5" width="2.6" height="2.6"/>
				<rect x="462.2" y="190.2" fill="none" stroke="#CDCCCC" stroke-width="0.5" width="2.6" height="2.6"/>
			</g>
		</g>
	</g>
	<rect x="246.3" y="47.5" fill="none" stroke="#CDCCCC" stroke-width="0.5" width="241.3" height="150.6"/>
</g>
<g>
	<polyline fill="none" stroke="#010101" stroke-width="0.5" points="116.2,165.2 137.2,165.2 120,165.2 	"/>
	<line fill="none" stroke="#010101" stroke-width="0.5" x1="120.2" y1="171" x2="133.4" y2="171"/>
	<line fill="none" stroke="#010101" stroke-width="0.5" x1="124.4" y1="176.2" x2="129.2" y2="176.2"/>
</g>
<text transform="matrix(1 0 0 1 141.9673 182.1865)" fill="#010101" font-family="'TheSerif-HP5Plain'" font-size="9.3849">Ground</text>
<polyline fill="none" stroke="#010101" stroke-width="0.5" stroke-linecap="round" stroke-linejoin="round" points="127,126 
	127,47.9 127,47.9 45.1,47.9 "/>
<polyline fill="none" stroke="#010101" stroke-width="0.5" points="132.2,92.1 126.8,92.1 121.4,92.1 "/>
<polygon fill="#010101" stroke="#010101" stroke-width="0.5" points="127.2,91.7 131.8,84.1 122.2,84.1 "/>
<polygon fill="none" stroke="#010101" stroke-width="0.5" points="39.3,40.5 45.9,47.7 39.3,54.9 22.1,54.9 22.1,40.5 "/>
<polyline fill="none" stroke="#010101" stroke-width="0.5" points="126.8,126 122.4,128 132,131 122.2,134.2 132.6,136.8 122,140 
	127.2,141.4 127.2,165 "/>
<text transform="matrix(1 0 0 1 141.9673 96.1035)" fill="#010101" font-family="'TheSerif-HP5Plain'" font-size="9.3849">LED</text>
<text transform="matrix(1 0 0 1 8.6997 70.9424)" fill="#010101" font-family="'TheSerif-HP5Plain'" font-size="9.3849">Digital I/O Pin 4</text>
<path fill="none" stroke="#818181" stroke-linecap="round" d="M334.8,84.5c0,0-14.2-2.6-20-20.8c-3.8-11.4-4.6-29-4.6-29"/>
<path fill="none" stroke="#221F1F" stroke-linecap="round" d="M413.5,105.9c0,0,16-19.8-1.8-74.1"/>
<g>
	<line fill="none" stroke="#010101" stroke-linecap="round" x1="414.1" y1="112.9" x2="391.7" y2="112.9"/>
	<line fill="none" stroke="#010101" stroke-linecap="round" x1="348.8" y1="112.9" x2="369.7" y2="112.9"/>
	<rect x="369.5" y="109.9" fill="#CDCCCC" width="22.4" height="6"/>
	<rect x="371.5" y="109.7" fill="#676767" width="3" height="6.2"/>
	<rect x="375.9" y="109.7" fill="#010101" width="3" height="6.2"/>
	<rect x="380.3" y="109.7" fill="#818181" width="3" height="6.2"/>
	<rect x="386.3" y="109.7" fill="#B4B4B4" width="3" height="6.2"/>
</g>
<text transform="matrix(1 0 0 1 141.9673 137.2236)" fill="#010101" font-family="'TheSerif-HP5Plain'" font-size="9.3849">330 ohm</text>
<g>
	<g>
		<polygon fill="#010101" points="147.8,73.5 144.2,80.3 141,77.1 		"/>
		<line fill="none" stroke="#010101" stroke-width="0.5" x1="144.2" y1="77.1" x2="135.8" y2="85.5"/>
	</g>
	<g>
		<polygon fill="#010101" points="143,68.9 139.6,75.7 136.2,72.3 		"/>
		<line fill="none" stroke="#010101" stroke-width="0.5" x1="139.6" y1="72.3" x2="131.2" y2="80.9"/>
	</g>
</g>
<g>
	<line fill="none" stroke="#010101" stroke-linecap="round" x1="349.2" y1="105.7" x2="309" y2="127.2"/>
	<line fill="none" stroke="#010101" stroke-linecap="round" x1="304" y1="117.9" x2="335" y2="91.3"/>
	<path fill="#818181" d="M312,129.4l-12.8,8.4c0,0-6.6,3.4-11-4c-4.6-7.4,1.8-11,1.8-11l12.8-8.4L312,129.4z"/>
</g>
</svg>
