<?xml version="1.0" encoding="utf-8"?>
<!-- Generator: Adobe Illustrator 18.0.0, SVG Export Plug-In . SVG Version: 6.00 Build 0)  -->
<!DOCTYPE svg PUBLIC "-//W3C//DTD SVG 1.1//EN" "http://www.w3.org/Graphics/SVG/1.1/DTD/svg11.dtd">
<svg version="1.1" id="Layer_1" xmlns="http://www.w3.org/2000/svg" xmlns:xlink="http://www.w3.org/1999/xlink" x="0px" y="0px"
	 viewBox="0 0 687 120" enable-background="new 0 0 687 120" xml:space="preserve">
<circle fill="#FFFFFF" stroke="#010101" stroke-width="0.5" cx="475.1" cy="69" r="18.4"/>
<line fill="none" stroke="#010101" stroke-width="0.5" x1="318.4" y1="21.6" x2="371.1" y2="7.4"/>
<g>
	<text transform="matrix(1 0 0 1 490.0523 97.5726)" fill="#010101" font-family="'TheSerif-HP5Plain'" font-size="11.9354">Light</text>
</g>
<g>
	<text transform="matrix(1 0 0 1 285.3307 10.1605)" fill="#010101" font-family="'TheSerif-HP5Plain'" font-size="11.9354">Switch</text>
</g>
<g>
	<text transform="matrix(1 0 0 1 193.4849 51.307)" fill="#010101" font-family="'TheSerif-HP5Plain'" font-size="11.9354">Battery</text>
</g>
<path fill="none" stroke="#010101" stroke-width="0.5" d="M372.9,21.1h51.8c9,0,16.4,7.3,16.4,16.7V62h27.3c3.8,0,6.8,3.1,6.8,6.8
	c0,3.8-3.1,6.8-6.8,6.8h-27.3v24.6c0,9-7.3,16.4-16.4,16.4H266.6c-9,0-16.4-7.3-16.4-16.4V37.4c0-9,7.3-16.4,16.4-16.4h51.8"/>
<circle fill="#FFFFFF" stroke="#010101" stroke-width="0.5" cx="318.4" cy="21.1" r="3.4"/>
<circle fill="#FFFFFF" stroke="#010101" stroke-width="0.5" cx="372.9" cy="21.1" r="3.4"/>
<rect x="247.9" y="55.2" fill="#FFFFFF" width="5.4" height="20.4"/>
<line fill="#FFFFFF" stroke="#010101" stroke-width="0.5" x1="236.5" y1="55.2" x2="263.8" y2="55.2"/>
<line fill="#FFFFFF" stroke="#010101" stroke-width="0.5" x1="236.5" y1="68.8" x2="263.8" y2="68.8"/>
<line fill="#FFFFFF" stroke="#010101" stroke-width="0.5" x1="243.4" y1="62" x2="257" y2="62"/>
<line fill="#FFFFFF" stroke="#010101" stroke-width="0.5" x1="243.4" y1="75.6" x2="257" y2="75.6"/>
<text transform="matrix(1 0 0 1 240.6334 51.4291)" fill="#010101" font-family="'TheSansMono-W3Light'" font-size="13.6405">+</text>
</svg>
