<?xml version="1.0" encoding="utf-8"?>
<!-- Generator: Adobe Illustrator 18.0.0, SVG Export Plug-In . SVG Version: 6.00 Build 0)  -->
<!DOCTYPE svg PUBLIC "-//W3C//DTD SVG 1.1//EN" "http://www.w3.org/Graphics/SVG/1.1/DTD/svg11.dtd">
<svg version="1.1" id="Layer_1" xmlns="http://www.w3.org/2000/svg" xmlns:xlink="http://www.w3.org/1999/xlink" x="0px" y="0px"
	 viewBox="0 0 687 368.8" enable-background="new 0 0 687 368.8" xml:space="preserve">
<text transform="matrix(1 0 0 1 96.4843 -17.2931)" font-family="'TheSansMono-W3Light'" font-size="9.9632"> 0                   </text>
<text transform="matrix(1 0 0 1 222.0215 -17.2931)" font-family="'TheSansMono-W3Light'" font-size="9.9632">1</text>
<text transform="matrix(1 0 0 1 227.9985 -17.2931)" font-family="'TheSansMono-W3Light'" font-size="9.9632">                   2                   </text>
<text transform="matrix(1 0 0 1 461.1294 -17.2931)" font-family="'TheSansMono-W3Light'" font-size="9.9632">3</text>
<text transform="matrix(1 0 0 1 467.1059 -17.2931)" font-family="'TheSansMono-W3Light'" font-size="9.9632">   </text>
<text transform="matrix(1 0 0 1 96.4843 -3.0558)" font-family="'TheSansMono-W3Light'" font-size="9.9632"> 0 </text>
<text transform="matrix(1 0 0 1 114.4174 -3.0558)" font-family="'TheSansMono-W3Light'" font-size="9.9632">1</text>
<text transform="matrix(1 0 0 1 120.3955 -3.0558)" font-family="'TheSansMono-W3Light'" font-size="9.9632"> 2 </text>
<text transform="matrix(1 0 0 1 138.33 -3.0558)" font-family="'TheSansMono-W3Light'" font-size="9.9632">3</text>
<text transform="matrix(1 0 0 1 144.3076 -3.0558)" font-family="'TheSansMono-W3Light'" font-size="9.9632"> </text>
<text transform="matrix(1 0 0 1 150.2856 -3.0558)" font-family="'TheSansMono-W3Light'" font-size="9.9632">4</text>
<text transform="matrix(1 0 0 1 156.2636 -3.0558)" font-family="'TheSansMono-W3Light'" font-size="9.9632"> </text>
<text transform="matrix(1 0 0 1 162.2412 -3.0558)" font-family="'TheSansMono-W3Light'" font-size="9.9632">5</text>
<text transform="matrix(1 0 0 1 168.2192 -3.0558)" font-family="'TheSansMono-W3Light'" font-size="9.9632"> </text>
<text transform="matrix(1 0 0 1 174.1977 -3.0558)" font-family="'TheSansMono-W3Light'" font-size="9.9632">6</text>
<text transform="matrix(1 0 0 1 180.1748 -3.0558)" font-family="'TheSansMono-W3Light'" font-size="9.9632"> </text>
<text transform="matrix(1 0 0 1 186.1538 -3.0558)" font-family="'TheSansMono-W3Light'" font-size="9.9632">7</text>
<text transform="matrix(1 0 0 1 192.1313 -3.0558)" font-family="'TheSansMono-W3Light'" font-size="9.9632"> 8 </text>
<text transform="matrix(1 0 0 1 210.0649 -3.0558)" font-family="'TheSansMono-W3Light'" font-size="9.9632">9</text>
<text transform="matrix(1 0 0 1 216.0429 -3.0558)" font-family="'TheSansMono-W3Light'" font-size="9.9632"> 0 </text>
<text transform="matrix(1 0 0 1 233.9775 -3.0558)" font-family="'TheSansMono-W3Light'" font-size="9.9632">1</text>
<text transform="matrix(1 0 0 1 239.9541 -3.0558)" font-family="'TheSansMono-W3Light'" font-size="9.9632"> 2 </text>
<text transform="matrix(1 0 0 1 257.8882 -3.0558)" font-family="'TheSansMono-W3Light'" font-size="9.9632">3</text>
<text transform="matrix(1 0 0 1 263.8667 -3.0558)" font-family="'TheSansMono-W3Light'" font-size="9.9632"> </text>
<text transform="matrix(1 0 0 1 269.8442 -3.0558)" font-family="'TheSansMono-W3Light'" font-size="9.9632">4</text>
<text transform="matrix(1 0 0 1 275.8217 -3.0558)" font-family="'TheSansMono-W3Light'" font-size="9.9632"> </text>
<text transform="matrix(1 0 0 1 281.8012 -3.0558)" font-family="'TheSansMono-W3Light'" font-size="9.9632">5</text>
<text transform="matrix(1 0 0 1 287.7778 -3.0558)" font-family="'TheSansMono-W3Light'" font-size="9.9632"> </text>
<text transform="matrix(1 0 0 1 293.7563 -3.0558)" font-family="'TheSansMono-W3Light'" font-size="9.9632">6</text>
<text transform="matrix(1 0 0 1 299.7339 -3.0558)" font-family="'TheSansMono-W3Light'" font-size="9.9632"> </text>
<text transform="matrix(1 0 0 1 305.7124 -3.0558)" font-family="'TheSansMono-W3Light'" font-size="9.9632">7</text>
<text transform="matrix(1 0 0 1 311.6899 -3.0558)" font-family="'TheSansMono-W3Light'" font-size="9.9632"> 8 </text>
<text transform="matrix(1 0 0 1 329.6235 -3.0558)" font-family="'TheSansMono-W3Light'" font-size="9.9632">9</text>
<text transform="matrix(1 0 0 1 335.601 -3.0558)" font-family="'TheSansMono-W3Light'" font-size="9.9632"> 0 </text>
<text transform="matrix(1 0 0 1 353.5356 -3.0558)" font-family="'TheSansMono-W3Light'" font-size="9.9632">1</text>
<text transform="matrix(1 0 0 1 359.5141 -3.0558)" font-family="'TheSansMono-W3Light'" font-size="9.9632"> 2 </text>
<text transform="matrix(1 0 0 1 377.4487 -3.0558)" font-family="'TheSansMono-W3Light'" font-size="9.9632">3</text>
<text transform="matrix(1 0 0 1 383.4253 -3.0558)" font-family="'TheSansMono-W3Light'" font-size="9.9632"> </text>
<text transform="matrix(1 0 0 1 389.4028 -3.0558)" font-family="'TheSansMono-W3Light'" font-size="9.9632">4</text>
<text transform="matrix(1 0 0 1 395.3813 -3.0558)" font-family="'TheSansMono-W3Light'" font-size="9.9632"> </text>
<text transform="matrix(1 0 0 1 401.3598 -3.0558)" font-family="'TheSansMono-W3Light'" font-size="9.9632">5</text>
<text transform="matrix(1 0 0 1 407.3374 -3.0558)" font-family="'TheSansMono-W3Light'" font-size="9.9632"> </text>
<text transform="matrix(1 0 0 1 413.3139 -3.0558)" font-family="'TheSansMono-W3Light'" font-size="9.9632">6</text>
<text transform="matrix(1 0 0 1 419.2934 -3.0558)" font-family="'TheSansMono-W3Light'" font-size="9.9632"> </text>
<text transform="matrix(1 0 0 1 425.271 -3.0558)" font-family="'TheSansMono-W3Light'" font-size="9.9632">7</text>
<text transform="matrix(1 0 0 1 431.2495 -3.0558)" font-family="'TheSansMono-W3Light'" font-size="9.9632"> 8 </text>
<text transform="matrix(1 0 0 1 449.1821 -3.0558)" font-family="'TheSansMono-W3Light'" font-size="9.9632">9</text>
<text transform="matrix(1 0 0 1 455.1606 -3.0558)" font-family="'TheSansMono-W3Light'" font-size="9.9632"> 0 </text>
<text transform="matrix(1 0 0 1 473.0844 -3.0558)" font-family="'TheSansMono-W3Light'" font-size="9.9632">1</text>
<text transform="matrix(1 0 0 1 479.062 -3.0558)" font-family="'TheSansMono-W3Light'" font-size="9.9632"> </text>
<text transform="matrix(1 0 0 1 96.4843 11.1737)" font-family="'TheSansMono-W3Light'" font-size="9.9632">+-+-+-+-+-+-+-+-+-+-+-+-+-+-+-+-+-+-+-+-+-+-+-+-+-+-+-+-+-+-+-+-+</text>
<text transform="matrix(1 0 0 1 96.4843 25.4061)" font-family="'TheSansMono-W3Light'" font-size="9.9632">|Version|  IHL  |Type of Service|          Total Length         |</text>
<text transform="matrix(1 0 0 1 96.4843 39.6395)" font-family="'TheSansMono-W3Light'" font-size="9.9632">+-+-+-+-+-+-+-+-+-+-+-+-+-+-+-+-+-+-+-+-+-+-+-+-+-+-+-+-+-+-+-+-+</text>
<text transform="matrix(1 0 0 1 96.4843 53.8729)" font-family="'TheSansMono-W3Light'" font-size="9.9632">|         Identification        |Flags|      Fragment Offset    |</text>
<text transform="matrix(1 0 0 1 96.4843 68.1063)" font-family="'TheSansMono-W3Light'" font-size="9.9632">+-+-+-+-+-+-+-+-+-+-+-+-+-+-+-+-+-+-+-+-+-+-+-+-+-+-+-+-+-+-+-+-+</text>
<text transform="matrix(1 0 0 1 96.4843 82.3387)" font-family="'TheSansMono-W3Light'" font-size="9.9632">|  Time to Live |    Protocol   |         Header Checksum       |</text>
<text transform="matrix(1 0 0 1 96.4843 96.5721)" font-family="'TheSansMono-W3Light'" font-size="9.9632">+-+-+-+-+-+-+-+-+-+-+-+-+-+-+-+-+-+-+-+-+-+-+-+-+-+-+-+-+-+-+-+-+</text>
<text transform="matrix(1 0 0 1 96.4843 110.8055)" font-family="'TheSansMono-W3Light'" font-size="9.9632">|                       Source Address                          |</text>
<text transform="matrix(1 0 0 1 96.4843 125.0389)" font-family="'TheSansMono-W3Light'" font-size="9.9632">+-+-+-+-+-+-+-+-+-+-+-+-+-+-+-+-+-+-+-+-+-+-+-+-+-+-+-+-+-+-+-+-+</text>
<text transform="matrix(1 0 0 1 96.4843 139.2713)" font-family="'TheSansMono-W3Light'" font-size="9.9632">|                    Destination Address                        |</text>
<text transform="matrix(1 0 0 1 96.4843 153.5057)" font-family="'TheSansMono-W3Light'" font-size="9.9632">+-+-+-+-+-+-+-+-+-+-+-+-+-+-+-+-+-+-+-+-+-+-+-+-+-+-+-+-+-+-+-+-+</text>
<text transform="matrix(1 0 0 1 96.4843 167.7381)" font-family="'TheSansMono-W3Light'" font-size="9.9632">|                    Options                    |    Padding    |</text>
<text transform="matrix(1 0 0 1 96.4843 181.9715)" font-family="'TheSansMono-W3Light'" font-size="9.9632">+-+-+-+-+-+-+-+-+-+-+-+-+-+-+-+-+-+-+-+-+-+-+-+-+-+-+-+-+-+-+-+-+</text>
<text transform="matrix(1 0 0 1 96.4843 196.2098)" font-family="'TheSansMono-W3Light'" font-size="9.9632">Internet Datagram Header (Source: RFC </text>
<text transform="matrix(1 0 0 1 323.646 196.2098)" font-family="'TheSansMono-W3Light'" font-size="9.9632">791</text>
<text transform="matrix(1 0 0 1 341.5805 196.2098)" font-family="'TheSansMono-W3Light'" font-size="9.9632">, Sept </text>
<text transform="matrix(1 0 0 1 383.4253 196.2098)" font-family="'TheSansMono-W3Light'" font-size="9.9632">19</text>
<text transform="matrix(1 0 0 1 395.3813 196.2098)" font-family="'TheSansMono-W3Light'" font-size="9.9632">8</text>
<text transform="matrix(1 0 0 1 401.3598 196.2098)" font-family="'TheSansMono-W3Light'" font-size="9.9632">1</text>
<text transform="matrix(1 0 0 1 407.3374 196.2098)" font-family="'TheSansMono-W3Light'" font-size="9.9632">)</text>
<text transform="matrix(1 0 0 1 96.4843 238.9115)" font-family="'TheSansMono-W3Light'" font-size="9.9632"> 0                   </text>
<text transform="matrix(1 0 0 1 222.0215 238.9115)" font-family="'TheSansMono-W3Light'" font-size="9.9632">1</text>
<text transform="matrix(1 0 0 1 227.9985 238.9115)" font-family="'TheSansMono-W3Light'" font-size="9.9632">                   2                   </text>
<text transform="matrix(1 0 0 1 461.1294 238.9115)" font-family="'TheSansMono-W3Light'" font-size="9.9632">3</text>
<text transform="matrix(1 0 0 1 467.1059 238.9115)" font-family="'TheSansMono-W3Light'" font-size="9.9632">   </text>
<text transform="matrix(1 0 0 1 96.4843 253.1488)" font-family="'TheSansMono-W3Light'" font-size="9.9632"> 0 </text>
<text transform="matrix(1 0 0 1 114.4174 253.1488)" font-family="'TheSansMono-W3Light'" font-size="9.9632">1</text>
<text transform="matrix(1 0 0 1 120.3955 253.1488)" font-family="'TheSansMono-W3Light'" font-size="9.9632"> 2 </text>
<text transform="matrix(1 0 0 1 138.33 253.1488)" font-family="'TheSansMono-W3Light'" font-size="9.9632">3</text>
<text transform="matrix(1 0 0 1 144.3076 253.1488)" font-family="'TheSansMono-W3Light'" font-size="9.9632"> </text>
<text transform="matrix(1 0 0 1 150.2856 253.1488)" font-family="'TheSansMono-W3Light'" font-size="9.9632">4</text>
<text transform="matrix(1 0 0 1 156.2636 253.1488)" font-family="'TheSansMono-W3Light'" font-size="9.9632"> </text>
<text transform="matrix(1 0 0 1 162.2412 253.1488)" font-family="'TheSansMono-W3Light'" font-size="9.9632">5</text>
<text transform="matrix(1 0 0 1 168.2192 253.1488)" font-family="'TheSansMono-W3Light'" font-size="9.9632"> </text>
<text transform="matrix(1 0 0 1 174.1977 253.1488)" font-family="'TheSansMono-W3Light'" font-size="9.9632">6</text>
<text transform="matrix(1 0 0 1 180.1748 253.1488)" font-family="'TheSansMono-W3Light'" font-size="9.9632"> </text>
<text transform="matrix(1 0 0 1 186.1538 253.1488)" font-family="'TheSansMono-W3Light'" font-size="9.9632">7</text>
<text transform="matrix(1 0 0 1 192.1313 253.1488)" font-family="'TheSansMono-W3Light'" font-size="9.9632"> 8 </text>
<text transform="matrix(1 0 0 1 210.0649 253.1488)" font-family="'TheSansMono-W3Light'" font-size="9.9632">9</text>
<text transform="matrix(1 0 0 1 216.0429 253.1488)" font-family="'TheSansMono-W3Light'" font-size="9.9632"> 0 </text>
<text transform="matrix(1 0 0 1 233.9775 253.1488)" font-family="'TheSansMono-W3Light'" font-size="9.9632">1</text>
<text transform="matrix(1 0 0 1 239.9541 253.1488)" font-family="'TheSansMono-W3Light'" font-size="9.9632"> 2 </text>
<text transform="matrix(1 0 0 1 257.8882 253.1488)" font-family="'TheSansMono-W3Light'" font-size="9.9632">3</text>
<text transform="matrix(1 0 0 1 263.8667 253.1488)" font-family="'TheSansMono-W3Light'" font-size="9.9632"> </text>
<text transform="matrix(1 0 0 1 269.8442 253.1488)" font-family="'TheSansMono-W3Light'" font-size="9.9632">4</text>
<text transform="matrix(1 0 0 1 275.8217 253.1488)" font-family="'TheSansMono-W3Light'" font-size="9.9632"> </text>
<text transform="matrix(1 0 0 1 281.8012 253.1488)" font-family="'TheSansMono-W3Light'" font-size="9.9632">5</text>
<text transform="matrix(1 0 0 1 287.7778 253.1488)" font-family="'TheSansMono-W3Light'" font-size="9.9632"> </text>
<text transform="matrix(1 0 0 1 293.7563 253.1488)" font-family="'TheSansMono-W3Light'" font-size="9.9632">6</text>
<text transform="matrix(1 0 0 1 299.7339 253.1488)" font-family="'TheSansMono-W3Light'" font-size="9.9632"> </text>
<text transform="matrix(1 0 0 1 305.7124 253.1488)" font-family="'TheSansMono-W3Light'" font-size="9.9632">7</text>
<text transform="matrix(1 0 0 1 311.6899 253.1488)" font-family="'TheSansMono-W3Light'" font-size="9.9632"> 8 </text>
<text transform="matrix(1 0 0 1 329.6235 253.1488)" font-family="'TheSansMono-W3Light'" font-size="9.9632">9</text>
<text transform="matrix(1 0 0 1 335.601 253.1488)" font-family="'TheSansMono-W3Light'" font-size="9.9632"> 0 </text>
<text transform="matrix(1 0 0 1 353.5356 253.1488)" font-family="'TheSansMono-W3Light'" font-size="9.9632">1</text>
<text transform="matrix(1 0 0 1 359.5141 253.1488)" font-family="'TheSansMono-W3Light'" font-size="9.9632"> 2 </text>
<text transform="matrix(1 0 0 1 377.4487 253.1488)" font-family="'TheSansMono-W3Light'" font-size="9.9632">3</text>
<text transform="matrix(1 0 0 1 383.4253 253.1488)" font-family="'TheSansMono-W3Light'" font-size="9.9632"> </text>
<text transform="matrix(1 0 0 1 389.4028 253.1488)" font-family="'TheSansMono-W3Light'" font-size="9.9632">4</text>
<text transform="matrix(1 0 0 1 395.3813 253.1488)" font-family="'TheSansMono-W3Light'" font-size="9.9632"> </text>
<text transform="matrix(1 0 0 1 401.3598 253.1488)" font-family="'TheSansMono-W3Light'" font-size="9.9632">5</text>
<text transform="matrix(1 0 0 1 407.3374 253.1488)" font-family="'TheSansMono-W3Light'" font-size="9.9632"> </text>
<text transform="matrix(1 0 0 1 413.3139 253.1488)" font-family="'TheSansMono-W3Light'" font-size="9.9632">6</text>
<text transform="matrix(1 0 0 1 419.2934 253.1488)" font-family="'TheSansMono-W3Light'" font-size="9.9632"> </text>
<text transform="matrix(1 0 0 1 425.271 253.1488)" font-family="'TheSansMono-W3Light'" font-size="9.9632">7</text>
<text transform="matrix(1 0 0 1 431.2495 253.1488)" font-family="'TheSansMono-W3Light'" font-size="9.9632"> 8 </text>
<text transform="matrix(1 0 0 1 449.1821 253.1488)" font-family="'TheSansMono-W3Light'" font-size="9.9632">9</text>
<text transform="matrix(1 0 0 1 455.1606 253.1488)" font-family="'TheSansMono-W3Light'" font-size="9.9632"> 0 </text>
<text transform="matrix(1 0 0 1 473.0844 253.1488)" font-family="'TheSansMono-W3Light'" font-size="9.9632">1</text>
<text transform="matrix(1 0 0 1 479.062 253.1488)" font-family="'TheSansMono-W3Light'" font-size="9.9632"> </text>
<text transform="matrix(1 0 0 1 96.4843 267.3705)" font-family="'TheSansMono-W3Light'" font-size="9.9632">+-+-+-+-+-+-+-+-+-+-+-+-+-+-+-+-+-+-+-+-+-+-+-+-+-+-+-+-+-+-+-+-+</text>
<text transform="matrix(1 0 0 1 96.4843 281.6029)" font-family="'TheSansMono-W3Light'" font-size="9.9632">|          Source Port          |       Destination Port        |</text>
<text transform="matrix(1 0 0 1 96.4843 295.8372)" font-family="'TheSansMono-W3Light'" font-size="9.9632">+-+-+-+-+-+-+-+-+-+-+-+-+-+-+-+-+-+-+-+-+-+-+-+-+-+-+-+-+-+-+-+-+</text>
<text transform="matrix(1 0 0 1 96.4843 310.0697)" font-family="'TheSansMono-W3Light'" font-size="9.9632">|                        Sequence Number                        |</text>
<text transform="matrix(1 0 0 1 96.4843 324.3031)" font-family="'TheSansMono-W3Light'" font-size="9.9632">+-+-+-+-+-+-+-+-+-+-+-+-+-+-+-+-+-+-+-+-+-+-+-+-+-+-+-+-+-+-+-+-+</text>
<text transform="matrix(1 0 0 1 96.4843 338.5355)" font-family="'TheSansMono-W3Light'" font-size="9.9632">|                    Acknowledgment Number                      |</text>
<text transform="matrix(1 0 0 1 96.4843 352.7699)" font-family="'TheSansMono-W3Light'" font-size="9.9632">+-+-+-+-+-+-+-+-+-+-+-+-+-+-+-+-+-+-+-+-+-+-+-+-+-+-+-+-+-+-+-+-+</text>
<text transform="matrix(1 0 0 1 96.4843 367.0023)" font-family="'TheSansMono-W3Light'" font-size="9.9632">|  Data |           |U|A|P|R|S|F|                               |</text>
<text transform="matrix(1 0 0 1 96.4843 381.2357)" font-family="'TheSansMono-W3Light'" font-size="9.9632">| Offset| Reserved  |R|C|S|S|Y|I|            Window             |</text>
<text transform="matrix(1 0 0 1 96.4843 395.4691)" font-family="'TheSansMono-W3Light'" font-size="9.9632">|       |           |G|K|H|T|N|N|                               |</text>
<text transform="matrix(1 0 0 1 96.4843 409.7025)" font-family="'TheSansMono-W3Light'" font-size="9.9632">+-+-+-+-+-+-+-+-+-+-+-+-+-+-+-+-+-+-+-+-+-+-+-+-+-+-+-+-+-+-+-+-+</text>
<text transform="matrix(1 0 0 1 96.4843 423.9349)" font-family="'TheSansMono-W3Light'" font-size="9.9632">|           Checksum            |         Urgent Pointer        |</text>
<text transform="matrix(1 0 0 1 96.4843 438.1693)" font-family="'TheSansMono-W3Light'" font-size="9.9632">+-+-+-+-+-+-+-+-+-+-+-+-+-+-+-+-+-+-+-+-+-+-+-+-+-+-+-+-+-+-+-+-+</text>
<text transform="matrix(1 0 0 1 96.4843 452.4017)" font-family="'TheSansMono-W3Light'" font-size="9.9632">|                    Options                    |    Padding    |</text>
<text transform="matrix(1 0 0 1 96.4843 466.6351)" font-family="'TheSansMono-W3Light'" font-size="9.9632">+-+-+-+-+-+-+-+-+-+-+-+-+-+-+-+-+-+-+-+-+-+-+-+-+-+-+-+-+-+-+-+-+</text>
<text transform="matrix(1 0 0 1 96.4843 480.8685)" font-family="'TheSansMono-W3Light'" font-size="9.9632">|                             data                              |</text>
<text transform="matrix(1 0 0 1 96.4843 495.1019)" font-family="'TheSansMono-W3Light'" font-size="9.9632">+-+-+-+-+-+-+-+-+-+-+-+-+-+-+-+-+-+-+-+-+-+-+-+-+-+-+-+-+-+-+-+-+</text>
<text transform="matrix(1 0 0 1 96.4843 509.3392)" font-family="'TheSansMono-W3Light'" font-size="9.9632">TCP Header (Source: RFC </text>
<text transform="matrix(1 0 0 1 239.9541 509.3392)" font-family="'TheSansMono-W3Light'" font-size="9.9632">793</text>
<text transform="matrix(1 0 0 1 257.8882 509.3392)" font-family="'TheSansMono-W3Light'" font-size="9.9632">, Sept </text>
<text transform="matrix(1 0 0 1 299.7339 509.3392)" font-family="'TheSansMono-W3Light'" font-size="9.9632">19</text>
<text transform="matrix(1 0 0 1 311.6899 509.3392)" font-family="'TheSansMono-W3Light'" font-size="9.9632">8</text>
<text transform="matrix(1 0 0 1 317.6674 509.3392)" font-family="'TheSansMono-W3Light'" font-size="9.9632">1</text>
<text transform="matrix(1 0 0 1 323.646 509.3392)" font-family="'TheSansMono-W3Light'" font-size="9.9632">)</text>
</svg>
