<?xml version="1.0" encoding="utf-8"?>
<!-- Generator: Adobe Illustrator 18.0.0, SVG Export Plug-In . SVG Version: 6.00 Build 0)  -->
<!DOCTYPE svg PUBLIC "-//W3C//DTD SVG 1.1//EN" "http://www.w3.org/Graphics/SVG/1.1/DTD/svg11.dtd">
<svg version="1.1" id="Layer_1" xmlns="http://www.w3.org/2000/svg" xmlns:xlink="http://www.w3.org/1999/xlink" x="0px" y="0px"
	 viewBox="0 0 635.9 551.3" enable-background="new 0 0 635.9 551.3" xml:space="preserve">
<text transform="matrix(1 0 0 1 9.2401 13.6045)" font-family="'TheSansMono-W3Light'" font-size="9.9632"> 0                   </text>
<text transform="matrix(1 0 0 1 134.7772 13.6045)" font-family="'TheSansMono-W3Light'" font-size="9.9632">1</text>
<text transform="matrix(1 0 0 1 140.7542 13.6045)" font-family="'TheSansMono-W3Light'" font-size="9.9632">                   2                   </text>
<text transform="matrix(1 0 0 1 373.8851 13.6045)" font-family="'TheSansMono-W3Light'" font-size="9.9632">3</text>
<text transform="matrix(1 0 0 1 379.8617 13.6045)" font-family="'TheSansMono-W3Light'" font-size="9.9632">   </text>
<text transform="matrix(1 0 0 1 9.2401 27.8418)" font-family="'TheSansMono-W3Light'" font-size="9.9632"> 0 </text>
<text transform="matrix(1 0 0 1 27.1732 27.8418)" font-family="'TheSansMono-W3Light'" font-size="9.9632">1</text>
<text transform="matrix(1 0 0 1 33.1512 27.8418)" font-family="'TheSansMono-W3Light'" font-size="9.9632"> 2 </text>
<text transform="matrix(1 0 0 1 51.0858 27.8418)" font-family="'TheSansMono-W3Light'" font-size="9.9632">3</text>
<text transform="matrix(1 0 0 1 57.0633 27.8418)" font-family="'TheSansMono-W3Light'" font-size="9.9632"> </text>
<text transform="matrix(1 0 0 1 63.0414 27.8418)" font-family="'TheSansMono-W3Light'" font-size="9.9632">4</text>
<text transform="matrix(1 0 0 1 69.0194 27.8418)" font-family="'TheSansMono-W3Light'" font-size="9.9632"> </text>
<text transform="matrix(1 0 0 1 74.9969 27.8418)" font-family="'TheSansMono-W3Light'" font-size="9.9632">5</text>
<text transform="matrix(1 0 0 1 80.975 27.8418)" font-family="'TheSansMono-W3Light'" font-size="9.9632"> </text>
<text transform="matrix(1 0 0 1 86.9535 27.8418)" font-family="'TheSansMono-W3Light'" font-size="9.9632">6</text>
<text transform="matrix(1 0 0 1 92.9305 27.8418)" font-family="'TheSansMono-W3Light'" font-size="9.9632"> </text>
<text transform="matrix(1 0 0 1 98.9095 27.8418)" font-family="'TheSansMono-W3Light'" font-size="9.9632">7</text>
<text transform="matrix(1 0 0 1 104.8871 27.8418)" font-family="'TheSansMono-W3Light'" font-size="9.9632"> 8 </text>
<text transform="matrix(1 0 0 1 122.8207 27.8418)" font-family="'TheSansMono-W3Light'" font-size="9.9632">9</text>
<text transform="matrix(1 0 0 1 128.7987 27.8418)" font-family="'TheSansMono-W3Light'" font-size="9.9632"> 0 </text>
<text transform="matrix(1 0 0 1 146.7332 27.8418)" font-family="'TheSansMono-W3Light'" font-size="9.9632">1</text>
<text transform="matrix(1 0 0 1 152.7098 27.8418)" font-family="'TheSansMono-W3Light'" font-size="9.9632"> 2 </text>
<text transform="matrix(1 0 0 1 170.6439 27.8418)" font-family="'TheSansMono-W3Light'" font-size="9.9632">3</text>
<text transform="matrix(1 0 0 1 176.6224 27.8418)" font-family="'TheSansMono-W3Light'" font-size="9.9632"> </text>
<text transform="matrix(1 0 0 1 182.5999 27.8418)" font-family="'TheSansMono-W3Light'" font-size="9.9632">4</text>
<text transform="matrix(1 0 0 1 188.5775 27.8418)" font-family="'TheSansMono-W3Light'" font-size="9.9632"> </text>
<text transform="matrix(1 0 0 1 194.557 27.8418)" font-family="'TheSansMono-W3Light'" font-size="9.9632">5</text>
<text transform="matrix(1 0 0 1 200.5335 27.8418)" font-family="'TheSansMono-W3Light'" font-size="9.9632"> </text>
<text transform="matrix(1 0 0 1 206.5121 27.8418)" font-family="'TheSansMono-W3Light'" font-size="9.9632">6</text>
<text transform="matrix(1 0 0 1 212.4896 27.8418)" font-family="'TheSansMono-W3Light'" font-size="9.9632"> </text>
<text transform="matrix(1 0 0 1 218.4681 27.8418)" font-family="'TheSansMono-W3Light'" font-size="9.9632">7</text>
<text transform="matrix(1 0 0 1 224.4456 27.8418)" font-family="'TheSansMono-W3Light'" font-size="9.9632"> 8 </text>
<text transform="matrix(1 0 0 1 242.3792 27.8418)" font-family="'TheSansMono-W3Light'" font-size="9.9632">9</text>
<text transform="matrix(1 0 0 1 248.3568 27.8418)" font-family="'TheSansMono-W3Light'" font-size="9.9632"> 0 </text>
<text transform="matrix(1 0 0 1 266.2914 27.8418)" font-family="'TheSansMono-W3Light'" font-size="9.9632">1</text>
<text transform="matrix(1 0 0 1 272.2699 27.8418)" font-family="'TheSansMono-W3Light'" font-size="9.9632"> 2 </text>
<text transform="matrix(1 0 0 1 290.2044 27.8418)" font-family="'TheSansMono-W3Light'" font-size="9.9632">3</text>
<text transform="matrix(1 0 0 1 296.181 27.8418)" font-family="'TheSansMono-W3Light'" font-size="9.9632"> </text>
<text transform="matrix(1 0 0 1 302.1585 27.8418)" font-family="'TheSansMono-W3Light'" font-size="9.9632">4</text>
<text transform="matrix(1 0 0 1 308.1371 27.8418)" font-family="'TheSansMono-W3Light'" font-size="9.9632"> </text>
<text transform="matrix(1 0 0 1 314.1156 27.8418)" font-family="'TheSansMono-W3Light'" font-size="9.9632">5</text>
<text transform="matrix(1 0 0 1 320.0931 27.8418)" font-family="'TheSansMono-W3Light'" font-size="9.9632"> </text>
<text transform="matrix(1 0 0 1 326.0697 27.8418)" font-family="'TheSansMono-W3Light'" font-size="9.9632">6</text>
<text transform="matrix(1 0 0 1 332.0492 27.8418)" font-family="'TheSansMono-W3Light'" font-size="9.9632"> </text>
<text transform="matrix(1 0 0 1 338.0267 27.8418)" font-family="'TheSansMono-W3Light'" font-size="9.9632">7</text>
<text transform="matrix(1 0 0 1 344.0052 27.8418)" font-family="'TheSansMono-W3Light'" font-size="9.9632"> 8 </text>
<text transform="matrix(1 0 0 1 361.9378 27.8418)" font-family="'TheSansMono-W3Light'" font-size="9.9632">9</text>
<text transform="matrix(1 0 0 1 367.9164 27.8418)" font-family="'TheSansMono-W3Light'" font-size="9.9632"> 0 </text>
<text transform="matrix(1 0 0 1 385.8402 27.8418)" font-family="'TheSansMono-W3Light'" font-size="9.9632">1</text>
<text transform="matrix(1 0 0 1 391.8177 27.8418)" font-family="'TheSansMono-W3Light'" font-size="9.9632"> </text>
<text transform="matrix(1 0 0 1 9.2401 42.0713)" font-family="'TheSansMono-W3Light'" font-size="9.9632">+-+-+-+-+-+-+-+-+-+-+-+-+-+-+-+-+-+-+-+-+-+-+-+-+-+-+-+-+-+-+-+-+</text>
<text transform="matrix(1 0 0 1 9.2401 56.3037)" font-family="'TheSansMono-W3Light'" font-size="9.9632">|Version|  IHL  |Type of Service|          Total Length         |</text>
<text transform="matrix(1 0 0 1 9.2401 70.5371)" font-family="'TheSansMono-W3Light'" font-size="9.9632">+-+-+-+-+-+-+-+-+-+-+-+-+-+-+-+-+-+-+-+-+-+-+-+-+-+-+-+-+-+-+-+-+</text>
<text transform="matrix(1 0 0 1 9.2401 84.7705)" font-family="'TheSansMono-W3Light'" font-size="9.9632">|         Identification        |Flags|      Fragment Offset    |</text>
<text transform="matrix(1 0 0 1 9.2401 99.0039)" font-family="'TheSansMono-W3Light'" font-size="9.9632">+-+-+-+-+-+-+-+-+-+-+-+-+-+-+-+-+-+-+-+-+-+-+-+-+-+-+-+-+-+-+-+-+</text>
<text transform="matrix(1 0 0 1 9.2401 113.2363)" font-family="'TheSansMono-W3Light'" font-size="9.9632">|  Time to Live |    Protocol   |         Header Checksum       |</text>
<text transform="matrix(1 0 0 1 9.2401 127.4697)" font-family="'TheSansMono-W3Light'" font-size="9.9632">+-+-+-+-+-+-+-+-+-+-+-+-+-+-+-+-+-+-+-+-+-+-+-+-+-+-+-+-+-+-+-+-+</text>
<text transform="matrix(1 0 0 1 9.2401 141.7031)" font-family="'TheSansMono-W3Light'" font-size="9.9632">|                       Source Address                          |</text>
<text transform="matrix(1 0 0 1 9.2401 155.9365)" font-family="'TheSansMono-W3Light'" font-size="9.9632">+-+-+-+-+-+-+-+-+-+-+-+-+-+-+-+-+-+-+-+-+-+-+-+-+-+-+-+-+-+-+-+-+</text>
<text transform="matrix(1 0 0 1 9.2401 170.1689)" font-family="'TheSansMono-W3Light'" font-size="9.9632">|                    Destination Address                        |</text>
<text transform="matrix(1 0 0 1 9.2401 184.4033)" font-family="'TheSansMono-W3Light'" font-size="9.9632">+-+-+-+-+-+-+-+-+-+-+-+-+-+-+-+-+-+-+-+-+-+-+-+-+-+-+-+-+-+-+-+-+</text>
<text transform="matrix(1 0 0 1 9.2401 198.6357)" font-family="'TheSansMono-W3Light'" font-size="9.9632">|                    Options                    |    Padding    |</text>
<text transform="matrix(1 0 0 1 9.2401 212.8691)" font-family="'TheSansMono-W3Light'" font-size="9.9632">+-+-+-+-+-+-+-+-+-+-+-+-+-+-+-+-+-+-+-+-+-+-+-+-+-+-+-+-+-+-+-+-+</text>
<text transform="matrix(1 0 0 1 9.2401 227.1074)" font-family="'TheSansMono-W3Light'" font-size="9.9632">Internet Datagram Header (Source: RFC </text>
<text transform="matrix(1 0 0 1 236.4017 227.1074)" font-family="'TheSansMono-W3Light'" font-size="9.9632">791</text>
<text transform="matrix(1 0 0 1 254.3363 227.1074)" font-family="'TheSansMono-W3Light'" font-size="9.9632">, Sept </text>
<text transform="matrix(1 0 0 1 296.181 227.1074)" font-family="'TheSansMono-W3Light'" font-size="9.9632">19</text>
<text transform="matrix(1 0 0 1 308.1371 227.1074)" font-family="'TheSansMono-W3Light'" font-size="9.9632">8</text>
<text transform="matrix(1 0 0 1 314.1156 227.1074)" font-family="'TheSansMono-W3Light'" font-size="9.9632">1</text>
<text transform="matrix(1 0 0 1 320.0931 227.1074)" font-family="'TheSansMono-W3Light'" font-size="9.9632">)</text>
<text transform="matrix(1 0 0 1 9.2401 269.8091)" font-family="'TheSansMono-W3Light'" font-size="9.9632"> 0                   </text>
<text transform="matrix(1 0 0 1 134.7772 269.8091)" font-family="'TheSansMono-W3Light'" font-size="9.9632">1</text>
<text transform="matrix(1 0 0 1 140.7542 269.8091)" font-family="'TheSansMono-W3Light'" font-size="9.9632">                   2                   </text>
<text transform="matrix(1 0 0 1 373.8851 269.8091)" font-family="'TheSansMono-W3Light'" font-size="9.9632">3</text>
<text transform="matrix(1 0 0 1 379.8617 269.8091)" font-family="'TheSansMono-W3Light'" font-size="9.9632">   </text>
<text transform="matrix(1 0 0 1 9.2401 284.0464)" font-family="'TheSansMono-W3Light'" font-size="9.9632"> 0 </text>
<text transform="matrix(1 0 0 1 27.1732 284.0464)" font-family="'TheSansMono-W3Light'" font-size="9.9632">1</text>
<text transform="matrix(1 0 0 1 33.1512 284.0464)" font-family="'TheSansMono-W3Light'" font-size="9.9632"> 2 </text>
<text transform="matrix(1 0 0 1 51.0858 284.0464)" font-family="'TheSansMono-W3Light'" font-size="9.9632">3</text>
<text transform="matrix(1 0 0 1 57.0633 284.0464)" font-family="'TheSansMono-W3Light'" font-size="9.9632"> </text>
<text transform="matrix(1 0 0 1 63.0414 284.0464)" font-family="'TheSansMono-W3Light'" font-size="9.9632">4</text>
<text transform="matrix(1 0 0 1 69.0194 284.0464)" font-family="'TheSansMono-W3Light'" font-size="9.9632"> </text>
<text transform="matrix(1 0 0 1 74.9969 284.0464)" font-family="'TheSansMono-W3Light'" font-size="9.9632">5</text>
<text transform="matrix(1 0 0 1 80.975 284.0464)" font-family="'TheSansMono-W3Light'" font-size="9.9632"> </text>
<text transform="matrix(1 0 0 1 86.9535 284.0464)" font-family="'TheSansMono-W3Light'" font-size="9.9632">6</text>
<text transform="matrix(1 0 0 1 92.9305 284.0464)" font-family="'TheSansMono-W3Light'" font-size="9.9632"> </text>
<text transform="matrix(1 0 0 1 98.9095 284.0464)" font-family="'TheSansMono-W3Light'" font-size="9.9632">7</text>
<text transform="matrix(1 0 0 1 104.8871 284.0464)" font-family="'TheSansMono-W3Light'" font-size="9.9632"> 8 </text>
<text transform="matrix(1 0 0 1 122.8207 284.0464)" font-family="'TheSansMono-W3Light'" font-size="9.9632">9</text>
<text transform="matrix(1 0 0 1 128.7987 284.0464)" font-family="'TheSansMono-W3Light'" font-size="9.9632"> 0 </text>
<text transform="matrix(1 0 0 1 146.7332 284.0464)" font-family="'TheSansMono-W3Light'" font-size="9.9632">1</text>
<text transform="matrix(1 0 0 1 152.7098 284.0464)" font-family="'TheSansMono-W3Light'" font-size="9.9632"> 2 </text>
<text transform="matrix(1 0 0 1 170.6439 284.0464)" font-family="'TheSansMono-W3Light'" font-size="9.9632">3</text>
<text transform="matrix(1 0 0 1 176.6224 284.0464)" font-family="'TheSansMono-W3Light'" font-size="9.9632"> </text>
<text transform="matrix(1 0 0 1 182.5999 284.0464)" font-family="'TheSansMono-W3Light'" font-size="9.9632">4</text>
<text transform="matrix(1 0 0 1 188.5775 284.0464)" font-family="'TheSansMono-W3Light'" font-size="9.9632"> </text>
<text transform="matrix(1 0 0 1 194.557 284.0464)" font-family="'TheSansMono-W3Light'" font-size="9.9632">5</text>
<text transform="matrix(1 0 0 1 200.5335 284.0464)" font-family="'TheSansMono-W3Light'" font-size="9.9632"> </text>
<text transform="matrix(1 0 0 1 206.5121 284.0464)" font-family="'TheSansMono-W3Light'" font-size="9.9632">6</text>
<text transform="matrix(1 0 0 1 212.4896 284.0464)" font-family="'TheSansMono-W3Light'" font-size="9.9632"> </text>
<text transform="matrix(1 0 0 1 218.4681 284.0464)" font-family="'TheSansMono-W3Light'" font-size="9.9632">7</text>
<text transform="matrix(1 0 0 1 224.4456 284.0464)" font-family="'TheSansMono-W3Light'" font-size="9.9632"> 8 </text>
<text transform="matrix(1 0 0 1 242.3792 284.0464)" font-family="'TheSansMono-W3Light'" font-size="9.9632">9</text>
<text transform="matrix(1 0 0 1 248.3568 284.0464)" font-family="'TheSansMono-W3Light'" font-size="9.9632"> 0 </text>
<text transform="matrix(1 0 0 1 266.2914 284.0464)" font-family="'TheSansMono-W3Light'" font-size="9.9632">1</text>
<text transform="matrix(1 0 0 1 272.2699 284.0464)" font-family="'TheSansMono-W3Light'" font-size="9.9632"> 2 </text>
<text transform="matrix(1 0 0 1 290.2044 284.0464)" font-family="'TheSansMono-W3Light'" font-size="9.9632">3</text>
<text transform="matrix(1 0 0 1 296.181 284.0464)" font-family="'TheSansMono-W3Light'" font-size="9.9632"> </text>
<text transform="matrix(1 0 0 1 302.1585 284.0464)" font-family="'TheSansMono-W3Light'" font-size="9.9632">4</text>
<text transform="matrix(1 0 0 1 308.1371 284.0464)" font-family="'TheSansMono-W3Light'" font-size="9.9632"> </text>
<text transform="matrix(1 0 0 1 314.1156 284.0464)" font-family="'TheSansMono-W3Light'" font-size="9.9632">5</text>
<text transform="matrix(1 0 0 1 320.0931 284.0464)" font-family="'TheSansMono-W3Light'" font-size="9.9632"> </text>
<text transform="matrix(1 0 0 1 326.0697 284.0464)" font-family="'TheSansMono-W3Light'" font-size="9.9632">6</text>
<text transform="matrix(1 0 0 1 332.0492 284.0464)" font-family="'TheSansMono-W3Light'" font-size="9.9632"> </text>
<text transform="matrix(1 0 0 1 338.0267 284.0464)" font-family="'TheSansMono-W3Light'" font-size="9.9632">7</text>
<text transform="matrix(1 0 0 1 344.0052 284.0464)" font-family="'TheSansMono-W3Light'" font-size="9.9632"> 8 </text>
<text transform="matrix(1 0 0 1 361.9378 284.0464)" font-family="'TheSansMono-W3Light'" font-size="9.9632">9</text>
<text transform="matrix(1 0 0 1 367.9164 284.0464)" font-family="'TheSansMono-W3Light'" font-size="9.9632"> 0 </text>
<text transform="matrix(1 0 0 1 385.8402 284.0464)" font-family="'TheSansMono-W3Light'" font-size="9.9632">1</text>
<text transform="matrix(1 0 0 1 391.8177 284.0464)" font-family="'TheSansMono-W3Light'" font-size="9.9632"> </text>
<text transform="matrix(1 0 0 1 9.2401 298.2681)" font-family="'TheSansMono-W3Light'" font-size="9.9632">+-+-+-+-+-+-+-+-+-+-+-+-+-+-+-+-+-+-+-+-+-+-+-+-+-+-+-+-+-+-+-+-+</text>
<text transform="matrix(1 0 0 1 9.2401 312.5005)" font-family="'TheSansMono-W3Light'" font-size="9.9632">|          Source Port          |       Destination Port        |</text>
<text transform="matrix(1 0 0 1 9.2401 326.7349)" font-family="'TheSansMono-W3Light'" font-size="9.9632">+-+-+-+-+-+-+-+-+-+-+-+-+-+-+-+-+-+-+-+-+-+-+-+-+-+-+-+-+-+-+-+-+</text>
<text transform="matrix(1 0 0 1 9.2401 340.9673)" font-family="'TheSansMono-W3Light'" font-size="9.9632">|                        Sequence Number                        |</text>
<text transform="matrix(1 0 0 1 9.2401 355.2007)" font-family="'TheSansMono-W3Light'" font-size="9.9632">+-+-+-+-+-+-+-+-+-+-+-+-+-+-+-+-+-+-+-+-+-+-+-+-+-+-+-+-+-+-+-+-+</text>
<text transform="matrix(1 0 0 1 9.2401 369.4331)" font-family="'TheSansMono-W3Light'" font-size="9.9632">|                    Acknowledgment Number                      |</text>
<text transform="matrix(1 0 0 1 9.2401 383.6675)" font-family="'TheSansMono-W3Light'" font-size="9.9632">+-+-+-+-+-+-+-+-+-+-+-+-+-+-+-+-+-+-+-+-+-+-+-+-+-+-+-+-+-+-+-+-+</text>
<text transform="matrix(1 0 0 1 9.2401 397.8999)" font-family="'TheSansMono-W3Light'" font-size="9.9632">|  Data |           |U|A|P|R|S|F|                               |</text>
<text transform="matrix(1 0 0 1 9.2401 412.1333)" font-family="'TheSansMono-W3Light'" font-size="9.9632">| Offset| Reserved  |R|C|S|S|Y|I|            Window             |</text>
<text transform="matrix(1 0 0 1 9.2401 426.3667)" font-family="'TheSansMono-W3Light'" font-size="9.9632">|       |           |G|K|H|T|N|N|                               |</text>
<text transform="matrix(1 0 0 1 9.2401 440.6001)" font-family="'TheSansMono-W3Light'" font-size="9.9632">+-+-+-+-+-+-+-+-+-+-+-+-+-+-+-+-+-+-+-+-+-+-+-+-+-+-+-+-+-+-+-+-+</text>
<text transform="matrix(1 0 0 1 9.2401 454.8325)" font-family="'TheSansMono-W3Light'" font-size="9.9632">|           Checksum            |         Urgent Pointer        |</text>
<text transform="matrix(1 0 0 1 9.2401 469.0669)" font-family="'TheSansMono-W3Light'" font-size="9.9632">+-+-+-+-+-+-+-+-+-+-+-+-+-+-+-+-+-+-+-+-+-+-+-+-+-+-+-+-+-+-+-+-+</text>
<text transform="matrix(1 0 0 1 9.2401 483.2993)" font-family="'TheSansMono-W3Light'" font-size="9.9632">|                    Options                    |    Padding    |</text>
<text transform="matrix(1 0 0 1 9.2401 497.5327)" font-family="'TheSansMono-W3Light'" font-size="9.9632">+-+-+-+-+-+-+-+-+-+-+-+-+-+-+-+-+-+-+-+-+-+-+-+-+-+-+-+-+-+-+-+-+</text>
<text transform="matrix(1 0 0 1 9.2401 511.7661)" font-family="'TheSansMono-W3Light'" font-size="9.9632">|                             data                              |</text>
<text transform="matrix(1 0 0 1 9.2401 525.9995)" font-family="'TheSansMono-W3Light'" font-size="9.9632">+-+-+-+-+-+-+-+-+-+-+-+-+-+-+-+-+-+-+-+-+-+-+-+-+-+-+-+-+-+-+-+-+</text>
<text transform="matrix(1 0 0 1 9.2401 540.2368)" font-family="'TheSansMono-W3Light'" font-size="9.9632">TCP Header (Source: RFC </text>
<text transform="matrix(1 0 0 1 152.7098 540.2368)" font-family="'TheSansMono-W3Light'" font-size="9.9632">793</text>
<text transform="matrix(1 0 0 1 170.6439 540.2368)" font-family="'TheSansMono-W3Light'" font-size="9.9632">, Sept </text>
<text transform="matrix(1 0 0 1 212.4896 540.2368)" font-family="'TheSansMono-W3Light'" font-size="9.9632">19</text>
<text transform="matrix(1 0 0 1 224.4456 540.2368)" font-family="'TheSansMono-W3Light'" font-size="9.9632">8</text>
<text transform="matrix(1 0 0 1 230.4232 540.2368)" font-family="'TheSansMono-W3Light'" font-size="9.9632">1</text>
<text transform="matrix(1 0 0 1 236.4017 540.2368)" font-family="'TheSansMono-W3Light'" font-size="9.9632">)</text>
</svg>
