<?xml version="1.0" encoding="utf-8"?>
<!-- Generator: Adobe Illustrator 18.0.0, SVG Export Plug-In . SVG Version: 6.00 Build 0)  -->
<!DOCTYPE svg PUBLIC "-//W3C//DTD SVG 1.1//EN" "http://www.w3.org/Graphics/SVG/1.1/DTD/svg11.dtd">
<svg version="1.1" id="Layer_1" xmlns="http://www.w3.org/2000/svg" xmlns:xlink="http://www.w3.org/1999/xlink" x="0px" y="0px"
	 viewBox="0 0 687 600" enable-background="new 0 0 687 600" xml:space="preserve">
<text transform="matrix(1 0 0 1 119.2608 12.5444)" font-family="'TheSansMono-W3Light'" font-size="10.9633"> 0                   </text>
<text transform="matrix(1 0 0 1 257.3994 12.5444)" font-family="'TheSansMono-W3Light'" font-size="10.9633">1</text>
<text transform="matrix(1 0 0 1 263.9756 12.5444)" font-family="'TheSansMono-W3Light'" font-size="10.9633">                   2                   </text>
<text transform="matrix(1 0 0 1 520.5089 12.5444)" font-family="'TheSansMono-W3Light'" font-size="10.9633">3</text>
<text transform="matrix(1 0 0 1 527.085 12.5444)" font-family="'TheSansMono-W3Light'" font-size="10.9633">   </text>
<text transform="matrix(1 0 0 1 119.2608 28.2114)" font-family="'TheSansMono-W3Light'" font-size="10.9633"> 0 </text>
<text transform="matrix(1 0 0 1 138.9942 28.2114)" font-family="'TheSansMono-W3Light'" font-size="10.9633">1</text>
<text transform="matrix(1 0 0 1 145.5723 28.2114)" font-family="'TheSansMono-W3Light'" font-size="10.9633"> 2 </text>
<text transform="matrix(1 0 0 1 165.3076 28.2114)" font-family="'TheSansMono-W3Light'" font-size="10.9633">3</text>
<text transform="matrix(1 0 0 1 171.8838 28.2114)" font-family="'TheSansMono-W3Light'" font-size="10.9633"> </text>
<text transform="matrix(1 0 0 1 178.4619 28.2114)" font-family="'TheSansMono-W3Light'" font-size="10.9633">4</text>
<text transform="matrix(1 0 0 1 185.0401 28.2114)" font-family="'TheSansMono-W3Light'" font-size="10.9633"> </text>
<text transform="matrix(1 0 0 1 191.6182 28.2114)" font-family="'TheSansMono-W3Light'" font-size="10.9633">5</text>
<text transform="matrix(1 0 0 1 198.1963 28.2114)" font-family="'TheSansMono-W3Light'" font-size="10.9633"> </text>
<text transform="matrix(1 0 0 1 204.7754 28.2114)" font-family="'TheSansMono-W3Light'" font-size="10.9633">6</text>
<text transform="matrix(1 0 0 1 211.3526 28.2114)" font-family="'TheSansMono-W3Light'" font-size="10.9633"> </text>
<text transform="matrix(1 0 0 1 217.9307 28.2114)" font-family="'TheSansMono-W3Light'" font-size="10.9633">7</text>
<text transform="matrix(1 0 0 1 224.5078 28.2114)" font-family="'TheSansMono-W3Light'" font-size="10.9633"> 8 </text>
<text transform="matrix(1 0 0 1 244.2422 28.2114)" font-family="'TheSansMono-W3Light'" font-size="10.9633">9</text>
<text transform="matrix(1 0 0 1 250.8203 28.2114)" font-family="'TheSansMono-W3Light'" font-size="10.9633"> 0 </text>
<text transform="matrix(1 0 0 1 270.5547 28.2114)" font-family="'TheSansMono-W3Light'" font-size="10.9633">1</text>
<text transform="matrix(1 0 0 1 277.1319 28.2114)" font-family="'TheSansMono-W3Light'" font-size="10.9633"> 2 </text>
<text transform="matrix(1 0 0 1 296.8662 28.2114)" font-family="'TheSansMono-W3Light'" font-size="10.9633">3</text>
<text transform="matrix(1 0 0 1 303.4444 28.2114)" font-family="'TheSansMono-W3Light'" font-size="10.9633"> </text>
<text transform="matrix(1 0 0 1 310.0215 28.2114)" font-family="'TheSansMono-W3Light'" font-size="10.9633">4</text>
<text transform="matrix(1 0 0 1 316.5996 28.2114)" font-family="'TheSansMono-W3Light'" font-size="10.9633"> </text>
<text transform="matrix(1 0 0 1 323.1797 28.2114)" font-family="'TheSansMono-W3Light'" font-size="10.9633">5</text>
<text transform="matrix(1 0 0 1 329.7559 28.2114)" font-family="'TheSansMono-W3Light'" font-size="10.9633"> </text>
<text transform="matrix(1 0 0 1 336.335 28.2114)" font-family="'TheSansMono-W3Light'" font-size="10.9633">6</text>
<text transform="matrix(1 0 0 1 342.9112 28.2114)" font-family="'TheSansMono-W3Light'" font-size="10.9633"> </text>
<text transform="matrix(1 0 0 1 349.4912 28.2114)" font-family="'TheSansMono-W3Light'" font-size="10.9633">7</text>
<text transform="matrix(1 0 0 1 356.0694 28.2114)" font-family="'TheSansMono-W3Light'" font-size="10.9633"> 8 </text>
<text transform="matrix(1 0 0 1 375.8018 28.2114)" font-family="'TheSansMono-W3Light'" font-size="10.9633">9</text>
<text transform="matrix(1 0 0 1 382.3799 28.2114)" font-family="'TheSansMono-W3Light'" font-size="10.9633"> 0 </text>
<text transform="matrix(1 0 0 1 402.1153 28.2114)" font-family="'TheSansMono-W3Light'" font-size="10.9633">1</text>
<text transform="matrix(1 0 0 1 408.6944 28.2114)" font-family="'TheSansMono-W3Light'" font-size="10.9633"> 2 </text>
<text transform="matrix(1 0 0 1 428.4278 28.2114)" font-family="'TheSansMono-W3Light'" font-size="10.9633">3</text>
<text transform="matrix(1 0 0 1 435.0049 28.2114)" font-family="'TheSansMono-W3Light'" font-size="10.9633"> </text>
<text transform="matrix(1 0 0 1 441.5821 28.2114)" font-family="'TheSansMono-W3Light'" font-size="10.9633">4</text>
<text transform="matrix(1 0 0 1 448.1612 28.2114)" font-family="'TheSansMono-W3Light'" font-size="10.9633"> </text>
<text transform="matrix(1 0 0 1 454.7403 28.2114)" font-family="'TheSansMono-W3Light'" font-size="10.9633">5</text>
<text transform="matrix(1 0 0 1 461.3164 28.2114)" font-family="'TheSansMono-W3Light'" font-size="10.9633"> </text>
<text transform="matrix(1 0 0 1 467.8936 28.2114)" font-family="'TheSansMono-W3Light'" font-size="10.9633">6</text>
<text transform="matrix(1 0 0 1 474.4737 28.2114)" font-family="'TheSansMono-W3Light'" font-size="10.9633"> </text>
<text transform="matrix(1 0 0 1 481.0508 28.2114)" font-family="'TheSansMono-W3Light'" font-size="10.9633">7</text>
<text transform="matrix(1 0 0 1 487.6299 28.2114)" font-family="'TheSansMono-W3Light'" font-size="10.9633"> 8 </text>
<text transform="matrix(1 0 0 1 507.3623 28.2114)" font-family="'TheSansMono-W3Light'" font-size="10.9633">9</text>
<text transform="matrix(1 0 0 1 513.9405 28.2114)" font-family="'TheSansMono-W3Light'" font-size="10.9633"> 0 </text>
<text transform="matrix(1 0 0 1 533.6631 28.2114)" font-family="'TheSansMono-W3Light'" font-size="10.9633">1</text>
<text transform="matrix(1 0 0 1 540.2413 28.2114)" font-family="'TheSansMono-W3Light'" font-size="10.9633"> </text>
<text transform="matrix(1 0 0 1 119.2608 43.8687)" font-family="'TheSansMono-W3Light'" font-size="10.9633">+-+-+-+-+-+-+-+-+-+-+-+-+-+-+-+-+-+-+-+-+-+-+-+-+-+-+-+-+-+-+-+-+</text>
<text transform="matrix(1 0 0 1 119.2608 59.5298)" font-family="'TheSansMono-W3Light'" font-size="10.9633">|Version|  IHL  |Type of Service|          Total Length         |</text>
<text transform="matrix(1 0 0 1 119.2608 75.1919)" font-family="'TheSansMono-W3Light'" font-size="10.9633">+-+-+-+-+-+-+-+-+-+-+-+-+-+-+-+-+-+-+-+-+-+-+-+-+-+-+-+-+-+-+-+-+</text>
<text transform="matrix(1 0 0 1 119.2608 90.854)" font-family="'TheSansMono-W3Light'" font-size="10.9633">|         Identification        |Flags|      Fragment Offset    |</text>
<text transform="matrix(1 0 0 1 119.2608 106.5171)" font-family="'TheSansMono-W3Light'" font-size="10.9633">+-+-+-+-+-+-+-+-+-+-+-+-+-+-+-+-+-+-+-+-+-+-+-+-+-+-+-+-+-+-+-+-+</text>
<text transform="matrix(1 0 0 1 119.2608 122.1773)" font-family="'TheSansMono-W3Light'" font-size="10.9633">|  Time to Live |    Protocol   |         Header Checksum       |</text>
<text transform="matrix(1 0 0 1 119.2608 137.8394)" font-family="'TheSansMono-W3Light'" font-size="10.9633">+-+-+-+-+-+-+-+-+-+-+-+-+-+-+-+-+-+-+-+-+-+-+-+-+-+-+-+-+-+-+-+-+</text>
<text transform="matrix(1 0 0 1 119.2608 153.5015)" font-family="'TheSansMono-W3Light'" font-size="10.9633">|                       Source Address                          |</text>
<text transform="matrix(1 0 0 1 119.2608 169.1636)" font-family="'TheSansMono-W3Light'" font-size="10.9633">+-+-+-+-+-+-+-+-+-+-+-+-+-+-+-+-+-+-+-+-+-+-+-+-+-+-+-+-+-+-+-+-+</text>
<text transform="matrix(1 0 0 1 119.2608 184.8237)" font-family="'TheSansMono-W3Light'" font-size="10.9633">|                    Destination Address                        |</text>
<text transform="matrix(1 0 0 1 119.2608 200.4878)" font-family="'TheSansMono-W3Light'" font-size="10.9633">+-+-+-+-+-+-+-+-+-+-+-+-+-+-+-+-+-+-+-+-+-+-+-+-+-+-+-+-+-+-+-+-+</text>
<text transform="matrix(1 0 0 1 119.2608 216.1489)" font-family="'TheSansMono-W3Light'" font-size="10.9633">|                    Options                    |    Padding    |</text>
<text transform="matrix(1 0 0 1 119.2608 231.8111)" font-family="'TheSansMono-W3Light'" font-size="10.9633">+-+-+-+-+-+-+-+-+-+-+-+-+-+-+-+-+-+-+-+-+-+-+-+-+-+-+-+-+-+-+-+-+</text>
<text transform="matrix(1 0 0 1 119.2608 247.478)" font-family="'TheSansMono-W3Light'" font-size="10.9633">Internet Datagram Header (Source: RFC </text>
<text transform="matrix(1 0 0 1 369.2246 247.478)" font-family="'TheSansMono-W3Light'" font-size="10.9633">791</text>
<text transform="matrix(1 0 0 1 388.96 247.478)" font-family="'TheSansMono-W3Light'" font-size="10.9633">, Sept </text>
<text transform="matrix(1 0 0 1 435.0049 247.478)" font-family="'TheSansMono-W3Light'" font-size="10.9633">19</text>
<text transform="matrix(1 0 0 1 448.1612 247.478)" font-family="'TheSansMono-W3Light'" font-size="10.9633">8</text>
<text transform="matrix(1 0 0 1 454.7403 247.478)" font-family="'TheSansMono-W3Light'" font-size="10.9633">1</text>
<text transform="matrix(1 0 0 1 461.3164 247.478)" font-family="'TheSansMono-W3Light'" font-size="10.9633">)</text>
<text transform="matrix(1 0 0 1 119.2608 294.4663)" font-family="'TheSansMono-W3Light'" font-size="10.9633"> 0                   </text>
<text transform="matrix(1 0 0 1 257.3994 294.4663)" font-family="'TheSansMono-W3Light'" font-size="10.9633">1</text>
<text transform="matrix(1 0 0 1 263.9756 294.4663)" font-family="'TheSansMono-W3Light'" font-size="10.9633">                   2                   </text>
<text transform="matrix(1 0 0 1 520.5089 294.4663)" font-family="'TheSansMono-W3Light'" font-size="10.9633">3</text>
<text transform="matrix(1 0 0 1 527.085 294.4663)" font-family="'TheSansMono-W3Light'" font-size="10.9633">   </text>
<text transform="matrix(1 0 0 1 119.2608 310.1318)" font-family="'TheSansMono-W3Light'" font-size="10.9633"> 0 </text>
<text transform="matrix(1 0 0 1 138.9942 310.1318)" font-family="'TheSansMono-W3Light'" font-size="10.9633">1</text>
<text transform="matrix(1 0 0 1 145.5723 310.1318)" font-family="'TheSansMono-W3Light'" font-size="10.9633"> 2 </text>
<text transform="matrix(1 0 0 1 165.3076 310.1318)" font-family="'TheSansMono-W3Light'" font-size="10.9633">3</text>
<text transform="matrix(1 0 0 1 171.8838 310.1318)" font-family="'TheSansMono-W3Light'" font-size="10.9633"> </text>
<text transform="matrix(1 0 0 1 178.4619 310.1318)" font-family="'TheSansMono-W3Light'" font-size="10.9633">4</text>
<text transform="matrix(1 0 0 1 185.0401 310.1318)" font-family="'TheSansMono-W3Light'" font-size="10.9633"> </text>
<text transform="matrix(1 0 0 1 191.6182 310.1318)" font-family="'TheSansMono-W3Light'" font-size="10.9633">5</text>
<text transform="matrix(1 0 0 1 198.1963 310.1318)" font-family="'TheSansMono-W3Light'" font-size="10.9633"> </text>
<text transform="matrix(1 0 0 1 204.7754 310.1318)" font-family="'TheSansMono-W3Light'" font-size="10.9633">6</text>
<text transform="matrix(1 0 0 1 211.3526 310.1318)" font-family="'TheSansMono-W3Light'" font-size="10.9633"> </text>
<text transform="matrix(1 0 0 1 217.9307 310.1318)" font-family="'TheSansMono-W3Light'" font-size="10.9633">7</text>
<text transform="matrix(1 0 0 1 224.5078 310.1318)" font-family="'TheSansMono-W3Light'" font-size="10.9633"> 8 </text>
<text transform="matrix(1 0 0 1 244.2422 310.1318)" font-family="'TheSansMono-W3Light'" font-size="10.9633">9</text>
<text transform="matrix(1 0 0 1 250.8203 310.1318)" font-family="'TheSansMono-W3Light'" font-size="10.9633"> 0 </text>
<text transform="matrix(1 0 0 1 270.5547 310.1318)" font-family="'TheSansMono-W3Light'" font-size="10.9633">1</text>
<text transform="matrix(1 0 0 1 277.1319 310.1318)" font-family="'TheSansMono-W3Light'" font-size="10.9633"> 2 </text>
<text transform="matrix(1 0 0 1 296.8662 310.1318)" font-family="'TheSansMono-W3Light'" font-size="10.9633">3</text>
<text transform="matrix(1 0 0 1 303.4444 310.1318)" font-family="'TheSansMono-W3Light'" font-size="10.9633"> </text>
<text transform="matrix(1 0 0 1 310.0215 310.1318)" font-family="'TheSansMono-W3Light'" font-size="10.9633">4</text>
<text transform="matrix(1 0 0 1 316.5996 310.1318)" font-family="'TheSansMono-W3Light'" font-size="10.9633"> </text>
<text transform="matrix(1 0 0 1 323.1797 310.1318)" font-family="'TheSansMono-W3Light'" font-size="10.9633">5</text>
<text transform="matrix(1 0 0 1 329.7559 310.1318)" font-family="'TheSansMono-W3Light'" font-size="10.9633"> </text>
<text transform="matrix(1 0 0 1 336.335 310.1318)" font-family="'TheSansMono-W3Light'" font-size="10.9633">6</text>
<text transform="matrix(1 0 0 1 342.9112 310.1318)" font-family="'TheSansMono-W3Light'" font-size="10.9633"> </text>
<text transform="matrix(1 0 0 1 349.4912 310.1318)" font-family="'TheSansMono-W3Light'" font-size="10.9633">7</text>
<text transform="matrix(1 0 0 1 356.0694 310.1318)" font-family="'TheSansMono-W3Light'" font-size="10.9633"> 8 </text>
<text transform="matrix(1 0 0 1 375.8018 310.1318)" font-family="'TheSansMono-W3Light'" font-size="10.9633">9</text>
<text transform="matrix(1 0 0 1 382.3799 310.1318)" font-family="'TheSansMono-W3Light'" font-size="10.9633"> 0 </text>
<text transform="matrix(1 0 0 1 402.1153 310.1318)" font-family="'TheSansMono-W3Light'" font-size="10.9633">1</text>
<text transform="matrix(1 0 0 1 408.6944 310.1318)" font-family="'TheSansMono-W3Light'" font-size="10.9633"> 2 </text>
<text transform="matrix(1 0 0 1 428.4278 310.1318)" font-family="'TheSansMono-W3Light'" font-size="10.9633">3</text>
<text transform="matrix(1 0 0 1 435.0049 310.1318)" font-family="'TheSansMono-W3Light'" font-size="10.9633"> </text>
<text transform="matrix(1 0 0 1 441.5821 310.1318)" font-family="'TheSansMono-W3Light'" font-size="10.9633">4</text>
<text transform="matrix(1 0 0 1 448.1612 310.1318)" font-family="'TheSansMono-W3Light'" font-size="10.9633"> </text>
<text transform="matrix(1 0 0 1 454.7403 310.1318)" font-family="'TheSansMono-W3Light'" font-size="10.9633">5</text>
<text transform="matrix(1 0 0 1 461.3164 310.1318)" font-family="'TheSansMono-W3Light'" font-size="10.9633"> </text>
<text transform="matrix(1 0 0 1 467.8936 310.1318)" font-family="'TheSansMono-W3Light'" font-size="10.9633">6</text>
<text transform="matrix(1 0 0 1 474.4737 310.1318)" font-family="'TheSansMono-W3Light'" font-size="10.9633"> </text>
<text transform="matrix(1 0 0 1 481.0508 310.1318)" font-family="'TheSansMono-W3Light'" font-size="10.9633">7</text>
<text transform="matrix(1 0 0 1 487.6299 310.1318)" font-family="'TheSansMono-W3Light'" font-size="10.9633"> 8 </text>
<text transform="matrix(1 0 0 1 507.3623 310.1318)" font-family="'TheSansMono-W3Light'" font-size="10.9633">9</text>
<text transform="matrix(1 0 0 1 513.9405 310.1318)" font-family="'TheSansMono-W3Light'" font-size="10.9633"> 0 </text>
<text transform="matrix(1 0 0 1 533.6631 310.1318)" font-family="'TheSansMono-W3Light'" font-size="10.9633">1</text>
<text transform="matrix(1 0 0 1 540.2413 310.1318)" font-family="'TheSansMono-W3Light'" font-size="10.9633"> </text>
<text transform="matrix(1 0 0 1 119.2608 325.7822)" font-family="'TheSansMono-W3Light'" font-size="10.9633">+-+-+-+-+-+-+-+-+-+-+-+-+-+-+-+-+-+-+-+-+-+-+-+-+-+-+-+-+-+-+-+-+</text>
<text transform="matrix(1 0 0 1 119.2608 341.4434)" font-family="'TheSansMono-W3Light'" font-size="10.9633">|          Source Port          |       Destination Port        |</text>
<text transform="matrix(1 0 0 1 119.2608 357.1055)" font-family="'TheSansMono-W3Light'" font-size="10.9633">+-+-+-+-+-+-+-+-+-+-+-+-+-+-+-+-+-+-+-+-+-+-+-+-+-+-+-+-+-+-+-+-+</text>
<text transform="matrix(1 0 0 1 119.2608 372.7676)" font-family="'TheSansMono-W3Light'" font-size="10.9633">|                        Sequence Number                        |</text>
<text transform="matrix(1 0 0 1 119.2608 388.4297)" font-family="'TheSansMono-W3Light'" font-size="10.9633">+-+-+-+-+-+-+-+-+-+-+-+-+-+-+-+-+-+-+-+-+-+-+-+-+-+-+-+-+-+-+-+-+</text>
<text transform="matrix(1 0 0 1 119.2608 404.0908)" font-family="'TheSansMono-W3Light'" font-size="10.9633">|                    Acknowledgment Number                      |</text>
<text transform="matrix(1 0 0 1 119.2608 419.7539)" font-family="'TheSansMono-W3Light'" font-size="10.9633">+-+-+-+-+-+-+-+-+-+-+-+-+-+-+-+-+-+-+-+-+-+-+-+-+-+-+-+-+-+-+-+-+</text>
<text transform="matrix(1 0 0 1 119.2608 435.4141)" font-family="'TheSansMono-W3Light'" font-size="10.9633">|  Data |           |U|A|P|R|S|F|                               |</text>
<text transform="matrix(1 0 0 1 119.2608 451.0771)" font-family="'TheSansMono-W3Light'" font-size="10.9633">| Offset| Reserved  |R|C|S|S|Y|I|            Window             |</text>
<text transform="matrix(1 0 0 1 119.2608 466.7393)" font-family="'TheSansMono-W3Light'" font-size="10.9633">|       |           |G|K|H|T|N|N|                               |</text>
<text transform="matrix(1 0 0 1 119.2608 482.4014)" font-family="'TheSansMono-W3Light'" font-size="10.9633">+-+-+-+-+-+-+-+-+-+-+-+-+-+-+-+-+-+-+-+-+-+-+-+-+-+-+-+-+-+-+-+-+</text>
<text transform="matrix(1 0 0 1 119.2608 498.0625)" font-family="'TheSansMono-W3Light'" font-size="10.9633">|           Checksum            |         Urgent Pointer        |</text>
<text transform="matrix(1 0 0 1 119.2608 513.7246)" font-family="'TheSansMono-W3Light'" font-size="10.9633">+-+-+-+-+-+-+-+-+-+-+-+-+-+-+-+-+-+-+-+-+-+-+-+-+-+-+-+-+-+-+-+-+</text>
<text transform="matrix(1 0 0 1 119.2608 529.3867)" font-family="'TheSansMono-W3Light'" font-size="10.9633">|                    Options                    |    Padding    |</text>
<text transform="matrix(1 0 0 1 119.2608 545.0479)" font-family="'TheSansMono-W3Light'" font-size="10.9633">+-+-+-+-+-+-+-+-+-+-+-+-+-+-+-+-+-+-+-+-+-+-+-+-+-+-+-+-+-+-+-+-+</text>
<text transform="matrix(1 0 0 1 119.2608 560.7109)" font-family="'TheSansMono-W3Light'" font-size="10.9633">|                             data                              |</text>
<text transform="matrix(1 0 0 1 119.2608 576.373)" font-family="'TheSansMono-W3Light'" font-size="10.9633">+-+-+-+-+-+-+-+-+-+-+-+-+-+-+-+-+-+-+-+-+-+-+-+-+-+-+-+-+-+-+-+-+</text>
<text transform="matrix(1 0 0 1 119.2608 592.0391)" font-family="'TheSansMono-W3Light'" font-size="10.9633">TCP Header (Source: RFC </text>
<text transform="matrix(1 0 0 1 277.1319 592.0391)" font-family="'TheSansMono-W3Light'" font-size="10.9633">793</text>
<text transform="matrix(1 0 0 1 296.8662 592.0391)" font-family="'TheSansMono-W3Light'" font-size="10.9633">, Sept </text>
<text transform="matrix(1 0 0 1 342.9112 592.0391)" font-family="'TheSansMono-W3Light'" font-size="10.9633">19</text>
<text transform="matrix(1 0 0 1 356.0694 592.0391)" font-family="'TheSansMono-W3Light'" font-size="10.9633">8</text>
<text transform="matrix(1 0 0 1 362.6465 592.0391)" font-family="'TheSansMono-W3Light'" font-size="10.9633">1</text>
<text transform="matrix(1 0 0 1 369.2246 592.0391)" font-family="'TheSansMono-W3Light'" font-size="10.9633">)</text>
</svg>
