<?xml version="1.0" encoding="utf-8"?>
<!-- Generator: Adobe Illustrator 18.0.0, SVG Export Plug-In . SVG Version: 6.00 Build 0)  -->
<!DOCTYPE svg PUBLIC "-//W3C//DTD SVG 1.1//EN" "http://www.w3.org/Graphics/SVG/1.1/DTD/svg11.dtd">
<svg version="1.1" id="Layer_1" xmlns="http://www.w3.org/2000/svg" xmlns:xlink="http://www.w3.org/1999/xlink" x="0px" y="0px"
	 viewBox="0 0 612 792" enable-background="new 0 0 612 792" xml:space="preserve">
<circle cx="46.1" cy="512" r="5.5"/>
<line fill="none" stroke="#999999" stroke-width="1.3" x1="54.9" y1="518.7" x2="224.5" y2="648.9"/>
<g enable-background="new    ">
	<path fill="#999999" d="M117.4,519.7c0-0.5,0-1.3,0.1-1.8h0c-0.5,1.2-1.5,2-3,2c-2,0-2.6-1.2-2.6-2.7v-4.8c-0.4-0.1-1-0.1-1.4-0.2
		v-0.9c0.8-0.1,2-0.2,3-0.1v5.5c0,1.2,0.3,1.9,1.5,1.9c1.4,0,2.4-1.4,2.4-3.3v-2.9c-0.4-0.1-0.9-0.1-1.4-0.2v-0.9
		c0.8-0.1,2-0.2,2.9-0.1v7.3c0.4,0.1,1,0.1,1.4,0.2v0.9C119.5,519.6,118.3,519.7,117.4,519.7z"/>
</g>
<line fill="none" stroke="#000000" stroke-width="1.3" stroke-dasharray="20,5" x1="46.2" y1="656.1" x2="234.8" y2="656.1"/>
<line fill="none" stroke="#000000" stroke-width="1.3" stroke-dasharray="20,5" x1="46.4" y1="509.8" x2="46.4" y2="652.7"/>
<g enable-background="new    ">
	<path d="M32.5,583.3c-2.4,0-3.9-1.8-3.9-4.9c0-5,2.4-7,5.7-7c0.3,0,0.8,0,1,0.1v1.4c-0.4-0.1-0.7-0.1-1.2-0.1
		c-2.2,0-3.5,1.3-3.9,3.7c-0.1,0.2-0.1,0.5-0.2,0.9h0c0.6-1,1.6-1.5,2.7-1.5c2.3,0,3.6,1.5,3.6,3.4
		C36.4,581.6,34.8,583.3,32.5,583.3z M32.5,577.1c-1.4,0-2.3,1.2-2.3,2.2c0,1.4,0.8,2.7,2.3,2.7c1.4,0,2.2-1,2.2-2.5
		C34.8,578,34,577.1,32.5,577.1z"/>
</g>
<polyline fill="none" stroke="#999999" stroke-width="1.3" points="222.5,640.6 224.1,648.7 215.9,650.3 "/>
<polyline fill="#FFFFFF" stroke="#999999" stroke-width="1.3" points="119,499.2 123.2,503.4 119,507.6 "/>
<line fill="none" stroke="#999999" stroke-width="1.3" x1="123.2" y1="503.4" x2="107.3" y2="503.4"/>
<g enable-background="new    ">
	<path fill="#999999" d="M218.6,584.9l-2.7,7.4h-1.9l-2.7-7.4c-0.4,0-0.8-0.1-1.1-0.2v-0.9h4v0.9c-0.4,0.1-0.8,0.2-1.2,0.2l1.4,4.2
		c0.2,0.6,0.4,1.1,0.5,1.7h0c0.2-0.6,0.3-1.1,0.5-1.6l1.5-4.2c-0.4,0-0.8-0.1-1.2-0.2v-0.9h3.9v0.9
		C219.4,584.8,219,584.9,218.6,584.9z"/>
</g>
<polyline fill="#FFFFFF" stroke="#999999" stroke-width="1.3" points="219,571.8 223.3,576 219,580.3 "/>
<line fill="none" stroke="#999999" stroke-width="1.3" x1="223.3" y1="576" x2="207.3" y2="576"/>
<g enable-background="new    ">
	<path d="M137.5,685c-2.4,0-3.8-1.2-3.8-2.9c0-1,0.5-2.1,2.4-3.2c-1.5-0.8-2.1-1.8-2.1-3c0-1.8,1.5-3,3.7-3c2.2,0,3.5,1.1,3.5,2.7
		c0,1.1-0.7,2-2.3,3.1c2,1,2.7,2,2.7,3.2C141.6,683.9,139.8,685,137.5,685z M137.4,679.5c-1.4,0.8-2.1,1.6-2.1,2.5
		c0,1,0.9,1.7,2.3,1.7c1.3,0,2.3-0.6,2.3-1.7C139.9,681,139.1,680.3,137.4,679.5z M137.6,674.1c-1.3,0-2,0.7-2,1.7
		c0,0.8,0.6,1.5,2,2.3c1.5-0.9,2-1.6,2-2.4C139.6,674.8,139,674.1,137.6,674.1z"/>
</g>
<circle cx="234.8" cy="656.2" r="5.5"/>
<line fill="none" stroke="#999999" stroke-width="1.3" x1="164.9" y1="552.1" x2="228.6" y2="636.2"/>
<polyline fill="none" stroke="#999999" stroke-width="1.3" points="230,628.2 228.6,636.4 220.4,635.1 "/>
<line fill="none" stroke="#999999" stroke-width="1.3" x1="53.9" y1="512" x2="162.8" y2="549.2"/>
<g enable-background="new    ">
	<path fill="#999999" d="M129.7,601.8l-2.3,7.4h-1.8l-1.7-5c-0.2-0.5-0.3-1.1-0.5-1.7h0c-0.2,0.8-0.4,1.4-0.6,2.2l-1.4,4.6h-1.8
		l-2.2-7.4c-0.4,0-0.8-0.1-1.1-0.2v-0.9h3.9v0.9c-0.4,0.1-0.8,0.2-1.2,0.2l1,3.8c0.2,0.7,0.4,1.4,0.5,1.9h0c0.2-0.7,0.4-1.4,0.6-2.1
		l1.5-4.8h1.6l1.5,4.8c0.3,1,0.5,1.5,0.6,2.1h0c0.2-0.6,0.3-1.1,0.5-1.9l1.1-3.9c-0.4,0-0.8-0.1-1.2-0.2v-0.9h3.8v0.9
		C130.5,601.7,130.1,601.8,129.7,601.8z"/>
</g>
<polyline fill="none" stroke="#999999" stroke-width="1.3" points="159.4,541.4 162.4,549.2 154.6,552.2 "/>
<polyline fill="#FFFFFF" stroke="#999999" stroke-width="1.3" points="126.9,588.8 131.1,593 126.9,597.2 "/>
<line fill="none" stroke="#999999" stroke-width="1.3" x1="131.1" y1="593" x2="115.2" y2="593"/>
<g enable-background="new    ">
	<path fill="#999999" d="M496,594.2l-2.3,7.4h-1.8l-1.7-5c-0.2-0.5-0.3-1.1-0.5-1.7h0c-0.2,0.8-0.4,1.4-0.6,2.2l-1.4,4.6h-1.8
		l-2.2-7.4c-0.4,0-0.8-0.1-1.1-0.2V593h3.9v0.9c-0.4,0.1-0.8,0.2-1.2,0.2l1,3.8c0.2,0.7,0.4,1.4,0.5,1.9h0c0.2-0.7,0.4-1.4,0.6-2.1
		l1.5-4.8h1.6l1.5,4.8c0.3,1,0.5,1.5,0.6,2.1h0c0.2-0.6,0.3-1.1,0.5-1.9l1.1-3.9c-0.4,0-0.8-0.1-1.2-0.2V593h3.8v0.9
		C496.7,594.1,496.4,594.1,496,594.2z"/>
</g>
<polyline fill="#FFFFFF" stroke="#999999" stroke-width="1.3" points="493.1,581.1 497.3,585.3 493.1,589.5 "/>
<line fill="none" stroke="#999999" stroke-width="1.3" x1="497.3" y1="585.3" x2="481.5" y2="585.3"/>
<g enable-background="new    ">
	<path fill="#999999" d="M598.4,601.9c0-0.5,0-1.3,0.1-1.8h0c-0.5,1.2-1.5,2-3,2c-2,0-2.6-1.2-2.6-2.7v-4.8c-0.4-0.1-1-0.1-1.4-0.2
		v-0.9c0.8-0.1,2-0.2,3-0.1v5.5c0,1.2,0.3,1.9,1.5,1.9c1.4,0,2.4-1.4,2.4-3.3v-2.9c-0.4-0.1-0.9-0.1-1.4-0.2v-0.9
		c0.8-0.1,2-0.2,2.9-0.1v7.3c0.4,0.1,1,0.1,1.4,0.2v0.9C600.5,601.9,599.3,601.9,598.4,601.9z"/>
</g>
<polyline fill="#FFFFFF" stroke="#999999" stroke-width="1.3" points="600,581.4 604.2,585.6 600,589.8 "/>
<line fill="none" stroke="#999999" stroke-width="1.3" x1="604.2" y1="585.6" x2="588.3" y2="585.6"/>
<g enable-background="new    ">
	<path fill="#999999" d="M542.8,594.5l-2.7,7.4h-1.9l-2.7-7.4c-0.4,0-0.8-0.1-1.1-0.2v-0.9h4v0.9c-0.4,0.1-0.8,0.2-1.2,0.2l1.4,4.2
		c0.2,0.6,0.4,1.1,0.5,1.7h0c0.2-0.6,0.3-1.1,0.5-1.6l1.5-4.2c-0.4,0-0.8-0.1-1.2-0.2v-0.9h3.9v0.9
		C543.6,594.4,543.2,594.4,542.8,594.5z"/>
</g>
<polyline fill="#FFFFFF" stroke="#999999" stroke-width="1.3" points="543.2,581.4 547.5,585.6 543.2,589.8 "/>
<line fill="none" stroke="#999999" stroke-width="1.3" x1="547.5" y1="585.6" x2="531.5" y2="585.6"/>
<text transform="matrix(1 0 0 1 511.1641 602.5347)" font-family="'ArialMT'" font-size="17.2125">=</text>
<text transform="matrix(1 0 0 1 563.7578 602.5347)" font-family="'ArialMT'" font-size="17.2125">+</text>
</svg>
