<?xml version="1.0" encoding="utf-8"?>
<!-- Generator: Adobe Illustrator 17.1.0, SVG Export Plug-In . SVG Version: 6.00 Build 0)  -->
<!DOCTYPE svg PUBLIC "-//W3C//DTD SVG 1.1//EN" "http://www.w3.org/Graphics/SVG/1.1/DTD/svg11.dtd">
<svg version="1.1" id="Layer_1" xmlns="http://www.w3.org/2000/svg" xmlns:xlink="http://www.w3.org/1999/xlink" x="0px" y="0px"
	 viewBox="0 217 612 290" enable-background="new 0 217 612 290" xml:space="preserve">
<circle cx="46.1" cy="261" r="5.5"/>
<line fill="none" stroke="#999999" stroke-width="1.3" x1="54.9" y1="267.7" x2="224.5" y2="397.9"/>
<text transform="matrix(1 0 0 1 110.1284 268.6592)" fill="#999999" font-family="'ArialMT'" font-size="17.2125">u</text>
<line fill="none" stroke="#000000" stroke-width="1.3" stroke-dasharray="20,5" x1="46.2" y1="405.1" x2="234.8" y2="405.1"/>
<line fill="none" stroke="#000000" stroke-width="1.3" stroke-dasharray="20,5" x1="46.4" y1="258.8" x2="46.4" y2="401.7"/>
<text transform="matrix(1 0 0 1 27.3008 332.0913)" font-family="'ArialMT'" font-size="17.2125">6</text>
<polyline fill="none" stroke="#999999" stroke-width="1.3" points="222.5,389.6 224.1,397.7 215.9,399.3 "/>
<polyline fill="#FFFFFF" stroke="#999999" stroke-width="1.3" points="119,248.2 123.2,252.4 119,256.6 "/>
<line fill="none" stroke="#999999" stroke-width="1.3" x1="123.2" y1="252.4" x2="107.3" y2="252.4"/>
<text transform="matrix(1 0 0 1 210.2154 341.3354)" fill="#999999" font-family="'ArialMT'" font-size="17.2125">v</text>
<polyline fill="#FFFFFF" stroke="#999999" stroke-width="1.3" points="219,320.8 223.3,325 219,329.3 "/>
<line fill="none" stroke="#999999" stroke-width="1.3" x1="223.3" y1="325" x2="207.3" y2="325"/>
<text transform="matrix(1 0 0 1 132.4883 433.7725)" font-family="'ArialMT'" font-size="17.2125">8</text>
<circle cx="234.8" cy="405.2" r="5.5"/>
<line fill="none" stroke="#999999" stroke-width="1.3" x1="164.9" y1="301.1" x2="228.6" y2="385.2"/>
<polyline fill="none" stroke="#999999" stroke-width="1.3" points="230,377.2 228.6,385.4 220.4,384.1 "/>
<line fill="none" stroke="#999999" stroke-width="1.3" x1="53.9" y1="261" x2="162.8" y2="298.2"/>
<text transform="matrix(1 0 0 1 116.1846 358.2285)" fill="#999999" font-family="'ArialMT'" font-size="17.2125">w</text>
<polyline fill="none" stroke="#999999" stroke-width="1.3" points="159.4,290.4 162.4,298.2 154.6,301.2 "/>
<polyline fill="#FFFFFF" stroke="#999999" stroke-width="1.3" points="126.9,337.8 131.1,342 126.9,346.2 "/>
<line fill="none" stroke="#999999" stroke-width="1.3" x1="131.1" y1="342" x2="115.2" y2="342"/>
<text transform="matrix(1 0 0 1 482.4287 350.5786)" fill="#999999" font-family="'ArialMT'" font-size="17.2125">w</text>
<polyline fill="#FFFFFF" stroke="#999999" stroke-width="1.3" points="493.1,330.1 497.3,334.3 493.1,338.5 "/>
<line fill="none" stroke="#999999" stroke-width="1.3" x1="497.3" y1="334.3" x2="481.5" y2="334.3"/>
<text transform="matrix(1 0 0 1 591.1221 350.897)" fill="#999999" font-family="'ArialMT'" font-size="17.2125">u</text>
<polyline fill="#FFFFFF" stroke="#999999" stroke-width="1.3" points="600,330.4 604.2,334.6 600,338.8 "/>
<line fill="none" stroke="#999999" stroke-width="1.3" x1="604.2" y1="334.6" x2="588.3" y2="334.6"/>
<text transform="matrix(1 0 0 1 534.3839 350.8979)" fill="#999999" font-family="'ArialMT'" font-size="17.2125">v</text>
<polyline fill="#FFFFFF" stroke="#999999" stroke-width="1.3" points="543.2,330.4 547.5,334.6 543.2,338.8 "/>
<line fill="none" stroke="#999999" stroke-width="1.3" x1="547.5" y1="334.6" x2="531.5" y2="334.6"/>
<text transform="matrix(1 0 0 1 511.1641 351.5347)" font-family="'ArialMT'" font-size="17.2125">=</text>
<text transform="matrix(1 0 0 1 563.7578 351.5347)" font-family="'ArialMT'" font-size="17.2125">+</text>
</svg>
