<?xml version="1.0" encoding="utf-8"?>
<!-- Generator: Adobe Illustrator 18.0.0, SVG Export Plug-In . SVG Version: 6.00 Build 0)  -->
<!DOCTYPE svg PUBLIC "-//W3C//DTD SVG 1.1//EN" "http://www.w3.org/Graphics/SVG/1.1/DTD/svg11.dtd">
<svg version="1.1" id="Layer_1" xmlns="http://www.w3.org/2000/svg" xmlns:xlink="http://www.w3.org/1999/xlink" x="0px" y="0px"
	 viewBox="0 0 640 480" enable-background="new 0 0 640 480" xml:space="preserve">
<circle cx="48.2" cy="98.8" r="5.8"/>
<line fill="none" stroke="#999999" stroke-width="1.3" x1="57.4" y1="105.8" x2="234.8" y2="242"/>
<text transform="matrix(1 0 0 1 115.167 106.833)" fill="#999999" font-family="'TheSerif-HP5Plain'" font-size="18">u</text>
<line fill="none" stroke="#000000" stroke-width="1.3" stroke-dasharray="20,5" x1="48.3" y1="249.5" x2="245.5" y2="249.5"/>
<line fill="none" stroke="#000000" stroke-width="1.3" stroke-dasharray="20,5" x1="48.5" y1="96.5" x2="48.5" y2="246"/>
<text transform="matrix(1 0 0 1 28.5498 173.167)" font-family="'TheSerif-HP5Plain'" font-size="18">6</text>
<polyline fill="none" stroke="#999999" stroke-width="1.3" points="232.7,233.3 234.4,241.8 225.8,243.5 "/>
<polyline fill="#FFFFFF" stroke="#999999" stroke-width="1.3" points="124.4,85.4 128.8,89.8 124.4,94.2 "/>
<line fill="#FFFFFF" stroke="#999999" stroke-width="1.3" x1="128.8" y1="89.8" x2="112.2" y2="89.8"/>
<text transform="matrix(1 0 0 1 219.833 182.834)" fill="#999999" font-family="'TheSerif-HP5Plain'" font-size="18">v</text>
<polyline fill="#FFFFFF" stroke="#999999" stroke-width="1.3" points="229,161.4 233.5,165.8 229,170.2 "/>
<line fill="#FFFFFF" stroke="#999999" stroke-width="1.3" x1="233.5" y1="165.8" x2="216.8" y2="165.8"/>
<text transform="matrix(1 0 0 1 138.5498 279.5)" font-family="'TheSerif-HP5Plain'" font-size="18">8</text>
<circle cx="245.5" cy="249.6" r="5.8"/>
<line fill="none" stroke="#999999" stroke-width="1.3" x1="172.4" y1="140.8" x2="239.1" y2="228.7"/>
<polyline fill="none" stroke="#999999" stroke-width="1.3" points="240.5,220.3 239.1,228.9 230.5,227.6 "/>
<line fill="none" stroke="#999999" stroke-width="1.3" x1="56.4" y1="98.8" x2="170.2" y2="137.7"/>
<text transform="matrix(1 0 0 1 121.5 200.5)" fill="#999999" font-family="'TheSerif-HP5Plain'" font-size="18">w</text>
<polyline fill="none" stroke="#999999" stroke-width="1.3" points="166.7,129.6 169.8,137.7 161.7,140.9 "/>
<polyline fill="#FFFFFF" stroke="#999999" stroke-width="1.3" points="132.7,179.1 137.1,183.5 132.7,187.9 "/>
<line fill="#FFFFFF" stroke="#999999" stroke-width="1.3" x1="137.1" y1="183.5" x2="120.5" y2="183.5"/>
<text transform="matrix(1 0 0 1 504.5 192.5)" fill="#999999" font-family="'TheSerif-HP5Plain'" font-size="18">w</text>
<polyline fill="#FFFFFF" stroke="#999999" stroke-width="1.3" points="515.7,171.1 520.1,175.5 515.7,179.9 "/>
<line fill="#FFFFFF" stroke="#999999" stroke-width="1.3" x1="520.1" y1="175.5" x2="503.5" y2="175.5"/>
<text transform="matrix(1 0 0 1 618.167 192.833)" fill="#999999" font-family="'TheSerif-HP5Plain'" font-size="18">u</text>
<polyline fill="#FFFFFF" stroke="#999999" stroke-width="1.3" points="627.4,171.4 631.8,175.8 627.4,180.2 "/>
<line fill="#FFFFFF" stroke="#999999" stroke-width="1.3" x1="631.8" y1="175.8" x2="615.2" y2="175.8"/>
<text transform="matrix(1 0 0 1 558.833 192.834)" fill="#999999" font-family="'TheSerif-HP5Plain'" font-size="18">v</text>
<polyline fill="#FFFFFF" stroke="#999999" stroke-width="1.3" points="568,171.4 572.5,175.8 568,180.2 "/>
<line fill="#FFFFFF" stroke="#999999" stroke-width="1.3" x1="572.5" y1="175.8" x2="555.8" y2="175.8"/>
<text transform="matrix(1 0 0 1 534.5503 193.5)" font-family="'TheSerif-HP5Plain'" font-size="18">=</text>
<text transform="matrix(1 0 0 1 589.5503 193.5)" font-family="'TheSerif-HP5Plain'" font-size="18">+</text>
</svg>
