<?xml version="1.0" encoding="utf-8"?>
<!-- Generator: Adobe Illustrator 18.0.0, SVG Export Plug-In . SVG Version: 6.00 Build 0)  -->
<!DOCTYPE svg PUBLIC "-//W3C//DTD SVG 1.1//EN" "http://www.w3.org/Graphics/SVG/1.1/DTD/svg11.dtd">
<svg version="1.1" id="Layer_1" xmlns="http://www.w3.org/2000/svg" xmlns:xlink="http://www.w3.org/1999/xlink" x="0px" y="0px"
	 viewBox="0 0 612 792" enable-background="new 0 0 612 792" xml:space="preserve">
<circle cx="167" cy="692.4" r="5.5"/>
<circle cx="305.6" cy="553.7" r="5.5"/>
<polyline fill="#FFFFFF" stroke="#999999" stroke-width="1.3" points="289.3,563.5 297.6,563.5 297.6,571.8 "/>
<line fill="none" stroke="#999999" stroke-width="1.3" x1="177.3" y1="684" x2="296.5" y2="564.7"/>
<g enable-background="new    ">
	<path d="M237.1,554.4c-0.5,0-0.9,0-1.2-0.1v2.9c0.5,0,1,0.1,1.5,0.2v0.9h-4.6v-0.9c0.4-0.1,1-0.2,1.5-0.2V548c-0.5,0-1-0.1-1.5-0.2
		v-0.9h1.5c0.5,0,1.9-0.1,3-0.1c3.1,0,4.4,1.7,4.4,3.6C241.7,552.7,239.9,554.4,237.1,554.4z M237.1,548c-0.4,0-0.9,0-1.3,0v5
		c0.3,0.1,0.8,0.1,1.4,0.1c1.9,0,2.9-1.2,2.9-2.6C240.1,549.3,239.4,548,237.1,548z"/>
	<path d="M246.7,558.6c-2.3,0-3.8-1.3-3.8-4.3c0-2.6,1.6-4.6,4.2-4.6c2.2,0,3.8,1.2,3.8,4.3C250.8,556.6,249.3,558.6,246.7,558.6z
		 M246.9,551c-1.3,0-2.4,0.9-2.4,3.1c0,2,0.8,3.1,2.4,3.1c1.3,0,2.4-1,2.4-3.1C249.2,552.2,248.4,551,246.9,551z"/>
	<path d="M252,558.4v-0.9c0.4-0.1,1-0.2,1.5-0.2v-6.2c-0.4-0.1-1-0.1-1.5-0.2V550c0.9-0.1,2-0.2,3-0.1v7.4c0.5,0,1,0.1,1.4,0.2v0.9
		H252z M254.3,548.2c-0.6,0-1-0.4-1-1c0-0.6,0.5-1,1-1c0.6,0,1,0.4,1,1C255.4,547.7,254.9,548.2,254.3,548.2z"/>
	<path d="M264.3,558.4v-5.5c0-1.2-0.3-1.9-1.4-1.9c-1.4,0-2.4,1.4-2.4,3.3v2.9c0.5,0,1,0.1,1.4,0.2v0.9h-4.4v-0.9
		c0.4-0.1,1-0.2,1.5-0.2v-6.2c-0.4-0.1-1-0.1-1.5-0.2V550c0.9-0.1,2-0.2,3-0.1c0,0.5,0,1.3-0.1,1.8h0c0.5-1.2,1.6-2,3-2
		c1.9,0,2.6,1.2,2.6,2.7v4.8c0.5,0,1,0.1,1.4,0.2v0.9H264.3z"/>
	<path d="M271.5,558.6c-1.8,0-2.3-0.7-2.3-2.6v-4.9h-1.8v-1.2h1.8v-2.8l1.5-0.4v3.2h2.4v1.2h-2.4v4.4c0,1.4,0.3,1.8,1.2,1.8
		c0.4,0,0.8-0.1,1.1-0.1l0.2,1.3C272.7,558.5,272,558.6,271.5,558.6z"/>
	<path d="M282.5,558.5c-0.7,0-1.7-0.1-3-0.1H278v-0.9c0.4-0.1,1-0.2,1.5-0.2V548c-0.5,0-1.1-0.1-1.5-0.2v-0.9h1.5
		c0.8,0,1.9-0.1,3.3-0.1c2.5,0,3.7,1,3.7,2.8c0,1.2-0.7,2.3-1.9,2.7v0c1.6,0.3,2.4,1.5,2.4,2.7C287,556.4,286.1,558.5,282.5,558.5z
		 M282.5,548c-0.5,0-1,0-1.5,0v3.8c0.3,0,0.6,0,1.1,0c1.9,0,2.7-0.8,2.7-2C284.9,548.8,284.4,548,282.5,548z M282.2,553
		c-0.2,0-0.8,0-1.1,0v4.1c0.3,0.1,0.8,0.1,1.5,0.1c1.9,0,2.7-0.9,2.7-2.2C285.3,553.5,284,553,282.2,553z"/>
</g>
<g enable-background="new    ">
	<path d="M104.2,694.9c-0.5,0-0.9,0-1.2-0.1v2.9c0.5,0,1,0.1,1.5,0.2v0.9h-4.6V698c0.4-0.1,1-0.2,1.5-0.2v-9.3c-0.5,0-1-0.1-1.5-0.2
		v-0.9h1.5c0.5,0,1.9-0.1,3-0.1c3.1,0,4.4,1.7,4.4,3.6C108.9,693.2,107.1,694.9,104.2,694.9z M104.3,688.5c-0.4,0-0.9,0-1.3,0v5
		c0.3,0.1,0.8,0.1,1.4,0.1c1.9,0,2.9-1.2,2.9-2.6C107.2,689.8,106.5,688.5,104.3,688.5z"/>
	<path d="M113.8,699.1c-2.3,0-3.8-1.3-3.8-4.3c0-2.6,1.6-4.6,4.2-4.6c2.2,0,3.8,1.2,3.8,4.3C118,697.1,116.4,699.1,113.8,699.1z
		 M114,691.5c-1.3,0-2.4,0.9-2.4,3.1c0,2,0.8,3.1,2.4,3.1c1.3,0,2.4-1,2.4-3.1C116.4,692.7,115.6,691.5,114,691.5z"/>
	<path d="M119.2,698.9V698c0.4-0.1,1-0.2,1.5-0.2v-6.2c-0.4-0.1-1-0.1-1.5-0.2v-0.9c0.9-0.1,2-0.2,3-0.1v7.4c0.5,0,1,0.1,1.4,0.2
		v0.9H119.2z M121.5,688.7c-0.6,0-1-0.4-1-1c0-0.6,0.5-1,1-1c0.6,0,1,0.4,1,1C122.5,688.2,122,688.7,121.5,688.7z"/>
	<path d="M131.4,698.9v-5.5c0-1.2-0.3-1.9-1.4-1.9c-1.4,0-2.4,1.4-2.4,3.3v2.9c0.5,0,1,0.1,1.4,0.2v0.9h-4.4V698
		c0.4-0.1,1-0.2,1.5-0.2v-6.2c-0.4-0.1-1-0.1-1.5-0.2v-0.9c0.9-0.1,2-0.2,3-0.1c0,0.5,0,1.3-0.1,1.8h0c0.5-1.2,1.6-2,3-2
		c1.9,0,2.6,1.2,2.6,2.7v4.8c0.5,0,1,0.1,1.4,0.2v0.9H131.4z"/>
	<path d="M138.6,699.1c-1.8,0-2.3-0.7-2.3-2.6v-4.9h-1.8v-1.2h1.8v-2.8l1.5-0.4v3.2h2.4v1.2h-2.4v4.4c0,1.4,0.3,1.8,1.2,1.8
		c0.4,0,0.8-0.1,1.1-0.1l0.2,1.3C139.9,699,139.2,699.1,138.6,699.1z"/>
	<path d="M152.3,698.9V698c0.4-0.1,0.9-0.2,1.3-0.2l-0.7-1.9h-4.9l-0.7,1.9c0.4,0,0.9,0.1,1.4,0.2v0.9h-4V698
		c0.3-0.1,0.7-0.2,1.1-0.2l3.8-10.5h1.9l3.8,10.5c0.3,0,0.7,0.1,1,0.2v0.9H152.3z M151.1,690.5c-0.2-0.6-0.4-1.1-0.5-1.7h0
		c-0.1,0.6-0.3,1.1-0.5,1.7l-1.5,4.1h4L151.1,690.5z"/>
</g>
<g enable-background="new    ">
	<path d="M297.8,631.1v-0.9c0.4-0.1,0.9-0.2,1.3-0.2l-0.7-1.9h-4.9l-0.7,1.9c0.4,0,0.9,0.1,1.4,0.2v0.9h-4v-0.9
		c0.3-0.1,0.7-0.2,1-0.2l3.8-10.5h1.9L301,630c0.3,0,0.7,0.1,1,0.2v0.9H297.8z M296.6,622.7c-0.2-0.6-0.4-1.1-0.5-1.7h0
		c-0.1,0.6-0.3,1.1-0.5,1.7l-1.5,4.1h4L296.6,622.7z"/>
	<path d="M316.4,620.6l-3.8,10.5h-1.8l-3.7-10.5c-0.3,0-0.8-0.1-1.1-0.2v-0.9h4.2v0.9c-0.4,0.1-0.9,0.2-1.4,0.2l2.2,6.3
		c0.2,0.7,0.5,1.6,0.8,2.4h0c0.2-0.8,0.5-1.6,0.8-2.5l2.2-6.2c-0.5,0-0.9-0.1-1.4-0.2v-0.9h4v0.9
		C317.1,620.5,316.7,620.6,316.4,620.6z"/>
	<path d="M324.2,626.8h-5.6c-0.1,2.2,0.8,3.2,2.7,3.2c0.8,0,1.7-0.2,2.4-0.5l0.2,1.2c-0.9,0.3-1.9,0.5-3,0.5c-2.6,0-4-1.4-4-4.4
		c0-2.5,1.4-4.5,3.9-4.5c2.4,0,3.4,1.6,3.4,3.5C324.2,626.1,324.2,626.4,324.2,626.8z M320.7,623.5c-1.1,0-1.9,0.8-2.1,2.1h4
		C322.7,624.4,321.9,623.5,320.7,623.5z"/>
	<path d="M329.6,631.2c-2.1,0-3.9-1-3.9-4.1c0-2.8,1.4-4.7,4.3-4.7c0.7,0,1.5,0.1,2.1,0.3v2.5h-1c-0.1-0.5-0.2-1-0.2-1.4
		c-0.3-0.1-0.7-0.1-1.2-0.1c-1.5,0-2.4,1.3-2.4,3.2c0,1.7,0.6,3,2.6,3c0.7,0,1.5-0.2,2-0.4l0.3,1.3
		C331.6,631,330.6,631.2,329.6,631.2z"/>
	<path d="M336.8,631.2c-1.8,0-2.3-0.7-2.3-2.6v-4.9h-1.8v-1.2h1.8v-2.8l1.5-0.4v3.2h2.4v1.2H336v4.4c0,1.4,0.3,1.8,1.2,1.8
		c0.4,0,0.8-0.1,1.1-0.1l0.2,1.3C338,631.1,337.3,631.2,336.8,631.2z"/>
	<path d="M343.6,631.2c-2.3,0-3.8-1.3-3.8-4.3c0-2.6,1.6-4.6,4.2-4.6c2.2,0,3.8,1.2,3.8,4.3C347.8,629.2,346.2,631.2,343.6,631.2z
		 M343.8,623.7c-1.3,0-2.4,0.9-2.4,3.1c0,2,0.8,3.1,2.4,3.1c1.3,0,2.4-1,2.4-3.1C346.2,624.8,345.4,623.7,343.8,623.7z"/>
	<path d="M354.9,623.9c-2-0.3-2.8,1-2.8,3.7v2.3c0.5,0,1,0.1,1.5,0.2v0.9H349v-0.9c0.4-0.1,1-0.2,1.5-0.2v-6.2
		c-0.4-0.1-1-0.1-1.5-0.2v-0.9c0.9-0.1,2-0.2,3-0.1c0,0.5-0.1,1.3-0.2,2h0c0.4-1.2,1.2-2.4,3.1-2.2L354.9,623.9z"/>
	<path d="M362.7,634.7c-2-3.2-2.5-6-2.5-8.5c0-2.5,0.6-5.5,2.5-8.6l1.1,0.5c-1.4,2.4-2.1,5.1-2.1,7.9c0,2.9,0.7,5.6,2.2,8
		L362.7,634.7z"/>
	<path d="M370.8,631.1c0-0.5,0-1.2,0.1-1.7l0,0c-0.5,1.2-1.5,1.9-2.9,1.9c-2.1,0-3.1-1.5-3.1-4c0-3,1.7-4.8,4.4-4.8
		c0.5,0,0.9,0,1.4,0.1v-2.8c-0.4-0.1-1-0.1-1.5-0.2v-0.9c0.9-0.1,2-0.2,3-0.1v11.3c0.4,0.1,1,0.1,1.4,0.2v0.9
		C373,631.1,371.8,631.1,370.8,631.1z M370.8,623.8c-0.5-0.1-1-0.2-1.5-0.2c-1.6,0-2.7,1-2.7,3.4c0,1.8,0.6,2.9,1.9,2.9
		c1.5,0,2.3-1.8,2.3-3.3V623.8z"/>
	<path d="M380.5,623.9c-2-0.3-2.8,1-2.8,3.7v2.3c0.5,0,1,0.1,1.5,0.2v0.9h-4.5v-0.9c0.4-0.1,1-0.2,1.5-0.2v-6.2
		c-0.4-0.1-1-0.1-1.5-0.2v-0.9c0.9-0.1,2-0.2,3-0.1c0,0.5-0.1,1.3-0.2,2h0c0.4-1.2,1.2-2.4,3.1-2.2L380.5,623.9z"/>
	<path d="M386.5,631.1c0-0.6,0-1.2,0.1-1.7h0c-0.4,1-1.5,1.9-2.9,1.9s-2.4-0.9-2.4-2.3c0-1.8,1.9-2.9,5.1-2.9v-0.6
		c0-1.2-0.4-1.9-1.8-1.9c-0.5,0-1.1,0.1-1.6,0.2c0,0.4-0.1,0.9-0.2,1.4h-1v-2.3c0.9-0.3,1.9-0.5,2.9-0.5c2.5,0,3.2,1.2,3.2,2.9v4.6
		c0.4,0.1,1,0.1,1.4,0.2v0.9C388.7,631.1,387.5,631.1,386.5,631.1z M386.5,627.1c-2.7,0-3.6,0.7-3.6,1.6c0,0.7,0.5,1.3,1.3,1.3
		c1.4,0,2.3-1.4,2.3-2.7V627.1z"/>
	<path d="M403.3,623.7l-2.3,7.4h-1.8l-1.7-5c-0.2-0.5-0.3-1.1-0.5-1.7h0c-0.2,0.8-0.4,1.4-0.6,2.2l-1.4,4.6h-1.8l-2.2-7.4
		c-0.4,0-0.8-0.1-1.1-0.2v-0.9h3.9v0.9c-0.4,0.1-0.8,0.2-1.2,0.2l1,3.8c0.2,0.7,0.4,1.4,0.5,1.9h0c0.2-0.7,0.4-1.4,0.6-2.1l1.5-4.8
		h1.6l1.5,4.8c0.3,1,0.5,1.5,0.6,2.1h0c0.2-0.6,0.3-1.1,0.5-1.9l1.1-3.9c-0.4,0-0.8-0.1-1.2-0.2v-0.9h3.8v0.9
		C404.1,623.6,403.7,623.6,403.3,623.7z"/>
	<path d="M411.9,631.1v-5.5c0-1.2-0.3-1.9-1.4-1.9c-1.4,0-2.4,1.4-2.4,3.3v2.9c0.5,0,1,0.1,1.4,0.2v0.9H405v-0.9
		c0.4-0.1,1-0.2,1.5-0.2v-6.2c-0.4-0.1-1-0.1-1.5-0.2v-0.9c0.9-0.1,2-0.2,3-0.1c0,0.5,0,1.3-0.1,1.8h0c0.5-1.2,1.6-2,3-2
		c1.9,0,2.6,1.2,2.6,2.7v4.8c0.5,0,1,0.1,1.4,0.2v0.9H411.9z"/>
	<path d="M425,631.1c0-0.6,0-1.2,0.1-1.7h0c-0.4,1-1.5,1.9-2.9,1.9c-1.4,0-2.4-0.9-2.4-2.3c0-1.8,1.9-2.9,5.1-2.9v-0.6
		c0-1.2-0.4-1.9-1.8-1.9c-0.5,0-1.1,0.1-1.6,0.2c0,0.4-0.1,0.9-0.2,1.4h-1v-2.3c0.9-0.3,1.9-0.5,2.9-0.5c2.5,0,3.2,1.2,3.2,2.9v4.6
		c0.4,0.1,1,0.1,1.4,0.2v0.9C427.1,631.1,425.9,631.1,425,631.1z M424.9,627.1c-2.7,0-3.6,0.7-3.6,1.6c0,0.7,0.5,1.3,1.3,1.3
		c1.4,0,2.3-1.4,2.3-2.7V627.1z"/>
	<path d="M431.2,631.2c-0.7,0-1.4-0.1-2-0.2v-2.4h0.9c0.1,0.4,0.2,0.9,0.2,1.4c0.3,0.1,0.7,0.1,1,0.1c1.2,0,1.9-0.5,1.9-1.3
		c0-1.9-4.3-0.8-4.3-3.8c0-1.5,1.2-2.6,3.4-2.6c0.6,0,1.3,0.1,2,0.2v2.3h-0.9c-0.1-0.4-0.2-0.9-0.2-1.3c-0.3-0.1-0.6-0.1-1-0.1
		c-1.2,0-1.7,0.5-1.7,1.3c0,1.9,4.3,0.9,4.3,3.7C434.8,630,433.5,631.2,431.2,631.2z"/>
	<path d="M445.4,631.1c0-0.6,0-1.2,0.1-1.7h0c-0.4,1-1.5,1.9-2.9,1.9c-1.4,0-2.4-0.9-2.4-2.3c0-1.8,1.9-2.9,5.1-2.9v-0.6
		c0-1.2-0.4-1.9-1.8-1.9c-0.5,0-1.1,0.1-1.6,0.2c0,0.4-0.1,0.9-0.2,1.4h-1v-2.3c0.9-0.3,1.9-0.5,2.9-0.5c2.5,0,3.2,1.2,3.2,2.9v4.6
		c0.4,0.1,1,0.1,1.4,0.2v0.9C447.5,631.1,446.3,631.1,445.4,631.1z M445.3,627.1c-2.7,0-3.6,0.7-3.6,1.6c0,0.7,0.5,1.3,1.3,1.3
		c1.4,0,2.3-1.4,2.3-2.7V627.1z"/>
	<path d="M456.1,631.1v-5.5c0-1.2-0.3-1.9-1.4-1.9c-1.4,0-2.4,1.4-2.4,3.3v2.9c0.5,0,1,0.1,1.4,0.2v0.9h-4.4v-0.9
		c0.4-0.1,1-0.2,1.5-0.2v-6.2c-0.4-0.1-1-0.1-1.5-0.2v-0.9c0.9-0.1,2-0.2,3-0.1c0,0.5,0,1.3-0.1,1.8h0c0.5-1.2,1.6-2,3-2
		c1.9,0,2.6,1.2,2.6,2.7v4.8c0.5,0,1,0.1,1.4,0.2v0.9H456.1z"/>
	<path d="M469.1,631.1c0-0.6,0-1.2,0.1-1.7h0c-0.4,1-1.5,1.9-2.9,1.9s-2.4-0.9-2.4-2.3c0-1.8,1.9-2.9,5.1-2.9v-0.6
		c0-1.2-0.4-1.9-1.8-1.9c-0.5,0-1.1,0.1-1.6,0.2c0,0.4-0.1,0.9-0.2,1.4h-1v-2.3c0.9-0.3,1.9-0.5,2.9-0.5c2.5,0,3.2,1.2,3.2,2.9v4.6
		c0.4,0.1,1,0.1,1.4,0.2v0.9C471.2,631.1,470,631.1,469.1,631.1z M469,627.1c-2.7,0-3.6,0.7-3.6,1.6c0,0.7,0.5,1.3,1.3,1.3
		c1.4,0,2.3-1.4,2.3-2.7V627.1z"/>
	<path d="M478.7,623.9c-2-0.3-2.8,1-2.8,3.7v2.3c0.5,0,1,0.1,1.5,0.2v0.9h-4.5v-0.9c0.4-0.1,1-0.2,1.5-0.2v-6.2
		c-0.4-0.1-1-0.1-1.5-0.2v-0.9c0.9-0.1,2-0.2,3-0.1c0,0.5-0.1,1.3-0.2,2h0c0.4-1.2,1.2-2.4,3.1-2.2L478.7,623.9z"/>
	<path d="M485.4,623.9c-2-0.3-2.8,1-2.8,3.7v2.3c0.5,0,1,0.1,1.5,0.2v0.9h-4.5v-0.9c0.4-0.1,1-0.2,1.5-0.2v-6.2
		c-0.4-0.1-1-0.1-1.5-0.2v-0.9c0.9-0.1,2-0.2,3-0.1c0,0.5-0.1,1.3-0.2,2h0c0.4-1.2,1.2-2.4,3.1-2.2L485.4,623.9z"/>
	<path d="M490.3,631.2c-2.3,0-3.8-1.3-3.8-4.3c0-2.6,1.6-4.6,4.2-4.6c2.2,0,3.8,1.2,3.8,4.3C494.5,629.2,492.9,631.2,490.3,631.2z
		 M490.5,623.7c-1.3,0-2.4,0.9-2.4,3.1c0,2,0.8,3.1,2.4,3.1c1.3,0,2.4-1,2.4-3.1C492.9,624.8,492.1,623.7,490.5,623.7z"/>
	<path d="M508.4,623.7l-2.3,7.4h-1.8l-1.7-5c-0.2-0.5-0.3-1.1-0.5-1.7h0c-0.2,0.8-0.4,1.4-0.6,2.2l-1.4,4.6h-1.8l-2.2-7.4
		c-0.4,0-0.8-0.1-1.1-0.2v-0.9h3.9v0.9c-0.4,0.1-0.8,0.2-1.2,0.2l1,3.8c0.2,0.7,0.4,1.4,0.5,1.9h0c0.2-0.7,0.4-1.4,0.6-2.1l1.5-4.8
		h1.6l1.5,4.8c0.3,1,0.5,1.5,0.6,2.1h0c0.2-0.6,0.3-1.1,0.5-1.9l1.1-3.9c-0.4,0-0.8-0.1-1.2-0.2v-0.9h3.8v0.9
		C509.1,623.6,508.8,623.6,508.4,623.7z"/>
	<path d="M511.2,634.7l-1.1-0.6c1.4-2.4,2.1-5.1,2.1-7.9c0-2.9-0.7-5.6-2.2-8l1.2-0.6c2,3.2,2.5,5.9,2.5,8.5
		C513.7,628.6,513.1,631.6,511.2,634.7z"/>
</g>
<g enable-background="new    ">
	<path d="M296.6,646.8c-2-0.3-2.8,1-2.8,3.7v2.3c0.5,0,1,0.1,1.5,0.2v0.9h-4.5v-0.9c0.4-0.1,1-0.2,1.5-0.2v-6.2
		c-0.4-0.1-1-0.1-1.5-0.2v-0.9c0.9-0.1,2-0.2,3-0.1c0,0.5-0.1,1.3-0.2,2h0c0.4-1.2,1.2-2.4,3.1-2.2L296.6,646.8z"/>
	<path d="M304.9,649.7h-5.6c-0.1,2.2,0.8,3.2,2.7,3.2c0.8,0,1.7-0.2,2.4-0.5l0.2,1.2c-0.9,0.3-1.9,0.5-3,0.5c-2.6,0-4-1.4-4-4.4
		c0-2.5,1.4-4.5,3.9-4.5c2.4,0,3.4,1.6,3.4,3.5C304.9,649,304.9,649.4,304.9,649.7z M301.4,646.5c-1.1,0-1.9,0.8-2.1,2.1h4
		C303.4,647.3,302.6,646.5,301.4,646.5z"/>
	<path d="M310.5,654.1c-0.6,0-0.9,0-1.5-0.1v3.1c0.5,0,1.1,0.1,1.5,0.2v0.9h-4.5v-0.9c0.4-0.1,0.9-0.2,1.4-0.2v-10.4
		c-0.4-0.1-0.9-0.1-1.4-0.2v-0.9c0.8-0.1,2-0.2,2.9-0.1c0,0.5-0.1,1.3-0.1,1.7l0,0c0.5-1.2,1.5-1.9,2.9-1.9c2,0,3.2,1.4,3.2,4
		C314.9,652.4,313.3,654.1,310.5,654.1z M311.4,646.6c-1.5,0-2.3,1.8-2.3,3.3v2.8c0.5,0.1,0.9,0.2,1.5,0.2c1.6,0,2.7-1,2.7-3.4
		C313.3,647.6,312.7,646.6,311.4,646.6z"/>
	<path d="M322,646.8c-2-0.3-2.8,1-2.8,3.7v2.3c0.5,0,1,0.1,1.5,0.2v0.9h-4.5v-0.9c0.4-0.1,1-0.2,1.5-0.2v-6.2
		c-0.4-0.1-1-0.1-1.5-0.2v-0.9c0.9-0.1,2-0.2,3-0.1c0,0.5-0.1,1.3-0.2,2h0c0.4-1.2,1.2-2.4,3.1-2.2L322,646.8z"/>
	<path d="M330.3,649.7h-5.6c-0.1,2.2,0.8,3.2,2.7,3.2c0.8,0,1.7-0.2,2.4-0.5l0.2,1.2c-0.9,0.3-1.9,0.5-3,0.5c-2.6,0-4-1.4-4-4.4
		c0-2.5,1.4-4.5,3.9-4.5c2.4,0,3.4,1.6,3.4,3.5C330.3,649,330.3,649.4,330.3,649.7z M326.9,646.5c-1.1,0-1.9,0.8-2.1,2.1h4
		C328.8,647.3,328.1,646.5,326.9,646.5z"/>
	<path d="M334.1,654.2c-0.7,0-1.4-0.1-2-0.2v-2.4h0.9c0.1,0.4,0.2,0.9,0.2,1.4c0.3,0.1,0.7,0.1,1,0.1c1.2,0,1.9-0.5,1.9-1.3
		c0-1.9-4.3-0.8-4.3-3.8c0-1.5,1.2-2.6,3.4-2.6c0.6,0,1.3,0.1,2,0.2v2.3h-0.9c-0.1-0.4-0.2-0.9-0.2-1.3c-0.3-0.1-0.6-0.1-1-0.1
		c-1.2,0-1.7,0.5-1.7,1.3c0,1.9,4.3,0.9,4.3,3.7C337.8,653,336.4,654.2,334.1,654.2z"/>
	<path d="M346.5,649.7h-5.6c-0.1,2.2,0.8,3.2,2.7,3.2c0.8,0,1.7-0.2,2.4-0.5l0.2,1.2c-0.9,0.3-1.9,0.5-3,0.5c-2.6,0-4-1.4-4-4.4
		c0-2.5,1.4-4.5,3.9-4.5c2.4,0,3.4,1.6,3.4,3.5C346.6,649,346.6,649.4,346.5,649.7z M343.1,646.5c-1.1,0-1.9,0.8-2.1,2.1h4
		C345,647.3,344.3,646.5,343.1,646.5z"/>
	<path d="M354.8,654v-5.5c0-1.2-0.3-1.9-1.4-1.9c-1.4,0-2.4,1.4-2.4,3.3v2.9c0.5,0,1,0.1,1.4,0.2v0.9h-4.4v-0.9
		c0.4-0.1,1-0.2,1.5-0.2v-6.2c-0.4-0.1-1-0.1-1.5-0.2v-0.9c0.9-0.1,2-0.2,3-0.1c0,0.5,0,1.3-0.1,1.8h0c0.5-1.2,1.6-2,3-2
		c1.9,0,2.6,1.2,2.6,2.7v4.8c0.5,0,1,0.1,1.4,0.2v0.9H354.8z"/>
	<path d="M362,654.2c-1.8,0-2.3-0.7-2.3-2.6v-4.9H358v-1.2h1.8v-2.8l1.5-0.4v3.2h2.4v1.2h-2.4v4.4c0,1.4,0.3,1.8,1.2,1.8
		c0.4,0,0.8-0.1,1.1-0.1l0.2,1.3C363.3,654.1,362.6,654.2,362,654.2z"/>
	<path d="M367.3,654.2c-0.7,0-1.4-0.1-2-0.2v-2.4h0.9c0.1,0.4,0.2,0.9,0.2,1.4c0.3,0.1,0.7,0.1,1,0.1c1.2,0,1.9-0.5,1.9-1.3
		c0-1.9-4.3-0.8-4.3-3.8c0-1.5,1.2-2.6,3.4-2.6c0.6,0,1.3,0.1,2,0.2v2.3h-0.9c-0.1-0.4-0.2-0.9-0.2-1.3c-0.3-0.1-0.6-0.1-1-0.1
		c-1.2,0-1.7,0.5-1.7,1.3c0,1.9,4.3,0.9,4.3,3.7C371,653,369.6,654.2,367.3,654.2z"/>
	<path d="M379.7,654.2c-1.8,0-2.3-0.7-2.3-2.6v-4.9h-1.8v-1.2h1.8v-2.8l1.5-0.4v3.2h2.4v1.2h-2.4v4.4c0,1.4,0.3,1.8,1.2,1.8
		c0.4,0,0.8-0.1,1.1-0.1l0.2,1.3C380.9,654.1,380.2,654.2,379.7,654.2z"/>
	<path d="M389.2,654v-5.5c0-1.2-0.3-1.9-1.5-1.9c-1.4,0-2.4,1.4-2.4,3.3v2.9c0.5,0,1,0.1,1.4,0.2v0.9h-4.4v-0.9
		c0.4-0.1,0.9-0.2,1.4-0.2v-10.2c-0.4-0.1-1-0.1-1.5-0.2v-0.9c0.9-0.1,2-0.2,3-0.1v4.1c0,0.6,0,1.2-0.2,1.7l0,0
		c0.5-1.2,1.5-1.9,3-1.9c1.9,0,2.6,1.2,2.6,2.7v4.8c0.5,0,1,0.1,1.4,0.2v0.9H389.2z"/>
	<path d="M400.3,649.7h-5.6c-0.1,2.2,0.8,3.2,2.7,3.2c0.8,0,1.7-0.2,2.4-0.5l0.2,1.2c-0.9,0.3-1.9,0.5-3,0.5c-2.6,0-4-1.4-4-4.4
		c0-2.5,1.4-4.5,3.9-4.5c2.4,0,3.4,1.6,3.4,3.5C400.4,649,400.4,649.4,400.3,649.7z M396.9,646.5c-1.1,0-1.9,0.8-2.1,2.1h4
		C398.8,647.3,398.1,646.5,396.9,646.5z"/>
	<path d="M411.6,654c0-0.5,0-1.2,0.1-1.7l0,0c-0.5,1.2-1.5,1.9-2.9,1.9c-2.1,0-3.1-1.5-3.1-4c0-3,1.7-4.8,4.4-4.8
		c0.5,0,0.9,0,1.4,0.1v-2.8c-0.4-0.1-1-0.1-1.5-0.2v-0.9c0.9-0.1,2-0.2,3-0.1v11.3c0.4,0.1,1,0.1,1.4,0.2v0.9
		C413.7,654,412.5,654.1,411.6,654z M411.5,646.8c-0.5-0.1-1-0.2-1.5-0.2c-1.6,0-2.7,1-2.7,3.4c0,1.8,0.6,2.9,1.9,2.9
		c1.5,0,2.3-1.8,2.3-3.3V646.8z"/>
	<path d="M415.3,654v-0.9c0.4-0.1,1-0.2,1.5-0.2v-6.2c-0.4-0.1-1-0.1-1.5-0.2v-0.9c0.9-0.1,2-0.2,3-0.1v7.4c0.5,0,1,0.1,1.4,0.2v0.9
		H415.3z M417.6,643.8c-0.6,0-1-0.4-1-1s0.5-1,1-1c0.6,0,1,0.4,1,1C418.6,643.3,418.2,643.8,417.6,643.8z"/>
	<path d="M432.2,642.8c-0.4-0.1-0.9-0.2-1.3-0.2c-1.2,0-1.8,0.7-1.8,2.2v0.7h2.4v1.2h-2.4v6.2c0.5,0,1,0.1,1.5,0.2v0.9h-4.4v-0.9
		c0.4-0.1,0.9-0.2,1.4-0.2v-6.2h-3.9v6.2c0.5,0,0.9,0.1,1.4,0.2v0.9h-4.4v-0.9c0.4-0.1,1-0.2,1.5-0.2v-6.2h-1.9v-1.2h1.9v-0.4
		c0-1.9,0.9-3.6,3.8-3.6c0.9,0,1.9,0.2,2.8,0.5c0.5-0.4,1.2-0.6,2.1-0.6c0.5,0,0.9,0.1,1.4,0.2L432.2,642.8z M426.1,642.7
		c-1.6,0-2.3,0.7-2.3,2.2v0.6h3.9v-0.6c0-0.7,0.1-1.3,0.4-1.8C427.3,642.9,426.7,642.7,426.1,642.7z"/>
	<path d="M439.7,649.7h-5.6c-0.1,2.2,0.8,3.2,2.7,3.2c0.8,0,1.7-0.2,2.4-0.5l0.2,1.2c-0.9,0.3-1.9,0.5-3,0.5c-2.6,0-4-1.4-4-4.4
		c0-2.5,1.4-4.5,3.9-4.5c2.4,0,3.4,1.6,3.4,3.5C439.7,649,439.7,649.4,439.7,649.7z M436.2,646.5c-1.1,0-1.9,0.8-2.1,2.1h4
		C438.2,647.3,437.4,646.5,436.2,646.5z"/>
	<path d="M446.9,646.8c-2-0.3-2.8,1-2.8,3.7v2.3c0.5,0,1,0.1,1.5,0.2v0.9H441v-0.9c0.4-0.1,1-0.2,1.5-0.2v-6.2
		c-0.4-0.1-1-0.1-1.5-0.2v-0.9c0.9-0.1,2-0.2,3-0.1c0,0.5-0.1,1.3-0.2,2h0c0.4-1.2,1.2-2.4,3.1-2.2L446.9,646.8z"/>
	<path d="M455.2,649.7h-5.6c-0.1,2.2,0.8,3.2,2.7,3.2c0.8,0,1.7-0.2,2.4-0.5l0.2,1.2c-0.9,0.3-1.9,0.5-3,0.5c-2.6,0-4-1.4-4-4.4
		c0-2.5,1.4-4.5,3.9-4.5c2.4,0,3.4,1.6,3.4,3.5C455.2,649,455.2,649.4,455.2,649.7z M451.7,646.5c-1.1,0-1.9,0.8-2.1,2.1h4
		C453.7,647.3,452.9,646.5,451.7,646.5z"/>
	<path d="M463.4,654v-5.5c0-1.2-0.3-1.9-1.4-1.9c-1.4,0-2.4,1.4-2.4,3.3v2.9c0.5,0,1,0.1,1.4,0.2v0.9h-4.4v-0.9
		c0.4-0.1,1-0.2,1.5-0.2v-6.2c-0.4-0.1-1-0.1-1.5-0.2v-0.9c0.9-0.1,2-0.2,3-0.1c0,0.5,0,1.3-0.1,1.8h0c0.5-1.2,1.6-2,3-2
		c1.9,0,2.6,1.2,2.6,2.7v4.8c0.5,0,1,0.1,1.4,0.2v0.9H463.4z"/>
	<path d="M471.3,654.2c-2.1,0-3.9-1-3.9-4.1c0-2.8,1.4-4.7,4.3-4.7c0.7,0,1.5,0.1,2.1,0.3v2.5h-1c-0.1-0.5-0.2-1-0.2-1.4
		c-0.3-0.1-0.7-0.1-1.2-0.1c-1.5,0-2.4,1.3-2.4,3.2c0,1.7,0.6,3,2.6,3c0.7,0,1.5-0.2,2-0.4l0.3,1.3
		C473.3,653.9,472.3,654.2,471.3,654.2z"/>
	<path d="M482.3,649.7h-5.6c-0.1,2.2,0.8,3.2,2.7,3.2c0.8,0,1.7-0.2,2.4-0.5l0.2,1.2c-0.9,0.3-1.9,0.5-3,0.5c-2.6,0-4-1.4-4-4.4
		c0-2.5,1.4-4.5,3.9-4.5c2.4,0,3.4,1.6,3.4,3.5C482.4,649,482.3,649.4,482.3,649.7z M478.9,646.5c-1.1,0-1.9,0.8-2.1,2.1h4
		C480.8,647.3,480.1,646.5,478.9,646.5z"/>
</g>
<g enable-background="new    ">
	<path d="M294.6,677.1c-1.2,0-2-0.1-2.9-0.3v-11.1c-0.4-0.1-1-0.1-1.5-0.2v-0.9c0.9-0.1,2-0.2,3-0.1v4.1c0,0.5-0.1,1.2-0.2,1.6l0,0
		c0.5-1.2,1.5-1.9,2.8-1.9c2,0,3.1,1.4,3.1,4C299.1,675.3,297.4,677.1,294.6,677.1z M295.6,669.5c-1.5,0-2.3,1.8-2.3,3.3v2.8
		c0.4,0.1,0.9,0.2,1.5,0.2c1.6,0,2.7-1,2.7-3.4C297.5,670.6,296.9,669.5,295.6,669.5z"/>
	<path d="M307.7,672.7h-5.6c-0.1,2.2,0.8,3.2,2.7,3.2c0.8,0,1.7-0.2,2.4-0.5l0.2,1.2c-0.9,0.3-1.9,0.5-3,0.5c-2.6,0-4-1.4-4-4.4
		c0-2.5,1.4-4.5,3.9-4.5c2.4,0,3.4,1.6,3.4,3.5C307.8,672,307.8,672.3,307.7,672.7z M304.3,669.4c-1.1,0-1.9,0.8-2.1,2.1h4
		C306.2,670.3,305.5,669.4,304.3,669.4z"/>
	<path d="M312.7,677.1c-1.8,0-2.3-0.7-2.3-2.6v-4.9h-1.8v-1.2h1.8v-2.8l1.5-0.4v3.2h2.4v1.2h-2.4v4.4c0,1.4,0.3,1.8,1.2,1.8
		c0.4,0,0.8-0.1,1.1-0.1l0.2,1.3C313.9,677,313.2,677.1,312.7,677.1z"/>
	<path d="M322.9,672.7h-5.6c-0.1,2.2,0.8,3.2,2.7,3.2c0.8,0,1.7-0.2,2.4-0.5l0.2,1.2c-0.9,0.3-1.9,0.5-3,0.5c-2.6,0-4-1.4-4-4.4
		c0-2.5,1.4-4.5,3.9-4.5c2.4,0,3.4,1.6,3.4,3.5C322.9,672,322.9,672.3,322.9,672.7z M319.4,669.4c-1.1,0-1.9,0.8-2.1,2.1h4
		C321.4,670.3,320.6,669.4,319.4,669.4z"/>
	<path d="M331.6,672.7H326c-0.1,2.2,0.8,3.2,2.7,3.2c0.8,0,1.7-0.2,2.4-0.5l0.2,1.2c-0.9,0.3-1.9,0.5-3,0.5c-2.6,0-4-1.4-4-4.4
		c0-2.5,1.4-4.5,3.9-4.5c2.4,0,3.4,1.6,3.4,3.5C331.7,672,331.7,672.3,331.6,672.7z M328.2,669.4c-1.1,0-1.9,0.8-2.1,2.1h4
		C330.1,670.3,329.4,669.4,328.2,669.4z"/>
	<path d="M339.9,677v-5.5c0-1.2-0.3-1.9-1.4-1.9c-1.4,0-2.4,1.4-2.4,3.3v2.9c0.5,0,1,0.1,1.4,0.2v0.9H333V676c0.4-0.1,1-0.2,1.5-0.2
		v-6.2c-0.4-0.1-1-0.1-1.5-0.2v-0.9c0.9-0.1,2-0.2,3-0.1c0,0.5,0,1.3-0.1,1.8h0c0.5-1.2,1.6-2,3-2c1.9,0,2.6,1.2,2.6,2.7v4.8
		c0.5,0,1,0.1,1.4,0.2v0.9H339.9z"/>
	<path d="M351.7,677.1c-0.6,0-0.9,0-1.5-0.1v3.1c0.5,0,1.1,0.1,1.5,0.2v0.9h-4.5v-0.9c0.4-0.1,0.9-0.2,1.4-0.2v-10.4
		c-0.4-0.1-0.9-0.1-1.4-0.2v-0.9c0.8-0.1,2-0.2,2.9-0.1c0,0.5-0.1,1.3-0.1,1.7l0,0c0.5-1.2,1.5-1.9,2.9-1.9c2,0,3.2,1.4,3.2,4
		C356.1,675.3,354.5,677.1,351.7,677.1z M352.6,669.5c-1.5,0-2.3,1.8-2.3,3.3v2.8c0.5,0.1,0.9,0.2,1.5,0.2c1.6,0,2.7-1,2.7-3.4
		C354.5,670.6,353.9,669.5,352.6,669.5z"/>
	<path d="M361.4,677.1c-2.3,0-3.8-1.3-3.8-4.3c0-2.6,1.6-4.6,4.2-4.6c2.2,0,3.8,1.2,3.8,4.3C365.6,675.1,364,677.1,361.4,677.1z
		 M361.6,669.6c-1.3,0-2.4,0.9-2.4,3.1c0,2,0.8,3.1,2.4,3.1c1.3,0,2.4-1,2.4-3.1C364,670.7,363.2,669.6,361.6,669.6z"/>
	<path d="M366.8,677V676c0.4-0.1,1-0.2,1.5-0.2v-6.2c-0.4-0.1-1-0.1-1.5-0.2v-0.9c0.9-0.1,2-0.2,3-0.1v7.4c0.5,0,1,0.1,1.4,0.2v0.9
		H366.8z M369.1,666.7c-0.6,0-1-0.4-1-1c0-0.6,0.5-1,1-1c0.6,0,1,0.4,1,1C370.1,666.3,369.6,666.7,369.1,666.7z"/>
	<path d="M379,677v-5.5c0-1.2-0.3-1.9-1.4-1.9c-1.4,0-2.4,1.4-2.4,3.3v2.9c0.5,0,1,0.1,1.4,0.2v0.9h-4.4V676c0.4-0.1,1-0.2,1.5-0.2
		v-6.2c-0.4-0.1-1-0.1-1.5-0.2v-0.9c0.9-0.1,2-0.2,3-0.1c0,0.5,0,1.3-0.1,1.8h0c0.5-1.2,1.6-2,3-2c1.9,0,2.6,1.2,2.6,2.7v4.8
		c0.5,0,1,0.1,1.4,0.2v0.9H379z"/>
	<path d="M386.2,677.1c-1.8,0-2.3-0.7-2.3-2.6v-4.9h-1.8v-1.2h1.8v-2.8l1.5-0.4v3.2h2.4v1.2h-2.4v4.4c0,1.4,0.3,1.8,1.2,1.8
		c0.4,0,0.8-0.1,1.1-0.1l0.2,1.3C387.5,677,386.8,677.1,386.2,677.1z"/>
	<path d="M391.5,677.1c-0.7,0-1.4-0.1-2-0.2v-2.4h0.9c0.1,0.4,0.2,0.9,0.2,1.4c0.3,0.1,0.7,0.1,1,0.1c1.2,0,1.9-0.5,1.9-1.3
		c0-1.9-4.3-0.8-4.3-3.8c0-1.5,1.2-2.6,3.4-2.6c0.6,0,1.3,0.1,2,0.2v2.3h-0.9c-0.1-0.4-0.2-0.9-0.2-1.3c-0.3-0.1-0.6-0.1-1-0.1
		c-1.2,0-1.7,0.5-1.7,1.3c0,1.9,4.3,0.9,4.3,3.7C395.2,675.9,393.8,677.1,391.5,677.1z"/>
	<path d="M407.4,677V676c0.4-0.1,0.9-0.2,1.3-0.2l-0.7-1.9h-4.9l-0.7,1.9c0.4,0,0.9,0.1,1.4,0.2v0.9h-4V676c0.3-0.1,0.7-0.2,1-0.2
		l3.8-10.5h1.9l3.8,10.5c0.3,0,0.7,0.1,1,0.2v0.9H407.4z M406.2,668.6c-0.2-0.6-0.4-1.1-0.5-1.7h0c-0.1,0.6-0.3,1.1-0.5,1.7
		l-1.5,4.1h4L406.2,668.6z"/>
	<path d="M421.4,677c0-0.6,0-1.2,0.1-1.7h0c-0.4,1-1.5,1.9-2.9,1.9c-1.4,0-2.4-0.9-2.4-2.3c0-1.8,1.9-2.9,5.1-2.9v-0.6
		c0-1.2-0.4-1.9-1.8-1.9c-0.5,0-1.1,0.1-1.6,0.2c0,0.4-0.1,0.9-0.2,1.4h-1v-2.3c0.9-0.3,1.9-0.5,2.9-0.5c2.5,0,3.2,1.2,3.2,2.9v4.6
		c0.4,0.1,1,0.1,1.4,0.2v0.9C423.5,677,422.3,677,421.4,677z M421.3,673c-2.7,0-3.6,0.7-3.6,1.6c0,0.7,0.5,1.3,1.3,1.3
		c1.4,0,2.3-1.4,2.3-2.7V673z"/>
	<path d="M432.1,677v-5.5c0-1.2-0.3-1.9-1.4-1.9c-1.4,0-2.4,1.4-2.4,3.3v2.9c0.5,0,1,0.1,1.4,0.2v0.9h-4.4V676
		c0.4-0.1,1-0.2,1.5-0.2v-6.2c-0.4-0.1-1-0.1-1.5-0.2v-0.9c0.9-0.1,2-0.2,3-0.1c0,0.5,0,1.3-0.1,1.8h0c0.5-1.2,1.6-2,3-2
		c1.9,0,2.6,1.2,2.6,2.7v4.8c0.5,0,1,0.1,1.4,0.2v0.9H432.1z"/>
	<path d="M442,677c0-0.5,0-1.2,0.1-1.7l0,0c-0.5,1.2-1.5,1.9-2.9,1.9c-2.1,0-3.1-1.5-3.1-4c0-3,1.7-4.8,4.4-4.8c0.5,0,0.9,0,1.4,0.1
		v-2.8c-0.4-0.1-1-0.1-1.5-0.2v-0.9c0.9-0.1,2-0.2,3-0.1v11.3c0.4,0.1,1,0.1,1.4,0.2v0.9C444.1,677,442.9,677,442,677z M441.9,669.7
		c-0.5-0.1-1-0.2-1.5-0.2c-1.6,0-2.7,1-2.7,3.4c0,1.8,0.6,2.9,1.9,2.9c1.5,0,2.3-1.8,2.3-3.3V669.7z"/>
	<path d="M453.9,677c-0.7,0-1.7-0.1-3-0.1h-1.5V676c0.4-0.1,1-0.2,1.5-0.2v-9.3c-0.5,0-1-0.1-1.5-0.2v-0.9h1.5
		c0.8,0,1.9-0.1,3.3-0.1c2.5,0,3.7,1,3.7,2.8c0,1.2-0.7,2.3-1.9,2.7v0c1.6,0.3,2.4,1.5,2.4,2.7C458.4,674.9,457.6,677,453.9,677z
		 M454,666.6c-0.5,0-1,0-1.5,0v3.8c0.3,0,0.6,0,1.1,0c1.9,0,2.7-0.8,2.7-2C456.3,667.3,455.8,666.6,454,666.6z M453.6,671.6
		c-0.2,0-0.8,0-1.1,0v4.1c0.3,0.1,0.8,0.1,1.5,0.1c1.9,0,2.7-0.9,2.7-2.2C456.8,672,455.4,671.6,453.6,671.6z"/>
	<path d="M461.3,677.1c-0.6,0-1.1-0.5-1.1-1.1s0.5-1.1,1.1-1.1c0.6,0,1.1,0.5,1.1,1.1S461.9,677.1,461.3,677.1z"/>
</g>
</svg>
