<?xml version="1.0" encoding="utf-8"?>
<!-- Generator: Adobe Illustrator 17.1.0, SVG Export Plug-In . SVG Version: 6.00 Build 0)  -->
<!DOCTYPE svg PUBLIC "-//W3C//DTD SVG 1.1//EN" "http://www.w3.org/Graphics/SVG/1.1/DTD/svg11.dtd">
<svg version="1.1" id="Layer_1" xmlns="http://www.w3.org/2000/svg" xmlns:xlink="http://www.w3.org/1999/xlink" x="0px" y="0px"
	 viewBox="0 242 612 200" enable-background="new 0 242 612 200" xml:space="preserve">
<circle cx="31.9" cy="376.4" r="5.5"/>
<text transform="matrix(1 0 0 1 115.8662 315.5156)" fill="#999999" font-family="'ArialMT'" font-size="17.2125">u</text>
<text transform="matrix(1 0 0 1 231.4473 327.1924)" font-family="'ArialMT'" font-size="17.2125">-4</text>
<text transform="matrix(1 0 0 1 406.4414 356.8359)" font-family="'ArialMT'" font-size="17.2125">-2</text>
<polyline fill="#FFFFFF" stroke="#999999" stroke-width="1.3" points="124.7,295 128.9,299.2 124.7,303.4 "/>
<line fill="none" stroke="#999999" stroke-width="1.3" x1="128.9" y1="299.2" x2="113" y2="299.2"/>
<text transform="matrix(1 0 0 1 121.5166 401.7129)" font-family="'ArialMT'" font-size="17.2125">8</text>
<text transform="matrix(1 0 0 1 345.2793 401.7129)" font-family="'ArialMT'" font-size="17.2125">4</text>
<line fill="none" stroke="#999999" stroke-width="1.3" x1="208.6" y1="284.2" x2="42.6" y2="369.5"/>
<polyline fill="none" stroke="#999999" stroke-width="1.3" points="201.2,281.6 209.4,283.4 207.6,291.6 "/>
<text transform="matrix(1 0 0 1 483.3848 348.666)" fill="#999999" font-family="'ArialMT'" font-size="17.2125">w</text>
<polyline fill="#FFFFFF" stroke="#999999" stroke-width="1.3" points="494.1,328.2 498.3,332.4 494.1,336.6 "/>
<line fill="none" stroke="#999999" stroke-width="1.3" x1="498.3" y1="332.4" x2="482.4" y2="332.4"/>
<text transform="matrix(1 0 0 1 537.5723 348.9844)" fill="#999999" font-family="'ArialMT'" font-size="17.2125">u</text>
<polyline fill="#FFFFFF" stroke="#999999" stroke-width="1.3" points="546.4,328.5 550.6,332.7 546.4,336.9 "/>
<line fill="none" stroke="#999999" stroke-width="1.3" x1="550.6" y1="332.7" x2="534.7" y2="332.7"/>
<text transform="matrix(1 0 0 1 580.2842 348.9854)" font-family="'ArialMT'" font-size="17.2125">2</text>
<text transform="matrix(1 0 0 1 514.0322 349.6221)" font-family="'ArialMT'" font-size="17.2125">=</text>
<text transform="matrix(1 0 0 1 560.8965 349.6221)" font-family="'ArialMT'" font-size="17.2125">/</text>
<circle cx="220.1" cy="277.9" r="5.5"/>
<line fill="none" stroke="#000000" stroke-width="1.3" stroke-dasharray="20,5" x1="33.8" y1="376.4" x2="225.2" y2="376.4"/>
<line fill="none" stroke="#000000" stroke-width="1.3" stroke-dasharray="20,5" x1="220.3" y1="278.9" x2="220.3" y2="374.6"/>
<line fill="none" stroke="#999999" stroke-width="1.3" x1="388.8" y1="329.3" x2="308.1" y2="370.8"/>
<line fill="none" stroke="#000000" stroke-width="1.3" stroke-dasharray="20,5" x1="303.8" y1="376.7" x2="398.9" y2="376.7"/>
<line fill="none" stroke="#000000" stroke-width="1.3" stroke-dasharray="20,5" x1="396" y1="330.2" x2="396" y2="378.2"/>
<polyline fill="none" stroke="#999999" stroke-width="1.3" points="381,327.6 389.1,329.3 387.4,337.6 "/>
<text transform="matrix(1 0 0 1 332.2969 339.1035)" fill="#999999" font-family="'ArialMT'" font-size="17.2125">w</text>
<polyline fill="#FFFFFF" stroke="#999999" stroke-width="1.3" points="343,318.6 347.2,322.8 343,327.1 "/>
<line fill="none" stroke="#999999" stroke-width="1.3" x1="347.2" y1="322.8" x2="331.3" y2="322.8"/>
<circle cx="300.2" cy="376" r="5.5"/>
<circle cx="396.9" cy="325.4" r="5.5"/>
</svg>
