<?xml version="1.0" encoding="utf-8"?>
<!-- Generator: Adobe Illustrator 18.0.0, SVG Export Plug-In . SVG Version: 6.00 Build 0)  -->
<!DOCTYPE svg PUBLIC "-//W3C//DTD SVG 1.1//EN" "http://www.w3.org/Graphics/SVG/1.1/DTD/svg11.dtd">
<svg version="1.1" id="Layer_1" xmlns="http://www.w3.org/2000/svg" xmlns:xlink="http://www.w3.org/1999/xlink" x="0px" y="0px"
	 viewBox="0 0 612 792" enable-background="new 0 0 612 792" xml:space="preserve">
<circle cx="31.9" cy="672.4" r="5.5"/>
<g enable-background="new    ">
	<path fill="#999999" d="M123.1,611.5c0-0.5,0-1.3,0.1-1.8h0c-0.5,1.2-1.5,2-3,2c-2,0-2.6-1.2-2.6-2.7v-4.8c-0.4-0.1-1-0.1-1.4-0.2
		v-0.9c0.8-0.1,2-0.2,3-0.1v5.5c0,1.2,0.3,1.9,1.5,1.9c1.4,0,2.4-1.4,2.4-3.3v-2.9c-0.4-0.1-0.9-0.1-1.4-0.2v-0.9
		c0.8-0.1,2-0.2,2.9-0.1v7.3c0.4,0.1,1,0.1,1.4,0.2v0.9C125.2,611.5,124,611.6,123.1,611.5z"/>
</g>
<g enable-background="new    ">
	<path d="M233.9,618.7v-1.4h5.4v1.4H233.9z"/>
	<path d="M249.3,621.7v2.9h-1.5v-2.9h-5.3l-0.1-1.3l4.8-7.6h2.2v7.5h2v1.4H249.3z M247.8,614.3L247.8,614.3l-3.9,6.1
		c1,0,3.2,0,3.9,0V614.3z"/>
</g>
<g enable-background="new    ">
	<path d="M408.9,648.3v-1.4h5.4v1.4H408.9z"/>
	<path d="M418.2,652.8v-1.3l2.5-2.2c2.2-1.8,2.7-2.6,2.7-3.7c0-1.1-0.7-1.9-2.1-1.9c-1,0-1.9,0.5-2.5,0.9l-0.3-1.4
		c0.9-0.6,1.9-0.9,3.1-0.9c2.3,0,3.5,1.3,3.5,3.1c0,1.5-0.8,2.6-2.7,4.2l-2.1,1.8l-0.1,0c0.8-0.1,2.7-0.1,5.2-0.1v1.5H418.2z"/>
</g>
<polyline fill="#FFFFFF" stroke="#999999" stroke-width="1.3" points="124.7,591 128.9,595.2 124.7,599.4 "/>
<line fill="none" stroke="#999999" stroke-width="1.3" x1="128.9" y1="595.2" x2="113" y2="595.2"/>
<g enable-background="new    ">
	<path d="M126.5,698c-2.4,0-3.8-1.2-3.8-2.9c0-1,0.5-2.1,2.4-3.2c-1.5-0.8-2.1-1.8-2.1-3c0-1.8,1.5-3,3.7-3c2.2,0,3.5,1.1,3.5,2.7
		c0,1.1-0.7,2-2.3,3.1c2,1,2.7,2,2.7,3.2C130.6,696.8,128.8,698,126.5,698z M126.5,692.5c-1.4,0.8-2.1,1.6-2.1,2.5
		c0,1,0.9,1.7,2.3,1.7c1.3,0,2.3-0.6,2.3-1.7C129,693.9,128.2,693.3,126.5,692.5z M126.6,687.1c-1.3,0-2,0.7-2,1.7
		c0,0.8,0.6,1.5,2,2.3c1.5-0.9,2-1.6,2-2.4C128.7,687.7,128,687.1,126.6,687.1z"/>
</g>
<g enable-background="new    ">
	<path d="M352.8,696.2v2.9h-1.5v-2.9H346l-0.1-1.3l4.8-7.6h2.2v7.5h2v1.4H352.8z M351.3,688.8L351.3,688.8l-3.9,6.1c1,0,3.2,0,3.9,0
		V688.8z"/>
</g>
<line fill="none" stroke="#999999" stroke-width="1.3" x1="208.6" y1="580.2" x2="42.6" y2="665.5"/>
<polyline fill="none" stroke="#999999" stroke-width="1.3" points="201.2,577.6 209.4,579.4 207.6,587.6 "/>
<g enable-background="new    ">
	<path fill="#999999" d="M496.9,637.2l-2.3,7.4h-1.8l-1.7-5c-0.2-0.5-0.3-1.1-0.5-1.7h0c-0.2,0.8-0.4,1.4-0.6,2.2l-1.4,4.6h-1.8
		l-2.2-7.4c-0.4,0-0.8-0.1-1.1-0.2v-0.9h3.9v0.9c-0.4,0.1-0.8,0.2-1.2,0.2l1,3.8c0.2,0.7,0.4,1.4,0.5,1.9h0c0.2-0.7,0.4-1.4,0.6-2.1
		l1.5-4.8h1.6l1.5,4.8c0.3,1,0.5,1.5,0.6,2.1h0c0.2-0.6,0.3-1.1,0.5-1.9l1.1-3.9c-0.4,0-0.8-0.1-1.2-0.2v-0.9h3.8v0.9
		C497.7,637.1,497.3,637.2,496.9,637.2z"/>
</g>
<polyline fill="#FFFFFF" stroke="#999999" stroke-width="1.3" points="494.1,624.2 498.3,628.4 494.1,632.6 "/>
<line fill="none" stroke="#999999" stroke-width="1.3" x1="498.3" y1="628.4" x2="482.4" y2="628.4"/>
<g enable-background="new    ">
	<path fill="#999999" d="M544.8,645c0-0.5,0-1.3,0.1-1.8h0c-0.5,1.2-1.5,2-3,2c-2,0-2.6-1.2-2.6-2.7v-4.8c-0.4-0.1-1-0.1-1.4-0.2
		v-0.9c0.8-0.1,2-0.2,3-0.1v5.5c0,1.2,0.3,1.9,1.5,1.9c1.4,0,2.4-1.4,2.4-3.3v-2.9c-0.4-0.1-0.9-0.1-1.4-0.2v-0.9
		c0.8-0.1,2-0.2,2.9-0.1v7.3c0.4,0.1,1,0.1,1.4,0.2v0.9C546.9,645,545.7,645,544.8,645z"/>
</g>
<polyline fill="#FFFFFF" stroke="#999999" stroke-width="1.3" points="546.4,624.5 550.6,628.7 546.4,632.9 "/>
<line fill="none" stroke="#999999" stroke-width="1.3" x1="550.6" y1="628.7" x2="534.7" y2="628.7"/>
<g enable-background="new    ">
	<path d="M581.7,645v-1.3l2.5-2.2c2.2-1.8,2.7-2.6,2.7-3.7c0-1.1-0.7-1.9-2.1-1.9c-1,0-1.9,0.5-2.5,0.9l-0.3-1.4
		c0.9-0.6,1.9-0.9,3.1-0.9c2.3,0,3.5,1.3,3.5,3.1c0,1.5-0.8,2.6-2.7,4.2l-2.1,1.8l-0.1,0c0.8-0.1,2.7-0.1,5.2-0.1v1.5H581.7z"/>
</g>
<text transform="matrix(1 0 0 1 514.0322 645.6221)" font-family="'ArialMT'" font-size="17.2125">=</text>
<text transform="matrix(1 0 0 1 560.8965 645.6221)" font-family="'ArialMT'" font-size="17.2125">/</text>
<circle cx="220.1" cy="573.9" r="5.5"/>
<line fill="none" stroke="#000000" stroke-width="1.3" stroke-dasharray="20,5" x1="33.8" y1="672.4" x2="225.2" y2="672.4"/>
<line fill="none" stroke="#000000" stroke-width="1.3" stroke-dasharray="20,5" x1="220.3" y1="574.9" x2="220.3" y2="670.6"/>
<line fill="none" stroke="#999999" stroke-width="1.3" x1="388.8" y1="625.3" x2="308.1" y2="666.8"/>
<line fill="none" stroke="#000000" stroke-width="1.3" stroke-dasharray="20,5" x1="303.8" y1="672.7" x2="398.9" y2="672.7"/>
<line fill="none" stroke="#000000" stroke-width="1.3" stroke-dasharray="20,5" x1="396" y1="626.2" x2="396" y2="674.2"/>
<polyline fill="none" stroke="#999999" stroke-width="1.3" points="381,623.6 389.1,625.3 387.4,633.6 "/>
<g enable-background="new    ">
	<path fill="#999999" d="M345.8,627.7l-2.3,7.4h-1.8l-1.7-5c-0.2-0.5-0.3-1.1-0.5-1.7h0c-0.2,0.8-0.4,1.4-0.6,2.2l-1.4,4.6h-1.8
		l-2.2-7.4c-0.4,0-0.8-0.1-1.1-0.2v-0.9h3.9v0.9c-0.4,0.1-0.8,0.2-1.2,0.2l1,3.8c0.2,0.7,0.4,1.4,0.5,1.9h0c0.2-0.7,0.4-1.4,0.6-2.1
		l1.5-4.8h1.6l1.5,4.8c0.3,1,0.5,1.5,0.6,2.1h0c0.2-0.6,0.3-1.1,0.5-1.9l1.1-3.9c-0.4,0-0.8-0.1-1.2-0.2v-0.9h3.8v0.9
		C346.6,627.6,346.2,627.7,345.8,627.7z"/>
</g>
<polyline fill="#FFFFFF" stroke="#999999" stroke-width="1.3" points="343,614.6 347.2,618.8 343,623.1 "/>
<line fill="none" stroke="#999999" stroke-width="1.3" x1="347.2" y1="618.8" x2="331.3" y2="618.8"/>
<circle cx="300.2" cy="672" r="5.5"/>
<circle cx="396.9" cy="621.4" r="5.5"/>
</svg>
