<?xml version="1.0" encoding="utf-8"?>
<!-- Generator: Adobe Illustrator 18.0.0, SVG Export Plug-In . SVG Version: 6.00 Build 0)  -->
<!DOCTYPE svg PUBLIC "-//W3C//DTD SVG 1.1//EN" "http://www.w3.org/Graphics/SVG/1.1/DTD/svg11.dtd">
<svg version="1.1" id="Layer_1" xmlns="http://www.w3.org/2000/svg" xmlns:xlink="http://www.w3.org/1999/xlink" x="0px" y="0px"
	 viewBox="0 0 640 480" enable-background="new 0 0 640 480" xml:space="preserve">
<circle cx="33.4" cy="219.5" r="5.8"/>
<text transform="matrix(1 0 0 1 121.167 155.833)" fill="#999999" font-family="'TheSerif-HP5Plain'" font-size="18">u</text>
<text transform="matrix(1 0 0 1 242.0361 168.0439)" font-family="'TheSerif-HP5Plain'" font-size="18">-4</text>
<text transform="matrix(1 0 0 1 425.0361 199.0439)" font-family="'TheSerif-HP5Plain'" font-size="18">-2</text>
<polyline fill="#FFFFFF" stroke="#999999" stroke-width="1.3" points="130.4,134.4 134.8,138.8 130.4,143.2 "/>
<line fill="#FFFFFF" stroke="#999999" stroke-width="1.3" x1="134.8" y1="138.8" x2="118.2" y2="138.8"/>
<text transform="matrix(1 0 0 1 127.0762 245.9736)" font-family="'TheSerif-HP5Plain'" font-size="18">8</text>
<text transform="matrix(1 0 0 1 361.0762 245.9736)" font-family="'TheSerif-HP5Plain'" font-size="18">4</text>
<line fill="none" stroke="#999999" stroke-width="1.3" x1="218.1" y1="123.1" x2="44.5" y2="212.3"/>
<polyline fill="none" stroke="#999999" stroke-width="1.3" points="210.4,120.4 219,122.3 217.1,130.8 "/>
<text transform="matrix(1 0 0 1 505.5 190.5)" fill="#999999" font-family="'TheSerif-HP5Plain'" font-size="18">w</text>
<polyline fill="#FFFFFF" stroke="#999999" stroke-width="1.3" points="516.7,169.1 521.1,173.5 516.7,177.9 "/>
<line fill="#FFFFFF" stroke="#999999" stroke-width="1.3" x1="521.1" y1="173.5" x2="504.5" y2="173.5"/>
<text transform="matrix(1 0 0 1 562.167 190.833)" fill="#999999" font-family="'TheSerif-HP5Plain'" font-size="18">u</text>
<polyline fill="#FFFFFF" stroke="#999999" stroke-width="1.3" points="571.4,169.4 575.8,173.8 571.4,178.2 "/>
<line fill="#FFFFFF" stroke="#999999" stroke-width="1.3" x1="575.8" y1="173.8" x2="559.2" y2="173.8"/>
<text transform="matrix(1 0 0 1 606.833 190.834)" font-family="'TheSerif-HP5Plain'" font-size="18">2</text>
<text transform="matrix(1 0 0 1 537.5503 191.5)" font-family="'TheSerif-HP5Plain'" font-size="18">=</text>
<text transform="matrix(1 0 0 1 586.5581 191.5)" font-family="'TheSerif-HP5Plain'" font-size="18">/</text>
<circle cx="230.2" cy="116.5" r="5.8"/>
<line fill="none" stroke="#000000" stroke-width="1.3" stroke-dasharray="20,5" x1="35.3" y1="219.5" x2="235.5" y2="219.5"/>
<line fill="none" stroke="#000000" stroke-width="1.3" stroke-dasharray="20,5" x1="230.4" y1="117.5" x2="230.4" y2="217.6"/>
<line fill="none" stroke="#999999" stroke-width="1.3" x1="406.6" y1="170.2" x2="322.2" y2="213.6"/>
<line fill="none" stroke="#000000" stroke-width="1.3" stroke-dasharray="20,5" x1="317.7" y1="219.8" x2="417.2" y2="219.8"/>
<line fill="none" stroke="#000000" stroke-width="1.3" stroke-dasharray="20,5" x1="414.1" y1="171.2" x2="414.1" y2="221.4"/>
<polyline fill="none" stroke="#999999" stroke-width="1.3" points="398.4,168.5 406.9,170.3 405.1,178.9 "/>
<text transform="matrix(1 0 0 1 347.5 180.5)" fill="#999999" font-family="'TheSerif-HP5Plain'" font-size="18">w</text>
<polyline fill="#FFFFFF" stroke="#999999" stroke-width="1.3" points="358.7,159.1 363.1,163.5 358.7,167.9 "/>
<line fill="#FFFFFF" stroke="#999999" stroke-width="1.3" x1="363.1" y1="163.5" x2="346.5" y2="163.5"/>
<circle cx="313.9" cy="219.1" r="5.8"/>
<circle cx="415.1" cy="166.2" r="5.8"/>
</svg>
