<?xml version="1.0" encoding="utf-8"?>
<!-- Generator: Adobe Illustrator 18.0.0, SVG Export Plug-In . SVG Version: 6.00 Build 0)  -->
<!DOCTYPE svg PUBLIC "-//W3C//DTD SVG 1.1//EN" "http://www.w3.org/Graphics/SVG/1.1/DTD/svg11.dtd">
<svg version="1.1" id="Layer_1" xmlns="http://www.w3.org/2000/svg" xmlns:xlink="http://www.w3.org/1999/xlink" x="0px" y="0px"
	 viewBox="0 0 640 480" enable-background="new 0 0 640 480" xml:space="preserve">
<circle cx="210.6" cy="299.6" r="5.8"/>
<line fill="none" stroke="#999999" stroke-width="1.3" x1="219.4" y1="292.8" x2="432.2" y2="82.7"/>
<text transform="matrix(1 0 0 1 359.8545 59.5381)"><tspan x="0" y="0" font-family="'TheSerif-HP5Plain'" font-size="18">New</tspan><tspan x="-15.6" y="18" font-family="'TheSerif-HP5Plain'" font-size="18">Location</tspan></text>
<text transform="matrix(1 0 0 1 126.6553 309.4727)"><tspan x="0" y="0" font-family="'TheSerif-HP5Plain'" font-size="18">Original</tspan><tspan x="-1.3" y="18" font-family="'TheSerif-HP5Plain'" font-size="18">Location</tspan></text>
<text transform="matrix(1 0 0 1 143.5 176.5)"><tspan x="0" y="0" fill="#999999" font-family="'TheSerif-HP5Plain'" font-size="18">A Vector telling us</tspan><tspan x="0" y="21.6" fill="#999999" font-family="'TheSerif-HP5Plain'" font-size="18">how to get there!</tspan></text>
<line fill="none" stroke="#000000" stroke-width="1.3" stroke-dasharray="20,5" x1="222.3" y1="299.5" x2="445.7" y2="299.5"/>
<line fill="none" stroke="#000000" stroke-width="1.3" stroke-dasharray="20,5" x1="441.5" y1="77.3" x2="441.5" y2="298"/>
<circle cx="441.7" cy="77.8" r="5.8"/>
<text transform="matrix(1 0 0 1 460.7305 183.5)"><tspan x="0" y="0" font-family="'TheSerif-HP5Plain'" font-size="18">Vertical</tspan><tspan x="10.2" y="21.6" font-family="'TheSerif-HP5Plain'" font-size="18">Steps</tspan></text>
<text transform="matrix(1 0 0 1 287.085 333.5)"><tspan x="0" y="0" font-family="'TheSerif-HP5Plain'" font-size="18">Horizontal</tspan><tspan x="21.8" y="21.6" font-family="'TheSerif-HP5Plain'" font-size="18">Steps</tspan></text>
<polyline fill="none" stroke="#999999" stroke-width="1.3" points="423.8,81.8 432.5,81.8 432.5,90.5 "/>
</svg>
