<?xml version="1.0" encoding="utf-8"?>
<!-- Generator: Adobe Illustrator 18.0.0, SVG Export Plug-In . SVG Version: 6.00 Build 0)  -->
<!DOCTYPE svg PUBLIC "-//W3C//DTD SVG 1.1//EN" "http://www.w3.org/Graphics/SVG/1.1/DTD/svg11.dtd">
<svg version="1.1" id="Layer_1" xmlns="http://www.w3.org/2000/svg" xmlns:xlink="http://www.w3.org/1999/xlink" x="0px" y="0px"
	 viewBox="0 0 612 792" enable-background="new 0 0 612 792" xml:space="preserve">
<circle cx="201.4" cy="649" r="5.5"/>
<line fill="none" stroke="#999999" stroke-width="1.3" x1="209.8" y1="642.5" x2="413.3" y2="441.6"/>
<g enable-background="new    ">
	<path d="M355.4,409v10.4h-2.1l-4.5-7.3c-0.5-0.8-1-1.7-1.3-2.5c0.1,2,0.1,5,0.1,8.7c0.5,0,1,0.1,1.4,0.2v0.9h-4.4v-0.9
		c0.4-0.1,1-0.2,1.5-0.2V409c-0.5,0-1-0.1-1.5-0.2v-0.9h3.6l4.4,7.2c0.5,0.8,1,1.7,1.4,2.5c-0.1-2-0.1-5-0.1-8.6
		c-0.5,0-0.9-0.1-1.3-0.2v-0.9h4.1v0.9C356.3,408.8,355.8,408.9,355.4,409z"/>
	<path d="M365,415.1h-5.6c-0.1,2.2,0.8,3.2,2.7,3.2c0.8,0,1.7-0.2,2.4-0.5l0.2,1.2c-0.9,0.3-1.9,0.5-3,0.5c-2.6,0-4-1.4-4-4.4
		c0-2.5,1.4-4.5,3.9-4.5c2.4,0,3.4,1.6,3.4,3.5C365.1,414.4,365,414.8,365,415.1z M361.6,411.9c-1.1,0-1.9,0.8-2.1,2.1h4
		C363.5,412.7,362.8,411.9,361.6,411.9z"/>
	<path d="M379.2,412l-2.3,7.4H375l-1.7-5c-0.2-0.5-0.3-1.1-0.5-1.7h0c-0.2,0.8-0.4,1.4-0.6,2.2l-1.4,4.6H369l-2.2-7.4
		c-0.4,0-0.8-0.1-1.1-0.2v-0.9h3.9v0.9c-0.4,0.1-0.8,0.2-1.2,0.2l1,3.8c0.2,0.7,0.4,1.4,0.5,1.9h0c0.2-0.7,0.4-1.4,0.6-2.1l1.5-4.8
		h1.6l1.5,4.8c0.3,1,0.5,1.5,0.6,2.1h0c0.2-0.6,0.3-1.1,0.5-1.9l1.1-3.9c-0.4,0-0.8-0.1-1.2-0.2v-0.9h3.8v0.9
		C379.9,411.9,379.5,412,379.2,412z"/>
</g>
<g enable-background="new    ">
	<path d="M329.7,436.6v-0.9c0.4-0.1,1-0.2,1.5-0.2v-9.3c-0.5,0-1-0.1-1.5-0.2V425h4.6v0.9c-0.4,0.1-1,0.2-1.5,0.2v9.2h3
		c0.1-0.5,0.2-1.1,0.3-1.7h1.1v3H329.7z"/>
	<path d="M341.9,436.8c-2.3,0-3.8-1.3-3.8-4.3c0-2.6,1.6-4.6,4.2-4.6c2.2,0,3.8,1.2,3.8,4.3C346.1,434.8,344.5,436.8,341.9,436.8z
		 M342.1,429.2c-1.3,0-2.4,0.9-2.4,3.1c0,2,0.8,3.1,2.4,3.1c1.3,0,2.4-1,2.4-3.1C344.5,430.4,343.7,429.2,342.1,429.2z"/>
	<path d="M351.4,436.8c-2.1,0-3.9-1-3.9-4.1c0-2.8,1.4-4.7,4.3-4.7c0.7,0,1.5,0.1,2.1,0.3v2.5h-1c-0.1-0.5-0.2-1-0.2-1.4
		c-0.3-0.1-0.7-0.1-1.2-0.1c-1.5,0-2.4,1.3-2.4,3.2c0,1.7,0.6,3,2.6,3c0.7,0,1.5-0.2,2-0.4l0.3,1.3
		C353.4,436.6,352.4,436.8,351.4,436.8z"/>
	<path d="M360.5,436.6c0-0.6,0-1.2,0.1-1.7h0c-0.4,1.1-1.5,1.9-2.9,1.9s-2.4-0.9-2.4-2.3c0-1.8,1.9-2.9,5.1-2.9V431
		c0-1.2-0.4-1.9-1.8-1.9c-0.5,0-1.1,0.1-1.6,0.2c0,0.4-0.1,0.9-0.2,1.4h-1v-2.3c0.9-0.3,1.9-0.5,2.9-0.5c2.5,0,3.2,1.2,3.2,2.9v4.6
		c0.4,0.1,1,0.1,1.4,0.2v0.9C362.6,436.6,361.4,436.7,360.5,436.6z M360.4,432.7c-2.7,0-3.6,0.7-3.6,1.6c0,0.7,0.5,1.3,1.3,1.3
		c1.4,0,2.3-1.4,2.3-2.7V432.7z"/>
	<path d="M367.6,436.8c-1.8,0-2.3-0.7-2.3-2.6v-4.9h-1.8v-1.2h1.8v-2.8l1.5-0.4v3.2h2.4v1.2h-2.4v4.4c0,1.4,0.3,1.8,1.2,1.8
		c0.4,0,0.8-0.1,1.1-0.1l0.2,1.3C368.8,436.7,368.1,436.8,367.6,436.8z"/>
	<path d="M370.3,436.6v-0.9c0.4-0.1,1-0.2,1.5-0.2v-6.2c-0.4-0.1-1-0.1-1.5-0.2v-0.9c0.9-0.1,2-0.2,3-0.1v7.4c0.5,0,1,0.1,1.4,0.2
		v0.9H370.3z M372.6,426.4c-0.6,0-1-0.4-1-1c0-0.6,0.5-1,1-1c0.6,0,1,0.4,1,1C373.7,425.9,373.2,426.4,372.6,426.4z"/>
	<path d="M379.5,436.8c-2.3,0-3.8-1.3-3.8-4.3c0-2.6,1.6-4.6,4.2-4.6c2.2,0,3.8,1.2,3.8,4.3C383.6,434.8,382.1,436.8,379.5,436.8z
		 M379.7,429.2c-1.3,0-2.4,0.9-2.4,3.1c0,2,0.8,3.1,2.4,3.1c1.3,0,2.4-1,2.4-3.1C382,430.4,381.2,429.2,379.7,429.2z"/>
	<path d="M391.8,436.6v-5.5c0-1.2-0.3-1.9-1.4-1.9c-1.4,0-2.4,1.4-2.4,3.3v2.9c0.5,0,1,0.1,1.4,0.2v0.9h-4.4v-0.9
		c0.4-0.1,1-0.2,1.5-0.2v-6.2c-0.4-0.1-1-0.1-1.5-0.2v-0.9c0.9-0.1,2-0.2,3-0.1c0,0.5,0,1.3-0.1,1.8h0c0.5-1.2,1.6-2,3-2
		c1.9,0,2.6,1.2,2.6,2.7v4.8c0.5,0,1,0.1,1.4,0.2v0.9H391.8z"/>
</g>
<g enable-background="new    ">
	<path d="M127,658.6c-3.4,0-5.2-2.3-5.2-5.8c0-3.9,2.5-6.1,5.5-6.1c3.4,0,5.2,2.3,5.2,5.8C132.5,656.4,130,658.6,127,658.6z
		 M127.2,648c-2.1,0-3.7,1.6-3.7,4.5c0,2.8,1.2,4.7,3.7,4.7c2.1,0,3.7-1.6,3.7-4.5C130.9,649.9,129.6,648,127.2,648z"/>
	<path d="M139.6,651.3c-2-0.3-2.8,1-2.8,3.7v2.3c0.5,0,1,0.1,1.5,0.2v0.9h-4.5v-0.9c0.4-0.1,1-0.2,1.5-0.2v-6.2
		c-0.4-0.1-1-0.1-1.5-0.2V650c0.9-0.1,2-0.2,3-0.1c0,0.5-0.1,1.3-0.2,2h0c0.4-1.2,1.2-2.4,3.1-2.2L139.6,651.3z"/>
	<path d="M140.6,658.4v-0.9c0.4-0.1,1-0.2,1.5-0.2v-6.2c-0.4-0.1-1-0.1-1.5-0.2V650c0.9-0.1,2-0.2,3-0.1v7.4c0.5,0,1,0.1,1.4,0.2
		v0.9H140.6z M142.9,648.2c-0.6,0-1-0.4-1-1c0-0.6,0.5-1,1-1c0.6,0,1,0.4,1,1C143.9,647.7,143.4,648.2,142.9,648.2z"/>
	<path d="M149.7,662.8c-2.2,0-3.6-0.9-3.6-2.6c0-1,0.7-1.8,1.4-2.3c-0.5-0.2-0.8-0.7-0.8-1.3c0-0.6,0.4-1.2,0.9-1.4
		c-0.8-0.5-1.3-1.2-1.3-2.4c0-1.7,1.3-3.2,3.6-3.2c0.5,0,0.8,0.1,1.2,0.2h2.9v1.2h-1.4c0.4,0.3,0.7,0.9,0.7,1.6
		c0,1.8-1.2,3.1-3.6,3.1c-0.3,0-0.6,0-0.9-0.1c-0.4,0.2-0.6,0.4-0.6,0.7c0,0.5,0.4,0.6,1.5,0.7l1.6,0.1c1.8,0.1,2.9,0.9,2.9,2.5
		C154.2,661.4,152.4,662.8,149.7,662.8z M150.9,658.4l-1.7-0.1c-0.2,0-0.4,0-0.5,0c-0.7,0.5-1.1,1-1.1,1.7c0,1,1,1.6,2.3,1.6
		c1.7,0,2.7-0.8,2.7-1.8C152.6,659,152.1,658.4,150.9,658.4z M149.9,650.9c-1.3,0-2,0.8-2,1.9c0,1.2,0.7,1.9,2,1.9
		c1.2,0,2-0.7,2-1.9C151.9,651.6,151.2,650.9,149.9,650.9z"/>
	<path d="M155.2,658.4v-0.9c0.4-0.1,1-0.2,1.5-0.2v-6.2c-0.4-0.1-1-0.1-1.5-0.2V650c0.9-0.1,2-0.2,3-0.1v7.4c0.5,0,1,0.1,1.4,0.2
		v0.9H155.2z M157.5,648.2c-0.6,0-1-0.4-1-1c0-0.6,0.5-1,1-1c0.6,0,1,0.4,1,1C158.5,647.7,158.1,648.2,157.5,648.2z"/>
	<path d="M167.4,658.4v-5.5c0-1.2-0.3-1.9-1.4-1.9c-1.4,0-2.4,1.4-2.4,3.3v2.9c0.5,0,1,0.1,1.4,0.2v0.9h-4.4v-0.9
		c0.4-0.1,1-0.2,1.5-0.2v-6.2c-0.4-0.1-1-0.1-1.5-0.2V650c0.9-0.1,2-0.2,3-0.1c0,0.5,0,1.3-0.1,1.8h0c0.5-1.2,1.6-2,3-2
		c1.9,0,2.6,1.2,2.6,2.7v4.8c0.5,0,1,0.1,1.4,0.2v0.9H167.4z"/>
	<path d="M176.6,658.4c0-0.6,0-1.2,0.1-1.7h0c-0.4,1-1.5,1.9-2.9,1.9c-1.4,0-2.4-0.9-2.4-2.3c0-1.8,1.9-2.9,5.1-2.9v-0.6
		c0-1.2-0.4-1.9-1.8-1.9c-0.5,0-1.1,0.1-1.6,0.2c0,0.4-0.1,0.9-0.2,1.4h-1v-2.3c0.9-0.3,1.9-0.5,2.9-0.5c2.5,0,3.2,1.2,3.2,2.9v4.6
		c0.4,0.1,1,0.1,1.4,0.2v0.9C178.7,658.4,177.5,658.5,176.6,658.4z M176.5,654.5c-2.7,0-3.6,0.7-3.6,1.6c0,0.7,0.5,1.3,1.3,1.3
		c1.4,0,2.3-1.4,2.3-2.7V654.5z"/>
	<path d="M180.1,658.4v-0.9c0.4-0.1,0.9-0.2,1.4-0.2v-10.2c-0.4-0.1-1-0.1-1.5-0.2V646c0.9-0.1,2-0.2,3-0.1v11.4
		c0.5,0,1,0.1,1.4,0.2v0.9H180.1z"/>
</g>
<g enable-background="new    ">
	<path d="M120.4,675.6v-0.9c0.4-0.1,1-0.2,1.5-0.2v-9.3c-0.5,0-1-0.1-1.5-0.2V664h4.6v0.9c-0.4,0.1-1,0.2-1.5,0.2v9.2h3
		c0.1-0.5,0.2-1.1,0.3-1.7h1.1v3H120.4z"/>
	<path d="M132.6,675.8c-2.3,0-3.8-1.3-3.8-4.3c0-2.6,1.6-4.6,4.2-4.6c2.2,0,3.8,1.2,3.8,4.3C136.8,673.8,135.2,675.8,132.6,675.8z
		 M132.8,668.2c-1.3,0-2.4,0.9-2.4,3.1c0,2,0.8,3.1,2.4,3.1c1.3,0,2.4-1,2.4-3.1C135.2,669.4,134.3,668.2,132.8,668.2z"/>
	<path d="M142.1,675.8c-2.1,0-3.9-1-3.9-4.1c0-2.8,1.4-4.7,4.3-4.7c0.7,0,1.5,0.1,2.1,0.3v2.5h-1c-0.1-0.5-0.2-1-0.2-1.4
		c-0.3-0.1-0.7-0.1-1.2-0.1c-1.5,0-2.4,1.3-2.4,3.2c0,1.7,0.6,3,2.6,3c0.7,0,1.5-0.2,2-0.4l0.3,1.3
		C144,675.6,143.1,675.8,142.1,675.8z"/>
	<path d="M151.1,675.6c0-0.6,0-1.2,0.1-1.7h0c-0.4,1-1.5,1.9-2.9,1.9c-1.4,0-2.4-0.9-2.4-2.3c0-1.8,1.9-2.9,5.1-2.9V670
		c0-1.2-0.4-1.9-1.8-1.9c-0.5,0-1.1,0.1-1.6,0.2c0,0.4-0.1,0.9-0.2,1.4h-1v-2.3c0.9-0.3,1.9-0.5,2.9-0.5c2.5,0,3.2,1.2,3.2,2.9v4.6
		c0.4,0.1,1,0.1,1.4,0.2v0.9C153.2,675.6,152.1,675.7,151.1,675.6z M151,671.7c-2.7,0-3.6,0.7-3.6,1.6c0,0.7,0.5,1.3,1.3,1.3
		c1.4,0,2.3-1.4,2.3-2.7V671.7z"/>
	<path d="M158.2,675.8c-1.8,0-2.3-0.7-2.3-2.6v-4.9h-1.8v-1.2h1.8v-2.8l1.5-0.4v3.2h2.4v1.2h-2.4v4.4c0,1.4,0.3,1.8,1.2,1.8
		c0.4,0,0.8-0.1,1.1-0.1l0.2,1.3C159.5,675.7,158.8,675.8,158.2,675.8z"/>
	<path d="M161,675.6v-0.9c0.4-0.1,1-0.2,1.5-0.2v-6.2c-0.4-0.1-1-0.1-1.5-0.2v-0.9c0.9-0.1,2-0.2,3-0.1v7.4c0.5,0,1,0.1,1.4,0.2v0.9
		H161z M163.3,665.4c-0.6,0-1-0.4-1-1c0-0.6,0.5-1,1-1c0.6,0,1,0.4,1,1C164.3,664.9,163.9,665.4,163.3,665.4z"/>
	<path d="M170.1,675.8c-2.3,0-3.8-1.3-3.8-4.3c0-2.6,1.6-4.6,4.2-4.6c2.2,0,3.8,1.2,3.8,4.3C174.3,673.8,172.7,675.8,170.1,675.8z
		 M170.3,668.2c-1.3,0-2.4,0.9-2.4,3.1c0,2,0.8,3.1,2.4,3.1c1.3,0,2.4-1,2.4-3.1C172.7,669.4,171.9,668.2,170.3,668.2z"/>
	<path d="M182.5,675.6v-5.5c0-1.2-0.3-1.9-1.4-1.9c-1.4,0-2.4,1.4-2.4,3.3v2.9c0.5,0,1,0.1,1.4,0.2v0.9h-4.4v-0.9
		c0.4-0.1,1-0.2,1.5-0.2v-6.2c-0.4-0.1-1-0.1-1.5-0.2v-0.9c0.9-0.1,2-0.2,3-0.1c0,0.5,0,1.3-0.1,1.8h0c0.5-1.2,1.6-2,3-2
		c1.9,0,2.6,1.2,2.6,2.7v4.8c0.5,0,1,0.1,1.4,0.2v0.9H182.5z"/>
</g>
<g enable-background="new    ">
	<path fill="#999999" d="M144.8,531.3v-0.9c0.4-0.1,0.9-0.2,1.3-0.2l-0.7-1.9h-4.9l-0.7,1.9c0.4,0,0.9,0.1,1.4,0.2v0.9h-4v-0.9
		c0.3-0.1,0.7-0.2,1-0.2l3.8-10.5h1.9l3.8,10.5c0.3,0,0.7,0.1,1,0.2v0.9H144.8z M143.6,522.9c-0.2-0.6-0.4-1.1-0.5-1.7h0
		c-0.1,0.6-0.3,1.1-0.5,1.7l-1.5,4.1h4L143.6,522.9z"/>
	<path fill="#999999" d="M163.4,520.8l-3.8,10.5h-1.8l-3.7-10.5c-0.3,0-0.8-0.1-1.1-0.2v-0.9h4.2v0.9c-0.4,0.1-0.9,0.2-1.4,0.2
		l2.2,6.3c0.2,0.7,0.5,1.6,0.8,2.4h0c0.2-0.8,0.5-1.6,0.8-2.5l2.2-6.2c-0.5,0-0.9-0.1-1.4-0.2v-0.9h4v0.9
		C164.1,520.7,163.7,520.8,163.4,520.8z"/>
	<path fill="#999999" d="M171.2,527h-5.6c-0.1,2.2,0.8,3.2,2.7,3.2c0.8,0,1.7-0.2,2.4-0.5l0.2,1.2c-0.9,0.3-1.9,0.5-3,0.5
		c-2.6,0-4-1.4-4-4.4c0-2.5,1.4-4.5,3.9-4.5c2.4,0,3.4,1.6,3.4,3.5C171.2,526.3,171.2,526.6,171.2,527z M167.7,523.7
		c-1.1,0-1.9,0.8-2.1,2.1h4C169.7,524.6,168.9,523.7,167.7,523.7z"/>
	<path fill="#999999" d="M176.6,531.4c-2.1,0-3.9-1-3.9-4.1c0-2.8,1.4-4.7,4.3-4.7c0.7,0,1.5,0.1,2.1,0.3v2.5h-1
		c-0.1-0.5-0.2-1-0.2-1.4c-0.3-0.1-0.7-0.1-1.2-0.1c-1.5,0-2.4,1.3-2.4,3.2c0,1.7,0.6,3,2.6,3c0.7,0,1.5-0.2,2-0.4l0.3,1.3
		C178.6,531.2,177.6,531.4,176.6,531.4z"/>
	<path fill="#999999" d="M183.8,531.4c-1.8,0-2.3-0.7-2.3-2.6v-4.9h-1.8v-1.2h1.8V520l1.5-0.4v3.2h2.4v1.2H183v4.4
		c0,1.4,0.3,1.8,1.2,1.8c0.4,0,0.8-0.1,1.1-0.1l0.2,1.3C185,531.3,184.3,531.4,183.8,531.4z"/>
	<path fill="#999999" d="M190.6,531.4c-2.3,0-3.8-1.3-3.8-4.3c0-2.6,1.6-4.6,4.2-4.6c2.2,0,3.8,1.2,3.8,4.3
		C194.8,529.4,193.2,531.4,190.6,531.4z M190.8,523.9c-1.3,0-2.4,0.9-2.4,3.1c0,2,0.8,3.1,2.4,3.1c1.3,0,2.4-1,2.4-3.1
		C193.2,525,192.4,523.9,190.8,523.9z"/>
	<path fill="#999999" d="M201.9,524.1c-2-0.3-2.8,1-2.8,3.7v2.3c0.5,0,1.1,0.1,1.5,0.2v0.9H196v-0.9c0.4-0.1,1-0.2,1.5-0.2v-6.2
		c-0.4-0.1-1-0.1-1.5-0.2v-0.9c0.9-0.1,2-0.2,3-0.1c0,0.5-0.1,1.3-0.2,2h0c0.4-1.2,1.2-2.4,3.1-2.2L201.9,524.1z"/>
	<path fill="#999999" d="M210.1,531.4c-1.8,0-2.3-0.7-2.3-2.6v-4.9H206v-1.2h1.8V520l1.5-0.4v3.2h2.4v1.2h-2.4v4.4
		c0,1.4,0.3,1.8,1.2,1.8c0.4,0,0.8-0.1,1.1-0.1l0.2,1.3C211.3,531.3,210.6,531.4,210.1,531.4z"/>
	<path fill="#999999" d="M220.3,527h-5.6c-0.1,2.2,0.8,3.2,2.7,3.2c0.8,0,1.7-0.2,2.4-0.5l0.2,1.2c-0.9,0.3-1.9,0.5-3,0.5
		c-2.6,0-4-1.4-4-4.4c0-2.5,1.4-4.5,3.9-4.5c2.4,0,3.4,1.6,3.4,3.5C220.3,526.3,220.3,526.6,220.3,527z M216.8,523.7
		c-1.1,0-1.9,0.8-2.1,2.1h4C218.8,524.6,218,523.7,216.8,523.7z"/>
	<path fill="#999999" d="M221.4,531.3v-0.9c0.4-0.1,0.9-0.2,1.4-0.2v-10.2c-0.4-0.1-1-0.1-1.5-0.2v-0.9c0.9-0.1,2-0.2,3-0.1v11.4
		c0.5,0,1,0.1,1.4,0.2v0.9H221.4z"/>
	<path fill="#999999" d="M226.5,531.3v-0.9c0.4-0.1,0.9-0.2,1.4-0.2v-10.2c-0.4-0.1-1-0.1-1.5-0.2v-0.9c0.9-0.1,2-0.2,3-0.1v11.4
		c0.5,0,1,0.1,1.4,0.2v0.9H226.5z"/>
	<path fill="#999999" d="M231.7,531.3v-0.9c0.4-0.1,1-0.2,1.5-0.2v-6.2c-0.4-0.1-1-0.1-1.5-0.2v-0.9c0.9-0.1,2-0.2,3-0.1v7.4
		c0.5,0,1,0.1,1.4,0.2v0.9H231.7z M234,521c-0.6,0-1-0.4-1-1c0-0.6,0.5-1,1-1c0.6,0,1,0.4,1,1C235,520.6,234.6,521,234,521z"/>
	<path fill="#999999" d="M244,531.3v-5.5c0-1.2-0.3-1.9-1.4-1.9c-1.4,0-2.4,1.4-2.4,3.3v2.9c0.5,0,1,0.1,1.4,0.2v0.9H237v-0.9
		c0.4-0.1,1-0.2,1.5-0.2v-6.2c-0.4-0.1-1-0.1-1.5-0.2v-0.9c0.9-0.1,2-0.2,3-0.1c0,0.5,0,1.3-0.1,1.8h0c0.5-1.2,1.6-2,3-2
		c1.9,0,2.6,1.2,2.6,2.7v4.8c0.5,0,1,0.1,1.4,0.2v0.9H244z"/>
	<path fill="#999999" d="M251.5,535.7c-2.2,0-3.6-0.9-3.6-2.6c0-1,0.7-1.8,1.4-2.3c-0.5-0.2-0.8-0.7-0.8-1.3c0-0.6,0.4-1.2,0.9-1.4
		c-0.8-0.5-1.3-1.2-1.3-2.4c0-1.7,1.3-3.2,3.6-3.2c0.5,0,0.8,0.1,1.2,0.2h2.9v1.2h-1.4c0.4,0.3,0.7,0.9,0.7,1.6
		c0,1.8-1.2,3.1-3.6,3.1c-0.3,0-0.6,0-0.9-0.1c-0.4,0.2-0.6,0.4-0.6,0.7c0,0.5,0.4,0.6,1.5,0.7l1.6,0.1c1.8,0.1,2.9,0.9,2.9,2.5
		C256.1,534.2,254.2,535.7,251.5,535.7z M252.8,531.2l-1.7-0.1c-0.2,0-0.4,0-0.5,0c-0.7,0.5-1.1,1-1.1,1.7c0,1,1,1.6,2.3,1.6
		c1.7,0,2.7-0.8,2.7-1.8C254.5,531.8,254,531.3,252.8,531.2z M251.8,523.7c-1.3,0-2,0.8-2,1.9c0,1.2,0.7,1.9,2,1.9
		c1.2,0,2-0.7,2-1.9C253.7,524.5,253,523.7,251.8,523.7z"/>
	<path fill="#999999" d="M267.6,531.3c0-0.5,0-1.3,0.1-1.8h0c-0.5,1.2-1.5,2-3,2c-2,0-2.6-1.2-2.6-2.7v-4.8c-0.4-0.1-1-0.1-1.4-0.2
		v-0.9c0.8-0.1,2-0.2,3-0.1v5.5c0,1.2,0.3,1.9,1.5,1.9c1.4,0,2.4-1.4,2.4-3.3v-2.9c-0.4-0.1-0.9-0.1-1.4-0.2v-0.9
		c0.8-0.1,2-0.2,2.9-0.1v7.3c0.4,0.1,1,0.1,1.4,0.2v0.9C269.7,531.3,268.5,531.3,267.6,531.3z"/>
	<path fill="#999999" d="M273.8,531.4c-0.7,0-1.4-0.1-2-0.2v-2.4h0.9c0.1,0.4,0.2,0.9,0.2,1.4c0.3,0.1,0.7,0.1,1,0.1
		c1.2,0,1.9-0.5,1.9-1.3c0-1.9-4.3-0.8-4.3-3.8c0-1.5,1.2-2.6,3.4-2.6c0.6,0,1.3,0.1,2,0.2v2.3h-0.9c-0.1-0.4-0.2-0.9-0.2-1.3
		c-0.3-0.1-0.6-0.1-1-0.1c-1.2,0-1.7,0.5-1.7,1.3c0,1.9,4.3,0.9,4.3,3.7C277.5,530.2,276.1,531.4,273.8,531.4z"/>
</g>
<g enable-background="new    ">
	<path fill="#999999" d="M144.4,551.9v-5.5c0-1.2-0.3-1.9-1.5-1.9c-1.4,0-2.4,1.4-2.4,3.3v2.9c0.5,0,1,0.1,1.4,0.2v0.9h-4.4V551
		c0.4-0.1,0.9-0.2,1.4-0.2v-10.2c-0.4-0.1-1-0.1-1.5-0.2v-0.9c0.9-0.1,2-0.2,3-0.1v4.1c0,0.6,0,1.2-0.2,1.7l0,0
		c0.5-1.2,1.5-1.9,3-1.9c1.9,0,2.6,1.2,2.6,2.7v4.8c0.5,0,1,0.1,1.4,0.2v0.9H144.4z"/>
	<path fill="#999999" d="M152.2,552.1c-2.3,0-3.8-1.3-3.8-4.3c0-2.6,1.6-4.6,4.2-4.6c2.2,0,3.8,1.2,3.8,4.3
		C156.4,550.1,154.8,552.1,152.2,552.1z M152.4,544.5c-1.3,0-2.4,0.9-2.4,3.1c0,2,0.8,3.1,2.4,3.1c1.3,0,2.4-1,2.4-3.1
		C154.8,545.7,154,544.5,152.4,544.5z"/>
	<path fill="#999999" d="M170.3,544.5l-2.3,7.4h-1.8l-1.7-5c-0.2-0.5-0.3-1.1-0.5-1.7h0c-0.2,0.8-0.4,1.4-0.6,2.2l-1.4,4.6h-1.8
		l-2.2-7.4c-0.4,0-0.8-0.1-1.1-0.2v-0.9h3.9v0.9c-0.4,0.1-0.8,0.2-1.2,0.2l1,3.8c0.2,0.7,0.4,1.4,0.5,1.9h0c0.2-0.7,0.4-1.4,0.6-2.1
		l1.5-4.8h1.6l1.5,4.8c0.3,1,0.5,1.5,0.6,2.1h0c0.2-0.6,0.3-1.1,0.5-1.9l1.1-3.9c-0.4,0-0.8-0.1-1.2-0.2v-0.9h3.8v0.9
		C171.1,544.4,170.7,544.5,170.3,544.5z"/>
	<path fill="#999999" d="M179.4,552.1c-1.8,0-2.3-0.7-2.3-2.6v-4.9h-1.8v-1.2h1.8v-2.8l1.5-0.4v3.2h2.4v1.2h-2.4v4.4
		c0,1.4,0.3,1.8,1.2,1.8c0.4,0,0.8-0.1,1.1-0.1l0.2,1.3C180.6,552,179.9,552.1,179.4,552.1z"/>
	<path fill="#999999" d="M186.2,552.1c-2.3,0-3.8-1.3-3.8-4.3c0-2.6,1.6-4.6,4.2-4.6c2.2,0,3.8,1.2,3.8,4.3
		C190.4,550.1,188.8,552.1,186.2,552.1z M186.4,544.5c-1.3,0-2.4,0.9-2.4,3.1c0,2,0.8,3.1,2.4,3.1c1.3,0,2.4-1,2.4-3.1
		C188.8,545.7,187.9,544.5,186.4,544.5z"/>
	<path fill="#999999" d="M199.1,556.3c-2.2,0-3.6-0.9-3.6-2.6c0-1,0.7-1.8,1.4-2.3c-0.5-0.2-0.8-0.7-0.8-1.3c0-0.6,0.4-1.2,0.9-1.4
		c-0.8-0.5-1.3-1.2-1.3-2.4c0-1.7,1.3-3.2,3.6-3.2c0.5,0,0.8,0.1,1.2,0.2h2.9v1.2h-1.4c0.4,0.3,0.7,0.9,0.7,1.6
		c0,1.8-1.2,3.1-3.6,3.1c-0.3,0-0.6,0-0.9-0.1c-0.4,0.2-0.6,0.4-0.6,0.7c0,0.5,0.4,0.6,1.5,0.7l1.6,0.1c1.8,0.1,2.9,0.9,2.9,2.5
		C203.6,554.9,201.8,556.3,199.1,556.3z M200.3,551.9l-1.7-0.1c-0.2,0-0.4,0-0.5,0c-0.7,0.5-1.1,1-1.1,1.7c0,1,1,1.6,2.3,1.6
		c1.7,0,2.7-0.8,2.7-1.8C202.1,552.5,201.5,551.9,200.3,551.9z M199.3,544.4c-1.3,0-2,0.8-2,1.9c0,1.2,0.7,1.9,2,1.9
		c1.2,0,2-0.7,2-1.9C201.3,545.1,200.6,544.4,199.3,544.4z"/>
	<path fill="#999999" d="M212,547.6h-5.6c-0.1,2.2,0.8,3.2,2.7,3.2c0.8,0,1.7-0.2,2.4-0.5l0.2,1.2c-0.9,0.3-1.9,0.5-3,0.5
		c-2.6,0-4-1.4-4-4.4c0-2.5,1.4-4.5,3.9-4.5c2.4,0,3.4,1.6,3.4,3.5C212.1,546.9,212.1,547.3,212,547.6z M208.6,544.4
		c-1.1,0-1.9,0.8-2.1,2.1h4C210.5,545.2,209.8,544.4,208.6,544.4z"/>
	<path fill="#999999" d="M217,552.1c-1.8,0-2.3-0.7-2.3-2.6v-4.9h-1.8v-1.2h1.8v-2.8l1.5-0.4v3.2h2.4v1.2h-2.4v4.4
		c0,1.4,0.3,1.8,1.2,1.8c0.4,0,0.8-0.1,1.1-0.1l0.2,1.3C218.2,552,217.5,552.1,217,552.1z"/>
	<path fill="#999999" d="M227.1,552.1c-1.8,0-2.3-0.7-2.3-2.6v-4.9h-1.8v-1.2h1.8v-2.8l1.5-0.4v3.2h2.4v1.2h-2.4v4.4
		c0,1.4,0.3,1.8,1.2,1.8c0.4,0,0.8-0.1,1.1-0.1l0.2,1.3C228.3,552,227.7,552.1,227.1,552.1z"/>
	<path fill="#999999" d="M236.6,551.9v-5.5c0-1.2-0.3-1.9-1.5-1.9c-1.4,0-2.4,1.4-2.4,3.3v2.9c0.5,0,1,0.1,1.4,0.2v0.9h-4.4V551
		c0.4-0.1,0.9-0.2,1.4-0.2v-10.2c-0.4-0.1-1-0.1-1.5-0.2v-0.9c0.9-0.1,2-0.2,3-0.1v4.1c0,0.6,0,1.2-0.2,1.7l0,0
		c0.5-1.2,1.5-1.9,3-1.9c1.9,0,2.6,1.2,2.6,2.7v4.8c0.5,0,1,0.1,1.4,0.2v0.9H236.6z"/>
	<path fill="#999999" d="M247.8,547.6h-5.6c-0.1,2.2,0.8,3.2,2.7,3.2c0.8,0,1.7-0.2,2.4-0.5l0.2,1.2c-0.9,0.3-1.9,0.5-3,0.5
		c-2.6,0-4-1.4-4-4.4c0-2.5,1.4-4.5,3.9-4.5c2.4,0,3.4,1.6,3.4,3.5C247.8,546.9,247.8,547.3,247.8,547.6z M244.3,544.4
		c-1.1,0-1.9,0.8-2.1,2.1h4C246.3,545.2,245.5,544.4,244.3,544.4z"/>
	<path fill="#999999" d="M255,544.8c-2-0.3-2.8,1-2.8,3.7v2.3c0.5,0,1.1,0.1,1.5,0.2v0.9h-4.5V551c0.4-0.1,1-0.2,1.5-0.2v-6.2
		c-0.4-0.1-1-0.1-1.5-0.2v-0.9c0.9-0.1,2-0.2,3-0.1c0,0.5-0.1,1.3-0.2,2h0c0.4-1.2,1.2-2.4,3.1-2.2L255,544.8z"/>
	<path fill="#999999" d="M263.3,547.6h-5.6c-0.1,2.2,0.8,3.2,2.7,3.2c0.8,0,1.7-0.2,2.4-0.5l0.2,1.2c-0.9,0.3-1.9,0.5-3,0.5
		c-2.6,0-4-1.4-4-4.4c0-2.5,1.4-4.5,3.9-4.5c2.4,0,3.4,1.6,3.4,3.5C263.3,546.9,263.3,547.3,263.3,547.6z M259.8,544.4
		c-1.1,0-1.9,0.8-2.1,2.1h4C261.8,545.2,261,544.4,259.8,544.4z"/>
	<path fill="#999999" d="M267,552.1c-0.6,0-1-0.4-1-1c0-0.6,0.5-1,1-1c0.6,0,1,0.4,1,1C268.1,551.6,267.6,552.1,267,552.1z
		 M267.7,549h-1.3l-0.3-9.2h1.8L267.7,549z"/>
</g>
<line fill="none" stroke="#000000" stroke-width="1.3" stroke-dasharray="20,5" x1="212.6" y1="648.9" x2="426.2" y2="648.9"/>
<line fill="none" stroke="#000000" stroke-width="1.3" stroke-dasharray="20,5" x1="422.2" y1="436.4" x2="422.2" y2="647.5"/>
<circle cx="422.4" cy="436.9" r="5.5"/>
<g enable-background="new    ">
	<path d="M451.1,527.5l-3.8,10.5h-1.8l-3.7-10.5c-0.3,0-0.8-0.1-1-0.2v-0.9h4.2v0.9c-0.4,0.1-0.9,0.2-1.4,0.2l2.2,6.3
		c0.2,0.7,0.5,1.6,0.8,2.4h0c0.2-0.8,0.5-1.6,0.8-2.5l2.2-6.2c-0.5,0-0.9-0.1-1.4-0.2v-0.9h4v0.9
		C451.8,527.4,451.4,527.5,451.1,527.5z"/>
	<path d="M458.9,533.7h-5.6c-0.1,2.2,0.8,3.2,2.7,3.2c0.8,0,1.7-0.2,2.4-0.5l0.2,1.2c-0.9,0.3-1.9,0.5-3,0.5c-2.6,0-4-1.4-4-4.4
		c0-2.5,1.4-4.5,3.9-4.5c2.4,0,3.4,1.6,3.4,3.5C458.9,533,458.9,533.3,458.9,533.7z M455.4,530.4c-1.1,0-1.9,0.8-2.1,2.1h4
		C457.4,531.3,456.6,530.4,455.4,530.4z"/>
	<path d="M466.1,530.8c-2-0.3-2.8,1-2.8,3.7v2.3c0.5,0,1,0.1,1.5,0.2v0.9h-4.5V537c0.4-0.1,1-0.2,1.5-0.2v-6.2
		c-0.4-0.1-1-0.1-1.5-0.2v-0.9c0.9-0.1,2-0.2,3-0.1c0,0.5-0.1,1.3-0.2,2h0c0.4-1.2,1.2-2.4,3.1-2.2L466.1,530.8z"/>
	<path d="M470.7,538.1c-1.8,0-2.3-0.7-2.3-2.6v-4.9h-1.8v-1.2h1.8v-2.8l1.5-0.4v3.2h2.4v1.2h-2.4v4.4c0,1.4,0.3,1.8,1.2,1.8
		c0.4,0,0.8-0.1,1.1-0.1l0.2,1.3C471.9,538,471.2,538.1,470.7,538.1z"/>
	<path d="M473.4,538V537c0.4-0.1,1-0.2,1.5-0.2v-6.2c-0.4-0.1-1-0.1-1.5-0.2v-0.9c0.9-0.1,2-0.2,3-0.1v7.4c0.5,0,1,0.1,1.4,0.2v0.9
		H473.4z M475.7,527.7c-0.6,0-1-0.4-1-1c0-0.6,0.5-1,1-1c0.6,0,1,0.4,1,1C476.8,527.3,476.3,527.7,475.7,527.7z"/>
	<path d="M482.8,538.1c-2.1,0-3.9-1-3.9-4.1c0-2.8,1.4-4.7,4.3-4.7c0.7,0,1.5,0.1,2.1,0.3v2.5h-1c-0.1-0.5-0.2-1-0.2-1.4
		c-0.3-0.1-0.7-0.1-1.2-0.1c-1.5,0-2.4,1.3-2.4,3.2c0,1.7,0.6,3,2.6,3c0.7,0,1.5-0.2,2-0.4l0.3,1.3
		C484.8,537.9,483.9,538.1,482.8,538.1z"/>
	<path d="M491.9,538c0-0.6,0-1.2,0.1-1.7h0c-0.4,1-1.5,1.9-2.9,1.9c-1.4,0-2.4-0.9-2.4-2.3c0-1.8,1.9-2.9,5.1-2.9v-0.6
		c0-1.2-0.4-1.9-1.8-1.9c-0.5,0-1.1,0.1-1.6,0.2c0,0.4-0.1,0.9-0.2,1.4h-1v-2.3c0.9-0.3,1.9-0.5,2.9-0.5c2.5,0,3.2,1.2,3.2,2.9v4.6
		c0.4,0.1,1,0.1,1.4,0.2v0.9C494,538,492.8,538,491.9,538z M491.8,534c-2.7,0-3.6,0.7-3.6,1.6c0,0.7,0.5,1.3,1.3,1.3
		c1.4,0,2.3-1.4,2.3-2.7V534z"/>
	<path d="M495.4,538V537c0.4-0.1,0.9-0.2,1.4-0.2v-10.2c-0.4-0.1-1-0.1-1.5-0.2v-0.9c0.9-0.1,2-0.2,3-0.1v11.4c0.5,0,1,0.1,1.4,0.2
		v0.9H495.4z"/>
</g>
<g enable-background="new    ">
	<path d="M453.9,558.8c-0.9,0-1.8-0.1-2.5-0.3v-2.8h1.1c0.1,0.6,0.2,1.1,0.2,1.5c0.4,0.1,0.8,0.2,1.3,0.2c1.4,0,2.5-0.6,2.5-2
		c0-2.6-5.3-1.6-5.3-5.3c0-1.9,1.5-3.3,4.1-3.3c0.8,0,1.5,0.1,2.2,0.2v2.7h-1.1c-0.1-0.5-0.2-1.1-0.2-1.5c-0.3-0.1-0.7-0.1-1-0.1
		c-1.5,0-2.3,0.7-2.3,1.8c0,2.5,5.3,1.6,5.3,5.2C458.2,557.3,456.5,558.8,453.9,558.8z"/>
	<path d="M463.1,558.8c-1.8,0-2.3-0.7-2.3-2.6v-4.9h-1.8v-1.2h1.8v-2.8l1.5-0.4v3.2h2.4v1.2h-2.4v4.4c0,1.4,0.3,1.8,1.2,1.8
		c0.4,0,0.8-0.1,1.1-0.1l0.2,1.3C464.3,558.7,463.7,558.8,463.1,558.8z"/>
	<path d="M473.3,554.3h-5.6c-0.1,2.2,0.8,3.2,2.7,3.2c0.8,0,1.7-0.2,2.4-0.5l0.2,1.2c-0.9,0.3-1.9,0.5-3,0.5c-2.6,0-4-1.4-4-4.4
		c0-2.5,1.4-4.5,3.9-4.5c2.4,0,3.4,1.6,3.4,3.5C473.4,553.6,473.3,554,473.3,554.3z M469.9,551.1c-1.1,0-1.9,0.8-2.1,2.1h4
		C471.8,551.9,471.1,551.1,469.9,551.1z"/>
	<path d="M478.9,558.7c-0.6,0-0.9,0-1.5-0.1v3.1c0.5,0,1,0.1,1.5,0.2v0.9h-4.5v-0.9c0.4-0.1,0.9-0.2,1.4-0.2v-10.4
		c-0.4-0.1-0.9-0.1-1.4-0.2v-0.9c0.8-0.1,2-0.2,2.9-0.1c0,0.5-0.1,1.3-0.1,1.7l0,0c0.5-1.2,1.5-1.9,2.9-1.9c2,0,3.1,1.4,3.1,4
		C483.3,557,481.7,558.7,478.9,558.7z M479.8,551.2c-1.5,0-2.3,1.8-2.3,3.3v2.8c0.5,0.1,0.9,0.2,1.5,0.2c1.6,0,2.7-1,2.7-3.4
		C481.7,552.2,481.1,551.2,479.8,551.2z"/>
	<path d="M487.1,558.8c-0.7,0-1.4-0.1-2-0.2v-2.4h0.9c0.1,0.4,0.2,0.9,0.2,1.4c0.3,0.1,0.7,0.1,1,0.1c1.2,0,1.9-0.5,1.9-1.3
		c0-1.9-4.3-0.8-4.3-3.8c0-1.5,1.2-2.6,3.4-2.6c0.6,0,1.3,0.1,2,0.2v2.3h-0.9c-0.1-0.4-0.2-0.9-0.2-1.3c-0.3-0.1-0.6-0.1-1-0.1
		c-1.2,0-1.7,0.5-1.7,1.3c0,1.9,4.3,0.9,4.3,3.7C490.7,557.6,489.4,558.8,487.1,558.8z"/>
</g>
<g enable-background="new    ">
	<path d="M282.6,681.4v-0.9c0.4-0.1,0.9-0.2,1.4-0.2v-4.2h-5.9v4.2c0.5,0,1,0.1,1.4,0.2v0.9H275v-0.9c0.4-0.1,1-0.2,1.5-0.2v-9.3
		c-0.5,0-1-0.1-1.5-0.2v-0.9h4.5v0.9c-0.4,0.1-0.9,0.2-1.4,0.2v3.8h5.9v-3.8c-0.5,0-1-0.1-1.4-0.2v-0.9h4.4v0.9
		c-0.4,0.1-1,0.2-1.5,0.2v9.3c0.5,0,1.1,0.1,1.5,0.2v0.9H282.6z"/>
	<path d="M292.1,681.6c-2.3,0-3.8-1.3-3.8-4.3c0-2.6,1.6-4.6,4.2-4.6c2.2,0,3.8,1.2,3.8,4.3C296.3,679.6,294.7,681.6,292.1,681.6z
		 M292.3,674c-1.3,0-2.4,0.9-2.4,3.1c0,2,0.8,3.1,2.4,3.1c1.3,0,2.4-1,2.4-3.1C294.7,675.1,293.8,674,292.3,674z"/>
	<path d="M303.4,674.2c-2-0.3-2.8,1-2.8,3.7v2.3c0.5,0,1.1,0.1,1.5,0.2v0.9h-4.5v-0.9c0.4-0.1,1-0.2,1.5-0.2v-6.2
		c-0.4-0.1-1-0.1-1.5-0.2V673c0.9-0.1,2-0.2,3-0.1c0,0.5-0.1,1.3-0.2,2h0c0.4-1.2,1.2-2.4,3.1-2.2L303.4,674.2z"/>
	<path d="M304.3,681.4v-0.9c0.4-0.1,1-0.2,1.5-0.2v-6.2c-0.4-0.1-1-0.1-1.5-0.2V673c0.9-0.1,2-0.2,3-0.1v7.4c0.5,0,1,0.1,1.4,0.2
		v0.9H304.3z M306.6,671.2c-0.6,0-1-0.4-1-1c0-0.6,0.5-1,1-1c0.6,0,1,0.4,1,1C307.6,670.7,307.2,671.2,306.6,671.2z"/>
	<path d="M309.9,681.4v-1.1l4.4-6.2c-0.5,0-1.3,0-2.1,0h-1c-0.1,0.4-0.1,0.8-0.2,1.3h-1v-2.5h6v1.1l-4.3,6.2c0.5,0,1.4,0,2.1,0h1.1
		c0.1-0.4,0.1-0.9,0.2-1.3h1v2.6H309.9z"/>
	<path d="M321.3,681.6c-2.3,0-3.8-1.3-3.8-4.3c0-2.6,1.6-4.6,4.2-4.6c2.2,0,3.8,1.2,3.8,4.3C325.5,679.6,323.9,681.6,321.3,681.6z
		 M321.5,674c-1.3,0-2.4,0.9-2.4,3.1c0,2,0.8,3.1,2.4,3.1c1.3,0,2.4-1,2.4-3.1C323.9,675.1,323.1,674,321.5,674z"/>
	<path d="M333.6,681.4v-5.5c0-1.2-0.3-1.9-1.4-1.9c-1.4,0-2.4,1.4-2.4,3.3v2.9c0.5,0,1,0.1,1.4,0.2v0.9h-4.4v-0.9
		c0.4-0.1,1-0.2,1.5-0.2v-6.2c-0.4-0.1-1-0.1-1.5-0.2V673c0.9-0.1,2-0.2,3-0.1c0,0.5,0,1.3-0.1,1.8h0c0.5-1.2,1.6-2,3-2
		c1.9,0,2.6,1.2,2.6,2.7v4.8c0.5,0,1,0.1,1.4,0.2v0.9H333.6z"/>
	<path d="M340.8,681.5c-1.8,0-2.3-0.7-2.3-2.6v-4.9h-1.8v-1.2h1.8v-2.8l1.5-0.4v3.2h2.4v1.2h-2.4v4.4c0,1.4,0.3,1.8,1.2,1.8
		c0.4,0,0.8-0.1,1.1-0.1l0.2,1.3C342.1,681.5,341.4,681.5,340.8,681.5z"/>
	<path d="M349.1,681.4c0-0.6,0-1.2,0.1-1.7h0c-0.4,1-1.5,1.9-2.9,1.9c-1.4,0-2.4-0.9-2.4-2.3c0-1.8,1.9-2.9,5.1-2.9v-0.6
		c0-1.2-0.4-1.9-1.8-1.9c-0.5,0-1.1,0.1-1.6,0.2c0,0.4-0.1,0.9-0.2,1.4h-1v-2.3c0.9-0.3,1.9-0.5,2.9-0.5c2.5,0,3.2,1.2,3.2,2.9v4.6
		c0.4,0.1,1,0.1,1.4,0.2v0.9C351.2,681.4,350,681.5,349.1,681.4z M349,677.5c-2.7,0-3.6,0.7-3.6,1.6c0,0.7,0.5,1.3,1.3,1.3
		c1.4,0,2.3-1.4,2.3-2.7V677.5z"/>
	<path d="M352.6,681.4v-0.9c0.4-0.1,0.9-0.2,1.4-0.2v-10.2c-0.4-0.1-1-0.1-1.5-0.2V669c0.9-0.1,2-0.2,3-0.1v11.4
		c0.5,0,1,0.1,1.4,0.2v0.9H352.6z"/>
</g>
<g enable-background="new    ">
	<path d="M298.9,702.2c-0.9,0-1.8-0.1-2.5-0.3v-2.8h1.1c0.1,0.6,0.2,1.1,0.2,1.5c0.4,0.1,0.8,0.2,1.3,0.2c1.4,0,2.5-0.6,2.5-2
		c0-2.6-5.3-1.6-5.3-5.3c0-1.9,1.5-3.3,4.1-3.3c0.8,0,1.5,0.1,2.2,0.2v2.7h-1.1c-0.1-0.5-0.2-1.1-0.2-1.5c-0.3-0.1-0.7-0.1-1-0.1
		c-1.5,0-2.3,0.7-2.3,1.8c0,2.5,5.3,1.6,5.3,5.2C303.2,700.7,301.6,702.2,298.9,702.2z"/>
	<path d="M308.2,702.2c-1.8,0-2.3-0.7-2.3-2.6v-4.9h-1.8v-1.2h1.8v-2.8l1.5-0.4v3.2h2.4v1.2h-2.4v4.4c0,1.4,0.3,1.8,1.2,1.8
		c0.4,0,0.8-0.1,1.1-0.1l0.2,1.3C309.4,702.1,308.7,702.2,308.2,702.2z"/>
	<path d="M318.3,697.8h-5.6c-0.1,2.2,0.8,3.2,2.7,3.2c0.8,0,1.7-0.2,2.4-0.5l0.2,1.2c-0.9,0.3-1.9,0.5-3,0.5c-2.6,0-4-1.4-4-4.4
		c0-2.5,1.4-4.5,3.9-4.5c2.4,0,3.4,1.6,3.4,3.5C318.4,697.1,318.4,697.4,318.3,697.8z M314.9,694.5c-1.1,0-1.9,0.8-2.1,2.1h4
		C316.9,695.4,316.1,694.5,314.9,694.5z"/>
	<path d="M324,702.2c-0.6,0-0.9,0-1.5-0.1v3.1c0.5,0,1,0.1,1.5,0.2v0.9h-4.5v-0.9c0.4-0.1,0.9-0.2,1.4-0.2v-10.4
		c-0.4-0.1-0.9-0.1-1.4-0.2v-0.9c0.8-0.1,2-0.2,2.9-0.1c0,0.5-0.1,1.3-0.1,1.7l0,0c0.5-1.2,1.5-1.9,2.9-1.9c2,0,3.1,1.4,3.1,4
		C328.4,700.4,326.7,702.2,324,702.2z M324.9,694.6c-1.5,0-2.3,1.8-2.3,3.3v2.8c0.5,0.1,0.9,0.2,1.5,0.2c1.6,0,2.7-1,2.7-3.4
		C326.8,695.7,326.2,694.6,324.9,694.6z"/>
	<path d="M332.1,702.2c-0.7,0-1.4-0.1-2-0.2v-2.4h0.9c0.1,0.4,0.2,0.9,0.2,1.4c0.3,0.1,0.7,0.1,1,0.1c1.2,0,1.9-0.5,1.9-1.3
		c0-1.9-4.3-0.8-4.3-3.8c0-1.5,1.2-2.6,3.4-2.6c0.6,0,1.3,0.1,2,0.2v2.3h-0.9c-0.1-0.4-0.2-0.9-0.2-1.3c-0.3-0.1-0.6-0.1-1-0.1
		c-1.2,0-1.7,0.5-1.7,1.3c0,1.9,4.3,0.9,4.3,3.7C335.8,701,334.4,702.2,332.1,702.2z"/>
</g>
<polyline fill="none" stroke="#999999" stroke-width="1.3" points="405.3,440.7 413.6,440.7 413.6,449 "/>
</svg>
