<?xml version="1.0" encoding="utf-8"?>
<!-- Generator: Adobe Illustrator 17.1.0, SVG Export Plug-In . SVG Version: 6.00 Build 0)  -->
<!DOCTYPE svg PUBLIC "-//W3C//DTD SVG 1.1//EN" "http://www.w3.org/Graphics/SVG/1.1/DTD/svg11.dtd">
<svg version="1.1" id="Layer_1" xmlns="http://www.w3.org/2000/svg" xmlns:xlink="http://www.w3.org/1999/xlink" x="0px" y="0px"
	 viewBox="0 172 612 400" enable-background="new 0 172 612 400" xml:space="preserve">
<circle cx="201.4" cy="453" r="5.5"/>
<line fill="none" stroke="#999999" stroke-width="1.3" x1="209.8" y1="446.5" x2="413.3" y2="245.6"/>
<text transform="matrix(1 0 0 1 344.1113 223.4336)" font-family="'ArialMT'" font-size="17.2125">New</text>
<text transform="matrix(1 0 0 1 329.1934 240.646)" font-family="'ArialMT'" font-size="17.2125">Location</text>
<text transform="matrix(1 0 0 1 121.1143 462.4336)" font-family="'ArialMT'" font-size="17.2125">Original</text>
<text transform="matrix(1 0 0 1 119.8711 479.6465)" font-family="'ArialMT'" font-size="17.2125">Location</text>
<text transform="matrix(1 0 0 1 137.2222 335.2783)" fill="#999999" font-family="'ArialMT'" font-size="17.2125">A Vector telling us</text>
<text transform="matrix(1 0 0 1 137.2222 355.9336)" fill="#999999" font-family="'ArialMT'" font-size="17.2125">how to get there!</text>
<line fill="none" stroke="#000000" stroke-width="1.3" stroke-dasharray="20,5" x1="212.6" y1="452.9" x2="426.2" y2="452.9"/>
<line fill="none" stroke="#000000" stroke-width="1.3" stroke-dasharray="20,5" x1="422.2" y1="240.4" x2="422.2" y2="451.5"/>
<circle cx="422.4" cy="240.9" r="5.5"/>
<text transform="matrix(1 0 0 1 440.5742 341.9722)" font-family="'ArialMT'" font-size="17.2125">Vertical</text>
<text transform="matrix(1 0 0 1 450.3272 362.627)" font-family="'ArialMT'" font-size="17.2125">Steps</text>
<text transform="matrix(1 0 0 1 274.5254 485.4102)" font-family="'ArialMT'" font-size="17.2125">Horizontal</text>
<text transform="matrix(1 0 0 1 295.3716 506.0645)" font-family="'ArialMT'" font-size="17.2125">Steps</text>
<polyline fill="none" stroke="#999999" stroke-width="1.3" points="405.3,244.7 413.6,244.7 413.6,253 "/>
</svg>
