<?xml version="1.0" encoding="utf-8"?>
<!-- Generator: Adobe Illustrator 18.0.0, SVG Export Plug-In . SVG Version: 6.00 Build 0)  -->
<!DOCTYPE svg PUBLIC "-//W3C//DTD SVG 1.1//EN" "http://www.w3.org/Graphics/SVG/1.1/DTD/svg11.dtd">
<svg version="1.1" id="Layer_1" xmlns="http://www.w3.org/2000/svg" xmlns:xlink="http://www.w3.org/1999/xlink" x="0px" y="0px"
	 viewBox="0 0 612 792" enable-background="new 0 0 612 792" xml:space="preserve">
<g enable-background="new    ">
	<path d="M170.1,639.1c-0.7,0-1.5-0.1-2.2-0.3l0.3-1.4c0.6,0.2,1.3,0.3,2.1,0.3c1.8,0,3-1,3-2.3c0-1.3-1-2.1-2.8-2.1
		c-0.6,0-1.1,0-1.5,0.1v-1.3h0.4c2.5,0,3.7-0.7,3.7-2.1c0-1.1-0.8-1.7-2.1-1.7c-0.9,0-1.7,0.3-2.4,0.7l-0.3-1.3
		c0.9-0.4,1.8-0.6,3-0.6c2.3,0,3.5,1.1,3.5,2.8c0,1.3-0.8,2.3-2.1,2.7l0,0c1.4,0.2,2.5,1.4,2.5,2.8C175,637.5,173,639.1,170.1,639.1
		z"/>
</g>
<g enable-background="new    ">
	<path d="M234.3,696.2v2.9h-1.5v-2.9h-5.3l-0.1-1.3l4.8-7.6h2.2v7.5h2v1.4H234.3z M232.7,688.8L232.7,688.8l-3.9,6.1
		c1,0,3.2,0,3.9,0V688.8z"/>
</g>
<line fill="none" stroke="#999999" stroke-width="1.3" x1="197.2" y1="605.6" x2="269.4" y2="664.3"/>
<line fill="none" stroke="#000000" stroke-width="1.3" stroke-dasharray="20,5" x1="185.2" y1="672.7" x2="280.4" y2="672.7"/>
<line fill="none" stroke="#000000" stroke-width="1.3" stroke-dasharray="20,5" x1="185.6" y1="600.7" x2="185.6" y2="672.1"/>
<polyline fill="none" stroke="#999999" stroke-width="1.3" points="269.5,656.3 269.4,664.7 261,664.7 "/>
<g enable-background="new    ">
	<path fill="#999999" d="M223.1,649.7l-2.7,7.4h-1.9l-2.7-7.4c-0.4,0-0.8-0.1-1.1-0.2v-0.9h4v0.9c-0.4,0.1-0.8,0.2-1.2,0.2l1.4,4.2
		c0.2,0.6,0.4,1.1,0.5,1.7h0c0.2-0.6,0.3-1.1,0.5-1.6l1.5-4.2c-0.4,0-0.8-0.1-1.2-0.2v-0.9h3.9v0.9
		C223.9,649.6,223.5,649.6,223.1,649.7z"/>
</g>
<polyline fill="#FFFFFF" stroke="#999999" stroke-width="1.3" points="223.5,636.6 227.7,640.8 223.5,645 "/>
<line fill="none" stroke="#999999" stroke-width="1.3" x1="227.7" y1="640.8" x2="211.8" y2="640.8"/>
<circle cx="282" cy="672" r="5.5"/>
<circle cx="186.6" cy="597.5" r="5.5"/>
<g enable-background="new    ">
	<path d="M278.2,608.3v-0.9c0.4-0.1,0.9-0.2,1.4-0.2V603h-5.9v4.2c0.5,0,1,0.1,1.4,0.2v0.9h-4.5v-0.9c0.4-0.1,1-0.2,1.5-0.2v-9.3
		c-0.5,0-1-0.1-1.5-0.2v-0.9h4.5v0.9c-0.4,0.1-0.9,0.2-1.4,0.2v3.8h5.9v-3.8c-0.5,0-1-0.1-1.4-0.2v-0.9h4.4v0.9
		c-0.4,0.1-1,0.2-1.5,0.2v9.3c0.5,0,1.1,0.1,1.5,0.2v0.9H278.2z"/>
	<path d="M287.7,608.5c-2.3,0-3.8-1.3-3.8-4.3c0-2.6,1.6-4.6,4.2-4.6c2.2,0,3.8,1.2,3.8,4.3C291.9,606.5,290.3,608.5,287.7,608.5z
		 M287.9,600.9c-1.3,0-2.4,0.9-2.4,3.2c0,2,0.8,3.1,2.4,3.1c1.3,0,2.4-1,2.4-3.1C290.3,602,289.5,600.9,287.9,600.9z"/>
	<path d="M305.8,600.9l-2.3,7.4h-1.8l-1.7-5c-0.2-0.5-0.3-1.1-0.5-1.7h0c-0.2,0.8-0.4,1.4-0.6,2.2l-1.4,4.6h-1.8l-2.2-7.4
		c-0.4,0-0.8-0.1-1.1-0.2v-0.9h3.9v0.9c-0.4,0.1-0.8,0.2-1.2,0.2l1.1,3.8c0.2,0.7,0.4,1.4,0.5,1.9h0c0.2-0.7,0.4-1.4,0.6-2.1
		l1.5-4.8h1.6l1.5,4.8c0.3,1,0.5,1.5,0.6,2.1h0c0.2-0.6,0.3-1.1,0.5-1.9l1.1-3.9c-0.4,0-0.8-0.1-1.2-0.2v-0.9h3.8v0.9
		C306.5,600.8,306.1,600.9,305.8,600.9z"/>
	<path d="M311,608.3v-0.9c0.4-0.1,0.9-0.2,1.4-0.2V597c-0.4-0.1-1-0.1-1.5-0.2v-0.9c0.9-0.1,2-0.2,3-0.1v11.4c0.5,0,1,0.1,1.4,0.2
		v0.9H311z"/>
	<path d="M320.2,608.5c-2.3,0-3.8-1.3-3.8-4.3c0-2.6,1.6-4.6,4.2-4.6c2.2,0,3.8,1.2,3.8,4.3C324.4,606.5,322.8,608.5,320.2,608.5z
		 M320.4,600.9c-1.3,0-2.4,0.9-2.4,3.2c0,2,0.8,3.1,2.4,3.1c1.3,0,2.4-1,2.4-3.1C322.8,602,321.9,600.9,320.4,600.9z"/>
	<path d="M332.5,608.3v-5.5c0-1.2-0.3-1.9-1.4-1.9c-1.4,0-2.4,1.4-2.4,3.3v2.9c0.5,0,1,0.1,1.4,0.2v0.9h-4.4v-0.9
		c0.4-0.1,1-0.2,1.5-0.2V601c-0.4-0.1-1-0.1-1.5-0.2v-0.9c0.9-0.1,2-0.2,3-0.1c0,0.5,0,1.3-0.1,1.8h0c0.5-1.2,1.6-2,3-2
		c1.9,0,2.6,1.2,2.6,2.7v4.8c0.5,0,1,0.1,1.4,0.2v0.9H332.5z"/>
	<path d="M340.1,612.7c-2.2,0-3.6-0.9-3.6-2.6c0-1,0.7-1.8,1.4-2.3c-0.5-0.2-0.8-0.7-0.8-1.3c0-0.6,0.4-1.2,0.9-1.4
		c-0.8-0.5-1.3-1.2-1.3-2.4c0-1.7,1.3-3.2,3.6-3.2c0.5,0,0.8,0.1,1.2,0.2h2.9v1.2h-1.4c0.4,0.3,0.7,0.9,0.7,1.6
		c0,1.8-1.2,3.1-3.6,3.1c-0.3,0-0.6,0-0.9-0.1c-0.4,0.2-0.6,0.4-0.6,0.7c0,0.5,0.4,0.6,1.5,0.7l1.6,0.1c1.8,0.1,2.9,0.9,2.9,2.5
		C344.6,611.3,342.8,612.7,340.1,612.7z M341.3,608.3l-1.7-0.1c-0.2,0-0.4,0-0.5,0c-0.7,0.5-1.1,1-1.1,1.7c0,1,1,1.6,2.3,1.6
		c1.7,0,2.7-0.8,2.7-1.8C343.1,608.8,342.5,608.3,341.3,608.3z M340.3,600.8c-1.3,0-2,0.8-2,1.9c0,1.2,0.7,1.9,2,1.9
		c1.2,0,2-0.7,2-1.9C342.3,601.5,341.6,600.8,340.3,600.8z"/>
	<path d="M349.4,608.3v-0.9c0.4-0.1,1-0.2,1.5-0.2V601c-0.4-0.1-1-0.1-1.5-0.2v-0.9c0.9-0.1,2-0.2,3-0.1v7.4c0.5,0,1,0.1,1.4,0.2
		v0.9H349.4z M351.7,598.1c-0.6,0-1-0.4-1-1s0.5-1,1-1c0.6,0,1,0.4,1,1C352.7,597.6,352.2,598.1,351.7,598.1z"/>
	<path d="M357.2,608.5c-0.7,0-1.4-0.1-2-0.2v-2.4h0.9c0.1,0.4,0.2,0.9,0.2,1.4c0.3,0.1,0.7,0.1,1,0.1c1.2,0,1.9-0.5,1.9-1.3
		c0-1.9-4.3-0.8-4.3-3.8c0-1.5,1.2-2.6,3.4-2.6c0.6,0,1.3,0.1,2,0.2v2.3h-0.9c-0.1-0.4-0.2-0.9-0.2-1.3c-0.3-0.1-0.6-0.1-1-0.1
		c-1.2,0-1.7,0.5-1.7,1.3c0,1.9,4.3,0.9,4.3,3.7C360.8,607.3,359.5,608.5,357.2,608.5z"/>
	<path d="M369.5,608.5c-1.8,0-2.3-0.7-2.3-2.6V601h-1.8v-1.2h1.8V597l1.5-0.4v3.2h2.4v1.2h-2.4v4.4c0,1.4,0.3,1.8,1.2,1.8
		c0.4,0,0.8-0.1,1.1-0.1l0.2,1.3C370.7,608.4,370.1,608.5,369.5,608.5z"/>
	<path d="M379,608.3v-5.5c0-1.2-0.3-1.9-1.5-1.9c-1.4,0-2.4,1.4-2.4,3.3v2.9c0.5,0,1,0.1,1.4,0.2v0.9h-4.4v-0.9
		c0.4-0.1,0.9-0.2,1.4-0.2V597c-0.4-0.1-1-0.1-1.5-0.2v-0.9c0.9-0.1,2-0.2,3-0.1v4.1c0,0.6,0,1.2-0.2,1.7l0,0c0.5-1.2,1.5-1.9,3-1.9
		c1.9,0,2.6,1.2,2.6,2.7v4.8c0.5,0,1,0.1,1.4,0.2v0.9H379z"/>
	<path d="M390.2,604h-5.6c-0.1,2.2,0.8,3.2,2.7,3.2c0.8,0,1.7-0.2,2.4-0.5l0.2,1.2c-0.9,0.3-1.9,0.5-3,0.5c-2.6,0-4-1.4-4-4.4
		c0-2.5,1.4-4.5,3.9-4.5c2.4,0,3.4,1.6,3.4,3.5C390.2,603.3,390.2,603.7,390.2,604z M386.8,600.8c-1.1,0-1.9,0.8-2.1,2.1h4
		C388.7,601.6,388,600.8,386.8,600.8z"/>
	<path d="M403.2,600.9l-2.7,7.4h-1.9l-2.7-7.4c-0.4,0-0.8-0.1-1.1-0.2v-0.9h4v0.9c-0.4,0.1-0.8,0.2-1.2,0.2l1.4,4.2
		c0.2,0.6,0.4,1.1,0.5,1.7h0c0.2-0.6,0.3-1.1,0.5-1.6l1.5-4.2c-0.4,0-0.8-0.1-1.2-0.2v-0.9h3.9v0.9
		C404,600.8,403.6,600.9,403.2,600.9z"/>
	<path d="M412,604h-5.6c-0.1,2.2,0.8,3.2,2.7,3.2c0.8,0,1.7-0.2,2.4-0.5l0.2,1.2c-0.9,0.3-1.9,0.5-3,0.5c-2.6,0-4-1.4-4-4.4
		c0-2.5,1.4-4.5,3.9-4.5c2.4,0,3.4,1.6,3.4,3.5C412,603.3,412,603.7,412,604z M408.5,600.8c-1.1,0-1.9,0.8-2.1,2.1h4
		C410.5,601.6,409.7,600.8,408.5,600.8z"/>
	<path d="M417.4,608.5c-2.1,0-3.9-1-3.9-4.1c0-2.8,1.4-4.7,4.3-4.7c0.7,0,1.5,0.1,2.1,0.3v2.5h-1c-0.1-0.5-0.2-1-0.2-1.4
		c-0.3-0.1-0.7-0.1-1.2-0.1c-1.5,0-2.4,1.3-2.4,3.2c0,1.7,0.6,3,2.6,3c0.7,0,1.5-0.2,2-0.4l0.3,1.3
		C419.4,608.2,418.4,608.5,417.4,608.5z"/>
	<path d="M424.6,608.5c-1.8,0-2.3-0.7-2.3-2.6V601h-1.8v-1.2h1.8V597l1.5-0.4v3.2h2.4v1.2h-2.4v4.4c0,1.4,0.3,1.8,1.2,1.8
		c0.4,0,0.8-0.1,1.1-0.1l0.2,1.3C425.8,608.4,425.1,608.5,424.6,608.5z"/>
	<path d="M431.4,608.5c-2.3,0-3.8-1.3-3.8-4.3c0-2.6,1.6-4.6,4.2-4.6c2.2,0,3.8,1.2,3.8,4.3C435.6,606.5,434,608.5,431.4,608.5z
		 M431.6,600.9c-1.3,0-2.4,0.9-2.4,3.2c0,2,0.8,3.1,2.4,3.1c1.3,0,2.4-1,2.4-3.1C434,602,433.2,600.9,431.6,600.9z"/>
	<path d="M442.7,601.2c-2-0.3-2.8,1-2.8,3.7v2.3c0.5,0,1,0.1,1.5,0.2v0.9h-4.5v-0.9c0.4-0.1,1-0.2,1.5-0.2V601
		c-0.4-0.1-1-0.1-1.5-0.2v-0.9c0.9-0.1,2-0.2,3-0.1c0,0.5-0.1,1.3-0.2,2h0c0.4-1.2,1.2-2.4,3.1-2.2L442.7,601.2z"/>
	<path d="M447.1,605.4h-1.5c-1.1-3.4,2.4-3.8,2.4-5.8c0-1.1-1.3-2-3.5-2.1l0.2-1.4c3.2,0.1,5,1.6,5,3.3
		C449.7,602.3,446.1,602.3,447.1,605.4z M446.3,608.5c-0.6,0-1-0.4-1-1c0-0.6,0.4-1,1-1c0.6,0,1,0.4,1,1
		C447.4,608,446.9,608.5,446.3,608.5z"/>
</g>
<path fill="none" stroke="#808080" stroke-width="2" d="M194.3,604.8"/>
<polyline fill="none" stroke="#999999" stroke-width="1.3" stroke-dasharray="4,4" points="192.3,586.1 199,578 298.3,658.6 
	291.6,666.8 "/>
</svg>
