<?xml version="1.0" encoding="utf-8"?>
<!-- Generator: Adobe Illustrator 17.1.0, SVG Export Plug-In . SVG Version: 6.00 Build 0)  -->
<!DOCTYPE svg PUBLIC "-//W3C//DTD SVG 1.1//EN" "http://www.w3.org/Graphics/SVG/1.1/DTD/svg11.dtd">
<svg version="1.1" id="Layer_1" xmlns="http://www.w3.org/2000/svg" xmlns:xlink="http://www.w3.org/1999/xlink" x="0px" y="0px"
	 viewBox="0 207 612 250" enable-background="new 0 207 612 250" xml:space="preserve">
<line fill="none" stroke="#999999" stroke-width="1.3" x1="157.6" y1="349.7" x2="359.8" y2="276.5"/>
<polyline fill="none" stroke="#999999" stroke-width="1.3" points="351.9,273.1 359.6,276.6 356.1,284.2 "/>
<circle cx="147.4" cy="352.7" r="5.5"/>
<circle cx="369.6" cy="273.3" r="5.5"/>
<text transform="matrix(1 0 0 1 343.5225 234.8721)" font-family="'ArialMT'" font-size="17.2125">mouse</text>
<text transform="matrix(1 0 0 1 337.9766 255.5273)" font-family="'ArialMT'" font-size="17.2125">location</text>
<text transform="matrix(1 0 0 1 120.5694 383.0908)" font-family="'ArialMT'" font-size="17.2125">mover</text>
<text transform="matrix(1 0 0 1 122.4819 403.7461)" font-family="'ArialMT'" font-size="17.2125">object</text>
<text transform="matrix(1 0 0 1 258.666 335.2783)" fill="#999999" font-family="'ArialMT'" font-size="17.2125">This is what we want</text>
<text transform="matrix(1 0 0 1 258.666 358.2285)" fill="#999999" font-family="'ArialMT'" font-size="17.2125">our acceleration vector</text>
<text transform="matrix(1 0 0 1 258.666 381.1782)" fill="#999999" font-family="'ArialMT'" font-size="17.2125">to look like (only not this big).</text>
</svg>
