<?xml version="1.0" encoding="utf-8"?>
<!-- Generator: Adobe Illustrator 18.0.0, SVG Export Plug-In . SVG Version: 6.00 Build 0)  -->
<!DOCTYPE svg PUBLIC "-//W3C//DTD SVG 1.1//EN" "http://www.w3.org/Graphics/SVG/1.1/DTD/svg11.dtd">
<svg version="1.1" id="Layer_1" xmlns="http://www.w3.org/2000/svg" xmlns:xlink="http://www.w3.org/1999/xlink" x="0px" y="0px"
	 viewBox="0 0 612 792" enable-background="new 0 0 612 792" xml:space="preserve">
<line fill="none" stroke="#999999" stroke-width="1.3" x1="157.6" y1="620.7" x2="359.8" y2="547.5"/>
<polyline fill="none" stroke="#999999" stroke-width="1.3" points="351.9,544.1 359.6,547.6 356.1,555.2 "/>
<circle cx="147.4" cy="623.7" r="5.5"/>
<circle cx="369.6" cy="544.3" r="5.5"/>
<g enable-background="new    ">
	<path d="M356.2,505.9v-5.5c0-1.2-0.3-1.9-1.4-1.9c-1.2,0-2.4,1.3-2.4,3.4v2.9c0.5,0,1,0.1,1.4,0.2v0.9h-2.9v-5.5
		c0-1.1-0.2-1.9-1.4-1.9c-1.3,0-2.4,1.4-2.4,3.4v2.9c0.5,0,1,0.1,1.4,0.2v0.9H344v-0.9c0.4-0.1,1-0.2,1.5-0.2v-6.2
		c-0.4-0.1-1-0.1-1.5-0.2v-0.9c0.9-0.1,2.1-0.2,3-0.1c0,0.5-0.1,1.3-0.1,1.8l0,0c0.5-1.2,1.6-2,3-2c1.8,0,2.3,1.2,2.4,1.9
		c0.3-0.8,1.3-1.9,2.9-1.9c1.6,0,2.5,0.9,2.5,2.8v4.8c0.5,0,1,0.1,1.4,0.2v0.9H356.2z"/>
	<path d="M364.1,506c-2.3,0-3.8-1.3-3.8-4.3c0-2.6,1.6-4.6,4.2-4.6c2.2,0,3.8,1.2,3.8,4.3C368.2,504,366.6,506,364.1,506z
		 M364.2,498.5c-1.3,0-2.4,0.9-2.4,3.1c0,2,0.8,3.1,2.4,3.1c1.3,0,2.4-1,2.4-3.1C366.6,499.6,365.8,498.5,364.2,498.5z"/>
	<path d="M376.2,505.9c0-0.5,0-1.3,0.1-1.8h0c-0.5,1.2-1.5,2-3,2c-2,0-2.6-1.2-2.6-2.7v-4.8c-0.4-0.1-1-0.1-1.4-0.2v-0.9
		c0.8-0.1,2-0.2,3-0.1v5.5c0,1.2,0.3,1.9,1.5,1.9c1.4,0,2.4-1.4,2.4-3.3v-2.9c-0.4-0.1-0.9-0.1-1.4-0.2v-0.9c0.8-0.1,2-0.2,2.9-0.1
		v7.3c0.4,0.1,1,0.1,1.4,0.2v0.9C378.3,505.9,377.1,505.9,376.2,505.9z"/>
	<path d="M382.4,506c-0.7,0-1.4-0.1-2-0.2v-2.4h0.9c0.1,0.4,0.2,0.9,0.2,1.4c0.3,0.1,0.7,0.1,1,0.1c1.2,0,1.9-0.5,1.9-1.3
		c0-1.9-4.3-0.8-4.3-3.8c0-1.5,1.2-2.6,3.4-2.6c0.6,0,1.3,0.1,2,0.2v2.3h-0.9c-0.1-0.4-0.2-0.9-0.2-1.3c-0.3-0.1-0.6-0.1-1-0.1
		c-1.2,0-1.7,0.5-1.7,1.3c0,1.9,4.3,0.9,4.3,3.7C386.1,504.8,384.7,506,382.4,506z"/>
	<path d="M394.8,501.6h-5.6c-0.1,2.2,0.8,3.2,2.7,3.2c0.8,0,1.7-0.2,2.4-0.5l0.2,1.2c-0.9,0.3-1.9,0.5-3,0.5c-2.6,0-4-1.4-4-4.4
		c0-2.5,1.4-4.5,3.9-4.5c2.4,0,3.4,1.6,3.4,3.5C394.9,500.9,394.8,501.2,394.8,501.6z M391.4,498.3c-1.1,0-1.9,0.8-2.1,2.1h4
		C393.3,499.2,392.6,498.3,391.4,498.3z"/>
</g>
<g enable-background="new    ">
	<path d="M338.3,526.5v-0.9c0.4-0.1,0.9-0.2,1.4-0.2v-10.2c-0.4-0.1-1-0.1-1.5-0.2v-0.9c0.9-0.1,2-0.2,3-0.1v11.4
		c0.5,0,1,0.1,1.4,0.2v0.9H338.3z"/>
	<path d="M347.5,526.7c-2.3,0-3.8-1.3-3.8-4.3c0-2.6,1.6-4.6,4.2-4.6c2.2,0,3.8,1.2,3.8,4.3C351.6,524.7,350,526.7,347.5,526.7z
		 M347.7,519.1c-1.3,0-2.4,0.9-2.4,3.1c0,2,0.8,3.1,2.4,3.1c1.3,0,2.4-1,2.4-3.1C350,520.2,349.2,519.1,347.7,519.1z"/>
	<path d="M356.9,526.7c-2.1,0-3.9-1-3.9-4.1c0-2.8,1.4-4.7,4.3-4.7c0.7,0,1.5,0.1,2.1,0.3v2.5h-1c-0.1-0.5-0.2-1-0.2-1.4
		c-0.3-0.1-0.7-0.1-1.2-0.1c-1.5,0-2.4,1.3-2.4,3.2c0,1.7,0.6,3,2.6,3c0.7,0,1.5-0.2,2-0.4l0.3,1.3
		C358.9,526.4,357.9,526.7,356.9,526.7z"/>
	<path d="M366,526.5c0-0.6,0-1.2,0.1-1.7h0c-0.4,1-1.5,1.9-2.9,1.9c-1.4,0-2.4-0.9-2.4-2.3c0-1.8,1.9-2.9,5.1-2.9v-0.6
		c0-1.2-0.4-1.9-1.8-1.9c-0.5,0-1.1,0.1-1.6,0.2c0,0.4-0.1,0.9-0.2,1.4h-1v-2.3c0.9-0.3,1.9-0.5,2.9-0.5c2.5,0,3.2,1.2,3.2,2.9v4.6
		c0.4,0.1,1,0.1,1.4,0.2v0.9C368.1,526.5,366.9,526.6,366,526.5z M365.9,522.6c-2.7,0-3.6,0.7-3.6,1.6c0,0.7,0.5,1.3,1.3,1.3
		c1.4,0,2.3-1.4,2.3-2.7V522.6z"/>
	<path d="M373.1,526.7c-1.8,0-2.3-0.7-2.3-2.6v-4.9H369V518h1.8v-2.8l1.5-0.4v3.2h2.4v1.2h-2.4v4.4c0,1.4,0.3,1.8,1.2,1.8
		c0.4,0,0.8-0.1,1.1-0.1l0.2,1.3C374.3,526.6,373.6,526.7,373.1,526.7z"/>
	<path d="M375.9,526.5v-0.9c0.4-0.1,1-0.2,1.5-0.2v-6.2c-0.4-0.1-1-0.1-1.5-0.2v-0.9c0.9-0.1,2-0.2,3-0.1v7.4c0.5,0,1,0.1,1.4,0.2
		v0.9H375.9z M378.2,516.3c-0.6,0-1-0.4-1-1c0-0.6,0.5-1,1-1c0.6,0,1,0.4,1,1C379.2,515.8,378.7,516.3,378.2,516.3z"/>
	<path d="M385,526.7c-2.3,0-3.8-1.3-3.8-4.3c0-2.6,1.6-4.6,4.2-4.6c2.2,0,3.8,1.2,3.8,4.3C389.2,524.7,387.6,526.7,385,526.7z
		 M385.2,519.1c-1.3,0-2.4,0.9-2.4,3.1c0,2,0.8,3.1,2.4,3.1c1.3,0,2.4-1,2.4-3.1C387.6,520.2,386.7,519.1,385.2,519.1z"/>
	<path d="M397.3,526.5V521c0-1.2-0.3-1.9-1.4-1.9c-1.4,0-2.4,1.4-2.4,3.3v2.9c0.5,0,1,0.1,1.4,0.2v0.9h-4.4v-0.9
		c0.4-0.1,1-0.2,1.5-0.2v-6.2c-0.4-0.1-1-0.1-1.5-0.2v-0.9c0.9-0.1,2-0.2,3-0.1c0,0.5,0,1.3-0.1,1.8h0c0.5-1.2,1.6-2,3-2
		c1.9,0,2.6,1.2,2.6,2.7v4.8c0.5,0,1,0.1,1.4,0.2v0.9H397.3z"/>
</g>
<g enable-background="new    ">
	<path d="M133.2,654.1v-5.5c0-1.2-0.3-1.9-1.4-1.9c-1.2,0-2.4,1.3-2.4,3.4v2.9c0.5,0,1,0.1,1.4,0.2v0.9h-2.9v-5.5
		c0-1.1-0.2-1.9-1.4-1.9c-1.3,0-2.4,1.4-2.4,3.4v2.9c0.5,0,1,0.1,1.4,0.2v0.9h-4.4v-0.9c0.4-0.1,1-0.2,1.5-0.2v-6.2
		c-0.4-0.1-1-0.1-1.5-0.2v-0.9c0.9-0.1,2.1-0.2,3-0.1c0,0.5-0.1,1.3-0.1,1.8l0,0c0.5-1.2,1.6-2,3-2c1.8,0,2.3,1.2,2.4,1.9
		c0.3-0.8,1.3-1.9,2.9-1.9c1.6,0,2.5,0.9,2.5,2.8v4.8c0.5,0,1,0.1,1.4,0.2v0.9H133.2z"/>
	<path d="M141.1,654.2c-2.3,0-3.8-1.3-3.8-4.3c0-2.6,1.6-4.6,4.2-4.6c2.2,0,3.8,1.2,3.8,4.3C145.3,652.2,143.7,654.2,141.1,654.2z
		 M141.3,646.7c-1.3,0-2.4,0.9-2.4,3.1c0,2,0.8,3.1,2.4,3.1c1.3,0,2.4-1,2.4-3.1C143.7,647.8,142.8,646.7,141.3,646.7z"/>
	<path d="M153.9,646.7l-2.7,7.4h-1.9l-2.7-7.4c-0.4,0-0.8-0.1-1.1-0.2v-0.9h4v0.9c-0.4,0.1-0.8,0.2-1.2,0.2l1.4,4.2
		c0.2,0.6,0.4,1.1,0.5,1.7h0c0.2-0.6,0.3-1.1,0.5-1.6l1.5-4.2c-0.4,0-0.8-0.1-1.2-0.2v-0.9h3.9v0.9
		C154.7,646.6,154.3,646.6,153.9,646.7z"/>
	<path d="M162.7,649.8h-5.6c-0.1,2.2,0.8,3.2,2.7,3.2c0.8,0,1.7-0.2,2.4-0.5l0.2,1.2c-0.9,0.3-1.9,0.5-3,0.5c-2.6,0-4-1.4-4-4.4
		c0-2.5,1.4-4.5,3.9-4.5c2.4,0,3.4,1.6,3.4,3.5C162.7,649.1,162.7,649.4,162.7,649.8z M159.2,646.6c-1.1,0-1.9,0.8-2.1,2.1h4
		C161.2,647.4,160.5,646.6,159.2,646.6z"/>
	<path d="M169.9,646.9c-2-0.3-2.8,1-2.8,3.7v2.3c0.5,0,1,0.1,1.5,0.2v0.9H164v-0.9c0.4-0.1,1-0.2,1.5-0.2v-6.2
		c-0.4-0.1-1-0.1-1.5-0.2v-0.9c0.9-0.1,2-0.2,3-0.1c0,0.5-0.1,1.3-0.2,2h0c0.4-1.2,1.2-2.4,3.1-2.2L169.9,646.9z"/>
</g>
<g enable-background="new    ">
	<path d="M127,674.9c-2.3,0-3.8-1.3-3.8-4.3c0-2.6,1.6-4.6,4.2-4.6c2.2,0,3.8,1.2,3.8,4.3C131.2,672.9,129.6,674.9,127,674.9z
		 M127.2,667.3c-1.3,0-2.4,0.9-2.4,3.1c0,2,0.8,3.1,2.4,3.1c1.3,0,2.4-1,2.4-3.1C129.6,668.5,128.8,667.3,127.2,667.3z"/>
	<path d="M136.3,674.9c-1.2,0-2-0.1-2.9-0.3v-11.1c-0.4-0.1-1-0.1-1.5-0.2v-0.9c0.9-0.1,2-0.2,3-0.1v4.1c0,0.5-0.1,1.2-0.2,1.6l0,0
		c0.5-1.2,1.5-1.9,2.8-1.9c2,0,3.1,1.4,3.1,4C140.8,673.1,139.1,674.9,136.3,674.9z M137.3,667.3c-1.5,0-2.3,1.8-2.3,3.3v2.8
		c0.4,0.1,0.9,0.2,1.5,0.2c1.6,0,2.7-1,2.7-3.4C139.2,668.4,138.6,667.3,137.3,667.3z"/>
	<path d="M141.8,679.1c-0.3,0-0.8-0.1-1.2-0.2l0.1-1.3c0.3,0.1,0.7,0.2,1.1,0.2c1.1,0,1.4-0.4,1.4-2v-8.4c-0.4-0.1-1-0.1-1.4-0.2
		v-0.9c0.8-0.1,2-0.2,3-0.1v9.5C144.8,678,144.1,679.1,141.8,679.1z M144.1,664.5c-0.6,0-1-0.4-1-1c0-0.6,0.5-1,1-1s1,0.4,1,1
		C145.1,664,144.6,664.5,144.1,664.5z"/>
	<path d="M154.2,670.4h-5.6c-0.1,2.2,0.8,3.2,2.7,3.2c0.8,0,1.7-0.2,2.4-0.5l0.2,1.2c-0.9,0.3-1.9,0.5-3,0.5c-2.6,0-4-1.4-4-4.4
		c0-2.5,1.4-4.5,3.9-4.5c2.4,0,3.4,1.6,3.4,3.5C154.2,669.8,154.2,670.1,154.2,670.4z M150.7,667.2c-1.1,0-1.9,0.8-2.1,2.1h4
		C152.7,668,151.9,667.2,150.7,667.2z"/>
	<path d="M159.6,674.9c-2.1,0-3.9-1-3.9-4.1c0-2.8,1.4-4.7,4.3-4.7c0.7,0,1.5,0.1,2.1,0.3v2.5h-1c-0.1-0.5-0.2-1-0.2-1.4
		c-0.3-0.1-0.7-0.1-1.2-0.1c-1.5,0-2.4,1.3-2.4,3.2c0,1.7,0.6,3,2.6,3c0.7,0,1.5-0.2,2-0.4l0.3,1.3
		C161.6,674.7,160.6,674.9,159.6,674.9z"/>
	<path d="M166.8,674.9c-1.8,0-2.3-0.7-2.3-2.6v-4.9h-1.8v-1.2h1.8v-2.8l1.5-0.4v3.2h2.4v1.2h-2.4v4.4c0,1.4,0.3,1.8,1.2,1.8
		c0.4,0,0.8-0.1,1.1-0.1l0.2,1.3C168,674.8,167.4,674.9,166.8,674.9z"/>
</g>
<g enable-background="new    ">
	<path fill="#999999" d="M266.9,597.6c-0.1-0.7-0.2-1.2-0.2-1.6h-2.4v9.2c0.5,0,1,0.1,1.5,0.2v0.9h-4.6v-0.9c0.4-0.1,1-0.2,1.5-0.2
		V596h-2.4c0,0.4-0.1,0.9-0.2,1.6H259v-2.9h9v2.9H266.9z"/>
	<path fill="#999999" d="M275.5,606.3v-5.5c0-1.2-0.3-1.9-1.5-1.9c-1.4,0-2.4,1.4-2.4,3.3v2.9c0.5,0,1,0.1,1.4,0.2v0.9h-4.4v-0.9
		c0.4-0.1,0.9-0.2,1.4-0.2v-10.2c-0.4-0.1-1-0.1-1.5-0.2v-0.9c0.9-0.1,2-0.2,3-0.1v4.1c0,0.6,0,1.2-0.2,1.7l0,0
		c0.5-1.2,1.5-1.9,3-1.9c1.9,0,2.6,1.2,2.6,2.7v4.8c0.5,0,1,0.1,1.4,0.2v0.9H275.5z"/>
	<path fill="#999999" d="M279.3,606.3v-0.9c0.4-0.1,1-0.2,1.5-0.2v-6.2c-0.4-0.1-1-0.1-1.5-0.2v-0.9c0.9-0.1,2-0.2,3-0.1v7.4
		c0.5,0,1,0.1,1.4,0.2v0.9H279.3z M281.6,596c-0.6,0-1-0.4-1-1c0-0.6,0.5-1,1-1c0.6,0,1,0.4,1,1C282.6,595.6,282.1,596,281.6,596z"
		/>
	<path fill="#999999" d="M287.1,606.4c-0.7,0-1.4-0.1-2-0.2v-2.4h0.9c0.1,0.4,0.2,0.9,0.2,1.4c0.3,0.1,0.7,0.1,1,0.1
		c1.2,0,1.9-0.5,1.9-1.3c0-1.9-4.3-0.8-4.3-3.8c0-1.5,1.2-2.6,3.4-2.6c0.6,0,1.3,0.1,2,0.2v2.3h-0.9c-0.1-0.4-0.2-0.9-0.2-1.3
		c-0.3-0.1-0.6-0.1-1-0.1c-1.2,0-1.7,0.5-1.7,1.3c0,1.9,4.3,0.9,4.3,3.7C290.8,605.2,289.4,606.4,287.1,606.4z"/>
	<path fill="#999999" d="M295.9,606.3v-0.9c0.4-0.1,1-0.2,1.5-0.2v-6.2c-0.4-0.1-1-0.1-1.5-0.2v-0.9c0.9-0.1,2-0.2,3-0.1v7.4
		c0.5,0,1,0.1,1.4,0.2v0.9H295.9z M298.2,596c-0.6,0-1-0.4-1-1c0-0.6,0.5-1,1-1c0.6,0,1,0.4,1,1C299.2,595.6,298.7,596,298.2,596z"
		/>
	<path fill="#999999" d="M303.7,606.4c-0.7,0-1.4-0.1-2-0.2v-2.4h0.9c0.1,0.4,0.2,0.9,0.2,1.4c0.3,0.1,0.7,0.1,1,0.1
		c1.2,0,1.9-0.5,1.9-1.3c0-1.9-4.3-0.8-4.3-3.8c0-1.5,1.2-2.6,3.4-2.6c0.6,0,1.3,0.1,2,0.2v2.3h-0.9c-0.1-0.4-0.2-0.9-0.2-1.3
		c-0.3-0.1-0.6-0.1-1-0.1c-1.2,0-1.7,0.5-1.7,1.3c0,1.9,4.3,0.9,4.3,3.7C307.3,605.2,305.9,606.4,303.7,606.4z"/>
	<path fill="#999999" d="M325.5,598.9l-2.3,7.4h-1.8l-1.7-5c-0.2-0.5-0.3-1.1-0.5-1.7h0c-0.2,0.8-0.4,1.4-0.6,2.2l-1.4,4.6h-1.8
		l-2.2-7.4c-0.4,0-0.8-0.1-1.1-0.2v-0.9h3.9v0.9c-0.4,0.1-0.8,0.2-1.2,0.2l1,3.8c0.2,0.7,0.4,1.4,0.5,1.9h0c0.2-0.7,0.4-1.4,0.6-2.1
		l1.5-4.8h1.6l1.5,4.8c0.3,1,0.5,1.5,0.6,2.1h0c0.2-0.6,0.3-1.1,0.5-1.9l1.1-3.9c-0.4,0-0.8-0.1-1.2-0.2v-0.9h3.8v0.9
		C326.2,598.8,325.8,598.8,325.5,598.9z"/>
	<path fill="#999999" d="M333.5,606.3v-5.5c0-1.2-0.3-1.9-1.5-1.9c-1.4,0-2.4,1.4-2.4,3.3v2.9c0.5,0,1,0.1,1.4,0.2v0.9h-4.4v-0.9
		c0.4-0.1,0.9-0.2,1.4-0.2v-10.2c-0.4-0.1-1-0.1-1.5-0.2v-0.9c0.9-0.1,2-0.2,3-0.1v4.1c0,0.6,0,1.2-0.2,1.7l0,0
		c0.5-1.2,1.5-1.9,3-1.9c1.9,0,2.6,1.2,2.6,2.7v4.8c0.5,0,1,0.1,1.4,0.2v0.9H333.5z"/>
	<path fill="#999999" d="M342.7,606.3c0-0.6,0-1.2,0.1-1.7h0c-0.4,1-1.5,1.9-2.9,1.9s-2.4-0.9-2.4-2.3c0-1.8,1.9-2.9,5.1-2.9v-0.6
		c0-1.2-0.4-1.9-1.8-1.9c-0.5,0-1.1,0.1-1.6,0.2c0,0.4-0.1,0.9-0.2,1.4h-1V598c0.9-0.3,1.9-0.5,2.9-0.5c2.5,0,3.2,1.2,3.2,2.9v4.6
		c0.4,0.1,1,0.1,1.4,0.2v0.9C344.8,606.3,343.6,606.3,342.7,606.3z M342.6,602.3c-2.7,0-3.6,0.7-3.6,1.6c0,0.7,0.5,1.3,1.3,1.3
		c1.4,0,2.3-1.4,2.3-2.7V602.3z"/>
	<path fill="#999999" d="M349.8,606.4c-1.8,0-2.3-0.7-2.3-2.6v-4.9h-1.8v-1.2h1.8V595l1.5-0.4v3.2h2.4v1.2h-2.4v4.4
		c0,1.4,0.3,1.8,1.2,1.8c0.4,0,0.8-0.1,1.1-0.1l0.2,1.3C351,606.3,350.4,606.4,349.8,606.4z"/>
	<path fill="#999999" d="M369.4,598.9l-2.3,7.4h-1.8l-1.7-5c-0.2-0.5-0.3-1.1-0.5-1.7h0c-0.2,0.8-0.4,1.4-0.6,2.2l-1.4,4.6h-1.8
		l-2.2-7.4c-0.4,0-0.8-0.1-1.1-0.2v-0.9h3.9v0.9c-0.4,0.1-0.8,0.2-1.2,0.2l1,3.8c0.2,0.7,0.4,1.4,0.5,1.9h0c0.2-0.7,0.4-1.4,0.6-2.1
		l1.5-4.8h1.6l1.5,4.8c0.3,1,0.5,1.5,0.6,2.1h0c0.2-0.6,0.3-1.1,0.5-1.9l1.1-3.9c-0.4,0-0.8-0.1-1.2-0.2v-0.9h3.8v0.9
		C370.1,598.8,369.8,598.8,369.4,598.9z"/>
	<path fill="#999999" d="M378.2,602h-5.6c-0.1,2.2,0.8,3.2,2.7,3.2c0.8,0,1.7-0.2,2.4-0.5l0.2,1.2c-0.9,0.3-1.9,0.5-3,0.5
		c-2.6,0-4-1.4-4-4.4c0-2.5,1.4-4.5,3.9-4.5c2.4,0,3.4,1.6,3.4,3.5C378.2,601.3,378.2,601.6,378.2,602z M374.7,598.7
		c-1.1,0-1.9,0.8-2.1,2.1h4C376.7,599.6,375.9,598.7,374.7,598.7z"/>
	<path fill="#999999" d="M396.3,598.9l-2.3,7.4h-1.8l-1.7-5c-0.2-0.5-0.3-1.1-0.5-1.7h0c-0.2,0.8-0.4,1.4-0.6,2.2l-1.4,4.6h-1.8
		l-2.2-7.4c-0.4,0-0.8-0.1-1.1-0.2v-0.9h3.9v0.9c-0.4,0.1-0.8,0.2-1.2,0.2l1,3.8c0.2,0.7,0.4,1.4,0.5,1.9h0c0.2-0.7,0.4-1.4,0.6-2.1
		l1.5-4.8h1.6l1.5,4.8c0.3,1,0.5,1.5,0.6,2.1h0c0.2-0.6,0.3-1.1,0.5-1.9l1.1-3.9c-0.4,0-0.8-0.1-1.2-0.2v-0.9h3.8v0.9
		C397.1,598.8,396.7,598.8,396.3,598.9z"/>
	<path fill="#999999" d="M403,606.3c0-0.6,0-1.2,0.1-1.7h0c-0.4,1-1.5,1.9-2.9,1.9s-2.4-0.9-2.4-2.3c0-1.8,1.9-2.9,5.1-2.9v-0.6
		c0-1.2-0.4-1.9-1.8-1.9c-0.5,0-1.1,0.1-1.6,0.2c0,0.4-0.1,0.9-0.2,1.4h-1V598c0.9-0.3,1.9-0.5,2.9-0.5c2.5,0,3.2,1.2,3.2,2.9v4.6
		c0.4,0.1,1,0.1,1.4,0.2v0.9C405.1,606.3,404,606.3,403,606.3z M402.9,602.3c-2.7,0-3.6,0.7-3.6,1.6c0,0.7,0.5,1.3,1.3,1.3
		c1.4,0,2.3-1.4,2.3-2.7V602.3z"/>
	<path fill="#999999" d="M413.7,606.3v-5.5c0-1.2-0.3-1.9-1.4-1.9c-1.4,0-2.4,1.4-2.4,3.3v2.9c0.5,0,1,0.1,1.4,0.2v0.9h-4.4v-0.9
		c0.4-0.1,1-0.2,1.5-0.2v-6.2c-0.4-0.1-1-0.1-1.5-0.2v-0.9c0.9-0.1,2-0.2,3-0.1c0,0.5,0,1.3-0.1,1.8h0c0.5-1.2,1.6-2,3-2
		c1.9,0,2.6,1.2,2.6,2.7v4.8c0.5,0,1,0.1,1.4,0.2v0.9H413.7z"/>
	<path fill="#999999" d="M420.9,606.4c-1.8,0-2.3-0.7-2.3-2.6v-4.9h-1.8v-1.2h1.8V595l1.5-0.4v3.2h2.4v1.2h-2.4v4.4
		c0,1.4,0.3,1.8,1.2,1.8c0.4,0,0.8-0.1,1.1-0.1l0.2,1.3C422.1,606.3,421.4,606.4,420.9,606.4z"/>
</g>
<g enable-background="new    ">
	<path fill="#999999" d="M263.2,629.4c-2.3,0-3.8-1.3-3.8-4.3c0-2.6,1.6-4.6,4.2-4.6c2.2,0,3.8,1.2,3.8,4.3
		C267.4,627.4,265.8,629.4,263.2,629.4z M263.4,621.8c-1.3,0-2.4,0.9-2.4,3.1c0,2,0.8,3.1,2.4,3.1c1.3,0,2.4-1,2.4-3.1
		C265.8,622.9,264.9,621.8,263.4,621.8z"/>
	<path fill="#999999" d="M275.3,629.2c0-0.5,0-1.3,0.1-1.8h0c-0.5,1.2-1.5,2-3,2c-2,0-2.6-1.2-2.6-2.7v-4.8c-0.4-0.1-1-0.1-1.4-0.2
		v-0.9c0.8-0.1,2-0.2,3-0.1v5.5c0,1.2,0.3,1.9,1.5,1.9c1.4,0,2.4-1.4,2.4-3.3v-2.9c-0.4-0.1-0.9-0.1-1.4-0.2v-0.9
		c0.8-0.1,2-0.2,2.9-0.1v7.3c0.4,0.1,1,0.1,1.4,0.2v0.9C277.4,629.2,276.3,629.3,275.3,629.2z"/>
	<path fill="#999999" d="M284.9,622.1c-2-0.3-2.8,1-2.8,3.7v2.3c0.5,0,1,0.1,1.5,0.2v0.9h-4.5v-0.9c0.4-0.1,1-0.2,1.5-0.2v-6.2
		c-0.4-0.1-1-0.1-1.5-0.2v-0.9c0.9-0.1,2-0.2,3-0.1c0,0.5-0.1,1.3-0.2,2h0c0.4-1.2,1.2-2.4,3.1-2.2L284.9,622.1z"/>
	<path fill="#999999" d="M295,629.2c0-0.6,0-1.2,0.1-1.7h0c-0.4,1-1.5,1.9-2.9,1.9c-1.4,0-2.4-0.9-2.4-2.3c0-1.8,1.9-2.9,5.1-2.9
		v-0.6c0-1.2-0.4-1.9-1.8-1.9c-0.5,0-1.1,0.1-1.6,0.2c0,0.4-0.1,0.9-0.2,1.4h-1V621c0.9-0.3,1.9-0.5,2.9-0.5c2.5,0,3.2,1.2,3.2,2.9
		v4.6c0.4,0.1,1,0.1,1.4,0.2v0.9C297.2,629.2,296,629.3,295,629.2z M294.9,625.3c-2.7,0-3.6,0.7-3.6,1.6c0,0.7,0.5,1.3,1.3,1.3
		c1.4,0,2.3-1.4,2.3-2.7V625.3z"/>
	<path fill="#999999" d="M302.8,629.4c-2.1,0-3.9-1-3.9-4.1c0-2.8,1.4-4.7,4.3-4.7c0.7,0,1.5,0.1,2.1,0.3v2.5h-1
		c-0.1-0.5-0.2-1-0.2-1.4c-0.3-0.1-0.7-0.1-1.2-0.1c-1.5,0-2.4,1.3-2.4,3.2c0,1.7,0.6,3,2.6,3c0.7,0,1.5-0.2,2-0.4l0.3,1.3
		C304.8,629.1,303.9,629.4,302.8,629.4z"/>
	<path fill="#999999" d="M310.5,629.4c-2.1,0-3.9-1-3.9-4.1c0-2.8,1.4-4.7,4.3-4.7c0.7,0,1.5,0.1,2.1,0.3v2.5h-1
		c-0.1-0.5-0.2-1-0.2-1.4c-0.3-0.1-0.7-0.1-1.2-0.1c-1.5,0-2.4,1.3-2.4,3.2c0,1.7,0.6,3,2.6,3c0.7,0,1.5-0.2,2-0.4l0.3,1.3
		C312.5,629.1,311.5,629.4,310.5,629.4z"/>
	<path fill="#999999" d="M321.5,624.9h-5.6c-0.1,2.2,0.8,3.2,2.7,3.2c0.8,0,1.7-0.2,2.4-0.5l0.2,1.2c-0.9,0.3-1.9,0.5-3,0.5
		c-2.6,0-4-1.4-4-4.4c0-2.5,1.4-4.5,3.9-4.5c2.4,0,3.4,1.6,3.4,3.5C321.6,624.2,321.5,624.6,321.5,624.9z M318.1,621.7
		c-1.1,0-1.9,0.8-2.1,2.1h4C320,622.5,319.3,621.7,318.1,621.7z"/>
	<path fill="#999999" d="M322.7,629.2v-0.9c0.4-0.1,0.9-0.2,1.4-0.2v-10.2c-0.4-0.1-1-0.1-1.5-0.2v-0.9c0.9-0.1,2-0.2,3-0.1v11.4
		c0.5,0,1,0.1,1.4,0.2v0.9H322.7z"/>
	<path fill="#999999" d="M335.2,624.9h-5.6c-0.1,2.2,0.8,3.2,2.7,3.2c0.8,0,1.7-0.2,2.4-0.5l0.2,1.2c-0.9,0.3-1.9,0.5-3,0.5
		c-2.6,0-4-1.4-4-4.4c0-2.5,1.4-4.5,3.9-4.5c2.4,0,3.4,1.6,3.4,3.5C335.3,624.2,335.2,624.6,335.2,624.9z M331.8,621.7
		c-1.1,0-1.9,0.8-2.1,2.1h4C333.7,622.5,333,621.7,331.8,621.7z"/>
	<path fill="#999999" d="M342.4,622.1c-2-0.3-2.8,1-2.8,3.7v2.3c0.5,0,1,0.1,1.5,0.2v0.9h-4.5v-0.9c0.4-0.1,1-0.2,1.5-0.2v-6.2
		c-0.4-0.1-1-0.1-1.5-0.2v-0.9c0.9-0.1,2-0.2,3-0.1c0,0.5-0.1,1.3-0.2,2h0c0.4-1.2,1.2-2.4,3.1-2.2L342.4,622.1z"/>
	<path fill="#999999" d="M348.5,629.2c0-0.6,0-1.2,0.1-1.7h0c-0.4,1-1.5,1.9-2.9,1.9c-1.4,0-2.4-0.9-2.4-2.3c0-1.8,1.9-2.9,5.1-2.9
		v-0.6c0-1.2-0.4-1.9-1.8-1.9c-0.5,0-1.1,0.1-1.6,0.2c0,0.4-0.1,0.9-0.2,1.4h-1V621c0.9-0.3,1.9-0.5,2.9-0.5c2.5,0,3.2,1.2,3.2,2.9
		v4.6c0.4,0.1,1,0.1,1.4,0.2v0.9C350.6,629.2,349.4,629.3,348.5,629.2z M348.4,625.3c-2.7,0-3.6,0.7-3.6,1.6c0,0.7,0.5,1.3,1.3,1.3
		c1.4,0,2.3-1.4,2.3-2.7V625.3z"/>
	<path fill="#999999" d="M355.6,629.4c-1.8,0-2.3-0.7-2.3-2.6v-4.9h-1.8v-1.2h1.8v-2.8l1.5-0.4v3.2h2.4v1.2h-2.4v4.4
		c0,1.4,0.3,1.8,1.2,1.8c0.4,0,0.8-0.1,1.1-0.1l0.2,1.3C356.8,629.3,356.2,629.4,355.6,629.4z"/>
	<path fill="#999999" d="M358.4,629.2v-0.9c0.4-0.1,1-0.2,1.5-0.2v-6.2c-0.4-0.1-1-0.1-1.5-0.2v-0.9c0.9-0.1,2-0.2,3-0.1v7.4
		c0.5,0,1,0.1,1.4,0.2v0.9H358.4z M360.7,619c-0.6,0-1-0.4-1-1c0-0.6,0.5-1,1-1c0.6,0,1,0.4,1,1C361.7,618.5,361.2,619,360.7,619z"
		/>
	<path fill="#999999" d="M367.5,629.4c-2.3,0-3.8-1.3-3.8-4.3c0-2.6,1.6-4.6,4.2-4.6c2.2,0,3.8,1.2,3.8,4.3
		C371.7,627.4,370.1,629.4,367.5,629.4z M367.7,621.8c-1.3,0-2.4,0.9-2.4,3.1c0,2,0.8,3.1,2.4,3.1c1.3,0,2.4-1,2.4-3.1
		C370.1,622.9,369.3,621.8,367.7,621.8z"/>
	<path fill="#999999" d="M379.8,629.2v-5.5c0-1.2-0.3-1.9-1.4-1.9c-1.4,0-2.4,1.4-2.4,3.3v2.9c0.5,0,1,0.1,1.4,0.2v0.9h-4.4v-0.9
		c0.4-0.1,1-0.2,1.5-0.2v-6.2c-0.4-0.1-1-0.1-1.5-0.2v-0.9c0.9-0.1,2-0.2,3-0.1c0,0.5,0,1.3-0.1,1.8h0c0.5-1.2,1.6-2,3-2
		c1.9,0,2.6,1.2,2.6,2.7v4.8c0.5,0,1,0.1,1.4,0.2v0.9H379.8z"/>
	<path fill="#999999" d="M395.3,621.8l-2.7,7.4h-1.9l-2.7-7.4c-0.4,0-0.8-0.1-1.1-0.2v-0.9h4v0.9c-0.4,0.1-0.8,0.2-1.2,0.2l1.4,4.2
		c0.2,0.6,0.4,1.1,0.5,1.7h0c0.2-0.6,0.3-1.1,0.5-1.6l1.5-4.2c-0.4,0-0.8-0.1-1.2-0.2v-0.9h3.9v0.9
		C396.1,621.7,395.7,621.8,395.3,621.8z"/>
	<path fill="#999999" d="M404,624.9h-5.6c-0.1,2.2,0.8,3.2,2.7,3.2c0.8,0,1.7-0.2,2.4-0.5l0.2,1.2c-0.9,0.3-1.9,0.5-3,0.5
		c-2.6,0-4-1.4-4-4.4c0-2.5,1.4-4.5,3.9-4.5c2.4,0,3.4,1.6,3.4,3.5C404.1,624.2,404.1,624.6,404,624.9z M400.6,621.7
		c-1.1,0-1.9,0.8-2.1,2.1h4C402.5,622.5,401.8,621.7,400.6,621.7z"/>
	<path fill="#999999" d="M409.5,629.4c-2.1,0-3.9-1-3.9-4.1c0-2.8,1.4-4.7,4.3-4.7c0.7,0,1.5,0.1,2.1,0.3v2.5h-1
		c-0.1-0.5-0.2-1-0.2-1.4c-0.3-0.1-0.7-0.1-1.2-0.1c-1.5,0-2.4,1.3-2.4,3.2c0,1.7,0.6,3,2.6,3c0.7,0,1.5-0.2,2-0.4l0.3,1.3
		C411.4,629.1,410.5,629.4,409.5,629.4z"/>
	<path fill="#999999" d="M416.7,629.4c-1.8,0-2.3-0.7-2.3-2.6v-4.9h-1.8v-1.2h1.8v-2.8l1.5-0.4v3.2h2.4v1.2h-2.4v4.4
		c0,1.4,0.3,1.8,1.2,1.8c0.4,0,0.8-0.1,1.1-0.1l0.2,1.3C417.9,629.3,417.2,629.4,416.7,629.4z"/>
	<path fill="#999999" d="M423.5,629.4c-2.3,0-3.8-1.3-3.8-4.3c0-2.6,1.6-4.6,4.2-4.6c2.2,0,3.8,1.2,3.8,4.3
		C427.7,627.4,426.1,629.4,423.5,629.4z M423.7,621.8c-1.3,0-2.4,0.9-2.4,3.1c0,2,0.8,3.1,2.4,3.1c1.3,0,2.4-1,2.4-3.1
		C426.1,622.9,425.2,621.8,423.7,621.8z"/>
	<path fill="#999999" d="M434.7,622.1c-2-0.3-2.8,1-2.8,3.7v2.3c0.5,0,1,0.1,1.5,0.2v0.9h-4.5v-0.9c0.4-0.1,1-0.2,1.5-0.2v-6.2
		c-0.4-0.1-1-0.1-1.5-0.2v-0.9c0.9-0.1,2-0.2,3-0.1c0,0.5-0.1,1.3-0.2,2h0c0.4-1.2,1.2-2.4,3.1-2.2L434.7,622.1z"/>
</g>
<g enable-background="new    ">
	<path fill="#999999" d="M262.8,652.3c-1.8,0-2.3-0.7-2.3-2.6v-4.9h-1.8v-1.2h1.8v-2.8l1.5-0.4v3.2h2.4v1.2H262v4.4
		c0,1.4,0.3,1.8,1.2,1.8c0.4,0,0.8-0.1,1.1-0.1l0.2,1.3C264,652.2,263.3,652.3,262.8,652.3z"/>
	<path fill="#999999" d="M269.6,652.3c-2.3,0-3.8-1.3-3.8-4.3c0-2.6,1.6-4.6,4.2-4.6c2.2,0,3.8,1.2,3.8,4.3
		C273.8,650.3,272.2,652.3,269.6,652.3z M269.8,644.8c-1.3,0-2.4,0.9-2.4,3.1c0,2,0.8,3.1,2.4,3.1c1.3,0,2.4-1,2.4-3.1
		C272.2,645.9,271.3,644.8,269.8,644.8z"/>
	<path fill="#999999" d="M278.5,652.2v-0.9c0.4-0.1,0.9-0.2,1.4-0.2v-10.2c-0.4-0.1-1-0.1-1.5-0.2v-0.9c0.9-0.1,2-0.2,3-0.1V651
		c0.5,0,1,0.1,1.4,0.2v0.9H278.5z"/>
	<path fill="#999999" d="M287.7,652.3c-2.3,0-3.8-1.3-3.8-4.3c0-2.6,1.6-4.6,4.2-4.6c2.2,0,3.8,1.2,3.8,4.3
		C291.9,650.3,290.3,652.3,287.7,652.3z M287.9,644.8c-1.3,0-2.4,0.9-2.4,3.1c0,2,0.8,3.1,2.4,3.1c1.3,0,2.4-1,2.4-3.1
		C290.3,645.9,289.4,644.8,287.9,644.8z"/>
	<path fill="#999999" d="M297.1,652.3c-2.3,0-3.8-1.3-3.8-4.3c0-2.6,1.6-4.6,4.2-4.6c2.2,0,3.8,1.2,3.8,4.3
		C301.3,650.3,299.7,652.3,297.1,652.3z M297.3,644.8c-1.3,0-2.4,0.9-2.4,3.1c0,2,0.8,3.1,2.4,3.1c1.3,0,2.4-1,2.4-3.1
		C299.7,645.9,298.9,644.8,297.3,644.8z"/>
	<path fill="#999999" d="M308.4,652.2l-3.3-4.5v3.3c0.5,0,0.9,0.1,1.3,0.2v0.9h-4.3v-0.9c0.4-0.1,0.9-0.2,1.4-0.2v-10.2
		c-0.4-0.1-1-0.1-1.5-0.2v-0.9c0.9-0.1,2-0.2,3-0.1v7.9l2.5-2.8c-0.4-0.1-0.8-0.1-1-0.2v-0.9h4.1v0.9c-0.4,0.1-0.8,0.2-1.2,0.2
		l-2.6,2.8l2.7,3.5c0.4,0,0.9,0.1,1.4,0.2v0.9H308.4z"/>
	<path fill="#999999" d="M315.3,652.2v-0.9c0.4-0.1,0.9-0.2,1.4-0.2v-10.2c-0.4-0.1-1-0.1-1.5-0.2v-0.9c0.9-0.1,2-0.2,3-0.1V651
		c0.5,0,1,0.1,1.4,0.2v0.9H315.3z"/>
	<path fill="#999999" d="M320.6,652.2v-0.9c0.4-0.1,1-0.2,1.5-0.2v-6.2c-0.4-0.1-1-0.1-1.5-0.2v-0.9c0.9-0.1,2-0.2,3-0.1v7.4
		c0.5,0,1,0.1,1.4,0.2v0.9H320.6z M322.9,641.9c-0.6,0-1-0.4-1-1c0-0.6,0.5-1,1-1c0.6,0,1,0.4,1,1
		C323.9,641.5,323.4,641.9,322.9,641.9z"/>
	<path fill="#999999" d="M332,652.2l-3.3-4.5v3.3c0.5,0,0.9,0.1,1.3,0.2v0.9h-4.3v-0.9c0.4-0.1,0.9-0.2,1.4-0.2v-10.2
		c-0.4-0.1-1-0.1-1.5-0.2v-0.9c0.9-0.1,2-0.2,3-0.1v7.9l2.5-2.8c-0.4-0.1-0.8-0.1-1-0.2v-0.9h4.1v0.9c-0.4,0.1-0.8,0.2-1.2,0.2
		l-2.6,2.8l2.7,3.5c0.4,0,0.9,0.1,1.4,0.2v0.9H332z"/>
	<path fill="#999999" d="M342.4,647.9h-5.6c-0.1,2.2,0.8,3.2,2.7,3.2c0.8,0,1.7-0.2,2.4-0.5l0.2,1.2c-0.9,0.3-1.9,0.5-3,0.5
		c-2.6,0-4-1.4-4-4.4c0-2.5,1.4-4.5,3.9-4.5c2.4,0,3.4,1.6,3.4,3.5C342.5,647.2,342.5,647.5,342.4,647.9z M339,644.6
		c-1.1,0-1.9,0.8-2.1,2.1h4C340.9,645.5,340.2,644.6,339,644.6z"/>
	<path fill="#999999" d="M350.7,655.8c-2-3.2-2.5-6-2.5-8.5c0-2.5,0.6-5.5,2.5-8.6l1.1,0.5c-1.4,2.4-2.1,5.1-2.1,7.9
		c0,2.9,0.7,5.6,2.2,8L350.7,655.8z"/>
	<path fill="#999999" d="M356.8,652.3c-2.3,0-3.8-1.3-3.8-4.3c0-2.6,1.6-4.6,4.2-4.6c2.2,0,3.8,1.2,3.8,4.3
		C360.9,650.3,359.4,652.3,356.8,652.3z M357,644.8c-1.3,0-2.4,0.9-2.4,3.1c0,2,0.8,3.1,2.4,3.1c1.3,0,2.4-1,2.4-3.1
		C359.3,645.9,358.5,644.8,357,644.8z"/>
	<path fill="#999999" d="M369.1,652.2v-5.5c0-1.2-0.3-1.9-1.4-1.9c-1.4,0-2.4,1.4-2.4,3.3v2.9c0.5,0,1,0.1,1.4,0.2v0.9h-4.4v-0.9
		c0.4-0.1,1-0.2,1.5-0.2v-6.2c-0.4-0.1-1-0.1-1.5-0.2v-0.9c0.9-0.1,2-0.2,3-0.1c0,0.5,0,1.3-0.1,1.8h0c0.5-1.2,1.6-2,3-2
		c1.9,0,2.6,1.2,2.6,2.7v4.8c0.5,0,1,0.1,1.4,0.2v0.9H369.1z"/>
	<path fill="#999999" d="M372.7,652.2v-0.9c0.4-0.1,0.9-0.2,1.4-0.2v-10.2c-0.4-0.1-1-0.1-1.5-0.2v-0.9c0.9-0.1,2-0.2,3-0.1V651
		c0.5,0,1,0.1,1.4,0.2v0.9H372.7z"/>
	<path fill="#999999" d="M385.3,644.8l-3,8.3c-0.9,2.6-1.8,3.5-3.7,3.5c-0.3,0-0.8,0-1.2-0.1l0.1-1.4c0.4,0.1,0.7,0.2,1.1,0.2
		c0.9,0,1.5-0.5,2.1-2.1l0.4-1h-0.4l-2.6-7.4c-0.4,0-0.8-0.1-1.1-0.2v-0.9h3.9v0.9c-0.3,0.1-0.7,0.2-1.1,0.2l1.3,3.7
		c0.3,0.8,0.5,1.4,0.7,2.1h0c0.1-0.6,0.5-1.6,0.8-2.5l1.2-3.3c-0.4,0-0.8-0.1-1.1-0.2v-0.9h3.8v0.9
		C386.1,644.7,385.7,644.7,385.3,644.8z"/>
	<path fill="#999999" d="M397.7,652.2v-5.5c0-1.2-0.3-1.9-1.4-1.9c-1.4,0-2.4,1.4-2.4,3.3v2.9c0.5,0,1,0.1,1.4,0.2v0.9h-4.4v-0.9
		c0.4-0.1,1-0.2,1.5-0.2v-6.2c-0.4-0.1-1-0.1-1.5-0.2v-0.9c0.9-0.1,2-0.2,3-0.1c0,0.5,0,1.3-0.1,1.8h0c0.5-1.2,1.6-2,3-2
		c1.9,0,2.6,1.2,2.6,2.7v4.8c0.5,0,1,0.1,1.4,0.2v0.9H397.7z"/>
	<path fill="#999999" d="M405.6,652.3c-2.3,0-3.8-1.3-3.8-4.3c0-2.6,1.6-4.6,4.2-4.6c2.2,0,3.8,1.2,3.8,4.3
		C409.7,650.3,408.1,652.3,405.6,652.3z M405.7,644.8c-1.3,0-2.4,0.9-2.4,3.1c0,2,0.8,3.1,2.4,3.1c1.3,0,2.4-1,2.4-3.1
		C408.1,645.9,407.3,644.8,405.7,644.8z"/>
	<path fill="#999999" d="M414.5,652.3c-1.8,0-2.3-0.7-2.3-2.6v-4.9h-1.8v-1.2h1.8v-2.8l1.5-0.4v3.2h2.4v1.2h-2.4v4.4
		c0,1.4,0.3,1.8,1.2,1.8c0.4,0,0.8-0.1,1.1-0.1l0.2,1.3C415.7,652.2,415.1,652.3,414.5,652.3z"/>
	<path fill="#999999" d="M424.7,652.3c-1.8,0-2.3-0.7-2.3-2.6v-4.9h-1.8v-1.2h1.8v-2.8l1.5-0.4v3.2h2.4v1.2h-2.4v4.4
		c0,1.4,0.3,1.8,1.2,1.8c0.4,0,0.8-0.1,1.1-0.1l0.2,1.3C425.9,652.2,425.2,652.3,424.7,652.3z"/>
	<path fill="#999999" d="M434.1,652.2v-5.5c0-1.2-0.3-1.9-1.5-1.9c-1.4,0-2.4,1.4-2.4,3.3v2.9c0.5,0,1,0.1,1.4,0.2v0.9h-4.4v-0.9
		c0.4-0.1,0.9-0.2,1.4-0.2v-10.2c-0.4-0.1-1-0.1-1.5-0.2v-0.9c0.9-0.1,2-0.2,3-0.1v4.1c0,0.6,0,1.2-0.2,1.7l0,0
		c0.5-1.2,1.5-1.9,3-1.9c1.9,0,2.6,1.2,2.6,2.7v4.8c0.5,0,1,0.1,1.4,0.2v0.9H434.1z"/>
	<path fill="#999999" d="M437.9,652.2v-0.9c0.4-0.1,1-0.2,1.5-0.2v-6.2c-0.4-0.1-1-0.1-1.5-0.2v-0.9c0.9-0.1,2-0.2,3-0.1v7.4
		c0.5,0,1,0.1,1.4,0.2v0.9H437.9z M440.2,641.9c-0.6,0-1-0.4-1-1c0-0.6,0.5-1,1-1c0.6,0,1,0.4,1,1
		C441.2,641.5,440.8,641.9,440.2,641.9z"/>
	<path fill="#999999" d="M445.7,652.3c-0.7,0-1.4-0.1-2-0.2v-2.4h0.9c0.1,0.4,0.2,0.9,0.2,1.4c0.3,0.1,0.7,0.1,1,0.1
		c1.2,0,1.9-0.5,1.9-1.3c0-1.9-4.3-0.8-4.3-3.8c0-1.5,1.2-2.6,3.4-2.6c0.6,0,1.3,0.1,2,0.2v2.3H448c-0.1-0.4-0.2-0.9-0.2-1.3
		c-0.3-0.1-0.6-0.1-1-0.1c-1.2,0-1.7,0.5-1.7,1.3c0,1.9,4.3,0.9,4.3,3.7C449.4,651.1,448,652.3,445.7,652.3z"/>
	<path fill="#999999" d="M458.4,652.3c-1.2,0-2-0.1-2.9-0.3v-11.1c-0.4-0.1-1-0.1-1.5-0.2v-0.9c0.9-0.1,2-0.2,3-0.1v4.1
		c0,0.5-0.1,1.2-0.2,1.6l0,0c0.5-1.2,1.5-1.9,2.8-1.9c2,0,3.2,1.4,3.2,4C462.9,650.5,461.2,652.3,458.4,652.3z M459.4,644.7
		c-1.5,0-2.3,1.8-2.3,3.3v2.8c0.4,0.1,0.9,0.2,1.5,0.2c1.6,0,2.7-1,2.7-3.4C461.3,645.8,460.7,644.7,459.4,644.7z"/>
	<path fill="#999999" d="M464.1,652.2v-0.9c0.4-0.1,1-0.2,1.5-0.2v-6.2c-0.4-0.1-1-0.1-1.5-0.2v-0.9c0.9-0.1,2-0.2,3-0.1v7.4
		c0.5,0,1,0.1,1.4,0.2v0.9H464.1z M466.4,641.9c-0.6,0-1-0.4-1-1c0-0.6,0.5-1,1-1c0.6,0,1,0.4,1,1
		C467.4,641.5,467,641.9,466.4,641.9z"/>
	<path fill="#999999" d="M473.2,656.6c-2.2,0-3.6-0.9-3.6-2.6c0-1,0.7-1.8,1.4-2.3c-0.5-0.2-0.8-0.7-0.8-1.3c0-0.6,0.4-1.2,0.9-1.4
		c-0.8-0.5-1.3-1.2-1.3-2.4c0-1.7,1.3-3.2,3.6-3.2c0.5,0,0.8,0.1,1.2,0.2h2.9v1.2h-1.4c0.4,0.3,0.7,0.9,0.7,1.6
		c0,1.8-1.2,3.1-3.6,3.1c-0.3,0-0.6,0-0.9-0.1c-0.4,0.2-0.6,0.4-0.6,0.7c0,0.5,0.4,0.6,1.5,0.7l1.6,0.1c1.8,0.1,2.9,0.9,2.9,2.5
		C477.7,655.1,475.9,656.6,473.2,656.6z M474.4,652.1l-1.7-0.1c-0.2,0-0.4,0-0.5,0c-0.7,0.5-1.1,1-1.1,1.7c0,1,1,1.6,2.3,1.6
		c1.7,0,2.7-0.8,2.7-1.8C476.2,652.7,475.6,652.2,474.4,652.1z M473.4,644.6c-1.3,0-2,0.8-2,1.9c0,1.2,0.7,1.9,2,1.9
		c1.2,0,2-0.7,2-1.9C475.4,645.4,474.7,644.6,473.4,644.6z"/>
	<path fill="#999999" d="M479.8,655.8l-1.1-0.6c1.4-2.4,2.1-5.1,2.1-7.9c0-2.9-0.7-5.6-2.2-8l1.2-0.6c2,3.2,2.5,5.9,2.5,8.5
		C482.3,649.7,481.8,652.7,479.8,655.8z"/>
	<path fill="#999999" d="M485.4,652.3c-0.6,0-1.1-0.5-1.1-1.1s0.5-1.1,1.1-1.1c0.6,0,1.1,0.5,1.1,1.1S486,652.3,485.4,652.3z"/>
</g>
</svg>
