<?xml version="1.0" encoding="utf-8"?>
<!-- Generator: Adobe Illustrator 18.0.0, SVG Export Plug-In . SVG Version: 6.00 Build 0)  -->
<!DOCTYPE svg PUBLIC "-//W3C//DTD SVG 1.1//EN" "http://www.w3.org/Graphics/SVG/1.1/DTD/svg11.dtd">
<svg version="1.1" id="Layer_1" xmlns="http://www.w3.org/2000/svg" xmlns:xlink="http://www.w3.org/1999/xlink" x="0px" y="0px"
	 viewBox="0 0 612 792" enable-background="new 0 0 612 792" xml:space="preserve">
<line fill="none" stroke="#999999" stroke-width="1.3" x1="152.8" y1="645.7" x2="355.1" y2="572.5"/>
<polyline fill="none" stroke="#999999" stroke-width="1.3" points="347.1,569.1 354.8,572.6 351.3,580.2 "/>
<circle cx="142.6" cy="648.7" r="5.5"/>
<circle cx="364.8" cy="569.3" r="5.5"/>
<g enable-background="new    ">
	<path d="M291.1,553.6c-2-3.2-2.5-6-2.5-8.5c0-2.5,0.6-5.5,2.5-8.6l1.1,0.5c-1.4,2.4-2.1,5.1-2.1,7.9c0,2.9,0.7,5.6,2.2,8
		L291.1,553.6z"/>
	<path d="M305.2,550v-5.5c0-1.2-0.3-1.9-1.4-1.9c-1.2,0-2.4,1.3-2.4,3.4v2.9c0.5,0,1,0.1,1.4,0.2v0.9h-2.9v-5.5
		c0-1.1-0.2-1.9-1.4-1.9c-1.3,0-2.4,1.4-2.4,3.4v2.9c0.5,0,1,0.1,1.4,0.2v0.9h-4.4v-0.9c0.4-0.1,1-0.2,1.5-0.2v-6.2
		c-0.4-0.1-1-0.1-1.5-0.2v-0.9c0.9-0.1,2.1-0.2,3-0.1c0,0.5-0.1,1.3-0.1,1.8l0,0c0.5-1.2,1.6-2,3-2c1.8,0,2.3,1.2,2.4,1.9
		c0.3-0.8,1.3-1.9,2.9-1.9c1.6,0,2.5,0.9,2.5,2.8v4.8c0.5,0,1,0.1,1.4,0.2v0.9H305.2z"/>
	<path d="M313.1,550.2c-2.3,0-3.8-1.3-3.8-4.3c0-2.6,1.6-4.6,4.2-4.6c2.2,0,3.8,1.2,3.8,4.3C317.3,548.2,315.7,550.2,313.1,550.2z
		 M313.3,542.6c-1.3,0-2.4,0.9-2.4,3.1c0,2,0.8,3.1,2.4,3.1c1.3,0,2.4-1,2.4-3.1C315.7,543.7,314.8,542.6,313.3,542.6z"/>
	<path d="M325.2,550c0-0.5,0-1.3,0.1-1.8h0c-0.5,1.2-1.5,2-3,2c-2,0-2.6-1.2-2.6-2.7v-4.8c-0.4-0.1-1-0.1-1.4-0.2v-0.9
		c0.8-0.1,2-0.2,3-0.1v5.5c0,1.2,0.3,1.9,1.5,1.9c1.4,0,2.4-1.4,2.4-3.3v-2.9c-0.4-0.1-0.9-0.1-1.4-0.2v-0.9c0.8-0.1,2-0.2,2.9-0.1
		v7.3c0.4,0.1,1,0.1,1.4,0.2v0.9C327.3,550,326.2,550,325.2,550z"/>
	<path d="M331.5,550.2c-0.7,0-1.4-0.1-2-0.2v-2.4h0.9c0.1,0.4,0.2,0.9,0.2,1.4c0.3,0.1,0.7,0.1,1,0.1c1.2,0,1.9-0.5,1.9-1.3
		c0-1.9-4.3-0.8-4.3-3.8c0-1.5,1.2-2.6,3.4-2.6c0.6,0,1.3,0.1,2,0.2v2.3h-0.9c-0.1-0.4-0.2-0.9-0.2-1.3c-0.3-0.1-0.6-0.1-1-0.1
		c-1.2,0-1.7,0.5-1.7,1.3c0,1.9,4.3,0.9,4.3,3.7C335.1,548.9,333.7,550.2,331.5,550.2z"/>
	<path d="M343.9,545.7h-5.6c-0.1,2.2,0.8,3.2,2.7,3.2c0.8,0,1.7-0.2,2.4-0.5l0.2,1.2c-0.9,0.3-1.9,0.5-3,0.5c-2.6,0-4-1.4-4-4.4
		c0-2.5,1.4-4.5,3.9-4.5c2.4,0,3.4,1.6,3.4,3.5C343.9,545,343.9,545.3,343.9,545.7z M340.4,542.5c-1.1,0-1.9,0.8-2.1,2.1h4
		C342.4,543.3,341.6,542.5,340.4,542.5z"/>
	<path d="M351.7,550v-0.9c0.4-0.1,0.8-0.2,1.2-0.2l-2.5-3.8l-2.5,3.8c0.4,0,0.9,0.1,1.2,0.2v0.9h-4.3v-0.9c0.4-0.1,0.8-0.2,1.2-0.2
		l3.4-4.8l-3.3-4.6c-0.4,0-0.8-0.1-1.2-0.2v-0.9h4.5v0.9c-0.4,0.1-0.8,0.2-1.3,0.2l2.3,3.4l2.3-3.4c-0.4,0-0.9-0.1-1.2-0.2v-0.9h4.3
		v0.9c-0.4,0.1-0.8,0.2-1.2,0.2l-3.2,4.5l3.5,4.9c0.4,0,0.8,0.1,1.2,0.2v0.9H351.7z"/>
	<path d="M357.4,552.6l-0.7-0.6c1.1-1.2,1.1-2,0.7-2.5c-0.5-0.6-0.1-1.5,0.7-1.5C359.5,548.1,360.1,550.2,357.4,552.6z"/>
	<path d="M372.9,550v-5.5c0-1.2-0.3-1.9-1.4-1.9c-1.2,0-2.4,1.3-2.4,3.4v2.9c0.5,0,1,0.1,1.4,0.2v0.9h-2.9v-5.5
		c0-1.1-0.2-1.9-1.4-1.9c-1.3,0-2.4,1.4-2.4,3.4v2.9c0.5,0,1,0.1,1.4,0.2v0.9h-4.4v-0.9c0.4-0.1,1-0.2,1.5-0.2v-6.2
		c-0.4-0.1-1-0.1-1.5-0.2v-0.9c0.9-0.1,2.1-0.2,3-0.1c0,0.5-0.1,1.3-0.1,1.8l0,0c0.5-1.2,1.6-2,3-2c1.8,0,2.3,1.2,2.4,1.9
		c0.3-0.8,1.3-1.9,2.9-1.9c1.6,0,2.5,0.9,2.5,2.8v4.8c0.5,0,1,0.1,1.4,0.2v0.9H372.9z"/>
	<path d="M380.8,550.2c-2.3,0-3.8-1.3-3.8-4.3c0-2.6,1.6-4.6,4.2-4.6c2.2,0,3.8,1.2,3.8,4.3C384.9,548.2,383.4,550.2,380.8,550.2z
		 M381,542.6c-1.3,0-2.4,0.9-2.4,3.1c0,2,0.8,3.1,2.4,3.1c1.3,0,2.4-1,2.4-3.1C383.3,543.7,382.5,542.6,381,542.6z"/>
	<path d="M392.9,550c0-0.5,0-1.3,0.1-1.8h0c-0.5,1.2-1.5,2-3,2c-2,0-2.6-1.2-2.6-2.7v-4.8c-0.4-0.1-1-0.1-1.4-0.2v-0.9
		c0.8-0.1,2-0.2,3-0.1v5.5c0,1.2,0.3,1.9,1.5,1.9c1.4,0,2.4-1.4,2.4-3.3v-2.9c-0.4-0.1-0.9-0.1-1.4-0.2v-0.9c0.8-0.1,2-0.2,2.9-0.1
		v7.3c0.4,0.1,1,0.1,1.4,0.2v0.9C395,550,393.8,550,392.9,550z"/>
	<path d="M399.1,550.2c-0.7,0-1.4-0.1-2-0.2v-2.4h0.9c0.1,0.4,0.2,0.9,0.2,1.4c0.3,0.1,0.7,0.1,1,0.1c1.2,0,1.9-0.5,1.9-1.3
		c0-1.9-4.3-0.8-4.3-3.8c0-1.5,1.2-2.6,3.4-2.6c0.6,0,1.3,0.1,2,0.2v2.3h-0.9c-0.1-0.4-0.2-0.9-0.2-1.3c-0.3-0.1-0.6-0.1-1-0.1
		c-1.2,0-1.7,0.5-1.7,1.3c0,1.9,4.3,0.9,4.3,3.7C402.8,548.9,401.4,550.2,399.1,550.2z"/>
	<path d="M411.5,545.7h-5.6c-0.1,2.2,0.8,3.2,2.7,3.2c0.8,0,1.7-0.2,2.4-0.5l0.2,1.2c-0.9,0.3-1.9,0.5-3,0.5c-2.6,0-4-1.4-4-4.4
		c0-2.5,1.4-4.5,3.9-4.5c2.4,0,3.4,1.6,3.4,3.5C411.6,545,411.6,545.3,411.5,545.7z M408.1,542.5c-1.1,0-1.9,0.8-2.1,2.1h4
		C410,543.3,409.3,542.5,408.1,542.5z"/>
	<path d="M421.5,539.5l-3.2,6.4v3c0.5,0,1,0.1,1.5,0.2v0.9h-4.6v-0.9c0.4-0.1,1-0.2,1.5-0.2v-2.9l-3.2-6.4c-0.3,0-0.8-0.1-1-0.2
		v-0.9h4.1v0.9c-0.4,0.1-0.8,0.2-1.3,0.2l1.4,3c0.3,0.6,0.6,1.3,0.8,1.9h0c0.3-0.7,0.6-1.4,0.9-2l1.4-2.9c-0.4,0-0.9-0.1-1.3-0.2
		v-0.9h4v0.9C422.2,539.4,421.8,539.5,421.5,539.5z"/>
	<path d="M424.2,553.6l-1.1-0.6c1.4-2.4,2.1-5.1,2.1-7.9c0-2.9-0.7-5.6-2.2-8l1.2-0.6c2,3.2,2.5,5.9,2.5,8.5
		C426.7,547.5,426.2,550.5,424.2,553.6z"/>
</g>
<g enable-background="new    ">
	<path d="M99.8,634.9c-2-3.2-2.5-6-2.5-8.5c0-2.5,0.6-5.5,2.5-8.6l1.1,0.5c-1.4,2.4-2.1,5.1-2.1,7.9c0,2.9,0.7,5.6,2.2,8L99.8,634.9
		z"/>
	<path d="M107.8,631.3l-1.9-3.2l-1.9,3.2h-2.6v-0.9c0.5-0.1,1-0.2,1.5-0.2l2.1-3.1l-2-3.1c-0.5,0-1-0.1-1.4-0.2v-0.9h2.6l1.8,3.1
		l1.9-3.1h2.5v0.9c-0.5,0.1-1,0.2-1.5,0.2l-1.9,3l2.1,3.2c0.5,0,0.9,0.1,1.4,0.2v0.9H107.8z"/>
	<path d="M111.8,633.9l-0.7-0.6c1.1-1.2,1.1-2,0.7-2.5c-0.5-0.6-0.1-1.5,0.7-1.5C113.9,629.3,114.4,631.5,111.8,633.9z"/>
	<path d="M123,623.9l-3,8.3c-0.9,2.6-1.8,3.5-3.7,3.5c-0.3,0-0.8,0-1.2-0.1l0.1-1.4c0.4,0.1,0.7,0.2,1.1,0.2c0.9,0,1.5-0.5,2.1-2.1
		l0.4-1h-0.4l-2.6-7.4c-0.4,0-0.8-0.1-1.1-0.2v-0.9h3.9v0.9c-0.3,0.1-0.7,0.2-1.1,0.2l1.3,3.7c0.3,0.8,0.5,1.4,0.7,2.1h0
		c0.1-0.6,0.5-1.6,0.8-2.5l1.2-3.3c-0.4,0-0.8-0.1-1.1-0.2v-0.9h3.8v0.9C123.8,623.8,123.4,623.8,123,623.9z"/>
	<path d="M125.8,634.9l-1.1-0.6c1.4-2.4,2.1-5.1,2.1-7.9c0-2.9-0.7-5.6-2.2-8l1.2-0.6c2,3.2,2.5,5.9,2.5,8.5
		C128.3,628.8,127.8,631.8,125.8,634.9z"/>
</g>
<g enable-background="new    ">
	<path d="M391.5,618.8c0-0.5,0-1.2,0.1-1.7l0,0c-0.5,1.2-1.5,1.9-2.9,1.9c-2.1,0-3.1-1.5-3.1-4c0-3,1.7-4.8,4.4-4.8
		c0.5,0,0.9,0,1.4,0.1v-2.8c-0.4-0.1-1-0.1-1.5-0.2v-0.9c0.9-0.1,2-0.2,3-0.1v11.3c0.4,0.1,1,0.1,1.4,0.2v0.9
		C393.7,618.8,392.5,618.9,391.5,618.8z M391.5,611.6c-0.5-0.1-1-0.2-1.5-0.2c-1.6,0-2.7,1-2.7,3.4c0,1.8,0.6,2.9,1.9,2.9
		c1.5,0,2.3-1.8,2.3-3.3V611.6z"/>
	<path d="M402.7,611.4l-3,8.3c-0.9,2.6-1.8,3.5-3.7,3.5c-0.3,0-0.8,0-1.2-0.1l0.1-1.4c0.4,0.1,0.7,0.2,1.1,0.2
		c0.9,0,1.5-0.5,2.1-2.1l0.4-1h-0.4l-2.6-7.4c-0.4,0-0.8-0.1-1.1-0.2v-0.9h3.9v0.9c-0.3,0.1-0.7,0.2-1.1,0.2l1.3,3.7
		c0.3,0.8,0.5,1.4,0.7,2.1h0c0.1-0.6,0.5-1.6,0.8-2.5l1.2-3.3c-0.4,0-0.8-0.1-1.1-0.2v-0.9h3.8v0.9
		C403.4,611.3,403.1,611.4,402.7,611.4z"/>
	<path d="M408.6,612.9v-1.3h7.5v1.3H408.6z M408.6,615.8v-1.3h7.5v1.3H408.6z"/>
	<path d="M433.5,618.8v-5.5c0-1.2-0.3-1.9-1.4-1.9c-1.2,0-2.4,1.3-2.4,3.4v2.9c0.5,0,1,0.1,1.4,0.2v0.9h-2.9v-5.5
		c0-1.1-0.2-1.9-1.4-1.9c-1.3,0-2.4,1.4-2.4,3.4v2.9c0.5,0,1,0.1,1.4,0.2v0.9h-4.4v-0.9c0.4-0.1,1-0.2,1.5-0.2v-6.2
		c-0.4-0.1-1-0.1-1.5-0.2v-0.9c0.9-0.1,2.1-0.2,3-0.1c0,0.5-0.1,1.3-0.1,1.8l0,0c0.5-1.2,1.6-2,3-2c1.8,0,2.3,1.2,2.4,1.9
		c0.3-0.8,1.3-1.9,2.9-1.9c1.6,0,2.5,0.9,2.5,2.8v4.8c0.5,0,1,0.1,1.4,0.2v0.9H433.5z"/>
	<path d="M441.4,619c-2.3,0-3.8-1.3-3.8-4.3c0-2.6,1.6-4.6,4.2-4.6c2.2,0,3.8,1.2,3.8,4.3C445.6,617,444,619,441.4,619z
		 M441.6,611.4c-1.3,0-2.4,0.9-2.4,3.1c0,2,0.8,3.1,2.4,3.1c1.3,0,2.4-1,2.4-3.1C444,612.6,443.1,611.4,441.6,611.4z"/>
	<path d="M453.5,618.8c0-0.5,0-1.3,0.1-1.8h0c-0.5,1.2-1.5,2-3,2c-2,0-2.6-1.2-2.6-2.7v-4.8c-0.4-0.1-1-0.1-1.4-0.2v-0.9
		c0.8-0.1,2-0.2,3-0.1v5.5c0,1.2,0.3,1.9,1.5,1.9c1.4,0,2.4-1.4,2.4-3.3v-2.9c-0.4-0.1-0.9-0.1-1.4-0.2v-0.9c0.8-0.1,2-0.2,2.9-0.1
		v7.3c0.4,0.1,1,0.1,1.4,0.2v0.9C455.6,618.8,454.4,618.9,453.5,618.8z"/>
	<path d="M459.8,619c-0.7,0-1.4-0.1-2-0.2v-2.4h0.9c0.1,0.4,0.2,0.9,0.2,1.4c0.3,0.1,0.7,0.1,1,0.1c1.2,0,1.9-0.5,1.9-1.3
		c0-1.9-4.3-0.8-4.3-3.8c0-1.5,1.2-2.6,3.4-2.6c0.6,0,1.3,0.1,2,0.2v2.3H462c-0.1-0.4-0.2-0.9-0.2-1.3c-0.3-0.1-0.6-0.1-1-0.1
		c-1.2,0-1.7,0.5-1.7,1.3c0,1.9,4.3,0.9,4.3,3.7C463.4,617.8,462,619,459.8,619z"/>
	<path d="M472.2,614.5h-5.6c-0.1,2.2,0.8,3.2,2.7,3.2c0.8,0,1.7-0.2,2.4-0.5l0.2,1.2c-0.9,0.3-1.9,0.5-3,0.5c-2.6,0-4-1.4-4-4.4
		c0-2.5,1.4-4.5,3.9-4.5c2.4,0,3.4,1.6,3.4,3.5C472.2,613.9,472.2,614.2,472.2,614.5z M468.7,611.3c-1.1,0-1.9,0.8-2.1,2.1h4
		C470.7,612.1,469.9,611.3,468.7,611.3z"/>
	<path d="M482.1,608.3l-3.2,6.4v3c0.5,0,1,0.1,1.5,0.2v0.9h-4.6v-0.9c0.4-0.1,1-0.2,1.5-0.2v-2.9l-3.1-6.4c-0.3,0-0.8-0.1-1-0.2
		v-0.9h4.1v0.9c-0.4,0.1-0.8,0.2-1.3,0.2l1.4,3c0.3,0.6,0.6,1.3,0.8,1.9h0c0.3-0.7,0.6-1.4,0.9-2l1.4-2.9c-0.4,0-0.9-0.1-1.3-0.2
		v-0.9h4v0.9C482.8,608.2,482.4,608.3,482.1,608.3z"/>
	<path d="M483.3,614.5v-1.3h4.1v1.3H483.3z"/>
	<path d="M496.6,611.4l-3,8.3c-0.9,2.6-1.8,3.5-3.7,3.5c-0.3,0-0.8,0-1.2-0.1l0.1-1.4c0.4,0.1,0.7,0.2,1.1,0.2
		c0.9,0,1.5-0.5,2.1-2.1l0.4-1H492l-2.6-7.4c-0.4,0-0.8-0.1-1.1-0.2v-0.9h3.9v0.9c-0.3,0.1-0.7,0.2-1.1,0.2l1.3,3.7
		c0.3,0.8,0.5,1.4,0.7,2.1h0c0.1-0.6,0.5-1.6,0.8-2.5l1.2-3.3c-0.4,0-0.8-0.1-1.1-0.2v-0.9h3.8v0.9
		C497.4,611.3,497,611.4,496.6,611.4z"/>
</g>
<g enable-background="new    ">
	<path d="M200.3,681c0-0.5,0-1.2,0.1-1.7l0,0c-0.5,1.2-1.5,1.9-2.9,1.9c-2.1,0-3.1-1.5-3.1-4c0-3,1.7-4.8,4.4-4.8
		c0.5,0,0.9,0,1.4,0.1v-2.8c-0.4-0.1-1-0.1-1.5-0.2v-0.9c0.9-0.1,2-0.2,3-0.1v11.3c0.4,0.1,1,0.1,1.4,0.2v0.9
		C202.4,681,201.2,681.1,200.3,681z M200.2,673.7c-0.5-0.1-1-0.2-1.5-0.2c-1.6,0-2.7,1-2.7,3.4c0,1.8,0.6,2.9,1.9,2.9
		c1.5,0,2.3-1.8,2.3-3.3V673.7z"/>
	<path d="M210.2,681l-1.9-3.2l-1.9,3.2h-2.6v-0.9c0.5-0.1,1-0.2,1.5-0.2l2.1-3.1l-2-3.1c-0.5,0-1-0.1-1.4-0.2v-0.9h2.6l1.8,3.1
		l1.9-3.1h2.5v0.9c-0.5,0.1-1,0.2-1.5,0.2l-1.9,3l2.1,3.2c0.5,0,0.9,0.1,1.4,0.2v0.9H210.2z"/>
	<path d="M217.8,675.1v-1.3h7.5v1.3H217.8z M217.8,678v-1.3h7.5v1.3H217.8z"/>
	<path d="M242.7,681v-5.5c0-1.2-0.3-1.9-1.4-1.9c-1.2,0-2.4,1.3-2.4,3.4v2.9c0.5,0,1,0.1,1.4,0.2v0.9h-2.9v-5.5
		c0-1.1-0.2-1.9-1.4-1.9c-1.3,0-2.4,1.4-2.4,3.4v2.9c0.5,0,1,0.1,1.4,0.2v0.9h-4.4v-0.9c0.4-0.1,1-0.2,1.5-0.2v-6.2
		c-0.4-0.1-1-0.1-1.5-0.2v-0.9c0.9-0.1,2.1-0.2,3-0.1c0,0.5-0.1,1.3-0.1,1.8l0,0c0.5-1.2,1.6-2,3-2c1.8,0,2.3,1.2,2.4,1.9
		c0.3-0.8,1.3-1.9,2.9-1.9c1.6,0,2.5,0.9,2.5,2.8v4.8c0.5,0,1,0.1,1.4,0.2v0.9H242.7z"/>
	<path d="M250.6,681.2c-2.3,0-3.8-1.3-3.8-4.3c0-2.6,1.6-4.6,4.2-4.6c2.2,0,3.8,1.2,3.8,4.3C254.7,679.2,253.2,681.2,250.6,681.2z
		 M250.8,673.6c-1.3,0-2.4,0.9-2.4,3.1c0,2,0.8,3.1,2.4,3.1c1.3,0,2.4-1,2.4-3.1C253.1,674.7,252.3,673.6,250.8,673.6z"/>
	<path d="M262.7,681c0-0.5,0-1.3,0.1-1.8h0c-0.5,1.2-1.5,2-3,2c-2,0-2.6-1.2-2.6-2.7v-4.8c-0.4-0.1-1-0.1-1.4-0.2v-0.9
		c0.8-0.1,2-0.2,3-0.1v5.5c0,1.2,0.3,1.9,1.5,1.9c1.4,0,2.4-1.4,2.4-3.3v-2.9c-0.4-0.1-0.9-0.1-1.4-0.2v-0.9c0.8-0.1,2-0.2,2.9-0.1
		v7.3c0.4,0.1,1,0.1,1.4,0.2v0.9C264.8,681,263.6,681.1,262.7,681z"/>
	<path d="M268.9,681.2c-0.7,0-1.4-0.1-2-0.2v-2.4h0.9c0.1,0.4,0.2,0.9,0.2,1.4c0.3,0.1,0.7,0.1,1,0.1c1.2,0,1.9-0.5,1.9-1.3
		c0-1.9-4.3-0.8-4.3-3.8c0-1.5,1.2-2.6,3.4-2.6c0.6,0,1.3,0.1,2,0.2v2.3h-0.9c-0.1-0.4-0.2-0.9-0.2-1.3c-0.3-0.1-0.6-0.1-1-0.1
		c-1.2,0-1.7,0.5-1.7,1.3c0,1.9,4.3,0.9,4.3,3.7C272.6,679.9,271.2,681.2,268.9,681.2z"/>
	<path d="M281.3,676.7h-5.6c-0.1,2.2,0.8,3.2,2.7,3.2c0.8,0,1.7-0.2,2.4-0.5l0.2,1.2c-0.9,0.3-1.9,0.5-3,0.5c-2.6,0-4-1.4-4-4.4
		c0-2.5,1.4-4.5,3.9-4.5c2.4,0,3.4,1.6,3.4,3.5C281.4,676,281.4,676.4,281.3,676.7z M277.9,673.5c-1.1,0-1.9,0.8-2.1,2.1h4
		C279.8,674.3,279.1,673.5,277.9,673.5z"/>
	<path d="M289.2,681v-0.9c0.4-0.1,0.8-0.2,1.2-0.2l-2.5-3.8l-2.5,3.8c0.4,0,0.9,0.1,1.2,0.2v0.9h-4.3v-0.9c0.4-0.1,0.8-0.2,1.2-0.2
		l3.4-4.8l-3.3-4.6c-0.4,0-0.8-0.1-1.2-0.2v-0.9h4.5v0.9c-0.4,0.1-0.8,0.2-1.3,0.2l2.3,3.4l2.3-3.4c-0.4,0-0.9-0.1-1.2-0.2v-0.9h4.3
		v0.9c-0.4,0.1-0.8,0.2-1.2,0.2L289,675l3.5,4.9c0.4,0,0.8,0.1,1.2,0.2v0.9H289.2z"/>
	<path d="M294.1,676.7v-1.3h4.1v1.3H294.1z"/>
	<path d="M305.5,681l-1.9-3.2l-1.9,3.2h-2.6v-0.9c0.5-0.1,1-0.2,1.5-0.2l2.1-3.1l-2-3.1c-0.5,0-1-0.1-1.4-0.2v-0.9h2.6l1.8,3.1
		l1.9-3.1h2.5v0.9c-0.5,0.1-1,0.2-1.5,0.2l-1.9,3l2.1,3.2c0.5,0,0.9,0.1,1.4,0.2v0.9H305.5z"/>
</g>
<polyline fill="none" stroke="#000000" stroke-dasharray="20,5" points="365.3,571.5 365.3,649.4 143,649.4 "/>
</svg>
