<?xml version="1.0" encoding="utf-8"?>
<!-- Generator: Adobe Illustrator 18.0.0, SVG Export Plug-In . SVG Version: 6.00 Build 0)  -->
<!DOCTYPE svg PUBLIC "-//W3C//DTD SVG 1.1//EN" "http://www.w3.org/Graphics/SVG/1.1/DTD/svg11.dtd">
<svg version="1.1" id="Layer_1" xmlns="http://www.w3.org/2000/svg" xmlns:xlink="http://www.w3.org/1999/xlink" x="0px" y="0px"
	 viewBox="0 0 640 480" enable-background="new 0 0 640 480" xml:space="preserve">
<circle cx="50.7" cy="180.5" r="5.8"/>
<text transform="matrix(1 0 0 1 91.167 142.833)" fill="#999999" font-family="'TheSerif-HP5Plain'" font-size="18">u</text>
<text transform="matrix(1 0 0 1 59.0361 78.044)" font-family="'TheSerif-HP5Plain'" font-size="18">-3</text>
<polyline fill="#FFFFFF" stroke="#999999" stroke-width="1.3" points="100.4,121.4 104.8,125.8 100.4,130.2 "/>
<line fill="#FFFFFF" stroke="#999999" stroke-width="1.3" x1="104.8" y1="125.8" x2="88.2" y2="125.8"/>
<text transform="matrix(1 0 0 1 26.0762 138.9736)" font-family="'TheSerif-HP5Plain'" font-size="18">7</text>
<line fill="none" stroke="#999999" stroke-width="1.3" x1="83.9" y1="106" x2="57" y2="170.8"/>
<polyline fill="none" stroke="#999999" stroke-width="1.3" points="65.2,167.9 57,170.7 54.1,162.4 "/>
<text transform="matrix(1 0 0 1 506.5 213.5)" fill="#999999" font-family="'TheSerif-HP5Plain'" font-size="18">w</text>
<polyline fill="#FFFFFF" stroke="#999999" stroke-width="1.3" points="517.7,192.1 522.1,196.5 517.7,200.9 "/>
<line fill="#FFFFFF" stroke="#999999" stroke-width="1.3" x1="522.1" y1="196.5" x2="505.5" y2="196.5"/>
<text transform="matrix(1 0 0 1 325.5 229.5)" fill="#999999" font-family="'TheSerif-HP5Plain'" font-size="18">w</text>
<polyline fill="#FFFFFF" stroke="#999999" stroke-width="1.3" points="336.7,208.1 341.1,212.5 336.7,216.9 "/>
<line fill="#FFFFFF" stroke="#999999" stroke-width="1.3" x1="341.1" y1="212.5" x2="324.5" y2="212.5"/>
<text transform="matrix(1 0 0 1 563.167 213.833)" fill="#999999" font-family="'TheSerif-HP5Plain'" font-size="18">u</text>
<polyline fill="#FFFFFF" stroke="#999999" stroke-width="1.3" points="572.4,192.4 576.8,196.8 572.4,201.2 "/>
<line fill="#FFFFFF" stroke="#999999" stroke-width="1.3" x1="576.8" y1="196.8" x2="560.2" y2="196.8"/>
<text transform="matrix(1 0 0 1 607.833 213.834)" font-family="'TheSerif-HP5Plain'" font-size="18">3</text>
<text transform="matrix(1 0 0 1 538.5503 214.5)" font-family="'TheSerif-HP5Plain'" font-size="18">=</text>
<text transform="matrix(1 0 0 1 588.1343 214.5)" font-family="'TheSerif-HP5Plain'" font-size="18">*</text>
<line fill="none" stroke="#000000" stroke-width="1.3" stroke-dasharray="6,6" x1="52.9" y1="97.5" x2="88.5" y2="97.5"/>
<line fill="none" stroke="#000000" stroke-width="1.3" stroke-dasharray="6,6" x1="50.4" y1="97.4" x2="50.4" y2="184.2"/>
<circle cx="250.7" cy="348.5" r="5.8"/>
<text transform="matrix(1 0 0 1 291.0361 78.044)" font-family="'TheSerif-HP5Plain'" font-size="18">-9</text>
<text transform="matrix(1 0 0 1 211.127 228.9736)" font-family="'TheSerif-HP5Plain'" font-size="18">21</text>
<circle cx="358.3" cy="97.5" r="5.8"/>
<line fill="none" stroke="#999999" stroke-width="1.3" x1="354.6" y1="106.5" x2="258.5" y2="338.1"/>
<polyline fill="none" stroke="#999999" stroke-width="1.3" points="266.9,335.4 258.6,338.2 255.8,329.9 "/>
<polyline fill="none" stroke="#999999" stroke-width="1.3" points="330.2,181 321.9,183.8 319.1,175.6 "/>
<polyline fill="none" stroke="#999999" stroke-width="1.3" points="298.5,258.6 290.2,261.4 287.4,253.1 "/>
<line fill="none" stroke="#000000" stroke-width="1.3" stroke-dasharray="6,6" x1="252.7" y1="97.5" x2="358.2" y2="97.5"/>
<line fill="none" stroke="#000000" stroke-width="1.3" stroke-dasharray="6,6" x1="250.4" y1="97.4" x2="250.4" y2="341.6"/>
<circle cx="86.3" cy="97.5" r="5.8"/>
</svg>
