<?xml version="1.0" encoding="utf-8"?>
<!-- Generator: Adobe Illustrator 18.0.0, SVG Export Plug-In . SVG Version: 6.00 Build 0)  -->
<!DOCTYPE svg PUBLIC "-//W3C//DTD SVG 1.1//EN" "http://www.w3.org/Graphics/SVG/1.1/DTD/svg11.dtd">
<svg version="1.1" id="Layer_1" xmlns="http://www.w3.org/2000/svg" xmlns:xlink="http://www.w3.org/1999/xlink" x="0px" y="0px"
	 viewBox="0 0 612 792" enable-background="new 0 0 612 792" xml:space="preserve">
<circle cx="48.5" cy="339.1" r="5.5"/>
<g enable-background="new    ">
	<path fill="#999999" d="M94.4,303.1c0-0.5,0-1.3,0.1-1.8h0c-0.5,1.2-1.5,2-3,2c-2,0-2.6-1.2-2.6-2.7v-4.8c-0.4-0.1-1-0.1-1.4-0.2
		v-0.9c0.8-0.1,2-0.2,3-0.1v5.5c0,1.2,0.3,1.9,1.5,1.9c1.4,0,2.4-1.4,2.4-3.3v-2.9c-0.4-0.1-0.9-0.1-1.4-0.2v-0.9
		c0.8-0.1,2-0.2,2.9-0.1v7.3c0.4,0.1,1,0.1,1.4,0.2v0.9C96.5,303.1,95.4,303.1,94.4,303.1z"/>
</g>
<g enable-background="new    ">
	<path d="M58.9,241.6v-1.4h5.4v1.4H58.9z"/>
	<path d="M70.5,247.7c-0.7,0-1.5-0.1-2.2-0.3l0.3-1.4c0.6,0.2,1.3,0.3,2.1,0.3c1.8,0,3-1,3-2.3c0-1.3-1-2.1-2.8-2.1
		c-0.6,0-1,0-1.5,0.1v-1.3h0.4c2.5,0,3.7-0.7,3.7-2.1c0-1.1-0.8-1.7-2.1-1.7c-0.9,0-1.7,0.3-2.4,0.7l-0.3-1.3c0.9-0.4,1.8-0.6,3-0.6
		c2.3,0,3.5,1.1,3.5,2.8c0,1.3-0.8,2.3-2.1,2.7l0,0c1.4,0.2,2.5,1.4,2.5,2.8C75.4,246.1,73.4,247.7,70.5,247.7z"/>
</g>
<polyline fill="#FFFFFF" stroke="#999999" stroke-width="1.3" points="96,282.6 100.2,286.8 96,291 "/>
<line fill="none" stroke="#999999" stroke-width="1.3" x1="100.2" y1="286.8" x2="84.3" y2="286.8"/>
<g enable-background="new    ">
	<path d="M31.7,300.8h-1.8c1-3.7,2.6-7.3,4.2-10.3c-0.6,0-4.2,0-5.9,0v-1.5h7.7v1.3C34.1,293.6,32.5,297.3,31.7,300.8z"/>
</g>
<line fill="none" stroke="#999999" stroke-width="1.3" x1="80.2" y1="267.9" x2="54.5" y2="329.8"/>
<polyline fill="none" stroke="#999999" stroke-width="1.3" points="62.3,327.1 54.5,329.7 51.7,321.8 "/>
<g enable-background="new    ">
	<path fill="#999999" d="M497.9,363.2l-2.3,7.4h-1.8l-1.7-5c-0.2-0.5-0.3-1.1-0.5-1.7h0c-0.2,0.8-0.4,1.4-0.6,2.2l-1.4,4.6h-1.8
		l-2.2-7.4c-0.4,0-0.8-0.1-1.1-0.2v-0.9h3.9v0.9c-0.4,0.1-0.8,0.2-1.2,0.2l1,3.8c0.2,0.7,0.4,1.4,0.5,1.9h0c0.2-0.7,0.4-1.4,0.6-2.1
		l1.5-4.8h1.6l1.5,4.8c0.3,1,0.5,1.5,0.6,2.1h0c0.2-0.6,0.3-1.1,0.5-1.9l1.1-3.9c-0.4,0-0.8-0.1-1.2-0.2v-0.9h3.8v0.9
		C498.6,363.1,498.3,363.2,497.9,363.2z"/>
</g>
<polyline fill="#FFFFFF" stroke="#999999" stroke-width="1.3" points="495.1,350.2 499.3,354.4 495.1,358.6 "/>
<line fill="none" stroke="#999999" stroke-width="1.3" x1="499.3" y1="354.4" x2="483.4" y2="354.4"/>
<g enable-background="new    ">
	<path fill="#999999" d="M324.8,378.5l-2.3,7.4h-1.8l-1.7-5c-0.2-0.5-0.3-1.1-0.5-1.7h0c-0.2,0.8-0.4,1.4-0.6,2.2l-1.4,4.6h-1.8
		l-2.2-7.4c-0.4,0-0.8-0.1-1.1-0.2v-0.9h3.9v0.9c-0.4,0.1-0.8,0.2-1.2,0.2l1,3.8c0.2,0.7,0.4,1.4,0.5,1.9h0c0.2-0.7,0.4-1.4,0.6-2.1
		l1.5-4.8h1.6l1.5,4.8c0.3,1,0.5,1.5,0.6,2.1h0c0.2-0.6,0.3-1.1,0.5-1.9l1.1-3.9c-0.4,0-0.8-0.1-1.2-0.2v-0.9h3.8v0.9
		C325.6,378.4,325.2,378.5,324.8,378.5z"/>
</g>
<polyline fill="#FFFFFF" stroke="#999999" stroke-width="1.3" points="322,365.5 326.2,369.7 322,373.9 "/>
<line fill="none" stroke="#999999" stroke-width="1.3" x1="326.2" y1="369.7" x2="310.3" y2="369.7"/>
<g enable-background="new    ">
	<path fill="#999999" d="M545.8,371c0-0.5,0-1.3,0.1-1.8h0c-0.5,1.2-1.5,2-3,2c-2,0-2.6-1.2-2.6-2.7v-4.8c-0.4-0.1-1-0.1-1.4-0.2
		v-0.9c0.8-0.1,2-0.2,3-0.1v5.5c0,1.2,0.3,1.9,1.5,1.9c1.4,0,2.4-1.4,2.4-3.3v-2.9c-0.4-0.1-0.9-0.1-1.4-0.2v-0.9
		c0.8-0.1,2-0.2,2.9-0.1v7.3c0.4,0.1,1,0.1,1.4,0.2v0.9C547.9,371,546.7,371,545.8,371z"/>
</g>
<polyline fill="#FFFFFF" stroke="#999999" stroke-width="1.3" points="547.4,350.5 551.6,354.7 547.4,358.9 "/>
<line fill="none" stroke="#999999" stroke-width="1.3" x1="551.6" y1="354.7" x2="535.7" y2="354.7"/>
<g enable-background="new    ">
	<path d="M588.1,364.7c0,1.3-0.9,2.4-2.2,2.9v0c1.5,0.3,2.4,1.4,2.4,2.8c0,2.3-1.9,3.9-4.7,3.9c-0.5,0-1.1-0.1-1.5-0.2l0.2-1.4
		c0.4,0.1,1,0.2,1.5,0.2c1.7,0,2.9-0.9,2.9-2.3c0-1.7-1.6-2.3-4-2v-1.3c2.4,0,3.8-0.9,3.8-2.4c0-1.1-0.7-1.8-1.9-1.8
		c-0.4,0-0.8,0.1-1.1,0.2c0,0.4-0.1,0.9-0.2,1.4h-0.9v-2.4c0.7-0.3,1.5-0.5,2.5-0.5C587.1,361.9,588.1,363.1,588.1,364.7z"/>
</g>
<text transform="matrix(1 0 0 1 514.9893 371.6157)" font-family="'TheSerif-HP5Plain'" font-size="17.2125">=</text>
<text transform="matrix(1 0 0 1 562.4033 371.6157)" font-family="'TheSerif-HP5Plain'" font-size="17.2125">*</text>
<line fill="none" stroke="#000000" stroke-width="1.3" stroke-dasharray="6,6" x1="50.6" y1="259.7" x2="84.6" y2="259.7"/>
<line fill="none" stroke="#000000" stroke-width="1.3" stroke-dasharray="6,6" x1="48.2" y1="259.6" x2="48.2" y2="342.6"/>
<circle cx="239.7" cy="499.8" r="5.5"/>
<g enable-background="new    ">
	<path d="M280.8,243.6v-1.4h5.4v1.4H280.8z"/>
	<path d="M291.6,249.7c-0.5,0-1,0-1.5-0.1l0.1-1.4c0.5,0.1,1.1,0.2,1.6,0.2c2.2,0,3.6-1.4,4-3.6c0.1-0.3,0.1-0.6,0.1-0.8h0
		c-0.6,0.8-1.5,1.3-2.7,1.3c-2.2,0-3.4-1.4-3.4-3.6c0-2.4,1.6-4,3.9-4c2.2,0,3.9,1.4,3.9,4.9C297.6,247.5,295,249.7,291.6,249.7z
		 M293.6,238.9c-1.3,0-2.2,1.1-2.2,2.5c0,1.4,0.8,2.4,2.2,2.4c1.5,0,2.3-1.1,2.3-2.3C295.8,240,295,238.9,293.6,238.9z"/>
</g>
<g enable-background="new    ">
	<path d="M210.3,385.5v-1.3l2.5-2.2c2.2-1.8,2.7-2.6,2.7-3.7c0-1.1-0.7-1.9-2.1-1.9c-1,0-1.9,0.5-2.5,0.9l-0.3-1.4
		c0.9-0.6,1.9-0.9,3.1-0.9c2.3,0,3.5,1.3,3.5,3.1c0,1.5-0.8,2.6-2.7,4.2l-2.1,1.8l-0.1,0c0.8-0.1,2.7-0.1,5.2-0.1v1.5H210.3z"/>
	<path d="M221,385.5v-1.4h3.1v-7.2l-3,1.9l-0.6-1.3l3.8-2.3h1.3v9h2.7v1.4H221z"/>
</g>
<circle cx="342.6" cy="259.7" r="5.5"/>
<line fill="none" stroke="#999999" stroke-width="1.3" x1="339.1" y1="268.3" x2="247.2" y2="489.8"/>
<polyline fill="none" stroke="#999999" stroke-width="1.3" points="255.2,487.2 247.3,489.9 244.6,482 "/>
<polyline fill="none" stroke="#999999" stroke-width="1.3" points="315.8,339.6 307.8,342.3 305.1,334.4 "/>
<polyline fill="none" stroke="#999999" stroke-width="1.3" points="285.4,413.8 277.5,416.5 274.8,408.5 "/>
<line fill="none" stroke="#000000" stroke-width="1.3" stroke-dasharray="6,6" x1="241.6" y1="259.7" x2="342.5" y2="259.7"/>
<line fill="none" stroke="#000000" stroke-width="1.3" stroke-dasharray="6,6" x1="239.4" y1="259.6" x2="239.4" y2="493.2"/>
<circle cx="82.5" cy="259.7" r="5.5"/>
</svg>
