<?xml version="1.0" encoding="utf-8"?>
<!-- Generator: Adobe Illustrator 18.0.0, SVG Export Plug-In . SVG Version: 6.00 Build 0)  -->
<!DOCTYPE svg PUBLIC "-//W3C//DTD SVG 1.1//EN" "http://www.w3.org/Graphics/SVG/1.1/DTD/svg11.dtd">
<svg version="1.1" id="Layer_1" xmlns="http://www.w3.org/2000/svg" xmlns:xlink="http://www.w3.org/1999/xlink" x="0px" y="0px"
	 viewBox="0 0 612 792" enable-background="new 0 0 612 792" xml:space="preserve">
<g enable-background="new    ">
	<path d="M12.3,615.2c-0.7,0-1.5-0.1-2.2-0.3l0.3-1.4c0.6,0.2,1.3,0.3,2.1,0.3c1.8,0,3-1,3-2.3c0-1.3-1-2.1-2.8-2.1
		c-0.6,0-1.1,0-1.5,0.1v-1.3h0.4c2.5,0,3.7-0.7,3.7-2.1c0-1.1-0.8-1.7-2.1-1.7c-0.9,0-1.7,0.3-2.4,0.7l-0.3-1.3
		c0.9-0.4,1.8-0.6,3-0.6c2.3,0,3.5,1.1,3.5,2.8c0,1.3-0.8,2.3-2.1,2.7l0,0c1.4,0.2,2.5,1.4,2.5,2.8
		C17.2,613.6,15.2,615.2,12.3,615.2z"/>
</g>
<g enable-background="new    ">
	<path d="M76.5,667.6v2.9h-1.5v-2.9h-5.3l-0.1-1.3l4.8-7.6h2.2v7.5h2v1.4H76.5z M75,660.1L75,660.1l-3.9,6.1c1,0,3.2,0,3.9,0V660.1z
		"/>
</g>
<g enable-background="new    ">
	<path fill="#999999" d="M96.2,601.8c-0.6,0-1.3-0.1-1.9-0.2l0.1-1.4c0.6,0.2,1.4,0.2,1.9,0.2c2.1,0,3.2-1.2,3.2-2.6
		c0-1.5-1.2-2.3-3.1-2.3c-0.7,0-1.3,0.1-1.8,0.1v-5.9h6.1v1.5l-4.6,0v3c0.3,0,0.6,0,0.8,0c2.8,0,4.3,1.5,4.3,3.3
		C101.3,600,99.3,601.8,96.2,601.8z"/>
	<path fill="#999999" d="M117,603.8c-2-3.2-2.5-6-2.5-8.5c0-2.5,0.6-5.5,2.5-8.6l1.1,0.5c-1.4,2.4-2.1,5.1-2.1,7.9
		c0,2.9,0.7,5.6,2.2,8L117,603.8z"/>
	<path fill="#999999" d="M131.1,600.2v-5.5c0-1.2-0.3-1.9-1.4-1.9c-1.2,0-2.4,1.3-2.4,3.4v2.9c0.5,0,1,0.1,1.4,0.2v0.9h-2.9v-5.5
		c0-1.1-0.2-1.9-1.4-1.9c-1.3,0-2.4,1.4-2.4,3.4v2.9c0.5,0,1,0.1,1.4,0.2v0.9H119v-0.9c0.4-0.1,1-0.2,1.5-0.2v-6.2
		c-0.4-0.1-1-0.1-1.5-0.2v-0.9c0.9-0.1,2.1-0.2,3-0.1c0,0.5-0.1,1.3-0.1,1.8l0,0c0.5-1.2,1.6-2,3-2c1.8,0,2.3,1.2,2.4,1.9
		c0.3-0.8,1.3-1.9,2.9-1.9c1.6,0,2.5,0.9,2.5,2.8v4.8c0.5,0,1,0.1,1.4,0.2v0.9H131.1z"/>
	<path fill="#999999" d="M140.3,600.2c0-0.6,0-1.2,0.1-1.7h0c-0.4,1-1.5,1.9-2.9,1.9c-1.4,0-2.4-0.9-2.4-2.3c0-1.8,1.9-2.9,5.1-2.9
		v-0.6c0-1.2-0.4-1.9-1.8-1.9c-0.5,0-1.1,0.1-1.6,0.2c0,0.4-0.1,0.9-0.2,1.4h-1v-2.3c0.9-0.3,1.9-0.5,2.9-0.5c2.5,0,3.2,1.2,3.2,2.9
		v4.6c0.4,0.1,1,0.1,1.4,0.2v0.9C142.4,600.2,141.2,600.2,140.3,600.2z M140.2,596.2c-2.7,0-3.6,0.7-3.6,1.6c0,0.7,0.5,1.3,1.3,1.3
		c1.4,0,2.3-1.4,2.3-2.7V596.2z"/>
	<path fill="#999999" d="M147.8,604.6c-2.2,0-3.6-0.9-3.6-2.6c0-1,0.7-1.8,1.4-2.3c-0.5-0.2-0.8-0.7-0.8-1.3c0-0.6,0.4-1.2,0.9-1.4
		c-0.8-0.5-1.3-1.2-1.3-2.4c0-1.7,1.3-3.2,3.6-3.2c0.5,0,0.8,0.1,1.2,0.2h2.9v1.2h-1.4c0.4,0.3,0.7,0.9,0.7,1.6
		c0,1.8-1.2,3.1-3.6,3.1c-0.3,0-0.6,0-0.9-0.1c-0.4,0.2-0.6,0.4-0.6,0.7c0,0.5,0.4,0.6,1.5,0.7l1.6,0.1c1.8,0.1,2.9,0.9,2.9,2.5
		C152.4,603.1,150.5,604.6,147.8,604.6z M149,600.1l-1.7-0.1c-0.2,0-0.4,0-0.5,0c-0.7,0.5-1.1,1-1.1,1.7c0,1,1,1.6,2.3,1.6
		c1.7,0,2.7-0.8,2.7-1.8C150.8,600.7,150.2,600.2,149,600.1z M148.1,592.6c-1.3,0-2,0.8-2,1.9c0,1.2,0.7,1.9,2,1.9
		c1.2,0,2-0.7,2-1.9C150,593.4,149.3,592.6,148.1,592.6z"/>
	<path fill="#999999" d="M160.3,600.2v-5.5c0-1.2-0.3-1.9-1.4-1.9c-1.4,0-2.4,1.4-2.4,3.3v2.9c0.5,0,1,0.1,1.4,0.2v0.9h-4.4v-0.9
		c0.4-0.1,1-0.2,1.5-0.2v-6.2c-0.4-0.1-1-0.1-1.5-0.2v-0.9c0.9-0.1,2-0.2,3-0.1c0,0.5,0,1.3-0.1,1.8h0c0.5-1.2,1.6-2,3-2
		c1.9,0,2.6,1.2,2.6,2.7v4.8c0.5,0,1,0.1,1.4,0.2v0.9H160.3z"/>
	<path fill="#999999" d="M164.1,600.2v-0.9c0.4-0.1,1-0.2,1.5-0.2v-6.2c-0.4-0.1-1-0.1-1.5-0.2v-0.9c0.9-0.1,2-0.2,3-0.1v7.4
		c0.5,0,1,0.1,1.4,0.2v0.9H164.1z M166.4,589.9c-0.6,0-1-0.4-1-1c0-0.6,0.5-1,1-1c0.6,0,1,0.4,1,1
		C167.4,589.5,166.9,589.9,166.4,589.9z"/>
	<path fill="#999999" d="M172.9,600.3c-1.8,0-2.3-0.7-2.3-2.6v-4.9h-1.8v-1.2h1.8v-2.8l1.5-0.4v3.2h2.4v1.2h-2.4v4.4
		c0,1.4,0.3,1.8,1.2,1.8c0.4,0,0.8-0.1,1.1-0.1l0.2,1.3C174.1,600.2,173.4,600.3,172.9,600.3z"/>
	<path fill="#999999" d="M182.4,600.2c0-0.5,0-1.3,0.1-1.8h0c-0.5,1.2-1.5,2-3,2c-2,0-2.6-1.2-2.6-2.7v-4.8c-0.4-0.1-1-0.1-1.4-0.2
		v-0.9c0.8-0.1,2-0.2,3-0.1v5.5c0,1.2,0.3,1.9,1.5,1.9c1.4,0,2.4-1.4,2.4-3.3v-2.9c-0.4-0.1-0.9-0.1-1.4-0.2v-0.9
		c0.8-0.1,2-0.2,2.9-0.1v7.3c0.4,0.1,1,0.1,1.4,0.2v0.9C184.5,600.2,183.3,600.2,182.4,600.2z"/>
	<path fill="#999999" d="M192.3,600.2c0-0.5,0-1.2,0.1-1.7l0,0c-0.5,1.2-1.5,1.9-2.9,1.9c-2.1,0-3.1-1.5-3.1-4c0-3,1.7-4.8,4.4-4.8
		c0.5,0,0.9,0,1.4,0.1v-2.8c-0.4-0.1-1-0.1-1.5-0.2v-0.9c0.9-0.1,2-0.2,3-0.1V599c0.4,0.1,1,0.1,1.4,0.2v0.9
		C194.4,600.2,193.2,600.2,192.3,600.2z M192.2,592.9c-0.5-0.1-1-0.2-1.5-0.2c-1.6,0-2.7,1-2.7,3.4c0,1.8,0.6,2.9,1.9,2.9
		c1.5,0,2.3-1.8,2.3-3.3V592.9z"/>
	<path fill="#999999" d="M203.3,595.9h-5.6c-0.1,2.2,0.8,3.2,2.7,3.2c0.8,0,1.7-0.2,2.4-0.5l0.2,1.2c-0.9,0.3-1.9,0.5-3,0.5
		c-2.6,0-4-1.4-4-4.4c0-2.5,1.4-4.5,3.9-4.5c2.4,0,3.4,1.6,3.4,3.5C203.4,595.2,203.4,595.5,203.3,595.9z M199.9,592.6
		c-1.1,0-1.9,0.8-2.1,2.1h4C201.8,593.5,201.1,592.6,199.9,592.6z"/>
	<path fill="#999999" d="M205.7,603.8l-1.1-0.6c1.4-2.4,2.1-5.1,2.1-7.9c0-2.9-0.7-5.6-2.2-8l1.2-0.6c2,3.2,2.5,5.9,2.5,8.5
		C208.3,597.7,207.7,600.7,205.7,603.8z"/>
</g>
<line fill="none" stroke="#999999" stroke-width="1.3" x1="39.4" y1="581.6" x2="111.6" y2="640.4"/>
<line fill="none" stroke="#000000" stroke-width="1.3" x1="26.5" y1="648.8" x2="121.6" y2="648.8"/>
<polyline fill="none" stroke="#999999" stroke-width="1.3" points="111.7,632.4 111.6,640.8 103.2,640.7 "/>
<circle cx="28.8" cy="573.6" r="5.5"/>
<line fill="none" stroke="#000000" stroke-width="1.3" x1="26.8" y1="576.8" x2="26.8" y2="648.2"/>
<polyline fill="none" stroke="#000000" stroke-width="1.3" points="43.8,648.8 43.8,632.4 27.4,632.4 "/>
<circle cx="120.2" cy="648.5" r="5.5"/>
<g enable-background="new    ">
	<path d="M456.2,617.1c-0.7,0-1.5-0.1-2.2-0.3l0.3-1.4c0.6,0.2,1.3,0.3,2.1,0.3c1.8,0,3-1,3-2.3c0-1.3-1-2.1-2.8-2.1
		c-0.6,0-1.1,0-1.5,0.1v-1.3h0.4c2.5,0,3.7-0.7,3.7-2.1c0-1.1-0.8-1.7-2.1-1.7c-0.9,0-1.7,0.3-2.4,0.7l-0.3-1.3
		c0.9-0.4,1.8-0.6,3-0.6c2.3,0,3.5,1.1,3.5,2.8c0,1.3-0.8,2.3-2.1,2.7l0,0c1.4,0.2,2.5,1.4,2.5,2.8
		C461.1,615.5,459.1,617.1,456.2,617.1z"/>
	<path d="M465.3,617.6l-1.3-0.5l6.7-15.2l1.3,0.5L465.3,617.6z"/>
	<path d="M476.8,617.1c-0.6,0-1.3-0.1-1.9-0.2l0.1-1.4c0.6,0.2,1.4,0.2,1.9,0.2c2.1,0,3.2-1.2,3.2-2.6c0-1.5-1.2-2.3-3.1-2.3
		c-0.7,0-1.3,0.1-1.8,0.1v-5.9h6.1v1.5l-4.6,0v3c0.3,0,0.6,0,0.8,0c2.8,0,4.3,1.5,4.3,3.3C481.8,615.3,479.8,617.1,476.8,617.1z"/>
</g>
<g enable-background="new    ">
	<path d="M532.8,667.6v2.9h-1.5v-2.9H526l-0.1-1.3l4.8-7.6h2.2v7.5h2v1.4H532.8z M531.3,660.1L531.3,660.1l-3.9,6.1c1,0,3.2,0,3.9,0
		V660.1z"/>
	<path d="M538,671.1l-1.3-0.5l6.7-15.2l1.3,0.5L538,671.1z"/>
	<path d="M549.5,670.6c-0.6,0-1.3-0.1-1.9-0.2l0.1-1.4c0.6,0.2,1.4,0.2,1.9,0.2c2.1,0,3.2-1.2,3.2-2.6c0-1.5-1.2-2.3-3.1-2.3
		c-0.7,0-1.3,0.1-1.8,0.1v-5.9h6.1v1.5l-4.6,0v3c0.3,0,0.6,0,0.8,0c2.8,0,4.3,1.5,4.3,3.3C554.6,668.8,552.5,670.6,549.5,670.6z"/>
</g>
<g enable-background="new    ">
	<path fill="#999999" d="M551.4,619.9c-0.6,0-1.3-0.1-1.9-0.2l0.1-1.4c0.6,0.2,1.4,0.2,1.9,0.2c2.1,0,3.2-1.2,3.2-2.6
		c0-1.5-1.2-2.3-3.1-2.3c-0.7,0-1.3,0.1-1.8,0.1V608h6.1v1.5l-4.6,0v3c0.3,0,0.6,0,0.8,0c2.8,0,4.3,1.5,4.3,3.3
		C556.5,618.1,554.4,619.9,551.4,619.9z"/>
	<path fill="#999999" d="M560.6,620.4l-1.3-0.5l6.7-15.2l1.3,0.5L560.6,620.4z"/>
	<path fill="#999999" d="M572.1,619.9c-0.6,0-1.3-0.1-1.9-0.2l0.1-1.4c0.6,0.2,1.4,0.2,1.9,0.2c2.1,0,3.2-1.2,3.2-2.6
		c0-1.5-1.2-2.3-3.1-2.3c-0.7,0-1.3,0.1-1.8,0.1V608h6.1v1.5l-4.6,0v3c0.3,0,0.6,0,0.8,0c2.8,0,4.3,1.5,4.3,3.3
		C577.1,618.1,575.1,619.9,572.1,619.9z"/>
	<path fill="#999999" d="M580.1,612.3V611h7.6v1.3H580.1z M580.1,615.2V614h7.6v1.3H580.1z"/>
	<path fill="#999999" d="M590.9,618.3v-1.4h3.2v-7.2l-3,1.9l-0.6-1.3l3.8-2.3h1.3v9h2.7v1.4H590.9z"/>
</g>
<line fill="none" stroke="#999999" stroke-width="1.3" x1="505.4" y1="607.5" x2="549.7" y2="643.4"/>
<line fill="none" stroke="#000000" stroke-width="1.3" x1="495.1" y1="648.8" x2="556.1" y2="648.8"/>
<polyline fill="none" stroke="#999999" stroke-width="1.3" points="549.7,635.3 549.6,643.7 541.1,643.6 "/>
<circle cx="497.3" cy="602.3" r="5.5"/>
<line fill="none" stroke="#000000" stroke-width="1.3" x1="495.2" y1="602.6" x2="495.2" y2="648.4"/>
<polyline fill="none" stroke="#000000" stroke-width="1.3" points="506.1,648.8 506.1,638.3 495.6,638.3 "/>
<circle cx="560.1" cy="648.5" r="5.5"/>
<g enable-background="new    ">
	<path d="M271.6,606.5v10.4h-2.1l-4.5-7.3c-0.5-0.8-1-1.7-1.3-2.5c0.1,2,0.1,5,0.1,8.7c0.5,0,1,0.1,1.4,0.2v0.9h-4.4V616
		c0.4-0.1,1-0.2,1.5-0.2v-9.3c-0.5,0-1-0.1-1.5-0.2v-0.9h3.6l4.4,7.2c0.5,0.8,1,1.7,1.4,2.5c-0.1-2-0.1-5-0.1-8.6
		c-0.5,0-0.9-0.1-1.3-0.2v-0.9h4.1v0.9C272.4,606.3,272,606.4,271.6,606.5z"/>
	<path d="M277.8,617.1c-2.3,0-3.8-1.3-3.8-4.3c0-2.6,1.6-4.6,4.2-4.6c2.2,0,3.8,1.2,3.8,4.3C282,615.1,280.4,617.1,277.8,617.1z
		 M278,609.5c-1.3,0-2.4,0.9-2.4,3.1c0,2,0.8,3.1,2.4,3.1c1.3,0,2.4-1,2.4-3.1C280.4,610.7,279.5,609.5,278,609.5z"/>
	<path d="M289.1,609.8c-2-0.3-2.8,1-2.8,3.7v2.3c0.5,0,1.1,0.1,1.5,0.2v0.9h-4.5V616c0.4-0.1,1-0.2,1.5-0.2v-6.2
		c-0.4-0.1-1-0.1-1.5-0.2v-0.9c0.9-0.1,2-0.2,3-0.1c0,0.5-0.1,1.3-0.2,2h0c0.4-1.2,1.2-2.4,3.1-2.2L289.1,609.8z"/>
	<path d="M302.1,616.9v-5.5c0-1.2-0.3-1.9-1.4-1.9c-1.2,0-2.4,1.3-2.4,3.4v2.9c0.5,0,1,0.1,1.4,0.2v0.9h-2.9v-5.5
		c0-1.1-0.2-1.9-1.4-1.9c-1.3,0-2.4,1.4-2.4,3.4v2.9c0.5,0,1,0.1,1.4,0.2v0.9h-4.4V616c0.4-0.1,1-0.2,1.5-0.2v-6.2
		c-0.4-0.1-1-0.1-1.5-0.2v-0.9c0.9-0.1,2.1-0.2,3-0.1c0,0.5-0.1,1.3-0.1,1.8l0,0c0.5-1.2,1.6-2,3-2c1.8,0,2.3,1.2,2.4,1.9
		c0.3-0.8,1.3-1.9,2.9-1.9c1.6,0,2.5,0.9,2.5,2.8v4.8c0.5,0,1,0.1,1.4,0.2v0.9H302.1z"/>
	<path d="M311.3,616.9c0-0.6,0-1.2,0.1-1.7h0c-0.4,1-1.5,1.9-2.9,1.9s-2.4-0.9-2.4-2.3c0-1.8,1.9-2.9,5.1-2.9v-0.6
		c0-1.2-0.4-1.9-1.8-1.9c-0.5,0-1.1,0.1-1.6,0.2c0,0.4-0.1,0.9-0.2,1.4h-1v-2.3c0.9-0.3,1.9-0.5,2.9-0.5c2.5,0,3.2,1.2,3.2,2.9v4.6
		c0.4,0.1,1,0.1,1.4,0.2v0.9C313.4,616.9,312.2,617,311.3,616.9z M311.2,613c-2.7,0-3.6,0.7-3.6,1.6c0,0.7,0.5,1.3,1.3,1.3
		c1.4,0,2.3-1.4,2.3-2.7V613z"/>
	<path d="M314.8,616.9V616c0.4-0.1,0.9-0.2,1.4-0.2v-10.2c-0.4-0.1-1-0.1-1.5-0.2v-0.9c0.9-0.1,2-0.2,3-0.1v11.4
		c0.5,0,1,0.1,1.4,0.2v0.9H314.8z"/>
	<path d="M320.1,616.9V616c0.4-0.1,1-0.2,1.5-0.2v-6.2c-0.4-0.1-1-0.1-1.5-0.2v-0.9c0.9-0.1,2-0.2,3-0.1v7.4c0.5,0,1,0.1,1.4,0.2
		v0.9H320.1z M322.3,606.7c-0.6,0-1-0.4-1-1c0-0.6,0.5-1,1-1c0.6,0,1,0.4,1,1C323.4,606.2,322.9,606.7,322.3,606.7z"/>
	<path d="M325.6,616.9v-1.1l4.4-6.2c-0.5,0-1.3,0-2.1,0h-1c-0.1,0.4-0.1,0.8-0.2,1.3h-1v-2.5h6v1.1l-4.3,6.2c0.5,0,1.4,0,2.1,0h1.1
		c0.1-0.4,0.1-0.9,0.2-1.3h1v2.6H325.6z"/>
	<path d="M338.6,616.9c0-0.6,0-1.2,0.1-1.7h0c-0.4,1-1.5,1.9-2.9,1.9c-1.4,0-2.4-0.9-2.4-2.3c0-1.8,1.9-2.9,5.1-2.9v-0.6
		c0-1.2-0.4-1.9-1.8-1.9c-0.5,0-1.1,0.1-1.6,0.2c0,0.4-0.1,0.9-0.2,1.4h-1v-2.3c0.9-0.3,1.9-0.5,2.9-0.5c2.5,0,3.2,1.2,3.2,2.9v4.6
		c0.4,0.1,1,0.1,1.4,0.2v0.9C340.7,616.9,339.5,617,338.6,616.9z M338.5,613c-2.7,0-3.6,0.7-3.6,1.6c0,0.7,0.5,1.3,1.3,1.3
		c1.4,0,2.3-1.4,2.3-2.7V613z"/>
	<path d="M345.7,617.1c-1.8,0-2.3-0.7-2.3-2.6v-4.9h-1.8v-1.2h1.8v-2.8l1.5-0.4v3.2h2.4v1.2H345v4.4c0,1.4,0.3,1.8,1.2,1.8
		c0.4,0,0.8-0.1,1.1-0.1l0.2,1.3C346.9,617,346.2,617.1,345.7,617.1z"/>
	<path d="M348.5,616.9V616c0.4-0.1,1-0.2,1.5-0.2v-6.2c-0.4-0.1-1-0.1-1.5-0.2v-0.9c0.9-0.1,2-0.2,3-0.1v7.4c0.5,0,1,0.1,1.4,0.2
		v0.9H348.5z M350.8,606.7c-0.6,0-1-0.4-1-1c0-0.6,0.5-1,1-1c0.6,0,1,0.4,1,1C351.8,606.2,351.3,606.7,350.8,606.7z"/>
	<path d="M357.6,617.1c-2.3,0-3.8-1.3-3.8-4.3c0-2.6,1.6-4.6,4.2-4.6c2.2,0,3.8,1.2,3.8,4.3C361.8,615.1,360.2,617.1,357.6,617.1z
		 M357.8,609.5c-1.3,0-2.4,0.9-2.4,3.1c0,2,0.8,3.1,2.4,3.1c1.3,0,2.4-1,2.4-3.1C360.2,610.7,359.3,609.5,357.8,609.5z"/>
	<path d="M369.9,616.9v-5.5c0-1.2-0.3-1.9-1.4-1.9c-1.4,0-2.4,1.4-2.4,3.3v2.9c0.5,0,1,0.1,1.4,0.2v0.9H363V616
		c0.4-0.1,1-0.2,1.5-0.2v-6.2c-0.4-0.1-1-0.1-1.5-0.2v-0.9c0.9-0.1,2-0.2,3-0.1c0,0.5,0,1.3-0.1,1.8h0c0.5-1.2,1.6-2,3-2
		c1.9,0,2.6,1.2,2.6,2.7v4.8c0.5,0,1,0.1,1.4,0.2v0.9H369.9z"/>
</g>
<g enable-background="new    ">
	<path fill="#999999" d="M231.7,641.2c-2-3.2-2.5-6-2.5-8.5c0-2.5,0.6-5.5,2.5-8.6l1.1,0.5c-1.4,2.4-2.1,5.1-2.1,7.9
		c0,2.9,0.7,5.6,2.2,8L231.7,641.2z"/>
	<path fill="#999999" d="M238.1,637.7c-1.2,0-2.3-0.1-2.9-0.1h-1.5v-0.9c0.4-0.1,1-0.2,1.5-0.2v-9.3c-0.5,0-1.1-0.1-1.5-0.2V626h1.5
		c0.9,0,2.2-0.1,3.5-0.1c3.7,0,6,1.7,6,5.7C244.5,635.6,241.9,637.7,238.1,637.7z M238.5,627.2c-0.6,0-1.3,0-1.8,0.1v9
		c0.4,0.1,1.1,0.1,1.5,0.1c2.7,0,4.6-1.4,4.6-4.6C242.9,628.8,241.5,627.2,238.5,627.2z"/>
	<path fill="#999999" d="M245.8,637.6v-0.9c0.4-0.1,1-0.2,1.5-0.2v-6.2c-0.4-0.1-1-0.1-1.5-0.2v-0.9c0.9-0.1,2-0.2,3-0.1v7.4
		c0.5,0,1,0.1,1.4,0.2v0.9H245.8z M248.1,627.3c-0.6,0-1-0.4-1-1c0-0.6,0.5-1,1-1c0.6,0,1,0.4,1,1
		C249.1,626.9,248.7,627.3,248.1,627.3z"/>
	<path fill="#999999" d="M258.3,630.2l-2.7,7.4h-1.9l-2.7-7.4c-0.4,0-0.8-0.1-1.1-0.2V629h4v0.9c-0.4,0.1-0.8,0.2-1.2,0.2l1.4,4.2
		c0.2,0.6,0.4,1.1,0.5,1.7h0c0.2-0.6,0.3-1.1,0.5-1.6l1.5-4.2c-0.4,0-0.8-0.1-1.2-0.2V629h3.9v0.9
		C259.1,630.1,258.7,630.1,258.3,630.2z"/>
	<path fill="#999999" d="M260,637.6v-0.9c0.4-0.1,1-0.2,1.5-0.2v-6.2c-0.4-0.1-1-0.1-1.5-0.2v-0.9c0.9-0.1,2-0.2,3-0.1v7.4
		c0.5,0,1,0.1,1.4,0.2v0.9H260z M262.3,627.3c-0.6,0-1-0.4-1-1c0-0.6,0.5-1,1-1c0.6,0,1,0.4,1,1
		C263.3,626.9,262.8,627.3,262.3,627.3z"/>
	<path fill="#999999" d="M271.4,637.6c0-0.5,0-1.2,0.1-1.7l0,0c-0.5,1.2-1.5,1.9-2.9,1.9c-2.1,0-3.1-1.5-3.1-4c0-3,1.7-4.8,4.4-4.8
		c0.5,0,0.9,0,1.4,0.1v-2.8c-0.4-0.1-1-0.1-1.5-0.2v-0.9c0.9-0.1,2-0.2,3-0.1v11.3c0.4,0.1,1,0.1,1.4,0.2v0.9
		C273.6,637.6,272.4,637.6,271.4,637.6z M271.4,630.3c-0.5-0.1-1-0.2-1.5-0.2c-1.6,0-2.7,1-2.7,3.4c0,1.8,0.6,2.9,1.9,2.9
		c1.5,0,2.3-1.8,2.3-3.3V630.3z"/>
	<path fill="#999999" d="M282.5,633.3h-5.6c-0.1,2.2,0.8,3.2,2.7,3.2c0.8,0,1.7-0.2,2.4-0.5l0.2,1.2c-0.9,0.3-1.9,0.5-3,0.5
		c-2.6,0-4-1.4-4-4.4c0-2.5,1.4-4.5,3.9-4.5c2.4,0,3.4,1.6,3.4,3.5C282.5,632.6,282.5,632.9,282.5,633.3z M279.1,630.1
		c-1.1,0-1.9,0.8-2.1,2.1h4C281,630.9,280.3,630.1,279.1,630.1z"/>
	<path fill="#999999" d="M291.5,637.7c-1.2,0-2-0.1-2.9-0.3v-11.1c-0.4-0.1-1-0.1-1.5-0.2v-0.9c0.9-0.1,2-0.2,3-0.1v4.1
		c0,0.5-0.1,1.2-0.2,1.6l0,0c0.5-1.2,1.5-1.9,2.8-1.9c2,0,3.1,1.4,3.1,4C296,635.9,294.3,637.7,291.5,637.7z M292.5,630.2
		c-1.5,0-2.3,1.8-2.3,3.3v2.8c0.4,0.1,0.9,0.2,1.5,0.2c1.6,0,2.7-1,2.7-3.4C294.4,631.2,293.8,630.2,292.5,630.2z"/>
	<path fill="#999999" d="M305.2,630.2l-3,8.3c-0.9,2.6-1.8,3.5-3.7,3.5c-0.3,0-0.8,0-1.2-0.1l0.1-1.4c0.4,0.1,0.7,0.2,1.1,0.2
		c0.9,0,1.5-0.5,2.1-2.1l0.4-1h-0.4l-2.6-7.4c-0.4,0-0.8-0.1-1.1-0.2V629h3.9v0.9c-0.3,0.1-0.7,0.2-1.1,0.2l1.3,3.7
		c0.3,0.8,0.5,1.4,0.7,2.1h0c0.1-0.6,0.5-1.6,0.8-2.5l1.2-3.3c-0.4,0-0.8-0.1-1.1-0.2V629h3.8v0.9
		C305.9,630.1,305.5,630.1,305.2,630.2z"/>
	<path fill="#999999" d="M322.8,637.6v-5.5c0-1.2-0.3-1.9-1.4-1.9c-1.2,0-2.4,1.3-2.4,3.4v2.9c0.5,0,1,0.1,1.4,0.2v0.9h-2.9v-5.5
		c0-1.1-0.2-1.9-1.4-1.9c-1.3,0-2.4,1.4-2.4,3.4v2.9c0.5,0,1,0.1,1.4,0.2v0.9h-4.4v-0.9c0.4-0.1,1-0.2,1.5-0.2v-6.2
		c-0.4-0.1-1-0.1-1.5-0.2v-0.9c0.9-0.1,2.1-0.2,3-0.1c0,0.5-0.1,1.3-0.1,1.8l0,0c0.5-1.2,1.6-2,3-2c1.8,0,2.3,1.2,2.4,1.9
		c0.3-0.8,1.3-1.9,2.9-1.9c1.6,0,2.5,0.9,2.5,2.8v4.8c0.5,0,1,0.1,1.4,0.2v0.9H322.8z"/>
	<path fill="#999999" d="M332,637.6c0-0.6,0-1.2,0.1-1.7h0c-0.4,1-1.5,1.9-2.9,1.9s-2.4-0.9-2.4-2.3c0-1.8,1.9-2.9,5.1-2.9v-0.6
		c0-1.2-0.4-1.9-1.8-1.9c-0.5,0-1.1,0.1-1.6,0.2c0,0.4-0.1,0.9-0.2,1.4h-1v-2.3c0.9-0.3,1.9-0.5,2.9-0.5c2.5,0,3.2,1.2,3.2,2.9v4.6
		c0.4,0.1,1,0.1,1.4,0.2v0.9C334.1,637.6,332.9,637.6,332,637.6z M331.9,633.6c-2.7,0-3.6,0.7-3.6,1.6c0,0.7,0.5,1.3,1.3,1.3
		c1.4,0,2.3-1.4,2.3-2.7V633.6z"/>
	<path fill="#999999" d="M339.5,642c-2.2,0-3.6-0.9-3.6-2.6c0-1,0.7-1.8,1.4-2.3c-0.5-0.2-0.8-0.7-0.8-1.3c0-0.6,0.4-1.2,0.9-1.4
		c-0.8-0.5-1.3-1.2-1.3-2.4c0-1.7,1.3-3.2,3.6-3.2c0.5,0,0.8,0.1,1.2,0.2h2.9v1.2h-1.4c0.4,0.3,0.7,0.9,0.7,1.6
		c0,1.8-1.2,3.1-3.6,3.1c-0.3,0-0.6,0-0.9-0.1c-0.4,0.2-0.6,0.4-0.6,0.7c0,0.5,0.4,0.6,1.5,0.7l1.6,0.1c1.8,0.1,2.9,0.9,2.9,2.5
		C344,640.6,342.2,642,339.5,642z M340.7,637.6l-1.7-0.1c-0.2,0-0.4,0-0.5,0c-0.7,0.5-1.1,1-1.1,1.7c0,1,1,1.6,2.3,1.6
		c1.7,0,2.7-0.8,2.7-1.8C342.4,638.1,341.9,637.6,340.7,637.6z M339.7,630c-1.3,0-2,0.8-2,1.9c0,1.2,0.7,1.9,2,1.9
		c1.2,0,2-0.7,2-1.9C341.7,630.8,341,630,339.7,630z"/>
	<path fill="#999999" d="M352,637.6v-5.5c0-1.2-0.3-1.9-1.4-1.9c-1.4,0-2.4,1.4-2.4,3.3v2.9c0.5,0,1,0.1,1.4,0.2v0.9H345v-0.9
		c0.4-0.1,1-0.2,1.5-0.2v-6.2c-0.4-0.1-1-0.1-1.5-0.2v-0.9c0.9-0.1,2-0.2,3-0.1c0,0.5,0,1.3-0.1,1.8h0c0.5-1.2,1.6-2,3-2
		c1.9,0,2.6,1.2,2.6,2.7v4.8c0.5,0,1,0.1,1.4,0.2v0.9H352z"/>
	<path fill="#999999" d="M355.7,637.6v-0.9c0.4-0.1,1-0.2,1.5-0.2v-6.2c-0.4-0.1-1-0.1-1.5-0.2v-0.9c0.9-0.1,2-0.2,3-0.1v7.4
		c0.5,0,1,0.1,1.4,0.2v0.9H355.7z M358,627.3c-0.6,0-1-0.4-1-1c0-0.6,0.5-1,1-1c0.6,0,1,0.4,1,1C359,626.9,358.6,627.3,358,627.3z"
		/>
	<path fill="#999999" d="M364.5,637.7c-1.8,0-2.3-0.7-2.3-2.6v-4.9h-1.8V629h1.8v-2.8l1.5-0.4v3.2h2.4v1.2h-2.4v4.4
		c0,1.4,0.3,1.8,1.2,1.8c0.4,0,0.8-0.1,1.1-0.1l0.2,1.3C365.8,637.7,365.1,637.7,364.5,637.7z"/>
	<path fill="#999999" d="M374.1,637.6c0-0.5,0-1.3,0.1-1.8h0c-0.5,1.2-1.5,2-3,2c-2,0-2.6-1.2-2.6-2.7v-4.8c-0.4-0.1-1-0.1-1.4-0.2
		v-0.9c0.8-0.1,2-0.2,3-0.1v5.5c0,1.2,0.3,1.9,1.5,1.9c1.4,0,2.4-1.4,2.4-3.3v-2.9c-0.4-0.1-0.9-0.1-1.4-0.2v-0.9
		c0.8-0.1,2-0.2,2.9-0.1v7.3c0.4,0.1,1,0.1,1.4,0.2v0.9C376.2,637.6,375,637.6,374.1,637.6z"/>
	<path fill="#999999" d="M383.9,637.6c0-0.5,0-1.2,0.1-1.7l0,0c-0.5,1.2-1.5,1.9-2.9,1.9c-2.1,0-3.2-1.5-3.2-4c0-3,1.7-4.8,4.4-4.8
		c0.5,0,0.9,0,1.4,0.1v-2.8c-0.4-0.1-1-0.1-1.5-0.2v-0.9c0.9-0.1,2-0.2,3-0.1v11.3c0.4,0.1,1,0.1,1.4,0.2v0.9
		C386.1,637.6,384.9,637.6,383.9,637.6z M383.9,630.3c-0.5-0.1-1-0.2-1.5-0.2c-1.6,0-2.7,1-2.7,3.4c0,1.8,0.6,2.9,1.9,2.9
		c1.5,0,2.3-1.8,2.3-3.3V630.3z"/>
	<path fill="#999999" d="M395,633.3h-5.6c-0.1,2.2,0.8,3.2,2.7,3.2c0.8,0,1.7-0.2,2.4-0.5l0.2,1.2c-0.9,0.3-1.9,0.5-3,0.5
		c-2.6,0-4-1.4-4-4.4c0-2.5,1.4-4.5,3.9-4.5c2.4,0,3.4,1.6,3.4,3.5C395,632.6,395,632.9,395,633.3z M391.6,630.1
		c-1.1,0-1.9,0.8-2.1,2.1h4C393.5,630.9,392.8,630.1,391.6,630.1z"/>
	<path fill="#999999" d="M397.8,637.7c-0.6,0-1.1-0.5-1.1-1.1s0.5-1.1,1.1-1.1c0.6,0,1.1,0.5,1.1,1.1S398.4,637.7,397.8,637.7z"/>
	<path fill="#999999" d="M401.3,641.2l-1.1-0.6c1.4-2.4,2.1-5.1,2.1-7.9c0-2.9-0.7-5.6-2.2-8l1.2-0.6c2,3.2,2.5,5.9,2.5,8.5
		C403.9,635.1,403.3,638.1,401.3,641.2z"/>
</g>
<line fill="none" stroke="#000000" stroke-width="2" x1="333.3" y1="586.6" x2="297.9" y2="586.6"/>
<line fill="none" stroke="#000000" stroke-width="2" x1="333.3" y1="575.1" x2="297.9" y2="575.1"/>
<polyline fill="none" stroke="#000000" stroke-width="2" points="326.1,567.6 338.8,580.7 325.8,593.4 "/>
</svg>
