<?xml version="1.0" encoding="utf-8"?>
<!-- Generator: Adobe Illustrator 17.1.0, SVG Export Plug-In . SVG Version: 6.00 Build 0)  -->
<!DOCTYPE svg PUBLIC "-//W3C//DTD SVG 1.1//EN" "http://www.w3.org/Graphics/SVG/1.1/DTD/svg11.dtd">
<svg version="1.1" id="Layer_1" xmlns="http://www.w3.org/2000/svg" xmlns:xlink="http://www.w3.org/1999/xlink" x="0px" y="0px"
	 viewBox="0 207 612 350" enable-background="new 0 207 612 350" xml:space="preserve">
<line fill="none" stroke="#999999" stroke-width="1.3" x1="34.6" y1="456.5" x2="177" y2="386.6"/>
<polyline fill="none" stroke="#999999" stroke-width="1.3" points="169.4,384 177.4,386.4 174.9,394.5 "/>
<text transform="matrix(1 0 0 1 27.2534 251.1284)" font-family="'ArialMT'" font-size="17.2125">This vector </text>
<text transform="matrix(1 0 0 1 27.2534 274.0786)" font-family="'ArialMT'" font-size="17.2125">has a length of 10.</text>
<text transform="matrix(1 0 0 1 116.5029 251.4478)" fill="#999999" font-family="'ArialMT'" font-size="17.2125">v</text>
<polyline fill="#FFFFFF" stroke="#999999" stroke-width="1.3" points="125.3,231 129.6,235.2 125.3,239.4 "/>
<line fill="none" stroke="#999999" stroke-width="1.3" x1="129.6" y1="235.2" x2="113.6" y2="235.2"/>
<text transform="matrix(1 0 0 1 438.4404 251.1284)" font-family="'ArialMT'" font-size="17.2125">This vector </text>
<text transform="matrix(1 0 0 1 438.4404 274.0786)" font-family="'ArialMT'" font-size="17.2125">points in the same</text>
<text transform="matrix(1 0 0 1 438.4404 297.0283)" font-family="'ArialMT'" font-size="17.2125">direction and now</text>
<text transform="matrix(1 0 0 1 438.4404 319.9785)" font-family="'ArialMT'" font-size="17.2125">has a length of 1.</text>
<text transform="matrix(1 0 0 1 438.4404 342.9282)" fill="#999999" font-family="'ArialMT'" font-size="17.2125">(unit vector)</text>
<text transform="matrix(1 0 0 1 527.6904 251.4478)" fill="#999999" font-family="'ArialMT'" font-size="17.2125">v</text>
<polyline fill="#FFFFFF" stroke="#999999" stroke-width="1.3" points="536.5,231 540.8,235.2 536.5,239.4 "/>
<line fill="none" stroke="#999999" stroke-width="1.3" x1="540.8" y1="235.2" x2="524.8" y2="235.2"/>
<line fill="none" stroke="#000000" stroke-width="2" x1="319.9" y1="402.5" x2="284.5" y2="402.5"/>
<line fill="none" stroke="#000000" stroke-width="2" x1="319.9" y1="391" x2="284.5" y2="391"/>
<polyline fill="none" stroke="#000000" stroke-width="1.3" stroke-dasharray="4,4" points="30.7,448.5 26.1,439 169.2,370.1 
	173.8,379.6 "/>
<text transform="matrix(1 0 0 1 79.8472 393.6099)" font-family="'ArialMT'" font-size="17.2125">10</text>
<line fill="none" stroke="#999999" stroke-width="1.3" x1="486.3" y1="454.4" x2="533.5" y2="431.3"/>
<polyline fill="none" stroke="#999999" stroke-width="1.3" points="525.6,428.8 533.5,431.3 531,439.2 "/>
<polyline fill="none" stroke="#000000" stroke-width="1.3" stroke-dasharray="4,4" points="483,449.5 478.4,440 527.5,416.4 
	532,425.8 "/>
<text transform="matrix(1 0 0 1 493.9034 415.6035)" font-family="'ArialMT'" font-size="17.2125">1</text>
<text transform="matrix(1 0 0 1 266.2104 433.7725)" font-family="'ArialMT'" font-size="17.2125">Process of </text>
<text transform="matrix(1 0 0 1 249.7627 456.7227)" font-family="'ArialMT'" font-size="17.2125">Normalization</text>
<polyline fill="none" stroke="#000000" stroke-width="2" points="312.7,383.5 325.4,396.6 312.4,409.3 "/>
</svg>
