<?xml version="1.0" encoding="utf-8"?>
<!-- Generator: Adobe Illustrator 18.0.0, SVG Export Plug-In . SVG Version: 6.00 Build 0)  -->
<!DOCTYPE svg PUBLIC "-//W3C//DTD SVG 1.1//EN" "http://www.w3.org/Graphics/SVG/1.1/DTD/svg11.dtd">
<svg version="1.1" id="Layer_1" xmlns="http://www.w3.org/2000/svg" xmlns:xlink="http://www.w3.org/1999/xlink" x="0px" y="0px"
	 viewBox="0 0 612 792" enable-background="new 0 0 612 792" xml:space="preserve">
<line fill="none" stroke="#999999" stroke-width="1.3" x1="34.6" y1="677.5" x2="177" y2="607.6"/>
<polyline fill="none" stroke="#999999" stroke-width="1.3" points="169.4,605 177.4,607.4 174.9,615.5 "/>
<g enable-background="new    ">
	<path d="M35.5,463.4c-0.1-0.7-0.2-1.2-0.2-1.6h-2.4v9.2c0.5,0,1,0.1,1.5,0.2v0.9h-4.6v-0.9c0.4-0.1,1-0.2,1.5-0.2v-9.2h-2.4
		c0,0.4-0.1,0.9-0.2,1.6h-1.1v-2.9h9v2.9H35.5z"/>
	<path d="M44.1,472.1v-5.5c0-1.2-0.3-1.9-1.5-1.9c-1.4,0-2.4,1.4-2.4,3.3v2.9c0.5,0,1,0.1,1.4,0.2v0.9h-4.4v-0.9
		c0.4-0.1,0.9-0.2,1.4-0.2v-10.2c-0.4-0.1-1-0.1-1.5-0.2v-0.9c0.9-0.1,2-0.2,3-0.1v4.1c0,0.6,0,1.2-0.2,1.7l0,0
		c0.5-1.2,1.5-1.9,3-1.9c1.9,0,2.6,1.2,2.6,2.7v4.8c0.5,0,1,0.1,1.4,0.2v0.9H44.1z"/>
	<path d="M47.9,472.1v-0.9c0.4-0.1,1-0.2,1.5-0.2v-6.2c-0.4-0.1-1-0.1-1.5-0.2v-0.9c0.9-0.1,2-0.2,3-0.1v7.4c0.5,0,1,0.1,1.4,0.2
		v0.9H47.9z M50.2,461.9c-0.6,0-1-0.4-1-1c0-0.6,0.5-1,1-1c0.6,0,1,0.4,1,1C51.2,461.4,50.7,461.9,50.2,461.9z"/>
	<path d="M55.7,472.3c-0.7,0-1.4-0.1-2-0.2v-2.4h0.9c0.1,0.4,0.2,0.9,0.2,1.4c0.3,0.1,0.7,0.1,1,0.1c1.2,0,1.9-0.5,1.9-1.3
		c0-1.9-4.3-0.8-4.3-3.8c0-1.5,1.2-2.6,3.4-2.6c0.6,0,1.3,0.1,2,0.2v2.3H58c-0.1-0.4-0.2-0.9-0.2-1.3c-0.3-0.1-0.6-0.1-1-0.1
		c-1.2,0-1.7,0.5-1.7,1.3c0,1.9,4.3,0.9,4.3,3.7C59.4,471.1,58,472.3,55.7,472.3z"/>
	<path d="M72.4,464.7l-2.7,7.4h-1.9l-2.7-7.4c-0.4,0-0.8-0.1-1.1-0.2v-0.9h4v0.9c-0.4,0.1-0.8,0.2-1.2,0.2l1.4,4.2
		c0.2,0.6,0.4,1.1,0.5,1.7h0c0.2-0.6,0.3-1.1,0.5-1.6l1.5-4.2c-0.4,0-0.8-0.1-1.2-0.2v-0.9h3.9v0.9
		C73.1,464.6,72.8,464.7,72.4,464.7z"/>
	<path d="M81.1,467.8h-5.6c-0.1,2.2,0.8,3.2,2.7,3.2c0.8,0,1.7-0.2,2.4-0.5l0.2,1.2c-0.9,0.3-1.9,0.5-3,0.5c-2.6,0-4-1.4-4-4.4
		c0-2.5,1.4-4.5,3.9-4.5c2.4,0,3.4,1.6,3.4,3.5C81.2,467.1,81.2,467.5,81.1,467.8z M77.7,464.6c-1.1,0-1.9,0.8-2.1,2.1h4
		C79.6,465.4,78.9,464.6,77.7,464.6z"/>
	<path d="M86.5,472.3c-2.1,0-3.9-1-3.9-4.1c0-2.8,1.4-4.7,4.3-4.7c0.7,0,1.5,0.1,2.1,0.3v2.5h-1c-0.1-0.5-0.2-1-0.2-1.4
		c-0.3-0.1-0.7-0.1-1.2-0.1c-1.5,0-2.4,1.3-2.4,3.2c0,1.7,0.6,3,2.6,3c0.7,0,1.5-0.2,2-0.4l0.3,1.3C88.5,472,87.6,472.3,86.5,472.3z
		"/>
	<path d="M93.7,472.3c-1.8,0-2.3-0.7-2.3-2.6v-4.9h-1.8v-1.2h1.8v-2.8l1.5-0.4v3.2h2.4v1.2H93v4.4c0,1.4,0.3,1.8,1.2,1.8
		c0.4,0,0.8-0.1,1.1-0.1l0.2,1.3C95,472.2,94.3,472.3,93.7,472.3z"/>
	<path d="M100.6,472.3c-2.3,0-3.8-1.3-3.8-4.3c0-2.6,1.6-4.6,4.2-4.6c2.2,0,3.8,1.2,3.8,4.3C104.7,470.3,103.2,472.3,100.6,472.3z
		 M100.8,464.7c-1.3,0-2.4,0.9-2.4,3.1c0,2,0.8,3.1,2.4,3.1c1.3,0,2.4-1,2.4-3.1C103.1,465.8,102.3,464.7,100.8,464.7z"/>
	<path d="M111.8,465c-2-0.3-2.8,1-2.8,3.7v2.3c0.5,0,1,0.1,1.5,0.2v0.9h-4.5v-0.9c0.4-0.1,1-0.2,1.5-0.2v-6.2
		c-0.4-0.1-1-0.1-1.5-0.2v-0.9c0.9-0.1,2-0.2,3-0.1c0,0.5-0.1,1.3-0.2,2h0c0.4-1.2,1.2-2.4,3.1-2.2L111.8,465z"/>
</g>
<g enable-background="new    ">
	<path d="M34.4,495.1v-5.5c0-1.2-0.3-1.9-1.5-1.9c-1.4,0-2.4,1.4-2.4,3.3v2.9c0.5,0,1,0.1,1.4,0.2v0.9h-4.4v-0.9
		c0.4-0.1,0.9-0.2,1.4-0.2v-10.2c-0.4-0.1-1-0.1-1.5-0.2v-0.9c0.9-0.1,2-0.2,3-0.1v4.1c0,0.6,0,1.2-0.2,1.7l0,0
		c0.5-1.2,1.5-1.9,3-1.9c1.9,0,2.6,1.2,2.6,2.7v4.8c0.5,0,1,0.1,1.4,0.2v0.9H34.4z"/>
	<path d="M43.6,495.1c0-0.6,0-1.2,0.1-1.7h0c-0.4,1-1.5,1.9-2.9,1.9c-1.4,0-2.4-0.9-2.4-2.3c0-1.8,1.9-2.9,5.1-2.9v-0.6
		c0-1.2-0.4-1.9-1.8-1.9c-0.5,0-1.1,0.1-1.6,0.2c0,0.4-0.1,0.9-0.2,1.4h-1v-2.3c0.9-0.3,1.9-0.5,2.9-0.5c2.5,0,3.2,1.2,3.2,2.9v4.6
		c0.4,0.1,1,0.1,1.4,0.2v0.9C45.7,495.1,44.5,495.1,43.6,495.1z M43.5,491.1c-2.7,0-3.6,0.7-3.6,1.6c0,0.7,0.5,1.3,1.3,1.3
		c1.4,0,2.3-1.4,2.3-2.7V491.1z"/>
	<path d="M49.8,495.2c-0.7,0-1.4-0.1-2-0.2v-2.4h0.9c0.1,0.4,0.2,0.9,0.2,1.4c0.3,0.1,0.7,0.1,1,0.1c1.2,0,1.9-0.5,1.9-1.3
		c0-1.9-4.3-0.8-4.3-3.8c0-1.5,1.2-2.6,3.4-2.6c0.6,0,1.3,0.1,2,0.2v2.3h-0.9c-0.1-0.4-0.2-0.9-0.2-1.3c-0.3-0.1-0.6-0.1-1-0.1
		c-1.2,0-1.7,0.5-1.7,1.3c0,1.9,4.3,0.9,4.3,3.7C53.5,494,52.1,495.2,49.8,495.2z"/>
	<path d="M64.1,495.1c0-0.6,0-1.2,0.1-1.7h0c-0.4,1-1.5,1.9-2.9,1.9c-1.4,0-2.4-0.9-2.4-2.3c0-1.8,1.9-2.9,5.1-2.9v-0.6
		c0-1.2-0.4-1.9-1.8-1.9c-0.5,0-1.1,0.1-1.6,0.2c0,0.4-0.1,0.9-0.2,1.4h-1v-2.3c0.9-0.3,1.9-0.5,2.9-0.5c2.5,0,3.2,1.2,3.2,2.9v4.6
		c0.4,0.1,1,0.1,1.4,0.2v0.9C66.2,495.1,65,495.1,64.1,495.1z M64,491.1c-2.7,0-3.6,0.7-3.6,1.6c0,0.7,0.5,1.3,1.3,1.3
		c1.4,0,2.3-1.4,2.3-2.7V491.1z"/>
	<path d="M71.3,495.1v-0.9c0.4-0.1,0.9-0.2,1.4-0.2v-10.2c-0.4-0.1-1-0.1-1.5-0.2v-0.9c0.9-0.1,2-0.2,3-0.1v11.4
		c0.5,0,1,0.1,1.4,0.2v0.9H71.3z"/>
	<path d="M83.9,490.8h-5.6c-0.1,2.2,0.8,3.2,2.7,3.2c0.8,0,1.7-0.2,2.4-0.5l0.2,1.2c-0.9,0.3-1.9,0.5-3,0.5c-2.6,0-4-1.4-4-4.4
		c0-2.5,1.4-4.5,3.9-4.5c2.4,0,3.4,1.6,3.4,3.5C83.9,490.1,83.9,490.4,83.9,490.8z M80.4,487.5c-1.1,0-1.9,0.8-2.1,2.1h4
		C82.4,488.4,81.6,487.5,80.4,487.5z"/>
	<path d="M92.2,495.1v-5.5c0-1.2-0.3-1.9-1.4-1.9c-1.4,0-2.4,1.4-2.4,3.3v2.9c0.5,0,1,0.1,1.4,0.2v0.9h-4.4v-0.9
		c0.4-0.1,1-0.2,1.5-0.2v-6.2c-0.4-0.1-1-0.1-1.5-0.2v-0.9c0.9-0.1,2-0.2,3-0.1c0,0.5,0,1.3-0.1,1.8h0c0.5-1.2,1.6-2,3-2
		c1.9,0,2.6,1.2,2.6,2.7v4.8c0.5,0,1,0.1,1.4,0.2v0.9H92.2z"/>
	<path d="M99.7,499.5c-2.2,0-3.6-0.9-3.6-2.6c0-1,0.7-1.8,1.4-2.3c-0.5-0.2-0.8-0.7-0.8-1.3c0-0.6,0.4-1.2,0.9-1.4
		c-0.8-0.5-1.3-1.2-1.3-2.4c0-1.7,1.3-3.2,3.6-3.2c0.5,0,0.8,0.1,1.2,0.2h2.9v1.2h-1.4c0.4,0.3,0.7,0.9,0.7,1.6
		c0,1.8-1.2,3.1-3.6,3.1c-0.3,0-0.6,0-0.9-0.1c-0.4,0.2-0.6,0.4-0.6,0.7c0,0.5,0.4,0.6,1.5,0.7l1.6,0.1c1.8,0.1,2.9,0.9,2.9,2.5
		C104.3,498,102.4,499.5,99.7,499.5z M100.9,495l-1.7-0.1c-0.2,0-0.4,0-0.5,0c-0.7,0.5-1.1,1-1.1,1.7c0,1,1,1.6,2.3,1.6
		c1.7,0,2.7-0.8,2.7-1.8C102.7,495.6,102.1,495.1,100.9,495z M100,487.5c-1.3,0-2,0.8-2,1.9c0,1.2,0.7,1.9,2,1.9c1.2,0,2-0.7,2-1.9
		C101.9,488.3,101.2,487.5,100,487.5z"/>
	<path d="M108.9,495.2c-1.8,0-2.3-0.7-2.3-2.6v-4.9h-1.8v-1.2h1.8v-2.8l1.5-0.4v3.2h2.4v1.2h-2.4v4.4c0,1.4,0.3,1.8,1.2,1.8
		c0.4,0,0.8-0.1,1.1-0.1l0.2,1.3C110.1,495.1,109.4,495.2,108.9,495.2z"/>
	<path d="M118.3,495.1v-5.5c0-1.2-0.3-1.9-1.5-1.9c-1.4,0-2.4,1.4-2.4,3.3v2.9c0.5,0,1,0.1,1.4,0.2v0.9h-4.4v-0.9
		c0.4-0.1,0.9-0.2,1.4-0.2v-10.2c-0.4-0.1-1-0.1-1.5-0.2v-0.9c0.9-0.1,2-0.2,3-0.1v4.1c0,0.6,0,1.2-0.2,1.7l0,0
		c0.5-1.2,1.5-1.9,3-1.9c1.9,0,2.6,1.2,2.6,2.7v4.8c0.5,0,1,0.1,1.4,0.2v0.9H118.3z"/>
	<path d="M129.9,495.2c-2.3,0-3.8-1.3-3.8-4.3c0-2.6,1.6-4.6,4.2-4.6c2.2,0,3.8,1.2,3.8,4.3C134.1,493.2,132.5,495.2,129.9,495.2z
		 M130.1,487.7c-1.3,0-2.4,0.9-2.4,3.2c0,2,0.8,3.1,2.4,3.1c1.3,0,2.4-1,2.4-3.1C132.5,488.8,131.7,487.7,130.1,487.7z"/>
	<path d="M141.5,483.9c-0.4-0.1-0.9-0.2-1.3-0.2c-1.2,0-1.8,0.7-1.8,2.2v0.7h2.4v1.2h-2.4v6.2c0.5,0,1,0.1,1.5,0.2v0.9h-4.5v-0.9
		c0.4-0.1,1-0.2,1.5-0.2v-6.2H135v-1.2h1.9v-0.6c0-2.4,1.2-3.5,3.3-3.5c0.5,0,0.9,0.1,1.4,0.2L141.5,483.9z"/>
	<path d="M145.5,495.1v-0.9c0.6-0.1,1.2-0.2,1.9-0.2v-6.4l-1.9,0.8l-0.3-1.3l2.5-1h1.3v7.8c0.5,0,1,0.1,1.5,0.2v0.9H145.5z"/>
	<path d="M156.2,495.2c-2.4,0-4.2-1.4-4.2-4.6c0-2.9,2.1-4.7,4.6-4.7c2.8,0,4.2,1.8,4.2,4.5C160.8,493.5,158.6,495.2,156.2,495.2z
		 M156.4,487.3c-1.6,0-2.9,1.2-2.9,3.3c0,1.9,0.8,3.4,2.8,3.4c1.6,0,2.9-1.2,2.9-3.3C159.2,488.7,158.3,487.3,156.4,487.3z"/>
	<path d="M163.6,495.2c-0.6,0-1.1-0.5-1.1-1.1c0-0.6,0.5-1.1,1.1-1.1c0.6,0,1.1,0.5,1.1,1.1C164.7,494.8,164.2,495.2,163.6,495.2z"
		/>
</g>
<g enable-background="new    ">
	<path fill="#999999" d="M124.9,465l-2.7,7.4h-1.9l-2.7-7.4c-0.4,0-0.8-0.1-1.1-0.2v-0.9h4v0.9c-0.4,0.1-0.8,0.2-1.2,0.2l1.4,4.2
		c0.2,0.6,0.4,1.1,0.5,1.7h0c0.2-0.6,0.3-1.1,0.5-1.6l1.5-4.2c-0.4,0-0.8-0.1-1.2-0.2v-0.9h3.9v0.9C125.7,464.9,125.3,465,124.9,465
		z"/>
</g>
<polyline fill="#FFFFFF" stroke="#999999" stroke-width="1.3" points="125.3,452 129.6,456.2 125.3,460.4 "/>
<line fill="none" stroke="#999999" stroke-width="1.3" x1="129.6" y1="456.2" x2="113.6" y2="456.2"/>
<g enable-background="new    ">
	<path d="M446.7,463.4c-0.1-0.7-0.2-1.2-0.2-1.6h-2.4v9.2c0.5,0,1,0.1,1.5,0.2v0.9H441v-0.9c0.4-0.1,1-0.2,1.5-0.2v-9.2h-2.4
		c0,0.4-0.1,0.9-0.2,1.6h-1.1v-2.9h9v2.9H446.7z"/>
	<path d="M455.3,472.1v-5.5c0-1.2-0.3-1.9-1.5-1.9c-1.4,0-2.4,1.4-2.4,3.3v2.9c0.5,0,1,0.1,1.4,0.2v0.9h-4.4v-0.9
		c0.4-0.1,0.9-0.2,1.4-0.2v-10.2c-0.4-0.1-1-0.1-1.5-0.2v-0.9c0.9-0.1,2-0.2,3-0.1v4.1c0,0.6,0,1.2-0.2,1.7l0,0
		c0.5-1.2,1.5-1.9,3-1.9c1.9,0,2.6,1.2,2.6,2.7v4.8c0.5,0,1,0.1,1.4,0.2v0.9H455.3z"/>
	<path d="M459.1,472.1v-0.9c0.4-0.1,1-0.2,1.5-0.2v-6.2c-0.4-0.1-1-0.1-1.5-0.2v-0.9c0.9-0.1,2-0.2,3-0.1v7.4c0.5,0,1,0.1,1.4,0.2
		v0.9H459.1z M461.4,461.9c-0.6,0-1-0.4-1-1c0-0.6,0.5-1,1-1c0.6,0,1,0.4,1,1C462.4,461.4,461.9,461.9,461.4,461.9z"/>
	<path d="M466.9,472.3c-0.7,0-1.4-0.1-2-0.2v-2.4h0.9c0.1,0.4,0.2,0.9,0.2,1.4c0.3,0.1,0.7,0.1,1,0.1c1.2,0,1.9-0.5,1.9-1.3
		c0-1.9-4.3-0.8-4.3-3.8c0-1.5,1.2-2.6,3.4-2.6c0.6,0,1.3,0.1,2,0.2v2.3h-0.9c-0.1-0.4-0.2-0.9-0.2-1.3c-0.3-0.1-0.6-0.1-1-0.1
		c-1.2,0-1.7,0.5-1.7,1.3c0,1.9,4.3,0.9,4.3,3.7C470.5,471.1,469.2,472.3,466.9,472.3z"/>
	<path d="M483.6,464.7l-2.7,7.4H479l-2.7-7.4c-0.4,0-0.8-0.1-1.1-0.2v-0.9h4v0.9c-0.4,0.1-0.8,0.2-1.2,0.2l1.4,4.2
		c0.2,0.6,0.4,1.1,0.5,1.7h0c0.2-0.6,0.3-1.1,0.5-1.6l1.5-4.2c-0.4,0-0.8-0.1-1.2-0.2v-0.9h3.9v0.9
		C484.3,464.6,483.9,464.7,483.6,464.7z"/>
	<path d="M492.3,467.8h-5.6c-0.1,2.2,0.8,3.2,2.7,3.2c0.8,0,1.7-0.2,2.4-0.5l0.2,1.2c-0.9,0.3-1.9,0.5-3,0.5c-2.6,0-4-1.4-4-4.4
		c0-2.5,1.4-4.5,3.9-4.5c2.4,0,3.4,1.6,3.4,3.5C492.4,467.1,492.3,467.5,492.3,467.8z M488.9,464.6c-1.1,0-1.9,0.8-2.1,2.1h4
		C490.8,465.4,490.1,464.6,488.9,464.6z"/>
	<path d="M497.7,472.3c-2.1,0-3.9-1-3.9-4.1c0-2.8,1.4-4.7,4.3-4.7c0.7,0,1.5,0.1,2.1,0.3v2.5h-1c-0.1-0.5-0.2-1-0.2-1.4
		c-0.3-0.1-0.7-0.1-1.2-0.1c-1.5,0-2.4,1.3-2.4,3.2c0,1.7,0.6,3,2.6,3c0.7,0,1.5-0.2,2-0.4l0.3,1.3
		C499.7,472,498.8,472.3,497.7,472.3z"/>
	<path d="M504.9,472.3c-1.8,0-2.3-0.7-2.3-2.6v-4.9h-1.8v-1.2h1.8v-2.8l1.5-0.4v3.2h2.4v1.2h-2.4v4.4c0,1.4,0.3,1.8,1.2,1.8
		c0.4,0,0.8-0.1,1.1-0.1l0.2,1.3C506.2,472.2,505.5,472.3,504.9,472.3z"/>
	<path d="M511.8,472.3c-2.3,0-3.8-1.3-3.8-4.3c0-2.6,1.6-4.6,4.2-4.6c2.2,0,3.8,1.2,3.8,4.3C515.9,470.3,514.3,472.3,511.8,472.3z
		 M512,464.7c-1.3,0-2.4,0.9-2.4,3.1c0,2,0.8,3.1,2.4,3.1c1.3,0,2.4-1,2.4-3.1C514.3,465.8,513.5,464.7,512,464.7z"/>
	<path d="M523,465c-2-0.3-2.8,1-2.8,3.7v2.3c0.5,0,1,0.1,1.5,0.2v0.9h-4.5v-0.9c0.4-0.1,1-0.2,1.5-0.2v-6.2c-0.4-0.1-1-0.1-1.5-0.2
		v-0.9c0.9-0.1,2-0.2,3-0.1c0,0.5-0.1,1.3-0.2,2h0c0.4-1.2,1.2-2.4,3.1-2.2L523,465z"/>
</g>
<g enable-background="new    ">
	<path d="M443.2,495.2c-0.6,0-0.9,0-1.5-0.1v3.1c0.5,0,1.1,0.1,1.5,0.2v0.9h-4.5v-0.9c0.4-0.1,0.9-0.2,1.4-0.2v-10.4
		c-0.4-0.1-0.9-0.1-1.4-0.2v-0.9c0.8-0.1,2-0.2,2.9-0.1c0,0.5-0.1,1.3-0.1,1.7l0,0c0.5-1.2,1.5-1.9,2.9-1.9c2,0,3.2,1.4,3.2,4
		C447.6,493.4,446,495.2,443.2,495.2z M444.1,487.6c-1.5,0-2.3,1.8-2.3,3.3v2.8c0.5,0.1,0.9,0.2,1.5,0.2c1.6,0,2.7-1,2.7-3.4
		C446,488.7,445.4,487.6,444.1,487.6z"/>
	<path d="M452.9,495.2c-2.3,0-3.8-1.3-3.8-4.3c0-2.6,1.6-4.6,4.2-4.6c2.2,0,3.8,1.2,3.8,4.3C457.1,493.2,455.5,495.2,452.9,495.2z
		 M453.1,487.7c-1.3,0-2.4,0.9-2.4,3.2c0,2,0.8,3.1,2.4,3.1c1.3,0,2.4-1,2.4-3.1C455.5,488.8,454.7,487.7,453.1,487.7z"/>
	<path d="M458.3,495.1v-0.9c0.4-0.1,1-0.2,1.5-0.2v-6.2c-0.4-0.1-1-0.1-1.5-0.2v-0.9c0.9-0.1,2-0.2,3-0.1v7.4c0.5,0,1,0.1,1.4,0.2
		v0.9H458.3z M460.6,484.8c-0.6,0-1-0.4-1-1s0.5-1,1-1c0.6,0,1,0.4,1,1C461.6,484.4,461.1,484.8,460.6,484.8z"/>
	<path d="M470.5,495.1v-5.5c0-1.2-0.3-1.9-1.4-1.9c-1.4,0-2.4,1.4-2.4,3.3v2.9c0.5,0,1,0.1,1.4,0.2v0.9h-4.4v-0.9
		c0.4-0.1,1-0.2,1.5-0.2v-6.2c-0.4-0.1-1-0.1-1.5-0.2v-0.9c0.9-0.1,2-0.2,3-0.1c0,0.5,0,1.3-0.1,1.8h0c0.5-1.2,1.6-2,3-2
		c1.9,0,2.6,1.2,2.6,2.7v4.8c0.5,0,1,0.1,1.4,0.2v0.9H470.5z"/>
	<path d="M477.7,495.2c-1.8,0-2.3-0.7-2.3-2.6v-4.9h-1.8v-1.2h1.8v-2.8l1.5-0.4v3.2h2.4v1.2H477v4.4c0,1.4,0.3,1.8,1.2,1.8
		c0.4,0,0.8-0.1,1.1-0.1l0.2,1.3C479,495.1,478.3,495.2,477.7,495.2z"/>
	<path d="M483,495.2c-0.7,0-1.4-0.1-2-0.2v-2.4h0.9c0.1,0.4,0.2,0.9,0.2,1.4c0.3,0.1,0.7,0.1,1,0.1c1.2,0,1.9-0.5,1.9-1.3
		c0-1.9-4.3-0.8-4.3-3.8c0-1.5,1.2-2.6,3.4-2.6c0.6,0,1.3,0.1,2,0.2v2.3h-0.9c-0.1-0.4-0.2-0.9-0.2-1.3c-0.3-0.1-0.6-0.1-1-0.1
		c-1.2,0-1.7,0.5-1.7,1.3c0,1.9,4.3,0.9,4.3,3.7C486.7,494,485.3,495.2,483,495.2z"/>
	<path d="M491.8,495.1v-0.9c0.4-0.1,1-0.2,1.5-0.2v-6.2c-0.4-0.1-1-0.1-1.5-0.2v-0.9c0.9-0.1,2-0.2,3-0.1v7.4c0.5,0,1,0.1,1.4,0.2
		v0.9H491.8z M494.1,484.8c-0.6,0-1-0.4-1-1s0.5-1,1-1c0.6,0,1,0.4,1,1C495.1,484.4,494.6,484.8,494.1,484.8z"/>
	<path d="M504,495.1v-5.5c0-1.2-0.3-1.9-1.4-1.9c-1.4,0-2.4,1.4-2.4,3.3v2.9c0.5,0,1,0.1,1.4,0.2v0.9h-4.4v-0.9
		c0.4-0.1,1-0.2,1.5-0.2v-6.2c-0.4-0.1-1-0.1-1.5-0.2v-0.9c0.9-0.1,2-0.2,3-0.1c0,0.5,0,1.3-0.1,1.8h0c0.5-1.2,1.6-2,3-2
		c1.9,0,2.6,1.2,2.6,2.7v4.8c0.5,0,1,0.1,1.4,0.2v0.9H504z"/>
	<path d="M515.2,495.2c-1.8,0-2.3-0.7-2.3-2.6v-4.9h-1.8v-1.2h1.8v-2.8l1.5-0.4v3.2h2.4v1.2h-2.4v4.4c0,1.4,0.3,1.8,1.2,1.8
		c0.4,0,0.8-0.1,1.1-0.1l0.2,1.3C516.4,495.1,515.7,495.2,515.2,495.2z"/>
	<path d="M524.6,495.1v-5.5c0-1.2-0.3-1.9-1.5-1.9c-1.4,0-2.4,1.4-2.4,3.3v2.9c0.5,0,1,0.1,1.4,0.2v0.9h-4.4v-0.9
		c0.4-0.1,0.9-0.2,1.4-0.2v-10.2c-0.4-0.1-1-0.1-1.5-0.2v-0.9c0.9-0.1,2-0.2,3-0.1v4.1c0,0.6,0,1.2-0.2,1.7l0,0
		c0.5-1.2,1.5-1.9,3-1.9c1.9,0,2.6,1.2,2.6,2.7v4.8c0.5,0,1,0.1,1.4,0.2v0.9H524.6z"/>
	<path d="M535.8,490.8h-5.6c-0.1,2.2,0.8,3.2,2.7,3.2c0.8,0,1.7-0.2,2.4-0.5l0.2,1.2c-0.9,0.3-1.9,0.5-3,0.5c-2.6,0-4-1.4-4-4.4
		c0-2.5,1.4-4.5,3.9-4.5c2.4,0,3.4,1.6,3.4,3.5C535.9,490.1,535.9,490.4,535.8,490.8z M532.4,487.5c-1.1,0-1.9,0.8-2.1,2.1h4
		C534.3,488.4,533.6,487.5,532.4,487.5z"/>
	<path d="M543.4,495.2c-0.7,0-1.4-0.1-2-0.2v-2.4h0.9c0.1,0.4,0.2,0.9,0.2,1.4c0.3,0.1,0.7,0.1,1,0.1c1.2,0,1.9-0.5,1.9-1.3
		c0-1.9-4.3-0.8-4.3-3.8c0-1.5,1.2-2.6,3.4-2.6c0.6,0,1.3,0.1,2,0.2v2.3h-0.9c-0.1-0.4-0.2-0.9-0.2-1.3c-0.3-0.1-0.6-0.1-1-0.1
		c-1.2,0-1.7,0.5-1.7,1.3c0,1.9,4.3,0.9,4.3,3.7C547.1,494,545.7,495.2,543.4,495.2z"/>
	<path d="M553.9,495.1c0-0.6,0-1.2,0.1-1.7h0c-0.4,1-1.5,1.9-2.9,1.9c-1.4,0-2.4-0.9-2.4-2.3c0-1.8,1.9-2.9,5.1-2.9v-0.6
		c0-1.2-0.4-1.9-1.8-1.9c-0.5,0-1.1,0.1-1.6,0.2c0,0.4-0.1,0.9-0.2,1.4h-1v-2.3c0.9-0.3,1.9-0.5,2.9-0.5c2.5,0,3.2,1.2,3.2,2.9v4.6
		c0.4,0.1,1,0.1,1.4,0.2v0.9C556,495.1,554.8,495.1,553.9,495.1z M553.8,491.1c-2.7,0-3.6,0.7-3.6,1.6c0,0.7,0.5,1.3,1.3,1.3
		c1.4,0,2.3-1.4,2.3-2.7V491.1z"/>
	<path d="M569.8,495.1v-5.5c0-1.2-0.3-1.9-1.4-1.9c-1.2,0-2.4,1.3-2.4,3.4v2.9c0.5,0,1,0.1,1.4,0.2v0.9h-2.9v-5.5
		c0-1.1-0.2-1.9-1.4-1.9c-1.3,0-2.4,1.4-2.4,3.4v2.9c0.5,0,1,0.1,1.4,0.2v0.9h-4.4v-0.9c0.4-0.1,1-0.2,1.5-0.2v-6.2
		c-0.4-0.1-1-0.1-1.5-0.2v-0.9c0.9-0.1,2.1-0.2,3-0.1c0,0.5-0.1,1.3-0.1,1.8l0,0c0.5-1.2,1.6-2,3-2c1.8,0,2.3,1.2,2.4,1.9
		c0.3-0.8,1.3-1.9,2.9-1.9c1.6,0,2.5,0.9,2.5,2.8v4.8c0.5,0,1,0.1,1.4,0.2v0.9H569.8z"/>
	<path d="M581,490.8h-5.6c-0.1,2.2,0.8,3.2,2.7,3.2c0.8,0,1.7-0.2,2.4-0.5l0.2,1.2c-0.9,0.3-1.9,0.5-3,0.5c-2.6,0-4-1.4-4-4.4
		c0-2.5,1.4-4.5,3.9-4.5c2.4,0,3.4,1.6,3.4,3.5C581.1,490.1,581,490.4,581,490.8z M577.6,487.5c-1.1,0-1.9,0.8-2.1,2.1h4
		C579.5,488.4,578.8,487.5,577.6,487.5z"/>
</g>
<g enable-background="new    ">
	<path d="M445.1,518c0-0.5,0-1.2,0.1-1.7l0,0c-0.5,1.2-1.5,1.9-2.9,1.9c-2.1,0-3.2-1.5-3.2-4c0-3,1.7-4.8,4.4-4.8
		c0.5,0,0.9,0,1.4,0.1v-2.8c-0.4-0.1-1-0.1-1.5-0.2v-0.9c0.9-0.1,2-0.2,3-0.1v11.3c0.4,0.1,1,0.1,1.4,0.2v0.9
		C447.2,518,446,518.1,445.1,518z M445,510.8c-0.5-0.1-1-0.2-1.5-0.2c-1.6,0-2.7,1-2.7,3.4c0,1.8,0.6,2.9,1.9,2.9
		c1.5,0,2.3-1.8,2.3-3.3V510.8z"/>
	<path d="M448.8,518v-0.9c0.4-0.1,1-0.2,1.5-0.2v-6.2c-0.4-0.1-1-0.1-1.5-0.2v-0.9c0.9-0.1,2-0.2,3-0.1v7.4c0.5,0,1,0.1,1.4,0.2v0.9
		H448.8z M451.1,507.8c-0.6,0-1-0.4-1-1c0-0.6,0.5-1,1-1c0.6,0,1,0.4,1,1C452.1,507.3,451.7,507.8,451.1,507.8z"/>
	<path d="M460,510.9c-2-0.3-2.8,1-2.8,3.7v2.3c0.5,0,1,0.1,1.5,0.2v0.9h-4.5v-0.9c0.4-0.1,1-0.2,1.5-0.2v-6.2
		c-0.4-0.1-1-0.1-1.5-0.2v-0.9c0.9-0.1,2-0.2,3-0.1c0,0.5-0.1,1.3-0.2,2h0c0.4-1.2,1.2-2.4,3.1-2.2L460,510.9z"/>
	<path d="M468.3,513.7h-5.6c-0.1,2.2,0.8,3.2,2.7,3.2c0.8,0,1.7-0.2,2.4-0.5l0.2,1.2c-0.9,0.3-1.9,0.5-3,0.5c-2.6,0-4-1.4-4-4.4
		c0-2.5,1.4-4.5,3.9-4.5c2.4,0,3.4,1.6,3.4,3.5C468.3,513,468.3,513.4,468.3,513.7z M464.8,510.5c-1.1,0-1.9,0.8-2.1,2.1h4
		C466.8,511.3,466,510.5,464.8,510.5z"/>
	<path d="M473.7,518.2c-2.1,0-3.9-1-3.9-4.1c0-2.8,1.4-4.7,4.3-4.7c0.7,0,1.5,0.1,2.1,0.3v2.5h-1c-0.1-0.5-0.2-1-0.2-1.4
		c-0.3-0.1-0.7-0.1-1.2-0.1c-1.5,0-2.4,1.3-2.4,3.2c0,1.7,0.6,3,2.6,3c0.7,0,1.5-0.2,2-0.4l0.3,1.3
		C475.7,517.9,474.7,518.2,473.7,518.2z"/>
	<path d="M480.9,518.2c-1.8,0-2.3-0.7-2.3-2.6v-4.9h-1.8v-1.2h1.8v-2.8l1.5-0.4v3.2h2.4v1.2h-2.4v4.4c0,1.4,0.3,1.8,1.2,1.8
		c0.4,0,0.8-0.1,1.1-0.1l0.2,1.3C482.1,518.1,481.5,518.2,480.9,518.2z"/>
	<path d="M483.7,518v-0.9c0.4-0.1,1-0.2,1.5-0.2v-6.2c-0.4-0.1-1-0.1-1.5-0.2v-0.9c0.9-0.1,2-0.2,3-0.1v7.4c0.5,0,1,0.1,1.4,0.2v0.9
		H483.7z M486,507.8c-0.6,0-1-0.4-1-1c0-0.6,0.5-1,1-1c0.6,0,1,0.4,1,1C487,507.3,486.5,507.8,486,507.8z"/>
	<path d="M492.8,518.2c-2.3,0-3.8-1.3-3.8-4.3c0-2.6,1.6-4.6,4.2-4.6c2.2,0,3.8,1.2,3.8,4.3C497,516.2,495.4,518.2,492.8,518.2z
		 M493,510.6c-1.3,0-2.4,0.9-2.4,3.1c0,2,0.8,3.1,2.4,3.1c1.3,0,2.4-1,2.4-3.1C495.4,511.7,494.6,510.6,493,510.6z"/>
	<path d="M505.1,518v-5.5c0-1.2-0.3-1.9-1.4-1.9c-1.4,0-2.4,1.4-2.4,3.3v2.9c0.5,0,1,0.1,1.4,0.2v0.9h-4.4v-0.9
		c0.4-0.1,1-0.2,1.5-0.2v-6.2c-0.4-0.1-1-0.1-1.5-0.2v-0.9c0.9-0.1,2-0.2,3-0.1c0,0.5,0,1.3-0.1,1.8h0c0.5-1.2,1.6-2,3-2
		c1.9,0,2.6,1.2,2.6,2.7v4.8c0.5,0,1,0.1,1.4,0.2v0.9H505.1z"/>
	<path d="M518.1,518c0-0.6,0-1.2,0.1-1.7h0c-0.4,1-1.5,1.9-2.9,1.9s-2.4-0.9-2.4-2.3c0-1.8,1.9-2.9,5.1-2.9v-0.6
		c0-1.2-0.4-1.9-1.8-1.9c-0.5,0-1.1,0.1-1.6,0.2c0,0.4-0.1,0.9-0.2,1.4h-1v-2.3c0.9-0.3,1.9-0.5,2.9-0.5c2.5,0,3.2,1.2,3.2,2.9v4.6
		c0.4,0.1,1,0.1,1.4,0.2v0.9C520.2,518,519.1,518.1,518.1,518z M518,514.1c-2.7,0-3.6,0.7-3.6,1.6c0,0.7,0.5,1.3,1.3,1.3
		c1.4,0,2.3-1.4,2.3-2.7V514.1z"/>
	<path d="M528.8,518v-5.5c0-1.2-0.3-1.9-1.4-1.9c-1.4,0-2.4,1.4-2.4,3.3v2.9c0.5,0,1,0.1,1.4,0.2v0.9h-4.4v-0.9
		c0.4-0.1,1-0.2,1.5-0.2v-6.2c-0.4-0.1-1-0.1-1.5-0.2v-0.9c0.9-0.1,2-0.2,3-0.1c0,0.5,0,1.3-0.1,1.8h0c0.5-1.2,1.6-2,3-2
		c1.9,0,2.6,1.2,2.6,2.7v4.8c0.5,0,1,0.1,1.4,0.2v0.9H528.8z"/>
	<path d="M538.7,518c0-0.5,0-1.2,0.1-1.7l0,0c-0.5,1.2-1.5,1.9-2.9,1.9c-2.1,0-3.2-1.5-3.2-4c0-3,1.7-4.8,4.4-4.8
		c0.5,0,0.9,0,1.4,0.1v-2.8c-0.4-0.1-1-0.1-1.5-0.2v-0.9c0.9-0.1,2-0.2,3-0.1v11.3c0.4,0.1,1,0.1,1.4,0.2v0.9
		C540.8,518,539.6,518.1,538.7,518z M538.7,510.8c-0.5-0.1-1-0.2-1.5-0.2c-1.6,0-2.7,1-2.7,3.4c0,1.8,0.6,2.9,1.9,2.9
		c1.5,0,2.3-1.8,2.3-3.3V510.8z"/>
	<path d="M553.2,518v-5.5c0-1.2-0.3-1.9-1.4-1.9c-1.4,0-2.4,1.4-2.4,3.3v2.9c0.5,0,1,0.1,1.4,0.2v0.9h-4.4v-0.9
		c0.4-0.1,1-0.2,1.5-0.2v-6.2c-0.4-0.1-1-0.1-1.5-0.2v-0.9c0.9-0.1,2-0.2,3-0.1c0,0.5,0,1.3-0.1,1.8h0c0.5-1.2,1.6-2,3-2
		c1.9,0,2.6,1.2,2.6,2.7v4.8c0.5,0,1,0.1,1.4,0.2v0.9H553.2z"/>
	<path d="M561,518.2c-2.3,0-3.8-1.3-3.8-4.3c0-2.6,1.6-4.6,4.2-4.6c2.2,0,3.8,1.2,3.8,4.3C565.2,516.2,563.6,518.2,561,518.2z
		 M561.2,510.6c-1.3,0-2.4,0.9-2.4,3.1c0,2,0.8,3.1,2.4,3.1c1.3,0,2.4-1,2.4-3.1C563.6,511.7,562.7,510.6,561.2,510.6z"/>
	<path d="M579,510.6l-2.3,7.4h-1.8l-1.7-5c-0.2-0.5-0.3-1.1-0.5-1.7h0c-0.2,0.8-0.4,1.4-0.6,2.2l-1.4,4.6h-1.8l-2.2-7.4
		c-0.4,0-0.8-0.1-1.1-0.2v-0.9h3.9v0.9c-0.4,0.1-0.8,0.2-1.2,0.2l1,3.8c0.2,0.7,0.4,1.4,0.5,1.9h0c0.2-0.7,0.4-1.4,0.6-2.1l1.5-4.8
		h1.6l1.5,4.8c0.3,1,0.5,1.5,0.6,2.1h0c0.2-0.6,0.3-1.1,0.5-1.9l1.1-3.9c-0.4,0-0.8-0.1-1.2-0.2v-0.9h3.8v0.9
		C579.8,510.5,579.4,510.6,579,510.6z"/>
</g>
<g enable-background="new    ">
	<path d="M445.6,541v-5.5c0-1.2-0.3-1.9-1.5-1.9c-1.4,0-2.4,1.4-2.4,3.3v2.9c0.5,0,1,0.1,1.4,0.2v0.9h-4.4V540
		c0.4-0.1,0.9-0.2,1.4-0.2v-10.2c-0.4-0.1-1-0.1-1.5-0.2v-0.9c0.9-0.1,2-0.2,3-0.1v4.1c0,0.6,0,1.2-0.2,1.7l0,0
		c0.5-1.2,1.5-1.9,3-1.9c1.9,0,2.6,1.2,2.6,2.7v4.8c0.5,0,1,0.1,1.4,0.2v0.9H445.6z"/>
	<path d="M454.8,541c0-0.6,0-1.2,0.1-1.7h0c-0.4,1-1.5,1.9-2.9,1.9c-1.4,0-2.4-0.9-2.4-2.3c0-1.8,1.9-2.9,5.1-2.9v-0.6
		c0-1.2-0.4-1.9-1.8-1.9c-0.5,0-1.1,0.1-1.6,0.2c0,0.4-0.1,0.9-0.2,1.4h-1v-2.3c0.9-0.3,1.9-0.5,2.9-0.5c2.5,0,3.2,1.2,3.2,2.9v4.6
		c0.4,0.1,1,0.1,1.4,0.2v0.9C456.9,541,455.7,541,454.8,541z M454.7,537c-2.7,0-3.6,0.7-3.6,1.6c0,0.7,0.5,1.3,1.3,1.3
		c1.4,0,2.3-1.4,2.3-2.7V537z"/>
	<path d="M461,541.1c-0.7,0-1.4-0.1-2-0.2v-2.4h0.9c0.1,0.4,0.2,0.9,0.2,1.4c0.3,0.1,0.7,0.1,1,0.1c1.2,0,1.9-0.5,1.9-1.3
		c0-1.9-4.3-0.8-4.3-3.8c0-1.5,1.2-2.6,3.4-2.6c0.6,0,1.3,0.1,2,0.2v2.3h-0.9c-0.1-0.4-0.2-0.9-0.2-1.3c-0.3-0.1-0.6-0.1-1-0.1
		c-1.2,0-1.7,0.5-1.7,1.3c0,1.9,4.3,0.9,4.3,3.7C464.7,539.9,463.3,541.1,461,541.1z"/>
	<path d="M475.2,541c0-0.6,0-1.2,0.1-1.7h0c-0.4,1-1.5,1.9-2.9,1.9c-1.4,0-2.4-0.9-2.4-2.3c0-1.8,1.9-2.9,5.1-2.9v-0.6
		c0-1.2-0.4-1.9-1.8-1.9c-0.5,0-1.1,0.1-1.6,0.2c0,0.4-0.1,0.9-0.2,1.4h-1v-2.3c0.9-0.3,1.9-0.5,2.9-0.5c2.5,0,3.2,1.2,3.2,2.9v4.6
		c0.4,0.1,1,0.1,1.4,0.2v0.9C477.4,541,476.2,541,475.2,541z M475.2,537c-2.7,0-3.6,0.7-3.6,1.6c0,0.7,0.5,1.3,1.3,1.3
		c1.4,0,2.3-1.4,2.3-2.7V537z"/>
	<path d="M482.5,541V540c0.4-0.1,0.9-0.2,1.4-0.2v-10.2c-0.4-0.1-1-0.1-1.5-0.2v-0.9c0.9-0.1,2-0.2,3-0.1v11.4c0.5,0,1,0.1,1.4,0.2
		v0.9H482.5z"/>
	<path d="M495.1,536.7h-5.6c-0.1,2.2,0.8,3.2,2.7,3.2c0.8,0,1.7-0.2,2.4-0.5l0.2,1.2c-0.9,0.3-1.9,0.5-3,0.5c-2.6,0-4-1.4-4-4.4
		c0-2.5,1.4-4.5,3.9-4.5c2.4,0,3.4,1.6,3.4,3.5C495.1,536,495.1,536.3,495.1,536.7z M491.6,533.4c-1.1,0-1.9,0.8-2.1,2.1h4
		C493.6,534.3,492.8,533.4,491.6,533.4z"/>
	<path d="M503.3,541v-5.5c0-1.2-0.3-1.9-1.4-1.9c-1.4,0-2.4,1.4-2.4,3.3v2.9c0.5,0,1,0.1,1.4,0.2v0.9h-4.4V540
		c0.4-0.1,1-0.2,1.5-0.2v-6.2c-0.4-0.1-1-0.1-1.5-0.2v-0.9c0.9-0.1,2-0.2,3-0.1c0,0.5,0,1.3-0.1,1.8h0c0.5-1.2,1.6-2,3-2
		c1.9,0,2.6,1.2,2.6,2.7v4.8c0.5,0,1,0.1,1.4,0.2v0.9H503.3z"/>
	<path d="M510.9,545.4c-2.2,0-3.6-0.9-3.6-2.6c0-1,0.7-1.8,1.4-2.3c-0.5-0.2-0.8-0.7-0.8-1.3c0-0.6,0.4-1.2,0.9-1.4
		c-0.8-0.5-1.3-1.2-1.3-2.4c0-1.7,1.3-3.2,3.6-3.2c0.5,0,0.8,0.1,1.2,0.2h2.9v1.2h-1.4c0.4,0.3,0.7,0.9,0.7,1.6
		c0,1.8-1.2,3.1-3.6,3.1c-0.3,0-0.6,0-0.9-0.1c-0.4,0.2-0.6,0.4-0.6,0.7c0,0.5,0.4,0.6,1.5,0.7l1.6,0.1c1.8,0.1,2.9,0.9,2.9,2.5
		C515.4,543.9,513.6,545.4,510.9,545.4z M512.1,540.9l-1.7-0.1c-0.2,0-0.4,0-0.5,0c-0.7,0.5-1.1,1-1.1,1.7c0,1,1,1.6,2.3,1.6
		c1.7,0,2.7-0.8,2.7-1.8C513.9,541.5,513.3,541,512.1,540.9z M511.2,533.4c-1.3,0-2,0.8-2,1.9c0,1.2,0.7,1.9,2,1.9
		c1.2,0,2-0.7,2-1.9C513.1,534.2,512.4,533.4,511.2,533.4z"/>
	<path d="M520,541.1c-1.8,0-2.3-0.7-2.3-2.6v-4.9H516v-1.2h1.8v-2.8l1.5-0.4v3.2h2.4v1.2h-2.4v4.4c0,1.4,0.3,1.8,1.2,1.8
		c0.4,0,0.8-0.1,1.1-0.1l0.2,1.3C521.3,541,520.6,541.1,520,541.1z"/>
	<path d="M529.5,541v-5.5c0-1.2-0.3-1.9-1.5-1.9c-1.4,0-2.4,1.4-2.4,3.3v2.9c0.5,0,1,0.1,1.4,0.2v0.9h-4.4V540
		c0.4-0.1,0.9-0.2,1.4-0.2v-10.2c-0.4-0.1-1-0.1-1.5-0.2v-0.9c0.9-0.1,2-0.2,3-0.1v4.1c0,0.6,0,1.2-0.2,1.7l0,0
		c0.5-1.2,1.5-1.9,3-1.9c1.9,0,2.6,1.2,2.6,2.7v4.8c0.5,0,1,0.1,1.4,0.2v0.9H529.5z"/>
	<path d="M541.1,541.1c-2.3,0-3.8-1.3-3.8-4.3c0-2.6,1.6-4.6,4.2-4.6c2.2,0,3.8,1.2,3.8,4.3C545.3,539.1,543.7,541.1,541.1,541.1z
		 M541.3,533.6c-1.3,0-2.4,0.9-2.4,3.1c0,2,0.8,3.1,2.4,3.1c1.3,0,2.4-1,2.4-3.1C543.7,534.7,542.8,533.6,541.3,533.6z"/>
	<path d="M552.6,529.8c-0.4-0.1-0.9-0.2-1.3-0.2c-1.2,0-1.8,0.7-1.8,2.2v0.7h2.4v1.2h-2.4v6.2c0.5,0,1,0.1,1.5,0.2v0.9h-4.5V540
		c0.4-0.1,1-0.2,1.5-0.2v-6.2h-1.9v-1.2h1.9v-0.6c0-2.4,1.2-3.5,3.3-3.5c0.5,0,0.9,0.1,1.4,0.2L552.6,529.8z"/>
	<path d="M556.7,541V540c0.6-0.1,1.2-0.2,1.9-0.2v-6.4l-1.9,0.8l-0.3-1.3l2.5-1h1.3v7.8c0.5,0,1,0.1,1.5,0.2v0.9H556.7z"/>
	<path d="M564.2,541.1c-0.6,0-1.1-0.5-1.1-1.1s0.5-1.1,1.1-1.1c0.6,0,1.1,0.5,1.1,1.1S564.8,541.1,564.2,541.1z"/>
</g>
<g enable-background="new    ">
	<path fill="#999999" d="M442.2,567.5c-2-3.2-2.5-6-2.5-8.5c0-2.5,0.6-5.5,2.5-8.6l1.1,0.5c-1.4,2.4-2.1,5.1-2.1,7.9
		c0,2.9,0.7,5.6,2.2,8L442.2,567.5z"/>
	<path fill="#999999" d="M450.9,563.9c0-0.5,0-1.3,0.1-1.8h0c-0.5,1.2-1.5,2-3,2c-2,0-2.6-1.2-2.6-2.7v-4.8c-0.4-0.1-1-0.1-1.4-0.2
		v-0.9c0.8-0.1,2-0.2,3-0.1v5.5c0,1.2,0.3,1.9,1.5,1.9c1.4,0,2.4-1.4,2.4-3.3v-2.9c-0.4-0.1-0.9-0.1-1.4-0.2v-0.9
		c0.8-0.1,2-0.2,2.9-0.1v7.3c0.4,0.1,1,0.1,1.4,0.2v0.9C453,563.9,451.8,564,450.9,563.9z"/>
	<path fill="#999999" d="M461.6,563.9v-5.5c0-1.2-0.3-1.9-1.4-1.9c-1.4,0-2.4,1.4-2.4,3.3v2.9c0.5,0,1,0.1,1.4,0.2v0.9h-4.4V563
		c0.4-0.1,1-0.2,1.5-0.2v-6.2c-0.4-0.1-1-0.1-1.5-0.2v-0.9c0.9-0.1,2-0.2,3-0.1c0,0.5,0,1.3-0.1,1.8h0c0.5-1.2,1.6-2,3-2
		c1.9,0,2.6,1.2,2.6,2.7v4.8c0.5,0,1,0.1,1.4,0.2v0.9H461.6z"/>
	<path fill="#999999" d="M465.4,563.9V563c0.4-0.1,1-0.2,1.5-0.2v-6.2c-0.4-0.1-1-0.1-1.5-0.2v-0.9c0.9-0.1,2-0.2,3-0.1v7.4
		c0.5,0,1,0.1,1.4,0.2v0.9H465.4z M467.6,553.7c-0.6,0-1-0.4-1-1c0-0.6,0.5-1,1-1c0.6,0,1,0.4,1,1
		C468.7,553.2,468.2,553.7,467.6,553.7z"/>
	<path fill="#999999" d="M474.2,564.1c-1.8,0-2.3-0.7-2.3-2.6v-4.9h-1.8v-1.2h1.8v-2.8l1.5-0.4v3.2h2.4v1.2h-2.4v4.4
		c0,1.4,0.3,1.8,1.2,1.8c0.4,0,0.8-0.1,1.1-0.1l0.2,1.3C475.4,564,474.7,564.1,474.2,564.1z"/>
	<path fill="#999999" d="M488.6,556.5l-2.7,7.4h-1.9l-2.7-7.4c-0.4,0-0.8-0.1-1.1-0.2v-0.9h4v0.9c-0.4,0.1-0.8,0.2-1.2,0.2l1.4,4.2
		c0.2,0.6,0.4,1.1,0.5,1.7h0c0.2-0.6,0.3-1.1,0.5-1.6l1.5-4.2c-0.4,0-0.8-0.1-1.2-0.2v-0.9h3.9v0.9
		C489.4,556.4,489,556.5,488.6,556.5z"/>
	<path fill="#999999" d="M497.4,559.6h-5.6c-0.1,2.2,0.8,3.2,2.7,3.2c0.8,0,1.7-0.2,2.4-0.5l0.2,1.2c-0.9,0.3-1.9,0.5-3,0.5
		c-2.6,0-4-1.4-4-4.4c0-2.5,1.4-4.5,3.9-4.5c2.4,0,3.4,1.6,3.4,3.5C497.4,558.9,497.4,559.3,497.4,559.6z M493.9,556.4
		c-1.1,0-1.9,0.8-2.1,2.1h4C495.9,557.2,495.1,556.4,493.9,556.4z"/>
	<path fill="#999999" d="M502.8,564.1c-2.1,0-3.9-1-3.9-4.1c0-2.8,1.4-4.7,4.3-4.7c0.7,0,1.5,0.1,2.1,0.3v2.5h-1
		c-0.1-0.5-0.2-1-0.2-1.4c-0.3-0.1-0.7-0.1-1.2-0.1c-1.5,0-2.4,1.3-2.4,3.2c0,1.7,0.6,3,2.6,3c0.7,0,1.5-0.2,2-0.4l0.3,1.3
		C504.8,563.8,503.8,564.1,502.8,564.1z"/>
	<path fill="#999999" d="M510,564.1c-1.8,0-2.3-0.7-2.3-2.6v-4.9h-1.8v-1.2h1.8v-2.8l1.5-0.4v3.2h2.4v1.2h-2.4v4.4
		c0,1.4,0.3,1.8,1.2,1.8c0.4,0,0.8-0.1,1.1-0.1l0.2,1.3C511.2,564,510.5,564.1,510,564.1z"/>
	<path fill="#999999" d="M516.8,564.1c-2.3,0-3.8-1.3-3.8-4.3c0-2.6,1.6-4.6,4.2-4.6c2.2,0,3.8,1.2,3.8,4.3
		C521,562.1,519.4,564.1,516.8,564.1z M517,556.5c-1.3,0-2.4,0.9-2.4,3.1c0,2,0.8,3.1,2.4,3.1c1.3,0,2.4-1,2.4-3.1
		C519.4,557.6,518.6,556.5,517,556.5z"/>
	<path fill="#999999" d="M528.1,556.8c-2-0.3-2.8,1-2.8,3.7v2.3c0.5,0,1,0.1,1.5,0.2v0.9h-4.5V563c0.4-0.1,1-0.2,1.5-0.2v-6.2
		c-0.4-0.1-1-0.1-1.5-0.2v-0.9c0.9-0.1,2-0.2,3-0.1c0,0.5-0.1,1.3-0.2,2h0c0.4-1.2,1.2-2.4,3.1-2.2L528.1,556.8z"/>
	<path fill="#999999" d="M530,567.5l-1.1-0.6c1.4-2.4,2.1-5.1,2.1-7.9c0-2.9-0.7-5.6-2.2-8l1.2-0.6c2,3.2,2.5,5.9,2.5,8.5
		C532.5,561.5,532,564.4,530,567.5z"/>
</g>
<g enable-background="new    ">
	<path fill="#999999" d="M536.1,465l-2.7,7.4h-1.9l-2.7-7.4c-0.4,0-0.8-0.1-1.1-0.2v-0.9h4v0.9c-0.4,0.1-0.8,0.2-1.2,0.2l1.4,4.2
		c0.2,0.6,0.4,1.1,0.5,1.7h0c0.2-0.6,0.3-1.1,0.5-1.6l1.5-4.2c-0.4,0-0.8-0.1-1.2-0.2v-0.9h3.9v0.9C536.9,464.9,536.5,465,536.1,465
		z"/>
</g>
<polyline fill="#FFFFFF" stroke="#999999" stroke-width="1.3" points="536.5,452 540.8,456.2 536.5,460.4 "/>
<line fill="none" stroke="#999999" stroke-width="1.3" x1="540.8" y1="456.2" x2="524.8" y2="456.2"/>
<line fill="none" stroke="#000000" stroke-width="2" x1="319.9" y1="623.5" x2="284.5" y2="623.5"/>
<line fill="none" stroke="#000000" stroke-width="2" x1="319.9" y1="612" x2="284.5" y2="612"/>
<polyline fill="none" stroke="#000000" stroke-width="1.3" stroke-dasharray="4,4" points="30.7,669.5 26.1,660 169.2,591.1 
	173.8,600.6 "/>
<g enable-background="new    ">
	<path d="M81.6,614.6v-1.4h3.1V606l-3,1.9l-0.6-1.3l3.8-2.3h1.3v9h2.7v1.4H81.6z"/>
	<path d="M95.2,614.8c-2.3,0-4.3-1.3-4.3-5.3c0-3.4,2.1-5.4,4.5-5.4c2.2,0,4.3,1.3,4.3,5.3C99.7,612.9,97.6,614.8,95.2,614.8z
		 M95.3,605.4c-1.4,0-2.7,1.2-2.7,4c0,2.9,1.1,4.1,2.7,4.1c1.4,0,2.7-1.2,2.7-4C98.1,606.7,97,605.4,95.3,605.4z"/>
</g>
<line fill="none" stroke="#999999" stroke-width="1.3" x1="486.3" y1="675.4" x2="533.5" y2="652.3"/>
<polyline fill="none" stroke="#999999" stroke-width="1.3" points="525.6,649.8 533.5,652.3 531,660.2 "/>
<polyline fill="none" stroke="#000000" stroke-width="1.3" stroke-dasharray="4,4" points="483,670.5 478.4,661 527.5,637.4 
	532,646.8 "/>
<g enable-background="new    ">
	<path d="M495.7,636.6v-1.4h3.2V628l-3,1.9l-0.6-1.3l3.8-2.3h1.3v9h2.7v1.4H495.7z"/>
</g>
<g enable-background="new    ">
	<path d="M271,650.8c-0.5,0-0.9,0-1.2-0.1v2.9c0.5,0,1,0.1,1.5,0.2v0.9h-4.6v-0.9c0.4-0.1,1-0.2,1.5-0.2v-9.3c-0.5,0-1-0.1-1.5-0.2
		v-0.9h1.5c0.5,0,1.9-0.1,3-0.1c3.1,0,4.4,1.7,4.4,3.6C275.6,649.1,273.8,650.8,271,650.8z M271,644.4c-0.4,0-0.9,0-1.3,0v5
		c0.3,0.1,0.8,0.1,1.4,0.1c1.9,0,2.9-1.2,2.9-2.6C274,645.6,273.3,644.4,271,644.4z"/>
	<path d="M282.4,647.6c-2-0.3-2.8,1-2.8,3.7v2.3c0.5,0,1,0.1,1.5,0.2v0.9h-4.5v-0.9c0.4-0.1,1-0.2,1.5-0.2v-6.2
		c-0.4-0.1-1-0.1-1.5-0.2v-0.9c0.9-0.1,2-0.2,3-0.1c0,0.5-0.1,1.3-0.2,2h0c0.4-1.2,1.2-2.4,3.1-2.2L282.4,647.6z"/>
	<path d="M287.3,654.9c-2.3,0-3.8-1.3-3.8-4.3c0-2.6,1.6-4.6,4.2-4.6c2.2,0,3.8,1.2,3.8,4.3C291.5,652.9,289.9,654.9,287.3,654.9z
		 M287.5,647.4c-1.3,0-2.4,0.9-2.4,3.1c0,2,0.8,3.1,2.4,3.1c1.3,0,2.4-1,2.4-3.1C289.9,648.5,289.1,647.4,287.5,647.4z"/>
	<path d="M296.8,654.9c-2.1,0-3.9-1-3.9-4.1c0-2.8,1.4-4.7,4.3-4.7c0.7,0,1.5,0.1,2.1,0.3v2.5h-1c-0.1-0.5-0.2-1-0.2-1.4
		c-0.3-0.1-0.7-0.1-1.2-0.1c-1.5,0-2.4,1.3-2.4,3.2c0,1.7,0.6,3,2.6,3c0.7,0,1.5-0.2,2-0.4l0.3,1.3
		C298.8,654.7,297.8,654.9,296.8,654.9z"/>
	<path d="M307.8,650.5h-5.6c-0.1,2.2,0.8,3.2,2.7,3.2c0.8,0,1.7-0.2,2.4-0.5l0.2,1.2c-0.9,0.3-1.9,0.5-3,0.5c-2.6,0-4-1.4-4-4.4
		c0-2.5,1.4-4.5,3.9-4.5c2.4,0,3.4,1.6,3.4,3.5C307.8,649.8,307.8,650.1,307.8,650.5z M304.3,647.2c-1.1,0-1.9,0.8-2.1,2.1h4
		C306.3,648.1,305.5,647.2,304.3,647.2z"/>
	<path d="M311.6,654.9c-0.7,0-1.4-0.1-2-0.2v-2.4h0.9c0.1,0.4,0.2,0.9,0.2,1.4c0.3,0.1,0.7,0.1,1,0.1c1.2,0,1.9-0.5,1.9-1.3
		c0-1.9-4.3-0.8-4.3-3.8c0-1.5,1.2-2.6,3.4-2.6c0.6,0,1.3,0.1,2,0.2v2.3h-0.9c-0.1-0.4-0.2-0.9-0.2-1.3c-0.3-0.1-0.6-0.1-1-0.1
		c-1.2,0-1.7,0.5-1.7,1.3c0,1.9,4.3,0.9,4.3,3.7C315.3,653.7,313.9,654.9,311.6,654.9z"/>
	<path d="M319.1,654.9c-0.7,0-1.4-0.1-2-0.2v-2.4h0.9c0.1,0.4,0.2,0.9,0.2,1.4c0.3,0.1,0.7,0.1,1,0.1c1.2,0,1.9-0.5,1.9-1.3
		c0-1.9-4.3-0.8-4.3-3.8c0-1.5,1.2-2.6,3.4-2.6c0.6,0,1.3,0.1,2,0.2v2.3h-0.9c-0.1-0.4-0.2-0.9-0.2-1.3c-0.3-0.1-0.6-0.1-1-0.1
		c-1.2,0-1.7,0.5-1.7,1.3c0,1.9,4.3,0.9,4.3,3.7C322.8,653.7,321.4,654.9,319.1,654.9z"/>
	<path d="M331.9,654.9c-2.3,0-3.8-1.3-3.8-4.3c0-2.6,1.6-4.6,4.2-4.6c2.2,0,3.8,1.2,3.8,4.3C336.1,652.9,334.5,654.9,331.9,654.9z
		 M332.1,647.4c-1.3,0-2.4,0.9-2.4,3.1c0,2,0.8,3.1,2.4,3.1c1.3,0,2.4-1,2.4-3.1C334.5,648.5,333.7,647.4,332.1,647.4z"/>
	<path d="M343.5,643.5c-0.4-0.1-0.9-0.2-1.3-0.2c-1.2,0-1.8,0.7-1.8,2.2v0.7h2.4v1.2h-2.4v6.2c0.5,0,1,0.1,1.5,0.2v0.9h-4.5v-0.9
		c0.4-0.1,1-0.2,1.5-0.2v-6.2H337v-1.2h1.9v-0.6c0-2.4,1.2-3.5,3.3-3.5c0.5,0,0.9,0.1,1.4,0.2L343.5,643.5z"/>
</g>
<g enable-background="new    ">
	<path d="M261.1,667.3v10.4H259l-4.5-7.3c-0.5-0.8-1-1.7-1.3-2.5c0.1,2,0.1,5,0.1,8.7c0.5,0,1,0.1,1.4,0.2v0.9h-4.4v-0.9
		c0.4-0.1,1-0.2,1.5-0.2v-9.3c-0.5,0-1-0.1-1.5-0.2v-0.9h3.6l4.4,7.2c0.5,0.8,1,1.7,1.4,2.5c-0.1-2-0.1-5-0.1-8.6
		c-0.5,0-0.9-0.1-1.3-0.2v-0.9h4.1v0.9C261.9,667.1,261.5,667.2,261.1,667.3z"/>
	<path d="M267.3,677.9c-2.3,0-3.8-1.3-3.8-4.3c0-2.6,1.6-4.6,4.2-4.6c2.2,0,3.8,1.2,3.8,4.3C271.5,675.9,269.9,677.9,267.3,677.9z
		 M267.5,670.3c-1.3,0-2.4,0.9-2.4,3.1c0,2,0.8,3.1,2.4,3.1c1.3,0,2.4-1,2.4-3.1C269.9,671.4,269,670.3,267.5,670.3z"/>
	<path d="M278.6,670.5c-2-0.3-2.8,1-2.8,3.7v2.3c0.5,0,1.1,0.1,1.5,0.2v0.9h-4.5v-0.9c0.4-0.1,1-0.2,1.5-0.2v-6.2
		c-0.4-0.1-1-0.1-1.5-0.2v-0.9c0.9-0.1,2-0.2,3-0.1c0,0.5-0.1,1.3-0.2,2h0c0.4-1.2,1.2-2.4,3.1-2.2L278.6,670.5z"/>
	<path d="M291.6,677.7v-5.5c0-1.2-0.3-1.9-1.4-1.9c-1.2,0-2.4,1.3-2.4,3.4v2.9c0.5,0,1,0.1,1.4,0.2v0.9h-2.9v-5.5
		c0-1.1-0.2-1.9-1.4-1.9c-1.3,0-2.4,1.4-2.4,3.4v2.9c0.5,0,1,0.1,1.4,0.2v0.9h-4.4v-0.9c0.4-0.1,1-0.2,1.5-0.2v-6.2
		c-0.4-0.1-1-0.1-1.5-0.2v-0.9c0.9-0.1,2.1-0.2,3-0.1c0,0.5-0.1,1.3-0.1,1.8l0,0c0.5-1.2,1.6-2,3-2c1.8,0,2.3,1.2,2.4,1.9
		c0.3-0.8,1.3-1.9,2.9-1.9c1.6,0,2.5,0.9,2.5,2.8v4.8c0.5,0,1,0.1,1.4,0.2v0.9H291.6z"/>
	<path d="M300.8,677.7c0-0.6,0-1.2,0.1-1.7h0c-0.4,1-1.5,1.9-2.9,1.9c-1.4,0-2.4-0.9-2.4-2.3c0-1.8,1.9-2.9,5.1-2.9v-0.6
		c0-1.2-0.4-1.9-1.8-1.9c-0.5,0-1.1,0.1-1.6,0.2c0,0.4-0.1,0.9-0.2,1.4h-1v-2.3c0.9-0.3,1.9-0.5,2.9-0.5c2.5,0,3.2,1.2,3.2,2.9v4.6
		c0.4,0.1,1,0.1,1.4,0.2v0.9C302.9,677.7,301.7,677.8,300.8,677.7z M300.7,673.8c-2.7,0-3.6,0.7-3.6,1.6c0,0.7,0.5,1.3,1.3,1.3
		c1.4,0,2.3-1.4,2.3-2.7V673.8z"/>
	<path d="M304.3,677.7v-0.9c0.4-0.1,0.9-0.2,1.4-0.2v-10.2c-0.4-0.1-1-0.1-1.5-0.2v-0.9c0.9-0.1,2-0.2,3-0.1v11.4
		c0.5,0,1,0.1,1.4,0.2v0.9H304.3z"/>
	<path d="M309.6,677.7v-0.9c0.4-0.1,1-0.2,1.5-0.2v-6.2c-0.4-0.1-1-0.1-1.5-0.2v-0.9c0.9-0.1,2-0.2,3-0.1v7.4c0.5,0,1,0.1,1.4,0.2
		v0.9H309.6z M311.8,667.5c-0.6,0-1-0.4-1-1c0-0.6,0.5-1,1-1c0.6,0,1,0.4,1,1C312.9,667,312.4,667.5,311.8,667.5z"/>
	<path d="M315.1,677.7v-1.1l4.4-6.2c-0.5,0-1.3,0-2.1,0h-1c-0.1,0.4-0.1,0.8-0.2,1.3h-1v-2.5h6v1.1l-4.3,6.2c0.5,0,1.4,0,2.1,0h1.1
		c0.1-0.4,0.1-0.9,0.2-1.3h1v2.6H315.1z"/>
	<path d="M328.1,677.7c0-0.6,0-1.2,0.1-1.7h0c-0.4,1-1.5,1.9-2.9,1.9c-1.4,0-2.4-0.9-2.4-2.3c0-1.8,1.9-2.9,5.1-2.9v-0.6
		c0-1.2-0.4-1.9-1.8-1.9c-0.5,0-1.1,0.1-1.6,0.2c0,0.4-0.1,0.9-0.2,1.4h-1v-2.3c0.9-0.3,1.9-0.5,2.9-0.5c2.5,0,3.2,1.2,3.2,2.9v4.6
		c0.4,0.1,1,0.1,1.4,0.2v0.9C330.2,677.7,329,677.8,328.1,677.7z M328,673.8c-2.7,0-3.6,0.7-3.6,1.6c0,0.7,0.5,1.3,1.3,1.3
		c1.4,0,2.3-1.4,2.3-2.7V673.8z"/>
	<path d="M335.2,677.9c-1.8,0-2.3-0.7-2.3-2.6v-4.9h-1.8v-1.2h1.8v-2.8l1.5-0.4v3.2h2.4v1.2h-2.4v4.4c0,1.4,0.3,1.8,1.2,1.8
		c0.4,0,0.8-0.1,1.1-0.1l0.2,1.3C336.4,677.8,335.8,677.9,335.2,677.9z"/>
	<path d="M338,677.7v-0.9c0.4-0.1,1-0.2,1.5-0.2v-6.2c-0.4-0.1-1-0.1-1.5-0.2v-0.9c0.9-0.1,2-0.2,3-0.1v7.4c0.5,0,1,0.1,1.4,0.2v0.9
		H338z M340.3,667.5c-0.6,0-1-0.4-1-1c0-0.6,0.5-1,1-1c0.6,0,1,0.4,1,1C341.3,667,340.8,667.5,340.3,667.5z"/>
	<path d="M347.1,677.9c-2.3,0-3.8-1.3-3.8-4.3c0-2.6,1.6-4.6,4.2-4.6c2.2,0,3.8,1.2,3.8,4.3C351.3,675.9,349.7,677.9,347.1,677.9z
		 M347.3,670.3c-1.3,0-2.4,0.9-2.4,3.1c0,2,0.8,3.1,2.4,3.1c1.3,0,2.4-1,2.4-3.1C349.7,671.4,348.9,670.3,347.3,670.3z"/>
	<path d="M359.4,677.7v-5.5c0-1.2-0.3-1.9-1.4-1.9c-1.4,0-2.4,1.4-2.4,3.3v2.9c0.5,0,1,0.1,1.4,0.2v0.9h-4.4v-0.9
		c0.4-0.1,1-0.2,1.5-0.2v-6.2c-0.4-0.1-1-0.1-1.5-0.2v-0.9c0.9-0.1,2-0.2,3-0.1c0,0.5,0,1.3-0.1,1.8h0c0.5-1.2,1.6-2,3-2
		c1.9,0,2.6,1.2,2.6,2.7v4.8c0.5,0,1,0.1,1.4,0.2v0.9H359.4z"/>
</g>
<polyline fill="none" stroke="#000000" stroke-width="2" points="312.7,604.5 325.4,617.6 312.4,630.3 "/>
</svg>
