<?xml version="1.0" encoding="utf-8"?>
<!-- Generator: Adobe Illustrator 18.0.0, SVG Export Plug-In . SVG Version: 6.00 Build 0)  -->
<!DOCTYPE svg PUBLIC "-//W3C//DTD SVG 1.1//EN" "http://www.w3.org/Graphics/SVG/1.1/DTD/svg11.dtd">
<svg version="1.1" id="Layer_1" xmlns="http://www.w3.org/2000/svg" xmlns:xlink="http://www.w3.org/1999/xlink" x="0px" y="0px"
	 viewBox="0 0 640 480" enable-background="new 0 0 640 480" xml:space="preserve">
<text transform="matrix(1 0 0 1 9.0059 158.0439)" font-family="'TheSerif-HP5Plain'" font-size="18">3</text>
<text transform="matrix(1 0 0 1 72.0762 215.9736)" font-family="'TheSerif-HP5Plain'" font-size="18">4</text>
<text transform="matrix(1 0 0 1 86.0264 143.9736)" fill="#999999" font-family="'TheSerif-HP5Plain'" font-size="18"> 5 (magnitude)</text>
<line fill="none" stroke="#999999" stroke-width="1.3" x1="41.2" y1="124.6" x2="116.7" y2="186"/>
<line fill="none" stroke="#000000" stroke-width="1.3" x1="27.7" y1="194.8" x2="127.2" y2="194.8"/>
<polyline fill="none" stroke="#999999" stroke-width="1.3" points="116.8,177.7 116.7,186.5 107.9,186.4 "/>
<circle cx="30.1" cy="116.2" r="5.8"/>
<line fill="none" stroke="#000000" stroke-width="1.3" x1="28" y1="119.5" x2="28" y2="194.2"/>
<polyline fill="none" stroke="#000000" stroke-width="1.3" points="45.8,194.8 45.8,177.7 28.7,177.7 "/>
<circle cx="125.7" cy="194.5" r="5.8"/>
<text transform="matrix(1 0 0 1 473.1904 160.0439)" font-family="'TheSerif-HP5Plain'" font-size="18">3 / 5</text>
<text transform="matrix(1 0 0 1 549.2607 215.9736)" font-family="'TheSerif-HP5Plain'" font-size="18">4 / 5</text>
<text transform="matrix(1 0 0 1 562.0264 162.9736)" fill="#999999" font-family="'TheSerif-HP5Plain'" font-size="18"> 5 / 5 = 1</text>
<line fill="none" stroke="#999999" stroke-width="1.3" x1="528.5" y1="151.6" x2="574.8" y2="189.2"/>
<line fill="none" stroke="#000000" stroke-width="1.3" x1="517.7" y1="194.8" x2="581.5" y2="194.8"/>
<polyline fill="none" stroke="#999999" stroke-width="1.3" points="574.8,180.7 574.7,189.5 565.9,189.4 "/>
<circle cx="520.1" cy="146.2" r="5.8"/>
<line fill="none" stroke="#000000" stroke-width="1.3" x1="517.9" y1="146.5" x2="517.9" y2="194.4"/>
<polyline fill="none" stroke="#000000" stroke-width="1.3" points="529.3,194.8 529.3,183.8 518.3,183.8 "/>
<circle cx="585.7" cy="194.5" r="5.8"/>
<text transform="matrix(1 0 0 1 272.1636 161.5)"><tspan x="0" y="0" font-family="'TheSerif-HP5Plain'" font-size="18">Normalization</tspan><tspan x="-33.8" y="21.6" fill="#999999" font-family="'TheSerif-HP5Plain'" font-size="18">(Divide by magnitude.)</tspan></text>
<line fill="#FFFFFF" stroke="#000000" stroke-width="2" x1="348.5" y1="129.8" x2="311.5" y2="129.8"/>
<line fill="#FFFFFF" stroke="#000000" stroke-width="2" x1="348.5" y1="117.8" x2="311.5" y2="117.8"/>
<polyline fill="none" stroke="#000000" stroke-width="2" points="341,109.9 354.3,123.6 340.7,136.9 "/>
</svg>
