<?xml version="1.0" encoding="utf-8"?>
<!-- Generator: Adobe Illustrator 17.1.0, SVG Export Plug-In . SVG Version: 6.00 Build 0)  -->
<!DOCTYPE svg PUBLIC "-//W3C//DTD SVG 1.1//EN" "http://www.w3.org/Graphics/SVG/1.1/DTD/svg11.dtd">
<svg version="1.1" id="Layer_1" xmlns="http://www.w3.org/2000/svg" xmlns:xlink="http://www.w3.org/1999/xlink" x="0px" y="0px"
	 viewBox="0 232 612 200" enable-background="new 0 232 612 200" xml:space="preserve">
<text transform="matrix(1 0 0 1 8.6123 317.6299)" font-family="'ArialMT'" font-size="17.2125">3</text>
<text transform="matrix(1 0 0 1 68.9229 373.0249)" font-family="'ArialMT'" font-size="17.2125">4</text>
<text transform="matrix(1 0 0 1 82.2627 304.1748)" fill="#999999" font-family="'ArialMT'" font-size="17.2125"> 5 (magnitude)</text>
<line fill="none" stroke="#999999" stroke-width="1.3" x1="39.4" y1="285.6" x2="111.6" y2="344.4"/>
<line fill="none" stroke="#000000" stroke-width="1.3" x1="26.5" y1="352.8" x2="121.6" y2="352.8"/>
<polyline fill="none" stroke="#999999" stroke-width="1.3" points="111.7,336.4 111.6,344.8 103.2,344.7 "/>
<circle cx="28.8" cy="277.6" r="5.5"/>
<line fill="none" stroke="#000000" stroke-width="1.3" x1="26.8" y1="280.8" x2="26.8" y2="352.2"/>
<polyline fill="none" stroke="#000000" stroke-width="1.3" points="43.8,352.8 43.8,336.4 27.4,336.4 "/>
<circle cx="120.2" cy="352.5" r="5.5"/>
<text transform="matrix(1 0 0 1 452.4883 319.5425)" font-family="'ArialMT'" font-size="17.2125">3 / 5</text>
<text transform="matrix(1 0 0 1 525.2305 373.0249)" font-family="'ArialMT'" font-size="17.2125">4 / 5</text>
<text transform="matrix(1 0 0 1 537.4376 322.3438)" fill="#999999" font-family="'ArialMT'" font-size="17.2125"> 5 / 5 = 1</text>
<line fill="none" stroke="#999999" stroke-width="1.3" x1="505.4" y1="311.5" x2="549.7" y2="347.4"/>
<line fill="none" stroke="#000000" stroke-width="1.3" x1="495.1" y1="352.8" x2="556.1" y2="352.8"/>
<polyline fill="none" stroke="#999999" stroke-width="1.3" points="549.7,339.3 549.6,347.7 541.1,347.6 "/>
<circle cx="497.3" cy="306.3" r="5.5"/>
<line fill="none" stroke="#000000" stroke-width="1.3" x1="495.2" y1="306.6" x2="495.2" y2="352.4"/>
<polyline fill="none" stroke="#000000" stroke-width="1.3" points="506.1,352.8 506.1,342.3 495.6,342.3 "/>
<circle cx="560.1" cy="352.5" r="5.5"/>
<text transform="matrix(1 0 0 1 260.2568 320.9346)" font-family="'ArialMT'" font-size="17.2125">Normalization</text>
<text transform="matrix(1 0 0 1 227.9356 341.5898)" fill="#999999" font-family="'ArialMT'" font-size="17.2125">(Divide by magnitude.)</text>
<line fill="none" stroke="#000000" stroke-width="2" x1="333.3" y1="290.6" x2="297.9" y2="290.6"/>
<line fill="none" stroke="#000000" stroke-width="2" x1="333.3" y1="279.1" x2="297.9" y2="279.1"/>
<polyline fill="none" stroke="#000000" stroke-width="2" points="326.1,271.6 338.8,284.7 325.8,297.4 "/>
</svg>
