<?xml version="1.0" encoding="utf-8"?>
<!-- Generator: Adobe Illustrator 17.1.0, SVG Export Plug-In . SVG Version: 6.00 Build 0)  -->
<!DOCTYPE svg PUBLIC "-//W3C//DTD SVG 1.1//EN" "http://www.w3.org/Graphics/SVG/1.1/DTD/svg11.dtd">
<svg version="1.1" id="Layer_1" xmlns="http://www.w3.org/2000/svg" xmlns:xlink="http://www.w3.org/1999/xlink" x="0px" y="0px"
	 viewBox="0 222 612 180" enable-background="new 0 222 612 180" xml:space="preserve">
<text transform="matrix(1 0 0 1 125.6753 293.2456)" font-family="'ArialMT'" font-size="17.2125">b</text>
<text transform="matrix(1 0 0 1 265.0928 356.7686)" font-family="'ArialMT'" font-size="17.2125">a</text>
<text transform="matrix(1 0 0 1 417.4034 278.8599)" font-family="'ArialMT'" font-size="17.2125">a</text>
<text transform="matrix(1 0 0 1 426.5831 274.0786)" font-family="'ArialMT'" font-size="13.3875">2</text>
<text transform="matrix(1 0 0 1 433.0859 278.8599)" font-family="'ArialMT'" font-size="17.2125"> + b</text>
<text transform="matrix(1 0 0 1 459.6699 274.0786)" font-family="'ArialMT'" font-size="13.3875">2</text>
<text transform="matrix(1 0 0 1 466.0762 278.8599)" font-family="'ArialMT'" font-size="17.2125"> = c</text>
<text transform="matrix(1 0 0 1 490.748 274.0786)" font-family="'ArialMT'" font-size="13.3875">2</text>
<polygon fill="none" stroke="#000000" stroke-width="1.3" points="389.7,337.2 145.8,337.2 145.8,242.5 "/>
<polyline fill="none" stroke="#000000" stroke-width="1.3" points="165.4,337.2 165.4,317.6 145.8,317.6 "/>
<text transform="matrix(1 0 0 1 263.8701 278.9019)" font-family="'ArialMT'" font-size="17.2125">c</text>
</svg>
