<?xml version="1.0" encoding="utf-8"?>
<!-- Generator: Adobe Illustrator 18.0.0, SVG Export Plug-In . SVG Version: 6.00 Build 0)  -->
<!DOCTYPE svg PUBLIC "-//W3C//DTD SVG 1.1//EN" "http://www.w3.org/Graphics/SVG/1.1/DTD/svg11.dtd">
<svg version="1.1" id="Layer_1" xmlns="http://www.w3.org/2000/svg" xmlns:xlink="http://www.w3.org/1999/xlink" x="0px" y="0px"
	 viewBox="0 0 612 792" enable-background="new 0 0 612 792" xml:space="preserve">
<g enable-background="new    ">
	<path d="M130.1,599.4c-1.2,0-2-0.1-2.9-0.3v-11.1c-0.4-0.1-1-0.1-1.5-0.2v-0.9c0.9-0.1,2-0.2,3-0.1v4.1c0,0.5-0.1,1.2-0.2,1.6l0,0
		c0.5-1.2,1.5-1.9,2.8-1.9c2,0,3.1,1.4,3.1,4C134.6,597.6,132.9,599.4,130.1,599.4z M131,591.8c-1.5,0-2.3,1.8-2.3,3.3v2.8
		c0.4,0.1,0.9,0.2,1.5,0.2c1.6,0,2.7-1,2.7-3.4C132.9,592.9,132.3,591.8,131,591.8z"/>
</g>
<g enable-background="new    ">
	<path d="M271.1,662.8c0-0.6,0-1.2,0.1-1.7h0c-0.4,1-1.5,1.9-2.9,1.9c-1.4,0-2.4-0.9-2.4-2.3c0-1.8,1.9-2.9,5.1-2.9v-0.6
		c0-1.2-0.4-1.9-1.8-1.9c-0.5,0-1.1,0.1-1.6,0.2c0,0.4-0.1,0.9-0.2,1.4h-1v-2.3c0.9-0.3,1.9-0.5,2.9-0.5c2.5,0,3.2,1.2,3.2,2.9v4.6
		c0.4,0.1,1,0.1,1.4,0.2v0.9C273.2,662.8,272,662.8,271.1,662.8z M271,658.8c-2.7,0-3.6,0.7-3.6,1.6c0,0.7,0.5,1.3,1.3,1.3
		c1.4,0,2.3-1.4,2.3-2.7V658.8z"/>
</g>
<g enable-background="new    ">
	<path d="M424.3,584.9c0-0.6,0-1.2,0.1-1.8h0c-0.5,1.1-1.7,1.9-3.2,1.9c-1.6,0-2.5-0.8-2.5-2.2c0-1.9,1.9-3,5.6-3v-0.6
		c0-1.2-0.6-1.8-2.1-1.8c-0.9,0-2,0.2-2.8,0.7l-0.2-1.3c0.9-0.4,1.9-0.6,3.1-0.6c2.6,0,3.5,1.2,3.5,2.9v3.4c0,0.8,0,1.7,0,2.5H424.3
		z M424.2,580.9L424.2,580.9c-3.3,0-4,0.7-4,1.7c0,0.8,0.6,1.2,1.5,1.2c1.5,0,2.6-1.4,2.6-2.7V580.9z"/>
</g>
<g enable-background="new    ">
	<path d="M427.7,580.1v-1l1.9-1.7c1.7-1.4,2.1-2,2.1-2.9c0-0.9-0.5-1.5-1.6-1.5c-0.8,0-1.5,0.4-1.9,0.7l-0.3-1.1
		c0.7-0.4,1.5-0.7,2.4-0.7c1.8,0,2.7,1,2.7,2.4c0,1.1-0.6,2-2.1,3.3l-1.6,1.4l-0.1,0c0.6-0.1,2.1-0.1,4.1-0.1v1.2H427.7z"/>
</g>
<g enable-background="new    ">
	<path d="M449.3,580.3v3.6h-1.5v-3.6h-3.5V579h3.5v-3.6h1.5v3.6h3.5v1.3H449.3z"/>
	<path d="M468.6,585c-1.2,0-2-0.1-2.9-0.3v-12.3h1.5v3.7c0,0.8-0.1,1.5-0.2,2.2l0,0c0.5-1.4,1.5-2.1,2.9-2.1c2,0,3.3,1.4,3.3,4
		C473.3,583.2,471.4,585,468.6,585z M469.6,577.4c-1.5,0-2.3,1.9-2.3,3.4v2.7c0.4,0.1,0.9,0.2,1.5,0.2c1.6,0,2.9-1,2.9-3.5
		C471.7,578.5,470.9,577.4,469.6,577.4z"/>
</g>
<g enable-background="new    ">
	<path d="M475.3,580.1v-1l1.9-1.7c1.7-1.4,2.1-2,2.1-2.9c0-0.9-0.5-1.5-1.6-1.5c-0.8,0-1.5,0.4-1.9,0.7l-0.3-1.1
		c0.7-0.4,1.5-0.7,2.4-0.7c1.8,0,2.7,1,2.7,2.4c0,1.1-0.6,2-2.1,3.3l-1.6,1.4l-0.1,0c0.6-0.1,2.1-0.1,4.1-0.1v1.2H475.3z"/>
</g>
<g enable-background="new    ">
	<path d="M487.8,578.8v-1.3h7.7v1.3H487.8z M487.8,581.7v-1.3h7.7v1.3H487.8z"/>
	<path d="M513,585c-2.8,0-4.3-1.6-4.3-4.1c0-2.8,1.7-4.7,4.8-4.7c0.9,0,1.9,0.2,2.6,0.4l-0.3,1.4c-0.6-0.3-1.5-0.5-2.3-0.5
		c-1.9,0-3.1,1.3-3.1,3.2c0,1.7,1,3,3,3c0.9,0,1.8-0.2,2.5-0.5l0.3,1.3C515.3,584.8,514.1,585,513,585z"/>
</g>
<g enable-background="new    ">
	<path d="M518.3,580.1v-1l1.9-1.7c1.7-1.4,2.1-2,2.1-2.9c0-0.9-0.5-1.5-1.6-1.5c-0.8,0-1.5,0.4-1.9,0.7l-0.3-1.1
		c0.7-0.4,1.5-0.7,2.4-0.7c1.8,0,2.7,1,2.7,2.4c0,1.1-0.6,2-2.1,3.3L520,579l-0.1,0c0.6-0.1,2.1-0.1,4.1-0.1v1.2H518.3z"/>
</g>
<polygon fill="none" stroke="#000000" stroke-width="1.3" points="389.7,643.2 145.8,643.2 145.8,548.5 "/>
<polyline fill="none" stroke="#000000" stroke-width="1.3" points="165.4,643.2 165.4,623.6 145.8,623.6 "/>
<g enable-background="new    ">
	<path d="M268.4,585c-2.1,0-3.9-1-3.9-4.1c0-2.8,1.4-4.7,4.3-4.7c0.7,0,1.5,0.1,2.1,0.3v2.5h-1c-0.1-0.5-0.2-1-0.2-1.4
		c-0.3-0.1-0.7-0.1-1.2-0.1c-1.5,0-2.4,1.3-2.4,3.2c0,1.7,0.6,3,2.6,3c0.7,0,1.5-0.2,2-0.4l0.3,1.3C270.4,584.8,269.5,585,268.4,585
		z"/>
</g>
</svg>
