<?xml version="1.0" encoding="utf-8"?>
<!-- Generator: Adobe Illustrator 18.0.0, SVG Export Plug-In . SVG Version: 6.00 Build 0)  -->
<!DOCTYPE svg PUBLIC "-//W3C//DTD SVG 1.1//EN" "http://www.w3.org/Graphics/SVG/1.1/DTD/svg11.dtd">
<svg version="1.1" id="Layer_1" xmlns="http://www.w3.org/2000/svg" xmlns:xlink="http://www.w3.org/1999/xlink" x="0px" y="0px"
	 viewBox="0 0 640 1111.5" enable-background="new 0 0 640 1111.5" xml:space="preserve">
<line fill="none" stroke="#000000" stroke-width="1.3" stroke-dasharray="20,5" x1="234.5" y1="131.5" x2="234.5" y2="250.1"/>
<line fill="none" stroke="#000000" stroke-width="1.3" stroke-dasharray="20,5" x1="214.3" y1="746" x2="214.3" y2="815.1"/>
<text transform="matrix(1 0 0 1 175.7803 271.5381)"><tspan x="0" y="0" font-family="'TheSerif-HP5Plain'" font-size="14">3 Steps</tspan><tspan x="9.1" y="16.8" font-family="'TheSerif-HP5Plain'" font-size="14">East</tspan></text>
<text transform="matrix(1 0 0 1 380.8291 845.9727)"><tspan x="0" y="0" font-family="'TheSerif-HP5Plain'" font-size="14">15 Steps</tspan><tspan x="10" y="16.8" font-family="'TheSerif-HP5Plain'" font-size="14">West</tspan></text>
<line fill="none" stroke="#000000" stroke-width="1.3" stroke-dasharray="20,5" x1="156.5" y1="249.5" x2="230.5" y2="249.5"/>
<line fill="none" stroke="#000000" stroke-width="1.3" stroke-dasharray="20,5" x1="155.8" y1="489.5" x2="203.2" y2="489.5"/>
<line fill="none" stroke="#000000" stroke-width="1.3" stroke-dasharray="20,5" x1="220.3" y1="814.5" x2="592.3" y2="814.5"/>
<polyline fill="#FFFFFF" stroke="#000000" stroke-width="1.3" points="583.7,98.1 588.1,102.5 583.7,106.9 "/>
<line fill="#FFFFFF" stroke="#000000" stroke-width="1.3" x1="588.1" y1="102.5" x2="518.5" y2="102.5"/>
<polyline fill="none" stroke="#000000" stroke-width="1.3" points="522.9,106.9 518.5,102.5 522.9,98.1 "/>
<polyline fill="#FFFFFF" stroke="#000000" stroke-width="1.3" points="558.2,132.4 553.8,136.8 549.4,132.4 "/>
<line fill="#FFFFFF" stroke="#000000" stroke-width="1.3" x1="553.8" y1="136.8" x2="553.8" y2="67.2"/>
<polyline fill="none" stroke="#000000" stroke-width="1.3" points="549.4,71.6 553.8,67.2 558.2,71.6 "/>
<text transform="matrix(1 0 0 1 548.5 57.5)" font-family="'TheSerif-HP5Plain'" font-size="14">N</text>
<text transform="matrix(1 0 0 1 497.5 106.5)" font-family="'TheSerif-HP5Plain'" font-size="14">W</text>
<text transform="matrix(1 0 0 1 599.5 106.5)" font-family="'TheSerif-HP5Plain'" font-size="14">E</text>
<text transform="matrix(1 0 0 1 550.5 159.5)" font-family="'TheSerif-HP5Plain'" font-size="14">S</text>
<polyline fill="#FFFFFF" stroke="#999999" points="228.6,754.2 224.3,747.2 231.3,742.8 "/>
<line fill="none" stroke="#999999" x1="578.9" y1="810.8" x2="224.3" y2="747.4"/>
<line fill="none" stroke="#999999" stroke-width="1.3" x1="162.8" y1="242" x2="228.1" y2="141.7"/>
<text transform="matrix(1 0 0 1 243.7803 225.5381)"><tspan x="0" y="0" font-family="'TheSerif-HP5Plain'" font-size="14">5 Steps</tspan><tspan x="3.4" y="16.8" font-family="'TheSerif-HP5Plain'" font-size="14">North</tspan></text>
<text transform="matrix(1 0 0 1 149.1797 775.5)"><tspan x="0" y="0" font-family="'TheSerif-HP5Plain'" font-size="14">3 Steps</tspan><tspan x="3.4" y="24" font-family="'TheSerif-HP5Plain'" font-size="14">North</tspan></text>
<circle cx="156.6" cy="248.9" r="5.8"/>
<line fill="none" stroke="#000000" stroke-width="1.3" stroke-dasharray="20,5" x1="200.1" y1="494" x2="200.1" y2="516.8"/>
<polyline fill="none" stroke="#999999" stroke-width="1.3" points="220.3,143.2 228.3,141.5 230,149.2 "/>
<text transform="matrix(1 0 0 1 156.7803 462.5381)"><tspan x="0" y="0" font-family="'TheSerif-HP5Plain'" font-size="14">2 Steps</tspan><tspan x="9.1" y="16.8" font-family="'TheSerif-HP5Plain'" font-size="14">East</tspan></text>
<text transform="matrix(1 0 0 1 209.832 496.5381)"><tspan x="0" y="0" font-family="'TheSerif-HP5Plain'" font-size="14">1 Step</tspan><tspan x="0.6" y="16.8" font-family="'TheSerif-HP5Plain'" font-size="14">South</tspan></text>
<line fill="none" stroke="#999999" x1="164" y1="494.8" x2="189.9" y2="509.2"/>
<polyline fill="none" stroke="#999999" points="188.4,504.3 190.1,509.3 185.1,511 "/>
<circle cx="155.9" cy="488" r="5.8"/>
<circle cx="590.6" cy="814.2" r="5.8"/>
<circle fill="#999999" cx="234.6" cy="132.1" r="5.8"/>
<circle fill="#999999" cx="200.5" cy="513.5" r="5.8"/>
<circle fill="#999999" cx="213.9" cy="746.3" r="5.8"/>
<text transform="matrix(1 0 0 1 36.5 60.5)"><tspan x="0" y="0" fill="#999999" font-family="'TheSansMono-W5Regular'" font-size="18">(3,5)</tspan><tspan x="54" y="0" font-family="'TheSerif-HP5Plain'" font-size="18">        --&gt; Walk three steps East, </tspan><tspan x="0" y="24" font-family="'TheSerif-HP5Plain'" font-size="18" letter-spacing="32">			</tspan><tspan x="108" y="24" font-family="'TheSerif-HP5Plain'" font-size="18"> turn and walk five steps North.</tspan></text>
<text transform="matrix(1 0 0 1 38.5 380.5)"><tspan x="0" y="0" fill="#999999" font-family="'TheSansMono-W5Regular'" font-size="18">(2,-1)</tspan><tspan x="64.8" y="0" font-family="'TheSerif-HP5Plain'" font-size="18">     --&gt; Walk two steps East, </tspan><tspan x="0" y="24" font-family="'TheSerif-HP5Plain'" font-size="18" letter-spacing="32">			</tspan><tspan x="108" y="24" font-family="'TheSerif-HP5Plain'" font-size="18">turn and walk one step South.</tspan></text>
<text transform="matrix(1 0 0 1 38.5 640.5)"><tspan x="0" y="0" fill="#999999" font-family="'TheSansMono-W5Regular'" font-size="18">(-15,3)</tspan><tspan x="75.6" y="0" font-family="'TheSerif-HP5Plain'" font-size="18">  --&gt; Walk fifteen steps West, </tspan><tspan x="0" y="24" font-family="'TheSerif-HP5Plain'" font-size="18" letter-spacing="32">			</tspan><tspan x="108" y="24" font-family="'TheSerif-HP5Plain'" font-size="18">turn and walk three steps North.</tspan></text>
<text transform="matrix(1 0 0 1 246.7388 136.8193)" fill="#999999" font-family="'TheSansMono-W5Regular'" font-size="18">(3,5)</text>
<text transform="matrix(1 0 0 1 205.7388 540.8193)" fill="#999999" font-family="'TheSansMono-W5Regular'" font-size="18">(2,-1)</text>
<text transform="matrix(1 0 0 1 213.7388 726.8193)" fill="#999999" font-family="'TheSansMono-W5Regular'" font-size="18">(-15,3)</text>
</svg>
