<?xml version="1.0" encoding="utf-8"?>
<!-- Generator: Adobe Illustrator 18.0.0, SVG Export Plug-In . SVG Version: 6.00 Build 0)  -->
<!DOCTYPE svg PUBLIC "-//W3C//DTD SVG 1.1//EN" "http://www.w3.org/Graphics/SVG/1.1/DTD/svg11.dtd">
<svg version="1.1" id="Layer_1" xmlns="http://www.w3.org/2000/svg" xmlns:xlink="http://www.w3.org/1999/xlink" x="0px" y="0px"
	 viewBox="0 0 612 792" enable-background="new 0 0 612 792" xml:space="preserve">
<line fill="none" stroke="#000000" stroke-width="1.3" stroke-dasharray="20,5" x1="245.1" y1="184.7" x2="245.1" y2="269.2"/>
<line fill="none" stroke="#000000" stroke-width="1.3" stroke-dasharray="20,5" x1="230.7" y1="622.6" x2="230.7" y2="671.8"/>
<g enable-background="new    ">
	<path d="M207.2,280.8c0,0.8-0.5,1.4-1.3,1.7v0c0.9,0.2,1.4,0.8,1.4,1.6c0,1.3-1.1,2.3-2.7,2.3c-0.3,0-0.6,0-0.9-0.1l0.1-0.8
		c0.2,0.1,0.6,0.1,0.9,0.1c1,0,1.7-0.5,1.7-1.4c0-1-0.9-1.3-2.3-1.2v-0.7c1.4,0,2.2-0.5,2.2-1.4c0-0.6-0.4-1-1.1-1
		c-0.2,0-0.5,0.1-0.7,0.1c0,0.3-0.1,0.5-0.1,0.8h-0.5v-1.4c0.4-0.2,0.9-0.3,1.4-0.3C206.6,279.2,207.2,279.9,207.2,280.8z"/>
	<path d="M212.1,284.6c-0.5,0-1-0.1-1.4-0.2v-1.6h0.7c0.1,0.3,0.1,0.6,0.1,0.9c0.2,0,0.5,0.1,0.7,0.1c0.8,0,1.4-0.3,1.4-1.2
		c0-1.5-3.1-0.9-3.1-3.1c0-1.1,0.9-1.9,2.4-1.9c0.5,0,0.9,0,1.3,0.1v1.5h-0.7c-0.1-0.3-0.1-0.6-0.1-0.9c-0.1,0-0.4-0.1-0.6-0.1
		c-0.9,0-1.4,0.4-1.4,1.1c0,1.5,3.1,0.9,3.1,3C214.6,283.7,213.6,284.6,212.1,284.6z"/>
	<path d="M217.5,284.6c-1,0-1.3-0.4-1.3-1.5v-2.9h-1v-0.7h1v-1.6l0.9-0.2v1.9h1.4v0.7H217v2.5c0,0.8,0.2,1,0.7,1
		c0.2,0,0.4,0,0.6-0.1l0.1,0.7C218.2,284.5,217.8,284.6,217.5,284.6z"/>
	<path d="M223.4,282h-3.2c0,1.3,0.5,1.9,1.6,1.9c0.5,0,1-0.1,1.4-0.3l0.1,0.7c-0.5,0.2-1.1,0.3-1.7,0.3c-1.5,0-2.3-0.8-2.3-2.5
		c0-1.5,0.8-2.6,2.2-2.6c1.4,0,2,0.9,2,2C223.4,281.6,223.4,281.8,223.4,282z M221.4,280.1c-0.6,0-1.1,0.5-1.2,1.2h2.3
		C222.5,280.6,222.1,280.1,221.4,280.1z"/>
	<path d="M226.6,284.5c-0.3,0-0.5,0-0.8-0.1v1.8c0.3,0,0.6,0.1,0.9,0.1v0.5H224v-0.5c0.3-0.1,0.5-0.1,0.8-0.1v-6
		c-0.2,0-0.5-0.1-0.8-0.1v-0.5c0.5-0.1,1.2-0.1,1.7-0.1c0,0.3,0,0.7-0.1,1l0,0c0.3-0.7,0.9-1.1,1.7-1.1c1.2,0,1.8,0.8,1.8,2.3
		C229.2,283.5,228.2,284.5,226.6,284.5z M227.1,280.2c-0.9,0-1.4,1-1.4,1.9v1.6c0.3,0.1,0.5,0.1,0.9,0.1c0.9,0,1.6-0.6,1.6-2
		C228.2,280.8,227.9,280.2,227.1,280.2z"/>
	<path d="M231.3,284.6c-0.4,0-0.8,0-1.2-0.1V283h0.5c0.1,0.2,0.1,0.5,0.1,0.8c0.2,0,0.4,0,0.6,0c0.7,0,1.1-0.3,1.1-0.8
		c0-1.1-2.5-0.4-2.5-2.2c0-0.8,0.7-1.5,2-1.5c0.3,0,0.8,0,1.1,0.1v1.4h-0.5c-0.1-0.2-0.1-0.5-0.1-0.8c-0.2,0-0.4-0.1-0.6-0.1
		c-0.7,0-1,0.3-1,0.7c0,1.1,2.5,0.5,2.5,2.1C233.5,283.9,232.7,284.6,231.3,284.6z"/>
</g>
<g enable-background="new    ">
	<path d="M210,296.5v-0.5c0.3-0.1,0.6-0.1,0.9-0.1v-5.4c-0.3,0-0.6-0.1-0.9-0.1v-0.5h4.4v1.6h-0.6c-0.1-0.3-0.1-0.6-0.1-0.8h-1.8
		v2.2h1.4c0-0.2,0.1-0.5,0.1-0.7h0.6v2h-0.6c-0.1-0.2-0.1-0.5-0.1-0.7h-1.4v2.4h1.8c0-0.3,0.1-0.6,0.1-0.9h0.6v1.6H210z"/>
	<path d="M218.5,296.5c0-0.3,0-0.7,0.1-1h0c-0.2,0.6-0.9,1.1-1.7,1.1s-1.4-0.5-1.4-1.3c0-1.1,1.1-1.7,3-1.7v-0.4
		c0-0.7-0.2-1.1-1-1.1c-0.3,0-0.6,0-0.9,0.1c0,0.2-0.1,0.5-0.1,0.8h-0.6v-1.4c0.5-0.2,1.1-0.3,1.7-0.3c1.5,0,1.9,0.7,1.9,1.7v2.7
		c0.2,0,0.6,0.1,0.8,0.1v0.5C219.7,296.4,219,296.5,218.5,296.5z M218.4,294.2c-1.6,0-2.1,0.4-2.1,0.9c0,0.4,0.3,0.7,0.8,0.7
		c0.8,0,1.3-0.8,1.3-1.6V294.2z"/>
	<path d="M222.1,296.5c-0.4,0-0.8,0-1.2-0.1V295h0.5c0.1,0.2,0.1,0.5,0.1,0.8c0.2,0,0.4,0,0.6,0c0.7,0,1.1-0.3,1.1-0.8
		c0-1.1-2.5-0.4-2.5-2.2c0-0.8,0.7-1.5,2-1.5c0.3,0,0.8,0,1.1,0.1v1.4h-0.5c-0.1-0.2-0.1-0.5-0.1-0.8c-0.2,0-0.4-0.1-0.6-0.1
		c-0.7,0-1,0.3-1,0.7c0,1.1,2.5,0.5,2.5,2.1C224.2,295.8,223.4,296.5,222.1,296.5z"/>
	<path d="M227.1,296.5c-1,0-1.3-0.4-1.3-1.5v-2.9h-1v-0.7h1v-1.6l0.9-0.2v1.9h1.4v0.7h-1.4v2.5c0,0.8,0.2,1,0.7,1
		c0.2,0,0.4,0,0.6-0.1l0.1,0.7C227.8,296.5,227.4,296.5,227.1,296.5z"/>
</g>
<g enable-background="new    ">
	<path d="M349.8,693.8v-0.5c0.3-0.1,0.7-0.1,1.1-0.1v-3.7l-1.1,0.5l-0.1-0.8l1.5-0.6h0.7v4.5c0.3,0,0.6,0.1,0.9,0.1v0.5H349.8z"/>
	<path d="M354.3,695.7c-0.3,0-0.5,0-0.7,0l0.1-0.8c0.2,0,0.5,0.1,0.7,0.1c1.2,0,1.9-0.6,1.9-1.5s-0.7-1.4-1.9-1.4
		c-0.2,0-0.4,0-0.6,0v-3.4h3.2v0.9h-2.3v1.8c1.7,0,2.6,0.9,2.6,2.1C357.2,694.7,356,695.7,354.3,695.7z"/>
	<path d="M361.9,693.9c-0.5,0-1-0.1-1.4-0.2v-1.6h0.7c0.1,0.3,0.1,0.6,0.1,0.9c0.2,0,0.5,0.1,0.7,0.1c0.8,0,1.4-0.3,1.4-1.2
		c0-1.5-3.1-0.9-3.1-3.1c0-1.1,0.9-1.9,2.4-1.9c0.5,0,0.9,0,1.3,0.1v1.5h-0.7c-0.1-0.3-0.1-0.6-0.1-0.9c-0.2,0-0.4-0.1-0.6-0.1
		c-0.9,0-1.4,0.4-1.4,1.1c0,1.5,3.1,0.9,3.1,3C364.4,693,363.5,693.9,361.9,693.9z"/>
	<path d="M367.3,693.9c-1,0-1.3-0.4-1.3-1.5v-2.9h-1v-0.7h1v-1.6l0.9-0.2v1.9h1.4v0.7h-1.4v2.5c0,0.8,0.2,1,0.7,1
		c0.2,0,0.4,0,0.6-0.1l0.1,0.7C368,693.8,367.6,693.9,367.3,693.9z"/>
	<path d="M373.2,691.3h-3.2c0,1.3,0.5,1.9,1.6,1.9c0.5,0,1-0.1,1.4-0.3l0.1,0.7c-0.5,0.2-1.1,0.3-1.7,0.3c-1.5,0-2.3-0.8-2.3-2.5
		c0-1.5,0.8-2.6,2.2-2.6c1.4,0,2,0.9,2,2C373.2,690.9,373.2,691.1,373.2,691.3z M371.2,689.4c-0.6,0-1.1,0.5-1.2,1.2h2.3
		C372.3,689.9,371.9,689.4,371.2,689.4z"/>
	<path d="M376.4,693.9c-0.3,0-0.5,0-0.8-0.1v1.8c0.3,0,0.6,0.1,0.9,0.1v0.5h-2.6v-0.5c0.3-0.1,0.5-0.1,0.8-0.1v-6
		c-0.2,0-0.5-0.1-0.8-0.1v-0.5c0.5-0.1,1.2-0.1,1.7-0.1c0,0.3,0,0.7-0.1,1l0,0c0.3-0.7,0.9-1.1,1.7-1.1c1.2,0,1.8,0.8,1.8,2.3
		C379,692.9,378,693.9,376.4,693.9z M377,689.5c-0.9,0-1.4,1-1.4,1.9v1.6c0.3,0.1,0.5,0.1,0.9,0.1c0.9,0,1.6-0.6,1.6-2
		C378.1,690.1,377.7,689.5,377,689.5z"/>
	<path d="M381.2,693.9c-0.4,0-0.8,0-1.2-0.1v-1.4h0.5c0,0.2,0.1,0.5,0.1,0.8c0.2,0,0.4,0,0.6,0c0.7,0,1.1-0.3,1.1-0.8
		c0-1.1-2.5-0.4-2.5-2.2c0-0.8,0.7-1.5,2-1.5c0.3,0,0.8,0,1.1,0.1v1.4h-0.5c-0.1-0.2-0.1-0.5-0.1-0.8c-0.2,0-0.4-0.1-0.6-0.1
		c-0.7,0-1,0.3-1,0.7c0,1.1,2.5,0.5,2.5,2.1C383.3,693.2,382.5,693.9,381.2,693.9z"/>
</g>
<g enable-background="new    ">
	<path d="M365.5,699.7l-1.5,6.1h-1.2l-1.3-4.4c-0.1-0.4-0.2-0.8-0.3-1.2h0c-0.1,0.4-0.1,0.8-0.2,1.2l-1.3,4.4h-1.2l-1.5-6.1
		c-0.2,0-0.4-0.1-0.6-0.1V699h2.3v0.5c-0.2,0-0.5,0.1-0.8,0.1l0.9,3.8c0.1,0.5,0.2,0.9,0.3,1.3h0c0.1-0.4,0.2-0.9,0.3-1.3l1.3-4.5
		h0.9l1.4,4.6c0.1,0.4,0.2,0.8,0.3,1.2h0c0-0.4,0.1-0.8,0.2-1.1l0.9-4c-0.3,0-0.5-0.1-0.8-0.1V699h2.3v0.5
		C366,699.6,365.7,699.7,365.5,699.7z"/>
	<path d="M370.3,703.3H367c0,1.3,0.5,1.9,1.6,1.9c0.5,0,1-0.1,1.4-0.3l0.1,0.7c-0.5,0.2-1.1,0.3-1.7,0.3c-1.5,0-2.3-0.8-2.3-2.5
		c0-1.5,0.8-2.6,2.2-2.6c1.4,0,2,0.9,2,2C370.3,702.9,370.3,703.1,370.3,703.3z M368.3,701.4c-0.6,0-1.1,0.5-1.2,1.2h2.3
		C369.4,701.9,369,701.4,368.3,701.4z"/>
	<path d="M372.5,705.9c-0.4,0-0.8,0-1.2-0.1v-1.4h0.5c0,0.2,0.1,0.5,0.1,0.8c0.2,0,0.4,0,0.6,0c0.7,0,1.1-0.3,1.1-0.8
		c0-1.1-2.5-0.4-2.5-2.2c0-0.8,0.7-1.5,2-1.5c0.3,0,0.8,0,1.1,0.1v1.4h-0.5c-0.1-0.2-0.1-0.5-0.1-0.8c-0.2,0-0.4-0.1-0.6-0.1
		c-0.7,0-1,0.3-1,0.7c0,1.1,2.5,0.5,2.5,2.1C374.6,705.2,373.8,705.9,372.5,705.9z"/>
	<path d="M377.5,705.8c-1,0-1.3-0.4-1.3-1.5v-2.9h-1v-0.7h1v-1.6l0.9-0.2v1.9h1.4v0.7H377v2.5c0,0.8,0.2,1,0.7,1
		c0.2,0,0.4,0,0.6-0.1l0.1,0.7C378.2,705.8,377.8,705.8,377.5,705.8z"/>
</g>
<line fill="none" stroke="#000000" stroke-width="1.3" stroke-dasharray="20,5" x1="189.5" y1="268.8" x2="242.2" y2="268.8"/>
<line fill="none" stroke="#000000" stroke-width="1.3" stroke-dasharray="20,5" x1="189" y1="439.8" x2="222.8" y2="439.8"/>
<line fill="none" stroke="#000000" stroke-width="1.3" stroke-dasharray="20,5" x1="235" y1="671.4" x2="500" y2="671.4"/>
<polyline fill="#FFFFFF" stroke="#000000" stroke-width="1.3" points="493.9,160.9 497,164 493.9,167.2 "/>
<line fill="none" stroke="#000000" stroke-width="1.3" x1="497" y1="164" x2="447.4" y2="164"/>
<polyline fill="none" stroke="#000000" stroke-width="1.3" points="450.6,167.2 447.4,164 450.6,160.9 "/>
<polyline fill="#FFFFFF" stroke="#000000" stroke-width="1.3" points="475.7,185.3 472.6,188.5 469.5,185.3 "/>
<line fill="none" stroke="#000000" stroke-width="1.3" x1="472.6" y1="188.5" x2="472.6" y2="138.9"/>
<polyline fill="none" stroke="#000000" stroke-width="1.3" points="469.5,142 472.6,138.9 475.7,142 "/>
<g enable-background="new    ">
	<path d="M475.4,125.9v6.1h-1.2l-2.6-4.2c-0.3-0.5-0.6-1-0.8-1.5c0.1,1.2,0.1,2.9,0.1,5c0.3,0,0.6,0.1,0.8,0.1v0.5h-2.6v-0.5
		c0.3-0.1,0.6-0.1,0.9-0.1v-5.4c-0.3,0-0.6-0.1-0.9-0.1v-0.5h2.1l2.6,4.2c0.3,0.5,0.6,1,0.8,1.5c-0.1-1.2-0.1-2.9-0.1-5
		c-0.3,0-0.5-0.1-0.8-0.1v-0.5h2.4v0.5C475.9,125.8,475.6,125.9,475.4,125.9z"/>
</g>
<g enable-background="new    ">
	<path d="M441.6,160.8l-1.5,6.1h-1.2l-1.3-4.4c-0.1-0.4-0.2-0.8-0.3-1.2h0c-0.1,0.4-0.1,0.8-0.2,1.2l-1.3,4.4h-1.2l-1.5-6.1
		c-0.2,0-0.4-0.1-0.6-0.1v-0.5h2.3v0.5c-0.2,0-0.5,0.1-0.8,0.1l0.9,3.8c0.1,0.5,0.2,0.9,0.3,1.3h0c0.1-0.4,0.2-0.9,0.3-1.3l1.3-4.5
		h0.9l1.4,4.6c0.1,0.4,0.2,0.8,0.3,1.2h0c0-0.4,0.1-0.8,0.2-1.1l0.9-4c-0.3,0-0.5-0.1-0.8-0.1v-0.5h2.3v0.5
		C442,160.7,441.7,160.8,441.6,160.8z"/>
</g>
<g enable-background="new    ">
	<path d="M505.4,166.9v-0.5c0.3-0.1,0.6-0.1,0.9-0.1v-5.4c-0.3,0-0.6-0.1-0.9-0.1v-0.5h4.4v1.6h-0.6c-0.1-0.3-0.1-0.6-0.1-0.8h-1.8
		v2.2h1.4c0-0.2,0.1-0.5,0.1-0.7h0.6v2h-0.6c-0.1-0.2-0.1-0.5-0.1-0.7h-1.4v2.4h1.8c0-0.3,0.1-0.6,0.1-0.9h0.6v1.6H505.4z"/>
</g>
<g enable-background="new    ">
	<path d="M472.3,204.7c-0.5,0-1-0.1-1.4-0.2V203h0.7c0.1,0.3,0.1,0.6,0.1,0.9c0.2,0,0.5,0.1,0.7,0.1c0.8,0,1.4-0.3,1.4-1.2
		c0-1.5-3.1-0.9-3.1-3.1c0-1.1,0.9-1.9,2.4-1.9c0.5,0,0.9,0,1.3,0.1v1.5h-0.7c-0.1-0.3-0.1-0.6-0.1-0.9c-0.1,0-0.4-0.1-0.6-0.1
		c-0.9,0-1.4,0.4-1.4,1.1c0,1.5,3.1,0.9,3.1,3C474.8,203.9,473.8,204.7,472.3,204.7z"/>
</g>
<polyline fill="#FFFFFF" stroke="#999999" points="240.9,628.4 237.8,623.4 242.8,620.3 "/>
<line fill="none" stroke="#999999" x1="490.5" y1="668.7" x2="237.8" y2="623.6"/>
<line fill="none" stroke="#999999" stroke-width="1.3" x1="194" y1="263.4" x2="240.5" y2="192"/>
<g enable-background="new    ">
	<path d="M253,253.6c-0.3,0-0.5,0-0.7,0l0.1-0.8c0.2,0,0.5,0.1,0.7,0.1c1.2,0,1.9-0.6,1.9-1.5s-0.7-1.4-1.9-1.4c-0.2,0-0.4,0-0.6,0
		v-3.4h3.2v0.9h-2.3v1.8c1.7,0,2.6,0.9,2.6,2.1C255.9,252.6,254.7,253.6,253,253.6z"/>
	<path d="M260.6,251.8c-0.5,0-1-0.1-1.4-0.2V250h0.7c0.1,0.3,0.1,0.6,0.1,0.9c0.2,0,0.5,0.1,0.7,0.1c0.8,0,1.4-0.3,1.4-1.2
		c0-1.5-3.1-0.9-3.1-3.1c0-1.1,0.9-1.9,2.4-1.9c0.5,0,0.9,0,1.3,0.1v1.5h-0.7c-0.1-0.3-0.1-0.6-0.1-0.9c-0.1,0-0.4-0.1-0.6-0.1
		c-0.9,0-1.4,0.4-1.4,1.1c0,1.5,3.1,0.9,3.1,3C263.1,250.9,262.2,251.8,260.6,251.8z"/>
	<path d="M266,251.8c-1,0-1.3-0.4-1.3-1.5v-2.9h-1v-0.7h1v-1.6l0.9-0.2v1.9h1.4v0.7h-1.4v2.5c0,0.8,0.2,1,0.7,1c0.2,0,0.4,0,0.6-0.1
		l0.1,0.7C266.7,251.7,266.3,251.8,266,251.8z"/>
	<path d="M271.9,249.2h-3.2c0,1.3,0.5,1.9,1.6,1.9c0.5,0,1-0.1,1.4-0.3l0.1,0.7c-0.5,0.2-1.1,0.3-1.7,0.3c-1.5,0-2.3-0.8-2.3-2.5
		c0-1.5,0.8-2.6,2.2-2.6c1.4,0,2,0.9,2,2C271.9,248.8,271.9,249,271.9,249.2z M269.9,247.3c-0.6,0-1.1,0.5-1.2,1.2h2.3
		C271,247.8,270.6,247.3,269.9,247.3z"/>
	<path d="M275.1,251.8c-0.3,0-0.5,0-0.8-0.1v1.8c0.3,0,0.6,0.1,0.9,0.1v0.5h-2.6v-0.5c0.3-0.1,0.5-0.1,0.8-0.1v-6
		c-0.2,0-0.5-0.1-0.8-0.1v-0.5c0.5-0.1,1.2-0.1,1.7-0.1c0,0.3,0,0.7-0.1,1l0,0c0.3-0.7,0.9-1.1,1.7-1.1c1.2,0,1.8,0.8,1.8,2.3
		C277.7,250.8,276.7,251.8,275.1,251.8z M275.7,247.4c-0.9,0-1.4,1-1.4,1.9v1.6c0.3,0.1,0.5,0.1,0.9,0.1c0.9,0,1.6-0.6,1.6-2
		C276.7,248,276.4,247.4,275.7,247.4z"/>
	<path d="M279.9,251.8c-0.4,0-0.8,0-1.2-0.1v-1.4h0.5c0.1,0.2,0.1,0.5,0.1,0.8c0.2,0,0.4,0,0.6,0c0.7,0,1.1-0.3,1.1-0.8
		c0-1.1-2.5-0.4-2.5-2.2c0-0.8,0.7-1.5,2-1.5c0.3,0,0.8,0,1.1,0.1v1.4h-0.5c-0.1-0.2-0.1-0.5-0.1-0.8c-0.2,0-0.4-0.1-0.6-0.1
		c-0.7,0-1,0.3-1,0.7c0,1.1,2.5,0.5,2.5,2.1C282,251.1,281.2,251.8,279.9,251.8z"/>
</g>
<g enable-background="new    ">
	<path d="M260.7,257.6v6.1h-1.2l-2.6-4.2c-0.3-0.5-0.6-1-0.8-1.5c0.1,1.2,0.1,2.9,0.1,5c0.3,0,0.6,0.1,0.8,0.1v0.5h-2.6v-0.5
		c0.3-0.1,0.6-0.1,0.9-0.1v-5.4c-0.3,0-0.6-0.1-0.9-0.1v-0.5h2.1l2.6,4.2c0.3,0.5,0.6,1,0.8,1.5c-0.1-1.2-0.1-2.9-0.1-5
		c-0.3,0-0.5-0.1-0.8-0.1v-0.5h2.4v0.5C261.2,257.5,260.9,257.6,260.7,257.6z"/>
	<path d="M264.3,263.8c-1.4,0-2.2-0.8-2.2-2.5c0-1.5,0.9-2.6,2.4-2.6c1.3,0,2.2,0.7,2.2,2.5C266.7,262.6,265.8,263.8,264.3,263.8z
		 M264.4,259.4c-0.7,0-1.4,0.5-1.4,1.8c0,1.1,0.5,1.8,1.4,1.8c0.7,0,1.4-0.6,1.4-1.8C265.8,260,265.3,259.4,264.4,259.4z"/>
	<path d="M270.8,259.5c-1.1-0.2-1.6,0.6-1.6,2.2v1.3c0.3,0,0.6,0.1,0.9,0.1v0.5h-2.6v-0.5c0.3-0.1,0.6-0.1,0.9-0.1v-3.6
		c-0.2,0-0.6-0.1-0.9-0.1v-0.5c0.5-0.1,1.2-0.1,1.7-0.1c0,0.3,0,0.8-0.1,1.2h0c0.2-0.7,0.7-1.4,1.8-1.3L270.8,259.5z"/>
	<path d="M273.4,263.8c-1,0-1.3-0.4-1.3-1.5v-2.9h-1v-0.7h1v-1.6l0.9-0.2v1.9h1.4v0.7H273v2.5c0,0.8,0.2,1,0.7,1
		c0.2,0,0.4,0,0.6-0.1l0.1,0.7C274.2,263.7,273.8,263.8,273.4,263.8z"/>
	<path d="M278.9,263.7v-3.2c0-0.7-0.2-1.1-0.8-1.1c-0.8,0-1.4,0.8-1.4,1.9v1.7c0.3,0,0.6,0.1,0.8,0.1v0.5H275v-0.5
		c0.2-0.1,0.5-0.1,0.8-0.1v-5.9c-0.2,0-0.6-0.1-0.9-0.1v-0.5c0.5-0.1,1.2-0.1,1.8-0.1v2.4c0,0.3,0,0.7-0.1,1l0,0
		c0.3-0.7,0.9-1.1,1.7-1.1c1.1,0,1.5,0.7,1.5,1.6v2.8c0.3,0,0.6,0.1,0.8,0.1v0.5H278.9z"/>
</g>
<g enable-background="new    ">
	<path d="M188.2,639.9c0,0.8-0.5,1.4-1.3,1.7v0c0.9,0.2,1.4,0.8,1.4,1.6c0,1.3-1.1,2.3-2.7,2.3c-0.3,0-0.6,0-0.9-0.1l0.1-0.8
		c0.2,0.1,0.6,0.1,0.9,0.1c1,0,1.7-0.5,1.7-1.4c0-1-0.9-1.3-2.3-1.2v-0.7c1.4,0,2.2-0.5,2.2-1.4c0-0.6-0.4-1-1.1-1
		c-0.2,0-0.5,0.1-0.7,0.1c0,0.3-0.1,0.5-0.1,0.8h-0.5v-1.4c0.4-0.2,0.9-0.3,1.4-0.3C187.7,638.3,188.2,639,188.2,639.9z"/>
	<path d="M193.1,643.7c-0.5,0-1-0.1-1.4-0.2v-1.6h0.7c0.1,0.3,0.1,0.6,0.1,0.9c0.2,0,0.5,0.1,0.7,0.1c0.8,0,1.4-0.3,1.4-1.2
		c0-1.5-3.1-0.9-3.1-3.1c0-1.1,0.9-1.9,2.4-1.9c0.5,0,0.9,0,1.3,0.1v1.5h-0.7c-0.1-0.3-0.1-0.6-0.1-0.9c-0.1,0-0.4-0.1-0.6-0.1
		c-0.9,0-1.4,0.4-1.4,1.1c0,1.5,3.1,0.9,3.1,3C195.6,642.8,194.7,643.7,193.1,643.7z"/>
	<path d="M198.5,643.7c-1,0-1.3-0.4-1.3-1.5v-2.9h-1v-0.7h1V637l0.9-0.2v1.9h1.4v0.7h-1.4v2.5c0,0.8,0.2,1,0.7,1
		c0.2,0,0.4,0,0.6-0.1l0.1,0.7C199.2,643.6,198.8,643.7,198.5,643.7z"/>
	<path d="M204.4,641.1h-3.2c0,1.3,0.5,1.9,1.6,1.9c0.5,0,1-0.1,1.4-0.3l0.1,0.7c-0.5,0.2-1.1,0.3-1.7,0.3c-1.5,0-2.3-0.8-2.3-2.5
		c0-1.5,0.8-2.6,2.2-2.6c1.4,0,2,0.9,2,2C204.4,640.7,204.4,640.9,204.4,641.1z M202.4,639.2c-0.6,0-1.1,0.5-1.2,1.2h2.3
		C203.5,639.7,203.1,639.2,202.4,639.2z"/>
	<path d="M207.7,643.6c-0.3,0-0.5,0-0.8-0.1v1.8c0.3,0,0.6,0.1,0.9,0.1v0.5h-2.6v-0.5c0.3-0.1,0.5-0.1,0.8-0.1v-6
		c-0.2,0-0.5-0.1-0.8-0.1v-0.5c0.5-0.1,1.2-0.1,1.7-0.1c0,0.3,0,0.7-0.1,1l0,0c0.3-0.7,0.9-1.1,1.7-1.1c1.2,0,1.8,0.8,1.8,2.3
		C210.2,642.6,209.3,643.6,207.7,643.6z M208.2,639.3c-0.9,0-1.4,1-1.4,1.9v1.6c0.3,0.1,0.5,0.1,0.9,0.1c0.9,0,1.6-0.6,1.6-2
		C209.3,639.9,208.9,639.3,208.2,639.3z"/>
	<path d="M212.4,643.7c-0.4,0-0.8,0-1.2-0.1v-1.4h0.5c0.1,0.2,0.1,0.5,0.1,0.8c0.2,0,0.4,0,0.6,0c0.7,0,1.1-0.3,1.1-0.8
		c0-1.1-2.5-0.4-2.5-2.2c0-0.8,0.7-1.5,2-1.5c0.3,0,0.8,0,1.1,0.1v1.4h-0.5c-0.1-0.2-0.1-0.5-0.1-0.8c-0.2,0-0.4-0.1-0.6-0.1
		c-0.7,0-1,0.3-1,0.7c0,1.1,2.5,0.5,2.5,2.1C214.5,643,213.7,643.7,212.4,643.7z"/>
</g>
<g enable-background="new    ">
	<path d="M193.3,654.6v6.1H192l-2.6-4.2c-0.3-0.5-0.6-1-0.8-1.5c0.1,1.2,0.1,2.9,0.1,5c0.3,0,0.6,0.1,0.8,0.1v0.5H187v-0.5
		c0.3-0.1,0.6-0.1,0.9-0.1v-5.4c-0.3,0-0.6-0.1-0.9-0.1v-0.5h2.1l2.6,4.2c0.3,0.5,0.6,1,0.8,1.5c-0.1-1.2-0.1-2.9-0.1-5
		c-0.3,0-0.5-0.1-0.8-0.1v-0.5h2.4v0.5C193.8,654.5,193.5,654.6,193.3,654.6z"/>
	<path d="M196.9,660.8c-1.4,0-2.2-0.8-2.2-2.5c0-1.5,0.9-2.6,2.4-2.6c1.3,0,2.2,0.7,2.2,2.5C199.3,659.6,198.4,660.8,196.9,660.8z
		 M197,656.4c-0.7,0-1.4,0.5-1.4,1.8c0,1.1,0.5,1.8,1.4,1.8c0.7,0,1.4-0.6,1.4-1.8C198.4,657,197.9,656.4,197,656.4z"/>
	<path d="M203.4,656.5c-1.1-0.2-1.6,0.6-1.6,2.2v1.3c0.3,0,0.6,0.1,0.9,0.1v0.5H200v-0.5c0.3-0.1,0.6-0.1,0.9-0.1v-3.6
		c-0.2,0-0.6-0.1-0.9-0.1v-0.5c0.5-0.1,1.2-0.1,1.7-0.1c0,0.3,0,0.8-0.1,1.2h0c0.2-0.7,0.7-1.4,1.8-1.3L203.4,656.5z"/>
	<path d="M206,660.8c-1,0-1.3-0.4-1.3-1.5v-2.9h-1v-0.7h1v-1.6l0.9-0.2v1.9h1.4v0.7h-1.4v2.5c0,0.8,0.2,1,0.7,1c0.2,0,0.4,0,0.6-0.1
		l0.1,0.7C206.7,660.7,206.4,660.8,206,660.8z"/>
	<path d="M211.5,660.7v-3.2c0-0.7-0.2-1.1-0.8-1.1c-0.8,0-1.4,0.8-1.4,1.9v1.7c0.3,0,0.6,0.1,0.8,0.1v0.5h-2.5v-0.5
		c0.2-0.1,0.5-0.1,0.8-0.1v-5.9c-0.2,0-0.6-0.1-0.9-0.1v-0.5c0.5-0.1,1.2-0.1,1.8-0.1v2.4c0,0.3,0,0.7-0.1,1l0,0
		c0.3-0.7,0.9-1.1,1.7-1.1c1.1,0,1.5,0.7,1.5,1.6v2.8c0.3,0,0.6,0.1,0.8,0.1v0.5H211.5z"/>
</g>
<circle cx="189.6" cy="268.4" r="4.1"/>
<line fill="none" stroke="#000000" stroke-width="1.3" stroke-dasharray="20,5" x1="220.6" y1="443" x2="220.6" y2="459.2"/>
<polyline fill="none" stroke="#999999" stroke-width="1.3" points="235,193 240.7,191.8 241.9,197.3 "/>
<g enable-background="new    ">
	<path d="M190.2,420.6v-0.7l1.3-1.1c0.8-0.7,1.3-1.2,1.3-1.7c0-0.6-0.4-1-1-1c-0.3,0-0.5,0.1-0.8,0.1c0,0.3-0.1,0.6-0.1,0.8h-0.5
		v-1.4c0.4-0.2,1-0.3,1.6-0.3c1.2,0,1.9,0.7,1.9,1.6c0,0.7-0.4,1.3-1.3,2l-1,0.9l0,0c0.5,0,1.5,0,2.6,0v0.8H190.2z"/>
	<path d="M198.7,420.7c-0.5,0-1-0.1-1.4-0.2v-1.6h0.7c0.1,0.3,0.1,0.6,0.1,0.9c0.2,0,0.5,0.1,0.7,0.1c0.8,0,1.4-0.3,1.4-1.2
		c0-1.5-3.1-0.9-3.1-3.1c0-1.1,0.9-1.9,2.4-1.9c0.5,0,0.9,0,1.3,0.1v1.5h-0.7c-0.1-0.3-0.1-0.6-0.1-0.9c-0.1,0-0.4-0.1-0.6-0.1
		c-0.9,0-1.4,0.4-1.4,1.1c0,1.5,3.1,0.9,3.1,3C201.2,419.8,200.3,420.7,198.7,420.7z"/>
	<path d="M204.1,420.7c-1,0-1.3-0.4-1.3-1.5v-2.9h-1v-0.7h1V414l0.9-0.2v1.9h1.4v0.7h-1.4v2.5c0,0.8,0.2,1,0.7,1
		c0.2,0,0.4,0,0.6-0.1l0.1,0.7C204.8,420.6,204.4,420.7,204.1,420.7z"/>
	<path d="M210,418.1h-3.2c0,1.3,0.5,1.9,1.6,1.9c0.5,0,1-0.1,1.4-0.3l0.1,0.7c-0.5,0.2-1.1,0.3-1.7,0.3c-1.5,0-2.3-0.8-2.3-2.5
		c0-1.5,0.8-2.6,2.2-2.6c1.4,0,2,0.9,2,2C210,417.7,210,417.9,210,418.1z M208,416.2c-0.6,0-1.1,0.5-1.2,1.2h2.3
		C209.1,416.7,208.7,416.2,208,416.2z"/>
	<path d="M213.3,420.6c-0.3,0-0.5,0-0.8-0.1v1.8c0.3,0,0.6,0.1,0.9,0.1v0.5h-2.6v-0.5c0.3-0.1,0.5-0.1,0.8-0.1v-6
		c-0.2,0-0.5-0.1-0.8-0.1v-0.5c0.5-0.1,1.2-0.1,1.7-0.1c0,0.3,0,0.7-0.1,1l0,0c0.3-0.7,0.9-1.1,1.7-1.1c1.2,0,1.8,0.8,1.8,2.3
		C215.8,419.6,214.9,420.6,213.3,420.6z M213.8,416.3c-0.9,0-1.4,1-1.4,1.9v1.6c0.3,0.1,0.5,0.1,0.9,0.1c0.9,0,1.6-0.6,1.6-2
		C214.9,416.9,214.5,416.3,213.8,416.3z"/>
	<path d="M218,420.7c-0.4,0-0.8,0-1.2-0.1v-1.4h0.5c0.1,0.2,0.1,0.5,0.1,0.8c0.2,0,0.4,0,0.6,0c0.7,0,1.1-0.3,1.1-0.8
		c0-1.1-2.5-0.4-2.5-2.2c0-0.8,0.7-1.5,2-1.5c0.3,0,0.8,0,1.1,0.1v1.4h-0.5c-0.1-0.2-0.1-0.5-0.1-0.8c-0.2,0-0.4-0.1-0.6-0.1
		c-0.7,0-1,0.3-1,0.7c0,1.1,2.5,0.5,2.5,2.1C220.1,420,219.3,420.7,218,420.7z"/>
</g>
<g enable-background="new    ">
	<path d="M196.5,432.6V432c0.3-0.1,0.6-0.1,0.9-0.1v-5.4c-0.3,0-0.6-0.1-0.9-0.1v-0.5h4.4v1.6h-0.6c-0.1-0.3-0.1-0.6-0.1-0.8h-1.8
		v2.2h1.4c0-0.2,0.1-0.5,0.1-0.7h0.6v2h-0.6c-0.1-0.2-0.1-0.5-0.1-0.7h-1.4v2.4h1.8c0-0.3,0.1-0.6,0.1-0.9h0.6v1.6H196.5z"/>
	<path d="M204.9,432.6c0-0.3,0-0.7,0.1-1h0c-0.2,0.6-0.9,1.1-1.7,1.1s-1.4-0.5-1.4-1.3c0-1.1,1.1-1.7,3-1.7v-0.4
		c0-0.7-0.2-1.1-1-1.1c-0.3,0-0.6,0-0.9,0.1c0,0.2-0.1,0.5-0.1,0.8h-0.6v-1.4c0.5-0.2,1.1-0.3,1.7-0.3c1.5,0,1.9,0.7,1.9,1.7v2.7
		c0.2,0,0.6,0.1,0.8,0.1v0.5C206.2,432.5,205.5,432.6,204.9,432.6z M204.9,430.3c-1.6,0-2.1,0.4-2.1,0.9c0,0.4,0.3,0.7,0.8,0.7
		c0.8,0,1.3-0.8,1.3-1.6V430.3z"/>
	<path d="M208.6,432.6c-0.4,0-0.8,0-1.2-0.1v-1.4h0.5c0.1,0.2,0.1,0.5,0.1,0.8c0.2,0,0.4,0,0.6,0c0.7,0,1.1-0.3,1.1-0.8
		c0-1.1-2.5-0.4-2.5-2.2c0-0.8,0.7-1.5,2-1.5c0.3,0,0.8,0,1.1,0.1v1.4h-0.5c-0.1-0.2-0.1-0.5-0.1-0.8c-0.2,0-0.4-0.1-0.6-0.1
		c-0.7,0-1,0.3-1,0.7c0,1.1,2.5,0.5,2.5,2.1C210.7,431.9,209.9,432.6,208.6,432.6z"/>
	<path d="M213.5,432.6c-1,0-1.3-0.4-1.3-1.5v-2.9h-1v-0.7h1V426l0.9-0.2v1.9h1.4v0.7h-1.4v2.5c0,0.8,0.2,1,0.7,1
		c0.2,0,0.4,0,0.6-0.1l0.1,0.7C214.2,432.6,213.8,432.6,213.5,432.6z"/>
</g>
<g enable-background="new    ">
	<path d="M227.9,444.8v-0.5c0.3-0.1,0.7-0.1,1.1-0.1v-3.7l-1.1,0.5l-0.1-0.8l1.5-0.6h0.7v4.5c0.3,0,0.6,0.1,0.9,0.1v0.5H227.9z"/>
	<path d="M235.4,444.9c-0.5,0-1-0.1-1.4-0.2v-1.6h0.7c0.1,0.3,0.1,0.6,0.1,0.9c0.2,0,0.5,0.1,0.7,0.1c0.8,0,1.4-0.3,1.4-1.2
		c0-1.5-3.1-0.9-3.1-3.1c0-1.1,0.9-1.9,2.4-1.9c0.5,0,0.9,0,1.3,0.1v1.5h-0.7c-0.1-0.3-0.1-0.6-0.1-0.9c-0.1,0-0.4-0.1-0.6-0.1
		c-0.9,0-1.4,0.4-1.4,1.1c0,1.5,3.1,0.9,3.1,3C237.9,444,236.9,444.9,235.4,444.9z"/>
	<path d="M240.7,444.9c-1,0-1.3-0.4-1.3-1.5v-2.9h-1v-0.7h1v-1.6l0.9-0.2v1.9h1.4v0.7h-1.4v2.5c0,0.8,0.2,1,0.7,1
		c0.2,0,0.4,0,0.6-0.1l0.1,0.7C241.4,444.8,241.1,444.9,240.7,444.9z"/>
	<path d="M246.6,442.3h-3.2c0,1.3,0.5,1.9,1.6,1.9c0.5,0,1-0.1,1.4-0.3l0.1,0.7c-0.5,0.2-1.1,0.3-1.7,0.3c-1.5,0-2.3-0.8-2.3-2.5
		c0-1.5,0.8-2.6,2.2-2.6c1.4,0,2,0.9,2,2C246.7,441.9,246.7,442.1,246.6,442.3z M244.6,440.4c-0.6,0-1.1,0.5-1.2,1.2h2.3
		C245.8,440.9,245.3,440.4,244.6,440.4z"/>
	<path d="M249.9,444.9c-0.3,0-0.5,0-0.8-0.1v1.8c0.3,0,0.6,0.1,0.9,0.1v0.5h-2.6v-0.5c0.3-0.1,0.5-0.1,0.8-0.1v-6
		c-0.2,0-0.5-0.1-0.8-0.1v-0.5c0.5-0.1,1.2-0.1,1.7-0.1c0,0.3,0,0.7-0.1,1l0,0c0.3-0.7,0.9-1.1,1.7-1.1c1.2,0,1.8,0.8,1.8,2.3
		C252.5,443.9,251.5,444.9,249.9,444.9z M250.4,440.5c-0.9,0-1.4,1-1.4,1.9v1.6c0.3,0.1,0.5,0.1,0.9,0.1c0.9,0,1.6-0.6,1.6-2
		C251.5,441.1,251.2,440.5,250.4,440.5z"/>
</g>
<g enable-background="new    ">
	<path d="M230,456.9c-0.5,0-1-0.1-1.4-0.2v-1.6h0.7c0.1,0.3,0.1,0.6,0.1,0.9c0.2,0,0.5,0.1,0.7,0.1c0.8,0,1.4-0.3,1.4-1.2
		c0-1.5-3.1-0.9-3.1-3.1c0-1.1,0.9-1.9,2.4-1.9c0.5,0,0.9,0,1.3,0.1v1.5h-0.7c-0.1-0.3-0.1-0.6-0.1-0.9c-0.1,0-0.4-0.1-0.6-0.1
		c-0.9,0-1.4,0.4-1.4,1.1c0,1.5,3.1,0.9,3.1,3C232.5,456,231.5,456.9,230,456.9z"/>
	<path d="M235.6,456.9c-1.4,0-2.2-0.8-2.2-2.5c0-1.5,0.9-2.6,2.4-2.6c1.3,0,2.2,0.7,2.2,2.5C238,455.7,237.1,456.9,235.6,456.9z
		 M235.7,452.5c-0.7,0-1.4,0.5-1.4,1.8c0,1.1,0.5,1.8,1.4,1.8c0.7,0,1.4-0.6,1.4-1.8C237.1,453.1,236.6,452.5,235.7,452.5z"/>
	<path d="M242.6,456.8c0-0.3,0-0.7,0.1-1h0c-0.3,0.7-0.9,1.1-1.7,1.1c-1.1,0-1.5-0.7-1.5-1.6v-2.8c-0.2,0-0.6-0.1-0.8-0.1v-0.5
		c0.5-0.1,1.1-0.1,1.7-0.1v3.2c0,0.7,0.2,1.1,0.8,1.1c0.8,0,1.4-0.8,1.4-1.9v-1.7c-0.2,0-0.5-0.1-0.8-0.1v-0.5
		c0.5-0.1,1.1-0.1,1.7-0.1v4.3c0.2,0,0.6,0.1,0.8,0.1v0.5C243.9,456.8,243.2,456.8,242.6,456.8z"/>
	<path d="M246.8,456.9c-1,0-1.3-0.4-1.3-1.5v-2.9h-1v-0.7h1v-1.6l0.9-0.2v1.9h1.4v0.7h-1.4v2.5c0,0.8,0.2,1,0.7,1
		c0.2,0,0.4,0,0.6-0.1l0.1,0.7C247.5,456.8,247.1,456.9,246.8,456.9z"/>
	<path d="M252.3,456.8v-3.2c0-0.7-0.2-1.1-0.8-1.1c-0.8,0-1.4,0.8-1.4,1.9v1.7c0.3,0,0.6,0.1,0.8,0.1v0.5h-2.5v-0.5
		c0.2-0.1,0.5-0.1,0.8-0.1v-5.9c-0.2,0-0.6-0.1-0.9-0.1v-0.5c0.5-0.1,1.2-0.1,1.8-0.1v2.4c0,0.3,0,0.7-0.1,1l0,0
		c0.3-0.7,0.9-1.1,1.7-1.1c1.1,0,1.5,0.7,1.5,1.6v2.8c0.3,0,0.6,0.1,0.8,0.1v0.5H252.3z"/>
</g>
<line fill="none" stroke="#999999" x1="194.8" y1="443.6" x2="213.3" y2="453.8"/>
<polyline fill="none" stroke="#999999" points="212.2,450.3 213.4,453.9 209.9,455.1 "/>
<circle cx="189.1" cy="438.7" r="4.1"/>
<circle cx="498.8" cy="671.2" r="4.1"/>
<circle fill="#999999" cx="245.1" cy="185.1" r="4.1"/>
<circle fill="#999999" cx="220.9" cy="456.9" r="4.1"/>
<circle fill="#999999" cx="230.4" cy="622.8" r="4.1"/>
<g enable-background="new    ">
	<path fill="#999999" d="M109.2,137c-2.2-2-3.2-4-3.2-6.5c0-2.6,1.3-4.8,3.2-6.5l0.7,0.7c-1.7,1.7-2.7,3.7-2.7,5.8
		c0,2.2,0.9,4.1,2.7,5.9L109.2,137z"/>
	<path fill="#999999" d="M114.5,135.3c-0.5,0-1.1-0.1-1.6-0.2l0.2-1c0.4,0.2,1,0.3,1.6,0.3c1.4,0,2.2-0.8,2.2-1.7
		c0-1-0.8-1.6-2.1-1.6c-0.4,0-0.8,0-1.1,0v-1h0.3c1.8,0,2.7-0.5,2.7-1.6c0-0.8-0.6-1.3-1.6-1.3c-0.7,0-1.3,0.2-1.8,0.5l-0.2-1
		c0.7-0.3,1.4-0.4,2.2-0.4c1.7,0,2.6,0.8,2.6,2.1c0,1-0.6,1.7-1.6,2l0,0c1.1,0.1,1.8,1,1.8,2.1C118.1,134.1,116.6,135.3,114.5,135.3
		z"/>
	<path fill="#999999" d="M121.1,135.8c1.3-0.4,1.7-1,1.7-1.4c0-0.8-0.7-0.8-0.7-1.5c0-0.5,0.4-0.9,0.9-0.9c0.8,0,1.2,0.8,1.2,1.6
		c0,1.6-1.1,2.5-3,3L121.1,135.8z"/>
	<path fill="#999999" d="M129.8,135.3c-0.4,0-1,0-1.4-0.1l0.1-1c0.4,0.1,1,0.2,1.5,0.2c1.6,0,2.4-0.9,2.4-1.9c0-1.1-0.9-1.7-2.3-1.7
		c-0.5,0-1,0-1.3,0.1v-4.4h4.5v1.1l-3.4,0v2.3c0.2,0,0.5,0,0.6,0c2.1,0,3.2,1.1,3.2,2.5C133.6,134,132,135.3,129.8,135.3z"/>
	<path fill="#999999" d="M137.3,124c2.2,2,3.2,4,3.2,6.5c0,2.6-1.3,4.8-3.2,6.5l-0.7-0.7c1.7-1.7,2.7-3.7,2.7-5.8
		c0-2.2-0.9-4.1-2.7-5.9L137.3,124z"/>
</g>
<g enable-background="new    ">
	<path d="M165.4,130.9v-1h3v1H165.4z"/>
	<path d="M169.7,130.9v-1h3v1H169.7z"/>
	<path d="M175.4,133.9l-0.7-0.7l3.3-2.9l-3.3-2.8l0.7-0.8l4.1,3.6L175.4,133.9z"/>
	<path d="M194.8,126.3l-1.9,7.8h-1.5l-1.7-5.6c-0.1-0.5-0.3-1-0.3-1.5h0c-0.1,0.5-0.2,1-0.3,1.5l-1.6,5.6h-1.5l-1.9-7.8
		c-0.2,0-0.6-0.1-0.8-0.1v-0.7h3v0.7c-0.3,0.1-0.7,0.1-1,0.2l1.2,4.9c0.1,0.6,0.2,1.2,0.3,1.7h0c0.1-0.6,0.2-1.1,0.4-1.7l1.7-5.8
		h1.1l1.8,5.9c0.1,0.5,0.3,1,0.4,1.6h0c0.1-0.5,0.1-1,0.2-1.5l1.2-5.2c-0.3,0-0.7-0.1-1-0.2v-0.7h2.9v0.7
		C195.3,126.2,195,126.3,194.8,126.3z"/>
	<path d="M199.5,134.1c0-0.4,0-0.9,0.1-1.3h0c-0.3,0.8-1.1,1.4-2.2,1.4s-1.8-0.7-1.8-1.7c0-1.4,1.4-2.2,3.8-2.2v-0.5
		c0-0.9-0.3-1.4-1.3-1.4c-0.4,0-0.8,0.1-1.2,0.2c0,0.3-0.1,0.7-0.2,1H196V128c0.6-0.2,1.4-0.4,2.2-0.4c1.9,0,2.4,0.9,2.4,2.1v3.5
		c0.3,0.1,0.7,0.1,1.1,0.1v0.7C201.1,134.1,200.2,134.1,199.5,134.1z M199.4,131.2c-2,0-2.7,0.5-2.7,1.2c0,0.6,0.4,0.9,1,0.9
		c1,0,1.7-1,1.7-2V131.2z"/>
	<path d="M202.1,134.1v-0.7c0.3-0.1,0.7-0.1,1.1-0.2v-7.6c-0.3-0.1-0.7-0.1-1.1-0.1v-0.7c0.7-0.1,1.5-0.1,2.3-0.1v8.5
		c0.4,0,0.8,0.1,1.1,0.2v0.7H202.1z"/>
	<path d="M210.6,134.1l-2.5-3.3v2.5c0.3,0,0.7,0.1,1,0.2v0.7h-3.2v-0.7c0.3-0.1,0.7-0.1,1.1-0.2v-7.6c-0.3-0.1-0.7-0.1-1.1-0.1v-0.7
		c0.6-0.1,1.5-0.1,2.3-0.1v5.9l1.8-2.1c-0.3,0-0.6-0.1-0.8-0.2v-0.7h3.1v0.7c-0.3,0.1-0.6,0.1-0.9,0.2l-1.9,2.1l2,2.6
		c0.3,0,0.7,0.1,1,0.2v0.7H210.6z"/>
	<path d="M218.6,134.2c-1.3,0-1.7-0.5-1.7-1.9v-3.7h-1.3v-0.9h1.3v-2.1l1.2-0.3v2.4h1.8v0.9H218v3.3c0,1.1,0.2,1.3,0.9,1.3
		c0.3,0,0.6,0,0.8-0.1l0.1,1C219.5,134.2,219,134.2,218.6,134.2z"/>
	<path d="M225.6,134.1V130c0-0.9-0.2-1.4-1.1-1.4c-1.1,0-1.8,1.1-1.8,2.5v2.2c0.3,0,0.7,0.1,1,0.2v0.7h-3.3v-0.7
		c0.3-0.1,0.7-0.1,1.1-0.2v-7.6c-0.3-0.1-0.7-0.1-1.1-0.1v-0.7c0.6-0.1,1.5-0.1,2.3-0.1v3c0,0.4,0,0.9-0.1,1.3l0,0
		c0.4-0.9,1.2-1.4,2.2-1.4c1.5,0,1.9,0.9,1.9,2v3.6c0.4,0,0.7,0.1,1.1,0.2v0.7H225.6z"/>
	<path d="M232.8,128.8c-1.5-0.2-2.1,0.7-2.1,2.8v1.7c0.4,0,0.8,0.1,1.1,0.2v0.7h-3.4v-0.7c0.3-0.1,0.7-0.1,1.1-0.2v-4.6
		c-0.3-0.1-0.7-0.1-1.1-0.1v-0.7c0.6-0.1,1.5-0.1,2.2-0.1c0,0.4,0,1-0.1,1.5h0c0.3-0.9,0.9-1.8,2.3-1.6L232.8,128.8z"/>
	<path d="M239,130.9h-4.2c-0.1,1.7,0.6,2.4,2,2.4c0.6,0,1.3-0.1,1.8-0.4l0.2,0.9c-0.6,0.3-1.4,0.4-2.2,0.4c-1.9,0-3-1-3-3.3
		c0-1.9,1.1-3.3,2.9-3.3c1.8,0,2.5,1.2,2.5,2.6C239,130.4,239,130.6,239,130.9z M236.4,128.5c-0.8,0-1.4,0.6-1.6,1.6h3
		C237.9,129.1,237.3,128.5,236.4,128.5z"/>
	<path d="M245.5,130.9h-4.2c-0.1,1.7,0.6,2.4,2,2.4c0.6,0,1.3-0.1,1.8-0.4l0.2,0.9c-0.6,0.3-1.4,0.4-2.2,0.4c-1.9,0-3-1-3-3.3
		c0-1.9,1.1-3.3,2.9-3.3c1.8,0,2.5,1.2,2.5,2.6C245.5,130.4,245.5,130.6,245.5,130.9z M242.9,128.5c-0.8,0-1.4,0.6-1.6,1.6h3
		C244.4,129.1,243.8,128.5,242.9,128.5z"/>
	<path d="M251.2,134.2c-0.5,0-1.1-0.1-1.5-0.2v-1.8h0.7c0.1,0.3,0.1,0.7,0.2,1c0.2,0.1,0.5,0.1,0.8,0.1c0.9,0,1.5-0.4,1.5-1
		c0-1.4-3.2-0.6-3.2-2.8c0-1.1,0.9-1.9,2.6-1.9c0.4,0,1,0.1,1.5,0.2v1.7h-0.7c-0.1-0.3-0.1-0.7-0.2-1c-0.2-0.1-0.5-0.1-0.7-0.1
		c-0.9,0-1.3,0.4-1.3,0.9c0,1.4,3.2,0.6,3.2,2.8C253.9,133.3,252.9,134.2,251.2,134.2z"/>
	<path d="M257.6,134.2c-1.3,0-1.7-0.5-1.7-1.9v-3.7h-1.3v-0.9h1.3v-2.1l1.2-0.3v2.4h1.8v0.9H257v3.3c0,1.1,0.2,1.3,0.9,1.3
		c0.3,0,0.6,0,0.8-0.1l0.1,1C258.5,134.2,258,134.2,257.6,134.2z"/>
	<path d="M265.2,130.9H261c-0.1,1.7,0.6,2.4,2,2.4c0.6,0,1.3-0.1,1.8-0.4l0.2,0.9c-0.6,0.3-1.4,0.4-2.2,0.4c-1.9,0-3-1-3-3.3
		c0-1.9,1.1-3.3,2.9-3.3c1.8,0,2.5,1.2,2.5,2.6C265.2,130.4,265.2,130.6,265.2,130.9z M262.6,128.5c-0.8,0-1.4,0.6-1.6,1.6h3
		C264,129.1,263.5,128.5,262.6,128.5z"/>
	<path d="M269.4,134.2c-0.4,0-0.7,0-1.1-0.1v2.3c0.4,0,0.8,0.1,1.1,0.2v0.7H266v-0.7c0.3-0.1,0.7-0.1,1.1-0.2v-7.8
		c-0.3-0.1-0.7-0.1-1.1-0.1v-0.7c0.6-0.1,1.5-0.1,2.2-0.1c0,0.4,0,0.9-0.1,1.3l0,0c0.4-0.9,1.1-1.4,2.1-1.4c1.5,0,2.3,1.1,2.3,3
		C272.6,132.9,271.4,134.2,269.4,134.2z M270,128.6c-1.2,0-1.7,1.3-1.7,2.5v2.1c0.3,0.1,0.7,0.2,1.1,0.2c1.2,0,2-0.7,2-2.6
		C271.4,129.3,271,128.6,270,128.6z"/>
	<path d="M275.4,134.2c-0.5,0-1.1-0.1-1.5-0.2v-1.8h0.7c0.1,0.3,0.1,0.7,0.2,1c0.2,0.1,0.5,0.1,0.8,0.1c0.9,0,1.5-0.4,1.5-1
		c0-1.4-3.2-0.6-3.2-2.8c0-1.1,0.9-1.9,2.6-1.9c0.4,0,1,0.1,1.5,0.2v1.7h-0.7c-0.1-0.3-0.1-0.7-0.2-1c-0.2-0.1-0.5-0.1-0.7-0.1
		c-0.9,0-1.3,0.4-1.3,0.9c0,1.4,3.2,0.6,3.2,2.8C278.2,133.3,277.1,134.2,275.4,134.2z"/>
	<path d="M281.9,134.1v-0.7c0.3-0.1,0.7-0.1,1.1-0.2v-6.9c-0.4,0-0.8-0.1-1.1-0.2v-0.7h5.6v2h-0.8c-0.1-0.4-0.1-0.8-0.2-1.1h-2.3
		v2.8h1.8c0.1-0.3,0.1-0.6,0.2-0.9h0.7v2.6h-0.7c-0.1-0.3-0.1-0.6-0.2-0.9h-1.8v3.1h2.3c0-0.3,0.1-0.7,0.2-1.1h0.8v2.1H281.9z"/>
	<path d="M292.8,134.1c0-0.4,0-0.9,0.1-1.3h0c-0.3,0.8-1.1,1.4-2.2,1.4s-1.8-0.7-1.8-1.7c0-1.4,1.4-2.2,3.8-2.2v-0.5
		c0-0.9-0.3-1.4-1.3-1.4c-0.4,0-0.8,0.1-1.2,0.2c0,0.3-0.1,0.7-0.2,1h-0.7V128c0.6-0.2,1.4-0.4,2.2-0.4c1.9,0,2.4,0.9,2.4,2.1v3.5
		c0.3,0.1,0.7,0.1,1.1,0.1v0.7C294.4,134.1,293.5,134.1,292.8,134.1z M292.8,131.2c-2,0-2.7,0.5-2.7,1.2c0,0.6,0.4,0.9,1,0.9
		c1,0,1.7-1,1.7-2V131.2z"/>
	<path d="M297.5,134.2c-0.5,0-1.1-0.1-1.5-0.2v-1.8h0.7c0.1,0.3,0.1,0.7,0.2,1c0.2,0.1,0.5,0.1,0.8,0.1c0.9,0,1.5-0.4,1.5-1
		c0-1.4-3.2-0.6-3.2-2.8c0-1.1,0.9-1.9,2.6-1.9c0.4,0,1,0.1,1.5,0.2v1.7h-0.7c-0.1-0.3-0.1-0.7-0.2-1c-0.2-0.1-0.5-0.1-0.7-0.1
		c-0.9,0-1.3,0.4-1.3,0.9c0,1.4,3.2,0.6,3.2,2.8C300.2,133.3,299.2,134.2,297.5,134.2z"/>
	<path d="M303.9,134.2c-1.3,0-1.7-0.5-1.7-1.9v-3.7h-1.3v-0.9h1.3v-2.1l1.2-0.3v2.4h1.8v0.9h-1.8v3.3c0,1.1,0.2,1.3,0.9,1.3
		c0.3,0,0.6,0,0.8-0.1l0.1,1C304.8,134.2,304.3,134.2,303.9,134.2z"/>
	<path d="M306.4,136.1l-0.5-0.4c0.8-0.9,0.8-1.5,0.6-1.8c-0.4-0.4-0.1-1.1,0.6-1.1C308,132.7,308.4,134.3,306.4,136.1z"/>
</g>
<text transform="matrix(1 0 0 1 103.9922 151.2104)" font-family="'ArialMT'" font-size="12.8259" letter-spacing="21">   </text>
<g enable-background="new    ">
	<path d="M186.8,151.3c-1.3,0-1.7-0.5-1.7-1.9v-3.7h-1.3v-0.9h1.3v-2.1l1.2-0.3v2.4h1.8v0.9h-1.8v3.3c0,1.1,0.2,1.3,0.9,1.3
		c0.3,0,0.6,0,0.8-0.1l0.1,1C187.7,151.3,187.2,151.3,186.8,151.3z"/>
	<path d="M193.9,151.2c0-0.4,0-0.9,0.1-1.3h0c-0.4,0.9-1.2,1.5-2.2,1.5c-1.5,0-1.9-0.9-1.9-2v-3.5c-0.3-0.1-0.7-0.1-1.1-0.1v-0.7
		c0.6-0.1,1.5-0.1,2.2-0.1v4.1c0,0.9,0.3,1.4,1.1,1.4c1.1,0,1.8-1.1,1.8-2.5v-2.2c-0.3,0-0.7-0.1-1-0.1v-0.7
		c0.6-0.1,1.5-0.1,2.2-0.1v5.5c0.3,0.1,0.7,0.1,1.1,0.1v0.7C195.5,151.2,194.6,151.2,193.9,151.2z"/>
	<path d="M201.1,145.9c-1.5-0.2-2.1,0.7-2.1,2.8v1.7c0.4,0,0.8,0.1,1.1,0.2v0.7h-3.4v-0.7c0.3-0.1,0.7-0.1,1.1-0.2v-4.6
		c-0.3-0.1-0.7-0.1-1.1-0.1v-0.7c0.6-0.1,1.5-0.1,2.2-0.1c0,0.4,0,1-0.1,1.5h0c0.3-0.9,0.9-1.8,2.3-1.6L201.1,145.9z"/>
	<path d="M206.9,151.2v-4.1c0-0.9-0.2-1.4-1.1-1.4c-1.1,0-1.8,1.1-1.8,2.5v2.2c0.3,0,0.7,0.1,1,0.2v0.7h-3.3v-0.7
		c0.3-0.1,0.7-0.1,1.1-0.2v-4.6c-0.3-0.1-0.7-0.1-1.1-0.1v-0.7c0.6-0.1,1.5-0.1,2.2-0.1c0,0.4,0,1-0.1,1.3h0
		c0.4-0.9,1.2-1.5,2.3-1.5c1.5,0,1.9,0.9,1.9,2v3.6c0.4,0,0.8,0.1,1.1,0.2v0.7H206.9z"/>
	<path d="M216.6,151.2c0-0.4,0-0.9,0.1-1.3h0c-0.3,0.8-1.1,1.4-2.2,1.4s-1.8-0.7-1.8-1.7c0-1.4,1.4-2.2,3.8-2.2V147
		c0-0.9-0.3-1.4-1.3-1.4c-0.4,0-0.8,0.1-1.2,0.2c0,0.3-0.1,0.7-0.2,1h-0.7v-1.7c0.6-0.2,1.4-0.4,2.2-0.4c1.9,0,2.4,0.9,2.4,2.1v3.5
		c0.3,0.1,0.7,0.1,1.1,0.1v0.7C218.2,151.2,217.3,151.2,216.6,151.2z M216.5,148.3c-2,0-2.7,0.5-2.7,1.2c0,0.6,0.4,0.9,1,0.9
		c1,0,1.7-1,1.7-2V148.3z"/>
	<path d="M224.5,151.2v-4.1c0-0.9-0.2-1.4-1.1-1.4c-1.1,0-1.8,1.1-1.8,2.5v2.2c0.3,0,0.7,0.1,1,0.2v0.7h-3.3v-0.7
		c0.3-0.1,0.7-0.1,1.1-0.2v-4.6c-0.3-0.1-0.7-0.1-1.1-0.1v-0.7c0.6-0.1,1.5-0.1,2.2-0.1c0,0.4,0,1-0.1,1.3h0
		c0.4-0.9,1.2-1.5,2.3-1.5c1.5,0,1.9,0.9,1.9,2v3.6c0.4,0,0.8,0.1,1.1,0.2v0.7H224.5z"/>
	<path d="M231.9,151.2c0-0.4,0-0.9,0.1-1.3l0,0c-0.4,0.9-1.1,1.4-2.1,1.4c-1.6,0-2.3-1.1-2.3-3c0-2.2,1.3-3.6,3.3-3.6
		c0.3,0,0.7,0,1.1,0.1v-2.1c-0.3-0.1-0.7-0.1-1.1-0.1v-0.7c0.6-0.1,1.5-0.1,2.3-0.1v8.5c0.3,0.1,0.7,0.1,1.1,0.1v0.7
		C233.5,151.2,232.6,151.2,231.9,151.2z M231.9,145.8c-0.4-0.1-0.8-0.1-1.1-0.1c-1.2,0-2,0.7-2,2.6c0,1.4,0.4,2.2,1.4,2.2
		c1.2,0,1.7-1.3,1.7-2.5V145.8z"/>
	<path d="M247.2,145.7l-1.7,5.5h-1.3l-1.3-3.8c-0.1-0.4-0.3-0.8-0.4-1.3h0c-0.1,0.6-0.3,1.1-0.5,1.6l-1.1,3.4h-1.3l-1.6-5.5
		c-0.3,0-0.6-0.1-0.8-0.2v-0.7h2.9v0.7c-0.3,0.1-0.6,0.1-0.9,0.2l0.8,2.8c0.1,0.5,0.3,1,0.4,1.4h0c0.1-0.5,0.3-1.1,0.4-1.6l1.1-3.6
		h1.2l1.2,3.6c0.2,0.8,0.3,1.1,0.4,1.6h0c0.1-0.4,0.2-0.8,0.4-1.4l0.8-2.9c-0.3,0-0.6-0.1-0.9-0.2v-0.7h2.9v0.7
		C247.8,145.6,247.5,145.7,247.2,145.7z"/>
	<path d="M252.2,151.2c0-0.4,0-0.9,0.1-1.3h0c-0.3,0.8-1.1,1.4-2.2,1.4s-1.8-0.7-1.8-1.7c0-1.4,1.4-2.2,3.8-2.2V147
		c0-0.9-0.3-1.4-1.3-1.4c-0.4,0-0.8,0.1-1.2,0.2c0,0.3-0.1,0.7-0.2,1h-0.7v-1.7c0.6-0.2,1.4-0.4,2.2-0.4c1.9,0,2.4,0.9,2.4,2.1v3.5
		c0.3,0.1,0.7,0.1,1.1,0.1v0.7C253.8,151.2,252.9,151.2,252.2,151.2z M252.2,148.3c-2,0-2.7,0.5-2.7,1.2c0,0.6,0.4,0.9,1,0.9
		c1,0,1.7-1,1.7-2V148.3z"/>
	<path d="M254.9,151.2v-0.7c0.3-0.1,0.7-0.1,1.1-0.2v-7.6c-0.3-0.1-0.7-0.1-1.1-0.1v-0.7c0.7-0.1,1.5-0.1,2.3-0.1v8.5
		c0.4,0,0.8,0.1,1.1,0.2v0.7H254.9z"/>
	<path d="M263.3,151.2l-2.5-3.3v2.5c0.3,0,0.7,0.1,1,0.2v0.7h-3.2v-0.7c0.3-0.1,0.7-0.1,1.1-0.2v-7.6c-0.3-0.1-0.7-0.1-1.1-0.1v-0.7
		c0.6-0.1,1.5-0.1,2.3-0.1v5.9l1.8-2.1c-0.3,0-0.6-0.1-0.8-0.2v-0.7h3.1v0.7c-0.3,0.1-0.6,0.1-0.9,0.2l-1.9,2.1l2,2.6
		c0.3,0,0.7,0.1,1,0.2v0.7H263.3z"/>
	<path d="M272.9,151.2v-0.7c0.3-0.1,0.7-0.1,1-0.2v-4.6h-3v4.6c0.3,0,0.7,0.1,1,0.2v0.7h-3.3v-0.7c0.3-0.1,0.7-0.1,1.1-0.2v-4.6
		h-1.4v-0.9h1.4v-0.3c0-1.9,1.2-2.8,3.1-2.8c0.6,0,1.3,0.1,1.9,0.2l-0.2,1c-0.5-0.2-1.2-0.3-1.7-0.3c-1.4,0-1.9,0.6-1.9,1.7v0.4h4.1
		v5.5c0.4,0,0.8,0.1,1.1,0.2v0.7H272.9z"/>
	<path d="M282.7,145.7l-2,5.5h-1.4l-2-5.5c-0.3,0-0.6-0.1-0.8-0.2v-0.7h3v0.7c-0.3,0.1-0.6,0.1-0.9,0.2l1.1,3.1
		c0.1,0.4,0.3,0.8,0.4,1.3h0c0.1-0.4,0.2-0.8,0.4-1.2l1.1-3.1c-0.3,0-0.6-0.1-0.9-0.2v-0.7h2.9v0.7
		C283.2,145.6,283,145.7,282.7,145.7z"/>
	<path d="M289.2,148H285c-0.1,1.7,0.6,2.4,2,2.4c0.6,0,1.3-0.1,1.8-0.4l0.2,0.9c-0.6,0.3-1.4,0.4-2.2,0.4c-1.9,0-3-1-3-3.3
		c0-1.9,1.1-3.3,2.9-3.3c1.8,0,2.5,1.2,2.5,2.6C289.2,147.5,289.2,147.7,289.2,148z M286.6,145.6c-0.8,0-1.4,0.6-1.6,1.6h3
		C288.1,146.2,287.5,145.6,286.6,145.6z"/>
	<path d="M294.9,151.3c-0.5,0-1.1-0.1-1.5-0.2v-1.8h0.7c0.1,0.3,0.1,0.7,0.2,1c0.2,0.1,0.5,0.1,0.8,0.1c0.9,0,1.5-0.4,1.5-1
		c0-1.4-3.2-0.6-3.2-2.8c0-1.1,0.9-1.9,2.6-1.9c0.4,0,1,0.1,1.5,0.2v1.7h-0.7c-0.1-0.3-0.1-0.7-0.2-1c-0.2-0.1-0.5-0.1-0.7-0.1
		c-0.9,0-1.3,0.4-1.3,0.9c0,1.4,3.2,0.6,3.2,2.8C297.6,150.4,296.5,151.3,294.9,151.3z"/>
	<path d="M301.3,151.3c-1.3,0-1.7-0.5-1.7-1.9v-3.7h-1.3v-0.9h1.3v-2.1l1.2-0.3v2.4h1.8v0.9h-1.8v3.3c0,1.1,0.2,1.3,0.9,1.3
		c0.3,0,0.6,0,0.8-0.1l0.1,1C302.2,151.3,301.7,151.3,301.3,151.3z"/>
	<path d="M308.8,148h-4.2c-0.1,1.7,0.6,2.4,2,2.4c0.6,0,1.3-0.1,1.8-0.4l0.2,0.9c-0.6,0.3-1.4,0.4-2.2,0.4c-1.9,0-3-1-3-3.3
		c0-1.9,1.1-3.3,2.9-3.3c1.8,0,2.5,1.2,2.5,2.6C308.9,147.5,308.9,147.7,308.8,148z M306.3,145.6c-0.8,0-1.4,0.6-1.6,1.6h3
		C307.7,146.2,307.2,145.6,306.3,145.6z"/>
	<path d="M313,151.3c-0.4,0-0.7,0-1.1-0.1v2.3c0.4,0,0.8,0.1,1.1,0.2v0.7h-3.3v-0.7c0.3-0.1,0.7-0.1,1.1-0.2v-7.8
		c-0.3-0.1-0.7-0.1-1.1-0.1v-0.7c0.6-0.1,1.5-0.1,2.2-0.1c0,0.4,0,0.9-0.1,1.3l0,0c0.4-0.9,1.1-1.4,2.1-1.4c1.5,0,2.3,1.1,2.3,3
		C316.3,150,315.1,151.3,313,151.3z M313.7,145.7c-1.2,0-1.7,1.3-1.7,2.5v2.1c0.3,0.1,0.7,0.2,1.1,0.2c1.2,0,2-0.7,2-2.6
		C315.1,146.4,314.7,145.7,313.7,145.7z"/>
	<path d="M319.1,151.3c-0.5,0-1.1-0.1-1.5-0.2v-1.8h0.7c0.1,0.3,0.1,0.7,0.2,1c0.2,0.1,0.5,0.1,0.8,0.1c0.9,0,1.5-0.4,1.5-1
		c0-1.4-3.2-0.6-3.2-2.8c0-1.1,0.9-1.9,2.6-1.9c0.4,0,1,0.1,1.5,0.2v1.7h-0.7c-0.1-0.3-0.1-0.7-0.2-1c-0.2-0.1-0.5-0.1-0.7-0.1
		c-0.9,0-1.3,0.4-1.3,0.9c0,1.4,3.2,0.6,3.2,2.8C321.8,150.4,320.8,151.3,319.1,151.3z"/>
	<path d="M333.7,143.4v7.8h-1.6l-3.3-5.4c-0.4-0.6-0.7-1.3-1-1.9c0.1,1.5,0.1,3.7,0.1,6.5c0.3,0,0.7,0.1,1,0.2v0.7h-3.3v-0.7
		c0.3-0.1,0.7-0.2,1.1-0.2v-6.9c-0.4,0-0.8-0.1-1.1-0.2v-0.7h2.7l3.3,5.4c0.4,0.6,0.7,1.3,1,1.9c-0.1-1.5-0.1-3.7-0.1-6.4
		c-0.3,0-0.7-0.1-1-0.2v-0.7h3v0.7C334.3,143.3,334,143.4,333.7,143.4z"/>
	<path d="M338.3,151.3c-1.7,0-2.9-1-2.9-3.2c0-1.9,1.2-3.4,3.1-3.4c1.6,0,2.9,0.9,2.9,3.2C341.4,149.8,340.3,151.3,338.3,151.3z
		 M338.5,145.7c-0.9,0-1.8,0.7-1.8,2.3c0,1.5,0.6,2.3,1.8,2.3c1,0,1.8-0.7,1.8-2.3C340.2,146.5,339.6,145.7,338.5,145.7z"/>
	<path d="M346.7,145.9c-1.5-0.2-2.1,0.7-2.1,2.8v1.7c0.4,0,0.8,0.1,1.1,0.2v0.7h-3.4v-0.7c0.3-0.1,0.7-0.1,1.1-0.2v-4.6
		c-0.3-0.1-0.7-0.1-1.1-0.1v-0.7c0.6-0.1,1.5-0.1,2.2-0.1c0,0.4,0,1-0.1,1.5h0c0.3-0.9,0.9-1.8,2.3-1.6L346.7,145.9z"/>
	<path d="M350.1,151.3c-1.3,0-1.7-0.5-1.7-1.9v-3.7h-1.3v-0.9h1.3v-2.1l1.2-0.3v2.4h1.8v0.9h-1.8v3.3c0,1.1,0.2,1.3,0.9,1.3
		c0.3,0,0.6,0,0.8-0.1l0.1,1C351,151.3,350.5,151.3,350.1,151.3z"/>
	<path d="M357.2,151.2v-4.1c0-0.9-0.2-1.4-1.1-1.4c-1.1,0-1.8,1.1-1.8,2.5v2.2c0.3,0,0.7,0.1,1,0.2v0.7h-3.3v-0.7
		c0.3-0.1,0.7-0.1,1.1-0.2v-7.6c-0.3-0.1-0.7-0.1-1.1-0.1v-0.7c0.6-0.1,1.5-0.1,2.3-0.1v3c0,0.4,0,0.9-0.1,1.3l0,0
		c0.4-0.9,1.2-1.4,2.2-1.4c1.5,0,1.9,0.9,1.9,2v3.6c0.4,0,0.7,0.1,1.1,0.2v0.7H357.2z"/>
	<path d="M361.1,151.3c-0.4,0-0.8-0.4-0.8-0.8c0-0.4,0.4-0.8,0.8-0.8c0.4,0,0.8,0.4,0.8,0.8C361.9,151,361.5,151.3,361.1,151.3z"/>
</g>
<g enable-background="new    ">
	<path fill="#999999" d="M110.7,365c-2.2-2-3.2-4-3.2-6.5c0-2.6,1.3-4.8,3.2-6.5l0.7,0.7c-1.7,1.7-2.7,3.7-2.7,5.8
		c0,2.2,0.9,4.1,2.7,5.9L110.7,365z"/>
	<path fill="#999999" d="M114.2,362.1v-0.9l1.8-1.7c1.6-1.4,2-1.9,2-2.8c0-0.8-0.5-1.4-1.6-1.4c-0.7,0-1.5,0.3-1.9,0.7l-0.3-1
		c0.7-0.4,1.4-0.7,2.3-0.7c1.7,0,2.6,1,2.6,2.3c0,1.1-0.6,1.9-2,3.1l-1.5,1.3l-0.1,0c0.6-0.1,2-0.1,3.9-0.1v1.1H114.2z"/>
	<path fill="#999999" d="M122.6,363.8c1.3-0.4,1.7-1,1.7-1.4c0-0.8-0.7-0.8-0.7-1.5c0-0.5,0.4-0.9,0.9-0.9c0.8,0,1.2,0.8,1.2,1.6
		c0,1.6-1.1,2.5-3,3L122.6,363.8z"/>
	<path fill="#999999" d="M130.3,358.8v-1.1h4v1.1H130.3z"/>
	<path fill="#999999" d="M137.5,362.1v-1h2.3v-5.4l-2.2,1.5l-0.4-1l2.8-1.7h1v6.7h2v1H137.5z"/>
	<path fill="#999999" d="M146.4,352c2.2,2,3.2,4,3.2,6.5c0,2.6-1.3,4.8-3.2,6.5l-0.7-0.7c1.7-1.7,2.7-3.7,2.7-5.8
		c0-2.2-0.9-4.1-2.7-5.9L146.4,352z"/>
</g>
<g enable-background="new    ">
	<path d="M166.2,358.9v-1h3v1H166.2z"/>
	<path d="M170.4,358.9v-1h3v1H170.4z"/>
	<path d="M176.1,361.9l-0.7-0.7l3.3-2.9l-3.3-2.8l0.7-0.8l4.1,3.6L176.1,361.9z"/>
	<path d="M195.5,354.3l-1.9,7.8h-1.5l-1.7-5.6c-0.1-0.5-0.3-1-0.3-1.5h0c-0.1,0.5-0.2,1-0.3,1.5l-1.6,5.6h-1.5l-1.9-7.8
		c-0.2,0-0.6-0.1-0.8-0.1v-0.7h3v0.7c-0.3,0.1-0.7,0.1-1,0.2l1.2,4.9c0.1,0.6,0.2,1.2,0.3,1.7h0c0.1-0.6,0.2-1.1,0.4-1.7l1.7-5.8
		h1.1l1.8,5.9c0.1,0.5,0.3,1,0.4,1.6h0c0.1-0.5,0.1-1,0.2-1.5l1.2-5.2c-0.3,0-0.7-0.1-1-0.2v-0.7h2.9v0.7
		C196.1,354.2,195.7,354.3,195.5,354.3z"/>
	<path d="M200.2,362.1c0-0.4,0-0.9,0.1-1.3h0c-0.3,0.8-1.1,1.4-2.2,1.4s-1.8-0.7-1.8-1.7c0-1.4,1.4-2.2,3.8-2.2v-0.5
		c0-0.9-0.3-1.4-1.3-1.4c-0.4,0-0.8,0.1-1.2,0.2c0,0.3-0.1,0.7-0.2,1h-0.7V356c0.6-0.2,1.4-0.4,2.2-0.4c1.9,0,2.4,0.9,2.4,2.1v3.5
		c0.3,0.1,0.7,0.1,1.1,0.1v0.7C201.8,362.1,200.9,362.2,200.2,362.1z M200.2,359.2c-2,0-2.7,0.5-2.7,1.2c0,0.6,0.4,0.9,1,0.9
		c1,0,1.7-1,1.7-2V359.2z"/>
	<path d="M202.9,362.1v-0.7c0.3-0.1,0.7-0.1,1.1-0.2v-7.6c-0.3-0.1-0.7-0.1-1.1-0.1v-0.7c0.7-0.1,1.5-0.1,2.3-0.1v8.5
		c0.4,0,0.8,0.1,1.1,0.2v0.7H202.9z"/>
	<path d="M211.3,362.1l-2.5-3.3v2.5c0.3,0,0.7,0.1,1,0.2v0.7h-3.2v-0.7c0.3-0.1,0.7-0.1,1.1-0.2v-7.6c-0.3-0.1-0.7-0.1-1.1-0.1v-0.7
		c0.6-0.1,1.5-0.1,2.3-0.1v5.9l1.8-2.1c-0.3,0-0.6-0.1-0.8-0.2v-0.7h3.1v0.7c-0.3,0.1-0.6,0.1-0.9,0.2l-1.9,2.1l2,2.6
		c0.3,0,0.7,0.1,1,0.2v0.7H211.3z"/>
	<path d="M219.3,362.2c-1.3,0-1.7-0.5-1.7-1.9v-3.7h-1.3v-0.9h1.3v-2.1l1.2-0.3v2.4h1.8v0.9h-1.8v3.3c0,1.1,0.2,1.3,0.9,1.3
		c0.3,0,0.6,0,0.8-0.1l0.1,1C220.2,362.2,219.7,362.2,219.3,362.2z"/>
	<path d="M231.1,356.6l-1.7,5.5H228l-1.3-3.8c-0.1-0.4-0.3-0.8-0.4-1.3h0c-0.1,0.6-0.3,1.1-0.5,1.6l-1.1,3.4h-1.3l-1.6-5.5
		c-0.3,0-0.6-0.1-0.8-0.2v-0.7h2.9v0.7c-0.3,0.1-0.6,0.1-0.9,0.2l0.8,2.8c0.1,0.5,0.3,1,0.4,1.4h0c0.1-0.5,0.3-1.1,0.4-1.6l1.1-3.6
		h1.2l1.2,3.6c0.2,0.8,0.3,1.1,0.4,1.6h0c0.1-0.4,0.2-0.8,0.4-1.4l0.8-2.9c-0.3,0-0.6-0.1-0.9-0.2v-0.7h2.9v0.7
		C231.7,356.5,231.4,356.6,231.1,356.6z"/>
	<path d="M235.4,362.2c-1.7,0-2.9-1-2.9-3.2c0-1.9,1.2-3.4,3.1-3.4c1.6,0,2.9,0.9,2.9,3.2C238.5,360.8,237.3,362.2,235.4,362.2z
		 M235.5,356.6c-0.9,0-1.8,0.7-1.8,2.3c0,1.5,0.6,2.3,1.8,2.3c0.9,0,1.8-0.7,1.8-2.3C237.3,357.4,236.7,356.6,235.5,356.6z"/>
	<path d="M244,362.2c-0.5,0-1.1-0.1-1.5-0.2v-1.8h0.7c0.1,0.3,0.1,0.7,0.2,1c0.2,0.1,0.5,0.1,0.8,0.1c0.9,0,1.5-0.4,1.5-1
		c0-1.4-3.2-0.6-3.2-2.8c0-1.1,0.9-1.9,2.6-1.9c0.4,0,1,0.1,1.5,0.2v1.7h-0.7c-0.1-0.3-0.1-0.7-0.2-1c-0.2-0.1-0.5-0.1-0.7-0.1
		c-0.9,0-1.3,0.4-1.3,0.9c0,1.4,3.2,0.6,3.2,2.8C246.8,361.3,245.7,362.2,244,362.2z"/>
	<path d="M250.4,362.2c-1.3,0-1.7-0.5-1.7-1.9v-3.7h-1.3v-0.9h1.3v-2.1l1.2-0.3v2.4h1.8v0.9h-1.8v3.3c0,1.1,0.2,1.3,0.9,1.3
		c0.3,0,0.6,0,0.8-0.1l0.1,1C251.3,362.2,250.8,362.2,250.4,362.2z"/>
	<path d="M258,358.9h-4.2c-0.1,1.7,0.6,2.4,2,2.4c0.6,0,1.3-0.1,1.8-0.4l0.2,0.9c-0.6,0.3-1.4,0.4-2.2,0.4c-1.9,0-3-1-3-3.3
		c0-1.9,1.1-3.3,2.9-3.3c1.8,0,2.5,1.2,2.5,2.6C258.1,358.4,258.1,358.7,258,358.9z M255.5,356.5c-0.8,0-1.4,0.6-1.6,1.6h3
		C256.9,357.1,256.4,356.5,255.5,356.5z"/>
	<path d="M262.2,362.2c-0.4,0-0.7,0-1.1-0.1v2.3c0.4,0,0.8,0.1,1.1,0.2v0.7h-3.3v-0.7c0.3-0.1,0.7-0.1,1.1-0.2v-7.8
		c-0.3-0.1-0.7-0.1-1.1-0.1v-0.7c0.6-0.1,1.5-0.1,2.2-0.1c0,0.4,0,0.9-0.1,1.3l0,0c0.4-0.9,1.1-1.4,2.1-1.4c1.5,0,2.3,1.1,2.3,3
		C265.5,360.9,264.3,362.2,262.2,362.2z M262.9,356.6c-1.2,0-1.7,1.3-1.7,2.5v2.1c0.3,0.1,0.7,0.2,1.1,0.2c1.2,0,2-0.7,2-2.6
		C264.3,357.4,263.9,356.6,262.9,356.6z"/>
	<path d="M268.3,362.2c-0.5,0-1.1-0.1-1.5-0.2v-1.8h0.7c0.1,0.3,0.1,0.7,0.2,1c0.2,0.1,0.5,0.1,0.8,0.1c0.9,0,1.5-0.4,1.5-1
		c0-1.4-3.2-0.6-3.2-2.8c0-1.1,0.9-1.9,2.6-1.9c0.4,0,1,0.1,1.5,0.2v1.7H270c-0.1-0.3-0.1-0.7-0.2-1c-0.2-0.1-0.5-0.1-0.7-0.1
		c-0.9,0-1.3,0.4-1.3,0.9c0,1.4,3.2,0.6,3.2,2.8C271,361.3,270,362.2,268.3,362.2z"/>
	<path d="M274.8,362.1v-0.7c0.3-0.1,0.7-0.1,1.1-0.2v-6.9c-0.4,0-0.8-0.1-1.1-0.2v-0.7h5.6v2h-0.8c-0.1-0.4-0.1-0.8-0.2-1.1h-2.3
		v2.8h1.8c0.1-0.3,0.1-0.6,0.2-0.9h0.7v2.6h-0.7c-0.1-0.3-0.1-0.6-0.2-0.9h-1.8v3.1h2.3c0-0.3,0.1-0.7,0.2-1.1h0.8v2.1H274.8z"/>
	<path d="M285.7,362.1c0-0.4,0-0.9,0.1-1.3h0c-0.3,0.8-1.1,1.4-2.2,1.4s-1.8-0.7-1.8-1.7c0-1.4,1.4-2.2,3.8-2.2v-0.5
		c0-0.9-0.3-1.4-1.3-1.4c-0.4,0-0.8,0.1-1.2,0.2c0,0.3-0.1,0.7-0.2,1h-0.7V356c0.6-0.2,1.4-0.4,2.2-0.4c1.9,0,2.4,0.9,2.4,2.1v3.5
		c0.3,0.1,0.7,0.1,1.1,0.1v0.7C287.3,362.1,286.4,362.2,285.7,362.1z M285.6,359.2c-2,0-2.7,0.5-2.7,1.2c0,0.6,0.4,0.9,1,0.9
		c1,0,1.7-1,1.7-2V359.2z"/>
	<path d="M290.4,362.2c-0.5,0-1.1-0.1-1.5-0.2v-1.8h0.7c0.1,0.3,0.1,0.7,0.2,1c0.2,0.1,0.5,0.1,0.8,0.1c0.9,0,1.5-0.4,1.5-1
		c0-1.4-3.2-0.6-3.2-2.8c0-1.1,0.9-1.9,2.6-1.9c0.4,0,1,0.1,1.5,0.2v1.7H292c-0.1-0.3-0.1-0.7-0.2-1c-0.2-0.1-0.5-0.1-0.7-0.1
		c-0.9,0-1.3,0.4-1.3,0.9c0,1.4,3.2,0.6,3.2,2.8C293.1,361.3,292,362.2,290.4,362.2z"/>
	<path d="M296.8,362.2c-1.3,0-1.7-0.5-1.7-1.9v-3.7h-1.3v-0.9h1.3v-2.1l1.2-0.3v2.4h1.8v0.9h-1.8v3.3c0,1.1,0.2,1.3,0.9,1.3
		c0.3,0,0.6,0,0.8-0.1l0.1,1C297.7,362.2,297.2,362.2,296.8,362.2z"/>
	<path d="M299.3,364.1l-0.5-0.4c0.8-0.9,0.8-1.5,0.6-1.8c-0.4-0.4-0.1-1.1,0.6-1.1C300.8,360.7,301.3,362.3,299.3,364.1z"/>
</g>
<text transform="matrix(1 0 0 1 105.417 379.2266)" font-family="'ArialMT'" font-size="12.8259" letter-spacing="21">   </text>
<g enable-background="new    ">
	<path d="M185.4,379.3c-1.3,0-1.7-0.5-1.7-1.9v-3.7h-1.3v-0.9h1.3v-2.1l1.2-0.3v2.4h1.8v0.9h-1.8v3.3c0,1.1,0.2,1.3,0.9,1.3
		c0.3,0,0.6,0,0.8-0.1l0.1,1C186.3,379.3,185.8,379.3,185.4,379.3z"/>
	<path d="M192.5,379.2c0-0.4,0-0.9,0.1-1.3h0c-0.4,0.9-1.2,1.5-2.2,1.5c-1.5,0-1.9-0.9-1.9-2v-3.5c-0.3-0.1-0.7-0.1-1.1-0.1v-0.7
		c0.6-0.1,1.5-0.1,2.2-0.1v4.1c0,0.9,0.3,1.4,1.1,1.4c1.1,0,1.8-1.1,1.8-2.5v-2.2c-0.3,0-0.7-0.1-1-0.1v-0.7
		c0.6-0.1,1.5-0.1,2.2-0.1v5.5c0.3,0.1,0.7,0.1,1.1,0.1v0.7C194.1,379.2,193.2,379.3,192.5,379.2z"/>
	<path d="M199.7,373.9c-1.5-0.2-2.1,0.7-2.1,2.8v1.7c0.4,0,0.8,0.1,1.1,0.2v0.7h-3.4v-0.7c0.3-0.1,0.7-0.1,1.1-0.2v-4.6
		c-0.3-0.1-0.7-0.1-1.1-0.1v-0.7c0.6-0.1,1.5-0.1,2.2-0.1c0,0.4,0,1-0.1,1.5h0c0.3-0.9,0.9-1.8,2.3-1.6L199.7,373.9z"/>
	<path d="M205.5,379.2v-4.1c0-0.9-0.2-1.4-1.1-1.4c-1.1,0-1.8,1.1-1.8,2.5v2.2c0.3,0,0.7,0.1,1,0.2v0.7h-3.3v-0.7
		c0.3-0.1,0.7-0.1,1.1-0.2v-4.6c-0.3-0.1-0.7-0.1-1.1-0.1v-0.7c0.6-0.1,1.5-0.1,2.2-0.1c0,0.4,0,1-0.1,1.3h0
		c0.4-0.9,1.2-1.5,2.3-1.5c1.5,0,1.9,0.9,1.9,2v3.6c0.4,0,0.8,0.1,1.1,0.2v0.7H205.5z"/>
	<path d="M215.2,379.2c0-0.4,0-0.9,0.1-1.3h0c-0.3,0.8-1.1,1.4-2.2,1.4s-1.8-0.7-1.8-1.7c0-1.4,1.4-2.2,3.8-2.2V375
		c0-0.9-0.3-1.4-1.3-1.4c-0.4,0-0.8,0.1-1.2,0.2c0,0.3-0.1,0.7-0.2,1h-0.7v-1.7c0.6-0.2,1.4-0.4,2.2-0.4c1.9,0,2.4,0.9,2.4,2.1v3.5
		c0.3,0.1,0.7,0.1,1.1,0.1v0.7C216.8,379.2,215.9,379.3,215.2,379.2z M215.1,376.3c-2,0-2.7,0.5-2.7,1.2c0,0.6,0.4,0.9,1,0.9
		c1,0,1.7-1,1.7-2V376.3z"/>
	<path d="M223.1,379.2v-4.1c0-0.9-0.2-1.4-1.1-1.4c-1.1,0-1.8,1.1-1.8,2.5v2.2c0.3,0,0.7,0.1,1,0.2v0.7H218v-0.7
		c0.3-0.1,0.7-0.1,1.1-0.2v-4.6c-0.3-0.1-0.7-0.1-1.1-0.1v-0.7c0.6-0.1,1.5-0.1,2.2-0.1c0,0.4,0,1-0.1,1.3h0
		c0.4-0.9,1.2-1.5,2.3-1.5c1.5,0,1.9,0.9,1.9,2v3.6c0.4,0,0.8,0.1,1.1,0.2v0.7H223.1z"/>
	<path d="M230.5,379.2c0-0.4,0-0.9,0.1-1.3l0,0c-0.4,0.9-1.1,1.4-2.1,1.4c-1.6,0-2.3-1.1-2.3-3c0-2.2,1.3-3.6,3.3-3.6
		c0.3,0,0.7,0,1.1,0.1v-2.1c-0.3-0.1-0.7-0.1-1.1-0.1v-0.7c0.6-0.1,1.5-0.1,2.3-0.1v8.5c0.3,0.1,0.7,0.1,1.1,0.1v0.7
		C232.1,379.2,231.2,379.3,230.5,379.2z M230.5,373.8c-0.4-0.1-0.8-0.1-1.1-0.1c-1.2,0-2,0.7-2,2.6c0,1.4,0.4,2.2,1.4,2.2
		c1.2,0,1.7-1.3,1.7-2.5V373.8z"/>
	<path d="M245.9,373.7l-1.7,5.5h-1.3l-1.3-3.8c-0.1-0.4-0.3-0.8-0.4-1.3h0c-0.1,0.6-0.3,1.1-0.5,1.6l-1.1,3.4h-1.3l-1.6-5.5
		c-0.3,0-0.6-0.1-0.8-0.2v-0.7h2.9v0.7c-0.3,0.1-0.6,0.1-0.9,0.2l0.8,2.8c0.1,0.5,0.3,1,0.4,1.4h0c0.1-0.5,0.3-1.1,0.4-1.6l1.1-3.6
		h1.2l1.2,3.6c0.2,0.8,0.3,1.1,0.4,1.6h0c0.1-0.4,0.2-0.8,0.4-1.4l0.8-2.9c-0.3,0-0.6-0.1-0.9-0.2v-0.7h2.9v0.7
		C246.4,373.6,246.1,373.7,245.9,373.7z"/>
	<path d="M250.9,379.2c0-0.4,0-0.9,0.1-1.3h0c-0.3,0.8-1.1,1.4-2.2,1.4s-1.8-0.7-1.8-1.7c0-1.4,1.4-2.2,3.8-2.2V375
		c0-0.9-0.3-1.4-1.3-1.4c-0.4,0-0.8,0.1-1.2,0.2c0,0.3-0.1,0.7-0.2,1h-0.7v-1.7c0.6-0.2,1.4-0.4,2.2-0.4c1.9,0,2.4,0.9,2.4,2.1v3.5
		c0.3,0.1,0.7,0.1,1.1,0.1v0.7C252.4,379.2,251.6,379.3,250.9,379.2z M250.8,376.3c-2,0-2.7,0.5-2.7,1.2c0,0.6,0.4,0.9,1,0.9
		c1,0,1.7-1,1.7-2V376.3z"/>
	<path d="M253.5,379.2v-0.7c0.3-0.1,0.7-0.1,1.1-0.2v-7.6c-0.3-0.1-0.7-0.1-1.1-0.1v-0.7c0.7-0.1,1.5-0.1,2.3-0.1v8.5
		c0.4,0,0.8,0.1,1.1,0.2v0.7H253.5z"/>
	<path d="M262,379.2l-2.5-3.3v2.5c0.3,0,0.7,0.1,1,0.2v0.7h-3.2v-0.7c0.3-0.1,0.7-0.1,1.1-0.2v-7.6c-0.3-0.1-0.7-0.1-1.1-0.1v-0.7
		c0.6-0.1,1.5-0.1,2.3-0.1v5.9l1.8-2.1c-0.3,0-0.6-0.1-0.8-0.2v-0.7h3.1v0.7c-0.3,0.1-0.6,0.1-0.9,0.2l-1.9,2.1l2,2.6
		c0.3,0,0.7,0.1,1,0.2v0.7H262z"/>
	<path d="M270.3,379.3c-1.7,0-2.9-1-2.9-3.2c0-1.9,1.2-3.4,3.1-3.4c1.6,0,2.9,0.9,2.9,3.2C273.4,377.9,272.2,379.3,270.3,379.3z
		 M270.4,373.7c-0.9,0-1.8,0.7-1.8,2.3c0,1.5,0.6,2.3,1.8,2.3c0.9,0,1.8-0.7,1.8-2.3C272.2,374.5,271.6,373.7,270.4,373.7z"/>
	<path d="M279.4,379.2v-4.1c0-0.9-0.2-1.4-1.1-1.4c-1.1,0-1.8,1.1-1.8,2.5v2.2c0.3,0,0.7,0.1,1,0.2v0.7h-3.3v-0.7
		c0.3-0.1,0.7-0.1,1.1-0.2v-4.6c-0.3-0.1-0.7-0.1-1.1-0.1v-0.7c0.6-0.1,1.5-0.1,2.2-0.1c0,0.4,0,1-0.1,1.3h0
		c0.4-0.9,1.2-1.5,2.3-1.5c1.5,0,1.9,0.9,1.9,2v3.6c0.4,0,0.8,0.1,1.1,0.2v0.7H279.4z"/>
	<path d="M287.8,376h-4.2c-0.1,1.7,0.6,2.4,2,2.4c0.6,0,1.3-0.1,1.8-0.4l0.2,0.9c-0.6,0.3-1.4,0.4-2.2,0.4c-1.9,0-3-1-3-3.3
		c0-1.9,1.1-3.3,2.9-3.3c1.8,0,2.5,1.2,2.5,2.6C287.8,375.5,287.8,375.8,287.8,376z M285.2,373.6c-0.8,0-1.4,0.6-1.6,1.6h3
		C286.6,374.2,286.1,373.6,285.2,373.6z"/>
	<path d="M293.4,379.3c-0.5,0-1.1-0.1-1.5-0.2v-1.8h0.7c0.1,0.3,0.1,0.7,0.2,1c0.2,0.1,0.5,0.1,0.8,0.1c0.9,0,1.5-0.4,1.5-1
		c0-1.4-3.2-0.6-3.2-2.8c0-1.1,0.9-1.9,2.6-1.9c0.4,0,1,0.1,1.5,0.2v1.7h-0.7c-0.1-0.3-0.1-0.7-0.2-1c-0.2-0.1-0.5-0.1-0.7-0.1
		c-0.9,0-1.3,0.4-1.3,0.9c0,1.4,3.2,0.6,3.2,2.8C296.2,378.4,295.1,379.3,293.4,379.3z"/>
	<path d="M299.8,379.3c-1.3,0-1.7-0.5-1.7-1.9v-3.7h-1.3v-0.9h1.3v-2.1l1.2-0.3v2.4h1.8v0.9h-1.8v3.3c0,1.1,0.2,1.3,0.9,1.3
		c0.3,0,0.6,0,0.8-0.1l0.1,1C300.7,379.3,300.2,379.3,299.8,379.3z"/>
	<path d="M307.4,376h-4.2c-0.1,1.7,0.6,2.4,2,2.4c0.6,0,1.3-0.1,1.8-0.4l0.2,0.9c-0.6,0.3-1.4,0.4-2.2,0.4c-1.9,0-3-1-3-3.3
		c0-1.9,1.1-3.3,2.9-3.3c1.8,0,2.5,1.2,2.5,2.6C307.5,375.5,307.5,375.8,307.4,376z M304.9,373.6c-0.8,0-1.4,0.6-1.6,1.6h3
		C306.3,374.2,305.8,373.6,304.9,373.6z"/>
	<path d="M311.6,379.3c-0.4,0-0.7,0-1.1-0.1v2.3c0.4,0,0.8,0.1,1.1,0.2v0.7h-3.3v-0.7c0.3-0.1,0.7-0.1,1.1-0.2v-7.8
		c-0.3-0.1-0.7-0.1-1.1-0.1v-0.7c0.6-0.1,1.5-0.1,2.2-0.1c0,0.4,0,0.9-0.1,1.3l0,0c0.4-0.9,1.1-1.4,2.1-1.4c1.5,0,2.3,1.1,2.3,3
		C314.9,378,313.7,379.3,311.6,379.3z M312.3,373.7c-1.2,0-1.7,1.3-1.7,2.5v2.1c0.3,0.1,0.7,0.2,1.1,0.2c1.2,0,2-0.7,2-2.6
		C313.7,374.5,313.2,373.7,312.3,373.7z"/>
	<path d="M320.9,379.3c-0.7,0-1.3-0.1-1.8-0.2v-2.1h0.8c0.1,0.4,0.1,0.8,0.2,1.2c0.3,0.1,0.6,0.1,0.9,0.1c1,0,1.9-0.4,1.9-1.5
		c0-2-4-1.2-4-4c0-1.4,1.1-2.5,3.1-2.5c0.6,0,1.1,0.1,1.7,0.2v2h-0.8c-0.1-0.4-0.1-0.8-0.2-1.1c-0.2,0-0.5-0.1-0.8-0.1
		c-1.1,0-1.7,0.6-1.7,1.4c0,1.9,4,1.2,4,3.9C324.1,378.2,322.9,379.3,320.9,379.3z"/>
	<path d="M328.1,379.3c-1.7,0-2.9-1-2.9-3.2c0-1.9,1.2-3.4,3.1-3.4c1.6,0,2.9,0.9,2.9,3.2C331.2,377.9,330,379.3,328.1,379.3z
		 M328.3,373.7c-0.9,0-1.8,0.7-1.8,2.3c0,1.5,0.6,2.3,1.8,2.3c1,0,1.8-0.7,1.8-2.3C330,374.5,329.4,373.7,328.3,373.7z"/>
	<path d="M337.1,379.2c0-0.4,0-0.9,0.1-1.3h0c-0.4,0.9-1.2,1.5-2.2,1.5c-1.5,0-1.9-0.9-1.9-2v-3.5c-0.3-0.1-0.7-0.1-1.1-0.1v-0.7
		c0.6-0.1,1.5-0.1,2.2-0.1v4.1c0,0.9,0.3,1.4,1.1,1.4c1.1,0,1.8-1.1,1.8-2.5v-2.2c-0.3,0-0.7-0.1-1-0.1v-0.7
		c0.6-0.1,1.5-0.1,2.2-0.1v5.5c0.3,0.1,0.7,0.1,1.1,0.1v0.7C338.7,379.2,337.8,379.3,337.1,379.2z"/>
	<path d="M342.5,379.3c-1.3,0-1.7-0.5-1.7-1.9v-3.7h-1.3v-0.9h1.3v-2.1l1.2-0.3v2.4h1.8v0.9H342v3.3c0,1.1,0.2,1.3,0.9,1.3
		c0.3,0,0.6,0,0.8-0.1l0.1,1C343.4,379.3,342.9,379.3,342.5,379.3z"/>
	<path d="M349.6,379.2v-4.1c0-0.9-0.2-1.4-1.1-1.4c-1.1,0-1.8,1.1-1.8,2.5v2.2c0.3,0,0.7,0.1,1,0.2v0.7h-3.3v-0.7
		c0.3-0.1,0.7-0.1,1.1-0.2v-7.6c-0.3-0.1-0.7-0.1-1.1-0.1v-0.7c0.6-0.1,1.5-0.1,2.3-0.1v3c0,0.4,0,0.9-0.1,1.3l0,0
		c0.4-0.9,1.2-1.4,2.2-1.4c1.5,0,1.9,0.9,1.9,2v3.6c0.4,0,0.7,0.1,1.1,0.2v0.7H349.6z"/>
	<path d="M353.5,379.3c-0.4,0-0.8-0.4-0.8-0.8c0-0.4,0.4-0.8,0.8-0.8c0.4,0,0.8,0.4,0.8,0.8C354.3,379,353.9,379.3,353.5,379.3z"/>
</g>
<g enable-background="new    ">
	<path fill="#999999" d="M110.7,550.3c-2.2-2-3.2-4-3.2-6.5c0-2.6,1.3-4.8,3.2-6.5l0.7,0.7c-1.7,1.7-2.7,3.7-2.7,5.8
		c0,2.2,0.9,4.1,2.7,5.9L110.7,550.3z"/>
	<path fill="#999999" d="M114.9,544V543h4v1.1H114.9z"/>
	<path fill="#999999" d="M122.1,547.4v-1h2.3v-5.4l-2.2,1.5l-0.4-1l2.8-1.7h1v6.7h2v1H122.1z"/>
	<path fill="#999999" d="M131.2,548.6c-0.4,0-1,0-1.4-0.1l0.1-1c0.4,0.1,1,0.2,1.5,0.2c1.6,0,2.4-0.9,2.4-1.9c0-1.1-0.9-1.7-2.3-1.7
		c-0.5,0-1,0-1.3,0.1v-4.4h4.5v1.1l-3.4,0v2.3c0.2,0,0.5,0,0.6,0c2.1,0,3.2,1.1,3.2,2.5C135,547.2,133.5,548.6,131.2,548.6z"/>
	<path fill="#999999" d="M137.9,549.1c1.3-0.4,1.7-1,1.7-1.4c0-0.8-0.7-0.8-0.7-1.5c0-0.5,0.4-0.9,0.9-0.9c0.8,0,1.2,0.8,1.2,1.6
		c0,1.6-1.1,2.5-3,3L137.9,549.1z"/>
	<path fill="#999999" d="M146.7,548.6c-0.5,0-1.1-0.1-1.6-0.2l0.2-1c0.4,0.2,1,0.3,1.6,0.3c1.4,0,2.2-0.8,2.2-1.7
		c0-1-0.8-1.6-2.1-1.6c-0.4,0-0.8,0-1.1,0v-1h0.3c1.8,0,2.7-0.5,2.7-1.6c0-0.8-0.6-1.3-1.6-1.3c-0.7,0-1.3,0.2-1.8,0.5l-0.2-1
		c0.7-0.3,1.4-0.4,2.2-0.4c1.7,0,2.6,0.8,2.6,2.1c0,1-0.6,1.7-1.6,2l0,0c1.1,0.1,1.8,1,1.8,2.1C150.3,547.4,148.8,548.6,146.7,548.6
		z"/>
	<path fill="#999999" d="M154.1,537.3c2.2,2,3.2,4,3.2,6.5c0,2.6-1.3,4.8-3.2,6.5l-0.7-0.7c1.7-1.7,2.7-3.7,2.7-5.8
		c0-2.2-0.9-4.1-2.7-5.9L154.1,537.3z"/>
</g>
<g enable-background="new    ">
	<path d="M165.5,544.2v-1h3v1H165.5z"/>
	<path d="M169.7,544.2v-1h3v1H169.7z"/>
	<path d="M175.4,547.1l-0.7-0.7l3.3-2.9l-3.3-2.8l0.7-0.8l4.1,3.6L175.4,547.1z"/>
	<path d="M194.8,539.6l-1.9,7.8h-1.5l-1.7-5.6c-0.1-0.5-0.3-1-0.3-1.5h0c-0.1,0.5-0.2,1-0.3,1.5l-1.6,5.6h-1.5l-1.9-7.8
		c-0.2,0-0.6-0.1-0.8-0.1v-0.7h3v0.7c-0.3,0.1-0.7,0.1-1,0.2l1.2,4.9c0.1,0.6,0.2,1.2,0.3,1.7h0c0.1-0.6,0.2-1.1,0.4-1.7l1.7-5.8
		h1.1l1.8,5.9c0.1,0.5,0.3,1,0.4,1.6h0c0.1-0.5,0.1-1,0.2-1.5l1.2-5.2c-0.3,0-0.7-0.1-1-0.2v-0.7h2.9v0.7
		C195.4,539.5,195,539.5,194.8,539.6z"/>
	<path d="M199.5,547.4c0-0.4,0-0.9,0.1-1.3h0c-0.3,0.8-1.1,1.4-2.2,1.4s-1.8-0.7-1.8-1.7c0-1.4,1.4-2.2,3.8-2.2v-0.5
		c0-0.9-0.3-1.4-1.3-1.4c-0.4,0-0.8,0.1-1.2,0.2c0,0.3-0.1,0.7-0.2,1h-0.7v-1.7c0.6-0.2,1.4-0.4,2.2-0.4c1.9,0,2.4,0.9,2.4,2.1v3.5
		c0.3,0.1,0.7,0.1,1.1,0.1v0.7C201.1,547.4,200.2,547.4,199.5,547.4z M199.5,544.4c-2,0-2.7,0.5-2.7,1.2c0,0.6,0.4,0.9,1,0.9
		c1,0,1.7-1,1.7-2V544.4z"/>
	<path d="M202.2,547.4v-0.7c0.3-0.1,0.7-0.1,1.1-0.2v-7.6c-0.3-0.1-0.7-0.1-1.1-0.1v-0.7c0.7-0.1,1.5-0.1,2.3-0.1v8.5
		c0.4,0,0.8,0.1,1.1,0.2v0.7H202.2z"/>
	<path d="M210.6,547.4l-2.5-3.3v2.5c0.3,0,0.7,0.1,1,0.2v0.7h-3.2v-0.7c0.3-0.1,0.7-0.1,1.1-0.2v-7.6c-0.3-0.1-0.7-0.1-1.1-0.1v-0.7
		c0.6-0.1,1.5-0.1,2.3-0.1v5.9l1.8-2.1c-0.3,0-0.6-0.1-0.8-0.2V541h3.1v0.7c-0.3,0.1-0.6,0.1-0.9,0.2l-1.9,2.1l2,2.6
		c0.3,0,0.7,0.1,1,0.2v0.7H210.6z"/>
	<path d="M220.2,547.4v-0.7c0.3-0.1,0.7-0.1,1-0.2v-4.6h-3v4.6c0.3,0,0.7,0.1,1,0.2v0.7h-3.3v-0.7c0.3-0.1,0.7-0.1,1.1-0.2v-4.6
		h-1.4V541h1.4v-0.3c0-1.9,1.2-2.8,3.1-2.8c0.6,0,1.3,0.1,1.9,0.2l-0.2,1c-0.5-0.2-1.2-0.3-1.7-0.3c-1.4,0-1.9,0.6-1.9,1.7v0.4h4.1
		v5.5c0.4,0,0.8,0.1,1.1,0.2v0.7H220.2z"/>
	<path d="M228.6,539c-0.3-0.1-0.7-0.1-1-0.1c-0.9,0-1.3,0.5-1.3,1.6v0.5h1.8v0.9h-1.8v4.6c0.4,0,0.8,0.1,1.1,0.2v0.7h-3.4v-0.7
		c0.3-0.1,0.7-0.1,1.1-0.2v-4.6h-1.4V541h1.4v-0.5c0-1.8,0.9-2.6,2.5-2.6c0.4,0,0.7,0,1.1,0.1L228.6,539z"/>
	<path d="M231.4,547.5c-1.3,0-1.7-0.5-1.7-1.9v-3.7h-1.3V541h1.3v-2.1l1.2-0.3v2.4h1.8v0.9h-1.8v3.3c0,1.1,0.2,1.3,0.9,1.3
		c0.3,0,0.6,0,0.8-0.1l0.1,1C232.3,547.4,231.8,547.5,231.4,547.5z"/>
	<path d="M238.9,544.2h-4.2c-0.1,1.7,0.6,2.4,2,2.4c0.6,0,1.3-0.1,1.8-0.4l0.2,0.9c-0.6,0.3-1.4,0.4-2.2,0.4c-1.9,0-3-1-3-3.3
		c0-1.9,1.1-3.3,2.9-3.3c1.8,0,2.5,1.2,2.5,2.6C239,543.7,239,543.9,238.9,544.2z M236.4,541.8c-0.8,0-1.4,0.6-1.6,1.6h3
		C237.8,542.4,237.3,541.8,236.4,541.8z"/>
	<path d="M245.5,544.2h-4.2c-0.1,1.7,0.6,2.4,2,2.4c0.6,0,1.3-0.1,1.8-0.4l0.2,0.9c-0.6,0.3-1.4,0.4-2.2,0.4c-1.9,0-3-1-3-3.3
		c0-1.9,1.1-3.3,2.9-3.3c1.8,0,2.5,1.2,2.5,2.6C245.5,543.7,245.5,543.9,245.5,544.2z M242.9,541.8c-0.8,0-1.4,0.6-1.6,1.6h3
		C244.3,542.4,243.8,541.8,242.9,541.8z"/>
	<path d="M251.6,547.4v-4.1c0-0.9-0.2-1.4-1.1-1.4c-1.1,0-1.8,1.1-1.8,2.5v2.2c0.3,0,0.7,0.1,1,0.2v0.7h-3.3v-0.7
		c0.3-0.1,0.7-0.1,1.1-0.2v-4.6c-0.3-0.1-0.7-0.1-1.1-0.1v-0.7c0.6-0.1,1.5-0.1,2.2-0.1c0,0.4,0,1-0.1,1.3h0
		c0.4-0.9,1.2-1.5,2.3-1.5c1.5,0,1.9,0.9,1.9,2v3.6c0.4,0,0.8,0.1,1.1,0.2v0.7H251.6z"/>
	<path d="M259.1,547.5c-0.5,0-1.1-0.1-1.5-0.2v-1.8h0.7c0.1,0.3,0.1,0.7,0.2,1c0.2,0.1,0.5,0.1,0.8,0.1c0.9,0,1.5-0.4,1.5-1
		c0-1.4-3.2-0.6-3.2-2.8c0-1.1,0.9-1.9,2.6-1.9c0.4,0,1,0.1,1.5,0.2v1.7h-0.7c-0.1-0.3-0.1-0.7-0.2-1c-0.2-0.1-0.5-0.1-0.7-0.1
		c-0.9,0-1.3,0.4-1.3,0.9c0,1.4,3.2,0.6,3.2,2.8C261.8,546.6,260.8,547.5,259.1,547.5z"/>
	<path d="M265.5,547.5c-1.3,0-1.7-0.5-1.7-1.9v-3.7h-1.3V541h1.3v-2.1l1.2-0.3v2.4h1.8v0.9H265v3.3c0,1.1,0.2,1.3,0.9,1.3
		c0.3,0,0.6,0,0.8-0.1l0.1,1C266.4,547.4,265.9,547.5,265.5,547.5z"/>
	<path d="M273.1,544.2h-4.2c-0.1,1.7,0.6,2.4,2,2.4c0.6,0,1.3-0.1,1.8-0.4l0.2,0.9c-0.6,0.3-1.4,0.4-2.2,0.4c-1.9,0-3-1-3-3.3
		c0-1.9,1.1-3.3,2.9-3.3c1.8,0,2.5,1.2,2.5,2.6C273.2,543.7,273.1,543.9,273.1,544.2z M270.5,541.8c-0.8,0-1.4,0.6-1.6,1.6h3
		C272,542.4,271.4,541.8,270.5,541.8z"/>
	<path d="M277.3,547.5c-0.4,0-0.7,0-1.1-0.1v2.3c0.4,0,0.8,0.1,1.1,0.2v0.7H274v-0.7c0.3-0.1,0.7-0.1,1.1-0.2v-7.8
		c-0.3-0.1-0.7-0.1-1.1-0.1v-0.7c0.6-0.1,1.5-0.1,2.2-0.1c0,0.4,0,0.9-0.1,1.3l0,0c0.4-0.9,1.1-1.4,2.1-1.4c1.5,0,2.3,1.1,2.3,3
		C280.6,546.2,279.4,547.5,277.3,547.5z M278,541.8c-1.2,0-1.7,1.3-1.7,2.5v2.1c0.3,0.1,0.7,0.2,1.1,0.2c1.2,0,2-0.7,2-2.6
		C279.4,542.6,278.9,541.8,278,541.8z"/>
	<path d="M283.4,547.5c-0.5,0-1.1-0.1-1.5-0.2v-1.8h0.7c0.1,0.3,0.1,0.7,0.2,1c0.2,0.1,0.5,0.1,0.8,0.1c0.9,0,1.5-0.4,1.5-1
		c0-1.4-3.2-0.6-3.2-2.8c0-1.1,0.9-1.9,2.6-1.9c0.4,0,1,0.1,1.5,0.2v1.7h-0.7c-0.1-0.3-0.1-0.7-0.2-1c-0.2-0.1-0.5-0.1-0.7-0.1
		c-0.9,0-1.3,0.4-1.3,0.9c0,1.4,3.2,0.6,3.2,2.8C286.1,546.6,285.1,547.5,283.4,547.5z"/>
	<path d="M301.1,539.6l-1.9,7.8h-1.5l-1.7-5.6c-0.1-0.5-0.3-1-0.3-1.5h0c-0.1,0.5-0.2,1-0.3,1.5l-1.6,5.6h-1.5l-1.9-7.8
		c-0.2,0-0.6-0.1-0.8-0.1v-0.7h3v0.7c-0.3,0.1-0.7,0.1-1,0.2l1.2,4.9c0.1,0.6,0.2,1.2,0.3,1.7h0c0.1-0.6,0.2-1.1,0.4-1.7l1.7-5.8
		h1.1l1.8,5.9c0.1,0.5,0.3,1,0.4,1.6h0c0.1-0.5,0.1-1,0.2-1.5l1.2-5.2c-0.3,0-0.7-0.1-1-0.2v-0.7h2.9v0.7
		C301.7,539.5,301.4,539.5,301.1,539.6z"/>
	<path d="M307.2,544.2H303c-0.1,1.7,0.6,2.4,2,2.4c0.6,0,1.3-0.1,1.8-0.4l0.2,0.9c-0.6,0.3-1.4,0.4-2.2,0.4c-1.9,0-3-1-3-3.3
		c0-1.9,1.1-3.3,2.9-3.3c1.8,0,2.5,1.2,2.5,2.6C307.2,543.7,307.2,543.9,307.2,544.2z M304.6,541.8c-0.8,0-1.4,0.6-1.6,1.6h3
		C306.1,542.4,305.5,541.8,304.6,541.8z"/>
	<path d="M310.1,547.5c-0.5,0-1.1-0.1-1.5-0.2v-1.8h0.7c0.1,0.3,0.1,0.7,0.2,1c0.2,0.1,0.5,0.1,0.8,0.1c0.9,0,1.5-0.4,1.5-1
		c0-1.4-3.2-0.6-3.2-2.8c0-1.1,0.9-1.9,2.6-1.9c0.4,0,1,0.1,1.5,0.2v1.7h-0.7c-0.1-0.3-0.1-0.7-0.2-1c-0.2-0.1-0.5-0.1-0.7-0.1
		c-0.9,0-1.3,0.4-1.3,0.9c0,1.4,3.2,0.6,3.2,2.8C312.8,546.6,311.8,547.5,310.1,547.5z"/>
	<path d="M316.5,547.5c-1.3,0-1.7-0.5-1.7-1.9v-3.7h-1.3V541h1.3v-2.1l1.2-0.3v2.4h1.8v0.9h-1.8v3.3c0,1.1,0.2,1.3,0.9,1.3
		c0.3,0,0.6,0,0.8-0.1l0.1,1C317.4,547.4,316.9,547.5,316.5,547.5z"/>
	<path d="M319,549.4l-0.5-0.4c0.8-0.9,0.8-1.5,0.6-1.8c-0.4-0.4-0.1-1.1,0.6-1.1C320.6,545.9,321,547.6,319,549.4z"/>
</g>
<g enable-background="new    ">
	<path d="M185.4,564.6c-1.3,0-1.7-0.5-1.7-1.9V559h-1.3v-0.9h1.3V556l1.2-0.3v2.4h1.8v0.9h-1.8v3.3c0,1.1,0.2,1.3,0.9,1.3
		c0.3,0,0.6,0,0.8-0.1l0.1,1C186.3,564.5,185.8,564.6,185.4,564.6z"/>
	<path d="M192.5,564.5c0-0.4,0-0.9,0.1-1.3h0c-0.4,0.9-1.2,1.5-2.2,1.5c-1.5,0-1.9-0.9-1.9-2V559c-0.3-0.1-0.7-0.1-1.1-0.1v-0.7
		c0.6-0.1,1.5-0.1,2.2-0.1v4.1c0,0.9,0.3,1.4,1.1,1.4c1.1,0,1.8-1.1,1.8-2.5V559c-0.3,0-0.7-0.1-1-0.1v-0.7c0.6-0.1,1.5-0.1,2.2-0.1
		v5.5c0.3,0.1,0.7,0.1,1.1,0.1v0.7C194.1,564.5,193.2,564.5,192.5,564.5z"/>
	<path d="M199.7,559.1c-1.5-0.2-2.1,0.7-2.1,2.8v1.7c0.4,0,0.8,0.1,1.1,0.2v0.7h-3.4v-0.7c0.3-0.1,0.7-0.1,1.1-0.2V559
		c-0.3-0.1-0.7-0.1-1.1-0.1v-0.7c0.6-0.1,1.5-0.1,2.2-0.1c0,0.4,0,1-0.1,1.5h0c0.3-0.9,0.9-1.8,2.3-1.6L199.7,559.1z"/>
	<path d="M205.5,564.5v-4.1c0-0.9-0.2-1.4-1.1-1.4c-1.1,0-1.8,1.1-1.8,2.5v2.2c0.3,0,0.7,0.1,1,0.2v0.7h-3.3v-0.7
		c0.3-0.1,0.7-0.1,1.1-0.2V559c-0.3-0.1-0.7-0.1-1.1-0.1v-0.7c0.6-0.1,1.5-0.1,2.2-0.1c0,0.4,0,1-0.1,1.3h0c0.4-0.9,1.2-1.5,2.3-1.5
		c1.5,0,1.9,0.9,1.9,2v3.6c0.4,0,0.8,0.1,1.1,0.2v0.7H205.5z"/>
	<path d="M215.2,564.5c0-0.4,0-0.9,0.1-1.3h0c-0.3,0.8-1.1,1.4-2.2,1.4s-1.8-0.7-1.8-1.7c0-1.4,1.4-2.2,3.8-2.2v-0.5
		c0-0.9-0.3-1.4-1.3-1.4c-0.4,0-0.8,0.1-1.2,0.2c0,0.3-0.1,0.7-0.2,1h-0.7v-1.7c0.6-0.2,1.4-0.4,2.2-0.4c1.9,0,2.4,0.9,2.4,2.1v3.5
		c0.3,0.1,0.7,0.1,1.1,0.1v0.7C216.8,564.5,215.9,564.5,215.2,564.5z M215.1,561.5c-2,0-2.7,0.5-2.7,1.2c0,0.6,0.4,0.9,1,0.9
		c1,0,1.7-1,1.7-2V561.5z"/>
	<path d="M223.1,564.5v-4.1c0-0.9-0.2-1.4-1.1-1.4c-1.1,0-1.8,1.1-1.8,2.5v2.2c0.3,0,0.7,0.1,1,0.2v0.7H218v-0.7
		c0.3-0.1,0.7-0.1,1.1-0.2V559c-0.3-0.1-0.7-0.1-1.1-0.1v-0.7c0.6-0.1,1.5-0.1,2.2-0.1c0,0.4,0,1-0.1,1.3h0c0.4-0.9,1.2-1.5,2.3-1.5
		c1.5,0,1.9,0.9,1.9,2v3.6c0.4,0,0.8,0.1,1.1,0.2v0.7H223.1z"/>
	<path d="M230.5,564.5c0-0.4,0-0.9,0.1-1.3l0,0c-0.4,0.9-1.1,1.4-2.1,1.4c-1.6,0-2.3-1.1-2.3-3c0-2.2,1.3-3.6,3.3-3.6
		c0.3,0,0.7,0,1.1,0.1V556c-0.3-0.1-0.7-0.1-1.1-0.1v-0.7c0.6-0.1,1.5-0.1,2.3-0.1v8.5c0.3,0.1,0.7,0.1,1.1,0.1v0.7
		C232.1,564.5,231.2,564.5,230.5,564.5z M230.5,559.1c-0.4-0.1-0.8-0.1-1.1-0.1c-1.2,0-2,0.7-2,2.6c0,1.4,0.4,2.2,1.4,2.2
		c1.2,0,1.7-1.3,1.7-2.5V559.1z"/>
	<path d="M245.9,559l-1.7,5.5h-1.3l-1.3-3.8c-0.1-0.4-0.3-0.8-0.4-1.3h0c-0.1,0.6-0.3,1.1-0.5,1.6l-1.1,3.4h-1.3l-1.6-5.5
		c-0.3,0-0.6-0.1-0.8-0.2v-0.7h2.9v0.7c-0.3,0.1-0.6,0.1-0.9,0.2l0.8,2.8c0.1,0.5,0.3,1,0.4,1.4h0c0.1-0.5,0.3-1.1,0.4-1.6l1.1-3.6
		h1.2l1.2,3.6c0.2,0.8,0.3,1.1,0.4,1.6h0c0.1-0.4,0.2-0.8,0.4-1.4l0.8-2.9c-0.3,0-0.6-0.1-0.9-0.2v-0.7h2.9v0.7
		C246.4,558.9,246.1,558.9,245.9,559z"/>
	<path d="M250.9,564.5c0-0.4,0-0.9,0.1-1.3h0c-0.3,0.8-1.1,1.4-2.2,1.4s-1.8-0.7-1.8-1.7c0-1.4,1.4-2.2,3.8-2.2v-0.5
		c0-0.9-0.3-1.4-1.3-1.4c-0.4,0-0.8,0.1-1.2,0.2c0,0.3-0.1,0.7-0.2,1h-0.7v-1.7c0.6-0.2,1.4-0.4,2.2-0.4c1.9,0,2.4,0.9,2.4,2.1v3.5
		c0.3,0.1,0.7,0.1,1.1,0.1v0.7C252.4,564.5,251.6,564.5,250.9,564.5z M250.8,561.5c-2,0-2.7,0.5-2.7,1.2c0,0.6,0.4,0.9,1,0.9
		c1,0,1.7-1,1.7-2V561.5z"/>
	<path d="M253.5,564.5v-0.7c0.3-0.1,0.7-0.1,1.1-0.2V556c-0.3-0.1-0.7-0.1-1.1-0.1v-0.7c0.7-0.1,1.5-0.1,2.3-0.1v8.5
		c0.4,0,0.8,0.1,1.1,0.2v0.7H253.5z"/>
	<path d="M262,564.5l-2.5-3.3v2.5c0.3,0,0.7,0.1,1,0.2v0.7h-3.2v-0.7c0.3-0.1,0.7-0.1,1.1-0.2V556c-0.3-0.1-0.7-0.1-1.1-0.1v-0.7
		c0.6-0.1,1.5-0.1,2.3-0.1v5.9l1.8-2.1c-0.3,0-0.6-0.1-0.8-0.2v-0.7h3.1v0.7c-0.3,0.1-0.6,0.1-0.9,0.2l-1.9,2.1l2,2.6
		c0.3,0,0.7,0.1,1,0.2v0.7H262z"/>
	<path d="M269.9,564.6c-1.3,0-1.7-0.5-1.7-1.9V559h-1.3v-0.9h1.3V556l1.2-0.3v2.4h1.8v0.9h-1.8v3.3c0,1.1,0.2,1.3,0.9,1.3
		c0.3,0,0.6,0,0.8-0.1l0.1,1C270.8,564.5,270.3,564.6,269.9,564.6z"/>
	<path d="M277,564.5v-4.1c0-0.9-0.2-1.4-1.1-1.4c-1.1,0-1.8,1.1-1.8,2.5v2.2c0.3,0,0.7,0.1,1,0.2v0.7h-3.3v-0.7
		c0.3-0.1,0.7-0.1,1.1-0.2V556c-0.3-0.1-0.7-0.1-1.1-0.1v-0.7c0.6-0.1,1.5-0.1,2.3-0.1v3c0,0.4,0,0.9-0.1,1.3l0,0
		c0.4-0.9,1.2-1.4,2.2-1.4c1.5,0,1.9,0.9,1.9,2v3.6c0.4,0,0.7,0.1,1.1,0.2v0.7H277z"/>
	<path d="M284.2,559.1c-1.5-0.2-2.1,0.7-2.1,2.8v1.7c0.4,0,0.8,0.1,1.1,0.2v0.7h-3.4v-0.7c0.3-0.1,0.7-0.1,1.1-0.2V559
		c-0.3-0.1-0.7-0.1-1.1-0.1v-0.7c0.6-0.1,1.5-0.1,2.2-0.1c0,0.4,0,1-0.1,1.5h0c0.3-0.9,0.9-1.8,2.3-1.6L284.2,559.1z"/>
	<path d="M290.4,561.3h-4.2c-0.1,1.7,0.6,2.4,2,2.4c0.6,0,1.3-0.1,1.8-0.4l0.2,0.9c-0.6,0.3-1.4,0.4-2.2,0.4c-1.9,0-3-1-3-3.3
		c0-1.9,1.1-3.3,2.9-3.3c1.8,0,2.5,1.2,2.5,2.6C290.4,560.8,290.4,561,290.4,561.3z M287.8,558.9c-0.8,0-1.4,0.6-1.6,1.6h3
		C289.2,559.5,288.7,558.9,287.8,558.9z"/>
	<path d="M296.9,561.3h-4.2c-0.1,1.7,0.6,2.4,2,2.4c0.6,0,1.3-0.1,1.8-0.4l0.2,0.9c-0.6,0.3-1.4,0.4-2.2,0.4c-1.9,0-3-1-3-3.3
		c0-1.9,1.1-3.3,2.9-3.3c1.8,0,2.5,1.2,2.5,2.6C296.9,560.8,296.9,561,296.9,561.3z M294.3,558.9c-0.8,0-1.4,0.6-1.6,1.6h3
		C295.8,559.5,295.2,558.9,294.3,558.9z"/>
	<path d="M302.5,564.6c-0.5,0-1.1-0.1-1.5-0.2v-1.8h0.7c0.1,0.3,0.1,0.7,0.2,1c0.2,0.1,0.5,0.1,0.8,0.1c0.9,0,1.5-0.4,1.5-1
		c0-1.4-3.2-0.6-3.2-2.8c0-1.1,0.9-1.9,2.6-1.9c0.4,0,1,0.1,1.5,0.2v1.7h-0.7c-0.1-0.3-0.1-0.7-0.2-1c-0.2-0.1-0.5-0.1-0.7-0.1
		c-0.9,0-1.3,0.4-1.3,0.9c0,1.4,3.2,0.6,3.2,2.8C305.3,563.7,304.2,564.6,302.5,564.6z"/>
	<path d="M308.9,564.6c-1.3,0-1.7-0.5-1.7-1.9V559h-1.3v-0.9h1.3V556l1.2-0.3v2.4h1.8v0.9h-1.8v3.3c0,1.1,0.2,1.3,0.9,1.3
		c0.3,0,0.6,0,0.8-0.1l0.1,1C309.8,564.5,309.3,564.6,308.9,564.6z"/>
	<path d="M316.5,561.3h-4.2c-0.1,1.7,0.6,2.4,2,2.4c0.6,0,1.3-0.1,1.8-0.4l0.2,0.9c-0.6,0.3-1.4,0.4-2.2,0.4c-1.9,0-3-1-3-3.3
		c0-1.9,1.1-3.3,2.9-3.3c1.8,0,2.5,1.2,2.5,2.6C316.6,560.8,316.6,561,316.5,561.3z M314,558.9c-0.8,0-1.4,0.6-1.6,1.6h3
		C315.4,559.5,314.9,558.9,314,558.9z"/>
	<path d="M320.7,564.6c-0.4,0-0.7,0-1.1-0.1v2.3c0.4,0,0.8,0.1,1.1,0.2v0.7h-3.3V567c0.3-0.1,0.7-0.1,1.1-0.2V559
		c-0.3-0.1-0.7-0.1-1.1-0.1v-0.7c0.6-0.1,1.5-0.1,2.2-0.1c0,0.4,0,0.9-0.1,1.3l0,0c0.4-0.9,1.1-1.4,2.1-1.4c1.5,0,2.3,1.1,2.3,3
		C324,563.3,322.8,564.6,320.7,564.6z M321.4,558.9c-1.2,0-1.7,1.3-1.7,2.5v2.1c0.3,0.1,0.7,0.2,1.1,0.2c1.2,0,2-0.7,2-2.6
		C322.8,559.7,322.4,558.9,321.4,558.9z"/>
	<path d="M326.8,564.6c-0.5,0-1.1-0.1-1.5-0.2v-1.8h0.7c0.1,0.3,0.1,0.7,0.2,1c0.2,0.1,0.5,0.1,0.8,0.1c0.9,0,1.5-0.4,1.5-1
		c0-1.4-3.2-0.6-3.2-2.8c0-1.1,0.9-1.9,2.6-1.9c0.4,0,1,0.1,1.5,0.2v1.7h-0.7c-0.1-0.3-0.1-0.7-0.2-1c-0.2-0.1-0.5-0.1-0.7-0.1
		c-0.9,0-1.3,0.4-1.3,0.9c0,1.4,3.2,0.6,3.2,2.8C329.5,563.7,328.5,564.6,326.8,564.6z"/>
	<path d="M341.4,556.7v7.8h-1.6l-3.3-5.4c-0.4-0.6-0.7-1.3-1-1.9c0.1,1.5,0.1,3.7,0.1,6.5c0.3,0,0.7,0.1,1,0.2v0.7h-3.3v-0.7
		c0.3-0.1,0.7-0.2,1.1-0.2v-6.9c-0.4,0-0.8-0.1-1.1-0.2v-0.7h2.7l3.3,5.4c0.4,0.6,0.7,1.3,1,1.9c-0.1-1.5-0.1-3.7-0.1-6.4
		c-0.3,0-0.7-0.1-1-0.2v-0.7h3v0.7C342,556.6,341.7,556.7,341.4,556.7z"/>
	<path d="M346,564.6c-1.7,0-2.9-1-2.9-3.2c0-1.9,1.2-3.4,3.1-3.4c1.6,0,2.9,0.9,2.9,3.2C349.1,563.1,347.9,564.6,346,564.6z
		 M346.2,559c-0.9,0-1.8,0.7-1.8,2.3c0,1.5,0.6,2.3,1.8,2.3c1,0,1.8-0.7,1.8-2.3C347.9,559.8,347.3,559,346.2,559z"/>
	<path d="M354.4,559.1c-1.5-0.2-2.1,0.7-2.1,2.8v1.7c0.4,0,0.8,0.1,1.1,0.2v0.7H350v-0.7c0.3-0.1,0.7-0.1,1.1-0.2V559
		c-0.3-0.1-0.7-0.1-1.1-0.1v-0.7c0.6-0.1,1.5-0.1,2.2-0.1c0,0.4,0,1-0.1,1.5h0c0.3-0.9,0.9-1.8,2.3-1.6L354.4,559.1z"/>
	<path d="M357.8,564.6c-1.3,0-1.7-0.5-1.7-1.9V559h-1.3v-0.9h1.3V556l1.2-0.3v2.4h1.8v0.9h-1.8v3.3c0,1.1,0.2,1.3,0.9,1.3
		c0.3,0,0.6,0,0.8-0.1l0.1,1C358.7,564.5,358.2,564.6,357.8,564.6z"/>
	<path d="M364.9,564.5v-4.1c0-0.9-0.2-1.4-1.1-1.4c-1.1,0-1.8,1.1-1.8,2.5v2.2c0.3,0,0.7,0.1,1,0.2v0.7h-3.3v-0.7
		c0.3-0.1,0.7-0.1,1.1-0.2V556c-0.3-0.1-0.7-0.1-1.1-0.1v-0.7c0.6-0.1,1.5-0.1,2.3-0.1v3c0,0.4,0,0.9-0.1,1.3l0,0
		c0.4-0.9,1.2-1.4,2.2-1.4c1.5,0,1.9,0.9,1.9,2v3.6c0.4,0,0.7,0.1,1.1,0.2v0.7H364.9z"/>
	<path d="M368.8,564.6c-0.4,0-0.8-0.4-0.8-0.8c0-0.4,0.4-0.8,0.8-0.8c0.4,0,0.8,0.4,0.8,0.8C369.6,564.2,369.2,564.6,368.8,564.6z"
		/>
</g>
<g enable-background="new    ">
	<path fill="#999999" d="M259,191.4c-2.2-2-3.2-4-3.2-6.5c0-2.6,1.3-4.8,3.2-6.5l0.7,0.7c-1.7,1.7-2.7,3.7-2.7,5.8
		c0,2.2,0.9,4.1,2.7,5.9L259,191.4z"/>
	<path fill="#999999" d="M264.3,189.7c-0.5,0-1.1-0.1-1.6-0.2l0.2-1c0.4,0.2,1,0.3,1.6,0.3c1.4,0,2.2-0.8,2.2-1.7
		c0-1-0.8-1.6-2.1-1.6c-0.4,0-0.8,0-1.1,0v-1h0.3c1.8,0,2.7-0.5,2.7-1.6c0-0.8-0.6-1.3-1.6-1.3c-0.7,0-1.3,0.2-1.8,0.5l-0.2-1
		c0.7-0.3,1.4-0.4,2.2-0.4c1.7,0,2.6,0.8,2.6,2.1c0,1-0.6,1.7-1.6,2l0,0c1.1,0.1,1.8,1,1.8,2.1C267.9,188.5,266.4,189.7,264.3,189.7
		z"/>
	<path fill="#999999" d="M270.9,190.2c1.3-0.4,1.7-1,1.7-1.4c0-0.8-0.7-0.8-0.7-1.5c0-0.5,0.4-0.9,0.9-0.9c0.8,0,1.2,0.8,1.2,1.6
		c0,1.6-1.1,2.5-3,3L270.9,190.2z"/>
	<path fill="#999999" d="M279.6,189.7c-0.4,0-1,0-1.4-0.1l0.1-1c0.4,0.1,1,0.2,1.5,0.2c1.6,0,2.4-0.9,2.4-1.9c0-1.1-0.9-1.7-2.3-1.7
		c-0.5,0-1,0-1.3,0.1v-4.4h4.5v1.1l-3.4,0v2.3c0.2,0,0.5,0,0.6,0c2.1,0,3.2,1.1,3.2,2.5C283.4,188.3,281.9,189.7,279.6,189.7z"/>
	<path fill="#999999" d="M287.1,178.4c2.2,2,3.2,4,3.2,6.5c0,2.6-1.3,4.8-3.2,6.5l-0.7-0.7c1.7-1.7,2.7-3.7,2.7-5.8
		c0-2.2-0.9-4.1-2.7-5.9L287.1,178.4z"/>
</g>
<g enable-background="new    ">
	<path fill="#999999" d="M229.8,479.2c-2.2-2-3.2-4-3.2-6.5c0-2.6,1.3-4.8,3.2-6.5l0.7,0.7c-1.7,1.7-2.7,3.7-2.7,5.8
		c0,2.2,0.9,4.1,2.7,5.9L229.8,479.2z"/>
	<path fill="#999999" d="M233.3,476.4v-0.9l1.8-1.7c1.6-1.4,2-1.9,2-2.8c0-0.8-0.5-1.4-1.6-1.4c-0.7,0-1.5,0.3-1.9,0.7l-0.3-1
		c0.7-0.4,1.4-0.7,2.3-0.7c1.7,0,2.6,1,2.6,2.3c0,1.1-0.6,1.9-2,3.1l-1.5,1.3l-0.1,0c0.6-0.1,2-0.1,3.9-0.1v1.1H233.3z"/>
	<path fill="#999999" d="M241.7,478.1c1.3-0.4,1.7-1,1.7-1.4c0-0.8-0.7-0.8-0.7-1.5c0-0.5,0.4-0.9,0.9-0.9c0.8,0,1.2,0.8,1.2,1.6
		c0,1.6-1.1,2.5-3,3L241.7,478.1z"/>
	<path fill="#999999" d="M249.5,473v-1.1h4v1.1H249.5z"/>
	<path fill="#999999" d="M256.7,476.4v-1h2.3v-5.4l-2.2,1.5l-0.4-1l2.8-1.7h1v6.7h2v1H256.7z"/>
	<path fill="#999999" d="M265.6,466.2c2.2,2,3.2,4,3.2,6.5c0,2.6-1.3,4.8-3.2,6.5l-0.7-0.7c1.7-1.7,2.7-3.7,2.7-5.8
		c0-2.2-0.9-4.1-2.7-5.9L265.6,466.2z"/>
</g>
<g enable-background="new    ">
	<path fill="#999999" d="M235.5,611.8c-2.2-2-3.2-4-3.2-6.5c0-2.6,1.3-4.8,3.2-6.5l0.7,0.7c-1.7,1.7-2.7,3.7-2.7,5.8
		c0,2.2,0.9,4.1,2.7,5.9L235.5,611.8z"/>
	<path fill="#999999" d="M239.8,605.5v-1.1h4v1.1H239.8z"/>
	<path fill="#999999" d="M247,608.9v-1h2.3v-5.4l-2.2,1.5l-0.4-1l2.8-1.7h1v6.7h2v1H247z"/>
	<path fill="#999999" d="M256.1,610.1c-0.4,0-1,0-1.4-0.1l0.1-1c0.4,0.1,1,0.2,1.5,0.2c1.6,0,2.4-0.9,2.4-1.9c0-1.1-0.9-1.7-2.3-1.7
		c-0.5,0-1,0-1.3,0.1v-4.4h4.5v1.1l-3.4,0v2.3c0.2,0,0.5,0,0.6,0c2.1,0,3.2,1.1,3.2,2.5C259.9,608.7,258.3,610.1,256.1,610.1z"/>
	<path fill="#999999" d="M262.8,610.6c1.3-0.4,1.7-1,1.7-1.4c0-0.8-0.7-0.8-0.7-1.5c0-0.5,0.4-0.9,0.9-0.9c0.8,0,1.2,0.8,1.2,1.6
		c0,1.6-1.1,2.5-3,3L262.8,610.6z"/>
	<path fill="#999999" d="M271.5,610.1c-0.5,0-1.1-0.1-1.6-0.2l0.2-1c0.4,0.2,1,0.3,1.6,0.3c1.4,0,2.2-0.8,2.2-1.7
		c0-1-0.8-1.6-2.1-1.6c-0.4,0-0.8,0-1.1,0v-1h0.3c1.8,0,2.7-0.5,2.7-1.6c0-0.8-0.6-1.3-1.6-1.3c-0.7,0-1.3,0.2-1.8,0.5l-0.2-1
		c0.7-0.3,1.4-0.4,2.2-0.4c1.7,0,2.6,0.8,2.6,2.1c0,1-0.6,1.7-1.6,2l0,0c1.1,0.1,1.8,1,1.8,2.1C275.2,608.9,273.7,610.1,271.5,610.1
		z"/>
	<path fill="#999999" d="M279,598.8c2.2,2,3.2,4,3.2,6.5c0,2.6-1.3,4.8-3.2,6.5l-0.7-0.7c1.7-1.7,2.7-3.7,2.7-5.8
		c0-2.2-0.9-4.1-2.7-5.9L279,598.8z"/>
</g>
</svg>
