<?xml version="1.0" encoding="utf-8"?>
<!-- Generator: Adobe Illustrator 17.1.0, SVG Export Plug-In . SVG Version: 6.00 Build 0)  -->
<!DOCTYPE svg PUBLIC "-//W3C//DTD SVG 1.1//EN" "http://www.w3.org/Graphics/SVG/1.1/DTD/svg11.dtd">
<svg version="1.1" id="Layer_1" xmlns="http://www.w3.org/2000/svg" xmlns:xlink="http://www.w3.org/1999/xlink" x="0px" y="0px"
	 viewBox="0 17 612 610" enable-background="new 0 17 612 610" xml:space="preserve">
<line fill="none" stroke="#000000" stroke-width="1.3" stroke-dasharray="20,5" x1="245.1" y1="93.7" x2="245.1" y2="178.2"/>
<line fill="none" stroke="#000000" stroke-width="1.3" stroke-dasharray="20,5" x1="230.7" y1="531.6" x2="230.7" y2="580.8"/>
<text transform="matrix(1 0 0 1 203.2364 193.4845)" font-family="'ArialMT'" font-size="9.9757">3 Steps</text>
<text transform="matrix(1 0 0 1 209.7198 205.4551)" font-family="'ArialMT'" font-size="9.9757">East</text>
<text transform="matrix(1 0 0 1 349.3438 602.7989)" font-family="'ArialMT'" font-size="9.9757">15 Steps</text>
<text transform="matrix(1 0 0 1 356.4688 614.7696)" font-family="'ArialMT'" font-size="9.9757">West</text>
<line fill="none" stroke="#000000" stroke-width="1.3" stroke-dasharray="20,5" x1="189.5" y1="177.8" x2="242.2" y2="177.8"/>
<line fill="none" stroke="#000000" stroke-width="1.3" stroke-dasharray="20,5" x1="189" y1="348.8" x2="222.8" y2="348.8"/>
<line fill="none" stroke="#000000" stroke-width="1.3" stroke-dasharray="20,5" x1="235" y1="580.4" x2="500" y2="580.4"/>
<polyline fill="#FFFFFF" stroke="#000000" stroke-width="1.3" points="493.9,69.9 497,73 493.9,76.2 "/>
<line fill="none" stroke="#000000" stroke-width="1.3" x1="497" y1="73" x2="447.4" y2="73"/>
<polyline fill="none" stroke="#000000" stroke-width="1.3" points="450.6,76.2 447.4,73 450.6,69.9 "/>
<polyline fill="#FFFFFF" stroke="#000000" stroke-width="1.3" points="475.7,94.3 472.6,97.5 469.5,94.3 "/>
<line fill="none" stroke="#000000" stroke-width="1.3" x1="472.6" y1="97.5" x2="472.6" y2="47.9"/>
<polyline fill="none" stroke="#000000" stroke-width="1.3" points="469.5,51 472.6,47.9 475.7,51 "/>
<text transform="matrix(1 0 0 1 468.8184 40.9718)" font-family="'ArialMT'" font-size="9.9757">N</text>
<text transform="matrix(1 0 0 1 432.4776 75.8868)" font-family="'ArialMT'" font-size="9.9757">W</text>
<text transform="matrix(1 0 0 1 505.1582 75.8868)" font-family="'ArialMT'" font-size="9.9757">E</text>
<text transform="matrix(1 0 0 1 470.2432 113.6518)" font-family="'ArialMT'" font-size="9.9757">S</text>
<polyline fill="#FFFFFF" stroke="#999999" points="240.9,537.4 237.8,532.4 242.8,529.3 "/>
<line fill="none" stroke="#999999" x1="490.5" y1="577.7" x2="237.8" y2="532.6"/>
<line fill="none" stroke="#999999" stroke-width="1.3" x1="194" y1="172.4" x2="240.5" y2="101"/>
<text transform="matrix(1 0 0 1 251.6895 160.7071)" font-family="'ArialMT'" font-size="9.9757">5 Steps</text>
<text transform="matrix(1 0 0 1 254.1124 172.6782)" font-family="'ArialMT'" font-size="9.9757">North</text>
<text transform="matrix(1 0 0 1 184.2818 552.583)" font-family="'ArialMT'" font-size="9.9757">3 Steps</text>
<text transform="matrix(1 0 0 1 186.7047 569.6837)" font-family="'ArialMT'" font-size="9.9757">North</text>
<circle cx="189.6" cy="177.4" r="4.1"/>
<line fill="none" stroke="#000000" stroke-width="1.3" stroke-dasharray="20,5" x1="220.6" y1="352" x2="220.6" y2="368.2"/>
<polyline fill="none" stroke="#999999" stroke-width="1.3" points="235,102 240.7,100.8 241.9,106.3 "/>
<text transform="matrix(1 0 0 1 189.6978 329.5816)" font-family="'ArialMT'" font-size="9.9757">2 Steps</text>
<text transform="matrix(1 0 0 1 196.1817 341.5528)" font-family="'ArialMT'" font-size="9.9757">East</text>
<text transform="matrix(1 0 0 1 227.5 353.8087)" font-family="'ArialMT'" font-size="9.9757">1 Step</text>
<text transform="matrix(1 0 0 1 227.9273 365.7792)" font-family="'ArialMT'" font-size="9.9757">South</text>
<line fill="none" stroke="#999999" x1="194.8" y1="352.6" x2="213.3" y2="362.8"/>
<polyline fill="none" stroke="#999999" points="212.2,359.3 213.4,362.9 209.9,364.1 "/>
<circle cx="189.1" cy="347.7" r="4.1"/>
<circle cx="498.8" cy="580.2" r="4.1"/>
<circle fill="#999999" cx="245.1" cy="94.1" r="4.1"/>
<circle fill="#999999" cx="220.9" cy="365.9" r="4.1"/>
<circle fill="#999999" cx="230.4" cy="531.8" r="4.1"/>
<text transform="matrix(1 0 0 1 103.9922 43.1094)" fill="#999999" font-family="'ArialMT'" font-size="12.8259">(3,5)</text>
<text transform="matrix(1 0 0 1 142.4697 43.1094)" font-family="'ArialMT'" font-size="12.8259">        --&gt; Walk three steps East, </text>
<text transform="matrix(1 0 0 1 103.9922 60.2104)" font-family="'ArialMT'" font-size="12.8259" letter-spacing="22">   </text>
<text transform="matrix(1 0 0 1 180.9473 60.2104)" font-family="'ArialMT'" font-size="12.8259"> turn and walk five steps North.</text>
<text transform="matrix(1 0 0 1 105.417 271.1251)" fill="#999999" font-family="'ArialMT'" font-size="12.8259">(2,-1)</text>
<text transform="matrix(1 0 0 1 151.5903 271.1251)" font-family="'ArialMT'" font-size="12.8259">     --&gt; Walk two steps East, </text>
<text transform="matrix(1 0 0 1 105.417 288.2266)" font-family="'ArialMT'" font-size="12.8259" letter-spacing="22">   </text>
<text transform="matrix(1 0 0 1 182.3721 288.2266)" font-family="'ArialMT'" font-size="12.8259">turn and walk one step South.</text>
<text transform="matrix(1 0 0 1 105.417 456.3887)" fill="#999999" font-family="'ArialMT'" font-size="12.8259">(-15,3)</text>
<text transform="matrix(1 0 0 1 159.2861 456.3887)" font-family="'ArialMT'" font-size="12.8259">  --&gt; Walk fifteen steps West, </text>
<text transform="matrix(1 0 0 1 105.417 473.4903)" font-family="'ArialMT'" font-size="12.8259" letter-spacing="22">   </text>
<text transform="matrix(1 0 0 1 182.3721 473.4903)" font-family="'ArialMT'" font-size="12.8259">turn and walk three steps North.</text>
<text transform="matrix(1 0 0 1 253.798 97.4903)" fill="#999999" font-family="'ArialMT'" font-size="12.8259">(3,5)</text>
<text transform="matrix(1 0 0 1 224.5831 385.3613)" fill="#999999" font-family="'ArialMT'" font-size="12.8259">(2,-1)</text>
<text transform="matrix(1 0 0 1 230.2833 517.8955)" fill="#999999" font-family="'ArialMT'" font-size="12.8259">(-15,3)</text>
</svg>
