<?xml version="1.0" encoding="utf-8"?>
<!-- Generator: Adobe Illustrator 18.0.0, SVG Export Plug-In . SVG Version: 6.00 Build 0)  -->
<!DOCTYPE svg PUBLIC "-//W3C//DTD SVG 1.1//EN" "http://www.w3.org/Graphics/SVG/1.1/DTD/svg11.dtd">
<svg version="1.1" id="Layer_1" xmlns="http://www.w3.org/2000/svg" xmlns:xlink="http://www.w3.org/1999/xlink" x="0px" y="0px"
	 viewBox="0 0 612 792" enable-background="new 0 0 612 792" xml:space="preserve">
<circle cx="101" cy="566.8" r="5.5"/>
<g enable-background="new    ">
	<path fill="#999999" d="M104.9,669.2c0-0.5,0-1.3,0.1-1.8h0c-0.5,1.2-1.5,2-3,2c-2,0-2.6-1.2-2.6-2.7v-4.8c-0.4-0.1-1-0.1-1.4-0.2
		v-0.9c0.8-0.1,2-0.2,3-0.1v5.5c0,1.2,0.3,1.9,1.5,1.9c1.4,0,2.4-1.4,2.4-3.3v-2.9c-0.4-0.1-0.9-0.1-1.4-0.2v-0.9
		c0.8-0.1,2-0.2,2.9-0.1v7.3c0.4,0.1,1,0.1,1.4,0.2v0.9C107.1,669.2,105.9,669.2,104.9,669.2z"/>
</g>
<line fill="none" stroke="#000000" stroke-width="1.3" stroke-dasharray="20,5" x1="52.9" y1="566.6" x2="99" y2="566.6"/>
<line fill="none" stroke="#000000" stroke-width="1.3" stroke-dasharray="20,5" x1="53" y1="572.2" x2="53" y2="618.3"/>
<g enable-background="new    ">
	<path d="M70.3,558.9v-1.3l2.5-2.2c2.2-1.8,2.7-2.6,2.7-3.7c0-1.1-0.7-1.9-2.1-1.9c-1,0-1.9,0.5-2.5,0.9l-0.3-1.4
		c0.9-0.6,1.9-0.9,3.1-0.9c2.3,0,3.5,1.3,3.5,3.1c0,1.5-0.8,2.6-2.7,4.2l-2.1,1.8l-0.1,0c0.8-0.1,2.7-0.1,5.2-0.1v1.5H70.3z"/>
</g>
<polyline fill="#FFFFFF" stroke="#999999" stroke-width="1.3" points="106.5,648.7 110.7,652.9 106.5,657.1 "/>
<line fill="none" stroke="#999999" stroke-width="1.3" x1="110.7" y1="652.9" x2="94.9" y2="652.9"/>
<g enable-background="new    ">
	<path fill="#999999" d="M148.9,609.4v-1.3h4.1v1.3H148.9z"/>
	<path fill="#999999" d="M162.2,606.3l-2.7,7.4h-1.9l-2.7-7.4c-0.4,0-0.8-0.1-1.1-0.2v-0.9h4v0.9c-0.4,0.1-0.8,0.2-1.2,0.2l1.4,4.2
		c0.2,0.6,0.4,1.1,0.5,1.7h0c0.2-0.6,0.3-1.1,0.5-1.6l1.5-4.2c-0.4,0-0.8-0.1-1.2-0.2v-0.9h3.9v0.9
		C162.9,606.2,162.6,606.3,162.2,606.3z"/>
</g>
<polyline fill="#FFFFFF" stroke="#999999" stroke-width="1.3" points="159.7,593.2 164,597.4 159.7,601.6 "/>
<line fill="none" stroke="#999999" stroke-width="1.3" x1="164" y1="597.4" x2="148" y2="597.4"/>
<g enable-background="new    ">
	<path fill="#999999" d="M209,685.8v3.5h-1.5v-3.5h-3.3v-1.3h3.3V681h1.5v3.4h3.3v1.3H209z"/>
	<path fill="#999999" d="M221.4,682.8l-2.7,7.4h-1.9l-2.7-7.4c-0.4,0-0.8-0.1-1.1-0.2v-0.9h4v0.9c-0.4,0.1-0.8,0.2-1.2,0.2l1.4,4.2
		c0.2,0.6,0.4,1.1,0.5,1.7h0c0.2-0.6,0.3-1.1,0.5-1.6l1.5-4.2c-0.4,0-0.8-0.1-1.2-0.2v-0.9h3.9v0.9
		C222.2,682.7,221.8,682.8,221.4,682.8z"/>
</g>
<polyline fill="#FFFFFF" stroke="#999999" stroke-width="1.3" points="217.1,669.7 221.4,673.9 217.1,678.1 "/>
<line fill="none" stroke="#999999" stroke-width="1.3" x1="221.4" y1="673.9" x2="205.4" y2="673.9"/>
<g enable-background="new    ">
	<path d="M28.3,590.2v-1.4h5.4v1.4H28.3z"/>
	<path d="M37.6,594.7v-1.3l2.5-2.2c2.2-1.8,2.7-2.6,2.7-3.7c0-1.1-0.7-1.9-2.1-1.9c-1,0-1.9,0.5-2.5,0.9l-0.3-1.4
		c0.9-0.6,1.9-0.9,3.1-0.9c2.3,0,3.5,1.3,3.5,3.1c0,1.5-0.8,2.6-2.7,4.2l-2.1,1.8l-0.1,0c0.8-0.1,2.7-0.1,5.2-0.1v1.5H37.6z"/>
</g>
<circle cx="52.5" cy="617.4" r="5.5"/>
<line fill="none" stroke="#999999" stroke-width="1.3" x1="105.6" y1="575.4" x2="169.4" y2="659.5"/>
<line fill="none" stroke="#999999" stroke-width="1.3" stroke-dasharray="4,4" x1="170.3" y1="660.5" x2="213.8" y2="717.9"/>
<polyline fill="none" stroke="#999999" stroke-width="1.3" points="104.2,583.5 105.5,575.2 113.7,576.5 "/>
<line fill="none" stroke="#999999" stroke-width="1.3" x1="58.1" y1="613.1" x2="94.8" y2="574.3"/>
<g enable-background="new    ">
	<path fill="#999999" d="M98.2,607.9l-2.3,7.4h-1.8l-1.7-5c-0.2-0.5-0.3-1.1-0.5-1.7h0c-0.2,0.8-0.4,1.4-0.6,2.2l-1.4,4.6H88
		l-2.2-7.4c-0.4,0-0.8-0.1-1.1-0.2v-0.9h3.9v0.9c-0.4,0.1-0.8,0.2-1.2,0.2l1,3.8c0.2,0.7,0.4,1.4,0.5,1.9h0c0.2-0.7,0.4-1.4,0.6-2.1
		l1.5-4.8h1.6l1.5,4.8c0.3,1,0.5,1.5,0.6,2.1h0c0.2-0.6,0.3-1.1,0.5-1.9l1.1-3.9c-0.4,0-0.8-0.1-1.2-0.2v-0.9h3.8v0.9
		C98.9,607.8,98.6,607.9,98.2,607.9z"/>
</g>
<polyline fill="none" stroke="#999999" stroke-width="1.3" points="86.9,574.7 95.2,573.7 96.2,582 "/>
<polyline fill="#FFFFFF" stroke="#999999" stroke-width="1.3" points="95.3,594.9 99.5,599.1 95.3,603.3 "/>
<line fill="none" stroke="#999999" stroke-width="1.3" x1="99.5" y1="599.1" x2="83.7" y2="599.1"/>
<g enable-background="new    ">
	<path fill="#999999" d="M496.9,624.2l-2.3,7.4h-1.8l-1.7-5c-0.2-0.5-0.3-1.1-0.5-1.7h0c-0.2,0.8-0.4,1.4-0.6,2.2l-1.4,4.6h-1.8
		l-2.2-7.4c-0.4,0-0.8-0.1-1.1-0.2V623h3.9v0.9c-0.4,0.1-0.8,0.2-1.2,0.2l1,3.8c0.2,0.7,0.4,1.4,0.5,1.9h0c0.2-0.7,0.4-1.4,0.6-2.1
		l1.5-4.8h1.6l1.5,4.8c0.3,1,0.5,1.5,0.6,2.1h0c0.2-0.6,0.3-1.1,0.5-1.9l1.1-3.9c-0.4,0-0.8-0.1-1.2-0.2V623h3.8v0.9
		C497.7,624.1,497.3,624.1,496.9,624.2z"/>
</g>
<polyline fill="#FFFFFF" stroke="#999999" stroke-width="1.3" points="494.1,611.1 498.3,615.3 494.1,619.5 "/>
<line fill="none" stroke="#999999" stroke-width="1.3" x1="498.3" y1="615.3" x2="482.4" y2="615.3"/>
<g enable-background="new    ">
	<path fill="#999999" d="M544.8,631.9c0-0.5,0-1.3,0.1-1.8h0c-0.5,1.2-1.5,2-3,2c-2,0-2.6-1.2-2.6-2.7v-4.8c-0.4-0.1-1-0.1-1.4-0.2
		v-0.9c0.8-0.1,2-0.2,3-0.1v5.5c0,1.2,0.3,1.9,1.5,1.9c1.4,0,2.4-1.4,2.4-3.3v-2.9c-0.4-0.1-0.9-0.1-1.4-0.2v-0.9
		c0.8-0.1,2-0.2,2.9-0.1v7.3c0.4,0.1,1,0.1,1.4,0.2v0.9C546.9,631.9,545.7,631.9,544.8,631.9z"/>
</g>
<polyline fill="#FFFFFF" stroke="#999999" stroke-width="1.3" points="546.4,611.4 550.6,615.6 546.4,619.8 "/>
<line fill="none" stroke="#999999" stroke-width="1.3" x1="550.6" y1="615.6" x2="534.7" y2="615.6"/>
<g enable-background="new    ">
	<path fill="#999999" d="M588.7,624.5l-2.7,7.4h-1.9l-2.7-7.4c-0.4,0-0.8-0.1-1.1-0.2v-0.9h4v0.9c-0.4,0.1-0.8,0.2-1.2,0.2l1.4,4.2
		c0.2,0.6,0.4,1.1,0.5,1.7h0c0.2-0.6,0.3-1.1,0.5-1.6l1.5-4.2c-0.4,0-0.8-0.1-1.2-0.2v-0.9h3.9v0.9
		C589.5,624.4,589.1,624.4,588.7,624.5z"/>
</g>
<polyline fill="#FFFFFF" stroke="#999999" stroke-width="1.3" points="589,611.4 593.4,615.6 589,619.8 "/>
<line fill="none" stroke="#999999" stroke-width="1.3" x1="593.4" y1="615.6" x2="577.4" y2="615.6"/>
<text transform="matrix(1 0 0 1 514.0322 632.5347)" font-family="'ArialMT'" font-size="17.2125">=</text>
<text transform="matrix(1 0 0 1 561.8262 632.5347)" font-family="'ArialMT'" font-size="17.2125">-</text>
<line fill="none" stroke="#999999" stroke-width="1.3" x1="62.3" y1="623.1" x2="171.1" y2="660.3"/>
<polyline fill="none" stroke="#999999" stroke-width="1.3" points="167.7,652.5 170.7,660.3 162.9,663.3 "/>
<polyline fill="none" stroke="#999999" stroke-width="1.3" points="215.3,710 214,718.3 205.7,717 "/>
</svg>
