<?xml version="1.0" encoding="utf-8"?>
<!-- Generator: Adobe Illustrator 18.0.0, SVG Export Plug-In . SVG Version: 6.00 Build 0)  -->
<!DOCTYPE svg PUBLIC "-//W3C//DTD SVG 1.1//EN" "http://www.w3.org/Graphics/SVG/1.1/DTD/svg11.dtd">
<svg version="1.1" id="Layer_1" xmlns="http://www.w3.org/2000/svg" xmlns:xlink="http://www.w3.org/1999/xlink" x="0px" y="0px"
	 viewBox="0 0 640 480" enable-background="new 0 0 640 480" xml:space="preserve">
<circle cx="105.6" cy="124.8" r="5.8"/>
<text transform="matrix(1 0 0 1 102.167 231.833)" fill="#999999" font-family="'TheSerif-HP5Plain'" font-size="18">u</text>
<line fill="none" stroke="#000000" stroke-width="1.3" stroke-dasharray="20,5" x1="55.3" y1="124.5" x2="103.5" y2="124.5"/>
<line fill="none" stroke="#000000" stroke-width="1.3" stroke-dasharray="20,5" x1="55.4" y1="130.4" x2="55.4" y2="178.6"/>
<text transform="matrix(1 0 0 1 72.0059 105.0439)" font-family="'TheSerif-HP5Plain'" font-size="18">2</text>
<polyline fill="#FFFFFF" stroke="#999999" stroke-width="1.3" points="111.4,210.4 115.8,214.8 111.4,219.2 "/>
<line fill="#FFFFFF" stroke="#999999" stroke-width="1.3" x1="115.8" y1="214.8" x2="99.2" y2="214.8"/>
<text transform="matrix(1 0 0 1 154.833 173.834)" fill="#999999" font-family="'TheSerif-HP5Plain'" font-size="18">-v</text>
<polyline fill="#FFFFFF" stroke="#999999" stroke-width="1.3" points="167,152.4 171.5,156.8 167,161.2 "/>
<line fill="#FFFFFF" stroke="#999999" stroke-width="1.3" x1="171.5" y1="156.8" x2="154.8" y2="156.8"/>
<text transform="matrix(1 0 0 1 212.833 253.834)" fill="#999999" font-family="'TheSerif-HP5Plain'" font-size="18">+v</text>
<polyline fill="#FFFFFF" stroke="#999999" stroke-width="1.3" points="227,232.4 231.5,236.8 227,241.2 "/>
<line fill="#FFFFFF" stroke="#999999" stroke-width="1.3" x1="231.5" y1="236.8" x2="214.8" y2="236.8"/>
<text transform="matrix(1 0 0 1 28.1064 154.9736)" font-family="'TheSerif-HP5Plain'" font-size="18">-2</text>
<circle cx="54.9" cy="177.7" r="5.8"/>
<line fill="none" stroke="#999999" stroke-width="1.3" x1="110.4" y1="133.8" x2="177.1" y2="221.7"/>
<line fill="none" stroke="#999999" stroke-width="1.3" stroke-dasharray="4,4" x1="178.1" y1="222.7" x2="223.6" y2="282.8"/>
<polyline fill="none" stroke="#999999" stroke-width="1.3" points="109,142.2 110.3,133.5 118.9,134.9 "/>
<line fill="none" stroke="#999999" stroke-width="1.3" x1="60.8" y1="173.2" x2="99.1" y2="132.6"/>
<text transform="matrix(1 0 0 1 88.5 175.5)" fill="#999999" font-family="'TheSerif-HP5Plain'" font-size="18">w</text>
<polyline fill="none" stroke="#999999" stroke-width="1.3" points="90.9,133 99.6,132 100.6,140.7 "/>
<polyline fill="#FFFFFF" stroke="#999999" stroke-width="1.3" points="99.7,154.1 104.1,158.5 99.7,162.9 "/>
<line fill="#FFFFFF" stroke="#999999" stroke-width="1.3" x1="104.1" y1="158.5" x2="87.5" y2="158.5"/>
<text transform="matrix(1 0 0 1 505.5 192.5)" fill="#999999" font-family="'TheSerif-HP5Plain'" font-size="18">w</text>
<polyline fill="#FFFFFF" stroke="#999999" stroke-width="1.3" points="516.7,171.1 521.1,175.5 516.7,179.9 "/>
<line fill="#FFFFFF" stroke="#999999" stroke-width="1.3" x1="521.1" y1="175.5" x2="504.5" y2="175.5"/>
<text transform="matrix(1 0 0 1 562.167 192.833)" fill="#999999" font-family="'TheSerif-HP5Plain'" font-size="18">u</text>
<polyline fill="#FFFFFF" stroke="#999999" stroke-width="1.3" points="571.4,171.4 575.8,175.8 571.4,180.2 "/>
<line fill="#FFFFFF" stroke="#999999" stroke-width="1.3" x1="575.8" y1="175.8" x2="559.2" y2="175.8"/>
<text transform="matrix(1 0 0 1 606.833 192.834)" fill="#999999" font-family="'TheSerif-HP5Plain'" font-size="18">v</text>
<polyline fill="#FFFFFF" stroke="#999999" stroke-width="1.3" points="616,171.4 620.5,175.8 616,180.2 "/>
<line fill="#FFFFFF" stroke="#999999" stroke-width="1.3" x1="620.5" y1="175.8" x2="603.8" y2="175.8"/>
<text transform="matrix(1 0 0 1 537.5503 193.5)" font-family="'TheSerif-HP5Plain'" font-size="18">=</text>
<text transform="matrix(1 0 0 1 587.5303 193.5)" font-family="'TheSerif-HP5Plain'" font-size="18">-</text>
<line fill="none" stroke="#999999" stroke-width="1.3" x1="65.1" y1="183.6" x2="178.9" y2="222.5"/>
<polyline fill="none" stroke="#999999" stroke-width="1.3" points="175.4,214.4 178.5,222.5 170.4,225.7 "/>
<polyline fill="none" stroke="#999999" stroke-width="1.3" points="225.1,274.5 223.8,283.2 215.1,281.8 "/>
</svg>
