<?xml version="1.0" encoding="utf-8"?>
<!-- Generator: Adobe Illustrator 17.1.0, SVG Export Plug-In . SVG Version: 6.00 Build 0)  -->
<!DOCTYPE svg PUBLIC "-//W3C//DTD SVG 1.1//EN" "http://www.w3.org/Graphics/SVG/1.1/DTD/svg11.dtd">
<svg version="1.1" id="Layer_1" xmlns="http://www.w3.org/2000/svg" xmlns:xlink="http://www.w3.org/1999/xlink" x="0px" y="0px"
	 viewBox="0 237 612 230" enable-background="new 0 237 612 230" xml:space="preserve">
<circle cx="101" cy="285.8" r="5.5"/>
<text transform="matrix(1 0 0 1 97.6973 388.1904)" fill="#999999" font-family="'ArialMT'" font-size="17.2125">u</text>
<line fill="none" stroke="#000000" stroke-width="1.3" stroke-dasharray="20,5" x1="52.9" y1="285.6" x2="99" y2="285.6"/>
<line fill="none" stroke="#000000" stroke-width="1.3" stroke-dasharray="20,5" x1="53" y1="291.2" x2="53" y2="337.3"/>
<text transform="matrix(1 0 0 1 68.856 266.9487)" font-family="'ArialMT'" font-size="17.2125">2</text>
<polyline fill="#FFFFFF" stroke="#999999" stroke-width="1.3" points="106.5,367.7 110.7,371.9 106.5,376.1 "/>
<line fill="none" stroke="#999999" stroke-width="1.3" x1="110.7" y1="371.9" x2="94.9" y2="371.9"/>
<text transform="matrix(1 0 0 1 148.0591 332.729)" fill="#999999" font-family="'ArialMT'" font-size="17.2125">-v</text>
<polyline fill="#FFFFFF" stroke="#999999" stroke-width="1.3" points="159.7,312.2 164,316.4 159.7,320.6 "/>
<line fill="none" stroke="#999999" stroke-width="1.3" x1="164" y1="316.4" x2="148" y2="316.4"/>
<text transform="matrix(1 0 0 1 203.5215 409.2295)" fill="#999999" font-family="'ArialMT'" font-size="17.2125">+v</text>
<polyline fill="#FFFFFF" stroke="#999999" stroke-width="1.3" points="217.1,388.7 221.4,392.9 217.1,397.1 "/>
<line fill="none" stroke="#999999" stroke-width="1.3" x1="221.4" y1="392.9" x2="205.4" y2="392.9"/>
<text transform="matrix(1 0 0 1 26.877 314.6938)" font-family="'ArialMT'" font-size="17.2125">-2</text>
<circle cx="52.5" cy="336.4" r="5.5"/>
<line fill="none" stroke="#999999" stroke-width="1.3" x1="105.6" y1="294.4" x2="169.4" y2="378.5"/>
<line fill="none" stroke="#999999" stroke-width="1.3" stroke-dasharray="4,4" x1="170.3" y1="379.5" x2="213.8" y2="436.9"/>
<polyline fill="none" stroke="#999999" stroke-width="1.3" points="104.2,302.5 105.5,294.2 113.7,295.5 "/>
<line fill="none" stroke="#999999" stroke-width="1.3" x1="58.1" y1="332.1" x2="94.8" y2="293.3"/>
<text transform="matrix(1 0 0 1 84.6284 334.3223)" fill="#999999" font-family="'ArialMT'" font-size="17.2125">w</text>
<polyline fill="none" stroke="#999999" stroke-width="1.3" points="86.9,293.7 95.2,292.7 96.2,301 "/>
<polyline fill="#FFFFFF" stroke="#999999" stroke-width="1.3" points="95.3,313.9 99.5,318.1 95.3,322.3 "/>
<line fill="none" stroke="#999999" stroke-width="1.3" x1="99.5" y1="318.1" x2="83.7" y2="318.1"/>
<text transform="matrix(1 0 0 1 483.3848 350.5786)" fill="#999999" font-family="'ArialMT'" font-size="17.2125">w</text>
<polyline fill="#FFFFFF" stroke="#999999" stroke-width="1.3" points="494.1,330.1 498.3,334.3 494.1,338.5 "/>
<line fill="none" stroke="#999999" stroke-width="1.3" x1="498.3" y1="334.3" x2="482.4" y2="334.3"/>
<text transform="matrix(1 0 0 1 537.5723 350.897)" fill="#999999" font-family="'ArialMT'" font-size="17.2125">u</text>
<polyline fill="#FFFFFF" stroke="#999999" stroke-width="1.3" points="546.4,330.4 550.6,334.6 546.4,338.8 "/>
<line fill="none" stroke="#999999" stroke-width="1.3" x1="550.6" y1="334.6" x2="534.7" y2="334.6"/>
<text transform="matrix(1 0 0 1 580.2842 350.8979)" fill="#999999" font-family="'ArialMT'" font-size="17.2125">v</text>
<polyline fill="#FFFFFF" stroke="#999999" stroke-width="1.3" points="589,330.4 593.4,334.6 589,338.8 "/>
<line fill="none" stroke="#999999" stroke-width="1.3" x1="593.4" y1="334.6" x2="577.4" y2="334.6"/>
<text transform="matrix(1 0 0 1 514.0322 351.5347)" font-family="'ArialMT'" font-size="17.2125">=</text>
<text transform="matrix(1 0 0 1 561.8262 351.5347)" font-family="'ArialMT'" font-size="17.2125">-</text>
<line fill="none" stroke="#999999" stroke-width="1.3" x1="62.3" y1="342.1" x2="171.1" y2="379.3"/>
<polyline fill="none" stroke="#999999" stroke-width="1.3" points="167.7,371.5 170.7,379.3 162.9,382.3 "/>
<polyline fill="none" stroke="#999999" stroke-width="1.3" points="215.3,429 214,437.3 205.7,436 "/>
</svg>
