<?xml version="1.0" encoding="utf-8"?>
<!-- Generator: Adobe Illustrator 18.0.0, SVG Export Plug-In . SVG Version: 6.00 Build 0)  -->
<!DOCTYPE svg PUBLIC "-//W3C//DTD SVG 1.1//EN" "http://www.w3.org/Graphics/SVG/1.1/DTD/svg11.dtd">
<svg version="1.1" id="Layer_1" xmlns="http://www.w3.org/2000/svg" xmlns:xlink="http://www.w3.org/1999/xlink" x="0px" y="0px"
	 viewBox="0 0 640 480" enable-background="new 0 0 640 480" xml:space="preserve">
<circle cx="117.6" cy="89.6" r="5.8"/>
<line fill="none" stroke="#999999" stroke-width="1.3" x1="125.4" y1="95.8" x2="239.2" y2="134.7"/>
<text transform="matrix(1 0 0 1 170.5 148.5)" fill="#999999" font-family="'TheSerif-HP5Plain'" font-size="18">u</text>
<line fill="none" stroke="#000000" stroke-width="1.3" stroke-dasharray="20,5" x1="129.3" y1="89.5" x2="251.5" y2="89.5"/>
<line fill="none" stroke="#000000" stroke-width="1.3" stroke-dasharray="20,5" x1="249.5" y1="94.5" x2="249.5" y2="143"/>
<circle cx="249.5" cy="139.2" r="5.8"/>
<text transform="matrix(1 0 0 1 262.5498 116.5)" font-family="'TheSerif-HP5Plain'" font-size="18">2</text>
<polyline fill="none" stroke="#999999" stroke-width="1.3" points="235.7,126.6 238.8,134.7 230.7,137.9 "/>
<polyline fill="#FFFFFF" stroke="#999999" stroke-width="1.3" points="179.7,127.1 184.1,131.5 179.7,135.9 "/>
<line fill="#FFFFFF" stroke="#999999" stroke-width="1.3" x1="184.1" y1="131.5" x2="167.5" y2="131.5"/>
<text transform="matrix(1 0 0 1 440.5 159.5)" fill="#999999" font-family="'TheSerif-HP5Plain'" font-size="18">v</text>
<polyline fill="#FFFFFF" stroke="#999999" stroke-width="1.3" points="449.7,138.1 454.1,142.5 449.7,146.9 "/>
<line fill="#FFFFFF" stroke="#999999" stroke-width="1.3" x1="454.1" y1="142.5" x2="437.5" y2="142.5"/>
<text transform="matrix(1 0 0 1 182.5498 69.5)" font-family="'TheSerif-HP5Plain'" font-size="18">5</text>
<circle cx="427.6" cy="89.6" r="5.8"/>
<line fill="none" stroke="#999999" stroke-width="1.3" x1="435.4" y1="95.8" x2="502.1" y2="183.7"/>
<line fill="none" stroke="#000000" stroke-width="1.3" stroke-dasharray="20,5" x1="439.3" y1="89.5" x2="512.5" y2="89.5"/>
<line fill="none" stroke="#000000" stroke-width="1.3" stroke-dasharray="20,5" x1="509.5" y1="94.5" x2="509.5" y2="193"/>
<circle cx="510.5" cy="189.7" r="5.8"/>
<text transform="matrix(1 0 0 1 522.5498 146.5)" font-family="'TheSerif-HP5Plain'" font-size="18">4</text>
<polyline fill="none" stroke="#999999" stroke-width="1.3" points="503.5,175.3 502.1,183.9 493.5,182.6 "/>
<text transform="matrix(1 0 0 1 462.5498 69.5)" font-family="'TheSerif-HP5Plain'" font-size="18">3</text>
</svg>
