<?xml version="1.0" encoding="utf-8"?>
<!-- Generator: Adobe Illustrator 17.1.0, SVG Export Plug-In . SVG Version: 6.00 Build 0)  -->
<!DOCTYPE svg PUBLIC "-//W3C//DTD SVG 1.1//EN" "http://www.w3.org/Graphics/SVG/1.1/DTD/svg11.dtd">
<svg version="1.1" id="Layer_1" xmlns="http://www.w3.org/2000/svg" xmlns:xlink="http://www.w3.org/1999/xlink" x="0px" y="0px"
	 viewBox="0 192 612 190" enable-background="new 0 192 612 190" xml:space="preserve">
<circle cx="112.5" cy="252.2" r="5.5"/>
<line fill="none" stroke="#999999" stroke-width="1.3" x1="119.9" y1="258.1" x2="228.7" y2="295.3"/>
<text transform="matrix(1 0 0 1 163.041 308.5034)" fill="#999999" font-family="'ArialMT'" font-size="17.2125">u</text>
<line fill="none" stroke="#000000" stroke-width="1.3" stroke-dasharray="20,5" x1="123.6" y1="252.1" x2="240.5" y2="252.1"/>
<line fill="none" stroke="#000000" stroke-width="1.3" stroke-dasharray="20,5" x1="238.6" y1="256.9" x2="238.6" y2="303.2"/>
<circle cx="238.6" cy="299.6" r="5.5"/>
<text transform="matrix(1 0 0 1 251.0635 277.9033)" font-family="'ArialMT'" font-size="17.2125">2</text>
<polyline fill="none" stroke="#999999" stroke-width="1.3" points="225.4,287.6 228.4,295.3 220.6,298.4 "/>
<polyline fill="#FFFFFF" stroke="#999999" stroke-width="1.3" points="171.8,288 176,292.2 171.8,296.5 "/>
<line fill="none" stroke="#999999" stroke-width="1.3" x1="176" y1="292.2" x2="160.2" y2="292.2"/>
<text transform="matrix(1 0 0 1 421.2285 319.022)" fill="#999999" font-family="'ArialMT'" font-size="17.2125">v</text>
<polyline fill="#FFFFFF" stroke="#999999" stroke-width="1.3" points="430,298.6 434.2,302.8 430,307 "/>
<line fill="none" stroke="#999999" stroke-width="1.3" x1="434.2" y1="302.8" x2="418.4" y2="302.8"/>
<text transform="matrix(1 0 0 1 174.5635 232.9595)" font-family="'ArialMT'" font-size="17.2125">5</text>
<circle cx="408.9" cy="252.2" r="5.5"/>
<line fill="none" stroke="#999999" stroke-width="1.3" x1="416.4" y1="258.1" x2="480.1" y2="342.2"/>
<line fill="none" stroke="#000000" stroke-width="1.3" stroke-dasharray="20,5" x1="420.1" y1="252.1" x2="490.1" y2="252.1"/>
<line fill="none" stroke="#000000" stroke-width="1.3" stroke-dasharray="20,5" x1="487.2" y1="256.9" x2="487.2" y2="351.1"/>
<circle cx="488.2" cy="347.9" r="5.5"/>
<text transform="matrix(1 0 0 1 499.6885 306.5908)" font-family="'ArialMT'" font-size="17.2125">4</text>
<polyline fill="none" stroke="#999999" stroke-width="1.3" points="481.5,334.1 480.1,342.4 471.9,341.1 "/>
<text transform="matrix(1 0 0 1 442.3135 232.9595)" font-family="'ArialMT'" font-size="17.2125">3</text>
</svg>
