<?xml version="1.0" encoding="utf-8"?>
<!-- Generator: Adobe Illustrator 16.0.4, SVG Export Plug-In . SVG Version: 6.00 Build 0)  -->
<!DOCTYPE svg PUBLIC "-//W3C//DTD SVG 1.1//EN" "http://www.w3.org/Graphics/SVG/1.1/DTD/svg11.dtd">
<svg version="1.1" id="Layer_1" xmlns="http://www.w3.org/2000/svg" xmlns:xlink="http://www.w3.org/1999/xlink" x="0px" y="0px"
	 width="550px" height="145px" viewBox="0 0 550 145" enable-background="new 0 0 550 145" xml:space="preserve">
<g>
	<path fill="none" stroke="#CCCCCC" stroke-width="1.5" d="M104.559,66.731c36.569-33.135,56.41-32.986,63.767-32.986"/>
	<path fill="none" stroke="#CCCCCC" stroke-width="1.5" d="M445.102,33.745c-4.975,0-28.834-0.827-69.589,37.918
		c-39.809,37.841-61.137,37.68-68.826,37.68"/>
	<path fill="none" stroke="#CCCCCC" stroke-width="1.5" d="M306.741,109.343c-4.975,0-28.836,0.826-69.591-37.918
		c-39.808-37.841-61.133-37.68-68.825-37.68"/>
</g>
<line fill="none" stroke="#CCCCCC" stroke-width="0.75" x1="104.902" y1="24.294" x2="445.102" y2="24.294"/>
<line fill="none" stroke="#CCCCCC" stroke-width="0.75" x1="104.902" y1="71.544" x2="445.102" y2="71.544"/>
<g>
	<g>
		<path d="M131.823,13.793v-0.567c0.241-0.052,0.546-0.105,0.818-0.126l-0.504-3.632c-0.104-0.777-0.178-1.344-0.21-1.774h-0.021
			c-0.074,0.347-0.168,0.767-0.326,1.229l-1.68,4.871h-0.892l-1.606-4.63c-0.189-0.556-0.315-1.05-0.409-1.47h-0.021
			c-0.021,0.557-0.094,1.166-0.168,1.816l-0.43,3.59c0.284,0.021,0.578,0.074,0.819,0.126v0.567h-2.446v-0.567
			c0.179-0.042,0.462-0.105,0.651-0.116l0.829-5.7c-0.315-0.021-0.63-0.073-0.903-0.137V6.708h2.247l1.512,4.314
			c0.147,0.409,0.305,0.977,0.409,1.417h0.011c0.115-0.472,0.231-0.892,0.389-1.364l1.522-4.367h2.268v0.566
			c-0.273,0.063-0.588,0.116-0.903,0.137l0.851,5.7c0.199,0.011,0.472,0.074,0.65,0.116v0.567H131.823z"/>
		<path d="M134.732,13.793v-0.567c0.273-0.063,0.599-0.116,0.914-0.136V9.321c-0.252-0.042-0.609-0.084-0.914-0.105V8.649
			c0.525-0.063,1.25-0.105,1.858-0.074v4.515c0.305,0.021,0.619,0.073,0.882,0.136v0.567H134.732z M136.129,7.537
			c-0.347,0-0.63-0.263-0.63-0.609s0.283-0.62,0.63-0.62c0.336,0,0.619,0.273,0.619,0.62C136.748,7.264,136.465,7.537,136.129,7.537
			z"/>
		<path d="M142.197,13.793v-3.359c0-0.735-0.199-1.176-0.882-1.176c-0.861,0-1.491,0.882-1.491,2.037v1.795
			c0.284,0.021,0.588,0.062,0.84,0.136v0.567h-2.698v-0.567c0.272-0.063,0.598-0.116,0.913-0.136V9.321
			c-0.252-0.042-0.609-0.084-0.913-0.105V8.649c0.524-0.063,1.249-0.105,1.826-0.074c0,0.305-0.021,0.788-0.073,1.103h0.011
			c0.304-0.714,0.955-1.197,1.848-1.197c1.186,0,1.564,0.746,1.564,1.669v2.939c0.304,0.021,0.62,0.073,0.872,0.136v0.567H142.197z"
			/>
		<path d="M144.508,13.793v-0.567c0.273-0.063,0.599-0.116,0.914-0.136V9.321c-0.252-0.042-0.609-0.084-0.914-0.105V8.649
			c0.525-0.063,1.25-0.105,1.858-0.074v4.515c0.305,0.021,0.619,0.073,0.882,0.136v0.567H144.508z M145.904,7.537
			c-0.347,0-0.63-0.263-0.63-0.609s0.283-0.62,0.63-0.62c0.336,0,0.619,0.273,0.619,0.62C146.523,7.264,146.24,7.537,145.904,7.537z
			"/>
		<path d="M155.153,13.793v-3.349c0-0.714-0.168-1.187-0.84-1.187c-0.745,0-1.47,0.787-1.47,2.058v1.774
			c0.294,0.021,0.588,0.062,0.851,0.136v0.567h-1.785v-3.349c0-0.662-0.136-1.187-0.85-1.187c-0.788,0-1.459,0.861-1.459,2.058
			v1.774c0.284,0.021,0.588,0.062,0.84,0.136v0.567h-2.698v-0.567c0.272-0.063,0.598-0.116,0.913-0.136V9.321
			c-0.252-0.042-0.609-0.084-0.913-0.105V8.649c0.524-0.063,1.26-0.105,1.837-0.074c0,0.305-0.031,0.788-0.084,1.103l0.021,0.011
			c0.294-0.735,0.966-1.208,1.806-1.208c1.102,0,1.396,0.756,1.449,1.186c0.21-0.493,0.777-1.186,1.785-1.186
			c0.987,0,1.543,0.525,1.543,1.711v2.897c0.314,0.021,0.619,0.073,0.882,0.136v0.567H155.153z"/>
		<path d="M161.286,13.793c0-0.315,0.021-0.777,0.074-1.103h-0.021c-0.305,0.714-0.945,1.197-1.837,1.197
			c-1.197,0-1.564-0.746-1.564-1.669V9.321c-0.252-0.042-0.599-0.084-0.882-0.105V8.649c0.493-0.063,1.207-0.105,1.816-0.074v3.359
			c0,0.735,0.21,1.176,0.892,1.176c0.861,0,1.491-0.882,1.491-2.036V9.311c-0.241-0.032-0.567-0.074-0.851-0.095V8.649
			c0.515-0.063,1.208-0.105,1.785-0.074v4.473c0.252,0.042,0.598,0.084,0.882,0.104v0.567
			C162.578,13.783,161.854,13.825,161.286,13.793z"/>
		<path d="M170.977,13.793v-3.349c0-0.714-0.168-1.187-0.84-1.187c-0.745,0-1.47,0.787-1.47,2.058v1.774
			c0.294,0.021,0.588,0.062,0.851,0.136v0.567h-1.785v-3.349c0-0.662-0.136-1.187-0.85-1.187c-0.788,0-1.459,0.861-1.459,2.058
			v1.774c0.284,0.021,0.588,0.062,0.84,0.136v0.567h-2.698v-0.567c0.272-0.063,0.598-0.116,0.913-0.136V9.321
			c-0.252-0.042-0.609-0.084-0.913-0.105V8.649c0.524-0.063,1.26-0.105,1.837-0.074c0,0.305-0.031,0.788-0.084,1.103l0.021,0.011
			c0.294-0.735,0.966-1.208,1.806-1.208c1.102,0,1.396,0.756,1.449,1.186c0.21-0.493,0.777-1.186,1.785-1.186
			c0.987,0,1.543,0.525,1.543,1.711v2.897c0.314,0.021,0.619,0.073,0.882,0.136v0.567H170.977z"/>
		<path d="M178.223,13.856c-0.336,0-0.577-0.01-0.893-0.063v1.89c0.315,0.021,0.641,0.073,0.914,0.137v0.566h-2.729V15.82
			c0.273-0.063,0.556-0.116,0.872-0.137V9.321c-0.252-0.042-0.578-0.084-0.872-0.105V8.649c0.514-0.063,1.228-0.105,1.795-0.074
			c0,0.294-0.032,0.767-0.084,1.061l0.021,0.011c0.294-0.725,0.924-1.166,1.743-1.166c1.228,0,1.921,0.861,1.921,2.457
			C180.91,12.796,179.902,13.856,178.223,13.856z M178.758,9.258c-0.944,0-1.428,1.103-1.428,2.016v1.722
			c0.284,0.084,0.578,0.126,0.935,0.126c0.987,0,1.648-0.599,1.648-2.1C179.913,9.899,179.556,9.258,178.758,9.258z"/>
		<path d="M185.258,9.416c-1.197-0.199-1.732,0.609-1.732,2.278v1.396c0.315,0.021,0.641,0.073,0.913,0.136v0.567h-2.771v-0.567
			c0.273-0.063,0.599-0.116,0.914-0.136V9.321c-0.252-0.042-0.609-0.084-0.914-0.105V8.649c0.525-0.063,1.25-0.105,1.827-0.074
			c0,0.326-0.032,0.809-0.105,1.239h0.011c0.231-0.725,0.756-1.449,1.9-1.333L185.258,9.416z"/>
		<path d="M190.297,11.169h-3.412c-0.042,1.365,0.514,1.953,1.648,1.953c0.504,0,1.029-0.105,1.491-0.305l0.136,0.746
			c-0.525,0.21-1.155,0.326-1.806,0.326c-1.585,0-2.446-0.84-2.446-2.677c0-1.554,0.871-2.729,2.352-2.729
			c1.459,0,2.068,0.976,2.068,2.142C190.329,10.749,190.318,10.959,190.297,11.169z M188.197,9.195c-0.682,0-1.165,0.504-1.28,1.302
			h2.446C189.384,9.699,188.933,9.195,188.197,9.195z"/>
		<path d="M192.649,13.888c-0.409,0-0.882-0.042-1.228-0.137v-1.48h0.578c0.052,0.252,0.094,0.557,0.126,0.83
			c0.178,0.042,0.409,0.052,0.619,0.052c0.703,0,1.187-0.314,1.187-0.818c0-1.155-2.625-0.473-2.625-2.289
			c0-0.892,0.735-1.564,2.1-1.564c0.368,0,0.809,0.052,1.208,0.147v1.428h-0.578c-0.062-0.263-0.104-0.557-0.126-0.819
			c-0.178-0.042-0.388-0.063-0.588-0.063c-0.703,0-1.06,0.294-1.06,0.767c0,1.176,2.614,0.524,2.614,2.257
			C194.875,13.143,194.035,13.888,192.649,13.888z"/>
		<path d="M197.228,13.888c-0.409,0-0.882-0.042-1.228-0.137v-1.48h0.578c0.052,0.252,0.094,0.557,0.126,0.83
			c0.178,0.042,0.409,0.052,0.619,0.052c0.703,0,1.187-0.314,1.187-0.818c0-1.155-2.625-0.473-2.625-2.289
			c0-0.892,0.735-1.564,2.1-1.564c0.368,0,0.809,0.052,1.208,0.147v1.428h-0.578c-0.062-0.263-0.104-0.557-0.126-0.819
			c-0.178-0.042-0.388-0.063-0.588-0.063c-0.703,0-1.06,0.294-1.06,0.767c0,1.176,2.614,0.524,2.614,2.257
			C199.453,13.143,198.613,13.888,197.228,13.888z"/>
		<path d="M204.388,13.793c0-0.315,0.021-0.777,0.074-1.103h-0.021c-0.305,0.714-0.945,1.197-1.837,1.197
			c-1.197,0-1.564-0.746-1.564-1.669V9.321c-0.252-0.042-0.599-0.084-0.882-0.105V8.649c0.493-0.063,1.207-0.105,1.816-0.074v3.359
			c0,0.735,0.21,1.176,0.892,1.176c0.861,0,1.491-0.882,1.491-2.036V9.311c-0.241-0.032-0.567-0.074-0.851-0.095V8.649
			c0.515-0.063,1.208-0.105,1.785-0.074v4.473c0.252,0.042,0.598,0.084,0.882,0.104v0.567
			C205.679,13.783,204.955,13.825,204.388,13.793z"/>
		<path d="M210.258,9.416c-1.197-0.199-1.732,0.609-1.732,2.278v1.396c0.315,0.021,0.641,0.073,0.913,0.136v0.567h-2.771v-0.567
			c0.273-0.063,0.599-0.116,0.914-0.136V9.321c-0.252-0.042-0.609-0.084-0.914-0.105V8.649c0.525-0.063,1.25-0.105,1.827-0.074
			c0,0.326-0.032,0.809-0.105,1.239h0.011c0.231-0.725,0.756-1.449,1.9-1.333L210.258,9.416z"/>
		<path d="M215.297,11.169h-3.412c-0.042,1.365,0.514,1.953,1.648,1.953c0.504,0,1.029-0.105,1.491-0.305l0.136,0.746
			c-0.525,0.21-1.155,0.326-1.806,0.326c-1.585,0-2.446-0.84-2.446-2.677c0-1.554,0.871-2.729,2.352-2.729
			c1.459,0,2.068,0.976,2.068,2.142C215.329,10.749,215.318,10.959,215.297,11.169z M213.197,9.195c-0.682,0-1.165,0.504-1.28,1.302
			h2.446C214.384,9.699,213.933,9.195,213.197,9.195z"/>
	</g>
</g>
<g>
	<g>
		<path d="M269.457,135.018v-0.567c0.241-0.052,0.546-0.105,0.818-0.126l-0.504-3.632c-0.104-0.777-0.178-1.344-0.21-1.774h-0.021
			c-0.074,0.347-0.168,0.767-0.326,1.229l-1.68,4.871h-0.892l-1.606-4.63c-0.189-0.556-0.315-1.05-0.409-1.47h-0.021
			c-0.021,0.557-0.094,1.166-0.168,1.816l-0.43,3.59c0.284,0.021,0.578,0.074,0.819,0.126v0.567h-2.446v-0.567
			c0.179-0.042,0.462-0.105,0.651-0.116l0.829-5.7c-0.315-0.021-0.63-0.073-0.903-0.137v-0.566h2.247l1.512,4.314
			c0.147,0.409,0.305,0.977,0.409,1.417h0.011c0.115-0.472,0.231-0.892,0.389-1.364l1.522-4.367h2.268v0.566
			c-0.273,0.063-0.588,0.116-0.903,0.137l0.851,5.7c0.199,0.011,0.472,0.074,0.65,0.116v0.567H269.457z"/>
		<path d="M275.705,135.018c0-0.367,0.01-0.745,0.062-1.039h-0.021c-0.252,0.64-0.914,1.134-1.774,1.134s-1.449-0.536-1.449-1.375
			c0-1.124,1.166-1.785,3.128-1.785v-0.389c0-0.734-0.263-1.144-1.092-1.144c-0.315,0-0.683,0.052-0.977,0.147
			c-0.021,0.263-0.073,0.557-0.126,0.851h-0.588v-1.428c0.525-0.168,1.155-0.294,1.774-0.294c1.533,0,1.963,0.703,1.963,1.742v2.835
			c0.252,0.042,0.599,0.084,0.882,0.104v0.567C276.996,135.007,276.271,135.049,275.705,135.018z M275.652,132.604
			c-1.638,0-2.205,0.41-2.205,0.987c0,0.451,0.315,0.777,0.798,0.777c0.84,0,1.407-0.83,1.407-1.648V132.604z"/>
		<path d="M281.627,135.018l-1.155-1.963l-1.144,1.963h-1.564v-0.577c0.305-0.063,0.608-0.126,0.893-0.147l1.28-1.89l-1.207-1.879
			c-0.284-0.021-0.588-0.084-0.882-0.147V129.8h1.596l1.102,1.911l1.135-1.911h1.521v0.578c-0.305,0.063-0.608,0.126-0.893,0.147
			l-1.176,1.837l1.26,1.932c0.284,0.021,0.578,0.084,0.883,0.147v0.577H281.627z"/>
		<path d="M283.675,135.018v-0.567c0.272-0.063,0.599-0.116,0.913-0.136v-3.769c-0.252-0.042-0.609-0.084-0.913-0.105v-0.567
			c0.524-0.063,1.249-0.105,1.858-0.074v4.515c0.304,0.021,0.619,0.073,0.881,0.136v0.567H283.675z M285.07,128.761
			c-0.346,0-0.629-0.263-0.629-0.609s0.283-0.62,0.629-0.62c0.336,0,0.62,0.273,0.62,0.62
			C285.69,128.488,285.406,128.761,285.07,128.761z"/>
		<path d="M294.32,135.018v-3.349c0-0.714-0.168-1.187-0.84-1.187c-0.745,0-1.47,0.787-1.47,2.058v1.774
			c0.294,0.021,0.588,0.062,0.851,0.136v0.567h-1.785v-3.349c0-0.662-0.136-1.187-0.85-1.187c-0.787,0-1.459,0.861-1.459,2.058
			v1.774c0.283,0.021,0.588,0.062,0.84,0.136v0.567h-2.698v-0.567c0.272-0.063,0.599-0.116,0.913-0.136v-3.769
			c-0.252-0.042-0.609-0.084-0.913-0.105v-0.567c0.524-0.063,1.26-0.105,1.837-0.074c0,0.305-0.031,0.788-0.084,1.103l0.021,0.011
			c0.293-0.735,0.965-1.208,1.805-1.208c1.103,0,1.396,0.756,1.449,1.186c0.21-0.493,0.777-1.186,1.785-1.186
			c0.986,0,1.543,0.525,1.543,1.711v2.897c0.314,0.021,0.619,0.073,0.882,0.136v0.567H294.32z"/>
		<path d="M300.453,135.018c0-0.315,0.021-0.777,0.073-1.103h-0.021c-0.305,0.714-0.945,1.197-1.838,1.197
			c-1.196,0-1.564-0.746-1.564-1.669v-2.897c-0.252-0.042-0.598-0.084-0.881-0.105v-0.567c0.493-0.063,1.207-0.105,1.815-0.074
			v3.359c0,0.735,0.21,1.176,0.893,1.176c0.86,0,1.491-0.882,1.491-2.036v-1.764c-0.242-0.032-0.567-0.074-0.851-0.095v-0.567
			c0.515-0.063,1.207-0.105,1.784-0.074v4.473c0.252,0.042,0.599,0.084,0.882,0.104v0.567
			C301.744,135.007,301.02,135.049,300.453,135.018z"/>
		<path d="M310.144,135.018v-3.349c0-0.714-0.168-1.187-0.84-1.187c-0.745,0-1.47,0.787-1.47,2.058v1.774
			c0.294,0.021,0.588,0.062,0.851,0.136v0.567H306.9v-3.349c0-0.662-0.137-1.187-0.851-1.187c-0.788,0-1.46,0.861-1.46,2.058v1.774
			c0.284,0.021,0.588,0.062,0.84,0.136v0.567h-2.697v-0.567c0.272-0.063,0.598-0.116,0.913-0.136v-3.769
			c-0.252-0.042-0.608-0.084-0.913-0.105v-0.567c0.524-0.063,1.26-0.105,1.837-0.074c0,0.305-0.031,0.788-0.084,1.103l0.021,0.011
			c0.295-0.735,0.967-1.208,1.807-1.208c1.102,0,1.396,0.756,1.448,1.186c0.21-0.493,0.776-1.186,1.784-1.186
			c0.987,0,1.544,0.525,1.544,1.711v2.897c0.314,0.021,0.619,0.073,0.882,0.136v0.567H310.144z"/>
		<path d="M317.389,135.081c-0.336,0-0.577-0.01-0.892-0.063v1.89c0.314,0.021,0.64,0.073,0.913,0.137v0.566h-2.729v-0.566
			c0.272-0.063,0.557-0.116,0.871-0.137v-6.362c-0.252-0.042-0.577-0.084-0.871-0.105v-0.567c0.515-0.063,1.229-0.105,1.795-0.074
			c0,0.294-0.031,0.767-0.084,1.061l0.021,0.011c0.294-0.725,0.924-1.166,1.742-1.166c1.229,0,1.921,0.861,1.921,2.457
			C320.076,134.021,319.068,135.081,317.389,135.081z M317.925,130.483c-0.945,0-1.428,1.103-1.428,2.016v1.722
			c0.283,0.084,0.577,0.126,0.935,0.126c0.986,0,1.647-0.599,1.647-2.1C319.079,131.124,318.723,130.483,317.925,130.483z"/>
		<path d="M324.424,130.64c-1.196-0.199-1.732,0.609-1.732,2.278v1.396c0.315,0.021,0.641,0.073,0.914,0.136v0.567h-2.771v-0.567
			c0.272-0.063,0.598-0.116,0.913-0.136v-3.769c-0.252-0.042-0.608-0.084-0.913-0.105v-0.567c0.524-0.063,1.249-0.105,1.826-0.074
			c0,0.326-0.031,0.809-0.104,1.239h0.011c0.23-0.725,0.756-1.449,1.899-1.333L324.424,130.64z"/>
		<path d="M329.464,132.394h-3.411c-0.043,1.365,0.514,1.953,1.647,1.953c0.504,0,1.029-0.105,1.491-0.305l0.137,0.746
			c-0.525,0.21-1.155,0.326-1.807,0.326c-1.585,0-2.445-0.84-2.445-2.677c0-1.554,0.871-2.729,2.352-2.729
			c1.459,0,2.068,0.976,2.068,2.142C329.496,131.974,329.485,132.184,329.464,132.394z M327.364,130.42
			c-0.683,0-1.165,0.504-1.28,1.302h2.445C328.551,130.924,328.1,130.42,327.364,130.42z"/>
		<path d="M331.816,135.113c-0.409,0-0.882-0.042-1.229-0.137v-1.48h0.578c0.053,0.252,0.094,0.557,0.126,0.83
			c0.179,0.042,0.409,0.052,0.619,0.052c0.703,0,1.187-0.314,1.187-0.818c0-1.155-2.625-0.473-2.625-2.289
			c0-0.892,0.735-1.564,2.1-1.564c0.367,0,0.809,0.052,1.207,0.147v1.428h-0.577c-0.062-0.263-0.104-0.557-0.126-0.819
			c-0.178-0.042-0.389-0.063-0.588-0.063c-0.703,0-1.061,0.294-1.061,0.767c0,1.176,2.614,0.524,2.614,2.257
			C334.042,134.367,333.202,135.113,331.816,135.113z"/>
		<path d="M336.395,135.113c-0.409,0-0.882-0.042-1.229-0.137v-1.48h0.578c0.053,0.252,0.094,0.557,0.126,0.83
			c0.179,0.042,0.409,0.052,0.619,0.052c0.703,0,1.187-0.314,1.187-0.818c0-1.155-2.625-0.473-2.625-2.289
			c0-0.892,0.735-1.564,2.1-1.564c0.367,0,0.809,0.052,1.207,0.147v1.428h-0.577c-0.062-0.263-0.104-0.557-0.126-0.819
			c-0.178-0.042-0.389-0.063-0.588-0.063c-0.703,0-1.061,0.294-1.061,0.767c0,1.176,2.614,0.524,2.614,2.257
			C338.62,134.367,337.78,135.113,336.395,135.113z"/>
		<path d="M343.556,135.018c0-0.315,0.021-0.777,0.073-1.103h-0.021c-0.304,0.714-0.944,1.197-1.837,1.197
			c-1.196,0-1.563-0.746-1.563-1.669v-2.897c-0.252-0.042-0.599-0.084-0.883-0.105v-0.567c0.494-0.063,1.208-0.105,1.816-0.074
			v3.359c0,0.735,0.21,1.176,0.893,1.176c0.861,0,1.49-0.882,1.49-2.036v-1.764c-0.241-0.032-0.566-0.074-0.85-0.095v-0.567
			c0.514-0.063,1.207-0.105,1.784-0.074v4.473c0.252,0.042,0.599,0.084,0.882,0.104v0.567
			C344.847,135.007,344.122,135.049,343.556,135.018z"/>
		<path d="M349.424,130.64c-1.196-0.199-1.732,0.609-1.732,2.278v1.396c0.315,0.021,0.641,0.073,0.914,0.136v0.567h-2.771v-0.567
			c0.272-0.063,0.598-0.116,0.913-0.136v-3.769c-0.252-0.042-0.608-0.084-0.913-0.105v-0.567c0.524-0.063,1.249-0.105,1.826-0.074
			c0,0.326-0.031,0.809-0.104,1.239h0.011c0.23-0.725,0.756-1.449,1.899-1.333L349.424,130.64z"/>
		<path d="M354.464,132.394h-3.411c-0.043,1.365,0.514,1.953,1.647,1.953c0.504,0,1.029-0.105,1.491-0.305l0.137,0.746
			c-0.525,0.21-1.155,0.326-1.807,0.326c-1.585,0-2.445-0.84-2.445-2.677c0-1.554,0.871-2.729,2.352-2.729
			c1.459,0,2.068,0.976,2.068,2.142C354.496,131.974,354.485,132.184,354.464,132.394z M352.364,130.42
			c-0.683,0-1.165,0.504-1.28,1.302h2.445C353.551,130.924,353.1,130.42,352.364,130.42z"/>
	</g>
</g>
<g>
	<g>
		<path d="M412.474,129.206v6.289h-0.976v-6.289h-2.132v-0.798h5.229v0.798H412.474z"/>
		<path d="M416.086,135.495v-0.746h1.953v-3.748h-1.795v-0.724h2.739v4.472h1.712v0.746H416.086z M419.225,128.65
			c0,0.41-0.336,0.746-0.756,0.746s-0.766-0.336-0.766-0.746c0-0.42,0.346-0.756,0.766-0.756S419.225,128.23,419.225,128.65z"/>
		<path d="M426.417,135.495v-3.422c0-0.798-0.084-1.155-0.451-1.155c-0.483,0-0.997,0.914-0.997,2.037v2.541h-0.787v-3.38
			c0-0.84-0.095-1.197-0.473-1.197c-0.483,0-0.966,0.914-0.966,2.037v2.541h-0.798v-5.217h0.756c0,0.378-0.031,0.756-0.084,1.176
			l0.01,0.01c0.211-0.777,0.651-1.292,1.303-1.292c0.65,0,0.924,0.494,0.924,1.271c0.209-0.756,0.65-1.271,1.312-1.271
			c0.745,0,1.05,0.599,1.05,1.68v3.643H426.417z"/>
		<path d="M433.147,132.923h-3.716c-0.011,0.031-0.011,0.062-0.011,0.104c0,1.271,0.714,1.806,1.795,1.806
			c0.535,0,1.271-0.146,1.68-0.346l0.084,0.777c-0.504,0.199-1.249,0.336-1.921,0.336c-1.617,0-2.604-0.851-2.604-2.688
			c0-1.564,0.977-2.75,2.478-2.75c1.479,0,2.235,1.082,2.235,2.278C433.168,132.555,433.168,132.744,433.147,132.923z
			 M430.891,130.875c-0.703,0-1.323,0.514-1.428,1.365h2.74C432.213,131.39,431.636,130.875,430.891,130.875z"/>
	</g>
</g>
<g>
	<ellipse cx="104.903" cy="72.91" rx="1.35" ry="1.182"/>
	<ellipse cx="104.903" cy="76.881" rx="1.35" ry="1.181"/>
	<ellipse cx="104.902" cy="80.852" rx="1.35" ry="1.181"/>
	<ellipse cx="104.902" cy="84.823" rx="1.349" ry="1.181"/>
	<ellipse cx="104.902" cy="88.795" rx="1.35" ry="1.181"/>
	<ellipse cx="104.902" cy="92.766" rx="1.35" ry="1.181"/>
	<ellipse cx="104.902" cy="96.737" rx="1.35" ry="1.182"/>
	<ellipse cx="104.902" cy="100.709" rx="1.35" ry="1.181"/>
	<ellipse cx="104.902" cy="104.679" rx="1.35" ry="1.181"/>
	<ellipse cx="104.902" cy="108.651" rx="1.35" ry="1.182"/>
	<ellipse cx="104.903" cy="112.622" rx="1.35" ry="1.182"/>
</g>
<g>
	<ellipse cx="121.103" cy="60.062" rx="1.35" ry="1.182"/>
	<ellipse cx="121.103" cy="65.317" rx="1.35" ry="1.181"/>
	<ellipse cx="121.103" cy="70.573" rx="1.35" ry="1.181"/>
	<ellipse cx="121.103" cy="75.829" rx="1.35" ry="1.181"/>
	<ellipse cx="121.103" cy="81.085" rx="1.35" ry="1.181"/>
	<ellipse cx="121.103" cy="86.341" rx="1.35" ry="1.181"/>
	<ellipse cx="121.103" cy="91.597" rx="1.35" ry="1.181"/>
	<ellipse cx="121.103" cy="96.854" rx="1.35" ry="1.181"/>
	<ellipse cx="121.103" cy="102.11" rx="1.35" ry="1.181"/>
	<ellipse cx="121.103" cy="107.366" rx="1.35" ry="1.182"/>
	<ellipse cx="121.103" cy="112.622" rx="1.35" ry="1.182"/>
</g>
<g>
	<ellipse cx="137.302" cy="49.228" rx="1.35" ry="1.182"/>
	<ellipse cx="137.302" cy="55.567" rx="1.349" ry="1.181"/>
	<ellipse cx="137.302" cy="61.906" rx="1.35" ry="1.181"/>
	<ellipse cx="137.302" cy="68.245" rx="1.35" ry="1.181"/>
	<ellipse cx="137.302" cy="74.585" rx="1.35" ry="1.181"/>
	<ellipse cx="137.302" cy="80.925" rx="1.35" ry="1.182"/>
	<ellipse cx="137.302" cy="87.264" rx="1.35" ry="1.181"/>
	<ellipse cx="137.302" cy="93.604" rx="1.35" ry="1.181"/>
	<ellipse cx="137.302" cy="99.943" rx="1.35" ry="1.182"/>
	<ellipse cx="137.302" cy="106.282" rx="1.35" ry="1.181"/>
	<ellipse cx="137.302" cy="112.622" rx="1.35" ry="1.182"/>
</g>
<g>
	<ellipse cx="153.502" cy="41.487" rx="1.351" ry="1.181"/>
	<ellipse cx="153.502" cy="48.601" rx="1.351" ry="1.181"/>
	<ellipse cx="153.502" cy="55.715" rx="1.351" ry="1.181"/>
	<ellipse cx="153.502" cy="62.828" rx="1.351" ry="1.181"/>
	<ellipse cx="153.502" cy="69.941" rx="1.351" ry="1.181"/>
	<ellipse cx="153.502" cy="77.055" rx="1.351" ry="1.181"/>
	<ellipse cx="153.502" cy="84.168" rx="1.351" ry="1.181"/>
	<ellipse cx="153.502" cy="91.282" rx="1.351" ry="1.181"/>
	<ellipse cx="153.502" cy="98.395" rx="1.351" ry="1.182"/>
	<ellipse cx="153.502" cy="105.509" rx="1.351" ry="1.181"/>
	<ellipse cx="153.502" cy="112.622" rx="1.351" ry="1.182"/>
</g>
<g>
	<ellipse cx="169.702" cy="39.65" rx="1.35" ry="1.181"/>
	<ellipse cx="169.701" cy="46.948" rx="1.35" ry="1.181"/>
	<ellipse cx="169.701" cy="54.245" rx="1.35" ry="1.181"/>
	<ellipse cx="169.701" cy="61.542" rx="1.35" ry="1.181"/>
	<ellipse cx="169.701" cy="68.839" rx="1.35" ry="1.181"/>
	<ellipse cx="169.701" cy="76.136" rx="1.35" ry="1.181"/>
	<ellipse cx="169.701" cy="83.433" rx="1.35" ry="1.181"/>
	<ellipse cx="169.701" cy="90.731" rx="1.35" ry="1.181"/>
	<ellipse cx="169.701" cy="98.028" rx="1.35" ry="1.181"/>
	<ellipse cx="169.701" cy="105.325" rx="1.35" ry="1.182"/>
	<ellipse cx="169.702" cy="112.622" rx="1.35" ry="1.182"/>
</g>
<g>
	<ellipse cx="185.902" cy="43.063" rx="1.35" ry="1.182"/>
	<ellipse cx="185.901" cy="50.019" rx="1.349" ry="1.181"/>
	<ellipse cx="185.901" cy="56.975" rx="1.35" ry="1.181"/>
	<ellipse cx="185.901" cy="63.93" rx="1.35" ry="1.181"/>
	<ellipse cx="185.901" cy="70.886" rx="1.35" ry="1.181"/>
	<ellipse cx="185.901" cy="77.843" rx="1.35" ry="1.182"/>
	<ellipse cx="185.901" cy="84.799" rx="1.35" ry="1.181"/>
	<ellipse cx="185.901" cy="91.755" rx="1.35" ry="1.181"/>
	<ellipse cx="185.901" cy="98.71" rx="1.35" ry="1.182"/>
	<ellipse cx="185.901" cy="105.666" rx="1.35" ry="1.182"/>
	<ellipse cx="185.902" cy="112.622" rx="1.35" ry="1.182"/>
</g>
<g>
	<ellipse cx="202.101" cy="51.058" rx="1.35" ry="1.182"/>
	<ellipse cx="202.101" cy="57.214" rx="1.35" ry="1.182"/>
	<ellipse cx="202.101" cy="63.371" rx="1.35" ry="1.182"/>
	<ellipse cx="202.101" cy="69.527" rx="1.35" ry="1.182"/>
	<ellipse cx="202.101" cy="75.683" rx="1.35" ry="1.182"/>
	<ellipse cx="202.101" cy="81.84" rx="1.35" ry="1.182"/>
	<ellipse cx="202.101" cy="87.996" rx="1.35" ry="1.182"/>
	<ellipse cx="202.101" cy="94.153" rx="1.35" ry="1.182"/>
	<ellipse cx="202.101" cy="100.309" rx="1.35" ry="1.182"/>
	<ellipse cx="202.101" cy="106.465" rx="1.35" ry="1.182"/>
	<ellipse cx="202.101" cy="112.622" rx="1.35" ry="1.182"/>
</g>
<g>
	<ellipse cx="218.301" cy="62.479" rx="1.351" ry="1.181"/>
	<ellipse cx="218.301" cy="67.493" rx="1.351" ry="1.181"/>
	<ellipse cx="218.301" cy="72.508" rx="1.351" ry="1.181"/>
	<ellipse cx="218.3" cy="77.522" rx="1.35" ry="1.181"/>
	<ellipse cx="218.301" cy="82.536" rx="1.351" ry="1.181"/>
	<ellipse cx="218.301" cy="87.551" rx="1.351" ry="1.182"/>
	<ellipse cx="218.301" cy="92.565" rx="1.351" ry="1.181"/>
	<ellipse cx="218.301" cy="97.579" rx="1.351" ry="1.181"/>
	<ellipse cx="218.301" cy="102.593" rx="1.351" ry="1.182"/>
	<ellipse cx="218.301" cy="107.608" rx="1.351" ry="1.181"/>
	<ellipse cx="218.301" cy="112.622" rx="1.351" ry="1.182"/>
</g>
<g>
	<ellipse cx="234.5" cy="75.93" rx="1.35" ry="1.182"/>
	<ellipse cx="234.5" cy="79.599" rx="1.349" ry="1.181"/>
	<ellipse cx="234.5" cy="83.268" rx="1.35" ry="1.181"/>
	<ellipse cx="234.5" cy="86.937" rx="1.35" ry="1.181"/>
	<ellipse cx="234.5" cy="90.606" rx="1.35" ry="1.181"/>
	<ellipse cx="234.5" cy="94.276" rx="1.35" ry="1.181"/>
	<ellipse cx="234.5" cy="97.945" rx="1.35" ry="1.181"/>
	<ellipse cx="234.5" cy="101.614" rx="1.35" ry="1.182"/>
	<ellipse cx="234.5" cy="105.283" rx="1.35" ry="1.182"/>
	<ellipse cx="234.5" cy="108.953" rx="1.35" ry="1.182"/>
	<ellipse cx="234.5" cy="112.622" rx="1.35" ry="1.182"/>
</g>
<g>
	<ellipse cx="250.701" cy="90.132" rx="1.35" ry="1.181"/>
	<ellipse cx="250.7" cy="92.381" rx="1.349" ry="1.181"/>
	<ellipse cx="250.7" cy="94.63" rx="1.35" ry="1.181"/>
	<ellipse cx="250.7" cy="96.879" rx="1.35" ry="1.181"/>
	<ellipse cx="250.7" cy="99.128" rx="1.35" ry="1.181"/>
	<ellipse cx="250.7" cy="101.377" rx="1.35" ry="1.181"/>
	<ellipse cx="250.7" cy="103.626" rx="1.35" ry="1.181"/>
	<ellipse cx="250.7" cy="105.875" rx="1.35" ry="1.181"/>
	<ellipse cx="250.7" cy="108.124" rx="1.35" ry="1.182"/>
	<ellipse cx="250.7" cy="110.373" rx="1.35" ry="1.182"/>
	<ellipse cx="250.701" cy="112.622" rx="1.35" ry="1.182"/>
</g>
<g>
	<ellipse cx="266.9" cy="102.001" rx="1.35" ry="1.181"/>
	<ellipse cx="266.9" cy="103.09" rx="1.35" ry="1.181"/>
	<ellipse cx="266.899" cy="104.179" rx="1.35" ry="1.181"/>
	<ellipse cx="266.899" cy="105.267" rx="1.349" ry="1.181"/>
	<ellipse cx="266.899" cy="106.356" rx="1.35" ry="1.181"/>
	<ellipse cx="266.899" cy="107.445" rx="1.35" ry="1.181"/>
	<ellipse cx="266.899" cy="108.533" rx="1.35" ry="1.181"/>
	<ellipse cx="266.899" cy="109.622" rx="1.35" ry="1.181"/>
	<ellipse cx="266.899" cy="110.711" rx="1.35" ry="1.181"/>
	<ellipse cx="266.899" cy="111.8" rx="1.35" ry="1.181"/>
	<ellipse cx="266.9" cy="112.889" rx="1.35" ry="1.182"/>
</g>
<g>
	<ellipse cx="331.703" cy="109.23" rx="1.351" ry="1.181"/>
	<ellipse cx="331.702" cy="109.597" rx="1.351" ry="1.181"/>
	<ellipse cx="331.702" cy="109.962" rx="1.351" ry="1.181"/>
	<ellipse cx="331.702" cy="110.328" rx="1.351" ry="1.181"/>
	<ellipse cx="331.702" cy="110.694" rx="1.351" ry="1.181"/>
	<ellipse cx="331.702" cy="111.06" rx="1.351" ry="1.181"/>
	<ellipse cx="331.702" cy="111.425" rx="1.351" ry="1.181"/>
	<ellipse cx="331.702" cy="111.791" rx="1.351" ry="1.181"/>
	<ellipse cx="331.702" cy="112.157" rx="1.351" ry="1.181"/>
	<ellipse cx="331.702" cy="112.522" rx="1.351" ry="1.181"/>
	<ellipse cx="331.703" cy="112.889" rx="1.351" ry="1.182"/>
</g>
<g>
	<ellipse cx="299.303" cy="112.889" rx="1.351" ry="1.182"/>
	<ellipse cx="299.302" cy="112.889" rx="1.35" ry="1.181"/>
	<ellipse cx="299.302" cy="112.888" rx="1.35" ry="1.181"/>
	<ellipse cx="299.301" cy="112.888" rx="1.349" ry="1.181"/>
	<ellipse cx="299.302" cy="112.888" rx="1.35" ry="1.181"/>
	<ellipse cx="299.302" cy="112.888" rx="1.35" ry="1.181"/>
	<ellipse cx="299.302" cy="112.888" rx="1.35" ry="1.181"/>
	<ellipse cx="299.302" cy="112.888" rx="1.35" ry="1.181"/>
	<ellipse cx="299.302" cy="112.888" rx="1.35" ry="1.181"/>
	<ellipse cx="299.302" cy="112.888" rx="1.35" ry="1.181"/>
	<ellipse cx="299.303" cy="112.889" rx="1.351" ry="1.182"/>
</g>
<g>
	<ellipse cx="315.502" cy="112.889" rx="1.349" ry="1.182"/>
	<path d="M315.501,111.708c-0.746,0-1.348,0.528-1.348,1.182c0,0.652,0.602,1.181,1.348,1.181c0.747,0,1.351-0.529,1.351-1.181
		C316.852,112.235,316.248,111.708,315.501,111.708z"/>
	<path d="M315.501,111.707c-0.746,0-1.348,0.528-1.348,1.182c0,0.652,0.602,1.181,1.348,1.181c0.747,0,1.351-0.528,1.351-1.181
		C316.852,112.235,316.248,111.707,315.501,111.707z"/>
	<path d="M315.501,111.707c-0.746,0-1.348,0.528-1.348,1.182c0,0.652,0.602,1.18,1.348,1.18c0.747,0,1.351-0.528,1.351-1.18
		C316.852,112.235,316.248,111.707,315.501,111.707z"/>
	<path d="M315.501,111.707c-0.746,0-1.348,0.528-1.348,1.182c0,0.652,0.602,1.181,1.348,1.181c0.747,0,1.351-0.528,1.351-1.181
		C316.852,112.235,316.248,111.707,315.501,111.707z"/>
	<path d="M315.501,111.707c-0.746,0-1.348,0.528-1.348,1.182c0,0.652,0.602,1.181,1.348,1.181c0.747,0,1.351-0.528,1.351-1.181
		C316.852,112.235,316.248,111.707,315.501,111.707z"/>
	<path d="M315.501,111.707c-0.746,0-1.348,0.528-1.348,1.182c0,0.652,0.602,1.181,1.348,1.181c0.747,0,1.351-0.528,1.351-1.181
		C316.852,112.235,316.248,111.707,315.501,111.707z"/>
	<path d="M315.501,111.707c-0.746,0-1.348,0.528-1.348,1.182c0,0.652,0.602,1.181,1.348,1.181c0.747,0,1.351-0.528,1.351-1.181
		C316.852,112.235,316.248,111.707,315.501,111.707z"/>
	<path d="M315.501,111.707c-0.746,0-1.348,0.528-1.348,1.182c0,0.652,0.602,1.181,1.348,1.181c0.747,0,1.351-0.528,1.351-1.181
		C316.852,112.235,316.248,111.707,315.501,111.707z"/>
	<path d="M315.501,111.707c-0.746,0-1.348,0.528-1.348,1.182c0,0.652,0.602,1.181,1.348,1.181c0.747,0,1.351-0.528,1.351-1.181
		C316.852,112.235,316.248,111.707,315.501,111.707z"/>
	<ellipse cx="315.502" cy="112.889" rx="1.349" ry="1.182"/>
</g>
<g>
	<path d="M284.449,109.83c0-0.652-0.604-1.181-1.351-1.181c-0.742,0-1.35,0.528-1.35,1.181s0.607,1.181,1.35,1.181
		C283.845,111.011,284.449,110.482,284.449,109.83z"/>
	<path d="M283.099,108.956c-0.742,0-1.35,0.528-1.35,1.181c0,0.652,0.607,1.181,1.35,1.181c0.746,0,1.351-0.529,1.351-1.181
		C284.449,109.484,283.845,108.956,283.099,108.956z"/>
	<path d="M283.099,109.261c-0.742,0-1.35,0.528-1.35,1.181c0,0.652,0.607,1.18,1.35,1.18c0.746,0,1.351-0.528,1.351-1.18
		C284.449,109.789,283.845,109.261,283.099,109.261z"/>
	<path d="M283.099,109.566c-0.742,0-1.35,0.528-1.35,1.181s0.607,1.181,1.35,1.181c0.746,0,1.351-0.529,1.351-1.181
		S283.845,109.566,283.099,109.566z"/>
	<path d="M283.099,109.872c-0.742,0-1.35,0.528-1.35,1.182c0,0.652,0.607,1.181,1.35,1.181c0.746,0,1.351-0.528,1.351-1.181
		C284.449,110.4,283.845,109.872,283.099,109.872z"/>
	<path d="M283.099,110.179c-0.742,0-1.35,0.528-1.35,1.181s0.607,1.181,1.35,1.181c0.746,0,1.351-0.528,1.351-1.181
		S283.845,110.179,283.099,110.179z"/>
	<path d="M283.099,110.484c-0.742,0-1.35,0.529-1.35,1.181s0.607,1.181,1.35,1.181c0.746,0,1.351-0.528,1.351-1.181
		S283.845,110.484,283.099,110.484z"/>
	<path d="M283.099,110.79c-0.742,0-1.35,0.528-1.35,1.181c0,0.652,0.607,1.18,1.35,1.18c0.746,0,1.351-0.528,1.351-1.18
		C284.449,111.318,283.845,110.79,283.099,110.79z"/>
	<path d="M283.099,111.096c-0.742,0-1.35,0.528-1.35,1.181c0,0.652,0.607,1.181,1.35,1.181c0.746,0,1.351-0.529,1.351-1.181
		C284.449,111.624,283.845,111.096,283.099,111.096z"/>
	<path d="M283.099,111.401c-0.742,0-1.35,0.528-1.35,1.182c0,0.652,0.607,1.181,1.35,1.181c0.746,0,1.351-0.528,1.351-1.181
		C284.449,111.929,283.845,111.401,283.099,111.401z"/>
	<path d="M284.449,112.889c0-0.653-0.604-1.182-1.351-1.182c-0.742,0-1.35,0.528-1.35,1.182c0,0.652,0.607,1.181,1.35,1.181
		C283.845,114.069,284.449,113.541,284.449,112.889z"/>
</g>
<g>
	<ellipse cx="347.898" cy="101.075" rx="1.351" ry="1.182"/>
	<ellipse cx="347.899" cy="102.257" rx="1.352" ry="1.182"/>
	<ellipse cx="347.899" cy="103.438" rx="1.352" ry="1.181"/>
	<path d="M347.899,103.438c-0.744,0-1.353,0.529-1.353,1.182s0.608,1.181,1.353,1.181s1.35-0.529,1.35-1.181
		S348.644,103.438,347.899,103.438z"/>
	<ellipse cx="347.899" cy="105.801" rx="1.352" ry="1.181"/>
	<ellipse cx="347.899" cy="106.982" rx="1.352" ry="1.181"/>
	<ellipse cx="347.899" cy="108.163" rx="1.352" ry="1.181"/>
	<ellipse cx="347.899" cy="109.344" rx="1.352" ry="1.181"/>
	<ellipse cx="347.899" cy="110.526" rx="1.352" ry="1.181"/>
	<ellipse cx="347.899" cy="111.707" rx="1.352" ry="1.181"/>
	<ellipse cx="347.898" cy="112.889" rx="1.351" ry="1.182"/>
</g>
<g>
	<ellipse cx="364.099" cy="89.264" rx="1.351" ry="1.182"/>
	<ellipse cx="364.099" cy="91.626" rx="1.351" ry="1.181"/>
	<ellipse cx="364.099" cy="93.988" rx="1.351" ry="1.181"/>
	<ellipse cx="364.099" cy="96.35" rx="1.351" ry="1.181"/>
	<ellipse cx="364.099" cy="98.713" rx="1.351" ry="1.181"/>
	<ellipse cx="364.099" cy="101.076" rx="1.351" ry="1.181"/>
	<ellipse cx="364.099" cy="103.438" rx="1.351" ry="1.181"/>
	<ellipse cx="364.099" cy="105.801" rx="1.351" ry="1.181"/>
	<ellipse cx="364.099" cy="108.163" rx="1.351" ry="1.181"/>
	<ellipse cx="364.099" cy="110.526" rx="1.351" ry="1.181"/>
	<ellipse cx="364.099" cy="112.889" rx="1.351" ry="1.182"/>
</g>
<g>
	<ellipse cx="380.298" cy="75.088" rx="1.352" ry="1.181"/>
	<ellipse cx="380.298" cy="78.868" rx="1.352" ry="1.181"/>
	<ellipse cx="380.298" cy="82.648" rx="1.352" ry="1.181"/>
	<ellipse cx="380.297" cy="86.428" rx="1.351" ry="1.181"/>
	<ellipse cx="380.298" cy="90.208" rx="1.352" ry="1.181"/>
	<ellipse cx="380.298" cy="93.988" rx="1.352" ry="1.181"/>
	<ellipse cx="380.298" cy="97.768" rx="1.352" ry="1.181"/>
	<ellipse cx="380.298" cy="101.548" rx="1.352" ry="1.181"/>
	<ellipse cx="380.298" cy="105.328" rx="1.352" ry="1.181"/>
	<ellipse cx="380.298" cy="109.108" rx="1.352" ry="1.181"/>
	<ellipse cx="380.298" cy="112.889" rx="1.352" ry="1.182"/>
</g>
<g>
	<ellipse cx="396.498" cy="60.913" rx="1.351" ry="1.181"/>
	<ellipse cx="396.498" cy="66.111" rx="1.351" ry="1.181"/>
	<ellipse cx="396.498" cy="71.308" rx="1.351" ry="1.181"/>
	<ellipse cx="396.498" cy="76.506" rx="1.351" ry="1.181"/>
	<ellipse cx="396.498" cy="81.704" rx="1.351" ry="1.181"/>
	<ellipse cx="396.498" cy="86.901" rx="1.351" ry="1.181"/>
	<ellipse cx="396.498" cy="92.098" rx="1.351" ry="1.181"/>
	<ellipse cx="396.498" cy="97.296" rx="1.351" ry="1.181"/>
	<ellipse cx="396.498" cy="102.493" rx="1.351" ry="1.181"/>
	<ellipse cx="396.498" cy="107.691" rx="1.351" ry="1.181"/>
	<ellipse cx="396.498" cy="112.889" rx="1.351" ry="1.182"/>
</g>
<g>
	<ellipse cx="412.697" cy="49.101" rx="1.351" ry="1.182"/>
	<ellipse cx="412.696" cy="55.479" rx="1.35" ry="1.181"/>
	<ellipse cx="412.696" cy="61.858" rx="1.35" ry="1.181"/>
	<ellipse cx="412.696" cy="68.236" rx="1.35" ry="1.181"/>
	<ellipse cx="412.696" cy="74.615" rx="1.35" ry="1.181"/>
	<ellipse cx="412.696" cy="80.995" rx="1.35" ry="1.181"/>
	<ellipse cx="412.696" cy="87.373" rx="1.35" ry="1.181"/>
	<ellipse cx="412.696" cy="93.752" rx="1.35" ry="1.181"/>
	<ellipse cx="412.696" cy="100.131" rx="1.35" ry="1.181"/>
	<ellipse cx="412.696" cy="106.51" rx="1.35" ry="1.181"/>
	<ellipse cx="412.697" cy="112.889" rx="1.351" ry="1.182"/>
</g>
<g>
	<ellipse cx="428.897" cy="42.014" rx="1.351" ry="1.182"/>
	<ellipse cx="428.897" cy="49.101" rx="1.351" ry="1.181"/>
	<ellipse cx="428.897" cy="56.188" rx="1.351" ry="1.181"/>
	<ellipse cx="428.897" cy="63.275" rx="1.351" ry="1.181"/>
	<ellipse cx="428.897" cy="70.363" rx="1.351" ry="1.181"/>
	<ellipse cx="428.897" cy="77.451" rx="1.351" ry="1.181"/>
	<ellipse cx="428.897" cy="84.538" rx="1.351" ry="1.181"/>
	<ellipse cx="428.897" cy="91.625" rx="1.351" ry="1.181"/>
	<ellipse cx="428.897" cy="98.713" rx="1.351" ry="1.181"/>
	<ellipse cx="428.897" cy="105.801" rx="1.351" ry="1.181"/>
	<ellipse cx="428.897" cy="112.889" rx="1.351" ry="1.182"/>
</g>
<g>
	<ellipse cx="445.096" cy="39.65" rx="1.351" ry="1.181"/>
	<ellipse cx="445.097" cy="46.975" rx="1.352" ry="1.181"/>
	<ellipse cx="445.097" cy="54.298" rx="1.352" ry="1.181"/>
	<ellipse cx="445.097" cy="61.621" rx="1.353" ry="1.181"/>
	<ellipse cx="445.097" cy="68.946" rx="1.352" ry="1.181"/>
	<ellipse cx="445.097" cy="76.27" rx="1.352" ry="1.181"/>
	<ellipse cx="445.097" cy="83.593" rx="1.352" ry="1.181"/>
	<ellipse cx="445.097" cy="90.917" rx="1.352" ry="1.181"/>
	<ellipse cx="445.097" cy="98.241" rx="1.352" ry="1.181"/>
	<ellipse cx="445.097" cy="105.564" rx="1.352" ry="1.181"/>
	<ellipse cx="445.096" cy="112.889" rx="1.351" ry="1.182"/>
</g>
<line fill="none" stroke="#CCCCCC" stroke-width="0.75" x1="104.902" y1="118.794" x2="445.102" y2="118.794"/>
<g>
	<polyline fill="none" stroke="#000000" stroke-width="0.5" points="443.075,129.294 446.115,132.331 443.075,135.368 	"/>
	<line fill="none" stroke="#000000" stroke-width="0.5" x1="437.001" y1="132.331" x2="446.115" y2="132.331"/>
</g>
</svg>
