<?xml version="1.0" encoding="utf-8"?>
<!-- Generator: Adobe Illustrator 16.0.4, SVG Export Plug-In . SVG Version: 6.00 Build 0)  -->
<!DOCTYPE svg PUBLIC "-//W3C//DTD SVG 1.1//EN" "http://www.w3.org/Graphics/SVG/1.1/DTD/svg11.dtd">
<svg version="1.1" id="Layer_1" xmlns="http://www.w3.org/2000/svg" xmlns:xlink="http://www.w3.org/1999/xlink" x="0px" y="0px"
	 width="550px" height="150px" viewBox="0 0 550 150" enable-background="new 0 0 550 150" xml:space="preserve">
<g>
	<g>
		<path d="M41.521,79.949l-1.627,0.535v2.908l1.627,0.546v0.977l-7.086-2.404v-1.239l7.086-2.394V79.949z M36.199,81.681
			c-0.284,0.094-0.578,0.178-0.893,0.252v0.01c0.305,0.074,0.599,0.158,0.871,0.252l2.939,0.976v-2.467L36.199,81.681z"/>
		<path d="M41.521,73.764h-3.422c-0.798,0-1.155,0.084-1.155,0.452c0,0.483,0.913,0.998,2.037,0.998h2.541V76h-3.38
			c-0.84,0-1.197,0.095-1.197,0.473c0,0.482,0.913,0.966,2.037,0.966h2.541v0.798h-5.218v-0.756c0.378,0,0.756,0.031,1.176,0.084
			l0.011-0.011c-0.777-0.21-1.291-0.651-1.291-1.302s0.493-0.924,1.27-0.924c-0.756-0.21-1.27-0.651-1.27-1.312
			c0-0.745,0.598-1.05,1.68-1.05h3.643V73.764z"/>
		<path d="M41.584,69.543c0,0.378-0.032,0.734-0.094,0.976h2.624v0.945h-7.811v-0.903c0.294,0,0.756,0.01,1.208,0.094l0.01-0.021
			c-0.871-0.315-1.322-0.956-1.322-1.795c0-1.197,0.871-2.016,2.467-2.016C40.524,66.824,41.584,67.979,41.584,69.543z
			 M36.976,69.092c0,0.945,1.187,1.428,2.1,1.428h1.596c0.105-0.284,0.179-0.578,0.179-1.018c0-0.935-0.651-1.69-2.1-1.69
			C37.627,67.811,36.976,68.304,36.976,69.092z"/>
		<path d="M34.582,63.369v1.911h-0.724v-2.855h6.918v-1.9h0.745v4.756h-0.745v-1.911H34.582z"/>
		<path d="M34.677,55.757c0.409,0,0.745,0.336,0.745,0.756s-0.336,0.766-0.745,0.766c-0.42,0-0.756-0.346-0.756-0.766
			S34.257,55.757,34.677,55.757z M41.521,58.896h-0.745v-1.953h-3.748v1.795h-0.725v-2.74h4.473v-1.711h0.745V58.896z"/>
		<path d="M41.616,49.646c0,1.103-0.504,1.795-1.774,1.795H37.06v1.701h-0.756v-1.701h-1.69l-0.262-0.944h1.952v-2.268h0.756v2.268
			h2.509c0.914,0,1.239-0.473,1.239-1.145c0-0.347-0.053-0.787-0.147-1.113l0.777-0.084C41.542,48.585,41.616,49.215,41.616,49.646z
			"/>
		<path d="M41.521,42.874c-0.409,0-0.893-0.01-1.197-0.062l-0.01,0.01c0.829,0.304,1.312,0.945,1.312,1.848
			c0,1.186-0.746,1.564-1.669,1.564h-3.653v-0.944h3.37c0.735,0,1.176-0.2,1.176-0.882c0-0.872-0.997-1.491-2.142-1.491h-2.404
			v-0.944h5.218V42.874z"/>
		<path d="M41.521,36.542c-0.294,0-0.756-0.011-1.207-0.095l-0.011,0.021c0.861,0.304,1.323,0.955,1.323,1.795
			c0,1.197-0.872,2.016-2.467,2.016c-1.816,0-2.929-1.165-2.929-2.792c0-0.304,0.011-0.578,0.053-0.903h-2.425V35.64h7.664V36.542z
			 M37.091,36.584c-0.074,0.315-0.116,0.63-0.116,0.935c0,0.986,0.599,1.774,2.1,1.774c1.124,0,1.774-0.494,1.774-1.281
			c0-0.945-1.187-1.428-2.1-1.428H37.091z"/>
		<path d="M38.949,29.235v3.716c0.032,0.01,0.063,0.01,0.105,0.01c1.27,0,1.806-0.714,1.806-1.795c0-0.535-0.147-1.271-0.347-1.68
			l0.777-0.084c0.2,0.504,0.336,1.249,0.336,1.921c0,1.617-0.85,2.604-2.688,2.604c-1.564,0-2.75-0.976-2.75-2.478
			c0-1.48,1.081-2.236,2.278-2.236C38.582,29.214,38.771,29.214,38.949,29.235z M36.902,31.492c0,0.704,0.515,1.323,1.365,1.428
			v-2.74C37.417,30.169,36.902,30.747,36.902,31.492z"/>
	</g>
</g>
<g>
	<g>
		<path d="M361.146,130.266v6.289h-0.976v-6.289h-2.132v-0.798h5.229v0.798H361.146z"/>
		<path d="M364.758,136.555v-0.746h1.953v-3.748h-1.795v-0.724h2.739v4.472h1.712v0.746H364.758z M367.896,129.71
			c0,0.41-0.336,0.746-0.756,0.746s-0.766-0.336-0.766-0.746c0-0.42,0.346-0.756,0.766-0.756S367.896,129.29,367.896,129.71z"/>
		<path d="M375.089,136.555v-3.422c0-0.798-0.084-1.155-0.451-1.155c-0.483,0-0.997,0.914-0.997,2.037v2.541h-0.787v-3.38
			c0-0.84-0.095-1.197-0.473-1.197c-0.483,0-0.966,0.914-0.966,2.037v2.541h-0.798v-5.217h0.756c0,0.378-0.031,0.756-0.084,1.176
			l0.01,0.01c0.211-0.777,0.651-1.292,1.303-1.292c0.65,0,0.924,0.494,0.924,1.271c0.209-0.756,0.65-1.271,1.312-1.271
			c0.745,0,1.05,0.599,1.05,1.68v3.643H375.089z"/>
		<path d="M381.819,133.983h-3.716c-0.011,0.031-0.011,0.062-0.011,0.104c0,1.271,0.714,1.806,1.795,1.806
			c0.535,0,1.271-0.146,1.68-0.346l0.084,0.777c-0.504,0.199-1.249,0.336-1.921,0.336c-1.617,0-2.604-0.851-2.604-2.688
			c0-1.564,0.977-2.75,2.478-2.75c1.479,0,2.235,1.082,2.235,2.278C381.84,133.615,381.84,133.804,381.819,133.983z
			 M379.562,131.936c-0.703,0-1.323,0.514-1.428,1.365h2.74C380.885,132.45,380.308,131.936,379.562,131.936z"/>
		<path d="M393.285,138.917c-1.764-1.606-2.582-3.254-2.582-5.28c0-2.142,1.028-3.916,2.604-5.354l0.535,0.556
			c-1.418,1.386-2.194,3.023-2.194,4.725c0,1.764,0.735,3.359,2.204,4.787L393.285,138.917z"/>
		<path d="M400.289,136.555v-3.422c0-0.798-0.084-1.155-0.451-1.155c-0.482,0-0.997,0.914-0.997,2.037v2.541h-0.788v-3.38
			c0-0.84-0.094-1.197-0.472-1.197c-0.483,0-0.966,0.914-0.966,2.037v2.541h-0.798v-5.217h0.756c0,0.378-0.032,0.756-0.084,1.176
			l0.011,0.01c0.209-0.777,0.65-1.292,1.301-1.292c0.651,0,0.924,0.494,0.924,1.271c0.211-0.756,0.651-1.271,1.312-1.271
			c0.746,0,1.05,0.599,1.05,1.68v3.643H400.289z"/>
		<path d="M402.558,136.555v-0.746h1.953v-3.748h-1.796v-0.724h2.74v4.472h1.711v0.746H402.558z M405.697,129.71
			c0,0.41-0.336,0.746-0.756,0.746s-0.767-0.336-0.767-0.746c0-0.42,0.347-0.756,0.767-0.756S405.697,129.29,405.697,129.71z"/>
		<path d="M410.685,129.616h-1.911v-0.725h2.855v6.918h1.9v0.746h-4.756v-0.746h1.911V129.616z"/>
		<path d="M416.984,129.616h-1.911v-0.725h2.855v6.918h1.9v0.746h-4.756v-0.746h1.911V129.616z"/>
		<path d="M421.457,136.555v-0.746h1.953v-3.748h-1.795v-0.724h2.739v4.472h1.712v0.746H421.457z M424.596,129.71
			c0,0.41-0.336,0.746-0.756,0.746s-0.766-0.336-0.766-0.746c0-0.42,0.346-0.756,0.766-0.756S424.596,129.29,424.596,129.71z"/>
		<path d="M429.646,136.67c-0.714,0-1.354-0.084-1.868-0.263l0.126-0.871c0.504,0.241,1.112,0.388,1.857,0.388
			c0.631,0,1.26-0.262,1.26-0.788c0-1.26-3.148-0.409-3.148-2.372c0-0.851,0.756-1.543,2.246-1.543c0.588,0,1.154,0.074,1.574,0.178
			l-0.094,0.777c-0.525-0.179-1.039-0.242-1.554-0.242c-0.777,0-1.134,0.315-1.134,0.724c0,1.187,3.16,0.41,3.16,2.352
			C432.072,136.167,430.875,136.67,429.646,136.67z"/>
		<path d="M438.519,133.983h-3.716c-0.011,0.031-0.011,0.062-0.011,0.104c0,1.271,0.714,1.806,1.795,1.806
			c0.535,0,1.271-0.146,1.68-0.346l0.084,0.777c-0.504,0.199-1.249,0.336-1.921,0.336c-1.617,0-2.604-0.851-2.604-2.688
			c0-1.564,0.977-2.75,2.478-2.75c1.479,0,2.235,1.082,2.235,2.278C438.539,133.615,438.539,133.804,438.519,133.983z
			 M436.262,131.936c-0.703,0-1.323,0.514-1.428,1.365h2.74C437.584,132.45,437.007,131.936,436.262,131.936z"/>
		<path d="M442.865,136.649c-1.711,0-2.604-0.966-2.604-2.53c0-1.69,1.051-2.876,2.888-2.876c0.566,0,1.123,0.105,1.543,0.252
			l-0.168,0.84c-0.378-0.179-0.903-0.305-1.396-0.305c-1.134,0-1.858,0.777-1.858,1.953c0,1.028,0.578,1.848,1.785,1.848
			c0.546,0,1.092-0.116,1.522-0.315l0.157,0.819C444.252,136.523,443.517,136.649,442.865,136.649z"/>
		<path d="M448.756,136.66c-1.438,0-2.436-0.829-2.436-2.667c0-1.533,1.039-2.761,2.635-2.761c1.344,0,2.436,0.746,2.436,2.625
			C451.391,135.431,450.31,136.66,448.756,136.66z M448.871,132.02c-0.787,0-1.563,0.588-1.563,1.879
			c0,1.26,0.577,1.963,1.554,1.963c0.809,0,1.554-0.619,1.554-1.953C450.415,132.723,449.869,132.02,448.871,132.02z"/>
		<path d="M456.337,136.555v-3.37c0-0.735-0.2-1.176-0.882-1.176c-0.871,0-1.491,0.997-1.491,2.142v2.404h-0.944v-5.217h0.902
			c0,0.409-0.01,0.892-0.062,1.196l0.01,0.011c0.305-0.829,0.945-1.312,1.848-1.312c1.187,0,1.564,0.746,1.564,1.669v3.653H456.337z
			"/>
		<path d="M462.71,136.555c0-0.294,0.011-0.756,0.095-1.208l-0.021-0.01c-0.305,0.861-0.955,1.323-1.795,1.323
			c-1.197,0-2.016-0.871-2.016-2.467c0-1.816,1.165-2.929,2.793-2.929c0.304,0,0.577,0.01,0.902,0.052v-2.425h0.945v7.664H462.71z
			 M462.668,132.125c-0.314-0.073-0.63-0.115-0.935-0.115c-0.986,0-1.774,0.598-1.774,2.1c0,1.123,0.494,1.774,1.281,1.774
			c0.945,0,1.428-1.186,1.428-2.1V132.125z"/>
		<path d="M467.446,136.67c-0.714,0-1.354-0.084-1.868-0.263l0.126-0.871c0.504,0.241,1.112,0.388,1.858,0.388
			c0.629,0,1.26-0.262,1.26-0.788c0-1.26-3.15-0.409-3.15-2.372c0-0.851,0.756-1.543,2.247-1.543c0.588,0,1.155,0.074,1.575,0.178
			l-0.095,0.777c-0.525-0.179-1.04-0.242-1.554-0.242c-0.777,0-1.134,0.315-1.134,0.724c0,1.187,3.159,0.41,3.159,2.352
			C469.871,136.167,468.675,136.67,467.446,136.67z"/>
		<path d="M472.97,128.282c1.764,1.617,2.582,3.254,2.582,5.291c0,2.142-1.028,3.916-2.604,5.343l-0.535-0.546
			c1.417-1.386,2.194-3.034,2.194-4.724c0-1.764-0.735-3.37-2.205-4.787L472.97,128.282z"/>
	</g>
</g>
<g>
	<g>
		<path d="M72.184,139.333c-0.063-0.398-0.126-0.714-0.147-0.976h-1.459v5.595c0.315,0.021,0.641,0.074,0.913,0.137v0.567h-2.782
			v-0.567c0.273-0.063,0.598-0.115,0.914-0.137v-5.595h-1.459c-0.021,0.262-0.074,0.578-0.147,0.976h-0.661v-1.764h5.501v1.764
			H72.184z"/>
		<path d="M73.35,144.656v-0.567c0.272-0.063,0.598-0.115,0.913-0.137v-3.769c-0.252-0.042-0.609-0.084-0.913-0.105v-0.567
			c0.524-0.063,1.249-0.105,1.858-0.073v4.514c0.304,0.021,0.62,0.074,0.882,0.137v0.567H73.35z M74.746,138.399
			c-0.346,0-0.63-0.262-0.63-0.609s0.284-0.619,0.63-0.619c0.336,0,0.62,0.272,0.62,0.619
			C75.366,138.126,75.082,138.399,74.746,138.399z"/>
		<path d="M83.996,144.656v-3.349c0-0.714-0.168-1.186-0.84-1.186c-0.745,0-1.47,0.788-1.47,2.058v1.774
			c0.294,0.021,0.588,0.063,0.851,0.137v0.567h-1.785v-3.349c0-0.661-0.136-1.186-0.85-1.186c-0.788,0-1.459,0.861-1.459,2.058
			v1.774c0.284,0.021,0.588,0.063,0.84,0.137v0.567h-2.698v-0.567c0.272-0.063,0.598-0.115,0.913-0.137v-3.769
			c-0.252-0.042-0.609-0.084-0.913-0.105v-0.567c0.524-0.063,1.26-0.105,1.837-0.073c0,0.304-0.031,0.787-0.084,1.102l0.021,0.01
			c0.294-0.734,0.966-1.207,1.806-1.207c1.102,0,1.396,0.756,1.449,1.187c0.21-0.494,0.777-1.187,1.785-1.187
			c0.987,0,1.543,0.525,1.543,1.711v2.897c0.314,0.021,0.619,0.074,0.882,0.137v0.567H83.996z"/>
		<path d="M90.853,142.032h-3.412c-0.042,1.365,0.515,1.953,1.648,1.953c0.504,0,1.028-0.105,1.49-0.304l0.137,0.745
			c-0.525,0.21-1.155,0.325-1.806,0.325c-1.585,0-2.446-0.84-2.446-2.677c0-1.554,0.872-2.729,2.352-2.729
			c1.459,0,2.068,0.977,2.068,2.142C90.884,141.612,90.874,141.822,90.853,142.032z M88.753,140.058
			c-0.683,0-1.166,0.504-1.281,1.302h2.446C89.939,140.562,89.488,140.058,88.753,140.058z"/>
		<path d="M91.862,142.032v-0.777h2.478v0.777H91.862z"/>
		<path d="M98.875,144.656c0-0.294,0.021-0.756,0.084-1.06l-0.021-0.011c-0.294,0.703-0.935,1.165-1.753,1.165
			c-1.281,0-1.921-0.934-1.921-2.456c0-1.827,1.05-2.929,2.698-2.929c0.283,0,0.567,0.021,0.882,0.052v-1.68
			c-0.252-0.042-0.609-0.084-0.913-0.104v-0.567c0.524-0.062,1.249-0.104,1.858-0.073v6.918c0.252,0.042,0.598,0.084,0.882,0.105
			v0.566C100.176,144.646,99.452,144.688,98.875,144.656z M98.843,140.226c-0.315-0.073-0.63-0.115-0.924-0.115
			c-0.997,0-1.659,0.598-1.659,2.1c0,1.123,0.368,1.764,1.155,1.764c0.945,0,1.428-1.103,1.428-2.016V140.226z"/>
		<path d="M103.568,144.75c-1.428,0-2.341-0.818-2.341-2.624c0-1.564,0.966-2.782,2.541-2.782c1.322,0,2.341,0.725,2.341,2.625
			C106.109,143.533,105.143,144.75,103.568,144.75z M103.684,140.131c-0.767,0-1.48,0.578-1.48,1.921c0,1.208,0.504,1.9,1.47,1.9
			c0.777,0,1.459-0.608,1.459-1.91C105.132,140.825,104.628,140.131,103.684,140.131z"/>
		<path d="M114.256,144.656v-3.349c0-0.714-0.168-1.186-0.84-1.186c-0.745,0-1.47,0.788-1.47,2.058v1.774
			c0.294,0.021,0.588,0.063,0.851,0.137v0.567h-1.785v-3.349c0-0.661-0.136-1.186-0.85-1.186c-0.788,0-1.459,0.861-1.459,2.058
			v1.774c0.284,0.021,0.588,0.063,0.84,0.137v0.567h-2.698v-0.567c0.272-0.063,0.598-0.115,0.913-0.137v-3.769
			c-0.252-0.042-0.609-0.084-0.913-0.105v-0.567c0.524-0.063,1.26-0.105,1.837-0.073c0,0.304-0.031,0.787-0.084,1.102l0.021,0.01
			c0.294-0.734,0.966-1.207,1.806-1.207c1.102,0,1.396,0.756,1.449,1.187c0.21-0.494,0.777-1.187,1.785-1.187
			c0.987,0,1.543,0.525,1.543,1.711v2.897c0.314,0.021,0.619,0.074,0.882,0.137v0.567H114.256z"/>
		<path d="M119.875,144.656c0-0.368,0.011-0.746,0.063-1.04h-0.021c-0.252,0.641-0.913,1.134-1.774,1.134s-1.449-0.535-1.449-1.375
			c0-1.123,1.165-1.785,3.128-1.785v-0.388c0-0.735-0.262-1.145-1.092-1.145c-0.315,0-0.682,0.053-0.976,0.147
			c-0.021,0.262-0.074,0.556-0.126,0.85h-0.588v-1.428c0.524-0.168,1.154-0.294,1.774-0.294c1.533,0,1.963,0.704,1.963,1.743v2.834
			c0.252,0.042,0.598,0.084,0.882,0.105v0.566C121.166,144.646,120.442,144.688,119.875,144.656z M119.822,142.242
			c-1.638,0-2.205,0.409-2.205,0.987c0,0.452,0.315,0.777,0.798,0.777c0.84,0,1.407-0.829,1.407-1.648V142.242z"/>
		<path d="M122.143,144.656v-0.567c0.273-0.063,0.599-0.115,0.914-0.137v-3.769c-0.252-0.042-0.609-0.084-0.914-0.105v-0.567
			c0.525-0.063,1.25-0.105,1.858-0.073v4.514c0.305,0.021,0.619,0.074,0.882,0.137v0.567H122.143z M123.54,138.399
			c-0.347,0-0.63-0.262-0.63-0.609s0.283-0.619,0.63-0.619c0.336,0,0.619,0.272,0.619,0.619
			C124.159,138.126,123.875,138.399,123.54,138.399z"/>
		<path d="M129.608,144.656v-3.359c0-0.735-0.199-1.176-0.882-1.176c-0.861,0-1.491,0.882-1.491,2.037v1.795
			c0.284,0.021,0.588,0.063,0.84,0.137v0.567h-2.698v-0.567c0.272-0.063,0.598-0.115,0.913-0.137v-3.769
			c-0.252-0.042-0.609-0.084-0.913-0.105v-0.567c0.524-0.063,1.249-0.105,1.826-0.073c0,0.304-0.021,0.787-0.073,1.102h0.011
			c0.304-0.714,0.955-1.197,1.848-1.197c1.186,0,1.564,0.745,1.564,1.669v2.939c0.304,0.021,0.62,0.074,0.872,0.137v0.567H129.608z"
			/>
		<path d="M136.821,144.719c-0.336,0-0.578-0.011-0.892-0.063v1.89c0.314,0.021,0.64,0.074,0.913,0.136v0.567h-2.729v-0.567
			c0.273-0.062,0.557-0.115,0.871-0.136v-6.362c-0.252-0.042-0.577-0.084-0.871-0.105v-0.567c0.515-0.063,1.229-0.105,1.795-0.073
			c0,0.294-0.031,0.766-0.084,1.06l0.021,0.01c0.294-0.724,0.924-1.165,1.742-1.165c1.229,0,1.921,0.861,1.921,2.457
			C139.509,143.659,138.501,144.719,136.821,144.719z M137.357,140.121c-0.945,0-1.428,1.102-1.428,2.016v1.722
			c0.283,0.084,0.577,0.126,0.934,0.126c0.987,0,1.648-0.598,1.648-2.1C138.511,140.761,138.155,140.121,137.357,140.121z"/>
		<path d="M140.15,144.656v-0.567c0.262-0.063,0.578-0.115,0.882-0.137v-6.215c-0.252-0.042-0.598-0.084-0.903-0.104v-0.567
			c0.535-0.062,1.239-0.104,1.848-0.073v6.96c0.305,0.021,0.619,0.074,0.882,0.137v0.567H140.15z"/>
		<path d="M145.747,144.75c-1.428,0-2.341-0.818-2.341-2.624c0-1.564,0.966-2.782,2.54-2.782c1.323,0,2.341,0.725,2.341,2.625
			C148.287,143.533,147.321,144.75,145.747,144.75z M145.862,140.131c-0.766,0-1.48,0.578-1.48,1.921c0,1.208,0.504,1.9,1.47,1.9
			c0.777,0,1.459-0.608,1.459-1.91C147.311,140.825,146.807,140.131,145.862,140.131z"/>
		<path d="M151.217,144.74c-1.071,0-1.396-0.441-1.396-1.564v-3.003h-1.071v-0.734h1.071v-1.69l0.944-0.263v1.953h1.459v0.734
			h-1.459v2.667c0,0.86,0.168,1.092,0.746,1.092c0.242,0,0.472-0.032,0.662-0.084l0.094,0.776
			C151.962,144.698,151.553,144.74,151.217,144.74z"/>
		<path d="M157.674,144.75c-1.428,0-2.341-0.818-2.341-2.624c0-1.564,0.966-2.782,2.541-2.782c1.322,0,2.341,0.725,2.341,2.625
			C160.214,143.533,159.249,144.75,157.674,144.75z M157.79,140.131c-0.767,0-1.48,0.578-1.48,1.921c0,1.208,0.504,1.9,1.47,1.9
			c0.777,0,1.459-0.608,1.459-1.91C159.238,140.825,158.734,140.131,157.79,140.131z"/>
		<path d="M164.708,137.812c-0.262-0.084-0.535-0.116-0.787-0.116c-0.735,0-1.081,0.42-1.081,1.344v0.399h1.459v0.734h-1.459v3.779
			c0.314,0.021,0.64,0.074,0.913,0.137v0.567h-2.771v-0.567c0.273-0.063,0.599-0.115,0.913-0.137v-3.779h-1.144v-0.734h1.144v-0.389
			c0-1.438,0.725-2.121,2.026-2.121c0.294,0,0.567,0.032,0.871,0.094L164.708,137.812z"/>
		<path d="M171.25,144.656v-3.359c0-0.735-0.2-1.176-0.882-1.176c-0.861,0-1.491,0.882-1.491,2.037v1.795
			c0.283,0.021,0.588,0.063,0.84,0.137v0.567h-2.698v-0.567c0.273-0.063,0.599-0.115,0.914-0.137v-3.769
			c-0.252-0.042-0.609-0.084-0.914-0.105v-0.567c0.525-0.063,1.25-0.105,1.827-0.073c0,0.304-0.021,0.787-0.074,1.102h0.01
			c0.305-0.714,0.956-1.197,1.848-1.197c1.187,0,1.564,0.745,1.564,1.669v2.939c0.305,0.021,0.619,0.074,0.871,0.137v0.567H171.25z"
			/>
		<path d="M176.027,144.75c-1.428,0-2.341-0.818-2.341-2.624c0-1.564,0.966-2.782,2.541-2.782c1.322,0,2.341,0.725,2.341,2.625
			C178.568,143.533,177.602,144.75,176.027,144.75z M176.143,140.131c-0.767,0-1.48,0.578-1.48,1.921c0,1.208,0.504,1.9,1.47,1.9
			c0.777,0,1.459-0.608,1.459-1.91C177.591,140.825,177.087,140.131,176.143,140.131z"/>
		<path d="M181.498,144.74c-1.071,0-1.396-0.441-1.396-1.564v-3.003h-1.071v-0.734h1.071v-1.69l0.944-0.263v1.953h1.459v0.734
			h-1.459v2.667c0,0.86,0.168,1.092,0.746,1.092c0.242,0,0.472-0.032,0.662-0.084l0.094,0.776
			C182.244,144.698,181.834,144.74,181.498,144.74z"/>
		<path d="M187.713,142.032h-3.412c-0.042,1.365,0.514,1.953,1.648,1.953c0.504,0,1.029-0.105,1.491-0.304l0.136,0.745
			c-0.525,0.21-1.155,0.325-1.806,0.325c-1.585,0-2.446-0.84-2.446-2.677c0-1.554,0.871-2.729,2.352-2.729
			c1.459,0,2.068,0.977,2.068,2.142C187.745,141.612,187.735,141.822,187.713,142.032z M185.614,140.058
			c-0.682,0-1.165,0.504-1.28,1.302h2.446C186.8,140.562,186.349,140.058,185.614,140.058z"/>
		<path d="M195.168,144.656v-0.567c0.252-0.053,0.546-0.105,0.818-0.126l-0.409-1.165h-2.96l-0.41,1.165
			c0.273,0.021,0.578,0.073,0.83,0.126v0.567h-2.457v-0.567c0.189-0.053,0.451-0.105,0.641-0.115l2.33-6.404h1.176l2.341,6.404
			c0.189,0.01,0.452,0.062,0.64,0.115v0.567H195.168z M194.433,139.523c-0.126-0.368-0.23-0.683-0.325-1.029h-0.021
			c-0.084,0.336-0.189,0.662-0.304,1.019l-0.914,2.52h2.467L194.433,139.523z"/>
		<path d="M202.109,144.656v1.281c0.304,0.021,0.619,0.073,0.882,0.147v0.536h-2.74v-0.536c0.273-0.074,0.599-0.126,0.913-0.147
			v-1.281h-3.086l-0.158-0.777l2.96-4.682h1.229v4.609h1.218v0.85H202.109z M201.174,140.121h-0.011l-2.32,3.695
			c0.598-0.01,1.963-0.01,2.331-0.01V140.121z"/>
		<path d="M208.482,144.73c-0.714,0-1.239-0.063-1.785-0.21v-6.782c-0.252-0.042-0.599-0.084-0.903-0.104v-0.567
			c0.525-0.062,1.239-0.104,1.848-0.073v2.53c0,0.304-0.032,0.714-0.094,0.976l0.021,0.01c0.284-0.734,0.935-1.165,1.722-1.165
			c1.229,0,1.921,0.861,1.921,2.457C211.212,143.627,210.172,144.73,208.482,144.73z M209.07,140.121
			c-0.945,0-1.428,1.102-1.428,2.005v1.732c0.262,0.084,0.556,0.126,0.924,0.126c0.987,0,1.659-0.598,1.659-2.1
			C210.225,140.761,209.858,140.121,209.07,140.121z"/>
		<path d="M214.436,144.75c-1.428,0-2.341-0.818-2.341-2.624c0-1.564,0.966-2.782,2.54-2.782c1.323,0,2.341,0.725,2.341,2.625
			C216.977,143.533,216.011,144.75,214.436,144.75z M214.551,140.131c-0.766,0-1.48,0.578-1.48,1.921c0,1.208,0.504,1.9,1.47,1.9
			c0.777,0,1.459-0.608,1.459-1.91C216,140.825,215.497,140.131,214.551,140.131z"/>
		<path d="M225.45,140.131l-1.428,4.525h-1.082l-1.029-3.076c-0.115-0.326-0.21-0.672-0.294-1.04h-0.011
			c-0.115,0.462-0.241,0.872-0.378,1.312l-0.871,2.803h-1.092l-1.344-4.525c-0.231-0.021-0.462-0.062-0.672-0.126v-0.566h2.404
			v0.566c-0.221,0.063-0.462,0.105-0.725,0.126l0.641,2.331c0.115,0.43,0.241,0.85,0.325,1.186h0.011
			c0.094-0.441,0.22-0.872,0.356-1.281l0.935-2.929h0.977l0.944,2.929c0.189,0.619,0.284,0.924,0.368,1.281h0.01
			c0.095-0.368,0.189-0.672,0.326-1.144l0.682-2.373c-0.241-0.021-0.504-0.062-0.724-0.126v-0.566h2.341v0.566
			C225.912,140.069,225.68,140.111,225.45,140.131z"/>
		<path d="M230.805,142.032h-3.412c-0.042,1.365,0.515,1.953,1.648,1.953c0.504,0,1.028-0.105,1.49-0.304l0.137,0.745
			c-0.525,0.21-1.155,0.325-1.806,0.325c-1.585,0-2.446-0.84-2.446-2.677c0-1.554,0.872-2.729,2.352-2.729
			c1.459,0,2.068,0.977,2.068,2.142C230.836,141.612,230.826,141.822,230.805,142.032z M228.706,140.058
			c-0.683,0-1.166,0.504-1.281,1.302h2.446C229.892,140.562,229.44,140.058,228.706,140.058z"/>
		<path d="M235.362,144.656c0-0.294,0.021-0.756,0.084-1.06l-0.021-0.011c-0.294,0.703-0.935,1.165-1.753,1.165
			c-1.281,0-1.921-0.934-1.921-2.456c0-1.827,1.05-2.929,2.698-2.929c0.283,0,0.567,0.021,0.882,0.052v-1.68
			c-0.252-0.042-0.609-0.084-0.913-0.104v-0.567c0.524-0.062,1.249-0.104,1.858-0.073v6.918c0.252,0.042,0.598,0.084,0.882,0.105
			v0.566C236.664,144.646,235.939,144.688,235.362,144.656z M235.331,140.226c-0.315-0.073-0.63-0.115-0.924-0.115
			c-0.997,0-1.659,0.598-1.659,2.1c0,1.123,0.368,1.764,1.155,1.764c0.945,0,1.428-1.103,1.428-2.016V140.226z"/>
		<path d="M242.418,144.75c-1.428,0-2.341-0.818-2.341-2.624c0-1.564,0.966-2.782,2.541-2.782c1.322,0,2.341,0.725,2.341,2.625
			C244.958,143.533,243.993,144.75,242.418,144.75z M242.534,140.131c-0.767,0-1.48,0.578-1.48,1.921c0,1.208,0.504,1.9,1.47,1.9
			c0.777,0,1.459-0.608,1.459-1.91C243.982,140.825,243.478,140.131,242.534,140.131z"/>
		<path d="M249.925,144.656v-3.359c0-0.735-0.199-1.176-0.882-1.176c-0.861,0-1.491,0.882-1.491,2.037v1.795
			c0.284,0.021,0.588,0.063,0.84,0.137v0.567h-2.698v-0.567c0.272-0.063,0.598-0.115,0.913-0.137v-3.769
			c-0.252-0.042-0.609-0.084-0.913-0.105v-0.567c0.524-0.063,1.249-0.105,1.826-0.073c0,0.304-0.021,0.787-0.073,1.102h0.011
			c0.304-0.714,0.955-1.197,1.848-1.197c1.186,0,1.564,0.745,1.564,1.669v2.939c0.304,0.021,0.62,0.074,0.872,0.137v0.567H249.925z"
			/>
		<path d="M257.863,144.656c0-0.368,0.011-0.746,0.063-1.04h-0.021c-0.252,0.641-0.913,1.134-1.774,1.134s-1.449-0.535-1.449-1.375
			c0-1.123,1.165-1.785,3.128-1.785v-0.388c0-0.735-0.262-1.145-1.092-1.145c-0.315,0-0.682,0.053-0.976,0.147
			c-0.021,0.262-0.074,0.556-0.126,0.85h-0.588v-1.428c0.524-0.168,1.154-0.294,1.774-0.294c1.533,0,1.963,0.704,1.963,1.743v2.834
			c0.252,0.042,0.598,0.084,0.882,0.105v0.566C259.154,144.646,258.43,144.688,257.863,144.656z M257.811,142.242
			c-1.638,0-2.205,0.409-2.205,0.987c0,0.452,0.315,0.777,0.798,0.777c0.84,0,1.407-0.829,1.407-1.648V142.242z"/>
		<path d="M264.909,144.74c-1.291,0-2.362-0.598-2.362-2.52c0-1.68,0.851-2.866,2.593-2.866c0.441,0,0.914,0.073,1.281,0.188v1.522
			h-0.588c-0.063-0.305-0.105-0.599-0.137-0.851c-0.178-0.052-0.42-0.084-0.703-0.084c-0.935,0-1.459,0.788-1.459,1.932
			c0,1.061,0.346,1.858,1.574,1.858c0.452,0,0.893-0.095,1.25-0.252l0.158,0.787C266.116,144.604,265.539,144.74,264.909,144.74z"/>
		<path d="M271.618,142.032h-3.412c-0.042,1.365,0.514,1.953,1.648,1.953c0.504,0,1.029-0.105,1.491-0.304l0.136,0.745
			c-0.525,0.21-1.155,0.325-1.806,0.325c-1.585,0-2.446-0.84-2.446-2.677c0-1.554,0.871-2.729,2.352-2.729
			c1.459,0,2.068,0.977,2.068,2.142C271.649,141.612,271.639,141.822,271.618,142.032z M269.518,140.058
			c-0.682,0-1.165,0.504-1.28,1.302h2.446C270.705,140.562,270.253,140.058,269.518,140.058z"/>
		<path d="M272.322,144.656v-0.567c0.263-0.063,0.577-0.115,0.882-0.137v-6.215c-0.252-0.042-0.599-0.084-0.903-0.104v-0.567
			c0.536-0.062,1.239-0.104,1.848-0.073v6.96c0.304,0.021,0.62,0.074,0.882,0.137v0.567H272.322z"/>
		<path d="M275.409,144.656v-0.567c0.263-0.063,0.577-0.115,0.882-0.137v-6.215c-0.252-0.042-0.599-0.084-0.903-0.104v-0.567
			c0.536-0.062,1.239-0.104,1.847-0.073v6.96c0.305,0.021,0.621,0.074,0.883,0.137v0.567H275.409z"/>
		<path d="M281.006,144.75c-1.428,0-2.342-0.818-2.342-2.624c0-1.564,0.967-2.782,2.541-2.782c1.322,0,2.34,0.725,2.34,2.625
			C283.545,143.533,282.58,144.75,281.006,144.75z M281.121,140.131c-0.768,0-1.48,0.578-1.48,1.921c0,1.208,0.504,1.9,1.469,1.9
			c0.777,0,1.461-0.608,1.461-1.91C282.57,140.825,282.066,140.131,281.121,140.131z"/>
	</g>
</g>
<line fill="none" stroke="#CCCCCC" stroke-width="0.75" x1="67.193" y1="104.157" x2="67.193" y2="109.555"/>
<line fill="none" stroke="#CCCCCC" stroke-width="0.75" x1="67.022" y1="10.203" x2="476.396" y2="10.203"/>
<line fill="none" stroke="#CCCCCC" stroke-width="0.75" x1="67.022" y1="104.157" x2="476.396" y2="104.157"/>
<line fill="none" stroke="#CCCCCC" stroke-width="0.75" x1="67.022" y1="57.193" x2="476.396" y2="57.193"/>
<g>
	<text transform="matrix(1 0 0 1 54.8516 59.3027)" font-family="'TheSansMono-Light'" font-size="9">0</text>
</g>
<g>
	<g>
		<path d="M69.007,117.366c0,1.989-0.738,3.088-2.035,3.088c-1.144,0-1.917-1.071-1.936-3.007c0-1.963,0.846-3.043,2.035-3.043
			C68.305,114.404,69.007,115.502,69.007,117.366z M65.829,117.456c0,1.521,0.468,2.386,1.188,2.386c0.81,0,1.197-0.945,1.197-2.44
			c0-1.44-0.369-2.385-1.188-2.385C66.333,115.017,65.829,115.863,65.829,117.456z"/>
	</g>
</g>
<g>
	<g>
		<path d="M126.95,115.242h-0.018l-1.017,0.549l-0.153-0.603l1.279-0.684h0.675v5.852h-0.765V115.242z"/>
	</g>
</g>
<g>
	<g>
		<path d="M185.848,120.355v-0.486l0.621-0.603c1.494-1.422,2.169-2.179,2.179-3.061c0-0.594-0.288-1.143-1.162-1.143
			c-0.531,0-0.972,0.27-1.242,0.495l-0.252-0.558c0.405-0.342,0.981-0.594,1.656-0.594c1.26,0,1.792,0.864,1.792,1.702
			c0,1.08-0.783,1.953-2.017,3.142l-0.468,0.432v0.018h2.628v0.657H185.848z"/>
	</g>
</g>
<g>
	<g>
		<path d="M57.449,7.744v2.116h2.035v0.54h-2.035v2.134h-0.576v-2.134h-2.035v-0.54h2.035V7.744H57.449z"/>
	</g>
</g>
<g>
	<g>
		<path d="M58.272,103.486v0.585h-2.224v-0.585H58.272z"/>
	</g>
</g>
<path fill="none" stroke="#000000" stroke-width="0.75" stroke-linecap="round" d="M67.022,57.193c0,0,1.981-9.463,1.981-12.4
	c0-2.937,1.285-6.94,2.478-7.505c1.115-0.527,1.735,0.815,2.479,2.447c0.744,1.632,1.115,2.447,1.61,3.915
	c0.495,1.469,1.115,2.938,1.983,2.284c0.866-0.652,1.486-4.405,1.486-5.058s1.61-10.769,2.105-13.053
	c0.496-2.284,1.363-6.853,1.487-7.505s0.371-2.773,1.487-2.61c1.114,0.163,2.105,1.142,2.725,2.773
	c0.62,1.632,1.487,3.916,2.603,4.079c1.114,0.163,3.469,1.632,3.965,0.489c0.495-1.142,2.328-3.925,2.774-4.488
	c0.506-0.638,1.313-1.223,2.43-0.08c1.114,1.142,1.238,4.405,1.981,5.711s2.603,4.241,2.726,5.384
	c0.124,1.143,0.496,2.284,0.867,3.59c0.372,1.305,1.239,1.795,1.61,3.263c0.372,1.469,0.496,4.242,1.363,4.568
	c0.868,0.327,2.726,1.795,4.584-0.326s2.354,0.979,2.603,1.469c0.247,0.489,1.114,3.1,1.114,4.405s0.62,5.058,1.115,5.71
	c0.495,0.653,0.867,4.079,0.867,4.079s0.495,1.959,1.362,3.59c0.868,1.632,1.611,3.59,2.354,3.753s1.948,0.622,2.668,1.318
	c0.947,0.915,1.669,0.803,2.04,1.781c0.372,0.979,2.106,3.264,2.85,5.547c0.744,2.284,2.597,0.275,3.346,0.163
	c1.189-0.178,1.858,1.306,2.478,1.306s2.726,0,2.974-0.815c0.247-0.815,1.61-2.284,2.354-3.427c0.744-1.142,1.363-3.915,2.726-4.405
	c1.363-0.489,2.104-2.09,3.324-0.427c0.735,1.002,1.385,0.753,1.508,2.548c0,0,0.495,2.447,0.495,4.242
	c0,0.673,0.373,1.469,0.868,2.121c0.495,0.653,1.734-0.652,2.229,0.815c0.496,1.469,0.868,2.938,1.115,4.08
	c0.248,1.142,0.124,1.794,0.867,2.61c0.744,0.815,1.415,1.665,2.321,0.926c1.052-0.857,1.644-2.395,1.892-4.026
	c0.248-1.631,1.858-6.853,1.982-7.342c0.124-0.49,1.982-6.2,2.602-7.995s0.945-3.461,1.239-4.079
	c0.763-1.603,1.142-5.231,2.804-2.904c1.154,1.616,0.912,2.089,0.912,4.046c0,1.959,0.373,6.527,0.991,8.321
	c0.62,1.796,1.487,8.647,1.487,10.769s0.372,5.222,0.372,5.875c0,0.652,0.269,3.341,1.075,3.986
	c1.768,1.412,2.326-2.294,2.945-4.904c0.621-2.611,1.184-3.978,1.679-7.403c0.495-3.427,2.229-13.054,2.229-15.337
	c0-2.285,0.3-5.242,0.992-7.016c0.441-1.135,0.316-2.299,0.927-2.908c0.844-0.842,1.873-0.555,2.046,1.275
	c0.215,2.267,0.496,2.938,0.868,4.732c0.371,1.795,1.61,3.589,1.61,5.547s0,3.101,0.496,4.405c0.495,1.306,0.247,3.427,1.238,4.079
	s1.99-0.938,2.105-2.773c0.136-2.139,2.345-6.821,3.522-8.206c0.382-0.448,1.428-3.005,2.55-3.052
	c1.217-0.051,1.981,0.652,2.478,1.957c0.495,1.307,1.981,4.732,3.345,5.059c1.362,0.326,2.105-0.816,2.602-2.121
	c0.495-1.306,0.912-2.817,1.611-6.689s1.76-9.556,2.059-12.563c0.3-3.008,1.287-6.94,2.479-7.505
	c1.115-0.527,1.734,0.815,2.479,2.447c0.743,1.632,1.114,2.447,1.61,3.915c0.496,1.469,1.114,2.938,1.982,2.284
	c0.866-0.652,1.486-4.405,1.486-5.058s1.611-10.769,2.106-13.053c0.496-2.284,1.363-6.853,1.486-7.505
	c0.124-0.652,0.372-2.773,1.487-2.61c1.114,0.163,2.106,1.142,2.726,2.773s1.486,3.916,2.602,4.079s3.469,1.632,3.965,0.489
	c0.495-1.142,2.328-3.925,2.776-4.488c0.505-0.638,1.312-1.223,2.428-0.08c1.114,1.142,1.238,4.405,1.981,5.711
	c0.744,1.306,2.602,4.241,2.726,5.384c0.125,1.143,0.496,2.284,0.868,3.59c0.371,1.305,1.238,1.795,1.61,3.263
	c0.372,1.469,0.496,4.242,1.362,4.568c0.868,0.327,2.726,1.795,4.584-0.326c1.859-2.121,2.354,0.979,2.603,1.469
	c0.248,0.489,1.114,3.1,1.114,4.405s0.62,5.058,1.115,5.71c0.496,0.653,0.868,4.079,0.868,4.079s0.495,1.959,1.362,3.59
	c0.867,1.632,1.61,3.59,2.354,3.753c0.743,0.163,1.947,0.622,2.667,1.318c0.947,0.915,1.669,0.803,2.041,1.781
	c0.372,0.979,2.105,3.264,2.85,5.547c0.743,2.284,2.596,0.275,3.345,0.163c1.189-0.178,1.858,1.306,2.478,1.306
	c0.62,0,2.727,0,2.974-0.815c0.249-0.815,1.612-2.284,2.356-3.427c0.74-1.142,1.361-3.915,2.725-4.405
	c1.361-0.489,2.104-2.09,3.324-0.427c0.734,1.002,1.383,0.753,1.508,2.548c0,0,0.494,2.447,0.494,4.242
	c0,0.673,0.373,1.469,0.867,2.121c0.496,0.653,1.734-0.652,2.23,0.815c0.496,1.469,0.867,2.938,1.115,4.08
	c0.25,1.142,0.123,1.794,0.867,2.61c0.744,0.815,1.416,1.665,2.32,0.926c1.053-0.857,1.645-2.395,1.893-4.026
	c0.246-1.631,1.857-6.853,1.982-7.342c0.125-0.49,1.982-6.2,2.604-7.995c0.615-1.795,0.941-3.461,1.236-4.079
	c0.764-1.603,1.143-5.231,2.803-2.904c1.156,1.616,0.914,2.089,0.914,4.046c0,1.959,0.373,6.527,0.992,8.321
	c0.619,1.796,1.486,8.647,1.486,10.769s0.371,5.222,0.371,5.875c0,0.652,0.27,3.341,1.076,3.986
	c1.768,1.412,2.326-2.294,2.945-4.904c0.621-2.611,1.184-3.978,1.678-7.403c0.496-3.427,2.23-13.054,2.23-15.337
	c0-2.285,0.301-5.242,0.992-7.016c0.441-1.135,0.316-2.299,0.928-2.908c0.844-0.842,1.873-0.555,2.045,1.275
	c0.215,2.267,0.496,2.938,0.867,4.732s1.611,3.589,1.611,5.547s0,3.101,0.494,4.405c0.496,1.306,0.248,3.427,1.238,4.079
	c0.994,0.652,1.992-0.938,2.107-2.773c0.135-2.139,2.344-6.821,3.523-8.206c0.381-0.448,1.426-3.005,2.547-3.052
	c1.219-0.051,1.984,0.652,2.479,1.957c0.494,1.307,1.982,4.732,3.346,5.059c1.361,0.326,2.105-0.816,2.602-2.121
	c0.496-1.306,0.621-3.666,1.611-6.689c0.551-3.447,1.498-8.844,2.027-12.563c0.533-3.72,1.285-6.94,2.479-7.505
	c1.117-0.527,1.734,0.815,2.479,2.447s1.113,2.447,1.611,3.915c0.496,1.469,1.113,2.938,1.982,2.284
	c0.865-0.652,1.486-4.405,1.486-5.058s1.609-10.769,2.105-13.053s1.363-6.853,1.486-7.505s0.373-2.773,1.486-2.61
	c1.117,0.163,2.105,1.142,2.727,2.773s1.486,3.916,2.604,4.079c1.111,0.163,3.469,1.632,3.963,0.489
	c0.494-1.142,2.328-3.925,2.775-4.488c0.506-0.638,1.312-1.223,2.43-0.08c1.113,1.142,1.238,4.405,1.98,5.711
	c0.744,1.306,2.602,4.241,2.727,5.384s0.494,2.284,0.867,3.59c0.371,1.305,1.24,1.795,1.609,3.263
	c0.373,1.469,0.498,4.242,1.365,4.568c0.865,0.327,2.725,1.795,4.582-0.326s2.355,0.979,2.602,1.469
	c0.25,0.489,1.115,3.1,1.115,4.405s0.621,5.058,1.115,5.71c0.494,0.653,0.869,4.079,0.869,4.079s0.494,1.959,1.361,3.59
	c0.867,1.632,1.611,3.59,2.354,3.753c0.744,0.163,1.947,0.622,2.668,1.318c0.947,0.915,1.668,0.803,2.043,1.781
	c0.369,0.979,2.105,3.264,2.848,5.547c0.744,2.284,2.596,0.275,3.346,0.163c1.189-0.178,1.857,1.306,2.479,1.306
	c0.617,0,2.723,0,2.971-0.815c0.25-0.815,1.611-2.284,2.355-3.427c0.744-1.142,1.363-3.915,2.725-4.405
	c1.365-0.489,2.105-2.09,3.326-0.427c0.734,1.002,1.385,0.753,1.508,2.548c0,0,0.492,2.447,0.492,4.242
	c0,0.673,0.375,1.469,0.869,2.121c0.496,0.653,1.734-0.652,2.23,0.815c0.494,1.469,0.867,2.938,1.113,4.08
	c0.25,1.142,0.125,1.794,0.867,2.61c0.744,0.815,1.418,1.665,2.322,0.926c1.053-0.857,1.645-2.395,1.891-4.026
	c0.248-1.631,1.859-6.853,1.982-7.342c0.125-0.49,1.984-6.2,2.602-7.995c0.621-1.795,0.947-3.461,1.242-4.079
	c0.762-1.603,1.141-5.231,2.801-2.904c1.156,1.616,0.912,2.089,0.912,4.046c0,1.959,0.375,6.527,0.992,8.321
	c0.619,1.796,1.488,8.647,1.488,10.769s0.373,5.222,0.373,5.875c0,0.652,0.266,3.341,1.074,3.986
	c1.77,1.412,2.326-2.294,2.945-4.904c0.621-2.611,1.184-3.978,1.678-7.403c0.496-3.427,2.23-13.054,2.23-15.337
	c0-2.285,0.299-5.242,0.99-7.016c0.441-1.135,0.316-2.299,0.928-2.908c0.844-0.842,1.873-0.555,2.045,1.275
	c0.217,2.267,0.498,2.938,0.869,4.732s1.611,3.589,1.611,5.547s0,3.101,0.494,4.405c0.498,1.306,0.25,3.427,1.238,4.079
	c0.992,0.652,1.992-0.938,2.107-2.773c0.135-2.139,2.346-6.821,3.521-8.206c0.381-0.448,1.43-3.005,2.551-3.052
	c1.217-0.051,1.98,0.652,2.477,1.957c0.494,1.307,1.98,4.732,3.346,5.059c1.361,0.326,2.104-0.816,2.602-2.121"/>
<path fill="none" stroke="#000000" stroke-width="0.75" stroke-linecap="round" d="M204.003,57.193"/>
<line fill="none" stroke="#000000" stroke-width="0.375" x1="203.948" y1="5.504" x2="203.948" y2="109.555"/>
<line fill="none" stroke="#000000" stroke-width="0.375" x1="341.07" y1="5.504" x2="341.07" y2="109.555"/>
<g>
	<line fill="none" stroke="#CCCCCC" stroke-width="0.75" x1="187.538" y1="109.555" x2="187.538" y2="104.157"/>
	<line fill="none" stroke="#CCCCCC" stroke-width="0.75" x1="127.365" y1="109.555" x2="127.365" y2="104.157"/>
	<line fill="none" stroke="#CCCCCC" stroke-width="0.75" x1="67.193" y1="109.555" x2="67.193" y2="104.157"/>
</g>
<g>
	<g>
		<path d="M245.893,119.446c0.225,0.144,0.747,0.369,1.296,0.369c1.017,0,1.333-0.648,1.323-1.134
			c-0.009-0.819-0.747-1.17-1.512-1.17h-0.441v-0.594H247c0.576,0,1.305-0.297,1.305-0.99c0-0.468-0.297-0.882-1.026-0.882
			c-0.468,0-0.918,0.207-1.17,0.387l-0.207-0.576c0.306-0.225,0.9-0.45,1.531-0.45c1.152,0,1.674,0.684,1.674,1.396
			c0,0.603-0.36,1.116-1.08,1.377v0.018c0.72,0.144,1.305,0.685,1.305,1.504c0,0.936-0.729,1.755-2.134,1.755
			c-0.657,0-1.233-0.207-1.521-0.396L245.893,119.446z"/>
	</g>
</g>
<g>
	<g>
		<path d="M308.528,120.355v-1.593h-2.719v-0.522l2.611-3.736h0.854v3.637h0.819v0.622h-0.819v1.593H308.528z M308.528,118.14
			v-1.954c0-0.306,0.01-0.612,0.027-0.918h-0.027c-0.18,0.342-0.324,0.594-0.485,0.864l-1.432,1.99v0.018H308.528z"/>
	</g>
</g>
<g>
	<g>
		<path d="M370.206,115.169h-2.233l-0.225,1.503c0.135-0.018,0.261-0.036,0.478-0.036c0.45,0,0.899,0.099,1.26,0.315
			c0.459,0.261,0.838,0.765,0.838,1.503c0,1.143-0.91,1.999-2.179,1.999c-0.64,0-1.18-0.18-1.459-0.36l0.198-0.603
			c0.243,0.144,0.72,0.324,1.251,0.324c0.748,0,1.387-0.486,1.387-1.27c-0.009-0.756-0.513-1.296-1.684-1.296
			c-0.333,0-0.594,0.036-0.811,0.063l0.379-2.809h2.8V115.169z"/>
	</g>
</g>
<g>
	<g>
		<path d="M430.29,115.062c-0.162-0.009-0.369,0-0.594,0.036c-1.243,0.208-1.9,1.117-2.035,2.08h0.027
			c0.279-0.369,0.765-0.675,1.413-0.675c1.035,0,1.765,0.747,1.765,1.891c0,1.071-0.729,2.062-1.944,2.062
			c-1.252,0-2.071-0.972-2.071-2.494c0-1.152,0.415-2.062,0.991-2.638c0.485-0.477,1.134-0.774,1.872-0.864
			c0.234-0.036,0.433-0.045,0.576-0.045V115.062z M430.065,118.438c0-0.837-0.478-1.341-1.207-1.341
			c-0.477,0-0.918,0.297-1.134,0.72c-0.055,0.09-0.091,0.207-0.091,0.351c0.019,0.963,0.46,1.674,1.288,1.674
			C429.605,119.842,430.065,119.275,430.065,118.438z"/>
	</g>
</g>
<g>
	<line fill="none" stroke="#CCCCCC" stroke-width="0.75" x1="307.881" y1="109.555" x2="307.881" y2="104.157"/>
</g>
<g>
	<line fill="none" stroke="#CCCCCC" stroke-width="0.75" x1="247.328" y1="109.555" x2="247.328" y2="104.157"/>
</g>
<g>
	<line fill="none" stroke="#CCCCCC" stroke-width="0.75" x1="368.436" y1="109.555" x2="368.436" y2="104.157"/>
</g>
<g>
	<line fill="none" stroke="#CCCCCC" stroke-width="0.75" x1="428.988" y1="109.555" x2="428.988" y2="104.157"/>
</g>
</svg>
