<?xml version="1.0" encoding="utf-8"?>
<!-- Generator: Adobe Illustrator 16.0.4, SVG Export Plug-In . SVG Version: 6.00 Build 0)  -->
<!DOCTYPE svg PUBLIC "-//W3C//DTD SVG 1.1//EN" "http://www.w3.org/Graphics/SVG/1.1/DTD/svg11.dtd">
<svg version="1.1" id="Layer_1" xmlns="http://www.w3.org/2000/svg" xmlns:xlink="http://www.w3.org/1999/xlink" x="0px" y="0px"
	 width="550px" height="180px" viewBox="0 0 550 180" enable-background="new 0 0 550 180" xml:space="preserve">
<line fill="none" stroke="#000000" stroke-width="0.75" x1="78.257" y1="127.972" x2="78.257" y2="109.332"/>
<line fill="none" stroke="#000000" stroke-width="0.75" x1="82.643" y1="127.972" x2="82.643" y2="103.284"/>
<line fill="none" stroke="#000000" stroke-width="0.75" x1="87.029" y1="127.972" x2="87.029" y2="76.436"/>
<line fill="none" stroke="#000000" stroke-width="0.75" x1="91.416" y1="127.972" x2="91.416" y2="5.563"/>
<line fill="none" stroke="#000000" stroke-width="0.75" x1="95.802" y1="127.972" x2="95.802" y2="77.532"/>
<line fill="none" stroke="#000000" stroke-width="0.75" x1="100.188" y1="127.972" x2="100.188" y2="98.366"/>
<line fill="none" stroke="#000000" stroke-width="0.75" x1="104.575" y1="127.972" x2="104.575" y2="100.559"/>
<line fill="none" stroke="#000000" stroke-width="0.75" x1="108.959" y1="127.972" x2="108.959" y2="99.463"/>
<line fill="none" stroke="#000000" stroke-width="0.75" x1="113.346" y1="127.972" x2="113.346" y2="105.09"/>
<line fill="none" stroke="#000000" stroke-width="0.75" x1="117.734" y1="127.972" x2="117.734" y2="110.109"/>
<line fill="none" stroke="#000000" stroke-width="0.75" x1="122.12" y1="127.972" x2="122.12" y2="65.469"/>
<line fill="none" stroke="#000000" stroke-width="0.75" x1="126.505" y1="127.972" x2="126.505" y2="103.849"/>
<line fill="none" stroke="#000000" stroke-width="0.75" x1="130.891" y1="127.972" x2="130.891" y2="111.524"/>
<line fill="none" stroke="#000000" stroke-width="0.75" x1="135.278" y1="127.972" x2="135.278" y2="119.2"/>
<line fill="none" stroke="#000000" stroke-width="0.75" x1="139.665" y1="127.972" x2="139.665" y2="58.89"/>
<line fill="none" stroke="#000000" stroke-width="0.75" x1="144.05" y1="127.972" x2="144.05" y2="107.139"/>
<line fill="none" stroke="#000000" stroke-width="0.75" x1="148.437" y1="127.972" x2="148.437" y2="110.428"/>
<line fill="none" stroke="#000000" stroke-width="0.75" x1="152.823" y1="127.972" x2="152.823" y2="111.524"/>
<line fill="none" stroke="#000000" stroke-width="0.75" x1="157.209" y1="127.972" x2="157.209" y2="100.559"/>
<line fill="none" stroke="#000000" stroke-width="0.75" x1="161.596" y1="127.972" x2="161.596" y2="112.621"/>
<line fill="none" stroke="#000000" stroke-width="0.75" x1="165.982" y1="127.972" x2="165.982" y2="111.524"/>
<line fill="none" stroke="#000000" stroke-width="0.75" x1="170.369" y1="127.972" x2="170.369" y2="68.76"/>
<line fill="none" stroke="#000000" stroke-width="0.75" x1="174.754" y1="127.972" x2="174.754" y2="113.717"/>
<line fill="none" stroke="#000000" stroke-width="0.75" x1="179.141" y1="127.972" x2="179.141" y2="115.911"/>
<line fill="none" stroke="#000000" stroke-width="0.75" x1="183.527" y1="127.972" x2="183.527" y2="116.52"/>
<line fill="none" stroke="#000000" stroke-width="0.75" x1="187.914" y1="127.972" x2="187.914" y2="69.37"/>
<line fill="none" stroke="#000000" stroke-width="0.75" x1="192.3" y1="127.972" x2="192.3" y2="119.2"/>
<line fill="none" stroke="#000000" stroke-width="0.75" x1="196.685" y1="127.972" x2="196.685" y2="114.815"/>
<line fill="none" stroke="#000000" stroke-width="0.75" x1="201.072" y1="127.972" x2="201.072" y2="106.042"/>
<line fill="none" stroke="#000000" stroke-width="0.75" x1="205.458" y1="127.972" x2="205.458" y2="91.787"/>
<line fill="none" stroke="#000000" stroke-width="0.75" x1="209.845" y1="127.972" x2="209.845" y2="121.394"/>
<line fill="none" stroke="#000000" stroke-width="0.75" x1="214.231" y1="127.972" x2="214.231" y2="123.586"/>
<line fill="none" stroke="#000000" stroke-width="0.75" x1="218.618" y1="127.972" x2="218.618" y2="86.304"/>
<line fill="none" stroke="#000000" stroke-width="0.75" x1="223.003" y1="127.972" x2="223.003" y2="80.821"/>
<line fill="none" stroke="#000000" stroke-width="0.75" x1="227.389" y1="127.972" x2="227.389" y2="121.394"/>
<line fill="none" stroke="#000000" stroke-width="0.75" x1="231.776" y1="127.972" x2="231.776" y2="111.524"/>
<line fill="none" stroke="#000000" stroke-width="0.75" x1="236.163" y1="127.972" x2="236.163" y2="68.76"/>
<line fill="none" stroke="#000000" stroke-width="0.75" x1="240.548" y1="127.972" x2="240.548" y2="108.235"/>
<line fill="none" stroke="#000000" stroke-width="0.75" x1="244.935" y1="127.972" x2="244.935" y2="117.006"/>
<line fill="none" stroke="#000000" stroke-width="0.75" x1="249.321" y1="127.972" x2="249.321" y2="119.2"/>
<line fill="none" stroke="#000000" stroke-width="0.75" x1="253.708" y1="127.972" x2="253.708" y2="100.559"/>
<line fill="none" stroke="#000000" stroke-width="0.75" x1="258.092" y1="127.972" x2="258.092" y2="119.2"/>
<line fill="none" stroke="#000000" stroke-width="0.75" x1="262.481" y1="127.972" x2="262.481" y2="114.815"/>
<line fill="none" stroke="#000000" stroke-width="0.75" x1="266.867" y1="127.972" x2="266.867" y2="117.006"/>
<line fill="none" stroke="#000000" stroke-width="0.75" x1="271.252" y1="127.972" x2="271.252" y2="114.815"/>
<line fill="none" stroke="#000000" stroke-width="0.75" x1="275.638" y1="127.972" x2="275.638" y2="118.104"/>
<line fill="none" stroke="#000000" stroke-width="0.75" x1="280.023" y1="127.972" x2="280.023" y2="117.006"/>
<line fill="none" stroke="#000000" stroke-width="0.75" x1="284.41" y1="127.972" x2="284.41" y2="92.883"/>
<line fill="none" stroke="#000000" stroke-width="0.75" x1="288.797" y1="127.972" x2="288.797" y2="110.428"/>
<line fill="none" stroke="#000000" stroke-width="0.75" x1="293.182" y1="127.972" x2="293.182" y2="119.2"/>
<line fill="none" stroke="#000000" stroke-width="0.75" x1="297.566" y1="127.972" x2="297.566" y2="123.586"/>
<line fill="none" stroke="#000000" stroke-width="0.75" x1="301.953" y1="127.972" x2="301.953" y2="102.752"/>
<line fill="none" stroke="#000000" stroke-width="0.75" x1="306.34" y1="127.972" x2="306.34" y2="124.683"/>
<line fill="none" stroke="#000000" stroke-width="0.75" x1="310.725" y1="127.972" x2="310.725" y2="124.683"/>
<line fill="none" stroke="#000000" stroke-width="0.75" x1="315.111" y1="127.972" x2="315.111" y2="123.586"/>
<line fill="none" stroke="#000000" stroke-width="0.75" x1="319.494" y1="127.972" x2="319.494" y2="111.524"/>
<line fill="none" stroke="#000000" stroke-width="0.75" x1="323.881" y1="127.972" x2="323.881" y2="122.49"/>
<line fill="none" stroke="#000000" stroke-width="0.75" x1="328.268" y1="127.972" x2="328.268" y2="123.586"/>
<line fill="none" stroke="#000000" stroke-width="0.75" x1="332.654" y1="127.972" x2="332.654" y2="123.586"/>
<line fill="none" stroke="#000000" stroke-width="0.75" x1="337.039" y1="127.972" x2="337.039" y2="118.104"/>
<line fill="none" stroke="#000000" stroke-width="0.75" x1="341.424" y1="127.972" x2="341.424" y2="123.586"/>
<line fill="none" stroke="#000000" stroke-width="0.75" x1="345.811" y1="127.972" x2="345.811" y2="122.49"/>
<line fill="none" stroke="#000000" stroke-width="0.75" x1="350.193" y1="127.972" x2="350.193" y2="119.2"/>
<line fill="none" stroke="#000000" stroke-width="0.75" x1="354.582" y1="127.972" x2="354.582" y2="117.006"/>
<line fill="none" stroke="#000000" stroke-width="0.75" x1="358.967" y1="127.972" x2="358.967" y2="123.586"/>
<line fill="none" stroke="#000000" stroke-width="0.75" x1="363.352" y1="127.972" x2="363.352" y2="124.477"/>
<line fill="none" stroke="#000000" stroke-width="0.75" x1="367.736" y1="127.972" x2="367.736" y2="114.815"/>
<line fill="none" stroke="#000000" stroke-width="0.75" x1="372.123" y1="127.972" x2="372.123" y2="123.586"/>
<line fill="none" stroke="#000000" stroke-width="0.75" x1="376.51" y1="127.972" x2="376.51" y2="122.029"/>
<line fill="none" stroke="#000000" stroke-width="0.75" x1="380.895" y1="127.972" x2="380.895" y2="123.314"/>
<line fill="none" stroke="#000000" stroke-width="0.75" x1="385.279" y1="127.972" x2="385.279" y2="123.586"/>
<line fill="none" stroke="#000000" stroke-width="0.75" x1="389.668" y1="127.972" x2="389.668" y2="125.481"/>
<line fill="none" stroke="#000000" stroke-width="0.75" x1="394.051" y1="127.972" x2="394.051" y2="125.161"/>
<line fill="none" stroke="#000000" stroke-width="0.75" x1="398.438" y1="127.972" x2="398.438" y2="123.586"/>
<line fill="none" stroke="#000000" stroke-width="0.75" x1="402.822" y1="127.972" x2="402.822" y2="121.394"/>
<line fill="none" stroke="#000000" stroke-width="0.75" x1="407.211" y1="127.972" x2="407.211" y2="125.78"/>
<line fill="none" stroke="#000000" stroke-width="0.75" x1="411.594" y1="127.972" x2="411.594" y2="125.081"/>
<line fill="none" stroke="#000000" stroke-width="0.75" x1="415.98" y1="127.972" x2="415.98" y2="123.796"/>
<line fill="none" stroke="#000000" stroke-width="0.75" x1="420.365" y1="127.972" x2="420.375" y2="125.78"/>
<line fill="none" stroke="#000000" stroke-width="0.75" x1="424.752" y1="127.972" x2="424.752" y2="125.78"/>
<line fill="none" stroke="#000000" stroke-width="0.75" x1="429.137" y1="127.972" x2="429.137" y2="124.638"/>
<line fill="none" stroke="#000000" stroke-width="0.75" x1="433.523" y1="127.972" x2="433.523" y2="124.638"/>
<line fill="none" stroke="#000000" stroke-width="0.75" x1="437.91" y1="127.972" x2="437.91" y2="123.586"/>
<line fill="none" stroke="#000000" stroke-width="0.75" x1="442.293" y1="127.972" x2="442.293" y2="125.521"/>
<line fill="none" stroke="#000000" stroke-width="0.75" x1="446.68" y1="127.972" x2="446.68" y2="124.357"/>
<line fill="none" stroke="#000000" stroke-width="0.75" x1="451.066" y1="127.972" x2="451.066" y2="121.394"/>
<line fill="none" stroke="#000000" stroke-width="0.75" x1="455.451" y1="127.972" x2="455.451" y2="125.78"/>
<line fill="none" stroke="#000000" stroke-width="0.75" x1="459.838" y1="127.972" x2="459.838" y2="126.445"/>
<line fill="none" stroke="#000000" stroke-width="0.75" x1="464.223" y1="127.972" x2="464.223" y2="119.2"/>
<line fill="none" stroke="#000000" stroke-width="0.75" x1="468.611" y1="127.972" x2="468.611" y2="123.586"/>
<line fill="none" stroke="#000000" stroke-width="0.75" x1="472.994" y1="127.972" x2="472.994" y2="125.78"/>
<line fill="none" stroke="#000000" stroke-width="0.75" x1="477.379" y1="127.972" x2="477.379" y2="121.394"/>
<line fill="none" stroke="#000000" stroke-width="0.75" x1="481.766" y1="127.972" x2="481.766" y2="122.19"/>
<g>
	<path d="M84.052,140.599v-0.666l1.287-1.162c1.144-0.963,1.423-1.341,1.423-1.954c0-0.594-0.352-0.99-1.107-0.99
		c-0.522,0-1.018,0.243-1.306,0.468l-0.18-0.72c0.459-0.288,0.981-0.468,1.647-0.468c1.206,0,1.836,0.684,1.836,1.603
		c0,0.765-0.396,1.351-1.396,2.206l-1.08,0.937l-0.036,0.018c0.432-0.036,1.404-0.045,2.746-0.045v0.774H84.052z"/>
	<path d="M89.649,140.599v-0.729h1.648v-3.791l-1.558,1.018l-0.288-0.693l1.99-1.224h0.693v4.69h1.405v0.729H89.649z"/>
	<path d="M96.022,141.437c-0.288,0-0.675-0.027-1.008-0.09l0.063-0.711c0.297,0.081,0.711,0.108,1.017,0.108
		c1.089,0,1.684-0.612,1.684-1.351c0-0.765-0.63-1.179-1.621-1.179c-0.36,0-0.702,0.027-0.927,0.063v-3.079h3.169v0.774
		l-2.413-0.009v1.593c0.153-0.009,0.324-0.009,0.441-0.009c1.486,0,2.233,0.765,2.233,1.719
		C98.66,140.491,97.597,141.437,96.022,141.437z"/>
</g>
<g>
	<path d="M114.756,140.599v-0.666l1.287-1.162c1.144-0.963,1.423-1.341,1.423-1.954c0-0.594-0.352-0.99-1.107-0.99
		c-0.522,0-1.018,0.243-1.306,0.468l-0.18-0.72c0.459-0.288,0.981-0.468,1.647-0.468c1.206,0,1.836,0.684,1.836,1.603
		c0,0.765-0.396,1.351-1.396,2.206l-1.08,0.937l-0.036,0.018c0.432-0.036,1.404-0.045,2.746-0.045v0.774H114.756z"/>
	<path d="M120.156,140.599v-0.666l1.287-1.162c1.144-0.963,1.423-1.341,1.423-1.954c0-0.594-0.351-0.99-1.107-0.99
		c-0.522,0-1.018,0.243-1.306,0.468l-0.18-0.72c0.459-0.288,0.981-0.468,1.647-0.468c1.206,0,1.836,0.684,1.836,1.603
		c0,0.765-0.396,1.351-1.396,2.206l-1.08,0.937l-0.036,0.018c0.432-0.036,1.404-0.045,2.746-0.045v0.774H120.156z"/>
	<path d="M127.446,140.689c-1.197,0-2.224-0.702-2.224-2.782c0-1.8,1.089-2.8,2.358-2.8c1.152,0,2.224,0.675,2.224,2.755
		C129.805,139.69,128.715,140.689,127.446,140.689z M127.509,135.783c-0.729,0-1.422,0.648-1.422,2.08
		c0,1.512,0.567,2.143,1.431,2.143c0.729,0,1.422-0.621,1.422-2.071C128.94,136.44,128.374,135.783,127.509,135.783z"/>
</g>
<g>
	<path d="M183.762,139.834v1.512h-0.81v-1.512h-2.764l-0.063-0.657l2.494-3.979h1.144v3.907h1.044v0.729H183.762z M182.97,135.936
		h-0.018l-2.008,3.187c0.531-0.018,1.666-0.018,2.026-0.018V135.936z"/>
	<path d="M187.163,141.437c-0.378,0-0.801-0.054-1.125-0.144l0.144-0.729c0.306,0.108,0.693,0.18,1.089,0.18
		c0.955,0,1.576-0.54,1.576-1.207c0-0.675-0.531-1.107-1.485-1.107c-0.306,0-0.549,0.018-0.792,0.027v-0.675h0.189
		c1.288,0,1.927-0.378,1.927-1.107c0-0.567-0.441-0.891-1.099-0.891c-0.495,0-0.909,0.135-1.278,0.342l-0.144-0.703
		c0.468-0.207,0.963-0.315,1.558-0.315c1.207,0,1.81,0.594,1.81,1.44c0,0.702-0.441,1.207-1.098,1.404l-0.009,0.018
		c0.748,0.081,1.296,0.72,1.296,1.45C189.72,140.581,188.667,141.437,187.163,141.437z"/>
	<path d="M193.31,140.689c-1.269,0-2.035-0.945-2.035-2.575c0-2.593,1.278-3.664,2.989-3.664c0.18,0,0.396,0.009,0.531,0.027v0.721
		c-0.189-0.027-0.369-0.045-0.603-0.045c-1.152,0-1.81,0.685-2.043,1.936c-0.027,0.099-0.054,0.27-0.081,0.459h0.009
		c0.297-0.504,0.829-0.783,1.414-0.783c1.197,0,1.864,0.774,1.864,1.764C195.354,139.825,194.535,140.689,193.31,140.689z
		 M193.346,137.439c-0.747,0-1.179,0.648-1.179,1.17c0,0.748,0.414,1.387,1.215,1.387c0.72,0,1.152-0.549,1.152-1.333
		C194.535,137.943,194.121,137.439,193.346,137.439z"/>
</g>
<g>
	<path d="M230.668,140.725c-1.26,0-1.972-0.63-1.972-1.503c0-0.513,0.261-1.089,1.27-1.692c-0.811-0.432-1.107-0.937-1.107-1.558
		c0-0.927,0.792-1.584,1.944-1.584c1.125,0,1.837,0.576,1.837,1.414c0,0.576-0.342,1.071-1.207,1.603
		c1.035,0.504,1.386,1.044,1.386,1.656C232.82,140.122,231.857,140.725,230.668,140.725z M230.642,137.862
		c-0.738,0.414-1.089,0.846-1.089,1.296c0,0.531,0.459,0.909,1.215,0.909c0.657,0,1.188-0.333,1.188-0.882
		C231.956,138.627,231.542,138.276,230.642,137.862z M230.74,135.036c-0.675,0-1.071,0.378-1.071,0.873
		c0,0.423,0.297,0.783,1.071,1.179c0.783-0.477,1.054-0.837,1.054-1.233C231.794,135.369,231.442,135.036,230.74,135.036z"/>
	<path d="M236.068,140.725c-1.26,0-1.972-0.63-1.972-1.503c0-0.513,0.261-1.089,1.27-1.692c-0.811-0.432-1.107-0.937-1.107-1.558
		c0-0.927,0.792-1.584,1.944-1.584c1.125,0,1.837,0.576,1.837,1.414c0,0.576-0.342,1.071-1.207,1.603
		c1.035,0.504,1.386,1.044,1.386,1.656C238.22,140.122,237.257,140.725,236.068,140.725z M236.042,137.862
		c-0.738,0.414-1.089,0.846-1.089,1.296c0,0.531,0.459,0.909,1.215,0.909c0.657,0,1.188-0.333,1.188-0.882
		C237.355,138.627,236.941,138.276,236.042,137.862z M236.14,135.036c-0.675,0-1.071,0.378-1.071,0.873
		c0,0.423,0.297,0.783,1.071,1.179c0.783-0.477,1.054-0.837,1.054-1.233C237.194,135.369,236.843,135.036,236.14,135.036z"/>
	<path d="M240.766,141.437c-0.288,0-0.675-0.027-1.008-0.09l0.063-0.711c0.297,0.081,0.711,0.108,1.017,0.108
		c1.089,0,1.684-0.612,1.684-1.351c0-0.765-0.63-1.179-1.621-1.179c-0.36,0-0.702,0.027-0.927,0.063v-3.079h3.169v0.774
		l-2.413-0.009v1.593c0.153-0.009,0.324-0.009,0.441-0.009c1.486,0,2.233,0.765,2.233,1.719
		C243.404,140.491,242.341,141.437,240.766,141.437z"/>
</g>
<line fill="none" stroke="#000000" stroke-width="0.75" x1="76.08" y1="127.972" x2="76.08" y2="113.717"/>
<line fill="none" stroke="#000000" stroke-width="0.75" x1="80.466" y1="127.972" x2="80.466" y2="105.13"/>
<line fill="none" stroke="#000000" stroke-width="0.75" x1="84.853" y1="127.972" x2="84.853" y2="88.498"/>
<line fill="none" stroke="#000000" stroke-width="0.75" x1="89.24" y1="127.972" x2="89.24" y2="39.154"/>
<line fill="none" stroke="#000000" stroke-width="0.75" x1="93.625" y1="127.972" x2="93.625" y2="66.568"/>
<line fill="none" stroke="#000000" stroke-width="0.75" x1="98.011" y1="127.972" x2="98.011" y2="89.593"/>
<line fill="none" stroke="#000000" stroke-width="0.75" x1="102.398" y1="127.972" x2="102.398" y2="92.883"/>
<line fill="none" stroke="#000000" stroke-width="0.75" x1="106.784" y1="127.972" x2="106.784" y2="51.214"/>
<line fill="none" stroke="#000000" stroke-width="0.75" x1="111.17" y1="127.972" x2="111.17" y2="102.752"/>
<line fill="none" stroke="#000000" stroke-width="0.75" x1="115.556" y1="127.972" x2="115.556" y2="104.946"/>
<line fill="none" stroke="#000000" stroke-width="0.75" x1="119.942" y1="127.972" x2="119.942" y2="108.904"/>
<line fill="none" stroke="#000000" stroke-width="0.75" x1="124.329" y1="127.972" x2="124.329" y2="85.208"/>
<line fill="none" stroke="#000000" stroke-width="0.75" x1="128.715" y1="127.972" x2="128.715" y2="109.332"/>
<line fill="none" stroke="#000000" stroke-width="0.75" x1="133.102" y1="127.972" x2="133.102" y2="113.717"/>
<line fill="none" stroke="#000000" stroke-width="0.75" x1="137.488" y1="127.972" x2="137.488" y2="107.139"/>
<line fill="none" stroke="#000000" stroke-width="0.75" x1="141.875" y1="127.972" x2="141.875" y2="100.559"/>
<line fill="none" stroke="#000000" stroke-width="0.75" x1="146.26" y1="127.972" x2="146.26" y2="108.235"/>
<line fill="none" stroke="#000000" stroke-width="0.75" x1="150.646" y1="127.972" x2="150.646" y2="109.332"/>
<line fill="none" stroke="#000000" stroke-width="0.75" x1="155.033" y1="127.972" x2="155.033" y2="78.627"/>
<line fill="none" stroke="#000000" stroke-width="0.75" x1="159.419" y1="127.972" x2="159.419" y2="109.332"/>
<line fill="none" stroke="#000000" stroke-width="0.75" x1="163.805" y1="127.972" x2="163.805" y2="109.332"/>
<line fill="none" stroke="#000000" stroke-width="0.75" x1="168.191" y1="127.972" x2="168.191" y2="106.042"/>
<line fill="none" stroke="#000000" stroke-width="0.75" x1="172.578" y1="127.972" x2="172.578" y2="97.269"/>
<line fill="none" stroke="#000000" stroke-width="0.75" x1="176.964" y1="127.972" x2="176.964" y2="118.538"/>
<line fill="none" stroke="#000000" stroke-width="0.75" x1="181.35" y1="127.972" x2="181.35" y2="117.575"/>
<line fill="none" stroke="#000000" stroke-width="0.75" x1="185.737" y1="127.972" x2="185.737" y2="101.655"/>
<line fill="none" stroke="#000000" stroke-width="0.75" x1="190.123" y1="127.972" x2="190.123" y2="117.495"/>
<line fill="none" stroke="#000000" stroke-width="0.75" x1="194.509" y1="127.972" x2="194.509" y2="117.006"/>
<line fill="none" stroke="#000000" stroke-width="0.75" x1="198.895" y1="127.972" x2="198.895" y2="113.717"/>
<line fill="none" stroke="#000000" stroke-width="0.75" x1="203.283" y1="127.972" x2="203.283" y2="77.532"/>
<line fill="none" stroke="#000000" stroke-width="0.75" x1="207.667" y1="127.972" x2="207.667" y2="114.815"/>
<line fill="none" stroke="#000000" stroke-width="0.75" x1="212.054" y1="127.972" x2="212.054" y2="125.041"/>
<line fill="none" stroke="#000000" stroke-width="0.75" x1="216.441" y1="127.972" x2="216.441" y2="123.314"/>
<line fill="none" stroke="#000000" stroke-width="0.75" x1="220.827" y1="127.972" x2="220.827" y2="53.409"/>
<line fill="none" stroke="#000000" stroke-width="0.75" x1="225.213" y1="127.972" x2="225.213" y2="118.104"/>
<line fill="none" stroke="#000000" stroke-width="0.75" x1="229.599" y1="127.972" x2="229.599" y2="115.911"/>
<line fill="none" stroke="#000000" stroke-width="0.75" x1="233.986" y1="127.972" x2="233.986" y2="102.752"/>
<line fill="none" stroke="#000000" stroke-width="0.75" x1="238.372" y1="127.972" x2="238.372" y2="99.463"/>
<line fill="none" stroke="#000000" stroke-width="0.75" x1="242.757" y1="127.972" x2="242.757" y2="119.2"/>
<line fill="none" stroke="#000000" stroke-width="0.75" x1="247.145" y1="127.972" x2="247.145" y2="121.394"/>
<line fill="none" stroke="#000000" stroke-width="0.75" x1="251.53" y1="127.972" x2="251.53" y2="111.524"/>
<line fill="none" stroke="#000000" stroke-width="0.75" x1="255.917" y1="127.972" x2="255.917" y2="112.621"/>
<line fill="none" stroke="#000000" stroke-width="0.75" x1="260.303" y1="127.972" x2="260.303" y2="118.104"/>
<line fill="none" stroke="#000000" stroke-width="0.75" x1="264.69" y1="127.972" x2="264.69" y2="109.332"/>
<line fill="none" stroke="#000000" stroke-width="0.75" x1="269.076" y1="127.972" x2="269.076" y2="120.296"/>
<line fill="none" stroke="#000000" stroke-width="0.75" x1="273.461" y1="127.972" x2="273.461" y2="121.394"/>
<line fill="none" stroke="#000000" stroke-width="0.75" x1="277.848" y1="127.972" x2="277.848" y2="119.2"/>
<line fill="none" stroke="#000000" stroke-width="0.75" x1="282.236" y1="127.972" x2="282.236" y2="110.428"/>
<line fill="none" stroke="#000000" stroke-width="0.75" x1="286.619" y1="127.972" x2="286.619" y2="106.042"/>
<line fill="none" stroke="#000000" stroke-width="0.75" x1="291.006" y1="127.972" x2="291.006" y2="120.296"/>
<line fill="none" stroke="#000000" stroke-width="0.75" x1="295.391" y1="127.972" x2="295.391" y2="123.586"/>
<line fill="none" stroke="#000000" stroke-width="0.75" x1="299.777" y1="127.972" x2="299.777" y2="117.006"/>
<line fill="none" stroke="#000000" stroke-width="0.75" x1="304.162" y1="127.972" x2="304.162" y2="112.621"/>
<line fill="none" stroke="#000000" stroke-width="0.75" x1="308.549" y1="127.972" x2="308.549" y2="123.586"/>
<line fill="none" stroke="#000000" stroke-width="0.75" x1="312.936" y1="127.972" x2="312.936" y2="124.683"/>
<line fill="none" stroke="#000000" stroke-width="0.75" x1="317.318" y1="127.972" x2="317.318" y2="120.296"/>
<line fill="none" stroke="#000000" stroke-width="0.75" x1="321.705" y1="127.972" x2="321.705" y2="119.2"/>
<line fill="none" stroke="#000000" stroke-width="0.75" x1="326.092" y1="127.972" x2="326.092" y2="123.586"/>
<line fill="none" stroke="#000000" stroke-width="0.75" x1="330.477" y1="127.972" x2="330.477" y2="123.586"/>
<line fill="none" stroke="#000000" stroke-width="0.75" x1="334.861" y1="127.972" x2="334.861" y2="119.2"/>
<line fill="none" stroke="#000000" stroke-width="0.75" x1="339.248" y1="127.972" x2="339.248" y2="123.586"/>
<line fill="none" stroke="#000000" stroke-width="0.75" x1="343.635" y1="127.972" x2="343.635" y2="121.394"/>
<line fill="none" stroke="#000000" stroke-width="0.75" x1="348.02" y1="127.972" x2="348.02" y2="114.815"/>
<line fill="none" stroke="#000000" stroke-width="0.75" x1="352.404" y1="127.972" x2="352.404" y2="106.042"/>
<line fill="none" stroke="#000000" stroke-width="0.75" x1="356.791" y1="127.972" x2="356.791" y2="125.762"/>
<line fill="none" stroke="#000000" stroke-width="0.75" x1="361.178" y1="127.972" x2="361.178" y2="125.2"/>
<line fill="none" stroke="#000000" stroke-width="0.75" x1="365.561" y1="127.972" x2="365.561" y2="114.815"/>
<line fill="none" stroke="#000000" stroke-width="0.75" x1="369.949" y1="127.972" x2="369.949" y2="120.296"/>
<line fill="none" stroke="#000000" stroke-width="0.75" x1="374.332" y1="127.972" x2="374.332" y2="124.683"/>
<line fill="none" stroke="#000000" stroke-width="0.75" x1="378.719" y1="127.972" x2="378.719" y2="125.78"/>
<line fill="none" stroke="#000000" stroke-width="0.75" x1="383.105" y1="127.972" x2="383.105" y2="122.49"/>
<line fill="none" stroke="#000000" stroke-width="0.75" x1="387.488" y1="127.972" x2="387.488" y2="126.725"/>
<line fill="none" stroke="#000000" stroke-width="0.75" x1="391.877" y1="127.972" x2="391.877" y2="124.683"/>
<line fill="none" stroke="#000000" stroke-width="0.75" x1="396.26" y1="127.972" x2="396.26" y2="124.598"/>
<line fill="none" stroke="#000000" stroke-width="0.75" x1="400.648" y1="127.972" x2="400.648" y2="124.879"/>
<line fill="none" stroke="#000000" stroke-width="0.75" x1="405.031" y1="127.972" x2="405.031" y2="124.683"/>
<line fill="none" stroke="#000000" stroke-width="0.75" x1="409.418" y1="127.972" x2="409.418" y2="125.441"/>
<line fill="none" stroke="#000000" stroke-width="0.75" x1="413.805" y1="127.972" x2="413.805" y2="122.49"/>
<line fill="none" stroke="#000000" stroke-width="0.75" x1="418.189" y1="127.972" x2="418.189" y2="123.586"/>
<line fill="none" stroke="#000000" stroke-width="0.75" x1="422.578" y1="127.972" x2="422.578" y2="126.365"/>
<line fill="none" stroke="#000000" stroke-width="0.75" x1="426.961" y1="127.972" x2="426.961" y2="125.281"/>
<line fill="none" stroke="#000000" stroke-width="0.75" x1="431.346" y1="127.972" x2="431.346" y2="123.586"/>
<line fill="none" stroke="#000000" stroke-width="0.75" x1="435.732" y1="127.972" x2="435.732" y2="122.49"/>
<line fill="none" stroke="#000000" stroke-width="0.75" x1="440.117" y1="127.972" x2="440.117" y2="124.683"/>
<line fill="none" stroke="#000000" stroke-width="0.75" x1="444.506" y1="127.972" x2="444.506" y2="123.586"/>
<line fill="none" stroke="#000000" stroke-width="0.75" x1="448.889" y1="127.972" x2="448.889" y2="122.913"/>
<line fill="none" stroke="#000000" stroke-width="0.75" x1="453.275" y1="127.972" x2="453.275" y2="124.683"/>
<line fill="none" stroke="#000000" stroke-width="0.75" x1="457.66" y1="127.972" x2="457.66" y2="125.281"/>
<line fill="none" stroke="#000000" stroke-width="0.75" x1="462.047" y1="127.972" x2="462.047" y2="121.394"/>
<line fill="none" stroke="#000000" stroke-width="0.75" x1="466.432" y1="127.972" x2="466.432" y2="122.792"/>
<line fill="none" stroke="#000000" stroke-width="0.75" x1="470.816" y1="127.972" x2="470.816" y2="124.683"/>
<line fill="none" stroke="#000000" stroke-width="0.75" x1="475.203" y1="127.972" x2="475.203" y2="124.879"/>
<line fill="none" stroke="#000000" stroke-width="0.75" x1="479.59" y1="127.972" x2="479.59" y2="119.2"/>
<polyline fill="none" stroke="#CCCCCC" stroke-width="0.75" points="73.871,5.563 73.871,127.972 484.154,127.972 "/>
<g>
	<path d="M77.637,161.853c-0.062-0.315-0.115-0.598-0.146-0.882h-1.9v2.383h1.554c0.042-0.252,0.095-0.494,0.147-0.714h0.588v2.173
		h-0.588c-0.052-0.21-0.105-0.462-0.147-0.714H75.59v2.488c0.315,0.021,0.641,0.073,0.913,0.136v0.567h-2.782v-0.567
		c0.273-0.063,0.598-0.116,0.914-0.136v-5.68c-0.315-0.021-0.641-0.073-0.914-0.137v-0.566h4.587v1.648H77.637z"/>
	<path d="M82.593,162.913c-1.196-0.199-1.732,0.609-1.732,2.278v1.396c0.315,0.021,0.64,0.073,0.914,0.136v0.567h-2.771v-0.567
		c0.272-0.063,0.598-0.116,0.913-0.136v-3.769c-0.252-0.042-0.609-0.084-0.913-0.105v-0.567c0.524-0.063,1.249-0.105,1.826-0.074
		c0,0.326-0.031,0.809-0.104,1.239h0.01c0.231-0.725,0.756-1.449,1.9-1.333L82.593,162.913z"/>
	<path d="M87.633,164.666h-3.412c-0.042,1.365,0.514,1.953,1.648,1.953c0.504,0,1.029-0.105,1.491-0.305l0.136,0.746
		c-0.525,0.21-1.155,0.326-1.806,0.326c-1.585,0-2.446-0.84-2.446-2.677c0-1.554,0.871-2.729,2.352-2.729
		c1.459,0,2.068,0.976,2.068,2.142C87.665,164.246,87.654,164.456,87.633,164.666z M85.533,162.692c-0.682,0-1.165,0.504-1.28,1.302
		h2.446C86.72,163.196,86.269,162.692,85.533,162.692z"/>
	<path d="M91.266,169.883v-0.566c0.273-0.063,0.599-0.116,0.914-0.137v-2.005c0-0.242,0.01-0.62,0.074-0.935l-0.021-0.011
		c-0.283,0.714-0.924,1.155-1.7,1.155c-1.229,0-1.932-0.819-1.932-2.446c0-1.837,1.028-2.95,2.75-2.95
		c0.63,0,1.229,0.063,1.764,0.147v7.044c0.315,0.021,0.63,0.073,0.882,0.137v0.566H91.266z M92.179,162.85
		c-0.315-0.074-0.62-0.105-0.934-0.105c-0.987,0-1.648,0.599-1.648,2.1c0,1.124,0.357,1.764,1.145,1.764
		c0.944,0,1.438-1.102,1.438-2.026V162.85z"/>
	<path d="M98.427,167.291c0-0.315,0.021-0.777,0.074-1.103h-0.021c-0.305,0.714-0.945,1.197-1.837,1.197
		c-1.197,0-1.564-0.746-1.564-1.669v-2.897c-0.252-0.042-0.599-0.084-0.882-0.105v-0.567c0.493-0.063,1.207-0.105,1.816-0.074v3.359
		c0,0.735,0.21,1.176,0.892,1.176c0.861,0,1.491-0.882,1.491-2.036v-1.764c-0.241-0.032-0.567-0.074-0.851-0.095v-0.567
		c0.515-0.063,1.208-0.105,1.785-0.074v4.473c0.252,0.042,0.598,0.084,0.882,0.104v0.567
		C99.718,167.28,98.994,167.322,98.427,167.291z"/>
	<path d="M105.22,164.666h-3.412c-0.042,1.365,0.514,1.953,1.648,1.953c0.504,0,1.029-0.105,1.491-0.305l0.136,0.746
		c-0.525,0.21-1.155,0.326-1.806,0.326c-1.585,0-2.446-0.84-2.446-2.677c0-1.554,0.871-2.729,2.352-2.729
		c1.459,0,2.068,0.976,2.068,2.142C105.251,164.246,105.241,164.456,105.22,164.666z M103.12,162.692
		c-0.682,0-1.165,0.504-1.28,1.302h2.446C104.307,163.196,103.855,162.692,103.12,162.692z"/>
	<path d="M110.271,167.291v-3.359c0-0.735-0.199-1.176-0.882-1.176c-0.861,0-1.491,0.882-1.491,2.037v1.795
		c0.284,0.021,0.588,0.062,0.84,0.136v0.567h-2.698v-0.567c0.272-0.063,0.598-0.116,0.913-0.136v-3.769
		c-0.252-0.042-0.609-0.084-0.913-0.105v-0.567c0.524-0.063,1.249-0.105,1.826-0.074c0,0.305-0.021,0.788-0.073,1.103h0.011
		c0.304-0.714,0.955-1.197,1.848-1.197c1.186,0,1.564,0.746,1.564,1.669v2.939c0.304,0.021,0.62,0.073,0.872,0.136v0.567H110.271z"
		/>
	<path d="M115.069,167.375c-1.291,0-2.362-0.599-2.362-2.52c0-1.68,0.851-2.866,2.593-2.866c0.441,0,0.914,0.074,1.281,0.189v1.522
		h-0.588c-0.063-0.304-0.105-0.598-0.137-0.85c-0.178-0.053-0.42-0.084-0.703-0.084c-0.935,0-1.459,0.787-1.459,1.932
		c0,1.06,0.346,1.858,1.574,1.858c0.452,0,0.893-0.094,1.25-0.252l0.158,0.788C116.276,167.238,115.699,167.375,115.069,167.375z"/>
	<path d="M122.114,162.766l-1.848,5.081c-0.566,1.596-1.102,2.12-2.268,2.12c-0.199,0-0.493-0.021-0.714-0.062l0.074-0.851
		c0.242,0.073,0.452,0.115,0.693,0.115c0.567,0,0.893-0.283,1.271-1.291l0.22-0.588h-0.242l-1.606-4.524
		c-0.231-0.021-0.472-0.063-0.672-0.126v-0.567h2.394v0.567c-0.2,0.062-0.43,0.104-0.682,0.126l0.787,2.257
		c0.157,0.483,0.283,0.871,0.399,1.302h0.021c0.084-0.357,0.283-0.955,0.483-1.554l0.704-2.005
		c-0.252-0.021-0.483-0.063-0.683-0.126v-0.567h2.331v0.567C122.576,162.703,122.346,162.745,122.114,162.766z"/>
	<path d="M123.344,164.666v-0.777h2.478v0.777H123.344z"/>
	<path d="M130.356,167.291c0-0.294,0.021-0.756,0.084-1.061l-0.021-0.01c-0.294,0.704-0.935,1.166-1.753,1.166
		c-1.281,0-1.921-0.935-1.921-2.457c0-1.826,1.05-2.929,2.698-2.929c0.283,0,0.567,0.021,0.882,0.053v-1.68
		c-0.252-0.042-0.609-0.084-0.913-0.105v-0.566c0.524-0.063,1.249-0.105,1.858-0.074v6.918c0.252,0.042,0.598,0.084,0.882,0.104
		v0.567C131.658,167.28,130.934,167.322,130.356,167.291z M130.325,162.86c-0.315-0.074-0.63-0.116-0.924-0.116
		c-0.997,0-1.659,0.599-1.659,2.1c0,1.124,0.368,1.764,1.155,1.764c0.945,0,1.428-1.102,1.428-2.016V162.86z"/>
	<path d="M135.051,167.385c-1.428,0-2.341-0.819-2.341-2.625c0-1.564,0.966-2.782,2.54-2.782c1.323,0,2.341,0.724,2.341,2.625
		C137.591,166.167,136.625,167.385,135.051,167.385z M135.166,162.766c-0.766,0-1.48,0.577-1.48,1.921c0,1.207,0.504,1.9,1.47,1.9
		c0.777,0,1.459-0.609,1.459-1.911C136.615,163.458,136.111,162.766,135.166,162.766z"/>
	<path d="M145.738,167.291v-3.349c0-0.714-0.168-1.187-0.84-1.187c-0.745,0-1.47,0.787-1.47,2.058v1.774
		c0.294,0.021,0.588,0.062,0.851,0.136v0.567h-1.785v-3.349c0-0.662-0.136-1.187-0.85-1.187c-0.788,0-1.459,0.861-1.459,2.058v1.774
		c0.284,0.021,0.588,0.062,0.84,0.136v0.567h-2.698v-0.567c0.272-0.063,0.598-0.116,0.913-0.136v-3.769
		c-0.252-0.042-0.609-0.084-0.913-0.105v-0.567c0.524-0.063,1.26-0.105,1.837-0.074c0,0.305-0.031,0.788-0.084,1.103l0.021,0.011
		c0.294-0.735,0.966-1.208,1.806-1.208c1.102,0,1.396,0.756,1.449,1.186c0.21-0.493,0.777-1.186,1.785-1.186
		c0.987,0,1.543,0.525,1.543,1.711v2.897c0.314,0.021,0.619,0.073,0.882,0.136v0.567H145.738z"/>
	<path d="M151.356,167.291c0-0.367,0.011-0.745,0.063-1.039h-0.021c-0.252,0.64-0.913,1.134-1.774,1.134s-1.449-0.536-1.449-1.375
		c0-1.124,1.165-1.785,3.128-1.785v-0.389c0-0.734-0.262-1.144-1.092-1.144c-0.315,0-0.682,0.052-0.976,0.147
		c-0.021,0.263-0.074,0.557-0.126,0.851h-0.588v-1.428c0.524-0.168,1.154-0.294,1.774-0.294c1.533,0,1.963,0.703,1.963,1.742v2.835
		c0.252,0.042,0.598,0.084,0.882,0.104v0.567C152.648,167.28,151.924,167.322,151.356,167.291z M151.304,164.876
		c-1.638,0-2.205,0.41-2.205,0.987c0,0.451,0.315,0.777,0.798,0.777c0.84,0,1.407-0.83,1.407-1.648V164.876z"/>
	<path d="M153.625,167.291v-0.567c0.273-0.063,0.599-0.116,0.914-0.136v-3.769c-0.252-0.042-0.609-0.084-0.914-0.105v-0.567
		c0.525-0.063,1.25-0.105,1.858-0.074v4.515c0.305,0.021,0.619,0.073,0.882,0.136v0.567H153.625z M155.021,161.034
		c-0.347,0-0.63-0.263-0.63-0.609s0.283-0.62,0.63-0.62c0.336,0,0.619,0.273,0.619,0.62
		C155.641,160.761,155.357,161.034,155.021,161.034z"/>
	<path d="M161.09,167.291v-3.359c0-0.735-0.2-1.176-0.882-1.176c-0.861,0-1.491,0.882-1.491,2.037v1.795
		c0.283,0.021,0.588,0.062,0.84,0.136v0.567h-2.698v-0.567c0.273-0.063,0.599-0.116,0.914-0.136v-3.769
		c-0.252-0.042-0.609-0.084-0.914-0.105v-0.567c0.525-0.063,1.25-0.105,1.827-0.074c0,0.305-0.021,0.788-0.074,1.103h0.01
		c0.305-0.714,0.956-1.197,1.848-1.197c1.187,0,1.564,0.746,1.564,1.669v2.939c0.305,0.021,0.619,0.073,0.871,0.136v0.567H161.09z"
		/>
	<path d="M168.304,167.354c-0.336,0-0.577-0.01-0.893-0.063v1.89c0.315,0.021,0.641,0.073,0.914,0.137v0.566h-2.729v-0.566
		c0.273-0.063,0.556-0.116,0.872-0.137v-6.362c-0.252-0.042-0.578-0.084-0.872-0.105v-0.567c0.514-0.063,1.228-0.105,1.795-0.074
		c0,0.294-0.032,0.767-0.084,1.061l0.021,0.011c0.294-0.725,0.924-1.166,1.743-1.166c1.228,0,1.921,0.861,1.921,2.457
		C170.991,166.293,169.983,167.354,168.304,167.354z M168.839,162.755c-0.944,0-1.428,1.103-1.428,2.016v1.722
		c0.284,0.084,0.578,0.126,0.935,0.126c0.987,0,1.648-0.599,1.648-2.1C169.994,163.396,169.637,162.755,168.839,162.755z"/>
	<path d="M171.633,167.291v-0.567c0.263-0.063,0.577-0.116,0.882-0.136v-6.215c-0.252-0.042-0.599-0.084-0.903-0.105v-0.566
		c0.536-0.063,1.239-0.105,1.848-0.074v6.96c0.304,0.021,0.62,0.073,0.882,0.136v0.567H171.633z"/>
	<path d="M177.229,167.385c-1.428,0-2.341-0.819-2.341-2.625c0-1.564,0.966-2.782,2.54-2.782c1.323,0,2.341,0.724,2.341,2.625
		C179.769,166.167,178.803,167.385,177.229,167.385z M177.344,162.766c-0.766,0-1.48,0.577-1.48,1.921c0,1.207,0.504,1.9,1.47,1.9
		c0.777,0,1.459-0.609,1.459-1.911C178.793,163.458,178.289,162.766,177.344,162.766z"/>
	<path d="M182.699,167.375c-1.071,0-1.396-0.441-1.396-1.564v-3.002h-1.07v-0.735h1.07v-1.69l0.945-0.262v1.952h1.459v0.735h-1.459
		v2.666c0,0.861,0.168,1.092,0.745,1.092c0.241,0,0.473-0.031,0.661-0.084l0.095,0.777
		C183.444,167.333,183.035,167.375,182.699,167.375z"/>
	<path d="M189.156,167.385c-1.428,0-2.341-0.819-2.341-2.625c0-1.564,0.966-2.782,2.54-2.782c1.323,0,2.341,0.724,2.341,2.625
		C191.697,166.167,190.731,167.385,189.156,167.385z M189.271,162.766c-0.766,0-1.48,0.577-1.48,1.921c0,1.207,0.504,1.9,1.47,1.9
		c0.777,0,1.459-0.609,1.459-1.911C190.721,163.458,190.217,162.766,189.271,162.766z"/>
	<path d="M196.191,160.446c-0.263-0.084-0.536-0.115-0.788-0.115c-0.735,0-1.082,0.42-1.082,1.344v0.398h1.459v0.735h-1.459v3.779
		c0.315,0.021,0.641,0.073,0.914,0.136v0.567h-2.771v-0.567c0.273-0.063,0.598-0.116,0.914-0.136v-3.779h-1.145v-0.735h1.145v-0.388
		c0-1.438,0.724-2.121,2.026-2.121c0.294,0,0.567,0.031,0.872,0.095L196.191,160.446z"/>
	<path d="M201.84,167.291c0-0.367,0.011-0.745,0.063-1.039h-0.021c-0.252,0.64-0.913,1.134-1.774,1.134s-1.449-0.536-1.449-1.375
		c0-1.124,1.165-1.785,3.128-1.785v-0.389c0-0.734-0.262-1.144-1.092-1.144c-0.315,0-0.682,0.052-0.976,0.147
		c-0.021,0.263-0.074,0.557-0.126,0.851h-0.588v-1.428c0.524-0.168,1.154-0.294,1.774-0.294c1.533,0,1.963,0.703,1.963,1.742v2.835
		c0.252,0.042,0.598,0.084,0.882,0.104v0.567C203.131,167.28,202.407,167.322,201.84,167.291z M201.788,164.876
		c-1.638,0-2.205,0.41-2.205,0.987c0,0.451,0.315,0.777,0.798,0.777c0.84,0,1.407-0.83,1.407-1.648V164.876z"/>
	<path d="M207.93,167.385c-0.409,0-0.882-0.042-1.228-0.137v-1.48h0.578c0.052,0.252,0.094,0.557,0.126,0.83
		c0.178,0.042,0.409,0.052,0.619,0.052c0.703,0,1.187-0.314,1.187-0.818c0-1.155-2.625-0.473-2.625-2.289
		c0-0.892,0.735-1.564,2.1-1.564c0.368,0,0.809,0.052,1.208,0.147v1.428h-0.578c-0.062-0.263-0.104-0.557-0.126-0.819
		c-0.178-0.042-0.388-0.063-0.588-0.063c-0.703,0-1.06,0.294-1.06,0.767c0,1.176,2.614,0.524,2.614,2.257
		C210.155,166.64,209.315,167.385,207.93,167.385z"/>
	<path d="M215.091,167.291c0-0.315,0.021-0.777,0.073-1.103h-0.021c-0.304,0.714-0.945,1.197-1.837,1.197
		c-1.196,0-1.564-0.746-1.564-1.669v-2.897c-0.252-0.042-0.598-0.084-0.882-0.105v-0.567c0.494-0.063,1.208-0.105,1.816-0.074v3.359
		c0,0.735,0.21,1.176,0.893,1.176c0.861,0,1.491-0.882,1.491-2.036v-1.764c-0.242-0.032-0.567-0.074-0.85-0.095v-0.567
		c0.514-0.063,1.207-0.105,1.784-0.074v4.473c0.252,0.042,0.599,0.084,0.882,0.104v0.567
		C216.382,167.28,215.657,167.322,215.091,167.291z"/>
	<path d="M218.902,167.385c-0.41,0-0.882-0.042-1.229-0.137v-1.48h0.577c0.053,0.252,0.095,0.557,0.126,0.83
		c0.179,0.042,0.41,0.052,0.62,0.052c0.704,0,1.186-0.314,1.186-0.818c0-1.155-2.624-0.473-2.624-2.289
		c0-0.892,0.734-1.564,2.1-1.564c0.367,0,0.808,0.052,1.207,0.147v1.428h-0.577c-0.063-0.263-0.105-0.557-0.126-0.819
		c-0.179-0.042-0.389-0.063-0.588-0.063c-0.704,0-1.061,0.294-1.061,0.767c0,1.176,2.614,0.524,2.614,2.257
		C221.128,166.64,220.288,167.385,218.902,167.385z"/>
	<path d="M224.142,167.375c-1.071,0-1.396-0.441-1.396-1.564v-3.002h-1.07v-0.735h1.07v-1.69l0.945-0.262v1.952h1.459v0.735h-1.459
		v2.666c0,0.861,0.168,1.092,0.745,1.092c0.241,0,0.473-0.031,0.661-0.084l0.095,0.777
		C224.887,167.333,224.478,167.375,224.142,167.375z"/>
	<path d="M229.182,167.291c0-0.367,0.01-0.745,0.062-1.039h-0.021c-0.252,0.64-0.914,1.134-1.774,1.134S226,166.85,226,166.01
		c0-1.124,1.166-1.785,3.128-1.785v-0.389c0-0.734-0.263-1.144-1.092-1.144c-0.315,0-0.683,0.052-0.977,0.147
		c-0.021,0.263-0.073,0.557-0.126,0.851h-0.588v-1.428c0.525-0.168,1.155-0.294,1.774-0.294c1.533,0,1.963,0.703,1.963,1.742v2.835
		c0.252,0.042,0.599,0.084,0.882,0.104v0.567C230.473,167.28,229.748,167.322,229.182,167.291z M229.129,164.876
		c-1.638,0-2.205,0.41-2.205,0.987c0,0.451,0.315,0.777,0.798,0.777c0.84,0,1.407-0.83,1.407-1.648V164.876z"/>
	<path d="M231.45,167.291v-0.567c0.272-0.063,0.598-0.116,0.913-0.136v-3.769c-0.252-0.042-0.609-0.084-0.913-0.105v-0.567
		c0.524-0.063,1.249-0.105,1.858-0.074v4.515c0.304,0.021,0.62,0.073,0.882,0.136v0.567H231.45z M232.846,161.034
		c-0.346,0-0.63-0.263-0.63-0.609s0.284-0.62,0.63-0.62c0.336,0,0.62,0.273,0.62,0.62
		C233.466,160.761,233.182,161.034,232.846,161.034z"/>
	<path d="M238.915,167.291v-3.359c0-0.735-0.2-1.176-0.882-1.176c-0.861,0-1.491,0.882-1.491,2.037v1.795
		c0.283,0.021,0.588,0.062,0.84,0.136v0.567h-2.698v-0.567c0.273-0.063,0.599-0.116,0.914-0.136v-3.769
		c-0.252-0.042-0.609-0.084-0.914-0.105v-0.567c0.525-0.063,1.25-0.105,1.827-0.074c0,0.305-0.021,0.788-0.074,1.103h0.01
		c0.305-0.714,0.956-1.197,1.848-1.197c1.187,0,1.564,0.746,1.564,1.669v2.939c0.305,0.021,0.619,0.073,0.871,0.136v0.567H238.915z"
		/>
	<path d="M245.739,164.666h-3.412c-0.042,1.365,0.514,1.953,1.648,1.953c0.504,0,1.029-0.105,1.491-0.305l0.136,0.746
		c-0.525,0.21-1.155,0.326-1.806,0.326c-1.585,0-2.446-0.84-2.446-2.677c0-1.554,0.871-2.729,2.352-2.729
		c1.459,0,2.068,0.976,2.068,2.142C245.771,164.246,245.761,164.456,245.739,164.666z M243.64,162.692
		c-0.682,0-1.165,0.504-1.28,1.302h2.446C244.826,163.196,244.375,162.692,243.64,162.692z"/>
	<path d="M250.297,167.291c0-0.294,0.021-0.756,0.084-1.061l-0.021-0.01c-0.294,0.704-0.934,1.166-1.753,1.166
		c-1.281,0-1.921-0.935-1.921-2.457c0-1.826,1.05-2.929,2.698-2.929c0.284,0,0.567,0.021,0.882,0.053v-1.68
		c-0.252-0.042-0.609-0.084-0.914-0.105v-0.566c0.525-0.063,1.25-0.105,1.858-0.074v6.918c0.252,0.042,0.599,0.084,0.882,0.104
		v0.567C251.599,167.28,250.874,167.322,250.297,167.291z M250.265,162.86c-0.315-0.074-0.63-0.116-0.924-0.116
		c-0.998,0-1.659,0.599-1.659,2.1c0,1.124,0.367,1.764,1.155,1.764c0.945,0,1.428-1.102,1.428-2.016V162.86z"/>
	<path d="M259.116,167.291v-3.359c0-0.735-0.199-1.176-0.882-1.176c-0.861,0-1.491,0.882-1.491,2.037v1.795
		c0.284,0.021,0.588,0.062,0.84,0.136v0.567h-2.698v-0.567c0.272-0.063,0.598-0.116,0.913-0.136v-3.769
		c-0.252-0.042-0.609-0.084-0.913-0.105v-0.567c0.524-0.063,1.249-0.105,1.826-0.074c0,0.305-0.021,0.788-0.073,1.103h0.011
		c0.304-0.714,0.955-1.197,1.848-1.197c1.186,0,1.564,0.746,1.564,1.669v2.939c0.304,0.021,0.62,0.073,0.872,0.136v0.567H259.116z"
		/>
	<path d="M263.894,167.385c-1.428,0-2.341-0.819-2.341-2.625c0-1.564,0.966-2.782,2.541-2.782c1.322,0,2.341,0.724,2.341,2.625
		C266.435,166.167,265.469,167.385,263.894,167.385z M264.01,162.766c-0.767,0-1.48,0.577-1.48,1.921c0,1.207,0.504,1.9,1.47,1.9
		c0.777,0,1.459-0.609,1.459-1.911C265.458,163.458,264.954,162.766,264.01,162.766z"/>
	<path d="M269.364,167.375c-1.071,0-1.396-0.441-1.396-1.564v-3.002h-1.07v-0.735h1.07v-1.69l0.945-0.262v1.952h1.459v0.735h-1.459
		v2.666c0,0.861,0.168,1.092,0.745,1.092c0.241,0,0.473-0.031,0.661-0.084l0.095,0.777
		C270.109,167.333,269.7,167.375,269.364,167.375z"/>
	<path d="M275.58,164.666h-3.412c-0.042,1.365,0.515,1.953,1.648,1.953c0.504,0,1.028-0.105,1.49-0.305l0.137,0.746
		c-0.525,0.21-1.155,0.326-1.806,0.326c-1.585,0-2.446-0.84-2.446-2.677c0-1.554,0.872-2.729,2.352-2.729
		c1.459,0,2.068,0.976,2.068,2.142C275.611,164.246,275.601,164.456,275.58,164.666z M273.48,162.692
		c-0.683,0-1.166,0.504-1.281,1.302h2.446C274.667,163.196,274.215,162.692,273.48,162.692z"/>
	<path d="M280.651,169.485c-1.239-1.963-1.532-3.633-1.532-5.176c0-1.533,0.356-3.338,1.543-5.218l0.682,0.326
		c-0.85,1.459-1.301,3.128-1.301,4.839c0,1.795,0.43,3.401,1.312,4.882L280.651,169.485z"/>
	<path d="M282.101,167.291v-0.756l1.407-1.197c0.882-0.693,1.322-1.218,1.322-1.816c0-0.599-0.378-1.029-1.081-1.029
		c-0.283,0-0.567,0.063-0.798,0.158c-0.021,0.273-0.073,0.588-0.126,0.882h-0.577v-1.491c0.462-0.189,1.028-0.315,1.648-0.315
		c1.28,0,1.963,0.693,1.963,1.669c0,0.766-0.441,1.417-1.344,2.142l-1.103,0.934l-0.021,0.01c0.504-0.031,1.605-0.042,2.708-0.042
		v0.851H282.101z"/>
	<path d="M287.161,167.291v-0.756l1.407-1.197c0.882-0.693,1.322-1.218,1.322-1.816c0-0.599-0.378-1.029-1.081-1.029
		c-0.283,0-0.567,0.063-0.798,0.158c-0.021,0.273-0.073,0.588-0.126,0.882h-0.577v-1.491c0.462-0.189,1.028-0.315,1.648-0.315
		c1.28,0,1.963,0.693,1.963,1.669c0,0.766-0.441,1.417-1.344,2.142l-1.103,0.934l-0.021,0.01c0.504-0.031,1.605-0.042,2.708-0.042
		v0.851H287.161z"/>
	<path d="M294.806,167.396c-1.47,0-2.583-0.85-2.583-2.782c0-1.795,1.281-2.887,2.803-2.887c1.723,0,2.583,1.124,2.583,2.761
		C297.608,166.325,296.317,167.396,294.806,167.396z M294.952,162.524c-0.986,0-1.774,0.756-1.774,2.026
		c0,1.155,0.515,2.047,1.712,2.047c0.976,0,1.764-0.756,1.764-2.037C296.653,163.417,296.128,162.524,294.952,162.524z"/>
	<path d="M305.378,167.291v-0.567c0.252-0.074,0.557-0.116,0.84-0.136v-2.562h-3.622v2.562c0.295,0.021,0.588,0.062,0.851,0.136
		v0.567h-2.719v-0.567c0.272-0.063,0.599-0.116,0.913-0.136v-5.68c-0.314-0.021-0.641-0.073-0.913-0.137v-0.566h2.719v0.566
		c-0.263,0.074-0.556,0.116-0.851,0.137v2.299h3.622v-2.299c-0.283-0.021-0.588-0.063-0.84-0.137v-0.566h2.709v0.566
		c-0.273,0.063-0.599,0.116-0.913,0.137v5.68c0.314,0.021,0.64,0.073,0.913,0.136v0.567H305.378z"/>
	<path d="M308.844,167.291v-0.683l2.666-3.811c-0.293,0.011-0.808,0.021-1.28,0.021h-0.619c-0.032,0.262-0.063,0.504-0.126,0.777
		h-0.588v-1.522h3.664v0.683l-2.636,3.758c0.284-0.01,0.861-0.01,1.292-0.01h0.682c0.031-0.242,0.074-0.525,0.137-0.798h0.588v1.585
		H308.844z"/>
	<path d="M314.072,169.485l-0.682-0.336c0.86-1.459,1.301-3.129,1.301-4.829c0-1.795-0.43-3.401-1.312-4.893l0.714-0.336
		c1.229,1.953,1.521,3.622,1.521,5.165C315.615,165.79,315.27,167.595,314.072,169.485z"/>
	<path d="M321.275,167.364c-0.714,0-1.238-0.062-1.785-0.21v-6.781c-0.252-0.042-0.598-0.084-0.902-0.105v-0.566
		c0.525-0.063,1.238-0.105,1.848-0.074v2.53c0,0.305-0.031,0.714-0.095,0.977l0.021,0.011c0.283-0.735,0.935-1.166,1.722-1.166
		c1.229,0,1.921,0.861,1.921,2.457C324.005,166.262,322.966,167.364,321.275,167.364z M321.863,162.755
		c-0.945,0-1.428,1.103-1.428,2.005v1.732c0.263,0.084,0.557,0.126,0.924,0.126c0.986,0,1.658-0.599,1.658-2.1
		C323.018,163.396,322.65,162.755,321.863,162.755z"/>
	<path d="M327.229,167.385c-1.428,0-2.341-0.819-2.341-2.625c0-1.564,0.966-2.782,2.54-2.782c1.323,0,2.342,0.724,2.342,2.625
		C329.77,166.167,328.803,167.385,327.229,167.385z M327.344,162.766c-0.766,0-1.48,0.577-1.48,1.921c0,1.207,0.504,1.9,1.471,1.9
		c0.776,0,1.459-0.609,1.459-1.911C328.793,163.458,328.289,162.766,327.344,162.766z"/>
	<path d="M338.242,162.766l-1.428,4.524h-1.081l-1.028-3.076c-0.116-0.325-0.211-0.672-0.295-1.039h-0.01
		c-0.115,0.462-0.242,0.871-0.378,1.312l-0.872,2.803h-1.092l-1.344-4.524c-0.23-0.021-0.461-0.063-0.672-0.126v-0.567h2.404v0.567
		c-0.221,0.062-0.462,0.104-0.725,0.126l0.641,2.33c0.115,0.431,0.242,0.851,0.326,1.187h0.01c0.095-0.441,0.221-0.871,0.357-1.281
		l0.934-2.929h0.977l0.945,2.929c0.188,0.62,0.283,0.924,0.367,1.281h0.011c0.095-0.367,0.188-0.672,0.325-1.145l0.683-2.372
		c-0.241-0.021-0.504-0.063-0.725-0.126v-0.567h2.341v0.567C338.704,162.703,338.474,162.745,338.242,162.766z"/>
	<path d="M343.598,164.666h-3.412c-0.041,1.365,0.515,1.953,1.648,1.953c0.504,0,1.029-0.105,1.491-0.305l0.136,0.746
		c-0.524,0.21-1.154,0.326-1.805,0.326c-1.586,0-2.446-0.84-2.446-2.677c0-1.554,0.871-2.729,2.352-2.729
		c1.459,0,2.067,0.976,2.067,2.142C343.629,164.246,343.619,164.456,343.598,164.666z M341.498,162.692
		c-0.682,0-1.165,0.504-1.28,1.302h2.446C342.685,163.196,342.233,162.692,341.498,162.692z"/>
	<path d="M348.155,167.291c0-0.294,0.021-0.756,0.084-1.061l-0.021-0.01c-0.294,0.704-0.935,1.166-1.753,1.166
		c-1.281,0-1.921-0.935-1.921-2.457c0-1.826,1.05-2.929,2.698-2.929c0.283,0,0.566,0.021,0.881,0.053v-1.68
		c-0.252-0.042-0.608-0.084-0.913-0.105v-0.566c0.525-0.063,1.249-0.105,1.858-0.074v6.918c0.252,0.042,0.599,0.084,0.882,0.104
		v0.567C349.457,167.28,348.732,167.322,348.155,167.291z M348.123,162.86c-0.314-0.074-0.629-0.116-0.924-0.116
		c-0.997,0-1.658,0.599-1.658,2.1c0,1.124,0.367,1.764,1.154,1.764c0.945,0,1.428-1.102,1.428-2.016V162.86z"/>
	<path d="M355.211,167.385c-1.428,0-2.341-0.819-2.341-2.625c0-1.564,0.966-2.782,2.54-2.782c1.323,0,2.342,0.724,2.342,2.625
		C357.752,166.167,356.785,167.385,355.211,167.385z M355.326,162.766c-0.766,0-1.48,0.577-1.48,1.921c0,1.207,0.504,1.9,1.471,1.9
		c0.776,0,1.459-0.609,1.459-1.911C356.775,163.458,356.271,162.766,355.326,162.766z"/>
	<path d="M362.718,167.291v-3.359c0-0.735-0.199-1.176-0.882-1.176c-0.861,0-1.49,0.882-1.49,2.037v1.795
		c0.283,0.021,0.588,0.062,0.84,0.136v0.567h-2.698v-0.567c0.272-0.063,0.599-0.116,0.913-0.136v-3.769
		c-0.252-0.042-0.609-0.084-0.913-0.105v-0.567c0.524-0.063,1.249-0.105,1.826-0.074c0,0.305-0.021,0.788-0.073,1.103h0.011
		c0.304-0.714,0.955-1.197,1.848-1.197c1.187,0,1.563,0.746,1.563,1.669v2.939c0.305,0.021,0.62,0.073,0.872,0.136v0.567H362.718z"
		/>
	<path d="M370.655,167.291c0-0.367,0.011-0.745,0.063-1.039h-0.021c-0.252,0.64-0.913,1.134-1.773,1.134
		c-0.861,0-1.449-0.536-1.449-1.375c0-1.124,1.165-1.785,3.129-1.785v-0.389c0-0.734-0.263-1.144-1.092-1.144
		c-0.315,0-0.683,0.052-0.977,0.147c-0.021,0.263-0.074,0.557-0.126,0.851h-0.588v-1.428c0.524-0.168,1.154-0.294,1.774-0.294
		c1.532,0,1.963,0.703,1.963,1.742v2.835c0.252,0.042,0.598,0.084,0.882,0.104v0.567
		C371.947,167.28,371.223,167.322,370.655,167.291z M370.604,164.876c-1.639,0-2.205,0.41-2.205,0.987
		c0,0.451,0.314,0.777,0.798,0.777c0.84,0,1.407-0.83,1.407-1.648V164.876z"/>
	<path d="M377.701,167.375c-1.291,0-2.361-0.599-2.361-2.52c0-1.68,0.85-2.866,2.593-2.866c0.44,0,0.913,0.074,1.28,0.189v1.522
		h-0.588c-0.062-0.304-0.104-0.598-0.136-0.85c-0.179-0.053-0.42-0.084-0.704-0.084c-0.934,0-1.459,0.787-1.459,1.932
		c0,1.06,0.347,1.858,1.575,1.858c0.451,0,0.892-0.094,1.249-0.252l0.157,0.788C378.909,167.238,378.332,167.375,377.701,167.375z"
		/>
	<path d="M384.41,164.666h-3.412c-0.041,1.365,0.515,1.953,1.648,1.953c0.504,0,1.029-0.105,1.491-0.305l0.136,0.746
		c-0.524,0.21-1.154,0.326-1.805,0.326c-1.586,0-2.446-0.84-2.446-2.677c0-1.554,0.871-2.729,2.352-2.729
		c1.459,0,2.067,0.976,2.067,2.142C384.441,164.246,384.432,164.456,384.41,164.666z M382.311,162.692
		c-0.682,0-1.165,0.504-1.28,1.302h2.446C383.497,163.196,383.046,162.692,382.311,162.692z"/>
	<path d="M385.115,167.291v-0.567c0.262-0.063,0.577-0.116,0.881-0.136v-6.215c-0.252-0.042-0.598-0.084-0.902-0.105v-0.566
		c0.535-0.063,1.238-0.105,1.848-0.074v6.96c0.305,0.021,0.619,0.073,0.882,0.136v0.567H385.115z"/>
	<path d="M388.201,167.291v-0.567c0.263-0.063,0.578-0.116,0.883-0.136v-6.215c-0.252-0.042-0.599-0.084-0.903-0.105v-0.566
		c0.535-0.063,1.239-0.105,1.848-0.074v6.96c0.305,0.021,0.619,0.073,0.882,0.136v0.567H388.201z"/>
	<path d="M393.798,167.385c-1.428,0-2.341-0.819-2.341-2.625c0-1.564,0.966-2.782,2.54-2.782c1.323,0,2.341,0.724,2.341,2.625
		C396.338,166.167,395.373,167.385,393.798,167.385z M393.913,162.766c-0.767,0-1.479,0.577-1.479,1.921
		c0,1.207,0.504,1.9,1.469,1.9c0.777,0,1.46-0.609,1.46-1.911C395.362,163.458,394.858,162.766,393.913,162.766z"/>
</g>
<g>
	<path d="M404.174,137.312v2.352h2.804v0.776h-2.804v3.16h-0.966v-7.086h3.916v0.798H404.174z"/>
	<path d="M411.072,139.874l0.021,0.01c0.336-0.976,1.008-1.617,2.026-1.617c0.284,0,0.588,0.042,0.872,0.137l-0.211,0.902
		c-0.23-0.094-0.514-0.168-0.776-0.168c-1.145,0-1.784,1.187-1.784,2.509v1.208h1.521v0.745h-3.853v-0.745h1.386v-3.748h-1.386
		v-0.725h2.288C411.177,138.792,411.167,139.317,411.072,139.874z"/>
	<path d="M420.018,141.028h-3.716c-0.011,0.032-0.011,0.063-0.011,0.105c0,1.27,0.714,1.806,1.795,1.806
		c0.535,0,1.271-0.147,1.68-0.347l0.084,0.777c-0.504,0.2-1.249,0.336-1.921,0.336c-1.617,0-2.604-0.85-2.604-2.688
		c0-1.564,0.977-2.75,2.478-2.75c1.479,0,2.235,1.081,2.235,2.278C420.038,140.661,420.038,140.85,420.018,141.028z
		 M417.761,138.981c-0.703,0-1.323,0.515-1.428,1.365h2.74C419.083,139.496,418.506,138.981,417.761,138.981z"/>
	<path d="M425.268,146.193v-2.414c0-0.473,0.031-0.924,0.104-1.375l-0.021-0.01c-0.305,0.871-0.955,1.312-1.753,1.312
		c-1.197,0-2.026-0.84-2.026-2.457c0-1.827,1.165-2.95,2.855-2.95c0.641,0,1.239,0.063,1.784,0.158v7.737H425.268z M425.268,139.16
		c-0.315-0.074-0.619-0.105-0.935-0.105c-0.986,0-1.773,0.599-1.773,2.1c0,1.124,0.493,1.774,1.27,1.774
		c0.955,0,1.438-1.187,1.438-2.121V139.16z"/>
	<path d="M431.578,143.601c0-0.409,0.011-0.893,0.062-1.197l-0.011-0.01c-0.304,0.829-0.944,1.312-1.848,1.312
		c-1.186,0-1.563-0.746-1.563-1.669v-3.653h0.944v3.37c0,0.735,0.199,1.176,0.882,1.176c0.872,0,1.491-0.997,1.491-2.142v-2.404
		h0.944v5.218H431.578z"/>
	<path d="M438.917,141.028H435.2c-0.01,0.032-0.01,0.063-0.01,0.105c0,1.27,0.714,1.806,1.795,1.806c0.535,0,1.271-0.147,1.68-0.347
		l0.084,0.777c-0.504,0.2-1.249,0.336-1.921,0.336c-1.617,0-2.604-0.85-2.604-2.688c0-1.564,0.976-2.75,2.478-2.75
		c1.48,0,2.236,1.081,2.236,2.278C438.938,140.661,438.938,140.85,438.917,141.028z M436.66,138.981
		c-0.704,0-1.323,0.515-1.428,1.365h2.739C437.982,139.496,437.405,138.981,436.66,138.981z"/>
	<path d="M444.137,143.601v-3.37c0-0.734-0.2-1.176-0.882-1.176c-0.871,0-1.491,0.998-1.491,2.142v2.404h-0.944v-5.218h0.902
		c0,0.41-0.01,0.893-0.062,1.197l0.01,0.01c0.305-0.83,0.945-1.312,1.848-1.312c1.187,0,1.564,0.745,1.564,1.669v3.653H444.137z"/>
	<path d="M449.565,143.695c-1.712,0-2.604-0.966-2.604-2.53c0-1.69,1.049-2.876,2.887-2.876c0.566,0,1.123,0.105,1.543,0.252
		l-0.168,0.84c-0.378-0.178-0.902-0.304-1.396-0.304c-1.134,0-1.857,0.776-1.857,1.952c0,1.029,0.577,1.848,1.784,1.848
		c0.546,0,1.092-0.115,1.522-0.314l0.157,0.818C450.95,143.569,450.216,143.695,449.565,143.695z"/>
	<path d="M455.991,143.601c-0.788,1.921-1.449,2.499-2.688,2.688l-0.2-0.84c0.977-0.115,1.365-0.42,1.953-1.848l-2.1-5.218h1.081
		l1.103,2.897c0.136,0.347,0.304,0.84,0.409,1.218h0.021c0.104-0.367,0.314-0.913,0.535-1.501l1.008-2.614h1.028L455.991,143.601z"
		/>
	<path d="M462.983,145.963c-1.764-1.606-2.582-3.255-2.582-5.281c0-2.142,1.028-3.916,2.604-5.354l0.535,0.557
		c-1.418,1.386-2.194,3.023-2.194,4.724c0,1.764,0.735,3.359,2.204,4.787L462.983,145.963z"/>
	<path d="M469.692,143.601v-3.265h-3.086v3.265h-0.966v-7.086h0.966v3.002h3.086v-3.002h0.966v7.086H469.692z"/>
	<path d="M472.286,143.601v-0.672l3.045-3.737c-0.305,0.011-0.818,0.021-1.396,0.021h-1.585v-0.83h4.22v0.662l-3.002,3.727
		c0.283-0.011,0.955-0.021,1.438-0.021h1.606v0.851H472.286z"/>
	<path d="M479.668,135.328c1.764,1.617,2.582,3.254,2.582,5.291c0,2.142-1.028,3.916-2.604,5.344l-0.535-0.546
		c1.417-1.386,2.194-3.034,2.194-4.725c0-1.764-0.735-3.37-2.205-4.787L479.668,135.328z"/>
</g>
<g>
	<path d="M60.37,58.505l-1.627,0.536v2.908l1.627,0.546v0.976l-7.086-2.404v-1.239l7.086-2.394V58.505z M55.047,60.237
		c-0.283,0.095-0.577,0.179-0.892,0.252V60.5c0.304,0.073,0.598,0.157,0.872,0.252l2.939,0.977v-2.467L55.047,60.237z"/>
	<path d="M60.37,52.321h-3.422c-0.798,0-1.155,0.084-1.155,0.451c0,0.483,0.914,0.997,2.037,0.997h2.541v0.788h-3.38
		c-0.84,0-1.197,0.094-1.197,0.472c0,0.483,0.914,0.966,2.037,0.966h2.541v0.798h-5.217v-0.756c0.378,0,0.756,0.032,1.176,0.084
		l0.01-0.01c-0.777-0.21-1.292-0.651-1.292-1.302s0.494-0.924,1.271-0.924c-0.756-0.21-1.271-0.651-1.271-1.312
		c0-0.746,0.599-1.05,1.68-1.05h3.643V52.321z"/>
	<path d="M60.433,48.099c0,0.378-0.031,0.735-0.095,0.977h2.625v0.945h-7.811v-0.903c0.294,0,0.756,0.011,1.207,0.095l0.011-0.021
		c-0.872-0.314-1.323-0.955-1.323-1.795c0-1.197,0.872-2.016,2.467-2.016C59.372,45.38,60.433,46.535,60.433,48.099z M55.824,47.648
		c0,0.945,1.186,1.428,2.1,1.428h1.596c0.104-0.283,0.178-0.577,0.178-1.019c0-0.934-0.651-1.69-2.1-1.69
		C56.475,46.367,55.824,46.861,55.824,47.648z"/>
	<path d="M53.431,41.925v1.91h-0.725V40.98h6.918v-1.9h0.746v4.755h-0.746v-1.91H53.431z"/>
	<path d="M53.525,34.313c0.41,0,0.746,0.336,0.746,0.756s-0.336,0.767-0.746,0.767c-0.42,0-0.756-0.347-0.756-0.767
		S53.105,34.313,53.525,34.313z M60.37,37.452h-0.746V35.5h-3.748v1.795h-0.724v-2.74h4.472v-1.711h0.746V37.452z"/>
	<path d="M60.464,28.202c0,1.102-0.504,1.795-1.774,1.795h-2.782v1.7h-0.756v-1.7h-1.69l-0.263-0.945h1.953v-2.268h0.756v2.268
		h2.509c0.913,0,1.239-0.472,1.239-1.144c0-0.346-0.052-0.788-0.147-1.113l0.777-0.084C60.391,27.142,60.464,27.772,60.464,28.202z"
		/>
	<path d="M60.37,21.43c-0.41,0-0.892-0.011-1.197-0.063l-0.011,0.011c0.83,0.305,1.312,0.945,1.312,1.848
		c0,1.187-0.745,1.564-1.669,1.564h-3.653v-0.945h3.37c0.735,0,1.176-0.199,1.176-0.882c0-0.871-0.998-1.49-2.142-1.49h-2.404
		v-0.945h5.217V21.43z"/>
	<path d="M60.37,15.099c-0.294,0-0.756-0.01-1.208-0.094l-0.01,0.021c0.861,0.305,1.323,0.956,1.323,1.795
		c0,1.197-0.871,2.016-2.467,2.016c-1.816,0-2.929-1.166-2.929-2.792c0-0.305,0.01-0.577,0.052-0.903h-2.425v-0.945h7.664V15.099z
		 M55.939,15.141c-0.073,0.315-0.115,0.63-0.115,0.934c0,0.987,0.598,1.774,2.1,1.774c1.123,0,1.774-0.493,1.774-1.281
		c0-0.945-1.186-1.428-2.1-1.428H55.939z"/>
	<path d="M57.798,7.791v3.716c0.031,0.01,0.062,0.01,0.104,0.01c1.271,0,1.806-0.714,1.806-1.795c0-0.535-0.146-1.271-0.346-1.68
		l0.777-0.084c0.199,0.504,0.336,1.249,0.336,1.921c0,1.617-0.851,2.604-2.688,2.604c-1.564,0-2.75-0.976-2.75-2.478
		c0-1.48,1.082-2.236,2.278-2.236C57.43,7.77,57.619,7.77,57.798,7.791z M55.75,10.047c0,0.704,0.514,1.323,1.365,1.428v-2.74
		C56.265,8.725,55.75,9.302,55.75,10.047z"/>
</g>
<line fill="none" stroke="#CCCCCC" stroke-width="0.75" x1="91.415" y1="127.972" x2="91.415" y2="131.503"/>
<line fill="none" stroke="#CCCCCC" stroke-width="0.75" x1="122.119" y1="127.972" x2="122.119" y2="131.503"/>
<line fill="none" stroke="#CCCCCC" stroke-width="0.75" x1="187.911" y1="127.972" x2="187.911" y2="131.503"/>
<line fill="none" stroke="#CCCCCC" stroke-width="0.75" x1="236.158" y1="127.972" x2="236.158" y2="131.503"/>
</svg>
