<?xml version="1.0" encoding="utf-8"?>
<!-- Generator: Adobe Illustrator 16.0.4, SVG Export Plug-In . SVG Version: 6.00 Build 0)  -->
<!DOCTYPE svg PUBLIC "-//W3C//DTD SVG 1.1//EN" "http://www.w3.org/Graphics/SVG/1.1/DTD/svg11.dtd">
<svg version="1.1" id="Layer_1" xmlns="http://www.w3.org/2000/svg" xmlns:xlink="http://www.w3.org/1999/xlink" x="0px" y="0px"
	 width="550px" height="130px" viewBox="0 0 550 130" enable-background="new 0 0 550 130" xml:space="preserve">
<path fill="none" stroke="#000000" stroke-width="0.75" stroke-linecap="round" d="M460.697,23.694c-14.912,0-27,12.088-27,27
	s12.088,27,27,27V23.694z"/>
<line fill="none" stroke="#000000" stroke-width="0.375" x1="120.339" y1="93.294" x2="158.188" y2="93.294"/>
<line fill="none" stroke="#000000" stroke-width="0.375" x1="120.339" y1="120.294" x2="158.188" y2="120.294"/>
<line fill="none" stroke="#000000" stroke-width="0.375" x1="120.339" y1="106.794" x2="158.188" y2="106.794"/>
<path fill="none" stroke="#000000" stroke-width="0.75" stroke-linecap="round" d="M120.339,106.794c0,0,0.55-2.719,0.55-3.562
	s0.355-1.994,0.687-2.156c0.31-0.151,0.48,0.234,0.688,0.703c0.205,0.469,0.309,0.703,0.445,1.125
	c0.138,0.422,0.309,0.844,0.55,0.656c0.24-0.188,0.412-1.266,0.412-1.453s0.445-3.094,0.583-3.75s0.378-1.969,0.413-2.156
	c0.034-0.188,0.103-0.797,0.412-0.75c0.309,0.047,0.583,0.328,0.754,0.797c0.173,0.469,0.413,1.125,0.723,1.172
	c0.309,0.047,0.961,0.469,1.099,0.141c0.136-0.328,0.645-1.127,0.769-1.29c0.14-0.183,0.363-0.351,0.673-0.022
	c0.309,0.328,0.343,1.266,0.549,1.641c0.207,0.375,0.721,1.219,0.756,1.547c0.034,0.328,0.138,0.656,0.24,1.031
	s0.343,0.516,0.446,0.938s0.137,1.219,0.377,1.312c0.241,0.094,0.756,0.516,1.271-0.094c0.515-0.609,0.652,0.281,0.721,0.422
	c0.069,0.141,0.31,0.891,0.31,1.266s0.171,1.453,0.309,1.641s0.24,1.172,0.24,1.172s0.138,0.562,0.378,1.031
	s0.445,1.031,0.652,1.078c0.206,0.047,0.539,0.179,0.739,0.379c0.263,0.263,0.462,0.23,0.565,0.512
	c0.103,0.281,0.583,0.938,0.79,1.594c0.205,0.656,0.719,0.079,0.927,0.047c0.33-0.051,0.515,0.375,0.686,0.375
	c0.173,0,0.756,0,0.825-0.234c0.068-0.234,0.446-0.656,0.651-0.984c0.207-0.328,0.378-1.125,0.756-1.266s0.583-0.601,0.922-0.122
	c0.203,0.288,0.384,0.216,0.417,0.731c0,0,0.138,0.703,0.138,1.219c0,0.193,0.103,0.422,0.24,0.609s0.48-0.188,0.618,0.234
	s0.24,0.844,0.31,1.172c0.068,0.328,0.033,0.516,0.24,0.75c0.205,0.234,0.391,0.479,0.643,0.266
	c0.292-0.246,0.456-0.688,0.524-1.156c0.069-0.469,0.515-1.969,0.55-2.109c0.033-0.141,0.549-1.781,0.721-2.297
	c0.171-0.516,0.262-0.994,0.343-1.172c0.212-0.461,0.316-1.503,0.777-0.834c0.319,0.464,0.253,0.6,0.253,1.162
	s0.104,1.875,0.274,2.391c0.172,0.516,0.412,2.484,0.412,3.094s0.104,1.5,0.104,1.688s0.074,0.96,0.298,1.146
	c0.49,0.405,0.645-0.659,0.815-1.409c0.173-0.75,0.328-1.143,0.466-2.127s0.618-3.75,0.618-4.406s0.082-1.506,0.274-2.016
	c0.123-0.326,0.088-0.66,0.258-0.836c0.232-0.241,0.519-0.158,0.566,0.367c0.059,0.651,0.137,0.844,0.24,1.359
	c0.103,0.516,0.447,1.031,0.447,1.594s0,0.891,0.136,1.266c0.138,0.375,0.069,0.984,0.345,1.172c0.273,0.188,0.551-0.27,0.583-0.797
	c0.038-0.614,0.65-1.959,0.976-2.357c0.106-0.129,0.396-0.863,0.707-0.877c0.337-0.015,0.55,0.188,0.687,0.562
	s0.55,1.359,0.927,1.453c0.378,0.094,0.584-0.234,0.721-0.609c0.138-0.375,0.253-0.81,0.446-1.922"/>
<path fill="none" stroke="#000000" stroke-width="0.75" stroke-linecap="round" d="M14.992,50.515c0,0,0.824-4.078,0.824-5.344
	s0.534-2.992,1.03-3.234c0.464-0.228,0.721,0.352,1.03,1.055c0.308,0.703,0.464,1.055,0.668,1.688
	c0.207,0.633,0.464,1.266,0.825,0.984c0.36-0.281,0.619-1.898,0.619-2.18s0.668-4.641,0.874-5.625s0.567-2.953,0.619-3.234
	c0.051-0.281,0.154-1.195,0.618-1.125c0.463,0.07,0.874,0.492,1.131,1.195c0.26,0.703,0.62,1.688,1.084,1.758
	c0.463,0.07,1.441,0.703,1.647,0.211c0.204-0.492,0.967-1.691,1.153-1.936c0.209-0.274,0.545-0.525,1.009-0.033
	s0.516,1.898,0.824,2.461c0.31,0.562,1.081,1.828,1.134,2.32c0.051,0.492,0.206,0.984,0.36,1.547
	c0.153,0.562,0.515,0.773,0.669,1.406c0.155,0.633,0.205,1.828,0.566,1.969c0.36,0.141,1.133,0.773,1.906-0.141
	c0.771-0.914,0.979,0.422,1.082,0.633c0.103,0.211,0.463,1.336,0.463,1.898s0.258,2.18,0.464,2.461s0.36,1.758,0.36,1.758
	s0.207,0.844,0.566,1.547c0.361,0.703,0.668,1.547,0.979,1.617c0.31,0.07,0.81,0.268,1.109,0.567
	c0.394,0.396,0.692,0.347,0.848,0.769c0.154,0.422,0.875,1.406,1.185,2.391c0.308,0.984,1.079,0.119,1.392,0.07
	c0.494-0.078,0.771,0.562,1.027,0.562c0.26,0,1.135,0,1.237-0.352c0.104-0.352,0.671-0.984,0.978-1.477
	c0.311-0.492,0.567-1.688,1.135-1.898c0.566-0.211,0.874-0.9,1.382-0.184c0.306,0.432,0.575,0.324,0.626,1.098
	c0,0,0.207,1.055,0.207,1.828c0,0.29,0.153,0.633,0.359,0.914c0.207,0.281,0.721-0.281,0.928,0.352
	c0.206,0.633,0.36,1.266,0.464,1.758c0.103,0.492,0.05,0.773,0.36,1.125c0.309,0.352,0.586,0.717,0.965,0.398
	c0.437-0.369,0.683-1.031,0.786-1.734s0.771-2.953,0.824-3.164c0.05-0.211,0.823-2.672,1.081-3.445
	c0.257-0.773,0.393-1.491,0.514-1.758c0.318-0.691,0.475-2.254,1.167-1.252c0.479,0.697,0.379,0.9,0.379,1.744
	s0.155,2.812,0.412,3.586s0.617,3.727,0.617,4.641s0.156,2.25,0.156,2.531s0.11,1.439,0.446,1.719
	c0.735,0.607,0.967-0.989,1.224-2.114c0.259-1.125,0.492-1.714,0.698-3.19c0.207-1.477,0.928-5.625,0.928-6.609
	s0.123-2.259,0.411-3.023c0.185-0.489,0.132-0.99,0.387-1.254c0.349-0.362,0.777-0.238,0.851,0.551
	c0.088,0.977,0.205,1.266,0.359,2.039s0.671,1.547,0.671,2.391s0,1.336,0.204,1.898c0.207,0.562,0.104,1.477,0.517,1.758
	c0.411,0.281,0.826-0.404,0.874-1.195c0.058-0.922,0.976-2.939,1.465-3.537c0.159-0.193,0.594-1.294,1.061-1.314
	c0.505-0.021,0.823,0.281,1.028,0.844c0.206,0.562,0.825,2.039,1.391,2.18c0.566,0.141,0.876-0.352,1.082-0.914
	c0.205-0.562,0.379-1.215,0.669-2.883"/>
<path fill="none" stroke="#000000" stroke-width="0.75" stroke-linecap="round" d="M473.301,48.767c0,0,0.826-4.078,0.826-5.344
	s0.533-2.991,1.027-3.234c0.467-0.228,0.721,0.352,1.031,1.055c0.307,0.703,0.463,1.055,0.668,1.688
	c0.207,0.633,0.463,1.266,0.824,0.984c0.363-0.281,0.621-1.898,0.621-2.18s0.668-4.641,0.873-5.625
	c0.207-0.984,0.568-2.953,0.621-3.234c0.049-0.281,0.152-1.195,0.617-1.125c0.463,0.07,0.873,0.492,1.131,1.195
	s0.619,1.688,1.082,1.758s1.443,0.703,1.648,0.211s0.965-1.69,1.152-1.935c0.211-0.274,0.547-0.526,1.01-0.034
	c0.465,0.492,0.514,1.898,0.824,2.461c0.309,0.562,1.08,1.828,1.133,2.32c0.051,0.492,0.207,0.984,0.361,1.547
	c0.152,0.562,0.516,0.773,0.67,1.406c0.156,0.633,0.205,1.828,0.564,1.969c0.361,0.141,1.135,0.773,1.906-0.141
	c0.773-0.914,0.98,0.422,1.082,0.633c0.104,0.211,0.463,1.336,0.463,1.898s0.26,2.18,0.465,2.461
	c0.207,0.281,0.359,1.758,0.359,1.758s0.207,0.844,0.566,1.547c0.363,0.703,0.67,1.547,0.98,1.617
	c0.309,0.07,0.807,0.269,1.107,0.568c0.395,0.395,0.695,0.346,0.85,0.768c0.152,0.422,0.873,1.406,1.182,2.391
	s1.082,0.119,1.395,0.07c0.492-0.077,0.768,0.562,1.025,0.562c0.262,0,1.137,0,1.236-0.352c0.105-0.352,0.674-0.984,0.98-1.477
	c0.309-0.492,0.566-1.688,1.133-1.898c0.568-0.211,0.875-0.9,1.383-0.184c0.305,0.432,0.574,0.324,0.625,1.098
	c0,0,0.209,1.055,0.209,1.828c0,0.291,0.152,0.633,0.357,0.914c0.207,0.281,0.723-0.281,0.928,0.352
	c0.209,0.633,0.361,1.266,0.467,1.758c0.1,0.492,0.049,0.773,0.359,1.125c0.309,0.352,0.584,0.718,0.965,0.398
	c0.436-0.369,0.682-1.031,0.785-1.734s0.771-2.953,0.826-3.164c0.049-0.211,0.82-2.672,1.08-3.445
	c0.256-0.773,0.391-1.49,0.514-1.758c0.318-0.691,0.473-2.254,1.166-1.251c0.48,0.696,0.381,0.899,0.381,1.743
	s0.154,2.812,0.41,3.586c0.258,0.773,0.617,3.727,0.617,4.641s0.156,2.25,0.156,2.531s0.109,1.44,0.445,1.719
	c0.738,0.607,0.969-0.988,1.225-2.113c0.258-1.125,0.492-1.715,0.699-3.191c0.205-1.477,0.928-5.625,0.928-6.609
	s0.121-2.258,0.412-3.023c0.182-0.488,0.131-0.99,0.387-1.254c0.348-0.362,0.775-0.238,0.85,0.551
	c0.088,0.977,0.203,1.266,0.357,2.039c0.156,0.773,0.674,1.547,0.674,2.391s0,1.336,0.201,1.898c0.207,0.562,0.105,1.477,0.52,1.758
	c0.41,0.281,0.824-0.404,0.873-1.195c0.059-0.922,0.975-2.938,1.465-3.536c0.158-0.193,0.592-1.294,1.061-1.315
	c0.504-0.021,0.82,0.281,1.025,0.844c0.207,0.562,0.826,2.039,1.395,2.18c0.562,0.141,0.873-0.352,1.08-0.914
	c0.205-0.562,0.379-1.214,0.67-2.883"/>
<path fill="none" stroke="#000000" stroke-width="0.6419" stroke-linecap="round" d="M158.301,106.794"/>
<g>
	<g>
		<path d="M82.836,13.794v-0.567c0.241-0.052,0.546-0.104,0.818-0.126L83.15,9.469c-0.104-0.777-0.178-1.344-0.21-1.774H82.92
			c-0.074,0.347-0.168,0.767-0.326,1.229l-1.68,4.871h-0.892l-1.606-4.63c-0.189-0.557-0.315-1.05-0.409-1.47h-0.021
			c-0.021,0.557-0.094,1.165-0.168,1.816l-0.43,3.59c0.284,0.021,0.578,0.074,0.819,0.126v0.567H75.76v-0.567
			c0.179-0.042,0.462-0.104,0.651-0.115l0.829-5.7c-0.315-0.021-0.63-0.073-0.903-0.137V6.708h2.247l1.512,4.314
			c0.147,0.409,0.305,0.977,0.409,1.417h0.011c0.115-0.473,0.231-0.893,0.389-1.364l1.522-4.367h2.268v0.566
			c-0.273,0.063-0.588,0.115-0.903,0.137l0.851,5.7c0.199,0.011,0.472,0.073,0.65,0.115v0.567H82.836z"/>
		<path d="M85.745,13.794v-0.567c0.273-0.062,0.599-0.115,0.914-0.136v-3.77c-0.252-0.042-0.609-0.084-0.914-0.104V8.649
			c0.525-0.062,1.25-0.104,1.858-0.073v4.515c0.305,0.021,0.619,0.073,0.882,0.136v0.567H85.745z M87.142,7.537
			c-0.347,0-0.63-0.263-0.63-0.609c0-0.346,0.283-0.619,0.63-0.619c0.336,0,0.619,0.273,0.619,0.619
			C87.761,7.264,87.478,7.537,87.142,7.537z"/>
		<path d="M91.467,13.878c-1.292,0-2.362-0.599-2.362-2.52c0-1.68,0.85-2.866,2.593-2.866c0.441,0,0.913,0.073,1.281,0.189v1.521
			h-0.588c-0.063-0.304-0.105-0.598-0.136-0.85c-0.179-0.053-0.42-0.084-0.704-0.084c-0.934,0-1.459,0.787-1.459,1.932
			c0,1.06,0.347,1.857,1.575,1.857c0.451,0,0.892-0.094,1.249-0.252l0.157,0.788C92.675,13.741,92.097,13.878,91.467,13.878z"/>
		<path d="M97.379,9.416c-1.197-0.199-1.732,0.609-1.732,2.278v1.396c0.315,0.021,0.641,0.073,0.913,0.136v0.567h-2.771v-0.567
			c0.273-0.062,0.599-0.115,0.914-0.136v-3.77c-0.252-0.042-0.609-0.084-0.914-0.104V8.649c0.525-0.062,1.25-0.104,1.827-0.073
			c0,0.325-0.032,0.809-0.105,1.239h0.011c0.231-0.725,0.756-1.449,1.9-1.334L97.379,9.416z"/>
		<path d="M100.372,13.889c-1.428,0-2.341-0.819-2.341-2.625c0-1.564,0.966-2.782,2.541-2.782c1.322,0,2.341,0.725,2.341,2.625
			C102.912,12.671,101.946,13.889,100.372,13.889z M100.487,9.27c-0.767,0-1.48,0.577-1.48,1.921c0,1.207,0.504,1.9,1.47,1.9
			c0.777,0,1.459-0.609,1.459-1.911C101.936,9.962,101.432,9.27,100.487,9.27z"/>
		<path d="M106.262,13.856c-0.336,0-0.577-0.01-0.893-0.062v1.89c0.315,0.021,0.641,0.073,0.914,0.137v0.566h-2.729V15.82
			c0.273-0.063,0.556-0.116,0.872-0.137V9.321c-0.252-0.042-0.578-0.084-0.872-0.104V8.649c0.514-0.062,1.228-0.104,1.795-0.073
			c0,0.294-0.032,0.767-0.084,1.061l0.021,0.011c0.294-0.725,0.924-1.166,1.743-1.166c1.228,0,1.921,0.861,1.921,2.457
			C108.949,12.797,107.941,13.856,106.262,13.856z M106.797,9.259c-0.944,0-1.428,1.103-1.428,2.016v1.722
			c0.284,0.084,0.578,0.126,0.935,0.126c0.987,0,1.648-0.599,1.648-2.1C107.952,9.899,107.595,9.259,106.797,9.259z"/>
		<path d="M113.79,13.794v-3.359c0-0.735-0.199-1.176-0.893-1.176c-0.86,0-1.48,0.882-1.48,2.036v1.796
			c0.284,0.021,0.588,0.062,0.84,0.136v0.567h-2.667v-0.567c0.263-0.062,0.577-0.115,0.882-0.136V6.876
			c-0.252-0.042-0.599-0.084-0.903-0.105V6.204c0.525-0.063,1.239-0.105,1.848-0.074v2.478c0,0.336-0.021,0.756-0.094,1.04
			l0.021,0.01c0.305-0.714,0.945-1.176,1.827-1.176c1.186,0,1.564,0.746,1.564,1.67v2.939c0.294,0.021,0.609,0.073,0.872,0.136
			v0.567H113.79z"/>
		<path d="M118.568,13.889c-1.428,0-2.341-0.819-2.341-2.625c0-1.564,0.966-2.782,2.541-2.782c1.322,0,2.341,0.725,2.341,2.625
			C121.108,12.671,120.143,13.889,118.568,13.889z M118.684,9.27c-0.767,0-1.48,0.577-1.48,1.921c0,1.207,0.504,1.9,1.47,1.9
			c0.777,0,1.459-0.609,1.459-1.911C120.132,9.962,119.628,9.27,118.684,9.27z"/>
		<path d="M126.075,13.794v-3.359c0-0.735-0.2-1.176-0.882-1.176c-0.861,0-1.491,0.882-1.491,2.036v1.796
			c0.283,0.021,0.588,0.062,0.84,0.136v0.567h-2.698v-0.567c0.273-0.062,0.599-0.115,0.914-0.136v-3.77
			c-0.252-0.042-0.609-0.084-0.914-0.104V8.649c0.525-0.062,1.25-0.104,1.827-0.073c0,0.305-0.021,0.787-0.074,1.103h0.01
			c0.305-0.714,0.956-1.197,1.848-1.197c1.187,0,1.564,0.746,1.564,1.67v2.939c0.305,0.021,0.619,0.073,0.871,0.136v0.567H126.075z"
			/>
		<path d="M132.899,11.169h-3.412c-0.042,1.365,0.514,1.953,1.648,1.953c0.504,0,1.029-0.105,1.491-0.305l0.136,0.745
			c-0.525,0.21-1.155,0.326-1.806,0.326c-1.585,0-2.446-0.84-2.446-2.678c0-1.554,0.871-2.729,2.352-2.729
			c1.459,0,2.068,0.977,2.068,2.142C132.931,10.749,132.921,10.959,132.899,11.169z M130.8,9.195c-0.682,0-1.165,0.504-1.28,1.302
			h2.446C131.986,9.699,131.535,9.195,130.8,9.195z"/>
	</g>
</g>
<g>
	<g>
		<path d="M28.442,13.889c-0.546,0-1.07-0.063-1.512-0.179v-1.68h0.693c0.062,0.347,0.104,0.672,0.136,0.944
			c0.231,0.053,0.504,0.095,0.777,0.095c0.84,0,1.522-0.336,1.522-1.218c0-1.596-3.233-0.955-3.233-3.233
			c0-1.165,0.924-2.005,2.509-2.005c0.493,0,0.903,0.053,1.365,0.137v1.627h-0.693c-0.063-0.325-0.105-0.661-0.126-0.924
			c-0.157-0.031-0.399-0.063-0.619-0.063c-0.935,0-1.428,0.452-1.428,1.113c0,1.554,3.233,0.977,3.233,3.202
			C31.067,12.975,30.07,13.889,28.442,13.889z"/>
		<path d="M34.364,13.889c-1.428,0-2.341-0.819-2.341-2.625c0-1.564,0.966-2.782,2.54-2.782c1.323,0,2.341,0.725,2.341,2.625
			C36.905,12.671,35.939,13.889,34.364,13.889z M34.479,9.27C33.713,9.27,33,9.847,33,11.19c0,1.207,0.504,1.9,1.47,1.9
			c0.777,0,1.459-0.609,1.459-1.911C35.929,9.962,35.425,9.27,34.479,9.27z"/>
		<path d="M41.756,13.794c0-0.315,0.021-0.777,0.074-1.103h-0.021c-0.305,0.714-0.945,1.197-1.837,1.197
			c-1.197,0-1.564-0.746-1.564-1.67V9.321c-0.252-0.042-0.599-0.084-0.882-0.104V8.649c0.493-0.062,1.207-0.104,1.816-0.073v3.359
			c0,0.735,0.21,1.176,0.892,1.176c0.861,0,1.491-0.882,1.491-2.036V9.312c-0.241-0.032-0.567-0.074-0.851-0.095V8.649
			c0.515-0.062,1.208-0.104,1.785-0.073v4.473c0.252,0.042,0.598,0.084,0.882,0.104v0.567
			C43.047,13.783,42.323,13.825,41.756,13.794z"/>
		<path d="M48.266,13.794v-3.359c0-0.735-0.2-1.176-0.882-1.176c-0.861,0-1.491,0.882-1.491,2.036v1.796
			c0.283,0.021,0.588,0.062,0.84,0.136v0.567h-2.698v-0.567c0.273-0.062,0.599-0.115,0.914-0.136v-3.77
			c-0.252-0.042-0.609-0.084-0.914-0.104V8.649c0.525-0.062,1.25-0.104,1.827-0.073c0,0.305-0.021,0.787-0.074,1.103h0.01
			c0.305-0.714,0.956-1.197,1.848-1.197c1.187,0,1.564,0.746,1.564,1.67v2.939c0.305,0.021,0.619,0.073,0.871,0.136v0.567H48.266z"
			/>
		<path d="M54.313,13.794c0-0.294,0.021-0.756,0.084-1.061l-0.021-0.011c-0.294,0.704-0.935,1.166-1.753,1.166
			c-1.281,0-1.921-0.935-1.921-2.457c0-1.826,1.05-2.929,2.698-2.929c0.283,0,0.567,0.021,0.882,0.053v-1.68
			c-0.252-0.042-0.609-0.084-0.913-0.105V6.204c0.524-0.063,1.249-0.105,1.858-0.074v6.919c0.252,0.042,0.598,0.084,0.882,0.104
			v0.567C55.615,13.783,54.891,13.825,54.313,13.794z M54.282,9.363c-0.315-0.073-0.63-0.115-0.924-0.115
			c-0.997,0-1.659,0.599-1.659,2.1c0,1.123,0.368,1.764,1.155,1.764c0.945,0,1.428-1.103,1.428-2.016V9.363z"/>
	</g>
</g>
<g>
	<g>
		<path d="M132.269,82.714l-1.674,4.58h-0.773l-1.629-4.58c-0.143-0.007-0.33-0.045-0.458-0.082v-0.405h1.817v0.405
			c-0.18,0.037-0.398,0.075-0.601,0.09l0.938,2.763c0.105,0.293,0.232,0.684,0.338,1.051h0.007c0.09-0.345,0.218-0.713,0.345-1.104
			l0.976-2.71c-0.203-0.015-0.413-0.053-0.593-0.09v-0.405h1.757v0.405C132.599,82.669,132.403,82.707,132.269,82.714z"/>
		<path d="M134.156,87.361c-1.021,0-1.674-0.586-1.674-1.877c0-1.118,0.691-1.989,1.817-1.989c0.946,0,1.674,0.518,1.674,1.877
			C135.973,86.49,135.282,87.361,134.156,87.361z M134.238,84.058c-0.548,0-1.059,0.413-1.059,1.374c0,0.863,0.36,1.359,1.051,1.359
			c0.555,0,1.043-0.436,1.043-1.366C135.274,84.554,134.914,84.058,134.238,84.058z"/>
		<path d="M136.322,87.294v-0.405c0.188-0.045,0.413-0.083,0.63-0.098v-4.444c-0.18-0.03-0.428-0.061-0.646-0.075v-0.405
			c0.383-0.045,0.886-0.075,1.321-0.053v4.978c0.218,0.015,0.443,0.053,0.631,0.098v0.405H136.322z"/>
		<path d="M140.043,87.354c-0.766,0-0.999-0.315-0.999-1.118v-2.147h-0.766v-0.525h0.766v-1.209l0.676-0.188v1.396h1.043v0.525
			h-1.043v1.907c0,0.615,0.12,0.78,0.533,0.78c0.172,0,0.338-0.022,0.473-0.06l0.068,0.556
			C140.576,87.324,140.283,87.354,140.043,87.354z"/>
		<path d="M143.644,87.294c0-0.263,0.007-0.533,0.045-0.743h-0.015c-0.18,0.458-0.653,0.811-1.269,0.811
			c-0.615,0-1.036-0.383-1.036-0.983c0-0.804,0.833-1.276,2.237-1.276v-0.277c0-0.526-0.188-0.818-0.781-0.818
			c-0.225,0-0.488,0.037-0.698,0.104c-0.015,0.188-0.052,0.398-0.09,0.608h-0.42v-1.021c0.375-0.12,0.826-0.21,1.269-0.21
			c1.096,0,1.404,0.503,1.404,1.246v2.027c0.18,0.03,0.428,0.06,0.631,0.075v0.405C144.567,87.286,144.049,87.316,143.644,87.294z
			 M143.606,85.567c-1.171,0-1.576,0.292-1.576,0.705c0,0.323,0.225,0.556,0.57,0.556c0.601,0,1.006-0.593,1.006-1.179V85.567z"/>
		<path d="M146.913,89.216c-0.961,0-1.569-0.398-1.569-1.119c0-0.436,0.285-0.803,0.623-0.99c-0.225-0.098-0.368-0.309-0.368-0.556
			c0-0.263,0.165-0.511,0.413-0.631c-0.337-0.203-0.548-0.541-0.548-1.028c0-0.751,0.563-1.396,1.584-1.396
			c0.203,0,0.338,0.022,0.525,0.067h1.269v0.533h-0.616c0.188,0.15,0.3,0.397,0.3,0.69c0,0.766-0.518,1.352-1.577,1.352
			c-0.15,0-0.263-0.015-0.398-0.053c-0.157,0.075-0.24,0.195-0.24,0.315c0,0.21,0.188,0.277,0.638,0.293l0.683,0.022
			c0.804,0.03,1.254,0.405,1.254,1.081C148.888,88.585,148.084,89.216,146.913,89.216z M147.439,87.278l-0.721-0.029
			c-0.068,0-0.158,0-0.218-0.008c-0.293,0.203-0.48,0.45-0.48,0.735c0,0.443,0.42,0.706,1.006,0.706
			c0.758,0,1.179-0.346,1.179-0.804C148.205,87.519,147.964,87.294,147.439,87.278z M147.019,83.998
			c-0.563,0-0.886,0.36-0.886,0.833c0,0.519,0.308,0.818,0.864,0.818c0.533,0,0.863-0.3,0.863-0.818
			C147.859,84.321,147.559,83.998,147.019,83.998z"/>
		<path d="M152.547,85.417h-2.44c-0.03,0.976,0.368,1.396,1.179,1.396c0.36,0,0.736-0.075,1.066-0.218l0.098,0.533
			c-0.375,0.149-0.826,0.232-1.291,0.232c-1.134,0-1.75-0.601-1.75-1.914c0-1.111,0.624-1.952,1.682-1.952
			c1.043,0,1.479,0.698,1.479,1.531C152.569,85.116,152.562,85.267,152.547,85.417z M151.045,84.006
			c-0.488,0-0.833,0.36-0.916,0.931h1.75C151.894,84.366,151.571,84.006,151.045,84.006z"/>
	</g>
</g>
<line fill="none" stroke="#000000" stroke-width="0.375" x1="386.9" y1="93.294" x2="424.75" y2="93.294"/>
<line fill="none" stroke="#000000" stroke-width="0.375" x1="386.9" y1="120.294" x2="424.75" y2="120.294"/>
<line fill="none" stroke="#000000" stroke-width="0.375" x1="386.9" y1="106.794" x2="424.75" y2="106.794"/>
<path fill="none" stroke="#000000" stroke-width="0.75" stroke-linecap="round" d="M386.9,106.794c0,0,0.551-2.719,0.551-3.562
	s0.355-1.994,0.686-2.156c0.311-0.151,0.48,0.234,0.689,0.703c0.205,0.469,0.309,0.703,0.445,1.125
	c0.139,0.422,0.307,0.844,0.547,0.656c0.242-0.188,0.414-1.266,0.414-1.453s0.445-3.094,0.584-3.75
	c0.137-0.656,0.377-1.969,0.412-2.156s0.102-0.797,0.412-0.75c0.309,0.047,0.584,0.328,0.754,0.797
	c0.172,0.469,0.412,1.125,0.723,1.172c0.309,0.047,0.961,0.469,1.1,0.141c0.135-0.328,0.645-1.127,0.768-1.29
	c0.141-0.183,0.363-0.351,0.674-0.022c0.309,0.328,0.342,1.266,0.547,1.641c0.209,0.375,0.721,1.219,0.756,1.547
	c0.037,0.328,0.139,0.656,0.24,1.031c0.104,0.375,0.344,0.516,0.447,0.938c0.105,0.422,0.137,1.219,0.377,1.312
	s0.756,0.516,1.271-0.094s0.652,0.281,0.721,0.422c0.07,0.141,0.311,0.891,0.311,1.266s0.17,1.453,0.307,1.641
	c0.139,0.188,0.24,1.172,0.24,1.172s0.139,0.562,0.379,1.031s0.445,1.031,0.652,1.078c0.205,0.047,0.541,0.179,0.738,0.379
	c0.266,0.263,0.465,0.23,0.566,0.512s0.582,0.938,0.791,1.594c0.205,0.656,0.717,0.079,0.926,0.047
	c0.332-0.051,0.516,0.375,0.686,0.375c0.172,0,0.756,0,0.826-0.234c0.066-0.234,0.445-0.656,0.65-0.984
	c0.207-0.328,0.377-1.125,0.756-1.266c0.377-0.141,0.584-0.601,0.922-0.122c0.203,0.288,0.385,0.216,0.418,0.731
	c0,0,0.137,0.703,0.137,1.219c0,0.193,0.102,0.422,0.24,0.609c0.137,0.188,0.48-0.188,0.617,0.234
	c0.139,0.422,0.24,0.844,0.312,1.172c0.066,0.328,0.031,0.516,0.238,0.75c0.205,0.234,0.391,0.479,0.643,0.266
	c0.293-0.246,0.457-0.688,0.525-1.156s0.514-1.969,0.549-2.109c0.033-0.141,0.549-1.781,0.721-2.297
	c0.17-0.516,0.262-0.994,0.344-1.172c0.211-0.461,0.316-1.503,0.775-0.834c0.32,0.464,0.254,0.6,0.254,1.162
	s0.104,1.875,0.275,2.391s0.412,2.484,0.412,3.094s0.102,1.5,0.102,1.688s0.074,0.96,0.299,1.146
	c0.49,0.405,0.645-0.659,0.814-1.409c0.174-0.75,0.33-1.143,0.467-2.127s0.619-3.75,0.619-4.406s0.08-1.506,0.275-2.016
	c0.121-0.326,0.086-0.66,0.256-0.836c0.232-0.241,0.52-0.158,0.566,0.367c0.059,0.651,0.137,0.844,0.24,1.359
	c0.102,0.516,0.449,1.031,0.449,1.594s0,0.891,0.133,1.266c0.139,0.375,0.07,0.984,0.346,1.172c0.273,0.188,0.553-0.27,0.584-0.797
	c0.037-0.614,0.65-1.959,0.975-2.357c0.107-0.129,0.396-0.863,0.707-0.877c0.338-0.015,0.551,0.188,0.686,0.562
	c0.139,0.375,0.551,1.359,0.928,1.453c0.379,0.094,0.584-0.234,0.721-0.609c0.139-0.375,0.254-0.81,0.447-1.922"/>
<path fill="none" stroke="#000000" stroke-width="0.6419" stroke-linecap="round" d="M424.863,106.794"/>
<line fill="none" stroke="#000000" stroke-width="0.375" x1="302.303" y1="93.294" x2="340.152" y2="93.294"/>
<line fill="none" stroke="#000000" stroke-width="0.375" x1="302.303" y1="120.294" x2="340.152" y2="120.294"/>
<line fill="none" stroke="#000000" stroke-width="0.375" x1="302.303" y1="106.794" x2="340.152" y2="106.794"/>
<path fill="none" stroke="#000000" stroke-width="0.6419" stroke-linecap="round" d="M340.266,106.794"/>
<g>
	<g>
		<path d="M397.03,82.714l-1.674,4.58h-0.773l-1.629-4.58c-0.143-0.007-0.33-0.045-0.458-0.082v-0.405h1.816v0.405
			c-0.18,0.037-0.397,0.075-0.6,0.09l0.938,2.763c0.105,0.293,0.233,0.684,0.338,1.051h0.008c0.09-0.345,0.218-0.713,0.346-1.104
			l0.976-2.71c-0.202-0.015-0.413-0.053-0.593-0.09v-0.405h1.757v0.405C397.361,82.669,397.166,82.707,397.03,82.714z"/>
		<path d="M398.918,87.361c-1.021,0-1.674-0.586-1.674-1.877c0-1.118,0.69-1.989,1.817-1.989c0.945,0,1.674,0.518,1.674,1.877
			C400.735,86.49,400.045,87.361,398.918,87.361z M399.001,84.058c-0.548,0-1.059,0.413-1.059,1.374c0,0.863,0.36,1.359,1.051,1.359
			c0.556,0,1.044-0.436,1.044-1.366C400.037,84.554,399.677,84.058,399.001,84.058z"/>
		<path d="M401.083,87.294v-0.405c0.188-0.045,0.413-0.083,0.631-0.098v-4.444c-0.18-0.03-0.428-0.061-0.646-0.075v-0.405
			c0.383-0.045,0.886-0.075,1.321-0.053v4.978c0.218,0.015,0.443,0.053,0.631,0.098v0.405H401.083z"/>
		<path d="M404.806,87.354c-0.767,0-0.999-0.315-0.999-1.118v-2.147h-0.766v-0.525h0.766v-1.209l0.676-0.188v1.396h1.044v0.525
			h-1.044v1.907c0,0.615,0.12,0.78,0.533,0.78c0.173,0,0.338-0.022,0.473-0.06l0.067,0.556
			C405.338,87.324,405.046,87.354,404.806,87.354z"/>
		<path d="M408.406,87.294c0-0.263,0.007-0.533,0.045-0.743h-0.016c-0.18,0.458-0.652,0.811-1.269,0.811
			c-0.615,0-1.036-0.383-1.036-0.983c0-0.804,0.834-1.276,2.237-1.276v-0.277c0-0.526-0.188-0.818-0.78-0.818
			c-0.226,0-0.488,0.037-0.698,0.104c-0.016,0.188-0.053,0.398-0.091,0.608h-0.42v-1.021c0.375-0.12,0.826-0.21,1.269-0.21
			c1.097,0,1.404,0.503,1.404,1.246v2.027c0.18,0.03,0.428,0.06,0.63,0.075v0.405C409.329,87.286,408.812,87.316,408.406,87.294z
			 M408.368,85.567c-1.171,0-1.576,0.292-1.576,0.705c0,0.323,0.225,0.556,0.57,0.556c0.601,0,1.006-0.593,1.006-1.179V85.567z"/>
		<path d="M411.675,89.216c-0.961,0-1.569-0.398-1.569-1.119c0-0.436,0.286-0.803,0.624-0.99c-0.226-0.098-0.368-0.309-0.368-0.556
			c0-0.263,0.165-0.511,0.413-0.631c-0.338-0.203-0.548-0.541-0.548-1.028c0-0.751,0.562-1.396,1.584-1.396
			c0.202,0,0.338,0.022,0.525,0.067h1.269v0.533h-0.616c0.188,0.15,0.301,0.397,0.301,0.69c0,0.766-0.518,1.352-1.576,1.352
			c-0.15,0-0.263-0.015-0.398-0.053c-0.157,0.075-0.24,0.195-0.24,0.315c0,0.21,0.188,0.277,0.639,0.293l0.683,0.022
			c0.804,0.03,1.254,0.405,1.254,1.081C413.649,88.585,412.846,89.216,411.675,89.216z M412.2,87.278l-0.721-0.029
			c-0.067,0-0.157,0-0.218-0.008c-0.292,0.203-0.48,0.45-0.48,0.735c0,0.443,0.421,0.706,1.006,0.706
			c0.759,0,1.179-0.346,1.179-0.804C412.966,87.519,412.726,87.294,412.2,87.278z M411.78,83.998c-0.563,0-0.886,0.36-0.886,0.833
			c0,0.519,0.308,0.818,0.863,0.818c0.533,0,0.863-0.3,0.863-0.818C412.621,84.321,412.32,83.998,411.78,83.998z"/>
		<path d="M417.31,85.417h-2.44c-0.03,0.976,0.368,1.396,1.179,1.396c0.36,0,0.735-0.075,1.066-0.218l0.098,0.533
			c-0.376,0.149-0.826,0.232-1.292,0.232c-1.133,0-1.749-0.601-1.749-1.914c0-1.111,0.623-1.952,1.682-1.952
			c1.044,0,1.479,0.698,1.479,1.531C417.332,85.116,417.324,85.267,417.31,85.417z M415.808,84.006c-0.488,0-0.833,0.36-0.916,0.931
			h1.749C416.656,84.366,416.333,84.006,415.808,84.006z"/>
	</g>
</g>
<g>
	<g>
		<path d="M24.147,85.794v-0.405c0.18-0.038,0.391-0.075,0.585-0.091l-0.292-0.833h-2.117l-0.293,0.833
			c0.195,0.016,0.413,0.053,0.593,0.091v0.405h-1.757v-0.405c0.135-0.038,0.323-0.075,0.458-0.083l1.667-4.579h0.841l1.674,4.579
			c0.135,0.008,0.323,0.045,0.458,0.083v0.405H24.147z M23.622,82.123c-0.09-0.263-0.165-0.488-0.233-0.736h-0.015
			c-0.06,0.24-0.135,0.474-0.217,0.729l-0.653,1.802h1.764L23.622,82.123z"/>
		<path d="M26.222,85.794v-0.405c0.195-0.045,0.428-0.083,0.653-0.098v-2.695c-0.18-0.03-0.435-0.061-0.653-0.075v-0.405
			c0.375-0.045,0.893-0.075,1.329-0.053v3.229c0.218,0.015,0.443,0.053,0.631,0.098v0.405H26.222z M27.221,81.319
			c-0.248,0-0.451-0.188-0.451-0.436s0.203-0.442,0.451-0.442c0.24,0,0.443,0.194,0.443,0.442
			C27.664,81.124,27.461,81.319,27.221,81.319z"/>
		<path d="M31.1,82.663c-0.856-0.143-1.239,0.436-1.239,1.629v0.999c0.225,0.015,0.458,0.053,0.653,0.098v0.405h-1.982v-0.405
			c0.195-0.045,0.428-0.083,0.653-0.098v-2.695c-0.181-0.03-0.436-0.061-0.653-0.075v-0.405c0.375-0.045,0.894-0.075,1.306-0.053
			c0,0.232-0.022,0.578-0.075,0.886h0.008c0.165-0.518,0.541-1.036,1.359-0.953L31.1,82.663z"/>
		<path d="M34.969,84.052c-0.21,0-0.398-0.015-0.533-0.029v1.269c0.226,0.015,0.458,0.053,0.653,0.098v0.405H33.1v-0.405
			c0.195-0.045,0.428-0.083,0.653-0.098v-4.062c-0.225-0.016-0.458-0.053-0.653-0.098v-0.405h0.653c0.225,0,0.841-0.03,1.314-0.03
			c1.366,0,1.929,0.721,1.929,1.584C36.996,83.309,36.208,84.052,34.969,84.052z M34.991,81.26c-0.195,0-0.405,0-0.556,0.015v2.17
			c0.135,0.022,0.346,0.045,0.593,0.045c0.848,0,1.253-0.503,1.253-1.119C36.282,81.808,35.975,81.26,34.991,81.26z"/>
		<path d="M39.957,82.663c-0.856-0.143-1.239,0.436-1.239,1.629v0.999c0.226,0.015,0.458,0.053,0.653,0.098v0.405h-1.982v-0.405
			c0.195-0.045,0.428-0.083,0.653-0.098v-2.695c-0.18-0.03-0.435-0.061-0.653-0.075v-0.405c0.375-0.045,0.893-0.075,1.306-0.053
			c0,0.232-0.022,0.578-0.075,0.886h0.008c0.165-0.518,0.541-1.036,1.359-0.953L39.957,82.663z"/>
		<path d="M43.557,83.917h-2.44c-0.03,0.976,0.368,1.396,1.179,1.396c0.36,0,0.736-0.075,1.066-0.218l0.098,0.533
			c-0.375,0.149-0.826,0.232-1.291,0.232c-1.134,0-1.75-0.601-1.75-1.914c0-1.111,0.623-1.952,1.682-1.952
			c1.044,0,1.479,0.698,1.479,1.531C43.58,83.616,43.572,83.767,43.557,83.917z M42.056,82.506c-0.488,0-0.833,0.36-0.916,0.931
			h1.75C42.904,82.866,42.581,82.506,42.056,82.506z"/>
		<path d="M45.235,85.861c-0.293,0-0.631-0.03-0.878-0.098v-1.059h0.413c0.038,0.181,0.068,0.398,0.09,0.593
			c0.127,0.03,0.292,0.038,0.443,0.038c0.503,0,0.848-0.226,0.848-0.586c0-0.825-1.876-0.338-1.876-1.637
			c0-0.638,0.525-1.118,1.501-1.118c0.263,0,0.578,0.037,0.863,0.105v1.021h-0.413c-0.045-0.188-0.075-0.397-0.09-0.586
			c-0.128-0.029-0.278-0.045-0.42-0.045c-0.503,0-0.758,0.211-0.758,0.548c0,0.841,1.869,0.376,1.869,1.614
			C46.827,85.328,46.226,85.861,45.235,85.861z"/>
		<path d="M48.505,85.861c-0.293,0-0.631-0.03-0.878-0.098v-1.059h0.413c0.038,0.181,0.068,0.398,0.09,0.593
			c0.127,0.03,0.293,0.038,0.443,0.038c0.503,0,0.848-0.226,0.848-0.586c0-0.825-1.876-0.338-1.876-1.637
			c0-0.638,0.525-1.118,1.501-1.118c0.263,0,0.578,0.037,0.863,0.105v1.021h-0.413c-0.045-0.188-0.075-0.397-0.09-0.586
			c-0.128-0.029-0.278-0.045-0.42-0.045c-0.503,0-0.758,0.211-0.758,0.548c0,0.841,1.869,0.376,1.869,1.614
			C50.097,85.328,49.496,85.861,48.505,85.861z"/>
		<path d="M53.622,85.794c0-0.226,0.015-0.556,0.053-0.788H53.66c-0.218,0.51-0.676,0.855-1.314,0.855
			c-0.856,0-1.119-0.533-1.119-1.193v-2.072c-0.18-0.03-0.428-0.061-0.63-0.075v-0.405c0.353-0.045,0.863-0.075,1.299-0.053v2.402
			c0,0.525,0.15,0.841,0.638,0.841c0.616,0,1.066-0.631,1.066-1.456v-1.262c-0.173-0.022-0.405-0.053-0.608-0.067v-0.405
			c0.368-0.045,0.863-0.075,1.276-0.053v3.198c0.18,0.03,0.428,0.06,0.631,0.075v0.405C54.545,85.786,54.027,85.816,53.622,85.794z"
			/>
		<path d="M57.814,82.663c-0.856-0.143-1.239,0.436-1.239,1.629v0.999c0.226,0.015,0.458,0.053,0.653,0.098v0.405h-1.982v-0.405
			c0.195-0.045,0.428-0.083,0.653-0.098v-2.695c-0.18-0.03-0.435-0.061-0.653-0.075v-0.405c0.375-0.045,0.893-0.075,1.306-0.053
			c0,0.232-0.022,0.578-0.075,0.886h0.008c0.165-0.518,0.541-1.036,1.359-0.953L57.814,82.663z"/>
		<path d="M61.415,83.917h-2.44c-0.03,0.976,0.368,1.396,1.179,1.396c0.36,0,0.736-0.075,1.066-0.218l0.098,0.533
			c-0.375,0.149-0.826,0.232-1.291,0.232c-1.134,0-1.75-0.601-1.75-1.914c0-1.111,0.623-1.952,1.682-1.952
			c1.044,0,1.479,0.698,1.479,1.531C61.437,83.616,61.43,83.767,61.415,83.917z M59.913,82.506c-0.488,0-0.833,0.36-0.916,0.931
			h1.75C60.762,82.866,60.438,82.506,59.913,82.506z"/>
	</g>
</g>
<g>
	<g>
		<path d="M488.975,13.889c-0.546,0-1.071-0.063-1.512-0.179v-1.68h0.692c0.063,0.347,0.105,0.672,0.137,0.944
			c0.231,0.053,0.504,0.095,0.776,0.095c0.84,0,1.522-0.336,1.522-1.218c0-1.596-3.233-0.955-3.233-3.233
			c0-1.165,0.924-2.005,2.51-2.005c0.493,0,0.902,0.053,1.364,0.137v1.627h-0.692c-0.063-0.325-0.105-0.661-0.127-0.924
			c-0.157-0.031-0.398-0.063-0.619-0.063c-0.934,0-1.428,0.452-1.428,1.113c0,1.554,3.233,0.977,3.233,3.202
			C491.599,12.975,490.602,13.889,488.975,13.889z"/>
		<path d="M494.896,13.889c-1.428,0-2.341-0.819-2.341-2.625c0-1.564,0.966-2.782,2.54-2.782c1.323,0,2.342,0.725,2.342,2.625
			C497.438,12.671,496.471,13.889,494.896,13.889z M495.012,9.27c-0.766,0-1.48,0.577-1.48,1.921c0,1.207,0.504,1.9,1.471,1.9
			c0.776,0,1.459-0.609,1.459-1.911C496.461,9.962,495.957,9.27,495.012,9.27z"/>
		<path d="M502.288,13.794c0-0.315,0.021-0.777,0.073-1.103h-0.021c-0.304,0.714-0.944,1.197-1.837,1.197
			c-1.196,0-1.563-0.746-1.563-1.67V9.321c-0.252-0.042-0.599-0.084-0.883-0.104V8.649c0.494-0.062,1.208-0.104,1.816-0.073v3.359
			c0,0.735,0.21,1.176,0.893,1.176c0.861,0,1.49-0.882,1.49-2.036V9.312c-0.241-0.032-0.566-0.074-0.85-0.095V8.649
			c0.514-0.062,1.207-0.104,1.784-0.073v4.473c0.252,0.042,0.599,0.084,0.882,0.104v0.567
			C503.579,13.783,502.854,13.825,502.288,13.794z"/>
		<path d="M508.798,13.794v-3.359c0-0.735-0.199-1.176-0.882-1.176c-0.861,0-1.49,0.882-1.49,2.036v1.796
			c0.283,0.021,0.588,0.062,0.84,0.136v0.567h-2.698v-0.567c0.272-0.062,0.599-0.115,0.913-0.136v-3.77
			c-0.252-0.042-0.609-0.084-0.913-0.104V8.649c0.524-0.062,1.249-0.104,1.826-0.073c0,0.305-0.021,0.787-0.073,1.103h0.011
			c0.304-0.714,0.955-1.197,1.848-1.197c1.187,0,1.563,0.746,1.563,1.67v2.939c0.305,0.021,0.62,0.073,0.872,0.136v0.567H508.798z"
			/>
		<path d="M514.846,13.794c0-0.294,0.021-0.756,0.084-1.061l-0.021-0.011c-0.294,0.704-0.934,1.166-1.753,1.166
			c-1.28,0-1.921-0.935-1.921-2.457c0-1.826,1.05-2.929,2.697-2.929c0.284,0,0.567,0.021,0.883,0.053v-1.68
			c-0.252-0.042-0.609-0.084-0.914-0.105V6.204c0.525-0.063,1.25-0.105,1.858-0.074v6.919c0.252,0.042,0.599,0.084,0.882,0.104
			v0.567C516.147,13.783,515.423,13.825,514.846,13.794z M514.814,9.363c-0.315-0.073-0.631-0.115-0.924-0.115
			c-0.998,0-1.659,0.599-1.659,2.1c0,1.123,0.367,1.764,1.155,1.764c0.944,0,1.428-1.103,1.428-2.016V9.363z"/>
	</g>
</g>
<g>
	<g>
		<path d="M484.947,85.794v-0.405c0.18-0.038,0.39-0.075,0.585-0.091l-0.293-0.833h-2.116l-0.293,0.833
			c0.195,0.016,0.412,0.053,0.593,0.091v0.405h-1.757v-0.405c0.135-0.038,0.323-0.075,0.458-0.083l1.667-4.579h0.841l1.674,4.579
			c0.135,0.008,0.323,0.045,0.458,0.083v0.405H484.947z M484.421,82.123c-0.09-0.263-0.165-0.488-0.232-0.736h-0.015
			c-0.061,0.24-0.136,0.474-0.218,0.729l-0.653,1.802h1.765L484.421,82.123z"/>
		<path d="M487.021,85.794v-0.405c0.195-0.045,0.428-0.083,0.653-0.098v-2.695c-0.181-0.03-0.436-0.061-0.653-0.075v-0.405
			c0.375-0.045,0.894-0.075,1.329-0.053v3.229c0.218,0.015,0.442,0.053,0.63,0.098v0.405H487.021z M488.02,81.319
			c-0.247,0-0.45-0.188-0.45-0.436s0.203-0.442,0.45-0.442c0.24,0,0.443,0.194,0.443,0.442
			C488.463,81.124,488.26,81.319,488.02,81.319z"/>
		<path d="M491.898,82.663c-0.855-0.143-1.238,0.436-1.238,1.629v0.999c0.225,0.015,0.458,0.053,0.652,0.098v0.405h-1.981v-0.405
			c0.195-0.045,0.428-0.083,0.653-0.098v-2.695c-0.181-0.03-0.436-0.061-0.653-0.075v-0.405c0.375-0.045,0.894-0.075,1.307-0.053
			c0,0.232-0.022,0.578-0.075,0.886h0.007c0.165-0.518,0.541-1.036,1.359-0.953L491.898,82.663z"/>
		<path d="M495.768,84.052c-0.21,0-0.397-0.015-0.532-0.029v1.269c0.225,0.015,0.458,0.053,0.652,0.098v0.405h-1.989v-0.405
			c0.195-0.045,0.428-0.083,0.653-0.098v-4.062c-0.226-0.016-0.458-0.053-0.653-0.098v-0.405h0.653c0.226,0,0.841-0.03,1.313-0.03
			c1.367,0,1.93,0.721,1.93,1.584C497.795,83.309,497.007,84.052,495.768,84.052z M495.791,81.26c-0.195,0-0.406,0-0.556,0.015v2.17
			c0.135,0.022,0.345,0.045,0.593,0.045c0.849,0,1.254-0.503,1.254-1.119C497.082,81.808,496.774,81.26,495.791,81.26z"/>
		<path d="M500.756,82.663c-0.855-0.143-1.238,0.436-1.238,1.629v0.999c0.225,0.015,0.458,0.053,0.652,0.098v0.405h-1.981v-0.405
			c0.195-0.045,0.428-0.083,0.653-0.098v-2.695c-0.181-0.03-0.436-0.061-0.653-0.075v-0.405c0.375-0.045,0.894-0.075,1.307-0.053
			c0,0.232-0.022,0.578-0.075,0.886h0.007c0.165-0.518,0.541-1.036,1.359-0.953L500.756,82.663z"/>
		<path d="M504.357,83.917h-2.44c-0.03,0.976,0.368,1.396,1.179,1.396c0.36,0,0.735-0.075,1.066-0.218l0.098,0.533
			c-0.376,0.149-0.826,0.232-1.292,0.232c-1.133,0-1.749-0.601-1.749-1.914c0-1.111,0.623-1.952,1.682-1.952
			c1.044,0,1.479,0.698,1.479,1.531C504.38,83.616,504.372,83.767,504.357,83.917z M502.855,82.506c-0.488,0-0.833,0.36-0.916,0.931
			h1.749C503.704,82.866,503.381,82.506,502.855,82.506z"/>
		<path d="M506.034,85.861c-0.292,0-0.63-0.03-0.878-0.098v-1.059h0.413c0.037,0.181,0.067,0.398,0.09,0.593
			c0.128,0.03,0.293,0.038,0.442,0.038c0.504,0,0.849-0.226,0.849-0.586c0-0.825-1.877-0.338-1.877-1.637
			c0-0.638,0.525-1.118,1.502-1.118c0.263,0,0.578,0.037,0.863,0.105v1.021h-0.413c-0.045-0.188-0.075-0.397-0.09-0.586
			c-0.128-0.029-0.278-0.045-0.421-0.045c-0.503,0-0.758,0.211-0.758,0.548c0,0.841,1.869,0.376,1.869,1.614
			C507.626,85.328,507.025,85.861,506.034,85.861z"/>
		<path d="M509.305,85.861c-0.293,0-0.63-0.03-0.878-0.098v-1.059h0.413c0.037,0.181,0.067,0.398,0.09,0.593
			c0.128,0.03,0.293,0.038,0.443,0.038c0.503,0,0.848-0.226,0.848-0.586c0-0.825-1.877-0.338-1.877-1.637
			c0-0.638,0.525-1.118,1.502-1.118c0.263,0,0.578,0.037,0.863,0.105v1.021h-0.413c-0.045-0.188-0.075-0.397-0.09-0.586
			c-0.128-0.029-0.278-0.045-0.421-0.045c-0.503,0-0.758,0.211-0.758,0.548c0,0.841,1.869,0.376,1.869,1.614
			C510.896,85.328,510.296,85.861,509.305,85.861z"/>
		<path d="M514.421,85.794c0-0.226,0.016-0.556,0.053-0.788h-0.015c-0.218,0.51-0.676,0.855-1.313,0.855
			c-0.856,0-1.119-0.533-1.119-1.193v-2.072c-0.18-0.03-0.428-0.061-0.631-0.075v-0.405c0.354-0.045,0.863-0.075,1.299-0.053v2.402
			c0,0.525,0.15,0.841,0.639,0.841c0.615,0,1.065-0.631,1.065-1.456v-1.262c-0.172-0.022-0.405-0.053-0.607-0.067v-0.405
			c0.367-0.045,0.863-0.075,1.276-0.053v3.198c0.18,0.03,0.428,0.06,0.63,0.075v0.405C515.345,85.786,514.827,85.816,514.421,85.794
			z"/>
		<path d="M518.613,82.663c-0.855-0.143-1.238,0.436-1.238,1.629v0.999c0.225,0.015,0.458,0.053,0.652,0.098v0.405h-1.981v-0.405
			c0.195-0.045,0.428-0.083,0.653-0.098v-2.695c-0.181-0.03-0.436-0.061-0.653-0.075v-0.405c0.375-0.045,0.894-0.075,1.307-0.053
			c0,0.232-0.022,0.578-0.075,0.886h0.007c0.165-0.518,0.541-1.036,1.359-0.953L518.613,82.663z"/>
		<path d="M522.215,83.917h-2.44c-0.03,0.976,0.368,1.396,1.179,1.396c0.36,0,0.735-0.075,1.066-0.218l0.098,0.533
			c-0.376,0.149-0.826,0.232-1.292,0.232c-1.133,0-1.749-0.601-1.749-1.914c0-1.111,0.623-1.952,1.682-1.952
			c1.044,0,1.479,0.698,1.479,1.531C522.237,83.616,522.229,83.767,522.215,83.917z M520.713,82.506
			c-0.488,0-0.833,0.36-0.916,0.931h1.749C521.562,82.866,521.238,82.506,520.713,82.506z"/>
	</g>
</g>
<line fill="none" stroke="#000000" stroke-width="0.375" x1="206.694" y1="93.294" x2="244.541" y2="93.294"/>
<line fill="none" stroke="#000000" stroke-width="0.375" x1="206.694" y1="120.294" x2="244.541" y2="120.294"/>
<line fill="none" stroke="#000000" stroke-width="0.375" x1="206.855" y1="106.794" x2="244.702" y2="106.794"/>
<path fill="none" stroke="#000000" stroke-width="0.6419" stroke-linecap="round" d="M244.655,106.794"/>
<g>
	<g>
		<path d="M214.837,82.736v4.558h-0.931l-1.952-3.184c-0.226-0.367-0.428-0.75-0.586-1.11c0.053,0.87,0.061,2.191,0.061,3.783
			c0.203,0.015,0.42,0.053,0.601,0.105v0.405h-1.922v-0.405c0.195-0.045,0.428-0.091,0.653-0.105v-4.054
			c-0.225-0.016-0.458-0.053-0.653-0.098v-0.405h1.591l1.929,3.152c0.218,0.36,0.42,0.751,0.601,1.111
			c-0.052-0.878-0.06-2.177-0.06-3.754c-0.203-0.015-0.413-0.052-0.585-0.104v-0.405h1.772v0.405
			C215.197,82.677,215.017,82.714,214.837,82.736z"/>
		<path d="M218.72,87.294c0-0.226,0.015-0.556,0.052-0.788h-0.015c-0.218,0.51-0.676,0.855-1.314,0.855
			c-0.856,0-1.119-0.533-1.119-1.193v-2.072c-0.18-0.03-0.428-0.061-0.63-0.075v-0.405c0.353-0.045,0.863-0.075,1.299-0.053v2.402
			c0,0.525,0.15,0.841,0.638,0.841c0.615,0,1.066-0.631,1.066-1.456v-1.262c-0.173-0.022-0.406-0.053-0.608-0.067v-0.405
			c0.368-0.045,0.864-0.075,1.276-0.053v3.198c0.18,0.03,0.428,0.06,0.631,0.075v0.405C219.644,87.286,219.125,87.316,218.72,87.294
			z"/>
		<path d="M225.645,87.294v-2.396c0-0.51-0.12-0.848-0.601-0.848c-0.533,0-1.051,0.562-1.051,1.472v1.269
			c0.21,0.015,0.42,0.045,0.608,0.098v0.405h-1.276v-2.396c0-0.473-0.098-0.848-0.608-0.848c-0.563,0-1.043,0.615-1.043,1.472v1.269
			c0.203,0.015,0.42,0.045,0.601,0.098v0.405h-1.929v-0.405c0.195-0.045,0.428-0.083,0.653-0.098v-2.695
			c-0.181-0.03-0.436-0.061-0.653-0.075v-0.405c0.375-0.045,0.901-0.075,1.313-0.053c0,0.218-0.022,0.563-0.06,0.788l0.015,0.008
			c0.21-0.525,0.691-0.863,1.292-0.863c0.788,0,0.999,0.54,1.036,0.849c0.15-0.354,0.556-0.849,1.276-0.849
			c0.706,0,1.104,0.375,1.104,1.224v2.072c0.226,0.015,0.443,0.053,0.631,0.098v0.405H225.645z"/>
		<path d="M229.016,87.347c-0.51,0-0.886-0.046-1.276-0.15v-4.85c-0.18-0.03-0.428-0.061-0.646-0.075v-0.405
			c0.375-0.045,0.886-0.075,1.321-0.053v1.81c0,0.218-0.022,0.51-0.067,0.698l0.015,0.007c0.203-0.525,0.668-0.833,1.231-0.833
			c0.878,0,1.374,0.615,1.374,1.757C230.968,86.558,230.225,87.347,229.016,87.347z M229.437,84.051
			c-0.676,0-1.021,0.788-1.021,1.434v1.239c0.188,0.06,0.398,0.09,0.661,0.09c0.706,0,1.186-0.428,1.186-1.502
			C230.262,84.509,230,84.051,229.437,84.051z"/>
		<path d="M234.732,85.417h-2.44c-0.03,0.976,0.368,1.396,1.179,1.396c0.36,0,0.736-0.075,1.066-0.218l0.098,0.533
			c-0.375,0.149-0.826,0.232-1.291,0.232c-1.134,0-1.75-0.601-1.75-1.914c0-1.111,0.624-1.952,1.682-1.952
			c1.043,0,1.479,0.698,1.479,1.531C234.755,85.116,234.748,85.267,234.732,85.417z M233.231,84.006
			c-0.488,0-0.833,0.36-0.916,0.931h1.75C234.079,84.366,233.756,84.006,233.231,84.006z"/>
		<path d="M237.882,84.163c-0.856-0.143-1.239,0.436-1.239,1.629v0.999c0.225,0.015,0.458,0.053,0.653,0.098v0.405h-1.982v-0.405
			c0.195-0.045,0.428-0.083,0.653-0.098v-2.695c-0.181-0.03-0.436-0.061-0.653-0.075v-0.405c0.375-0.045,0.894-0.075,1.306-0.053
			c0,0.232-0.022,0.578-0.075,0.886h0.008c0.165-0.518,0.541-1.036,1.359-0.953L237.882,84.163z"/>
		<path d="M239.351,87.361c-0.293,0-0.631-0.03-0.878-0.098v-1.059h0.413c0.038,0.181,0.068,0.398,0.09,0.593
			c0.127,0.03,0.292,0.038,0.443,0.038c0.503,0,0.848-0.226,0.848-0.586c0-0.825-1.876-0.338-1.876-1.637
			c0-0.638,0.525-1.118,1.501-1.118c0.263,0,0.578,0.037,0.863,0.105v1.021h-0.413c-0.045-0.188-0.075-0.397-0.09-0.586
			c-0.128-0.029-0.278-0.045-0.42-0.045c-0.503,0-0.758,0.211-0.758,0.548c0,0.841,1.869,0.376,1.869,1.614
			C240.942,86.828,240.341,87.361,239.351,87.361z"/>
	</g>
</g>
<g>
	<g>
		<path d="M308.969,82.736v4.558h-0.931l-1.952-3.184c-0.225-0.367-0.428-0.75-0.585-1.11c0.053,0.87,0.06,2.191,0.06,3.783
			c0.203,0.015,0.421,0.053,0.601,0.105v0.405h-1.922v-0.405c0.195-0.045,0.428-0.091,0.653-0.105v-4.054
			c-0.226-0.016-0.458-0.053-0.653-0.098v-0.405h1.592l1.93,3.152c0.218,0.36,0.42,0.751,0.601,1.111
			c-0.053-0.878-0.061-2.177-0.061-3.754c-0.202-0.015-0.413-0.052-0.585-0.104v-0.405h1.771v0.405
			C309.329,82.677,309.149,82.714,308.969,82.736z"/>
		<path d="M312.852,87.294c0-0.226,0.016-0.556,0.053-0.788h-0.015c-0.218,0.51-0.676,0.855-1.313,0.855
			c-0.856,0-1.119-0.533-1.119-1.193v-2.072c-0.18-0.03-0.428-0.061-0.631-0.075v-0.405c0.354-0.045,0.863-0.075,1.299-0.053v2.402
			c0,0.525,0.15,0.841,0.639,0.841c0.615,0,1.065-0.631,1.065-1.456v-1.262c-0.172-0.022-0.405-0.053-0.607-0.067v-0.405
			c0.367-0.045,0.863-0.075,1.276-0.053v3.198c0.18,0.03,0.428,0.06,0.63,0.075v0.405C313.775,87.286,313.258,87.316,312.852,87.294
			z"/>
		<path d="M319.776,87.294v-2.396c0-0.51-0.12-0.848-0.601-0.848c-0.533,0-1.051,0.562-1.051,1.472v1.269
			c0.21,0.015,0.421,0.045,0.608,0.098v0.405h-1.276v-2.396c0-0.473-0.098-0.848-0.608-0.848c-0.562,0-1.043,0.615-1.043,1.472
			v1.269c0.202,0.015,0.42,0.045,0.601,0.098v0.405h-1.93v-0.405c0.195-0.045,0.428-0.083,0.653-0.098v-2.695
			c-0.181-0.03-0.436-0.061-0.653-0.075v-0.405c0.375-0.045,0.9-0.075,1.313-0.053c0,0.218-0.022,0.563-0.06,0.788l0.015,0.008
			c0.21-0.525,0.69-0.863,1.291-0.863c0.789,0,0.999,0.54,1.036,0.849c0.15-0.354,0.556-0.849,1.276-0.849
			c0.706,0,1.104,0.375,1.104,1.224v2.072c0.226,0.015,0.443,0.053,0.631,0.098v0.405H319.776z"/>
		<path d="M323.148,87.347c-0.511,0-0.886-0.046-1.276-0.15v-4.85c-0.18-0.03-0.428-0.061-0.646-0.075v-0.405
			c0.375-0.045,0.886-0.075,1.321-0.053v1.81c0,0.218-0.022,0.51-0.067,0.698l0.015,0.007c0.203-0.525,0.668-0.833,1.231-0.833
			c0.878,0,1.374,0.615,1.374,1.757C325.101,86.558,324.357,87.347,323.148,87.347z M323.568,84.051
			c-0.675,0-1.021,0.788-1.021,1.434v1.239c0.188,0.06,0.397,0.09,0.661,0.09c0.705,0,1.186-0.428,1.186-1.502
			C324.395,84.509,324.132,84.051,323.568,84.051z"/>
		<path d="M328.865,85.417h-2.44c-0.03,0.976,0.368,1.396,1.179,1.396c0.36,0,0.735-0.075,1.066-0.218l0.098,0.533
			c-0.376,0.149-0.826,0.232-1.292,0.232c-1.133,0-1.749-0.601-1.749-1.914c0-1.111,0.623-1.952,1.682-1.952
			c1.044,0,1.479,0.698,1.479,1.531C328.888,85.116,328.88,85.267,328.865,85.417z M327.363,84.006c-0.488,0-0.833,0.36-0.916,0.931
			h1.749C328.212,84.366,327.889,84.006,327.363,84.006z"/>
		<path d="M332.014,84.163c-0.855-0.143-1.238,0.436-1.238,1.629v0.999c0.225,0.015,0.458,0.053,0.652,0.098v0.405h-1.981v-0.405
			c0.195-0.045,0.428-0.083,0.653-0.098v-2.695c-0.181-0.03-0.436-0.061-0.653-0.075v-0.405c0.375-0.045,0.894-0.075,1.307-0.053
			c0,0.232-0.022,0.578-0.075,0.886h0.007c0.165-0.518,0.541-1.036,1.359-0.953L332.014,84.163z"/>
		<path d="M333.482,87.361c-0.293,0-0.63-0.03-0.878-0.098v-1.059h0.413c0.037,0.181,0.067,0.398,0.09,0.593
			c0.128,0.03,0.293,0.038,0.443,0.038c0.503,0,0.848-0.226,0.848-0.586c0-0.825-1.877-0.338-1.877-1.637
			c0-0.638,0.525-1.118,1.502-1.118c0.263,0,0.578,0.037,0.863,0.105v1.021h-0.413c-0.045-0.188-0.075-0.397-0.09-0.586
			c-0.128-0.029-0.278-0.045-0.421-0.045c-0.503,0-0.758,0.211-0.758,0.548c0,0.841,1.869,0.376,1.869,1.614
			C335.074,86.828,334.474,87.361,333.482,87.361z"/>
	</g>
</g>
<g>
	<g>
		<path d="M153.021,13.794v-0.567c0.252-0.052,0.546-0.104,0.818-0.126l-0.409-1.165h-2.96l-0.41,1.165
			c0.273,0.021,0.578,0.074,0.83,0.126v0.567h-2.457v-0.567c0.189-0.052,0.451-0.104,0.641-0.115l2.33-6.403h1.176l2.341,6.403
			c0.189,0.011,0.452,0.063,0.64,0.115v0.567H153.021z M152.286,8.66c-0.126-0.367-0.23-0.683-0.325-1.028h-0.021
			c-0.084,0.336-0.189,0.661-0.304,1.018l-0.914,2.52h2.467L152.286,8.66z"/>
		<path d="M160.161,13.794v-3.359c0-0.735-0.199-1.176-0.882-1.176c-0.861,0-1.491,0.882-1.491,2.036v1.796
			c0.284,0.021,0.588,0.062,0.84,0.136v0.567h-2.698v-0.567c0.272-0.062,0.598-0.115,0.913-0.136v-3.77
			c-0.252-0.042-0.609-0.084-0.913-0.104V8.649c0.524-0.062,1.249-0.104,1.826-0.073c0,0.305-0.021,0.787-0.073,1.103h0.011
			c0.304-0.714,0.955-1.197,1.848-1.197c1.186,0,1.564,0.746,1.564,1.67v2.939c0.304,0.021,0.62,0.073,0.872,0.136v0.567H160.161z"
			/>
		<path d="M165.747,13.794c0-0.367,0.011-0.745,0.063-1.039h-0.021c-0.252,0.64-0.913,1.134-1.774,1.134s-1.449-0.536-1.449-1.376
			c0-1.123,1.165-1.784,3.128-1.784V10.34c0-0.734-0.262-1.145-1.092-1.145c-0.315,0-0.682,0.053-0.976,0.147
			c-0.021,0.263-0.074,0.557-0.126,0.851h-0.588V8.766c0.524-0.168,1.154-0.294,1.774-0.294c1.533,0,1.963,0.703,1.963,1.742v2.835
			c0.252,0.042,0.598,0.084,0.882,0.104v0.567C167.039,13.783,166.314,13.825,165.747,13.794z M165.695,11.379
			c-1.638,0-2.205,0.41-2.205,0.987c0,0.451,0.315,0.776,0.798,0.776c0.84,0,1.407-0.829,1.407-1.647V11.379z"/>
		<path d="M167.9,13.794v-0.567c0.263-0.062,0.577-0.115,0.882-0.136V6.876c-0.252-0.042-0.599-0.084-0.903-0.105V6.204
			c0.536-0.063,1.239-0.105,1.848-0.074v6.961c0.304,0.021,0.62,0.073,0.882,0.136v0.567H167.9z"/>
		<path d="M173.497,13.889c-1.428,0-2.341-0.819-2.341-2.625c0-1.564,0.966-2.782,2.541-2.782c1.322,0,2.341,0.725,2.341,2.625
			C176.037,12.671,175.071,13.889,173.497,13.889z M173.612,9.27c-0.767,0-1.48,0.577-1.48,1.921c0,1.207,0.504,1.9,1.47,1.9
			c0.777,0,1.459-0.609,1.459-1.911C175.061,9.962,174.557,9.27,173.612,9.27z"/>
		<path d="M179.082,16.481c-1.344,0-2.194-0.557-2.194-1.564c0-0.608,0.399-1.123,0.872-1.386c-0.315-0.137-0.515-0.431-0.515-0.776
			c0-0.368,0.231-0.714,0.577-0.882c-0.472-0.284-0.766-0.756-0.766-1.438c0-1.05,0.788-1.953,2.215-1.953
			c0.283,0,0.472,0.032,0.734,0.095h1.774v0.745h-0.861c0.262,0.21,0.42,0.557,0.42,0.966c0,1.071-0.724,1.89-2.205,1.89
			c-0.21,0-0.367-0.021-0.557-0.073c-0.22,0.105-0.336,0.273-0.336,0.441c0,0.294,0.263,0.388,0.893,0.409l0.955,0.031
			c1.124,0.042,1.753,0.567,1.753,1.512C181.843,15.6,180.72,16.481,179.082,16.481z M179.817,13.772l-1.008-0.042
			c-0.095,0-0.221,0-0.305-0.01c-0.409,0.283-0.672,0.63-0.672,1.028c0,0.619,0.588,0.987,1.407,0.987
			c1.06,0,1.648-0.483,1.648-1.124C180.888,14.108,180.552,13.794,179.817,13.772z M179.229,9.186c-0.788,0-1.239,0.504-1.239,1.165
			c0,0.725,0.431,1.145,1.208,1.145c0.746,0,1.208-0.42,1.208-1.145C180.405,9.637,179.985,9.186,179.229,9.186z"/>
		<path d="M182.643,11.169v-0.776h2.478v0.776H182.643z"/>
		<path d="M188.112,13.878c-1.071,0-1.396-0.441-1.396-1.564V9.312h-1.07V8.576h1.07v-1.69l0.945-0.262v1.952h1.459v0.735h-1.459
			v2.666c0,0.861,0.168,1.092,0.745,1.092c0.241,0,0.473-0.031,0.661-0.084l0.095,0.777
			C188.857,13.836,188.448,13.878,188.112,13.878z"/>
		<path d="M192.28,13.889c-1.428,0-2.341-0.819-2.341-2.625c0-1.564,0.966-2.782,2.54-2.782c1.323,0,2.341,0.725,2.341,2.625
			C194.821,12.671,193.855,13.889,192.28,13.889z M192.396,9.27c-0.766,0-1.48,0.577-1.48,1.921c0,1.207,0.504,1.9,1.47,1.9
			c0.777,0,1.459-0.609,1.459-1.911C193.845,9.962,193.341,9.27,192.396,9.27z"/>
		<path d="M195.746,11.169v-0.776h2.478v0.776H195.746z"/>
		<path d="M202.759,13.794c0-0.294,0.021-0.756,0.084-1.061l-0.021-0.011c-0.294,0.704-0.935,1.166-1.753,1.166
			c-1.281,0-1.921-0.935-1.921-2.457c0-1.826,1.05-2.929,2.698-2.929c0.283,0,0.567,0.021,0.882,0.053v-1.68
			c-0.252-0.042-0.609-0.084-0.913-0.105V6.204c0.524-0.063,1.249-0.105,1.858-0.074v6.919c0.252,0.042,0.598,0.084,0.882,0.104
			v0.567C204.061,13.783,203.336,13.825,202.759,13.794z M202.728,9.363c-0.315-0.073-0.63-0.115-0.924-0.115
			c-0.997,0-1.659,0.599-1.659,2.1c0,1.123,0.368,1.764,1.155,1.764c0.945,0,1.428-1.103,1.428-2.016V9.363z"/>
		<path d="M205.06,13.794v-0.567c0.272-0.062,0.598-0.115,0.913-0.136v-3.77c-0.252-0.042-0.609-0.084-0.913-0.104V8.649
			c0.524-0.062,1.249-0.104,1.858-0.073v4.515c0.304,0.021,0.62,0.073,0.882,0.136v0.567H205.06z M206.456,7.537
			c-0.346,0-0.63-0.263-0.63-0.609c0-0.346,0.284-0.619,0.63-0.619c0.336,0,0.62,0.273,0.62,0.619
			C207.075,7.264,206.792,7.537,206.456,7.537z"/>
		<path d="M210.603,16.481c-1.344,0-2.194-0.557-2.194-1.564c0-0.608,0.399-1.123,0.872-1.386c-0.315-0.137-0.515-0.431-0.515-0.776
			c0-0.368,0.231-0.714,0.577-0.882c-0.472-0.284-0.766-0.756-0.766-1.438c0-1.05,0.788-1.953,2.215-1.953
			c0.283,0,0.472,0.032,0.734,0.095h1.774v0.745h-0.861c0.262,0.21,0.42,0.557,0.42,0.966c0,1.071-0.724,1.89-2.205,1.89
			c-0.21,0-0.367-0.021-0.557-0.073c-0.22,0.105-0.336,0.273-0.336,0.441c0,0.294,0.263,0.388,0.893,0.409l0.955,0.031
			c1.124,0.042,1.753,0.567,1.753,1.512C213.364,15.6,212.24,16.481,210.603,16.481z M211.338,13.772l-1.008-0.042
			c-0.095,0-0.221,0-0.305-0.01c-0.409,0.283-0.672,0.63-0.672,1.028c0,0.619,0.588,0.987,1.407,0.987
			c1.06,0,1.648-0.483,1.648-1.124C212.408,14.108,212.072,13.794,211.338,13.772z M210.75,9.186c-0.788,0-1.239,0.504-1.239,1.165
			c0,0.725,0.431,1.145,1.208,1.145c0.746,0,1.208-0.42,1.208-1.145C211.926,9.637,211.506,9.186,210.75,9.186z"/>
		<path d="M213.974,13.794v-0.567c0.272-0.062,0.598-0.115,0.913-0.136v-3.77c-0.252-0.042-0.609-0.084-0.913-0.104V8.649
			c0.524-0.062,1.249-0.104,1.858-0.073v4.515c0.304,0.021,0.62,0.073,0.882,0.136v0.567H213.974z M215.37,7.537
			c-0.346,0-0.63-0.263-0.63-0.609c0-0.346,0.284-0.619,0.63-0.619c0.336,0,0.62,0.273,0.62,0.619
			C215.989,7.264,215.706,7.537,215.37,7.537z"/>
		<path d="M219.338,13.878c-1.071,0-1.396-0.441-1.396-1.564V9.312h-1.071V8.576h1.071v-1.69l0.944-0.262v1.952h1.459v0.735h-1.459
			v2.666c0,0.861,0.168,1.092,0.746,1.092c0.242,0,0.472-0.031,0.662-0.084l0.094,0.777
			C220.084,13.836,219.674,13.878,219.338,13.878z"/>
		<path d="M224.378,13.794c0-0.367,0.011-0.745,0.063-1.039h-0.021c-0.252,0.64-0.913,1.134-1.774,1.134s-1.449-0.536-1.449-1.376
			c0-1.123,1.165-1.784,3.128-1.784V10.34c0-0.734-0.262-1.145-1.092-1.145c-0.315,0-0.682,0.053-0.976,0.147
			c-0.021,0.263-0.074,0.557-0.126,0.851h-0.588V8.766c0.524-0.168,1.154-0.294,1.774-0.294c1.533,0,1.963,0.703,1.963,1.742v2.835
			c0.252,0.042,0.598,0.084,0.882,0.104v0.567C225.669,13.783,224.945,13.825,224.378,13.794z M224.326,11.379
			c-1.638,0-2.205,0.41-2.205,0.987c0,0.451,0.315,0.776,0.798,0.776c0.84,0,1.407-0.829,1.407-1.647V11.379z"/>
		<path d="M226.531,13.794v-0.567c0.263-0.062,0.577-0.115,0.882-0.136V6.876c-0.252-0.042-0.599-0.084-0.903-0.105V6.204
			c0.536-0.063,1.239-0.105,1.848-0.074v6.961c0.304,0.021,0.62,0.073,0.882,0.136v0.567H226.531z"/>
	</g>
</g>
<g>
	<g>
		<path d="M323.39,13.836c-0.714,0-1.396-0.042-1.785-0.042h-0.913v-0.567c0.273-0.062,0.599-0.115,0.913-0.136v-5.68
			c-0.314-0.021-0.64-0.073-0.913-0.137V6.708h0.893c0.557,0,1.364-0.032,2.131-0.032c2.278,0,3.633,1.061,3.633,3.496
			C327.348,12.597,325.709,13.836,323.39,13.836z M323.631,7.464c-0.378,0-0.798,0.021-1.07,0.031v5.459
			c0.272,0.042,0.65,0.062,0.944,0.062c1.669,0,2.824-0.86,2.824-2.781C326.329,8.43,325.468,7.464,323.631,7.464z"/>
		<path d="M328.136,13.794v-0.567c0.272-0.062,0.599-0.115,0.913-0.136v-3.77c-0.252-0.042-0.609-0.084-0.913-0.104V8.649
			c0.524-0.062,1.249-0.104,1.858-0.073v4.515c0.304,0.021,0.619,0.073,0.881,0.136v0.567H328.136z M329.531,7.537
			c-0.346,0-0.629-0.263-0.629-0.609c0-0.346,0.283-0.619,0.629-0.619c0.336,0,0.62,0.273,0.62,0.619
			C330.151,7.264,329.867,7.537,329.531,7.537z"/>
		<path d="M333.68,16.481c-1.344,0-2.194-0.557-2.194-1.564c0-0.608,0.399-1.123,0.871-1.386c-0.314-0.137-0.515-0.431-0.515-0.776
			c0-0.368,0.231-0.714,0.578-0.882c-0.473-0.284-0.767-0.756-0.767-1.438c0-1.05,0.787-1.953,2.215-1.953
			c0.284,0,0.473,0.032,0.735,0.095h1.773v0.745h-0.86c0.263,0.21,0.42,0.557,0.42,0.966c0,1.071-0.725,1.89-2.204,1.89
			c-0.211,0-0.368-0.021-0.557-0.073c-0.221,0.105-0.336,0.273-0.336,0.441c0,0.294,0.262,0.388,0.893,0.409l0.955,0.031
			c1.123,0.042,1.753,0.567,1.753,1.512C336.44,15.6,335.317,16.481,333.68,16.481z M334.414,13.772l-1.008-0.042
			c-0.094,0-0.221,0-0.305-0.01c-0.409,0.283-0.672,0.63-0.672,1.028c0,0.619,0.588,0.987,1.407,0.987
			c1.061,0,1.648-0.483,1.648-1.124C335.485,14.108,335.149,13.794,334.414,13.772z M333.826,9.186
			c-0.787,0-1.238,0.504-1.238,1.165c0,0.725,0.43,1.145,1.207,1.145c0.745,0,1.207-0.42,1.207-1.145
			C335.002,9.637,334.582,9.186,333.826,9.186z"/>
		<path d="M337.051,13.794v-0.567c0.272-0.062,0.598-0.115,0.913-0.136v-3.77c-0.252-0.042-0.608-0.084-0.913-0.104V8.649
			c0.524-0.062,1.249-0.104,1.857-0.073v4.515c0.305,0.021,0.62,0.073,0.883,0.136v0.567H337.051z M338.447,7.537
			c-0.347,0-0.631-0.263-0.631-0.609c0-0.346,0.284-0.619,0.631-0.619c0.336,0,0.619,0.273,0.619,0.619
			C339.066,7.264,338.783,7.537,338.447,7.537z"/>
		<path d="M342.416,13.878c-1.071,0-1.396-0.441-1.396-1.564V9.312h-1.071V8.576h1.071v-1.69l0.944-0.262v1.952h1.46v0.735h-1.46
			v2.666c0,0.861,0.168,1.092,0.745,1.092c0.242,0,0.473-0.031,0.662-0.084l0.094,0.777
			C343.161,13.836,342.752,13.878,342.416,13.878z"/>
		<path d="M347.455,13.794c0-0.367,0.011-0.745,0.063-1.039h-0.021c-0.252,0.64-0.913,1.134-1.774,1.134
			c-0.86,0-1.448-0.536-1.448-1.376c0-1.123,1.165-1.784,3.128-1.784V10.34c0-0.734-0.262-1.145-1.092-1.145
			c-0.314,0-0.682,0.053-0.976,0.147c-0.021,0.263-0.073,0.557-0.126,0.851h-0.588V8.766c0.524-0.168,1.154-0.294,1.773-0.294
			c1.533,0,1.964,0.703,1.964,1.742v2.835c0.252,0.042,0.599,0.084,0.882,0.104v0.567C348.746,13.783,348.022,13.825,347.455,13.794
			z M347.402,11.379c-1.637,0-2.204,0.41-2.204,0.987c0,0.451,0.315,0.776,0.798,0.776c0.84,0,1.406-0.829,1.406-1.647V11.379z"/>
		<path d="M349.607,13.794v-0.567c0.263-0.062,0.578-0.115,0.883-0.136V6.876c-0.252-0.042-0.599-0.084-0.903-0.105V6.204
			c0.535-0.063,1.239-0.105,1.848-0.074v6.961c0.305,0.021,0.619,0.073,0.882,0.136v0.567H349.607z"/>
		<path d="M352.999,11.169v-0.776h2.478v0.776H352.999z"/>
		<path d="M358.469,13.878c-1.07,0-1.396-0.441-1.396-1.564V9.312h-1.071V8.576h1.071v-1.69l0.944-0.262v1.952h1.459v0.735h-1.459
			v2.666c0,0.861,0.168,1.092,0.746,1.092c0.241,0,0.472-0.031,0.661-0.084l0.095,0.777
			C359.215,13.836,358.805,13.878,358.469,13.878z"/>
		<path d="M362.638,13.889c-1.428,0-2.341-0.819-2.341-2.625c0-1.564,0.966-2.782,2.54-2.782c1.323,0,2.341,0.725,2.341,2.625
			C365.178,12.671,364.213,13.889,362.638,13.889z M362.753,9.27c-0.767,0-1.479,0.577-1.479,1.921c0,1.207,0.504,1.9,1.469,1.9
			c0.777,0,1.46-0.609,1.46-1.911C364.202,9.962,363.698,9.27,362.753,9.27z"/>
		<path d="M366.103,11.169v-0.776h2.478v0.776H366.103z"/>
		<path d="M372.717,13.794c0-0.367,0.011-0.745,0.063-1.039h-0.021c-0.252,0.64-0.913,1.134-1.774,1.134
			c-0.86,0-1.448-0.536-1.448-1.376c0-1.123,1.165-1.784,3.128-1.784V10.34c0-0.734-0.262-1.145-1.092-1.145
			c-0.314,0-0.682,0.053-0.976,0.147c-0.021,0.263-0.073,0.557-0.126,0.851h-0.588V8.766c0.524-0.168,1.154-0.294,1.773-0.294
			c1.533,0,1.964,0.703,1.964,1.742v2.835c0.252,0.042,0.599,0.084,0.882,0.104v0.567C374.008,13.783,373.284,13.825,372.717,13.794
			z M372.664,11.379c-1.637,0-2.204,0.41-2.204,0.987c0,0.451,0.315,0.776,0.798,0.776c0.84,0,1.406-0.829,1.406-1.647V11.379z"/>
		<path d="M379.217,13.794v-3.359c0-0.735-0.199-1.176-0.882-1.176c-0.86,0-1.491,0.882-1.491,2.036v1.796
			c0.284,0.021,0.588,0.062,0.84,0.136v0.567h-2.697v-0.567c0.272-0.062,0.598-0.115,0.913-0.136v-3.77
			c-0.252-0.042-0.608-0.084-0.913-0.104V8.649c0.524-0.062,1.249-0.104,1.826-0.073c0,0.305-0.021,0.787-0.073,1.103h0.011
			c0.305-0.714,0.955-1.197,1.848-1.197c1.186,0,1.564,0.746,1.564,1.67v2.939c0.304,0.021,0.619,0.073,0.871,0.136v0.567H379.217z"
			/>
		<path d="M384.803,13.794c0-0.367,0.011-0.745,0.063-1.039h-0.021c-0.252,0.64-0.913,1.134-1.774,1.134
			c-0.86,0-1.448-0.536-1.448-1.376c0-1.123,1.165-1.784,3.128-1.784V10.34c0-0.734-0.262-1.145-1.092-1.145
			c-0.314,0-0.682,0.053-0.976,0.147c-0.021,0.263-0.073,0.557-0.126,0.851h-0.588V8.766c0.524-0.168,1.154-0.294,1.773-0.294
			c1.533,0,1.964,0.703,1.964,1.742v2.835c0.252,0.042,0.599,0.084,0.882,0.104v0.567C386.094,13.783,385.37,13.825,384.803,13.794z
			 M384.75,11.379c-1.637,0-2.204,0.41-2.204,0.987c0,0.451,0.315,0.776,0.798,0.776c0.84,0,1.406-0.829,1.406-1.647V11.379z"/>
		<path d="M386.955,13.794v-0.567c0.263-0.062,0.578-0.115,0.883-0.136V6.876c-0.252-0.042-0.599-0.084-0.903-0.105V6.204
			c0.535-0.063,1.239-0.105,1.848-0.074v6.961c0.305,0.021,0.619,0.073,0.882,0.136v0.567H386.955z"/>
		<path d="M392.552,13.889c-1.428,0-2.341-0.819-2.341-2.625c0-1.564,0.966-2.782,2.54-2.782c1.323,0,2.341,0.725,2.341,2.625
			C395.092,12.671,394.127,13.889,392.552,13.889z M392.667,9.27c-0.767,0-1.479,0.577-1.479,1.921c0,1.207,0.504,1.9,1.469,1.9
			c0.777,0,1.46-0.609,1.46-1.911C394.116,9.962,393.612,9.27,392.667,9.27z"/>
		<path d="M398.138,16.481c-1.344,0-2.194-0.557-2.194-1.564c0-0.608,0.398-1.123,0.871-1.386c-0.314-0.137-0.514-0.431-0.514-0.776
			c0-0.368,0.23-0.714,0.577-0.882c-0.473-0.284-0.767-0.756-0.767-1.438c0-1.05,0.787-1.953,2.215-1.953
			c0.283,0,0.473,0.032,0.735,0.095h1.774v0.745h-0.861c0.263,0.21,0.42,0.557,0.42,0.966c0,1.071-0.725,1.89-2.205,1.89
			c-0.209,0-0.367-0.021-0.556-0.073c-0.221,0.105-0.336,0.273-0.336,0.441c0,0.294,0.263,0.388,0.892,0.409l0.956,0.031
			c1.123,0.042,1.753,0.567,1.753,1.512C400.898,15.6,399.775,16.481,398.138,16.481z M398.872,13.772l-1.008-0.042
			c-0.095,0-0.22,0-0.304-0.01c-0.41,0.283-0.672,0.63-0.672,1.028c0,0.619,0.588,0.987,1.406,0.987
			c1.061,0,1.648-0.483,1.648-1.124C399.943,14.108,399.607,13.794,398.872,13.772z M398.284,9.186
			c-0.787,0-1.238,0.504-1.238,1.165c0,0.725,0.431,1.145,1.207,1.145c0.745,0,1.207-0.42,1.207-1.145
			C399.46,9.637,399.04,9.186,398.284,9.186z"/>
	</g>
</g>
<g>
	<g>
		<path d="M422.583,13.889c-0.546,0-1.071-0.063-1.512-0.179v-1.68h0.692c0.063,0.347,0.105,0.672,0.137,0.944
			c0.23,0.053,0.504,0.095,0.777,0.095c0.84,0,1.521-0.336,1.521-1.218c0-1.596-3.233-0.955-3.233-3.233
			c0-1.165,0.924-2.005,2.509-2.005c0.494,0,0.903,0.053,1.365,0.137v1.627h-0.693c-0.062-0.325-0.104-0.661-0.125-0.924
			c-0.158-0.031-0.399-0.063-0.62-0.063c-0.935,0-1.428,0.452-1.428,1.113c0,1.554,3.233,0.977,3.233,3.202
			C425.207,12.975,424.21,13.889,422.583,13.889z"/>
		<path d="M428.652,13.856c-0.336,0-0.578-0.01-0.893-0.062v1.89c0.314,0.021,0.641,0.073,0.913,0.137v0.566h-2.729V15.82
			c0.273-0.063,0.557-0.116,0.871-0.137V9.321c-0.252-0.042-0.577-0.084-0.871-0.104V8.649c0.515-0.062,1.229-0.104,1.795-0.073
			c0,0.294-0.031,0.767-0.084,1.061l0.021,0.011c0.294-0.725,0.924-1.166,1.742-1.166c1.229,0,1.922,0.861,1.922,2.457
			C431.34,12.797,430.332,13.856,428.652,13.856z M429.188,9.259c-0.945,0-1.428,1.103-1.428,2.016v1.722
			c0.283,0.084,0.577,0.126,0.934,0.126c0.987,0,1.648-0.599,1.648-2.1C430.342,9.899,429.985,9.259,429.188,9.259z"/>
		<path d="M436.609,11.169h-3.412c-0.041,1.365,0.515,1.953,1.648,1.953c0.504,0,1.029-0.105,1.491-0.305l0.136,0.745
			c-0.524,0.21-1.154,0.326-1.805,0.326c-1.586,0-2.446-0.84-2.446-2.678c0-1.554,0.871-2.729,2.352-2.729
			c1.459,0,2.067,0.977,2.067,2.142C436.641,10.749,436.631,10.959,436.609,11.169z M434.51,9.195c-0.682,0-1.165,0.504-1.28,1.302
			h2.446C435.696,9.699,435.245,9.195,434.51,9.195z"/>
		<path d="M440.768,13.794c0-0.367,0.011-0.745,0.063-1.039h-0.021c-0.252,0.64-0.913,1.134-1.774,1.134
			c-0.86,0-1.448-0.536-1.448-1.376c0-1.123,1.165-1.784,3.128-1.784V10.34c0-0.734-0.262-1.145-1.092-1.145
			c-0.314,0-0.682,0.053-0.976,0.147c-0.021,0.263-0.073,0.557-0.126,0.851h-0.588V8.766c0.524-0.168,1.154-0.294,1.773-0.294
			c1.533,0,1.964,0.703,1.964,1.742v2.835c0.252,0.042,0.599,0.084,0.882,0.104v0.567C442.059,13.783,441.335,13.825,440.768,13.794
			z M440.715,11.379c-1.637,0-2.204,0.41-2.204,0.987c0,0.451,0.315,0.776,0.798,0.776c0.84,0,1.406-0.829,1.406-1.647V11.379z"/>
		<path d="M446.764,13.794l-2.016-2.729v2.026c0.283,0.021,0.557,0.062,0.787,0.136v0.567h-2.613v-0.567
			c0.262-0.062,0.577-0.115,0.881-0.136V6.876c-0.252-0.042-0.598-0.084-0.902-0.105V6.204c0.525-0.063,1.238-0.105,1.848-0.074
			v4.829l1.512-1.689c-0.241-0.032-0.473-0.063-0.619-0.126V8.576h2.498v0.567c-0.221,0.062-0.482,0.104-0.745,0.136l-1.575,1.68
			l1.648,2.121c0.242,0.021,0.546,0.073,0.84,0.137v0.577H446.764z"/>
		<path d="M453.137,11.169h-3.412c-0.041,1.365,0.515,1.953,1.648,1.953c0.504,0,1.029-0.105,1.491-0.305L453,13.562
			c-0.524,0.21-1.154,0.326-1.805,0.326c-1.586,0-2.446-0.84-2.446-2.678c0-1.554,0.871-2.729,2.352-2.729
			c1.459,0,2.067,0.977,2.067,2.142C453.168,10.749,453.158,10.959,453.137,11.169z M451.037,9.195c-0.682,0-1.165,0.504-1.28,1.302
			h2.446C452.224,9.699,451.772,9.195,451.037,9.195z"/>
		<path d="M457.547,9.416c-1.196-0.199-1.732,0.609-1.732,2.278v1.396c0.315,0.021,0.641,0.073,0.914,0.136v0.567h-2.771v-0.567
			c0.272-0.062,0.598-0.115,0.913-0.136v-3.77c-0.252-0.042-0.608-0.084-0.913-0.104V8.649c0.524-0.062,1.249-0.104,1.826-0.073
			c0,0.325-0.031,0.809-0.104,1.239h0.011c0.23-0.725,0.756-1.449,1.899-1.334L457.547,9.416z"/>
	</g>
</g>
<g>
	<g>
		<path d="M260.396,13.794v-0.567c0.241-0.052,0.546-0.104,0.819-0.126l-0.504-3.632c-0.105-0.777-0.179-1.344-0.21-1.774h-0.021
			c-0.073,0.347-0.168,0.767-0.325,1.229l-1.68,4.871h-0.893l-1.606-4.63c-0.188-0.557-0.314-1.05-0.409-1.47h-0.021
			c-0.021,0.557-0.095,1.165-0.168,1.816l-0.431,3.59c0.283,0.021,0.577,0.074,0.818,0.126v0.567h-2.445v-0.567
			c0.178-0.042,0.462-0.104,0.65-0.115l0.829-5.7c-0.314-0.021-0.63-0.073-0.902-0.137V6.708h2.246l1.512,4.314
			c0.147,0.409,0.305,0.977,0.41,1.417h0.01c0.116-0.473,0.231-0.893,0.389-1.364l1.522-4.367h2.268v0.566
			c-0.273,0.063-0.588,0.115-0.903,0.137l0.851,5.7c0.199,0.011,0.473,0.073,0.651,0.115v0.567H260.396z"/>
		<path d="M267.819,11.169h-3.412c-0.042,1.365,0.515,1.953,1.648,1.953c0.504,0,1.029-0.105,1.491-0.305l0.136,0.745
			c-0.524,0.21-1.154,0.326-1.806,0.326c-1.585,0-2.445-0.84-2.445-2.678c0-1.554,0.871-2.729,2.352-2.729
			c1.459,0,2.067,0.977,2.067,2.142C267.851,10.749,267.841,10.959,267.819,11.169z M265.72,9.195c-0.683,0-1.165,0.504-1.28,1.302
			h2.445C266.906,9.699,266.455,9.195,265.72,9.195z"/>
		<path d="M276.051,13.794v-3.349c0-0.714-0.168-1.187-0.84-1.187c-0.745,0-1.47,0.787-1.47,2.058v1.774
			c0.294,0.021,0.588,0.062,0.851,0.136v0.567h-1.785v-3.349c0-0.662-0.136-1.187-0.85-1.187c-0.788,0-1.46,0.86-1.46,2.058v1.774
			c0.284,0.021,0.588,0.062,0.84,0.136v0.567h-2.697v-0.567c0.272-0.062,0.598-0.115,0.913-0.136v-3.77
			c-0.252-0.042-0.609-0.084-0.913-0.104V8.649c0.524-0.062,1.26-0.104,1.837-0.073c0,0.305-0.031,0.787-0.084,1.103l0.021,0.011
			c0.294-0.735,0.966-1.208,1.806-1.208c1.103,0,1.396,0.756,1.449,1.187c0.21-0.493,0.776-1.187,1.784-1.187
			c0.987,0,1.544,0.525,1.544,1.712v2.897c0.314,0.021,0.619,0.073,0.882,0.136v0.567H276.051z"/>
		<path d="M280.861,13.889c-1.428,0-2.341-0.819-2.341-2.625c0-1.564,0.966-2.782,2.54-2.782c1.323,0,2.342,0.725,2.342,2.625
			C283.402,12.671,282.436,13.889,280.861,13.889z M280.977,9.27c-0.766,0-1.48,0.577-1.48,1.921c0,1.207,0.504,1.9,1.471,1.9
			c0.776,0,1.459-0.609,1.459-1.911C282.426,9.962,281.922,9.27,280.977,9.27z"/>
		<path d="M287.728,9.416c-1.196-0.199-1.731,0.609-1.731,2.278v1.396c0.314,0.021,0.64,0.073,0.913,0.136v0.567h-2.771v-0.567
			c0.272-0.062,0.599-0.115,0.913-0.136v-3.77c-0.252-0.042-0.609-0.084-0.913-0.104V8.649c0.524-0.062,1.249-0.104,1.826-0.073
			c0,0.325-0.031,0.809-0.104,1.239h0.01c0.231-0.725,0.756-1.449,1.9-1.334L287.728,9.416z"/>
		<path d="M293.104,9.27l-1.848,5.081c-0.566,1.596-1.102,2.12-2.268,2.12c-0.199,0-0.493-0.021-0.714-0.062l0.073-0.851
			c0.242,0.073,0.452,0.115,0.693,0.115c0.566,0,0.893-0.283,1.271-1.291l0.22-0.588h-0.241l-1.606-4.524
			c-0.23-0.021-0.472-0.063-0.672-0.126V8.576h2.395v0.567c-0.2,0.062-0.431,0.104-0.683,0.126l0.787,2.257
			c0.157,0.482,0.283,0.871,0.399,1.302h0.021c0.084-0.357,0.283-0.955,0.483-1.554l0.703-2.005
			c-0.252-0.021-0.483-0.063-0.683-0.126V8.576h2.331v0.567C293.565,9.206,293.335,9.248,293.104,9.27z"/>
	</g>
</g>
<g>
	<path d="M182.331,54.593l-0.535-1.627h-2.908l-0.546,1.627h-0.977l2.404-7.086h1.239l2.394,7.086H182.331z M180.599,49.271
		c-0.094-0.284-0.178-0.578-0.252-0.893h-0.01c-0.074,0.305-0.158,0.599-0.252,0.871l-0.976,2.939h2.467L180.599,49.271z"/>
	<path d="M186.353,54.635c-0.714,0-1.092-0.042-1.606-0.042v-7.076c0.546-0.01,1.166-0.042,1.932-0.042
		c2.278,0,3.391,1.06,3.391,3.496C190.069,53.396,188.673,54.635,186.353,54.635z M186.594,48.263c-0.378,0-0.62,0.021-0.892,0.031
		v5.459c0.272,0.042,0.472,0.063,0.766,0.063c1.659,0,2.583-0.861,2.583-2.782C189.051,49.229,188.368,48.263,186.594,48.263z"/>
	<path d="M194.879,54.677c-2.268,0-3.129-1.449-3.129-3.443c0-2.163,0.977-3.79,3.328-3.79c0.588,0,1.061,0.084,1.543,0.21
		l-0.104,0.882c-0.525-0.168-0.966-0.252-1.501-0.252c-1.617,0-2.215,1.239-2.215,2.793c0,1.742,0.672,2.74,2.31,2.74
		c0.515,0,1.082-0.147,1.48-0.357l0.105,0.861C196.181,54.541,195.603,54.677,194.879,54.677z"/>
</g>
<path fill="none" stroke="#000000" stroke-width="0.75" stroke-linecap="round" d="M104.509,72.293c11.93,0,21.601-9.67,21.601-21.6
	s-9.671-21.6-21.601-21.6V72.293z"/>
<line fill="none" stroke="#000000" stroke-width="0.375" stroke-linecap="round" x1="214.311" y1="50.694" x2="244.702" y2="50.694"/>
<rect x="160.31" y="34.494" fill="none" stroke="#000000" stroke-width="0.75" stroke-linecap="round" width="54.001" height="32.4"/>
<g>
	<path d="M352.919,54.635c-0.714,0-1.092-0.042-1.606-0.042v-7.076c0.546-0.01,1.165-0.042,1.932-0.042
		c2.278,0,3.391,1.06,3.391,3.496C356.635,53.396,355.238,54.635,352.919,54.635z M353.16,48.263c-0.378,0-0.619,0.021-0.893,0.031
		v5.459c0.273,0.042,0.473,0.063,0.767,0.063c1.659,0,2.583-0.861,2.583-2.782C355.617,49.229,354.935,48.263,353.16,48.263z"/>
	<path d="M362.756,54.593l-0.535-1.627h-2.908l-0.545,1.627h-0.977l2.404-7.086h1.238l2.394,7.086H362.756z M361.024,49.271
		c-0.095-0.284-0.179-0.578-0.252-0.893h-0.011c-0.073,0.305-0.157,0.599-0.252,0.871l-0.977,2.939H362L361.024,49.271z"/>
	<path d="M368.374,54.677c-2.268,0-3.129-1.449-3.129-3.443c0-2.163,0.977-3.79,3.328-3.79c0.588,0,1.061,0.084,1.543,0.21
		l-0.104,0.882c-0.525-0.168-0.966-0.252-1.502-0.252c-1.616,0-2.215,1.239-2.215,2.793c0,1.742,0.672,2.74,2.31,2.74
		c0.515,0,1.081-0.147,1.48-0.357l0.104,0.861C369.676,54.541,369.098,54.677,368.374,54.677z"/>
</g>
<line fill="none" stroke="#000000" stroke-width="0.375" stroke-linecap="round" x1="300.502" y1="50.694" x2="332.002" y2="50.694"/>
<line fill="none" stroke="#000000" stroke-width="0.375" stroke-linecap="round" x1="387.805" y1="50.694" x2="419.299" y2="50.694"/>
<rect x="333.805" y="34.494" fill="none" stroke="#000000" stroke-width="0.75" stroke-linecap="round" width="54.004" height="32.4"/>
<rect x="421.098" y="38.094" fill="#FFFFFF" stroke="#000000" stroke-width="0.75" stroke-linecap="round" width="16.201" height="25.2"/>
<path fill="none" stroke="#000000" stroke-width="0.75" stroke-linecap="round" d="M104.51,29.095
	c-11.931,0-21.602,9.67-21.602,21.6s9.671,21.6,21.602,21.6V29.095z"/>
<polyline fill="none" stroke="#000000" stroke-width="0.375" points="237.501,43.494 244.702,50.694 237.501,57.894 "/>
<line fill="none" stroke="#000000" stroke-width="0.375" stroke-linecap="round" x1="126.11" y1="50.694" x2="158.51" y2="50.694"/>
<polyline fill="none" stroke="#000000" stroke-width="0.375" points="151.31,43.494 158.51,50.694 151.31,57.894 "/>
<polyline fill="none" stroke="#000000" stroke-width="0.375" points="324.801,43.494 332.002,50.694 324.801,57.894 "/>
<polyline fill="none" stroke="#000000" stroke-width="0.375" points="412.102,43.494 419.299,50.694 412.102,57.894 "/>
<rect x="246.501" y="29.094" fill="none" stroke="#000000" stroke-width="0.75" stroke-linecap="round" width="54" height="40.5"/>
<line fill="none" stroke="#000000" stroke-width="0.75" stroke-linecap="round" x1="257.301" y1="29.094" x2="257.301" y2="69.594"/>
<line fill="none" stroke="#000000" stroke-width="0.75" stroke-linecap="round" x1="268.102" y1="29.094" x2="268.102" y2="69.594"/>
<line fill="none" stroke="#000000" stroke-width="0.75" stroke-linecap="round" x1="278.9" y1="29.094" x2="278.9" y2="69.594"/>
<line fill="none" stroke="#000000" stroke-width="0.75" stroke-linecap="round" x1="289.699" y1="29.094" x2="289.699" y2="69.594"/>
<polyline fill="none" stroke="#000000" stroke-width="0.75" points="206.694,106.794 208.495,106.794 208.495,102.294 
	210.295,102.294 210.294,95.095 212.094,95.095 212.094,97.794 213.895,97.794 213.895,95.994 215.695,95.994 215.695,99.595 
	217.496,99.595 217.496,103.195 219.295,103.195 219.295,102.294 221.096,102.294 221.096,107.695 222.896,107.695 222.896,110.394 
	224.697,110.394 224.697,112.195 226.497,112.195 226.497,109.494 228.297,109.494 228.297,112.195 230.097,112.195 
	230.097,114.894 231.898,114.894 231.898,109.494 233.698,109.494 233.698,106.794 235.499,106.794 235.499,115.794 
	237.298,115.794 237.298,104.994 239.099,104.994 239.099,111.294 240.899,111.294 240.899,107.695 242.7,107.695 242.7,109.494 
	244.5,109.494 "/>
<polyline fill="none" stroke="#000000" stroke-width="0.75" points="302.467,106.794 304.268,106.794 304.268,102.294 
	306.066,102.294 306.066,95.095 307.867,95.095 307.867,97.794 309.666,97.794 309.666,95.994 311.467,95.994 311.467,99.595 
	313.268,99.595 313.268,103.195 315.066,103.195 315.066,102.294 316.867,102.294 316.867,107.695 318.666,107.695 318.666,110.394 
	320.469,110.394 320.469,112.195 322.268,112.195 322.268,109.494 324.07,109.494 324.07,112.195 325.867,112.195 325.867,114.894 
	327.672,114.894 327.672,109.494 329.469,109.494 329.469,106.794 331.271,106.794 331.271,115.794 333.07,115.794 333.07,104.994 
	334.873,104.994 334.873,111.294 336.672,111.294 336.672,107.695 338.473,107.695 338.473,109.494 340.271,109.494 "/>
</svg>
