<?xml version="1.0" encoding="utf-8"?>
<!-- Generator: Adobe Illustrator 16.0.0, SVG Export Plug-In . SVG Version: 6.00 Build 0)  -->
<!DOCTYPE svg PUBLIC "-//W3C//DTD SVG 1.1//EN" "http://www.w3.org/Graphics/SVG/1.1/DTD/svg11.dtd">
<svg version="1.1" id="Layer_1" xmlns="http://www.w3.org/2000/svg" xmlns:xlink="http://www.w3.org/1999/xlink" x="0px" y="0px"
	 width="206px" height="37.5px" viewBox="0 0 206 37.5" enable-background="new 0 0 206 37.5" xml:space="preserve">
<g>
	<path fill="#FFFFFF" d="M10.358,17.278c-0.432,0-0.972,0-1.548-0.072v5.219c1.08,0.072,2.196,0.252,3.132,0.432v2.916H1v-2.916
		c0.936-0.18,2.052-0.36,3.131-0.432V4.824C3.052,4.751,1.936,4.572,1,4.392V1.476h2.808c1.152,0,4.319-0.144,6.839-0.144
		c5.939,0,9.215,2.771,9.215,7.523C19.861,13.57,16.262,17.278,10.358,17.278z M10.431,5.147c-0.576,0-1.08,0-1.62,0.036v8.099
		c0.468,0.072,0.936,0.108,1.368,0.108c2.844-0.036,4.823-1.62,4.823-4.248C15.002,6.695,13.634,5.147,10.431,5.147z"/>
	<path fill="#FFFFFF" d="M34.406,12.022c-3.671-0.684-5.328,1.476-5.328,6.443v3.959c1.08,0.072,2.196,0.252,3.132,0.432v2.916
		H21.375v-2.916c0.936-0.18,2.052-0.36,3.131-0.432V11.411c-0.864-0.144-2.087-0.288-3.131-0.36V8.171
		c2.268-0.288,5.039-0.396,7.451-0.324c0,0.936-0.108,2.375-0.324,3.636h0.072c0.864-2.268,2.592-4.248,6.047-3.996L34.406,12.022z"
		/>
	<path fill="#FFFFFF" d="M44.738,26.133c-5.075,0-8.351-2.627-8.351-8.999c0-5.579,3.708-9.61,9.143-9.61
		c5.076,0,8.351,2.808,8.351,8.963C53.881,22.102,50.102,26.133,44.738,26.133z M45.206,11.411c-2.052,0-4.067,1.584-4.067,5.255
		s1.332,5.543,3.995,5.543c2.268,0,3.996-1.836,3.996-5.471C49.129,13.283,47.906,11.411,45.206,11.411z"/>
	<path fill="#FFFFFF" d="M64.897,26.097c-5.219,0-8.567-2.591-8.567-8.675c0-5.579,2.88-9.863,9.431-9.863
		c1.368,0,2.879,0.216,4.175,0.612v5.759h-2.952c-0.144-0.864-0.288-1.656-0.36-2.376c-0.432-0.144-0.972-0.18-1.476-0.18
		c-2.484,0-4.032,2.051-4.032,5.435c0,3.275,1.224,5.292,4.823,5.292c1.26,0,2.7-0.288,3.78-0.792l0.324,3.959
		C68.569,25.737,66.949,26.097,64.897,26.097z"/>
	<path fill="#FFFFFF" d="M88.188,17.566H77.102c-0.036,3.348,1.62,4.967,4.931,4.967c1.764,0,3.672-0.396,5.22-1.116l0.432,3.563
		c-1.908,0.756-4.175,1.152-6.407,1.152c-5.687,0-8.855-2.844-8.855-9.143c0-5.472,3.024-9.503,8.387-9.503
		c5.219,0,7.523,3.563,7.523,7.991C88.333,16.09,88.296,16.81,88.188,17.566z M80.666,10.871c-1.908,0-3.24,1.404-3.492,3.564h6.587
		C83.833,12.203,82.609,10.871,80.666,10.871z"/>
	<path fill="#FFFFFF" d="M96.11,26.133c-1.368,0-3.204-0.18-4.679-0.504v-5.363h2.916c0.18,0.72,0.288,1.548,0.36,2.34
		c0.504,0.108,1.224,0.18,1.8,0.18c1.836,0,3.096-0.792,3.096-2.124c0-3.132-8.639-1.476-8.639-7.415
		c0-3.24,2.628-5.723,7.703-5.723c1.332,0,3.023,0.18,4.644,0.54v5.147h-2.916c-0.18-0.72-0.288-1.548-0.36-2.304
		c-0.504-0.108-1.152-0.18-1.62-0.18c-1.944,0-2.844,0.792-2.844,1.979c0,3.167,8.639,1.692,8.639,7.307
		C104.209,23.505,101.077,26.133,96.11,26.133z"/>
	<path fill="#FFFFFF" d="M111.914,26.133c-1.368,0-3.204-0.18-4.679-0.504v-5.363h2.916c0.18,0.72,0.288,1.548,0.36,2.34
		c0.504,0.108,1.224,0.18,1.8,0.18c1.836,0,3.096-0.792,3.096-2.124c0-3.132-8.639-1.476-8.639-7.415
		c0-3.24,2.628-5.723,7.703-5.723c1.332,0,3.023,0.18,4.644,0.54v5.147h-2.916c-0.18-0.72-0.288-1.548-0.36-2.304
		c-0.504-0.108-1.152-0.18-1.62-0.18c-1.944,0-2.844,0.792-2.844,1.979c0,3.167,8.639,1.692,8.639,7.307
		C120.013,23.505,116.881,26.133,111.914,26.133z"/>
	<path fill="#FFFFFF" d="M122.246,25.773v-2.916c0.936-0.18,2.052-0.36,3.131-0.432V11.411c-0.864-0.144-2.087-0.288-3.131-0.36
		V8.171c2.268-0.288,5.039-0.396,7.703-0.324v14.578c1.008,0.072,2.051,0.252,2.916,0.432v2.916H122.246z M127.646,5.58
		c-1.584,0-2.844-1.26-2.844-2.808c0-1.512,1.26-2.772,2.844-2.772c1.583,0,2.879,1.224,2.879,2.772S129.229,5.58,127.646,5.58z"/>
	<path fill="#FFFFFF" d="M148.56,14.326c0-1.872-0.504-2.987-2.196-2.987c-2.34,0-4.176,2.664-4.176,5.795v5.292
		c0.864,0.072,1.836,0.18,2.628,0.396v2.952h-10.331v-2.916c0.936-0.18,2.052-0.36,3.131-0.432V11.411
		c-0.864-0.144-2.087-0.288-3.131-0.36V8.171c2.268-0.288,5.039-0.396,7.451-0.324c0,0.828-0.072,2.268-0.252,3.204l0.036,0.036
		c1.08-2.124,3.167-3.6,6.083-3.6c4.031,0,5.327,2.592,5.327,5.723v9.215c1.044,0.072,2.088,0.252,2.952,0.432v2.916h-7.523V14.326z
		"/>
	<path fill="#FFFFFF" d="M165.624,34.88c-4.751,0-7.667-1.8-7.667-5.292c0-1.872,1.26-3.6,2.736-4.319
		c-1.08-0.54-1.764-1.476-1.764-2.736c0-1.368,0.864-2.627,2.087-3.167c-1.62-0.9-2.627-2.664-2.627-5.003
		c0-3.744,2.7-6.875,8.099-6.875c1.151,0,2.16,0.144,3.131,0.396h6.047v3.6h-2.412c0.54,0.54,0.9,1.368,0.9,2.375
		c0,3.888-2.7,6.551-7.883,6.551c-0.54,0-1.152-0.036-1.656-0.144c-0.576,0.252-0.828,0.72-0.828,1.152
		c0,0.828,0.684,1.116,2.771,1.116h2.771c3.888,0,6.155,1.8,6.155,5.184C175.487,31.604,171.6,34.88,165.624,34.88z M168.072,26.169
		h-3.131c-0.252,0-0.648,0-0.864,0c-1.008,0.576-1.583,1.548-1.583,2.556c0,1.656,1.512,2.627,3.815,2.627
		c2.988,0,4.607-1.26,4.607-3.023C170.916,27.105,170.052,26.169,168.072,26.169z M166.308,10.835c-2.196,0-3.528,1.332-3.528,3.239
		c0,2.016,1.26,3.204,3.528,3.204c2.088,0,3.456-1.152,3.456-3.167S168.54,10.835,166.308,10.835z"/>
	<path fill="#FFFFFF" d="M186.972,25.773v-1.836l5.183-6.047c3.996-4.68,5.184-7.055,5.184-10.079c0-2.591-1.476-4.715-4.715-4.715
		c-1.08,0-2.268,0.252-3.168,0.576c-0.108,1.116-0.252,2.268-0.468,3.383h-1.404V2.196c1.512-0.576,3.419-1.008,5.471-1.008
		c4.355,0,6.695,2.736,6.695,6.371c0,3.528-1.62,6.299-6.083,11.519l-3.959,4.644v0.036c1.908-0.072,6.299-0.108,11.05-0.108v2.124
		H186.972z"/>
</g>
</svg>
